<svg width="24" height="24" viewBox="0 0 24 24" fill="none" xmlns="http://www.w3.org/2000/svg">
<path d="M11 3.23535L4.72261 6.18942C3.67113 6.68423 3 7.74179 3 8.90387V14.882L10.2111 11.2765C10.4655 11.1493 10.7299 11.0509 11 10.9811V3.23535Z" fill="black"/>
<path d="M13 10.9811C13.2701 11.0509 13.5345 11.1493 13.7889 11.2765L21 14.882V8.90387C21 7.74179 20.3289 6.68423 19.2774 6.18942L13 3.23535V10.9811Z" fill="black"/>
<path d="M11.1056 13.0653L4.2603 16.4879L11.4734 19.8823C11.6381 19.9599 11.8179 20.0001 12 20.0001C12.1821 20.0001 12.3619 19.9599 12.5266 19.8823L19.7397 16.4879L12.8944 13.0653C12.3314 12.7838 11.6686 12.7838 11.1056 13.0653Z" fill="black"/>
</svg>
