<svg width="24" height="24" viewBox="0 0 24 24" fill="none" xmlns="http://www.w3.org/2000/svg">
<path d="M4.92495 9.22515C4.58657 8.21001 3.78999 7.41343 2.77485 7.07505C1.74172 6.73067 1.74172 5.26933 2.77485 4.92495C3.78999 4.58657 4.58657 3.78999 4.92495 2.77485C5.26933 1.74172 6.73067 1.74172 7.07505 2.77485C7.41343 3.78999 8.21001 4.58657 9.22515 4.92495C10.2583 5.26933 10.2583 6.73067 9.22515 7.07505C8.21001 7.41343 7.41343 8.21001 7.07505 9.22515C6.73067 10.2583 5.26933 10.2583 4.92495 9.22515Z" fill="black"/>
<path d="M13.1187 20.644C12.5265 18.8675 11.1325 17.4735 9.35599 16.8813C7.548 16.2787 7.548 13.7213 9.35599 13.1187C11.1325 12.5265 12.5265 11.1325 13.1187 9.35599C13.7213 7.548 16.2787 7.548 16.8813 9.35599C17.4735 11.1325 18.8675 12.5265 20.644 13.1187C22.452 13.7213 22.452 16.2787 20.644 16.8813C18.8675 17.4735 17.4735 18.8675 16.8813 20.644C16.2787 22.452 13.7213 22.452 13.1187 20.644Z" fill="black"/>
</svg>
