<svg width="24" height="24" viewBox="0 0 24 24" fill="none" xmlns="http://www.w3.org/2000/svg">
<path d="M6.64746 3C7.79064 3 8.84423 3.61982 9.39941 4.61914L9.88867 5.49902C10.2897 6.22089 10.5 7.03359 10.5 7.85938V19.5C10.5 20.3284 9.82843 21 9 21C8.17157 21 7.5 20.3284 7.5 19.5V14.6904C7.49992 12.9779 6.77293 11.3459 5.5 10.2002L4.73633 9.5127C3.94942 8.80425 3.50007 7.79517 3.5 6.73633V6.14746C3.50019 4.40925 4.90925 3.00019 6.64746 3ZM17.3525 3C19.0907 3.00019 20.4998 4.40925 20.5 6.14746V6.73633C20.4999 7.79517 20.0506 8.80425 19.2637 9.5127L18.5 10.2002C17.2271 11.3459 16.5001 12.9779 16.5 14.6904V19.5C16.5 20.3284 15.8284 21 15 21C14.1716 21 13.5 20.3284 13.5 19.5V7.85938C13.5 7.03359 13.7103 6.22089 14.1113 5.49902L14.6006 4.61914C15.1558 3.61982 16.2094 3 17.3525 3Z" fill="black"/>
</svg>
