<svg width="24" height="24" viewBox="0 0 24 24" fill="none" xmlns="http://www.w3.org/2000/svg">
<path d="M12 2C13.1046 2 14 2.89543 14 4V7.46482C14 7.79917 14.1671 8.1114 14.4453 8.29687L19.5547 11.7031C19.8329 11.8886 20 12.2008 20 12.5352V14.6126C20 15.2951 19.3313 15.7771 18.6838 15.5613L15.3162 14.4387C14.6687 14.2229 14 14.7049 14 15.3874V17.5858C14 17.851 14.1054 18.1054 14.2929 18.2929L16.2929 20.2929C16.9229 20.9229 16.4767 22 15.5858 22H14.1231C14.0413 22 13.9599 21.99 13.8806 21.9701L12.2425 21.5606C12.0833 21.5208 11.9167 21.5208 11.7575 21.5606L10.1194 21.9701C10.0401 21.99 9.95866 22 9.87689 22H8.41421C7.52331 22 7.07714 20.9229 7.70711 20.2929L9.70711 18.2929C9.89464 18.1054 10 17.851 10 17.5858V15.3874C10 14.7049 9.3313 14.2229 8.68377 14.4387L5.31623 15.5613C4.6687 15.7771 4 15.2951 4 14.6126V12.5352C4 12.2008 4.1671 11.8886 4.4453 11.7031L9.5547 8.29687C9.8329 8.1114 10 7.79917 10 7.46482V4C10 2.89543 10.8954 2 12 2Z" fill="black"/>
</svg>
