<svg width="24" height="24" viewBox="0 0 24 24" fill="none" xmlns="http://www.w3.org/2000/svg">
<path d="M2 6C2 3.79086 3.79086 2 6 2H8C8.55228 2 9 2.44772 9 3C9 3.55228 8.55228 4 8 4H6C4.89543 4 4 4.89543 4 6V8C4 8.55228 3.55228 9 3 9C2.44772 9 2 8.55228 2 8V6Z" fill="black"/>
<path d="M22 6C22 3.79086 20.2091 2 18 2H16C15.4477 2 15 2.44772 15 3C15 3.55228 15.4477 4 16 4H18C19.1046 4 20 4.89543 20 6V8C20 8.55228 20.4477 9 21 9C21.5523 9 22 8.55228 22 8V6Z" fill="black"/>
<path d="M2 18C2 20.2091 3.79086 22 6 22H8C8.55228 22 9 21.5523 9 21C9 20.4477 8.55228 20 8 20H6C4.89543 20 4 19.1046 4 18V16C4 15.4477 3.55228 15 3 15C2.44772 15 2 15.4477 2 16V18Z" fill="black"/>
<path d="M22 18C22 20.2091 20.2091 22 18 22H16C15.4477 22 15 21.5523 15 21C15 20.4477 15.4477 20 16 20H18C19.1046 20 20 19.1046 20 18V16C20 15.4477 20.4477 15 21 15C21.5523 15 22 15.4477 22 16V18Z" fill="black"/>
<path d="M7.95701 8.76207L11.4444 7V11.6203C11.2944 11.6619 11.1475 11.7206 11.0062 11.7964L7 13.9471V10.3812C7 9.68805 7.37285 9.05723 7.95701 8.76207Z" fill="black"/>
<path d="M12.5556 11.6203C12.7056 11.6619 12.8525 11.7206 12.9938 11.7964L17 13.9471V10.3812C17 9.68805 16.6271 9.05723 16.043 8.76207L12.5556 7V11.6203Z" fill="black"/>
<path d="M11.5031 12.8635L7.70016 14.9051L11.7074 16.9298C11.799 16.976 11.8989 17 12 17C12.1011 17 12.201 16.976 12.2926 16.9298L16.2998 14.9051L12.4969 12.8635C12.1841 12.6956 11.8159 12.6956 11.5031 12.8635Z" fill="black"/>
</svg>
