<svg width="24" height="24" viewBox="0 0 24 24" fill="none" xmlns="http://www.w3.org/2000/svg">
<path fill-rule="evenodd" clip-rule="evenodd" d="M5 2C3.34315 2 2 3.34315 2 5V19C2 20.6569 3.34315 22 5 22H19C20.6569 22 22 20.6569 22 19V5C22 3.34315 20.6569 2 19 2H5ZM4.79292 4.79289C4.4024 5.18342 4.4024 5.81658 4.79292 6.20711L8.05029 9.46447H6.22186C5.66957 9.46447 5.22186 9.91219 5.22186 10.4645C5.22186 11.0168 5.66957 11.4645 6.22186 11.4645H10.4645C11.0168 11.4645 11.4645 11.0168 11.4645 10.4645V6.22183C11.4645 5.66954 11.0168 5.22183 10.4645 5.22183C9.91221 5.22183 9.4645 5.66954 9.4645 6.22183V8.05026L6.20714 4.79289C5.81661 4.40237 5.18345 4.40237 4.79292 4.79289ZM17.7782 12.5355L13.5356 12.5355C12.9833 12.5355 12.5356 12.9833 12.5356 13.5355L12.5356 17.7782C12.5356 18.3305 12.9833 18.7782 13.5356 18.7782C14.0878 18.7782 14.5356 18.3305 14.5356 17.7782L14.5356 15.9497L17.7929 19.2071C18.1834 19.5976 18.8166 19.5976 19.2071 19.2071C19.5977 18.8166 19.5977 18.1834 19.2071 17.7929L15.9498 14.5355L17.7782 14.5355C18.3305 14.5355 18.7782 14.0878 18.7782 13.5355C18.7782 12.9832 18.3305 12.5355 17.7782 12.5355Z" fill="black"/>
</svg>
