<svg width="24" height="24" viewBox="0 0 24 24" fill="none" xmlns="http://www.w3.org/2000/svg">
<path fill-rule="evenodd" clip-rule="evenodd" d="M2 5C2 3.34315 3.34315 2 5 2H19C20.6569 2 22 3.34315 22 5V19C22 20.6569 20.6569 22 19 22H5C3.34315 22 2 20.6569 2 19V5ZM15.797 3.77468C16.1506 3.3504 16.7811 3.29308 17.2054 3.64664L19.6381 5.67385C19.844 5.84458 19.9813 6.09701 19.9983 6.38512C20.0093 6.57277 19.9679 6.75136 19.8866 6.90662L18.2712 10.1374C18.0242 10.6314 17.4236 10.8316 16.9296 10.5846C16.4356 10.3377 16.2354 9.73698 16.4824 9.24301L17.1827 7.8423C14.7863 8.75205 13.1015 11.0688 13.1015 13.7601V19.8351C13.1014 20.3874 12.6537 20.8351 12.1015 20.8351C12.0672 20.8351 12.0334 20.8334 12 20.8301C11.9666 20.8334 11.9328 20.8351 11.8986 20.8351C11.3463 20.8351 10.8986 20.3874 10.8986 19.8351L10.8986 13.7601C10.8986 11.0688 9.21367 8.75205 6.81727 7.8423L7.51762 9.24301C7.76461 9.73698 7.56439 10.3377 7.07041 10.5846C6.57643 10.8316 5.97576 10.6314 5.72877 10.1374L4.11336 6.90662C4.03214 6.75136 3.99069 6.57277 4.00173 6.38512C4.01868 6.09701 4.156 5.84458 4.36194 5.67386L6.7946 3.64664C7.21888 3.29308 7.84945 3.3504 8.20301 3.77468C8.55657 4.19896 8.49925 4.82952 8.07497 5.18308L7.24837 5.87192C9.32488 6.57614 11.0246 8.0731 12 9.99416C12.9754 8.0731 14.6751 6.57614 16.7516 5.87192L15.925 5.18308C15.5008 4.82952 15.4434 4.19896 15.797 3.77468Z" fill="black"/>
</svg>
