<svg width="24" height="24" viewBox="0 0 24 24" fill="none" xmlns="http://www.w3.org/2000/svg">
<path fill-rule="evenodd" clip-rule="evenodd" d="M5 2C3.34315 2 2 3.34315 2 5V19C2 20.6569 3.34315 22 5 22H19C20.6569 22 22 20.6569 22 19V5C22 3.34315 20.6569 2 19 2H5ZM19.3641 5.63604C19.3641 5.08376 18.9164 4.63604 18.3641 4.63604H12.7072C12.1549 4.63604 11.7072 5.08376 11.7072 5.63604C11.7072 6.18833 12.1549 6.63604 12.7072 6.63604H15.9499L4.92904 17.6569C4.53852 18.0474 4.53852 18.6805 4.92904 19.0711C5.31957 19.4616 5.95273 19.4616 6.34326 19.0711L17.3641 8.05026V11.2929C17.3641 11.8452 17.8118 12.2929 18.3641 12.2929C18.9164 12.2929 19.3641 11.8452 19.3641 11.2929V5.63604Z" fill="black"/>
</svg>
