<svg width="24" height="24" viewBox="0 0 24 24" fill="none" xmlns="http://www.w3.org/2000/svg">
<path fill-rule="evenodd" clip-rule="evenodd" d="M5 2C3.34315 2 2 3.34315 2 5V19C2 20.6569 3.34315 22 5 22H19C20.6569 22 22 20.6569 22 19V5C22 3.34315 20.6569 2 19 2H5ZM19.571 5.62132C19.571 5.06904 19.1233 4.62132 18.571 4.62132H14.3284C13.7761 4.62132 13.3284 5.06904 13.3284 5.62132C13.3284 6.1736 13.7761 6.62132 14.3284 6.62132H16.1568L6.42889 16.3492L6.42889 14.5208C6.42889 13.9685 5.98118 13.5208 5.42889 13.5208C4.87661 13.5208 4.42889 13.9685 4.42889 14.5208L4.42889 18.7635C4.42889 19.3157 4.87661 19.7635 5.42889 19.7635H9.67153C10.2238 19.7635 10.6715 19.3157 10.6715 18.7635C10.6715 18.2112 10.2238 17.7635 9.67153 17.7635H7.84311L17.571 8.03553V9.86396C17.571 10.4162 18.0187 10.864 18.571 10.864C19.1233 10.864 19.571 10.4162 19.571 9.86396V5.62132Z" fill="black"/>
</svg>
