<svg width="24" height="24" viewBox="0 0 24 24" fill="none" xmlns="http://www.w3.org/2000/svg">
<path fill-rule="evenodd" clip-rule="evenodd" d="M6.78361 6.05783C6.91094 5.44343 7.09199 4.81876 7.34701 4.22842C7.7069 3.39535 8.23424 2.58332 9.01115 1.97719C9.80256 1.35975 10.7977 1 12 1C13.2023 1 14.1975 1.35975 14.9889 1.97719C15.7658 2.58332 16.2931 3.39535 16.653 4.22842C16.908 4.81876 17.0891 5.44343 17.2164 6.05783C18.3183 6.27851 19.229 7.11196 19.5109 8.23175C23.0412 22.2578 19.9015 22.1512 14.2161 21.9581C13.5137 21.9343 12.7724 21.9091 12 21.9091C11.2276 21.9091 10.4863 21.9343 9.7839 21.9581C4.09855 22.1512 0.958806 22.2578 4.48912 8.23175C4.77097 7.11195 5.68172 6.27851 6.78361 6.05783ZM8.85039 6C8.93916 5.66256 9.04866 5.33259 9.18302 5.02158C9.45313 4.39632 9.80329 3.89585 10.2414 3.55406C10.665 3.22358 11.2223 3 12 3C12.7777 3 13.335 3.22358 13.7586 3.55406C14.1967 3.89585 14.5469 4.39631 14.817 5.02158C14.9514 5.33259 15.0609 5.66256 15.1496 6H8.85039Z" fill="black"/>
</svg>
