<svg width="24" height="24" viewBox="0 0 24 24" fill="none" xmlns="http://www.w3.org/2000/svg">
<path d="M2.01897 11.3789C2.00639 11.5843 2 11.7914 2 12L2.01897 11.3789Z" fill="black"/>
<path d="M2.35997 9.33156L2.18947 10.3552L2.01897 11.3789" fill="black"/>
<path d="M10.9965 8.73819L10.3357 9.12147L9.67699 9.49998C9.05491 9.85744 8.67197 10.5207 8.67344 11.2382L8.67501 12.002L8.67344 12.7618C8.67197 13.4792 9.05491 14.1425 9.67699 14.5L10.3393 14.8805L10.9964 15.2618C11.6171 15.6218 12.3829 15.6218 13.0036 15.2618L13.6643 14.8785L14.323 14.5C14.9451 14.1425 15.328 13.4792 15.3266 12.7618L15.325 12.002V11.9979L15.3266 11.2382C15.328 10.5207 14.9451 9.85744 14.323 9.49998L13.6607 9.11942L13.0035 8.73819C12.3829 8.37818 11.6171 8.37818 10.9965 8.73819Z" fill="black"/>
<path d="M9.87814 21.7744C8.04028 21.3773 6.39046 20.475 5.08127 19.2202C5.77746 18.858 6.61354 18.875 7.29658 19.2712L8.01947 19.6906L8.02303 19.6926L8.74763 20.109C9.36541 20.464 9.77811 21.0812 9.87814 21.7744Z" fill="black"/>
<path d="M21.184 15.9629C20.6453 17.2098 19.8601 18.3252 18.8898 19.2478C18.6418 18.604 18.6941 17.875 19.0467 17.2672L19.4661 16.5443L19.4681 16.5407L19.8845 15.8161C20.2545 15.1722 20.9095 14.7511 21.6383 14.6746C21.5158 15.1171 21.3636 15.5473 21.184 15.9629Z" fill="black"/>
<path d="M4.91114 4.94677C3.71604 6.14787 2.82415 7.65096 2.35997 9.33156C3.00375 9.19589 3.56706 8.78821 3.89446 8.20095L4.30341 7.46742L4.71336 6.73917C5.02437 6.18665 5.08964 5.53864 4.91114 4.94677Z" fill="black"/>
<path d="M18.9997 4.85824C18.3284 5.16046 17.5468 5.12448 16.9018 4.75029L16.1789 4.33095L16.1753 4.3289L15.4507 3.91252C14.8402 3.56169 14.4299 2.95468 14.3239 2.2714C16.1184 2.69847 17.7255 3.60921 18.9997 4.85824Z" fill="black"/>
<path fill-rule="evenodd" clip-rule="evenodd" d="M2.08412 11.3764L2 12C2.00001 14.0848 2.638 16.0206 3.72941 17.6229L4.06172 17.4977C5.382 16.7675 6.99134 16.782 8.30013 17.5412L9.01947 17.9585L9.02303 17.9606L9.74408 18.3749C11.049 19.1247 11.8644 20.5004 11.9005 21.9995C11.9336 21.9998 11.9668 22 12 22C13.9347 22 15.7411 21.4505 17.2716 20.4992C16.543 19.1795 16.5581 17.5715 17.3167 16.2636L17.734 15.5443L17.7361 15.5407L18.1504 14.8197C18.9187 13.4827 20.344 12.6594 21.886 12.662H21.9784C21.9927 12.4432 22 12.2225 22 12C22 11.7429 21.9903 11.488 21.9712 11.2357C21.8378 9.46995 21.2456 7.83206 20.3137 6.441L20.1659 6.50751C18.8402 7.25419 17.2167 7.24511 15.8982 6.48028L15.1789 6.06299L15.1753 6.06094L14.4543 5.64662C13.1443 4.89387 12.3275 3.5103 12.2975 2.00433C12.1987 2.00145 12.0995 2 12 2C9.9792 2 8.09839 2.59941 6.52569 3.63013C7.19148 4.91248 7.1706 6.45109 6.45621 7.72022L6.04627 8.44848L5.64132 9.17484C4.91487 10.4779 3.56723 11.308 2.08412 11.3764ZM14.6643 7.38941L14.0071 7.00819C12.7659 6.28818 11.2341 6.28818 9.9929 7.00819L9.33749 7.38839L8.68054 7.76588C7.43639 8.48079 6.6705 9.80736 6.67344 11.2423L6.675 12L6.67344 12.7577C6.6705 14.1926 7.43639 15.5191 8.68054 16.2341L9.33572 16.6105L9.33928 16.6126L9.9929 16.9917C11.2341 17.7118 12.7659 17.7118 14.0071 16.9917L14.6607 16.6126L14.6643 16.6105L15.3195 16.2341C16.5636 15.5191 17.3295 14.1926 17.3266 12.7577L17.325 12.002V11.9979L17.3266 11.2423C17.3295 9.80736 16.5636 8.4808 15.3195 7.76588L14.6643 7.38941Z" fill="black"/>
<path d="M2.01897 11.3789L2 12L2.08412 11.3764C2.06244 11.3774 2.04072 11.3782 2.01897 11.3789Z" fill="black"/>
</svg>
