<svg width="24" height="24" viewBox="0 0 24 24" fill="none" xmlns="http://www.w3.org/2000/svg">
<path fill-rule="evenodd" clip-rule="evenodd" d="M11.6838 3.10503L3.68377 5.77169C3.27543 5.90781 3 6.28995 3 6.72038V8.99962C3 9.5519 3.44772 9.99962 4 9.99962H5V16.9996H4C3.44772 16.9996 3 17.4473 3 17.9996V19.9996C3 20.5519 3.44772 20.9996 4 20.9996H20C20.5523 20.9996 21 20.5519 21 19.9996V17.9996C21 17.4473 20.5523 16.9996 20 16.9996H19V9.99962H20C20.5523 9.99962 21 9.5519 21 8.99962V6.72038C21 6.28995 20.7246 5.90781 20.3162 5.77169L12.3162 3.10503C12.111 3.03661 11.889 3.03661 11.6838 3.10503ZM17 16.9996V9.99962H15V16.9996H17ZM13 16.9996V9.99962H11V16.9996H13ZM9 16.9996V9.99962H7V16.9996H9Z" fill="black"/>
</svg>
