<svg width="24" height="24" viewBox="0 0 24 24" fill="none" xmlns="http://www.w3.org/2000/svg">
<path fill-rule="evenodd" clip-rule="evenodd" d="M6 6H16C17.6569 6 19 7.34315 19 9V10C19.8284 10 20.5 10.6716 20.5 11.5V12.5C20.5 13.3284 19.8284 14 19 14V15C19 16.6569 17.6569 18 16 18H6C4.34315 18 3 16.6569 3 15V9C3 7.34315 4.34315 6 6 6ZM6.5 8C7.05228 8 7.5 8.44772 7.5 9V15C7.5 15.5523 7.05228 16 6.5 16C5.94772 16 5.5 15.5523 5.5 15V9C5.5 8.44772 5.94772 8 6.5 8ZM10.5 9C10.5 8.44772 10.0523 8 9.5 8C8.94772 8 8.5 8.44772 8.5 9V15C8.5 15.5523 8.94772 16 9.5 16C10.0523 16 10.5 15.5523 10.5 15V9ZM12.5 8C13.0523 8 13.5 8.44772 13.5 9V15C13.5 15.5523 13.0523 16 12.5 16C11.9477 16 11.5 15.5523 11.5 15V9C11.5 8.44772 11.9477 8 12.5 8ZM16.5 9C16.5 8.44772 16.0523 8 15.5 8C14.9477 8 14.5 8.44772 14.5 9V15C14.5 15.5523 14.9477 16 15.5 16C16.0523 16 16.5 15.5523 16.5 15V9Z" fill="black"/>
</svg>
