<svg width="24" height="24" viewBox="0 0 24 24" fill="none" xmlns="http://www.w3.org/2000/svg">
<path d="M10.4895 11.8889L10.5085 11.8425C10.5295 11.8586 10.5509 11.8741 10.5729 11.8889H10.4895Z" fill="black"/>
<path d="M11.4915 12.1575C11.4705 12.1414 11.4491 12.1259 11.4271 12.1111H11.5105L11.4915 12.1575Z" fill="black"/>
<path fill-rule="evenodd" clip-rule="evenodd" d="M16 6H6C4.34315 6 3 7.34315 3 9V15C3 16.6569 4.34315 18 6 18H16C17.6569 18 19 16.6569 19 15V14C19.8284 14 20.5 13.3284 20.5 12.5V11.5C20.5 10.6716 19.8284 10 19 10V9C19 7.34315 17.6569 6 16 6ZM12 9.52566C12 8.09997 10.0366 7.71389 9.49679 9.03344L8.24365 12.0967C7.89377 12.9519 8.52282 13.8889 9.44686 13.8889H10V14.4743C10 15.9 11.9634 16.2861 12.5032 14.9666L13.7564 11.9033C14.1062 11.0481 13.4772 10.1111 12.5531 10.1111H12V9.52566Z" fill="black"/>
</svg>
