<svg width="24" height="24" viewBox="0 0 24 24" fill="none" xmlns="http://www.w3.org/2000/svg">
<path d="M11 6C10.4477 6 10 6.44772 10 7H5.73244C5.38663 6.4022 4.74028 6 4 6C2.89543 6 2 6.89543 2 8C2 9.10457 2.89543 10 4 10C4.74028 10 5.38663 9.5978 5.73244 9H7.63587C4.2997 10.6207 2 14.0418 2 18V19C2 19.5523 2.44772 20 3 20C3.55228 20 4 19.5523 4 19V18C4 13.5817 7.58172 10 12 10C16.4183 10 20 13.5817 20 18V19C20 19.5523 20.4477 20 21 20C21.5523 20 22 19.5523 22 19V18C22 14.0418 19.7003 10.6207 16.3641 9H19.2676C19.6134 9.5978 20.2597 10 21 10C22.1046 10 23 9.10457 23 8C23 6.89543 22.1046 6 21 6C20.2597 6 19.6134 6.4022 19.2676 7H14C14 6.44772 13.5523 6 13 6H11Z" fill="black"/>
</svg>
