<svg width="24" height="24" viewBox="0 0 24 24" fill="none" xmlns="http://www.w3.org/2000/svg">
<path d="M13.0002 3C13.0002 2.44772 12.5525 2 12.0002 2C11.4479 2 11.0002 2.44772 11.0002 3V4.5C11.0002 4.52773 11.0013 4.5552 11.0035 4.58237C8.16418 5.05688 6.0002 7.52474 6.0002 10.4989V14.5C6.0002 15.0002 5.59009 15.8676 5.14129 16.6671C4.50977 17.7921 4.62542 19.1484 5.8311 19.6075C7.04372 20.0692 8.98346 20.5 12.0002 20.5C15.0169 20.5 16.9567 20.0692 18.1693 19.6075C19.375 19.1484 19.4906 17.7921 18.8591 16.6671C18.4103 15.8676 18.0002 15.0002 18.0002 14.5V10.4994C18.0002 7.52522 15.8362 5.05698 12.9969 4.58238C12.9991 4.55521 13.0002 4.52774 13.0002 4.5V3Z" fill="black"/>
<path d="M8.9203 21.3246C8.95763 21.3572 9.00271 21.3952 9.05521 21.4372C9.2055 21.5574 9.42022 21.7132 9.69158 21.8683C10.2301 22.176 11.0264 22.5 12.0002 22.5C12.974 22.5 13.7703 22.176 14.3089 21.8683C14.5802 21.7132 14.7949 21.5574 14.9452 21.4372C14.9977 21.3952 15.0428 21.3572 15.0801 21.3246C14.2058 21.4335 13.1862 21.5 12.0002 21.5C10.8142 21.5 9.79465 21.4335 8.9203 21.3246Z" fill="black"/>
</svg>
