<svg width="24" height="24" viewBox="0 0 24 24" fill="none" xmlns="http://www.w3.org/2000/svg">
<path d="M13 2C13 1.44772 12.5523 1 12 1C11.4477 1 11 1.44772 11 2V3.5C11 3.52773 11.0011 3.5552 11.0033 3.58237C8.16396 4.05689 5.99998 6.52474 5.99998 9.4989V13.5C5.99998 14.0002 5.58987 14.8676 5.14107 15.6671C5.02575 15.8725 4.93535 16.0856 4.87195 16.2996L16.0754 5.09616C15.2362 4.31927 14.1745 3.77927 12.9966 3.58238C12.9988 3.55521 13 3.52774 13 3.5V2Z" fill="black"/>
<path d="M20.7071 4.70711C21.0976 4.31658 21.0976 3.68342 20.7071 3.29289C20.3166 2.90237 19.6834 2.90237 19.2929 3.29289L3.29289 19.2929C2.90237 19.6834 2.90237 20.3166 3.29289 20.7071C3.68342 21.0976 4.31658 21.0976 4.70711 20.7071L20.7071 4.70711Z" fill="black"/>
<path d="M7.69898 19.1294L17.9665 8.86189C17.9886 9.07136 18 9.28405 18 9.49938V13.5C18 14.0002 18.4101 14.8676 18.8589 15.6671C19.4904 16.7921 19.3748 18.1484 18.1691 18.6075C16.9565 19.0692 15.0167 19.5 12 19.5C10.2124 19.5 8.80303 19.3487 7.69898 19.1294Z" fill="black"/>
<path d="M8.92008 20.3246C8.95741 20.3572 9.00248 20.3952 9.05499 20.4372C9.20528 20.5574 9.41999 20.7132 9.69135 20.8683C10.2299 21.176 11.0262 21.5 12 21.5C12.9738 21.5 13.7701 21.176 14.3086 20.8683C14.58 20.7132 14.7947 20.5574 14.945 20.4372C14.9975 20.3952 15.0426 20.3572 15.0799 20.3246C14.2056 20.4335 13.186 20.5 12 20.5C10.814 20.5 9.79443 20.4335 8.92008 20.3246Z" fill="black"/>
</svg>
