<svg width="24" height="24" viewBox="0 0 24 24" fill="none" xmlns="http://www.w3.org/2000/svg">
<path fill-rule="evenodd" clip-rule="evenodd" d="M2.5 4C2.5 3.44772 2.94772 3 3.5 3H5C5.55228 3 6 3.44772 6 4V5.66667L7 7H13.6338C13.5487 6.85291 13.5 6.68214 13.5 6.5C13.5 5.94772 13.9477 5.5 14.5 5.5H18C18.5523 5.5 19 5.94772 19 6.5C19 7.05228 18.5523 7.5 18 7.5H17.0352L16.5826 8.17883L18.4662 15.2423C18.5659 15.6159 18.4412 16.0135 18.146 16.2633C17.8509 16.5131 17.4382 16.5704 17.0862 16.4104L7.5 12.053V15.5C7.5 16.0523 7.05228 16.5 6.5 16.5C5.94772 16.5 5.5 16.0523 5.5 15.5V8.33333L4.2 6.6C4.07018 6.4269 4 6.21637 4 6V5H3.5C2.94772 5 2.5 4.55228 2.5 4ZM7.5 9V9.85609L15.989 13.7147L14.7317 9H7.5Z" fill="black"/>
<path d="M4.75 12.353C3.13403 13.0357 2 14.6354 2 16.5C2 18.9853 4.01472 21 6.5 21C8.98528 21 11 18.9853 11 16.5C11 15.6486 10.7636 14.8524 10.3527 14.1736L8.25 13.2178V15.5C8.25 16.4665 7.4665 17.25 6.5 17.25C5.5335 17.25 4.75 16.4665 4.75 15.5V12.353Z" fill="black"/>
<path d="M13 16.5C13 16.1329 13.044 15.7761 13.1269 15.4345L16.7758 17.0931C17.3918 17.3731 18.1141 17.2729 18.6306 16.8358C19.1471 16.3986 19.3653 15.7029 19.1909 15.0491L18.4019 12.0904C20.455 12.5081 22 14.3236 22 16.5C22 18.9853 19.9853 21 17.5 21C15.0147 21 13 18.9853 13 16.5Z" fill="black"/>
</svg>
