<svg width="24" height="24" viewBox="0 0 24 24" fill="none" xmlns="http://www.w3.org/2000/svg">
<path d="M9.5001 2.75C9.08444 2.75 8.71212 3.00713 8.56491 3.39585L8.33532 4.00213C7.84314 3.95295 7.38967 3.90387 7.02258 3.86265C6.74817 3.83184 6.52259 3.80549 6.3659 3.78687L6.18515 3.76518L6.12377 3.75768C5.57568 3.68981 5.07556 4.07901 5.00768 4.6271C4.93981 5.1752 5.32911 5.67455 5.87721 5.74242L5.944 5.75059L6.12998 5.77291C6.29032 5.79196 6.52019 5.81881 6.79942 5.85016C7.35738 5.91281 8.11468 5.99369 8.90922 6.0662C9.981 6.16401 11.1558 6.25 12.0001 6.25C12.8444 6.25 14.0192 6.16401 15.091 6.0662C15.8855 5.99369 16.6428 5.91281 17.2008 5.85016C17.48 5.81881 17.7099 5.79196 17.8702 5.77291L18.0562 5.75059L18.1229 5.74244C18.671 5.67456 19.0604 5.1752 18.9925 4.6271C18.9247 4.07901 18.4253 3.68972 17.8772 3.75758L17.8151 3.76518L17.6343 3.78687C17.4776 3.80549 17.252 3.83184 16.9776 3.86265C16.6105 3.90387 16.1571 3.95295 15.6649 4.00213L15.4353 3.39585C15.2881 3.00713 14.9158 2.75 14.5001 2.75H9.5001Z" fill="black"/>
<path fill-rule="evenodd" clip-rule="evenodd" d="M17.9123 7.97928L17.0558 19.9708C17.0231 20.4287 16.6838 20.8048 16.2297 20.8721C15.2357 21.0196 13.4605 21.2483 12.0001 21.25C10.5223 21.2517 8.7558 21.0223 7.76746 20.8736C7.31479 20.8056 6.97727 20.4301 6.94466 19.9735L6.08793 7.97928C6.04267 7.34572 6.59105 6.82873 7.22202 6.90165C8.49518 7.04879 10.5087 7.24997 12.0001 7.24997C13.4916 7.24997 15.5051 7.04879 16.7782 6.90165C17.4092 6.82873 17.9576 7.34572 17.9123 7.97928ZM11.0001 11.75C11.0001 11.1977 10.5524 10.75 10.0001 10.75C9.44783 10.75 9.00012 11.1977 9.00012 11.75V16.75C9.00012 17.3022 9.44783 17.75 10.0001 17.75C10.5524 17.75 11.0001 17.3022 11.0001 16.75V11.75ZM14.0001 10.75C14.5524 10.75 15.0001 11.1977 15.0001 11.75V16.75C15.0001 17.3022 14.5524 17.75 14.0001 17.75C13.4478 17.75 13.0001 17.3022 13.0001 16.75V11.75C13.0001 11.1977 13.4478 10.75 14.0001 10.75Z" fill="black"/>
</svg>
