<svg width="24" height="24" viewBox="0 0 24 24" fill="none" xmlns="http://www.w3.org/2000/svg">
<path d="M15.1972 16L12 18.1315V13.8685L15.1972 16Z" fill="black"/>
<path d="M12 5.86852V10.1315L15.1972 8L12 5.86852Z" fill="black"/>
<path fill-rule="evenodd" clip-rule="evenodd" d="M3 19V5C3 3.34315 4.34315 2 6 2H18C19.6569 2 21 3.34315 21 5V19C21 20.6569 19.6569 22 18 22H6C4.34315 22 3 20.6569 3 19ZM13.1094 4.20442C11.7803 3.31834 10 4.27113 10 5.86852V9.91938L7.62469 8.01913C7.19343 7.67412 6.56414 7.74404 6.21913 8.1753C5.87412 8.60657 5.94404 9.23586 6.3753 9.58087L9.39922 12L6.3753 14.4191C5.94404 14.7641 5.87412 15.3934 6.21913 15.8247C6.56414 16.256 7.19343 16.3259 7.62469 15.9809L10 14.0806V18.1315C10 19.7289 11.7803 20.6817 13.1094 19.7956L16.3066 17.6641C17.4941 16.8725 17.4941 15.1275 16.3066 14.3359L12.8028 12L16.3066 9.6641C17.4941 8.87246 17.4941 7.12754 16.3066 6.3359L13.1094 4.20442Z" fill="black"/>
</svg>
