<svg width="24" height="24" viewBox="0 0 24 24" fill="none" xmlns="http://www.w3.org/2000/svg">
<path fill-rule="evenodd" clip-rule="evenodd" d="M21 5.56961V15.1757C21 15.6725 20.695 16.1176 20.2345 16.3039C19.28 16.69 17.6359 17.3812 16.5 18.0004C14.6456 19.0114 12 20.0004 12 20.0004C12 20.0004 9.35441 19.0114 7.5 18.0004C6.36411 17.3812 4.71999 16.69 3.76549 16.3039C3.30496 16.1176 3 15.6725 3 15.1757V5.56961C3 4.77895 3.74984 4.2077 4.50562 4.43997C5.43619 4.72596 6.61713 5.11604 7.5 5.50042C9.34323 6.30291 12 8.00042 12 8.00042C12 8.00042 14.6568 6.30291 16.5 5.50042C17.3829 5.11604 18.5638 4.72596 19.4944 4.43997C20.2502 4.2077 21 4.77895 21 5.56961ZM18.8944 9.5532C19.1414 10.0472 18.9412 10.6479 18.4472 10.8948L15.4472 12.3948C14.9532 12.6418 14.3526 12.4416 14.1056 11.9476C13.8586 11.4537 14.0588 10.853 14.5528 10.606L17.5528 9.10599C18.0468 8.859 18.6474 9.05922 18.8944 9.5532ZM5.55279 10.8948C5.05881 10.6479 4.85858 10.0472 5.10557 9.5532C5.35256 9.05922 5.95324 8.859 6.44721 9.10599L9.44721 10.606C9.94119 10.853 10.1414 11.4537 9.89443 11.9476C9.64744 12.4416 9.04676 12.6418 8.55279 12.3948L5.55279 10.8948ZM18.8944 12.5532C19.1414 13.0472 18.9412 13.6479 18.4472 13.8948L15.4472 15.3948C14.9532 15.6418 14.3526 15.4416 14.1056 14.9476C13.8586 14.4537 14.0588 13.853 14.5528 13.606L17.5528 12.106C18.0468 11.859 18.6474 12.0592 18.8944 12.5532ZM5.55279 13.8948C5.05881 13.6479 4.85858 13.0472 5.10557 12.5532C5.35256 12.0592 5.95324 11.859 6.44721 12.106L9.44721 13.606C9.94119 13.853 10.1414 14.4537 9.89443 14.9476C9.64744 15.4416 9.04676 15.6418 8.55279 15.3948L5.55279 13.8948Z" fill="black"/>
</svg>
