<svg width="24" height="24" viewBox="0 0 24 24" fill="none" xmlns="http://www.w3.org/2000/svg">
<path d="M3 13.7829V5.72049C3 4.218 4.20883 3 5.7 3H10.2C11.6912 3 12.9 4.218 12.9 5.72049V6.15H10.8429C9.24518 6.15 7.95 7.35607 7.95 8.84383V13.775C7.40404 13.775 6.85807 14.022 6.49847 14.5161L6.25153 14.8554C5.22277 16.2689 3 15.5357 3 13.7829Z" fill="black"/>
<path d="M18.4929 7.5H11.8071C10.4225 7.5 9.3 8.56418 9.3 9.87691V19.4123C9.3 20.9211 11.3137 21.5761 12.2908 20.3851L14.1605 18.1061C14.6624 17.4943 15.6376 17.4943 16.1395 18.1061L18.0092 20.3851C18.9863 21.5761 21 20.9211 21 19.4123V9.87691C21 8.56418 19.8775 7.5 18.4929 7.5Z" fill="black"/>
</svg>
