<svg width="24" height="24" viewBox="0 0 24 24" fill="none" xmlns="http://www.w3.org/2000/svg">
<path d="M8.88516 3.49756L10.8276 3.0212C11.364 2.88966 11.9055 3.21785 12.037 3.75424L15.8479 19.2938C15.9794 19.8302 15.6512 20.3716 15.1148 20.5032L13.1724 20.9795C12.636 21.1111 12.0945 20.7829 11.963 20.2465L8.15212 4.70696C8.02058 4.17057 8.34877 3.6291 8.88516 3.49756Z" fill="black"/>
<path d="M6 3.00038H4C3.44772 3.00038 3 3.4481 3 4.00038V20.0004C3 20.5527 3.44772 21.0004 4 21.0004H6C6.55228 21.0004 7 20.5527 7 20.0004V4.00038C7 3.4481 6.55228 3.00038 6 3.00038Z" fill="black"/>
<path d="M20 3.00038H18C17.4477 3.00038 17 3.4481 17 4.00038V20.0004C17 20.5527 17.4477 21.0004 18 21.0004H20C20.5523 21.0004 21 20.5527 21 20.0004V4.00038C21 3.4481 20.5523 3.00038 20 3.00038Z" fill="black"/>
</svg>
