<svg width="24" height="24" viewBox="0 0 24 24" fill="none" xmlns="http://www.w3.org/2000/svg">
<path d="M19 2C19 1.44772 18.5523 1 18 1C17.4477 1 17 1.44772 17 2V4H15C14.4477 4 14 4.44772 14 5C14 5.55228 14.4477 6 15 6H17V8C17 8.55228 17.4477 9 18 9C18.5523 9 19 8.55228 19 8V6H21C21.5523 6 22 5.55228 22 5C22 4.44772 21.5523 4 21 4H19V2Z" fill="black"/>
<path d="M7.42857 2H15C13.3431 2 12 3.34315 12 5C12 6.65685 13.3431 8 15 8C15 9.65685 16.3431 11 18 11C18.7684 11 19.4692 10.7111 20 10.2361V19.7948C20 21.8904 17.2462 22.8001 15.9101 21.146L13.3532 17.9807C12.6668 17.131 11.3332 17.131 10.6468 17.9807L8.08995 21.146C6.75379 22.8001 4 21.8904 4 19.7948V5.30126C4 3.47802 5.53502 2 7.42857 2Z" fill="black"/>
</svg>
