<svg width="24" height="24" viewBox="0 0 24 24" fill="none" xmlns="http://www.w3.org/2000/svg">
<path fill-rule="evenodd" clip-rule="evenodd" d="M16.7071 1.29289C16.3166 0.902369 15.6834 0.902369 15.2929 1.29289L14.5858 2H13C12.6512 2 12.3276 2.18173 12.1461 2.47956L11.1461 4.12028C10.9782 4.39581 10.9593 4.72041 11.0667 5H7C4.23858 5 2 7.23858 2 10V18C2 19.6569 3.34315 21 5 21H19C20.6569 21 22 19.6569 22 18V10C22 7.23858 19.7614 5 17 5H12.9521L13.5616 4H15C15.2652 4 15.5196 3.89464 15.7071 3.70711L16.7071 2.70711C17.0976 2.31658 17.0976 1.68342 16.7071 1.29289ZM7 12.25C7 12.9404 7.55964 13.5 8.25 13.5C8.94036 13.5 9.5 12.9404 9.5 12.25C9.5 11.5596 8.94036 11 8.25 11C7.55964 11 7 11.5596 7 12.25ZM15.25 13.5C14.5596 13.5 14 12.9404 14 12.25C14 11.5596 14.5596 11 15.25 11C15.9404 11 16.5 11.5596 16.5 12.25C16.5 12.9404 15.9404 13.5 15.25 13.5ZM9.10557 15.5528C9.35256 15.0588 9.95324 14.8586 10.4472 15.1056L10.6584 15.2111C11.5029 15.6334 12.4971 15.6334 13.3416 15.2111L13.5528 15.1056C14.0468 14.8586 14.6474 15.0588 14.8944 15.5528C15.1414 16.0468 14.9412 16.6474 14.4472 16.8944L14.2361 17C12.8284 17.7038 11.1716 17.7038 9.76393 17L9.55279 16.8944C9.05881 16.6474 8.85858 16.0468 9.10557 15.5528Z" fill="black"/>
</svg>
