<svg width="24" height="24" viewBox="0 0 24 24" fill="none" xmlns="http://www.w3.org/2000/svg">
<path d="M8.53407 3.52483C9.75108 3.14184 10.8338 2.82807 11.453 2.6525C11.8133 2.55036 12.1844 2.555 12.5423 2.66529C14.2014 3.17667 19.2128 4.75977 21.1873 5.81734L17.6941 7.28812L8.53407 3.52483Z" fill="black"/>
<path d="M6.34571 4.24742C4.89095 4.75466 3.51133 5.30073 2.71089 5.77999C2.73764 5.78789 2.76423 5.79735 2.79055 5.80843L11.9995 9.68578L15.7447 8.10889L6.34571 4.24742Z" fill="black"/>
<path d="M1.89249 6.94032C1.65708 8.59898 1.83905 13.7899 1.94167 16.2204C1.97464 17.0012 2.46462 17.6857 3.19023 17.9759L11.2568 21.2025C11.2645 21.2056 11.2722 21.2087 11.2799 21.2116C11.2601 21.1444 11.2495 21.0732 11.2495 20.9995V10.9975L2.20848 7.19089C2.07742 7.13571 1.97024 7.04764 1.89249 6.94032Z" fill="black"/>
<path d="M12.7191 21.2117C12.7268 21.2087 12.7346 21.2056 12.7423 21.2025L20.8089 17.9759C21.5345 17.6857 22.0244 17.0012 22.0574 16.2204C22.1601 13.7898 22.3421 8.59878 22.1066 6.94022C22.0289 7.04758 21.9216 7.13569 21.7905 7.19089L12.7495 10.9975V20.9995C12.7495 21.0732 12.7389 21.1444 12.7191 21.2117Z" fill="black"/>
</svg>
