<svg width="24" height="24" viewBox="0 0 24 24" fill="none" xmlns="http://www.w3.org/2000/svg">
<path d="M5.5 6.79198C4.61705 6.4062 4 5.52516 4 4.5C4 3.11929 5.11929 2 6.5 2C7.88071 2 9 3.11929 9 4.5C9 5.52516 8.38295 6.4062 7.5 6.79198V13.2241C7.5 13.3827 7.46308 13.5327 7.39738 13.6659C7.93163 13.8714 8.37747 14.2551 8.66215 14.7441C12.4739 14.8491 14.275 14.0455 15.2134 12.85C16.1917 11.6037 16.4813 9.6591 16.4991 6.79159C15.6166 6.40561 15 5.52482 15 4.5C15 3.11929 16.1193 2 17.5 2C18.8807 2 20 3.11929 20 4.5C20 5.52546 19.3826 6.40671 18.4992 6.79231C18.4839 9.64981 18.2266 12.2504 16.7866 14.0849C15.289 15.9929 12.7492 16.8153 8.88568 16.7496C8.66781 17.4437 8.15541 18.0074 7.49494 18.2942C7.49836 18.3278 7.50011 18.362 7.50011 18.3966V21.5C7.50011 22.0523 7.0524 22.5 6.50011 22.5C5.94783 22.5 5.50011 22.0523 5.50011 21.5V18.3966C5.50011 18.362 5.50186 18.3279 5.50528 18.2943C4.61951 17.9097 4 17.0272 4 16C4 14.9356 4.66523 14.0265 5.60262 13.6659C5.53692 13.5327 5.5 13.3827 5.5 13.2241V6.79198Z" fill="black"/>
</svg>
