<svg width="24" height="24" viewBox="0 0 24 24" fill="none" xmlns="http://www.w3.org/2000/svg">
<path d="M13.5007 3V5.5C13.5007 6.60457 14.3962 7.5 15.5007 7.5H18.0007C19.1053 7.5 20.0007 8.39543 20.0007 9.5V13.5H4.00073V9.5C4.00073 8.39543 4.89616 7.5 6.00073 7.5H8.50073C9.6053 7.5 10.5007 6.60457 10.5007 5.5V3C10.5007 2.17157 11.1723 1.5 12.0007 1.5C12.8292 1.5 13.5007 2.17157 13.5007 3Z" fill="black"/>
<path d="M3.75779 15H20.2437L20.9368 19.7087C21.1146 20.9163 20.1787 22 18.9581 22H17.1224C17.1223 21.9453 17.1178 21.8898 17.1084 21.8341L16.5932 18.7716C16.5016 18.227 15.9858 17.8597 15.4412 17.9514C14.8965 18.043 14.5293 18.5588 14.6209 19.1034L15.1082 22H5.04337C3.82284 22 2.88695 20.9163 3.06469 19.7087L3.75779 15Z" fill="black"/>
</svg>
