<svg width="24" height="24" viewBox="0 0 24 24" fill="none" xmlns="http://www.w3.org/2000/svg">
<path d="M8.27239 4.91043L8.25 5H15.75L15.7276 4.91043C15.3 3.19995 13.7631 2 12 2C10.2369 2 8.70001 3.19995 8.27239 4.91043Z" fill="black"/>
<path d="M19 12L19 10.3663C19.074 10.3235 19.1438 10.2704 19.2071 10.2071L21.2071 8.20711C21.5976 7.81658 21.5976 7.18342 21.2071 6.79289C20.8166 6.40237 20.1834 6.40237 19.7929 6.79289L18.761 7.82474C18.3038 6.752 17.2397 6 16 6H8C6.76026 6 5.69615 6.752 5.23895 7.82474L4.20711 6.79289C3.81658 6.40237 3.18342 6.40237 2.79289 6.79289C2.40237 7.18342 2.40237 7.81658 2.79289 8.20711L4.79289 10.2071C4.85624 10.2704 4.92596 10.3235 5 10.3663L5 12L2.5 12C1.94771 12 1.5 12.4477 1.5 13C1.5 13.5523 1.94772 14 2.5 14L5 14C5.02372 14 5.04724 13.9992 5.07054 13.9976C5.1682 14.682 5.36486 15.3346 5.64558 15.9402L3.79289 17.7929C3.40237 18.1834 3.40237 18.8166 3.79289 19.2071C4.18342 19.5976 4.81658 19.5976 5.20711 19.2071L6.76598 17.6482C8.04821 19.091 9.91795 20 12 20C14.082 20 15.9518 19.091 17.234 17.6482L18.7929 19.2071C19.1834 19.5976 19.8166 19.5976 20.2071 19.2071C20.5976 18.8166 20.5976 18.1834 20.2071 17.7929L18.3544 15.9402C18.6351 15.3346 18.8318 14.682 18.9295 13.9976C18.9528 13.9992 18.9763 14 19 14L20.5 14C21.0523 14 21.5 13.5523 21.5 13C21.5 12.4477 21.0523 12 20.5 12L19 12Z" fill="black"/>
</svg>
