<svg width="24" height="24" viewBox="0 0 24 24" fill="none" xmlns="http://www.w3.org/2000/svg">
<path fill-rule="evenodd" clip-rule="evenodd" d="M19 19.0005H21C21.5523 19.0005 22 19.4482 22 20.0005C22 20.5528 21.5523 21.0005 21 21.0005H2.5C1.94772 21.0005 1.5 20.5528 1.5 20.0005C1.5 19.4482 1.94772 19.0005 2.5 19.0005H5V9.58091C5 9.22206 5.19229 8.89071 5.50386 8.71267L11.5039 5.2841C11.8113 5.10842 12.1887 5.10842 12.4961 5.2841L18.4961 8.71267C18.8077 8.89071 19 9.22206 19 9.58092V19.0005ZM11 19.0005H13V18.0006C13 17.4483 12.5523 17.0006 12 17.0006C11.4477 17.0006 11 17.4483 11 18.0006V19.0005ZM16 10.0006C16 10.5529 15.5523 11.0006 15 11.0006H14C13.4477 11.0006 13 10.5529 13 10.0006C13 9.44831 13.4477 9.00059 14 9.00059H15C15.5523 9.00059 16 9.44831 16 10.0006ZM10 14.0006C10.5523 14.0006 11 13.5529 11 13.0006C11 12.4483 10.5523 12.0006 10 12.0006H9C8.44772 12.0006 8 12.4483 8 13.0006C8 13.5529 8.44772 14.0006 9 14.0006H10ZM11 10.0006C11 10.5529 10.5523 11.0006 10 11.0006H9C8.44772 11.0006 8 10.5529 8 10.0006C8 9.44831 8.44772 9.00059 9 9.00059H10C10.5523 9.00059 11 9.44831 11 10.0006ZM15 14.0006C15.5523 14.0006 16 13.5529 16 13.0006C16 12.4483 15.5523 12.0006 15 12.0006H14C13.4477 12.0006 13 12.4483 13 13.0006C13 13.5529 13.4477 14.0006 14 14.0006H15ZM11 16.0006C11 16.5529 10.5523 17.0006 10 17.0006H9C8.44772 17.0006 8 16.5529 8 16.0006C8 15.4483 8.44772 15.0006 9 15.0006H10C10.5523 15.0006 11 15.4483 11 16.0006ZM15 17.0006C15.5523 17.0006 16 16.5529 16 16.0006C16 15.4483 15.5523 15.0006 15 15.0006H14C13.4477 15.0006 13 15.4483 13 16.0006C13 16.5529 13.4477 17.0006 14 17.0006H15Z" fill="black"/>
</svg>
