<svg width="24" height="24" viewBox="0 0 24 24" fill="none" xmlns="http://www.w3.org/2000/svg">
<path fill-rule="evenodd" clip-rule="evenodd" d="M7 19V5C7 4.44772 7.44772 4 8 4H16C16.5523 4 17 4.44772 17 5V19H20C20.5523 19 21 19.4477 21 20C21 20.5523 20.5523 21 20 21H4C3.44772 21 3 20.5523 3 20C3 19.4477 3.44772 19 4 19H7ZM10.5 8C11.0523 8 11.5 7.55228 11.5 7C11.5 6.44772 11.0523 6 10.5 6H9.5C8.94772 6 8.5 6.44772 8.5 7C8.5 7.55228 8.94772 8 9.5 8H10.5ZM15.5 10C15.5 10.5523 15.0523 11 14.5 11H13.5C12.9477 11 12.5 10.5523 12.5 10C12.5 9.44772 12.9477 9 13.5 9H14.5C15.0523 9 15.5 9.44772 15.5 10ZM10.5 14C11.0523 14 11.5 13.5523 11.5 13C11.5 12.4477 11.0523 12 10.5 12H9.5C8.94772 12 8.5 12.4477 8.5 13C8.5 13.5523 8.94772 14 9.5 14H10.5ZM15.5 7C15.5 7.55228 15.0523 8 14.5 8H13.5C12.9477 8 12.5 7.55228 12.5 7C12.5 6.44772 12.9477 6 13.5 6H14.5C15.0523 6 15.5 6.44772 15.5 7ZM10.5 11C11.0523 11 11.5 10.5523 11.5 10C11.5 9.44772 11.0523 9 10.5 9H9.5C8.94772 9 8.5 9.44772 8.5 10C8.5 10.5523 8.94772 11 9.5 11H10.5ZM15.5 13C15.5 13.5523 15.0523 14 14.5 14H13.5C12.9477 14 12.5 13.5523 12.5 13C12.5 12.4477 12.9477 12 13.5 12H14.5C15.0523 12 15.5 12.4477 15.5 13ZM10.5 17C11.0523 17 11.5 16.5523 11.5 16C11.5 15.4477 11.0523 15 10.5 15H9.5C8.94772 15 8.5 15.4477 8.5 16C8.5 16.5523 8.94772 17 9.5 17H10.5ZM15.5 16C15.5 16.5523 15.0523 17 14.5 17H13.5C12.9477 17 12.5 16.5523 12.5 16C12.5 15.4477 12.9477 15 13.5 15H14.5C15.0523 15 15.5 15.4477 15.5 16Z" fill="black"/>
</svg>
