<svg width="24" height="24" viewBox="0 0 24 24" fill="none" xmlns="http://www.w3.org/2000/svg">
<path d="M8 6V5C8 4.44772 8.44772 4 9 4H15C15.5523 4 16 4.44772 16 5V6H15C14.4477 6 14 6.44772 14 7C14 7.55228 14.4477 8 15 8H16V9H14C13.4477 9 13 9.44772 13 10C13 10.5523 13.4477 11 14 11H16V12H15C14.4477 12 14 12.4477 14 13C14 13.5523 14.4477 14 15 14H16V15H14C13.4477 15 13 15.4477 13 16C13 16.5523 13.4477 17 14 17H16V19H20C20.5523 19 21 19.4477 21 20C21 20.5523 20.5523 21 20 21H4C3.44772 21 3 20.5523 3 20C3 19.4477 3.44772 19 4 19H8V17H9C9.55228 17 10 16.5523 10 16C10 15.4477 9.55228 15 9 15H8V14H10C10.5523 14 11 13.5523 11 13C11 12.4477 10.5523 12 10 12H8V11H9C9.55228 11 10 10.5523 10 10C10 9.44772 9.55228 9 9 9H8V8H10C10.5523 8 11 7.55228 11 7C11 6.44772 10.5523 6 10 6H8Z" fill="black"/>
</svg>
