<svg width="24" height="24" viewBox="0 0 24 24" fill="none" xmlns="http://www.w3.org/2000/svg">
<path fill-rule="evenodd" clip-rule="evenodd" d="M5 18.9998V9.57998C5 9.22113 5.19229 8.88978 5.50386 8.71174L11.5108 5.27922C11.8145 5.10567 12.1868 5.10343 12.4926 5.2733L15.5015 6.94493C15.5299 6.41814 15.9661 5.99976 16.5 5.99976C17.0523 5.99976 17.5 6.44747 17.5 6.99976V8.09966L18.5145 8.70836C18.8157 8.88908 19 9.21459 19 9.56585V18.9998H20C20.5523 18.9998 21 19.4475 21 19.9998C21 20.552 20.5523 20.9998 20 20.9998H4C3.44772 20.9998 3 20.552 3 19.9998C3 19.4475 3.44772 18.9998 4 18.9998H5ZM11 18.9998H13V16.9997C13 16.4474 12.5523 15.9997 12 15.9997C11.4477 15.9997 11 16.4474 11 16.9997V18.9998ZM16 13.9997C16 14.5519 15.5523 14.9997 15 14.9997H14C13.4477 14.9997 13 14.5519 13 13.9997C13 13.4474 13.4477 12.9997 14 12.9997H15C15.5523 12.9997 16 13.4474 16 13.9997ZM15 11.9997C15.5523 11.9997 16 11.5519 16 10.9997C16 10.4474 15.5523 9.99966 15 9.99966H14C13.4477 9.99966 13 10.4474 13 10.9997C13 11.5519 13.4477 11.9997 14 11.9997H15ZM11 13.9997C11 14.5519 10.5523 14.9997 10 14.9997H9C8.44772 14.9997 8 14.5519 8 13.9997C8 13.4474 8.44772 12.9997 9 12.9997H10C10.5523 12.9997 11 13.4474 11 13.9997ZM10 11.9997C10.5523 11.9997 11 11.5519 11 10.9997C11 10.4474 10.5523 9.99966 10 9.99966H9C8.44772 9.99966 8 10.4474 8 10.9997C8 11.5519 8.44772 11.9997 9 11.9997H10Z" fill="black"/>
</svg>
