<svg width="24" height="24" viewBox="0 0 24 24" fill="none" xmlns="http://www.w3.org/2000/svg">
<path fill-rule="evenodd" clip-rule="evenodd" d="M18 19.0002H20C20.5523 19.0002 21 19.448 21 20.0002C21 20.5525 20.5523 21.0002 20 21.0002H4C3.44772 21.0002 3 20.5525 3 20.0002C3 19.448 3.44772 19.0002 4 19.0002H6V9.53548C6 9.20113 6.1671 8.8889 6.4453 8.70343L11.4453 5.3701C11.7812 5.14617 12.2188 5.14617 12.5547 5.3701L17.5547 8.70343C17.8329 8.8889 18 9.20113 18 9.53548V19.0002ZM11 19.0002H13V17.0003C13 16.448 12.5523 16.0003 12 16.0003C11.4477 16.0003 11 16.448 11 17.0003V19.0002ZM15 15.0003C15.5523 15.0003 16 14.5526 16 14.0003C16 13.448 15.5523 13.0003 15 13.0003H14C13.4477 13.0003 13 13.448 13 14.0003C13 14.5526 13.4477 15.0003 14 15.0003H15ZM16 11.0003C16 11.5526 15.5523 12.0003 15 12.0003H14C13.4477 12.0003 13 11.5526 13 11.0003C13 10.448 13.4477 10.0003 14 10.0003H15C15.5523 10.0003 16 10.448 16 11.0003ZM10 15.0003C10.5523 15.0003 11 14.5526 11 14.0003C11 13.448 10.5523 13.0003 10 13.0003H9C8.44772 13.0003 8 13.448 8 14.0003C8 14.5526 8.44772 15.0003 9 15.0003H10ZM11 11.0003C11 11.5526 10.5523 12.0003 10 12.0003H9C8.44772 12.0003 8 11.5526 8 11.0003C8 10.448 8.44772 10.0003 9 10.0003H10C10.5523 10.0003 11 10.448 11 11.0003Z" fill="black"/>
</svg>
