<svg width="24" height="24" viewBox="0 0 24 24" fill="none" xmlns="http://www.w3.org/2000/svg">
<path fill-rule="evenodd" clip-rule="evenodd" d="M20 19H22C22.5523 19 23 19.4477 23 20C23 20.5523 22.5523 21 22 21H2C1.44772 21 1 20.5523 1 20C1 19.4477 1.44772 19 2 19H5V5C5 4.44772 5.44772 4 6 4H14C14.5523 4 15 4.44772 15 5V10H19C19.5523 10 20 10.4477 20 11V12H19C18.4477 12 18 12.4477 18 13C18 13.5523 18.4477 14 19 14H20V15H19C18.4477 15 18 15.4477 18 16C18 16.5523 18.4477 17 19 17H20V19ZM8.5 8C9.05228 8 9.5 7.55228 9.5 7C9.5 6.44772 9.05228 6 8.5 6H7.5C6.94772 6 6.5 6.44772 6.5 7C6.5 7.55228 6.94772 8 7.5 8H8.5ZM13.5 10C13.5 10.5523 13.0523 11 12.5 11H11.5C10.9477 11 10.5 10.5523 10.5 10C10.5 9.44772 10.9477 9 11.5 9H12.5C13.0523 9 13.5 9.44772 13.5 10ZM8.5 14C9.05228 14 9.5 13.5523 9.5 13C9.5 12.4477 9.05228 12 8.5 12H7.5C6.94772 12 6.5 12.4477 6.5 13C6.5 13.5523 6.94772 14 7.5 14H8.5ZM13.5 7C13.5 7.55228 13.0523 8 12.5 8H11.5C10.9477 8 10.5 7.55228 10.5 7C10.5 6.44772 10.9477 6 11.5 6H12.5C13.0523 6 13.5 6.44772 13.5 7ZM8.5 11C9.05228 11 9.5 10.5523 9.5 10C9.5 9.44772 9.05228 9 8.5 9H7.5C6.94772 9 6.5 9.44772 6.5 10C6.5 10.5523 6.94772 11 7.5 11H8.5ZM13.5 13C13.5 13.5523 13.0523 14 12.5 14H11.5C10.9477 14 10.5 13.5523 10.5 13C10.5 12.4477 10.9477 12 11.5 12H12.5C13.0523 12 13.5 12.4477 13.5 13ZM8.5 17C9.05228 17 9.5 16.5523 9.5 16C9.5 15.4477 9.05228 15 8.5 15H7.5C6.94772 15 6.5 15.4477 6.5 16C6.5 16.5523 6.94772 17 7.5 17H8.5ZM13.5 16C13.5 16.5523 13.0523 17 12.5 17H11.5C10.9477 17 10.5 16.5523 10.5 16C10.5 15.4477 10.9477 15 11.5 15H12.5C13.0523 15 13.5 15.4477 13.5 16Z" fill="black"/>
</svg>
