<svg width="24" height="24" viewBox="0 0 24 24" fill="none" xmlns="http://www.w3.org/2000/svg">
<path d="M20.7071 3.29289C21.0976 3.68342 21.0976 4.31658 20.7071 4.70711L6.20711 19.2071C5.81658 19.5976 5.18342 19.5976 4.79289 19.2071C4.40237 18.8166 4.40237 18.1834 4.79289 17.7929L19.2929 3.29289C19.6834 2.90237 20.3166 2.90237 20.7071 3.29289Z" fill="black"/>
<path d="M10 21C10 20.4477 10.4477 20 11 20H13C13.5523 20 14 20.4477 14 21C14 21.5523 13.5523 22 13 22H11C10.4477 22 10 21.5523 10 21Z" fill="black"/>
<path d="M12 3C13.7114 3 15.2683 3.66139 16.4291 4.74251L7.24251 13.9291C6.16139 12.7683 5.5 11.2114 5.5 9.5C5.5 5.91015 8.41015 3 12 3Z" fill="black"/>
<path d="M9.56569 17.2627L18.4104 8.41806C18.4693 8.76993 18.5 9.13138 18.5 9.5C18.5 12.0385 17.0449 14.2371 14.9232 15.3072L14.0736 18.7054C14.0304 18.8785 13.8748 19 13.6963 19C13.3017 19 12.9124 19.0748 12.5242 19.1494C12.4594 19.1618 12.3945 19.1743 12.3298 19.1864C12.2157 19.2077 12.1014 19.222 12 19.222C11.8986 19.222 11.7843 19.2077 11.6702 19.1864C11.6055 19.1743 11.5407 19.1619 11.4759 19.1494C11.0877 19.0748 10.6983 19 10.3037 19C10.1252 19 9.96964 18.8785 9.92635 18.7054L9.56569 17.2627Z" fill="black"/>
</svg>
