<svg width="24" height="24" viewBox="0 0 24 24" fill="none" xmlns="http://www.w3.org/2000/svg">
<path fill-rule="evenodd" clip-rule="evenodd" d="M14.9232 15.3072C17.0449 14.2371 18.5 12.0385 18.5 9.5C18.5 5.91015 15.5899 3 12 3C8.41015 3 5.5 5.91015 5.5 9.5C5.5 12.0385 6.95514 14.2371 9.07679 15.3072L9.92635 18.7054C9.96964 18.8785 10.1252 19 10.3037 19C10.6983 19 11.0876 19.0748 11.4758 19.1494C11.5406 19.1618 11.6055 19.1743 11.6702 19.1864C11.7843 19.2077 11.8986 19.222 12 19.222C12.1014 19.222 12.2157 19.2077 12.3298 19.1864C12.3945 19.1743 12.4592 19.1619 12.524 19.1494C12.9122 19.0748 13.3017 19 13.6963 19C13.8748 19 14.0304 18.8785 14.0736 18.7054L14.9232 15.3072ZM13.321 8.5529C13.5802 8.1631 13.5366 7.63203 13.1917 7.28995C12.7996 6.90106 12.1664 6.9037 11.7775 7.29585L10.29 8.79585C10.0057 9.08249 9.92165 9.51196 10.0769 9.88461C10.2168 10.2204 10.5264 10.4508 10.8816 10.493C10.6377 10.9067 10.7214 11.4481 11.1017 11.7667C11.5251 12.1213 12.1558 12.0655 12.5104 11.6421L13.7667 10.1421C14.0161 9.84425 14.0704 9.42894 13.9061 9.07695C13.7888 8.82562 13.5751 8.63905 13.321 8.5529Z" fill="black"/>
<path d="M11 20C10.4477 20 10 20.4477 10 21C10 21.5523 10.4477 22 11 22H13C13.5523 22 14 21.5523 14 21C14 20.4477 13.5523 20 13 20H11Z" fill="black"/>
</svg>
