<svg width="24" height="24" viewBox="0 0 24 24" fill="none" xmlns="http://www.w3.org/2000/svg">
<path fill-rule="evenodd" clip-rule="evenodd" d="M6 2H18C19.1046 2 20 2.89543 20 4V13.5858L20.7929 12.7929C21.1834 12.4024 21.8166 12.4024 22.2071 12.7929C22.5976 13.1834 22.5976 13.8166 22.2071 14.2071L20.7071 15.7071C20.5118 15.9024 20.2559 16 20 16V18C20 19.1046 19.1046 20 18 20V21C18 21.5523 17.5523 22 17 22H16C15.4477 22 15 21.5523 15 21V20H9V21C9 21.5523 8.55228 22 8 22H7C6.44772 22 6 21.5523 6 21V20C4.89543 20 4 19.1046 4 18V16C3.74408 16 3.48816 15.9024 3.29289 15.7071L1.79289 14.2071C1.40237 13.8166 1.40237 13.1834 1.79289 12.7929C2.18342 12.4024 2.81658 12.4024 3.20711 12.7929L4 13.5858V4C4 2.89543 4.89543 2 6 2ZM17 5H7V15H17V5Z" fill="black"/>
</svg>
