<svg width="24" height="24" viewBox="0 0 24 24" fill="none" xmlns="http://www.w3.org/2000/svg">
<path d="M8 1C8.55228 1 9 1.44772 9 2V3.5H7V2C7 1.44772 7.44772 1 8 1Z" fill="black"/>
<path d="M15 4H9V5C9 5.55228 8.55228 6 8 6C7.44772 6 7 5.55228 7 5V4H6C4.34315 4 3 5.34315 3 7V7.5H21V7C21 5.34315 19.6569 4 18 4H17V5C17 5.55228 16.5523 6 16 6C15.4477 6 15 5.55228 15 5V4Z" fill="black"/>
<path d="M3 9.5V18C3 19.6569 4.34315 21 6 21H15.6144C15.6623 20.6543 15.7706 20.3153 15.9391 20.0001C15.3321 18.865 15.5072 17.4218 16.4645 16.4645C17.4217 15.5073 18.8649 15.3322 20 15.9392C20.3152 15.7706 20.6542 15.6623 21 15.6144V9.5H3Z" fill="black"/>
<path d="M17 2C17 1.44772 16.5523 1 16 1C15.4477 1 15 1.44772 15 2V3.5H17V2Z" fill="black"/>
<path d="M21.9497 19.1213C22.3402 18.7308 22.3402 18.0976 21.9497 17.7071C21.5592 17.3166 20.926 17.3166 20.5355 17.7071L19.8284 18.4142L19.1213 17.7071C18.7307 17.3166 18.0976 17.3166 17.707 17.7071C17.3165 18.0976 17.3165 18.7308 17.707 19.1213L18.4142 19.8284L17.707 20.5355C17.3165 20.9261 17.3165 21.5592 17.707 21.9497C18.0976 22.3403 18.7307 22.3403 19.1213 21.9497L19.8284 21.2426L20.5355 21.9497C20.926 22.3403 21.5592 22.3403 21.9497 21.9497C22.3402 21.5592 22.3402 20.9261 21.9497 20.5355L21.2426 19.8284L21.9497 19.1213Z" fill="black"/>
</svg>
