<svg width="24" height="24" viewBox="0 0 24 24" fill="none" xmlns="http://www.w3.org/2000/svg">
<path d="M7 1C7.55228 1 8 1.44772 8 2V3.5H6V2C6 1.44772 6.44772 1 7 1Z" fill="black"/>
<path d="M14 4H8V5C8 5.55228 7.55228 6 7 6C6.44772 6 6 5.55228 6 5V4H5C3.34315 4 2 5.34315 2 7V7.5H20V7C20 5.34315 18.6569 4 17 4H16V5C16 5.55228 15.5523 6 15 6C14.4477 6 14 5.55228 14 5V4Z" fill="black"/>
<path d="M2 9.5V18C2 19.6569 3.34315 21 5 21H14.3582C14.3954 20.2853 14.6869 19.5814 15.2328 19.0355C15.9881 18.2803 17.0458 18.0119 18.016 18.2303L18.8677 17.3787C19.1981 17.0482 19.5864 16.811 20 16.667V9.5H2Z" fill="black"/>
<path d="M16 2C16 1.44772 15.5523 1 15 1C14.4477 1 14 1.44772 14 2V3.5H16V2Z" fill="black"/>
<path d="M21.6961 20.2071C22.0866 19.8166 22.0866 19.1834 21.6961 18.7929C21.3056 18.4024 20.6724 18.4024 20.2819 18.7929L18.3431 20.7316L18.0613 20.4497C17.6707 20.0592 17.0376 20.0592 16.647 20.4497C16.2565 20.8403 16.2565 21.4734 16.647 21.8639L17.636 22.8529C18.0266 23.2435 18.6597 23.2435 19.0503 22.8529L21.6961 20.2071Z" fill="black"/>
</svg>
