<svg width="24" height="24" viewBox="0 0 24 24" fill="none" xmlns="http://www.w3.org/2000/svg">
<path d="M8 2C8.55228 2 9 2.44772 9 3V4.5H7V3C7 2.44772 7.44772 2 8 2Z" fill="black"/>
<path d="M15 5H9V6C9 6.55228 8.55228 7 8 7C7.44772 7 7 6.55228 7 6V5H6C4.34315 5 3 6.34315 3 8V8.5H21V8C21 6.34315 19.6569 5 18 5H17V6C17 6.55228 16.5523 7 16 7C15.4477 7 15 6.55228 15 6V5Z" fill="black"/>
<path fill-rule="evenodd" clip-rule="evenodd" d="M3 10.5V19C3 20.6569 4.34315 22 6 22H18C19.6569 22 21 20.6569 21 19V10.5H3ZM5 18C5 17.4477 5.44772 17 6 17H13C13.5523 17 14 17.4477 14 18C14 18.5523 13.5523 19 13 19H6C5.44772 19 5 18.5523 5 18ZM16 17C15.4477 17 15 17.4477 15 18C15 18.5523 15.4477 19 16 19H18C18.5523 19 19 18.5523 19 18C19 17.4477 18.5523 17 18 17H16Z" fill="black"/>
<path d="M17 3C17 2.44772 16.5523 2 16 2C15.4477 2 15 2.44772 15 3V4.5H17V3Z" fill="black"/>
</svg>
