<svg width="24" height="24" viewBox="0 0 24 24" fill="none" xmlns="http://www.w3.org/2000/svg">
<path d="M8 2C8.55228 2 9 2.44772 9 3V4.5H7V3C7 2.44772 7.44772 2 8 2Z" fill="black"/>
<path d="M15 5H9V6C9 6.55228 8.55228 7 8 7C7.44772 7 7 6.55228 7 6V5H6C4.34315 5 3 6.34315 3 8V8.5H21V8C21 6.34315 19.6569 5 18 5H17V6C17 6.55228 16.5523 7 16 7C15.4477 7 15 6.55228 15 6V5Z" fill="black"/>
<path d="M3 10.5V19C3 20.6569 4.34315 22 6 22H15.7639C15.2889 21.4692 15 20.7684 15 20C15 18.6462 15.8967 17.5019 17.1285 17.1285C17.5019 15.8967 18.6462 15 20 15C20.3506 15 20.6872 15.0602 21 15.1707V10.5H3Z" fill="black"/>
<path d="M17 3C17 2.44772 16.5523 2 16 2C15.4477 2 15 2.44772 15 3V4.5H17V3Z" fill="black"/>
<path d="M21 18C21 17.4477 20.5523 17 20 17C19.4477 17 19 17.4477 19 18V19H18C17.4477 19 17 19.4477 17 20C17 20.5523 17.4477 21 18 21H19V22C19 22.5523 19.4477 23 20 23C20.5523 23 21 22.5523 21 22V21H22C22.5523 21 23 20.5523 23 20C23 19.4477 22.5523 19 22 19H21V18Z" fill="black"/>
</svg>
