<svg width="24" height="24" viewBox="0 0 24 24" fill="none" xmlns="http://www.w3.org/2000/svg">
<path d="M8 1C8.55228 1 9 1.44772 9 2V3.5H7V2C7 1.44772 7.44772 1 8 1Z" fill="black"/>
<path d="M15 4H9V5C9 5.55228 8.55228 6 8 6C7.44772 6 7 5.55228 7 5V4H6C4.34315 4 3 5.34315 3 7V7.5H21V7C21 5.34315 19.6569 4 18 4H17V5C17 5.55228 16.5523 6 16 6C15.4477 6 15 5.55228 15 5V4Z" fill="black"/>
<path d="M3 9.5V18C3 19.6569 4.34315 21 6 21H18C19.6569 21 21 19.6569 21 18V9.5H3Z" fill="black"/>
<path d="M17 2C17 1.44772 16.5523 1 16 1C15.4477 1 15 1.44772 15 2V3.5H17V2Z" fill="black"/>
</svg>
