<svg width="24" height="24" viewBox="0 0 24 24" fill="none" xmlns="http://www.w3.org/2000/svg">
<path d="M8 2C8.55228 2 9 2.44772 9 3V4.5H7V3C7 2.44772 7.44772 2 8 2Z" fill="black"/>
<path d="M15 5H9V6C9 6.55228 8.55228 7 8 7C7.44772 7 7 6.55228 7 6V5H6C4.34315 5 3 6.34315 3 8V8.5H21V8C21 6.34315 19.6569 5 18 5H17V6C17 6.55228 16.5523 7 16 7C15.4477 7 15 6.55228 15 6V5Z" fill="black"/>
<path d="M3 10.5V19C3 20.6569 4.34315 22 6 22H15.1707C15.0602 21.6872 15 21.3506 15 21C15 19.3431 16.3431 18 18 18H21V10.5H3Z" fill="black"/>
<path d="M17 3C17 2.44772 16.5523 2 16 2C15.4477 2 15 2.44772 15 3V4.5H17V3Z" fill="black"/>
<path d="M18 20C17.4477 20 17 20.4477 17 21C17 21.5523 17.4477 22 18 22H22C22.5523 22 23 21.5523 23 21C23 20.4477 22.5523 20 22 20H18Z" fill="black"/>
</svg>
