<svg width="24" height="24" viewBox="0 0 24 24" fill="none" xmlns="http://www.w3.org/2000/svg">
<path d="M4.9258 3.51442L4.39027 4.04996C3.82766 4.61257 3.51422 5.37899 3.70014 6.15261C4.09748 7.80589 5.3321 10.9918 9.16844 14.8281C13.0048 18.6645 16.1907 19.8991 17.844 20.2964C18.6176 20.4824 19.384 20.1689 19.9466 19.6063L20.4822 19.0708C21.6537 17.8992 21.6537 15.9997 20.4822 14.8281L19.5533 13.8993C18.5983 12.9443 17.123 12.7452 15.949 13.4127L15.8525 13.4676C14.912 14.0024 13.7481 13.9999 12.8716 13.3655C12.4349 13.0495 11.9825 12.6925 11.6433 12.3533C11.3041 12.014 10.9471 11.5617 10.631 11.125C9.9967 10.2485 9.99416 9.08461 10.529 8.14406L10.5839 8.04753C11.2514 6.87355 11.0523 5.39824 10.0973 4.4433L9.16844 3.51442C7.99687 2.34285 6.09737 2.34285 4.9258 3.51442Z" fill="black"/>
<path d="M16.2932 4.87834C15.9026 4.48782 15.2695 4.48782 14.879 4.87834C14.4884 5.26887 14.4884 5.90203 14.879 6.29256L15.5861 6.99966L14.879 7.70677C14.4884 8.09729 14.4884 8.73046 14.879 9.12098C15.2695 9.51151 15.9026 9.51151 16.2932 9.12098L17.0003 8.41388L17.7074 9.12098C18.0979 9.51151 18.7311 9.51151 19.1216 9.12098C19.5121 8.73046 19.5121 8.09729 19.1216 7.70677L18.4145 6.99966L19.1216 6.29256C19.5121 5.90203 19.5121 5.26887 19.1216 4.87834C18.7311 4.48782 18.0979 4.48782 17.7074 4.87834L17.0003 5.58545L16.2932 4.87834Z" fill="black"/>
</svg>
