<svg width="24" height="24" viewBox="0 0 24 24" fill="none" xmlns="http://www.w3.org/2000/svg">
<path d="M18.0099 3.00642C18.6242 3.26906 19.1837 3.64804 19.6571 4.12141C20.1305 4.59477 20.5094 5.15425 20.7721 5.76862C21.0347 6.38304 21.1763 7.04133 21.187 7.7064C21.1978 8.37157 21.0774 9.03061 20.831 9.64537C20.7432 9.8644 20.6401 10.0762 20.5225 10.2793C20.2458 10.7573 19.634 10.9204 19.1561 10.6437C18.6781 10.367 18.515 9.75518 18.7917 9.27722C18.8612 9.15709 18.9224 9.03154 18.9745 8.90138C19.1209 8.5362 19.1938 8.1413 19.1873 7.73866C19.1808 7.33593 19.095 6.93348 18.9331 6.55478C18.7712 6.17604 18.5367 5.82949 18.2429 5.53562C17.949 5.24175 17.6025 5.00734 17.2237 4.84543C16.845 4.68354 16.4426 4.59772 16.0398 4.59122C15.6372 4.58472 15.2423 4.65761 14.8771 4.80396C14.747 4.85612 14.6214 4.91728 14.5013 4.98683C14.0233 5.26355 13.4115 5.1004 13.1348 4.62244C12.8581 4.14448 13.0212 3.5327 13.4992 3.25598C13.7023 3.1384 13.9141 3.03527 14.1331 2.94749C14.7479 2.70112 15.4069 2.58075 16.0721 2.59148C16.7372 2.60221 17.3955 2.74376 18.0099 3.00642Z" fill="black"/>
<path d="M4.39027 4.05038L4.9258 3.51485C6.09737 2.34327 7.99687 2.34327 9.16844 3.51484L10.0973 4.44372C11.0523 5.39867 11.2514 6.87397 10.5839 8.04795L10.529 8.14448C9.99416 9.08503 9.9967 10.2489 10.631 11.1254C10.9471 11.5621 11.3041 12.0145 11.6433 12.3537C11.9825 12.6929 12.4349 13.0499 12.8716 13.366C13.7481 14.0003 14.912 14.0028 15.8525 13.468L15.949 13.4131C17.123 12.7456 18.5983 12.9447 19.5533 13.8997L20.4822 14.8286C21.6537 16.0001 21.6537 17.8996 20.4822 19.0712L19.9466 19.6067C19.384 20.1693 18.6176 20.4828 17.844 20.2969C16.1907 19.8995 13.0048 18.6649 9.16844 14.8286C5.3321 10.9922 4.09748 7.80631 3.70014 6.15303C3.51422 5.37941 3.82766 4.61299 4.39027 4.05038Z" fill="black"/>
<path d="M17.6215 6.20719C17.3221 5.90779 16.9595 5.68512 16.5601 5.54847C16.1617 5.41211 15.7391 5.36547 15.3196 5.40067C14.9004 5.43585 14.4895 5.55213 14.108 5.73579C13.8888 5.84132 13.6804 5.96853 13.486 6.1143C13.0442 6.44567 12.9546 7.07247 13.286 7.5143C13.6174 7.95613 14.2442 8.04567 14.686 7.7143C14.7785 7.64497 14.8757 7.58588 14.9755 7.53785C15.1499 7.45388 15.3245 7.40729 15.4868 7.39367C15.6488 7.38007 15.7925 7.39965 15.9126 7.44075C16.0319 7.48156 16.13 7.5441 16.2073 7.62141C16.2846 7.69871 16.3472 7.79685 16.388 7.91611C16.4291 8.03622 16.4487 8.1799 16.4351 8.34191C16.4214 8.50428 16.3749 8.67883 16.2909 8.85326C16.2429 8.95301 16.1838 9.05029 16.1144 9.14273C15.7831 9.58455 15.8726 10.2114 16.3144 10.5427C16.7563 10.8741 17.3831 10.7846 17.7144 10.3427C17.8602 10.1484 17.9874 9.93998 18.0929 9.72077C18.2766 9.33925 18.3929 8.92834 18.4281 8.50917C18.4633 8.08964 18.4166 7.66708 18.2803 7.2686C18.1436 6.86926 17.9209 6.50659 17.6215 6.20719Z" fill="black"/>
</svg>
