<svg width="24" height="24" viewBox="0 0 24 24" fill="none" xmlns="http://www.w3.org/2000/svg">
<path d="M4.39027 4.04996L4.9258 3.51442C6.09737 2.34285 7.99687 2.34285 9.16844 3.51442L10.0973 4.4433C11.0523 5.39824 11.2514 6.87355 10.5839 8.04753L10.529 8.14406C9.99416 9.08461 9.9967 10.2485 10.631 11.125C10.9471 11.5617 11.3041 12.014 11.6433 12.3533C11.9825 12.6925 12.4349 13.0495 12.8716 13.3655C13.7481 13.9999 14.912 14.0024 15.8525 13.4676L15.949 13.4127C17.123 12.7451 18.5983 12.9443 19.5533 13.8993L20.4822 14.8281C21.6537 15.9997 21.6537 17.8992 20.4822 19.0708L19.9466 19.6063C19.384 20.1689 18.6176 20.4824 17.844 20.2964C16.1907 19.8991 13.0048 18.6645 9.16844 14.8281C5.3321 10.9918 4.09748 7.80589 3.70014 6.15261C3.51422 5.37899 3.82766 4.61257 4.39027 4.04996Z" fill="black"/>
</svg>
