<svg width="24" height="24" viewBox="0 0 24 24" fill="none" xmlns="http://www.w3.org/2000/svg">
<path d="M4.9258 3.51442L4.39027 4.04996C3.82766 4.61257 3.51422 5.37899 3.70014 6.15261C4.09748 7.80589 5.3321 10.9918 9.16844 14.8281C13.0048 18.6645 16.1907 19.8991 17.844 20.2964C18.6176 20.4824 19.384 20.1689 19.9466 19.6063L20.4822 19.0708C21.6537 17.8992 21.6537 15.9997 20.4822 14.8281L19.5533 13.8993C18.5983 12.9443 17.123 12.7452 15.949 13.4127L15.8525 13.4676C14.912 14.0024 13.7481 13.9999 12.8716 13.3655C12.4349 13.0495 11.9825 12.6925 11.6433 12.3533C11.3041 12.014 10.9471 11.5617 10.631 11.125C9.9967 10.2485 9.99416 9.08461 10.529 8.14406L10.5839 8.04753C11.2514 6.87355 11.0523 5.39824 10.0973 4.4433L9.16844 3.51442C7.99687 2.34285 6.09737 2.34285 4.9258 3.51442Z" fill="black"/>
<path d="M19.2692 5.67323C19.2394 5.16717 18.8357 4.76345 18.3296 4.73368L16.3261 4.61583C15.7748 4.5834 15.3016 5.00405 15.2691 5.55538C15.2408 6.0377 15.5592 6.46025 16.0084 6.58019L14.0282 8.56038C13.6377 8.95091 13.6377 9.58407 14.0282 9.97459C14.4188 10.3651 15.0519 10.3651 15.4425 9.97459L17.4227 7.9944C17.5426 8.44369 17.9651 8.76207 18.4475 8.7337C18.9988 8.70127 19.4194 8.22803 19.387 7.6767L19.2692 5.67323Z" fill="black"/>
</svg>
