<svg width="24" height="24" viewBox="0 0 24 24" fill="none" xmlns="http://www.w3.org/2000/svg">
<path d="M4.9258 3.51442L4.39027 4.04996C3.82766 4.61257 3.51422 5.37899 3.70014 6.15261C4.09748 7.80589 5.3321 10.9918 9.16844 14.8281C13.0048 18.6645 16.1907 19.8991 17.844 20.2964C18.6176 20.4824 19.384 20.1689 19.9466 19.6063L20.4822 19.0708C21.6537 17.8992 21.6537 15.9997 20.4822 14.8281L19.5533 13.8993C18.5983 12.9443 17.123 12.7452 15.949 13.4127L15.8525 13.4676C14.912 14.0024 13.7481 13.9999 12.8716 13.3655C12.4349 13.0495 11.9825 12.6925 11.6433 12.3533C11.3041 12.014 10.9471 11.5617 10.631 11.125C9.9967 10.2485 9.99416 9.08461 10.529 8.14406L10.5839 8.04753C11.2514 6.87355 11.0523 5.39824 10.0973 4.4433L9.16844 3.51442C7.99687 2.34285 6.09737 2.34285 4.9258 3.51442Z" fill="black"/>
<path d="M13.7371 9.32634C13.7669 9.8324 14.1706 10.2361 14.6766 10.2659L16.6801 10.3837C17.2314 10.4162 17.7047 9.99552 17.7371 9.44419C17.7655 8.96187 17.4471 8.53932 16.9978 8.41938L18.978 6.43919C19.3685 6.04867 19.3685 5.4155 18.978 5.02498C18.5875 4.63445 17.9543 4.63445 17.5638 5.02498L15.5836 7.00517C15.4637 6.55588 15.0411 6.2375 14.5588 6.26587C14.0075 6.2983 13.5868 6.77154 13.6192 7.32287L13.7371 9.32634Z" fill="black"/>
</svg>
