<svg width="24" height="24" viewBox="0 0 24 24" fill="none" xmlns="http://www.w3.org/2000/svg">
<path d="M22.7071 2.70711C23.0976 2.31658 23.0976 1.68342 22.7071 1.29289C22.3166 0.902369 21.6834 0.902369 21.2929 1.29289L1.29289 21.2929C0.902369 21.6834 0.902369 22.3166 1.29289 22.7071C1.68342 23.0976 2.31658 23.0976 2.70711 22.7071L22.7071 2.70711Z" fill="black"/>
<path d="M16.3358 4.83579L15.8787 4.37868C15.3161 3.81607 14.553 3.5 13.7574 3.5H10.2426C9.44699 3.5 8.68393 3.81607 8.12132 4.37868L7.43542 5.06458C7.14813 5.35187 6.80549 5.5778 6.42827 5.72869L3.88583 6.74567C2.74685 7.20126 2 8.30439 2 9.5311V17.5C2 17.986 2.11554 18.4449 2.32065 18.8509L7.1124 14.0592C7.03877 13.7178 7 13.3634 7 13C7 10.2386 9.23858 8 12 8C12.3634 8 12.7178 8.03877 13.0592 8.1124L16.3358 4.83579Z" fill="black"/>
<path d="M11.0013 10.1702C10.1478 10.4714 9.47144 11.1478 9.17023 12.0013L11.0013 10.1702Z" fill="black"/>
<path d="M6.32843 20.5H19C20.6569 20.5 22 19.1569 22 17.5V9.5311C22 8.30439 21.2531 7.20126 20.1142 6.74567L20.0917 6.73669L18.4588 8.36963C18.8018 8.54159 18.7805 9.06386 18.395 9.19236C17.9941 9.32599 17.6795 9.64058 17.5459 10.0415C17.4174 10.427 16.8951 10.4482 16.7231 10.1053L16.3301 10.4983C16.7561 11.2341 17 12.0886 17 13C17 15.7614 14.7614 18 12 18C11.0886 18 10.2341 17.7561 9.49831 17.3301L6.32843 20.5Z" fill="black"/>
<path d="M10.9994 15.8291C11.3123 15.9398 11.6491 16 12 16C13.6569 16 15 14.6569 15 13C15 12.6491 14.9398 12.3123 14.8291 11.9994L10.9994 15.8291Z" fill="black"/>
</svg>
