<svg width="24" height="24" viewBox="0 0 24 24" fill="none" xmlns="http://www.w3.org/2000/svg">
<path d="M12 10C10.3431 10 9 11.3431 9 13C9 14.6569 10.3431 16 12 16C13.6569 16 15 14.6569 15 13C15 11.3431 13.6569 10 12 10Z" fill="black"/>
<path fill-rule="evenodd" clip-rule="evenodd" d="M10.2426 3.5H13.7574C14.553 3.5 15.3161 3.81607 15.8787 4.37868L16.5646 5.06458C16.8519 5.35187 17.1945 5.5778 17.5717 5.72869L20.1142 6.74567C21.2531 7.20126 22 8.30439 22 9.5311V17.5C22 19.1569 20.6569 20.5 19 20.5H5C3.34315 20.5 2 19.1569 2 17.5V9.5311C2 8.30439 2.74685 7.20126 3.88583 6.74567L6.42827 5.72869C6.80549 5.5778 7.14813 5.35187 7.43542 5.06458L8.12132 4.37868C8.68393 3.81607 9.44699 3.5 10.2426 3.5ZM7 13C7 10.2386 9.23858 8 12 8C14.7614 8 17 10.2386 17 13C17 15.7614 14.7614 18 12 18C9.23858 18 7 15.7614 7 13ZM15.8477 9.19233C16.2486 9.32596 16.5631 9.64055 16.6968 10.0415C16.8328 10.4495 17.4099 10.4495 17.5459 10.0415C17.6795 9.64055 17.9941 9.32596 18.395 9.19233C18.803 9.05633 18.803 8.47921 18.395 8.34321C17.9941 8.20957 17.6795 7.89498 17.5459 7.49408C17.4099 7.08607 16.8328 7.08607 16.6968 7.49408C16.5631 7.89498 16.2486 8.20957 15.8477 8.34321C15.4396 8.47921 15.4396 9.05633 15.8477 9.19233Z" fill="black"/>
</svg>
