<svg width="24" height="24" viewBox="0 0 24 24" fill="none" xmlns="http://www.w3.org/2000/svg">
<path d="M6 3L6 6H5.5C4.67157 6 4 6.67157 4 7.5V10.5C4 11.3284 4.67157 12 5.5 12H6L6 21C6 21.5523 6.44772 22 7 22C7.55228 22 8 21.5523 8 21L8 12H8.5C9.32843 12 10 11.3284 10 10.5V7.5C10 6.67157 9.32843 6 8.5 6H8L8 3C8 2.44772 7.55228 2 7 2C6.44772 2 6 2.44772 6 3Z" fill="black"/>
<path d="M18 9H18.5C19.3284 9 20 9.67157 20 10.5V16.5C20 17.3284 19.3284 18 18.5 18H18V21C18 21.5523 17.5523 22 17 22C16.4477 22 16 21.5523 16 21V18H15.5C14.6716 18 14 17.3284 14 16.5V10.5C14 9.67157 14.6716 9 15.5 9H16V3C16 2.44772 16.4477 2 17 2C17.5523 2 18 2.44772 18 3V9Z" fill="black"/>
</svg>
