<svg width="24" height="24" viewBox="0 0 24 24" fill="none" xmlns="http://www.w3.org/2000/svg">
<path d="M18 8.5V8L21 8C21.5523 8 22 7.55228 22 7C22 6.44772 21.5523 6 21 6H18V5.5C18 4.67157 17.3284 4 16.5 4H13.5C12.6716 4 12 4.67157 12 5.5V6L3 6C2.44772 6 2 6.44772 2 7C2 7.55228 2.44772 8 3 8L12 8V8.5C12 9.32843 12.6716 10 13.5 10H16.5C17.3284 10 18 9.32843 18 8.5Z" fill="black"/>
<path d="M15 18V18.5C15 19.3284 14.3284 20 13.5 20H7.5C6.67157 20 6 19.3284 6 18.5L6 18H3C2.44772 18 2 17.5523 2 17C2 16.4477 2.44772 16 3 16H6V15.5C6 14.6716 6.67157 14 7.5 14H13.5C14.3284 14 15 14.6716 15 15.5V16H21C21.5523 16 22 16.4477 22 17C22 17.5523 21.5523 18 21 18H15Z" fill="black"/>
</svg>
