<svg width="24" height="24" viewBox="0 0 24 24" fill="none" xmlns="http://www.w3.org/2000/svg">
<path d="M3.14645 10.5607L3 11H21L20.8536 10.5607L21.7071 9.70711C22.0976 9.31658 22.0976 8.68342 21.7071 8.29289C21.3166 7.90237 20.6834 7.90237 20.2929 8.29289L20.1464 8.43934L19.4558 6.36754C19.1836 5.55086 18.4193 5 17.5585 5H6.44152C5.58066 5 4.81638 5.55086 4.54415 6.36754L3.85355 8.43934L3.70711 8.29289C3.31658 7.90237 2.68342 7.90237 2.29289 8.29289C1.90237 8.68342 1.90237 9.31658 2.29289 9.70711L3.14645 10.5607Z" fill="black"/>
<path d="M22 12V15.5C22 16.3284 21.3284 17 20.5 17H3.5C2.67157 17 2 16.3284 2 15.5V12H22Z" fill="black"/>
<path d="M3.5 20V18H8V20C8 20.5523 7.55228 21 7 21H4.5C3.94772 21 3.5 20.5523 3.5 20Z" fill="black"/>
<path d="M16 18H20.5V20C20.5 20.5523 20.0523 21 19.5 21H17C16.4477 21 16 20.5523 16 20V18Z" fill="black"/>
</svg>
