<svg width="24" height="24" viewBox="0 0 24 24" fill="none" xmlns="http://www.w3.org/2000/svg">
<path d="M5 3.5H19C20.6569 3.5 22 4.84315 22 6.5V7H2V6.5C2 4.84315 3.34315 3.5 5 3.5Z" fill="black"/>
<path fill-rule="evenodd" clip-rule="evenodd" d="M2 9V17.5C2 19.1569 3.34315 20.5 5 20.5H15.4013C15.1461 20.0587 15 19.5464 15 19C15 18.2204 15.2974 17.5103 15.7849 16.9768C15.336 16.8784 15 16.4784 15 16C15 15.4477 15.4477 15 16 15H17.7639C18.3132 14.3863 19.1115 14 20 14C20.7684 14 21.4692 14.2889 22 14.7639V9H2ZM4 16C4 15.4477 4.44772 15 5 15H13C13.5523 15 14 15.4477 14 16C14 16.5523 13.5523 17 13 17H5C4.44772 17 4 16.5523 4 16Z" fill="black"/>
<path d="M21 17C21 16.4477 20.5523 16 20 16C19.4477 16 19 16.4477 19 17V18H18C17.4477 18 17 18.4477 17 19C17 19.5523 17.4477 20 18 20H19V21C19 21.5523 19.4477 22 20 22C20.5523 22 21 21.5523 21 21V20H22C22.5523 20 23 19.5523 23 19C23 18.4477 22.5523 18 22 18H21V17Z" fill="black"/>
</svg>
