<svg width="24" height="24" viewBox="0 0 24 24" fill="none" xmlns="http://www.w3.org/2000/svg">
<path d="M5 3.5H19C20.6569 3.5 22 4.84315 22 6.5V7H2V6.5C2 4.84315 3.34315 3.5 5 3.5Z" fill="black"/>
<path fill-rule="evenodd" clip-rule="evenodd" d="M2 9V17.5C2 19.1569 3.34315 20.5 5 20.5H16.3411C15.5328 19.9625 15 19.0435 15 18C15 17.5369 15.105 17.0982 15.2924 16.7066C15.1117 16.5257 15 16.2759 15 16C15 15.4477 15.4477 15 16 15H22V9H2ZM4 16C4 15.4477 4.44772 15 5 15H13C13.5523 15 14 15.4477 14 16C14 16.5523 13.5523 17 13 17H5C4.44772 17 4 16.5523 4 16Z" fill="black"/>
<path d="M18 17C17.4477 17 17 17.4477 17 18C17 18.5523 17.4477 19 18 19H22C22.5523 19 23 18.5523 23 18C23 17.4477 22.5523 17 22 17H18Z" fill="black"/>
</svg>
