<svg width="24" height="24" viewBox="0 0 24 24" fill="none" xmlns="http://www.w3.org/2000/svg">
<path d="M5 3.5H19C20.6569 3.5 22 4.84315 22 6.5V7H2V6.5C2 4.84315 3.34315 3.5 5 3.5Z" fill="black"/>
<path fill-rule="evenodd" clip-rule="evenodd" d="M2 9V17.5C2 19.1569 3.34315 20.5 5 20.5H15.587C15.5724 19.9847 15.6897 19.4663 15.9391 19C15.5986 18.3633 15.5042 17.6297 15.6559 16.9392C15.2731 16.799 15 16.4314 15 16C15 15.4477 15.4477 15 16 15H17.0633C17.964 14.4688 19.0826 14.4485 20 14.9391C20.618 14.6086 21.3274 14.51 22 14.6432V9H2ZM4 16C4 15.4477 4.44772 15 5 15H13C13.5523 15 14 15.4477 14 16C14 16.5523 13.5523 17 13 17H5C4.44772 17 4 16.5523 4 16Z" fill="black"/>
<path d="M21.2426 18.8284L21.9497 18.1213C22.3402 17.7308 22.3402 17.0976 21.9497 16.7071C21.5592 16.3166 20.926 16.3166 20.5355 16.7071L19.8284 17.4142L19.1213 16.7071C18.7307 16.3166 18.0976 16.3166 17.707 16.7071C17.3165 17.0976 17.3165 17.7308 17.707 18.1213L18.4142 18.8284L17.707 19.5355C17.3165 19.9261 17.3165 20.5592 17.707 20.9497C18.0976 21.3403 18.7307 21.3403 19.1213 20.9497L19.8284 20.2426L20.5355 20.9497C20.926 21.3403 21.5592 21.3403 21.9497 20.9497C22.3402 20.5592 22.3402 19.9261 21.9497 19.5355L21.2426 18.8284Z" fill="black"/>
</svg>
