<svg width="24" height="24" viewBox="0 0 24 24" fill="none" xmlns="http://www.w3.org/2000/svg">
<path d="M5 3.5H19C20.6569 3.5 22 4.84315 22 6.5V7H2V6.5C2 4.84315 3.34315 3.5 5 3.5Z" fill="black"/>
<path fill-rule="evenodd" clip-rule="evenodd" d="M2 9V17.5C2 19.1569 3.34315 20.5 5 20.5H14.7639C14.2889 19.9692 14 19.2684 14 18.5C14 17.5978 14.3983 16.7885 15.0286 16.2386C15.0099 16.1621 15 16.0822 15 16C15 15.4477 15.4477 15 16 15H18C18.1304 15 18.2549 15.0249 18.3691 15.0703C18.4616 14.9605 18.5631 14.856 18.6736 14.7578C19.615 13.9209 20.9367 13.7848 22 14.3117V9H2ZM4 16C4 15.4477 4.44772 15 5 15H13C13.5523 15 14 15.4477 14 16C14 16.5523 13.5523 17 13 17H5C4.44772 17 4 16.5523 4 16Z" fill="black"/>
<path d="M21.4141 20.6644L22.7474 19.1644C23.0842 18.7855 23.0842 18.2145 22.7474 17.8356L21.4141 16.3356C21.0472 15.9229 20.4151 15.8857 20.0023 16.2526C19.6412 16.5736 19.5675 17.0975 19.8004 17.5H17C16.4477 17.5 16 17.9477 16 18.5C16 19.0523 16.4477 19.5 17 19.5H19.8004C19.5675 19.9025 19.6412 20.4264 20.0023 20.7474C20.4151 21.1143 21.0472 21.0771 21.4141 20.6644Z" fill="black"/>
</svg>
