<svg width="24" height="24" viewBox="0 0 24 24" fill="none" xmlns="http://www.w3.org/2000/svg">
<path d="M5 3.5H19C20.6569 3.5 22 4.84315 22 6.5V7H2V6.5C2 4.84315 3.34315 3.5 5 3.5Z" fill="black"/>
<path fill-rule="evenodd" clip-rule="evenodd" d="M2 9V17.5C2 19.1569 3.34315 20.5 5 20.5H15.5447C15.1449 19.4326 15.3743 18.1831 16.2328 17.3246C16.3534 17.204 16.4818 17.0958 16.6162 17H16C15.4477 17 15 16.5523 15 16C15 15.4477 15.4477 15 16 15H18C18.5523 15 19 15.4477 19 16C19 16.1783 18.9533 16.3457 18.8716 16.4906C18.9199 16.499 18.9681 16.5086 19.016 16.5194L19.8677 15.6677C20.4563 15.0791 21.2286 14.7863 22 14.7891V9H2ZM4 16C4 15.4477 4.44772 15 5 15H13C13.5523 15 14 15.4477 14 16C14 16.5523 13.5523 17 13 17H5C4.44772 17 4 16.5523 4 16Z" fill="black"/>
<path d="M22.6961 18.4962C23.0866 18.1056 23.0866 17.4725 22.6961 17.0819C22.3056 16.6914 21.6724 16.6914 21.2819 17.0819L19.3431 19.0207L19.0613 18.7388C18.6707 18.3483 18.0376 18.3483 17.647 18.7388C17.2565 19.1293 17.2565 19.7625 17.647 20.153L18.636 21.142C19.0266 21.5325 19.6597 21.5325 20.0503 21.142L22.6961 18.4962Z" fill="black"/>
</svg>
