<svg width="24" height="24" viewBox="0 0 24 24" fill="none" xmlns="http://www.w3.org/2000/svg">
<path d="M5 3.5H19C20.6569 3.5 22 4.84315 22 6.5V7H2V6.5C2 4.84315 3.34315 3.5 5 3.5Z" fill="black"/>
<path fill-rule="evenodd" clip-rule="evenodd" d="M2 9V17.5C2 19.1569 3.34315 20.5 5 20.5H16.5V19.9323C16.2286 19.7757 15.9774 19.5735 15.7578 19.3264C15.0433 18.5227 14.8396 17.4418 15.1232 16.4812C15.0447 16.3384 15 16.1744 15 16C15 15.4477 15.4477 15 16 15H16.1094L17.5069 13.7578C18.6436 12.7474 20.3564 12.7474 21.4931 13.7578L22 14.2084V9H2ZM4 16C4 15.4477 4.44772 15 5 15H13C13.5523 15 14 15.4477 14 16C14 16.5523 13.5523 17 13 17H5C4.44772 17 4 16.5523 4 16Z" fill="black"/>
<path d="M20.1644 15.2526C19.7855 14.9158 19.2145 14.9158 18.8356 15.2526L17.3356 16.5859C16.9229 16.9528 16.8857 17.5849 17.2526 17.9977C17.5736 18.3588 18.0975 18.4325 18.5 18.1996V21C18.5 21.5523 18.9477 22 19.5 22C20.0523 22 20.5 21.5523 20.5 21V18.1996C20.9025 18.4325 21.4264 18.3588 21.7474 17.9977C22.1143 17.5849 22.0771 16.9528 21.6644 16.5859L20.1644 15.2526Z" fill="black"/>
</svg>
