<svg width="24" height="24" viewBox="0 0 24 24" fill="none" xmlns="http://www.w3.org/2000/svg">
<path d="M5 3.5H19C20.6569 3.5 22 4.84315 22 6.5V7H2V6.5C2 4.84315 3.34315 3.5 5 3.5Z" fill="black"/>
<path fill-rule="evenodd" clip-rule="evenodd" d="M2 9V17.5C2 19.1569 3.34315 20.5 5 20.5H14.7639L14.7578 20.4931C13.7474 19.3564 13.7474 17.6436 14.7578 16.5069L15.022 16.2096C15.0076 16.142 15 16.0719 15 16C15 15.4477 15.4477 15 16 15H16.0973C17.1989 13.7681 19.0904 13.6591 20.3264 14.7578C20.5735 14.9774 20.7757 15.2286 20.9323 15.5H22V9H2ZM4 16C4 15.4477 4.44772 15 5 15H13C13.5523 15 14 15.4477 14 16C14 16.5523 13.5523 17 13 17H5C4.44772 17 4 16.5523 4 16Z" fill="black"/>
<path d="M16.2526 19.1644C15.9158 18.7855 15.9158 18.2145 16.2526 17.8356L17.5859 16.3356C17.9528 15.9229 18.5849 15.8857 18.9977 16.2526C19.3588 16.5736 19.4325 17.0975 19.1996 17.5H22C22.5523 17.5 23 17.9477 23 18.5C23 19.0523 22.5523 19.5 22 19.5H19.1996C19.4325 19.9025 19.3588 20.4264 18.9977 20.7474C18.5849 21.1143 17.9528 21.0771 17.5859 20.6644L16.2526 19.1644Z" fill="black"/>
</svg>
