<svg width="24" height="24" viewBox="0 0 24 24" fill="none" xmlns="http://www.w3.org/2000/svg">
<path d="M5 3.5H19C20.6569 3.5 22 4.84315 22 6.5V7H2V6.5C2 4.84315 3.34315 3.5 5 3.5Z" fill="black"/>
<path fill-rule="evenodd" clip-rule="evenodd" d="M2 9V17.5C2 19.1569 3.34315 20.5 5 20.5H15.1177C14.8423 19.5441 15.048 18.4721 15.7578 17.6736C15.9774 17.4265 16.2286 17.2243 16.5 17.0677V17H16C15.4477 17 15 16.5523 15 16C15 15.4477 15.4477 15 16 15H16.6707C17.0825 13.8348 18.1938 13 19.5 13C20.5435 13 21.4625 13.5328 22 14.3411V9H2ZM4 16C4 15.4477 4.44772 15 5 15H13C13.5523 15 14 15.4477 14 16C14 16.5523 13.5523 17 13 17H5C4.44772 17 4 16.5523 4 16Z" fill="black"/>
<path d="M21.6644 20.4141L20.1644 21.7474C19.7855 22.0842 19.2145 22.0842 18.8356 21.7474L17.3356 20.4141C16.9229 20.0472 16.8857 19.4151 17.2526 19.0023C17.5736 18.6412 18.0975 18.5675 18.5 18.8004V16C18.5 15.4477 18.9477 15 19.5 15C20.0523 15 20.5 15.4477 20.5 16V18.8004C20.9025 18.5675 21.4264 18.6412 21.7474 19.0023C22.1143 19.4151 22.0771 20.0472 21.6644 20.4141Z" fill="black"/>
</svg>
