<svg width="24" height="24" viewBox="0 0 24 24" fill="none" xmlns="http://www.w3.org/2000/svg">
<path d="M5 3.5H19C20.6569 3.5 22 4.84315 22 6.5V7H2V6.5C2 4.84315 3.34315 3.5 5 3.5Z" fill="black"/>
<path fill-rule="evenodd" clip-rule="evenodd" d="M2 9V17.5C2 19.1569 3.34315 20.5 5 20.5H19C20.6569 20.5 22 19.1569 22 17.5V9H2ZM4 16C4 15.4477 4.44772 15 5 15H13C13.5523 15 14 15.4477 14 16C14 16.5523 13.5523 17 13 17H5C4.44772 17 4 16.5523 4 16ZM16 15C15.4477 15 15 15.4477 15 16C15 16.5523 15.4477 17 16 17H18C18.5523 17 19 16.5523 19 16C19 15.4477 18.5523 15 18 15H16Z" fill="black"/>
</svg>
