<svg width="24" height="24" viewBox="0 0 24 24" fill="none" xmlns="http://www.w3.org/2000/svg">
<path d="M18.7066 2.29289C18.3161 1.90237 17.6829 1.90237 17.2924 2.29289C16.9019 2.68342 16.9019 3.31658 17.2924 3.70711L17.9995 4.41421L17.2924 5.12132C16.9019 5.51184 16.9019 6.14501 17.2924 6.53553C17.6829 6.92606 18.3161 6.92606 18.7066 6.53553L19.4137 5.82843L20.1208 6.53553C20.5114 6.92606 21.1445 6.92606 21.535 6.53553C21.9256 6.14501 21.9256 5.51184 21.535 5.12132L20.8279 4.41421L21.535 3.70711C21.9256 3.31658 21.9256 2.68342 21.535 2.29289C21.1445 1.90237 20.5114 1.90237 20.1208 2.29289L19.4137 3L18.7066 2.29289Z" fill="black"/>
<path d="M3.68945 2C3.13717 2 2.68945 2.44772 2.68945 3C2.68945 3.55228 3.13717 4 3.68945 4C4.41787 4 5.05425 4.52928 5.18526 5.274L5.87124 9.17326C5.87717 9.20692 5.88471 9.23989 5.89377 9.2721L6.09622 10.4035C6.66184 13.5646 6.94465 15.1451 7.92275 16.2301C8.28569 16.6327 8.71134 16.9784 9.18443 17.2549C10.4593 18 12.1223 18 15.4482 18H15.8542C17.3568 18 18.1082 18 18.7266 17.7364C19.2294 17.522 19.6665 17.1864 19.9958 16.7619C20.4009 16.2398 20.5694 15.5336 20.9063 14.1212C21.4153 11.9881 21.6697 10.9215 21.3735 10.0874C21.1343 9.41416 20.6615 8.84123 20.0348 8.4655C19.2584 8 18.1237 8 15.8542 8H7.69555L7.15501 4.92747C6.8584 3.24144 5.40379 2 3.68945 2Z" fill="black"/>
<path d="M10.4995 20.75C10.4995 21.4404 9.93987 22 9.24951 22C8.55916 22 7.99951 21.4404 7.99951 20.75C7.99951 20.0596 8.55916 19.5 9.24951 19.5C9.93987 19.5 10.4995 20.0596 10.4995 20.75Z" fill="black"/>
<path d="M19.4995 20.75C19.4995 21.4404 18.9399 22 18.2495 22C17.5592 22 16.9995 21.4404 16.9995 20.75C16.9995 20.0596 17.5592 19.5 18.2495 19.5C18.9399 19.5 19.4995 20.0596 19.4995 20.75Z" fill="black"/>
</svg>
