<svg width="24" height="24" viewBox="0 0 24 24" fill="none" xmlns="http://www.w3.org/2000/svg">
<path fill-rule="evenodd" clip-rule="evenodd" d="M5 4H19C20.6569 4 22 5.34315 22 7V17C22 18.6569 20.6569 20 19 20H5C3.34315 20 2 18.6569 2 17V7C2 5.34315 3.34315 4 5 4ZM5.29289 9.7071C4.90237 9.31657 4.90237 8.68341 5.29289 8.29288C5.68342 7.90236 6.31658 7.90236 6.70711 8.29288L10.0678 11.6535L11.3675 10.5921C11.7759 10.2586 12.3731 10.2995 12.7322 10.6856L16.0028 14.2015L17.2705 12.8494C17.6482 12.4465 18.281 12.4261 18.6839 12.8038C19.0869 13.1815 19.1073 13.8144 18.7295 14.2173L16.7295 16.3506C16.54 16.5527 16.2751 16.6672 15.9981 16.6667C15.721 16.6661 15.4565 16.5506 15.2678 16.3478L11.9064 12.7342L10.6325 13.7745C10.2349 14.0993 9.65592 14.0701 9.29289 13.7071L5.29289 9.7071Z" fill="black"/>
</svg>
