<svg width="24" height="24" viewBox="0 0 24 24" fill="none" xmlns="http://www.w3.org/2000/svg">
<path fill-rule="evenodd" clip-rule="evenodd" d="M12 21C16.9706 21 21 16.9706 21 12C21 7.02944 16.9706 3 12 3C7.02944 3 3 7.02944 3 12C3 12.7706 3.09686 13.5187 3.27907 14.2326L3.54216 16.3373C3.55565 16.4452 3.55342 16.5545 3.53554 16.6618L3.19265 18.7191C3.08755 19.3497 3.52842 19.9411 4.16281 20.0204L9.76744 20.7209C10.4813 20.9031 11.2294 21 12 21ZM6 10C6 9.44772 6.44772 9 7 9H12C12.5523 9 13 9.44772 13 10C13 10.5523 12.5523 11 12 11H7C6.44772 11 6 10.5523 6 10ZM7 13C6.44772 13 6 13.4477 6 14C6 14.5523 6.44772 15 7 15H16C16.5523 15 17 14.5523 17 14C17 13.4477 16.5523 13 16 13H7Z" fill="black"/>
</svg>
