<svg width="24" height="24" viewBox="0 0 24 24" fill="none" xmlns="http://www.w3.org/2000/svg">
<path d="M10 7C13.866 7 17 10.134 17 14C17 17.866 13.866 21 10 21C9.40067 21 8.81887 20.9249 8.26367 20.7832L3.9043 20.2383C3.41093 20.1766 3.06767 19.716 3.14941 19.2256L3.41699 17.626C3.4309 17.5425 3.43237 17.457 3.42188 17.373L3.2168 15.7363C3.07511 15.1811 3 14.5993 3 14C3 10.134 6.13401 7 10 7ZM6 13C5.44772 13 5 13.4477 5 14C5 14.5523 5.44772 15 6 15C6.55228 15 7 14.5523 7 14C7 13.4477 6.55228 13 6 13ZM10 13C9.44772 13 9 13.4477 9 14C9 14.5523 9.44772 15 10 15C10.5523 15 11 14.5523 11 14C11 13.4477 10.5523 13 10 13ZM14 13C13.4477 13 13 13.4477 13 14C13 14.5523 13.4477 15 14 15C14.5523 15 15 14.5523 15 14C15 13.4477 14.5523 13 14 13Z" fill="black"/>
<path d="M15.999 3C18.7604 3 20.999 5.23858 20.999 8C20.999 8.42814 20.945 8.84363 20.8438 9.24023L20.6982 10.4092C20.6907 10.4691 20.6922 10.5302 20.7021 10.5898L20.8926 11.7324C20.951 12.0827 20.7058 12.4119 20.3535 12.4561L18.4004 12.6992C17.8542 9.1423 15.1026 6.31358 11.5859 5.64941C12.4272 4.07315 14.0875 3.00008 15.999 3Z" fill="black"/>
</svg>
