<svg width="24" height="24" viewBox="0 0 24 24" fill="none" xmlns="http://www.w3.org/2000/svg">
<path fill-rule="evenodd" clip-rule="evenodd" d="M21 12C21 16.9706 16.9706 21 12 21C11.2294 21 10.4813 20.9031 9.76744 20.7209L4.16281 20.0204C3.52842 19.9411 3.08755 19.3497 3.19265 18.7191L3.53554 16.6618C3.55342 16.5545 3.55565 16.4452 3.54216 16.3373L3.27907 14.2326C3.09686 13.5187 3 12.7706 3 12C3 7.02944 7.02944 3 12 3C16.9706 3 21 7.02944 21 12ZM15.75 12C15.75 12.6904 16.3096 13.25 17 13.25C17.6904 13.25 18.25 12.6904 18.25 12C18.25 11.3096 17.6904 10.75 17 10.75C16.3096 10.75 15.75 11.3096 15.75 12ZM12 13.25C11.3096 13.25 10.75 12.6904 10.75 12C10.75 11.3096 11.3096 10.75 12 10.75C12.6904 10.75 13.25 11.3096 13.25 12C13.25 12.6904 12.6904 13.25 12 13.25ZM5.75 12C5.75 12.6904 6.30964 13.25 7 13.25C7.69036 13.25 8.25 12.6904 8.25 12C8.25 11.3096 7.69036 10.75 7 10.75C6.30964 10.75 5.75 11.3096 5.75 12Z" fill="black"/>
</svg>
