<svg width="24" height="24" viewBox="0 0 24 24" fill="none" xmlns="http://www.w3.org/2000/svg">
<path fill-rule="evenodd" clip-rule="evenodd" d="M7 4H17C18.6569 4 20 5.34315 20 7V17C20 18.6569 18.6569 20 17 20H7C5.34315 20 4 18.6569 4 17V7C4 5.34315 5.34315 4 7 4ZM16.7176 9.69646C17.1022 9.30015 17.0928 8.66705 16.6965 8.28241C16.3001 7.89776 15.6671 7.90722 15.2824 8.30354L10.1767 13.5642L8.7176 12.0608C8.33295 11.6645 7.69986 11.655 7.30354 12.0397C6.90722 12.4243 6.89776 13.0574 7.2824 13.4537L9.4591 15.6965C9.64742 15.8905 9.90629 16 10.1767 16C10.4471 16 10.706 15.8905 10.8943 15.6965L16.7176 9.69646Z" fill="black"/>
</svg>
