<svg width="24" height="24" viewBox="0 0 24 24" fill="none" xmlns="http://www.w3.org/2000/svg">
<path fill-rule="evenodd" clip-rule="evenodd" d="M5 2C3.34315 2 2 3.34315 2 5V19C2 20.6569 3.34315 22 5 22H19C20.6569 22 22 20.6569 22 19V5C22 3.34315 20.6569 2 19 2H5ZM10.6984 15.7014C11.4474 16.3434 12.5526 16.3434 13.3016 15.7014L19.6508 10.2593C20.0701 9.89984 20.1187 9.26854 19.7593 8.84921C19.3998 8.42988 18.7685 8.38132 18.3492 8.74075L12 14.1829L5.65079 8.74074C5.23147 8.38132 4.60017 8.42988 4.24074 8.84921C3.88132 9.26853 3.92988 9.89983 4.34921 10.2593L10.6984 15.7014Z" fill="black"/>
</svg>
