<svg width="24" height="24" viewBox="0 0 24 24" fill="none" xmlns="http://www.w3.org/2000/svg">
<path fill-rule="evenodd" clip-rule="evenodd" d="M2 5C2 3.34315 3.34315 2 5 2H19C20.6569 2 22 3.34315 22 5V19C22 20.6569 20.6569 22 19 22H5C3.34315 22 2 20.6569 2 19V5ZM12 3.5C12.2652 3.5 12.5196 3.60536 12.7071 3.79289L17.7071 8.79289C18.0976 9.18342 18.0976 9.81658 17.7071 10.2071C17.3166 10.5976 16.6834 10.5976 16.2929 10.2071L12 5.91421L7.70711 10.2071C7.31658 10.5976 6.68342 10.5976 6.29289 10.2071C5.90237 9.81658 5.90237 9.18342 6.29289 8.79289L11.2929 3.79289C11.4804 3.60536 11.7348 3.5 12 3.5ZM12.7071 20.2071C12.5196 20.3946 12.2652 20.5 12 20.5C11.7348 20.5 11.4804 20.3946 11.2929 20.2071L6.29289 15.2071C5.90237 14.8166 5.90237 14.1834 6.29289 13.7929C6.68342 13.4024 7.31658 13.4024 7.70711 13.7929L12 18.0858L16.2929 13.7929C16.6834 13.4024 17.3166 13.4024 17.7071 13.7929C18.0976 14.1834 18.0976 14.8166 17.7071 15.2071L12.7071 20.2071Z" fill="black"/>
</svg>
