<svg width="24" height="24" viewBox="0 0 24 24" fill="none" xmlns="http://www.w3.org/2000/svg">
<path fill-rule="evenodd" clip-rule="evenodd" d="M2 5C2 3.34315 3.34315 2 5 2H19C20.6569 2 22 3.34315 22 5V19C22 20.6569 20.6569 22 19 22H5C3.34315 22 2 20.6569 2 19V5ZM20.5 12C20.5 12.2652 20.3946 12.5196 20.2071 12.7071L15.2071 17.7071C14.8166 18.0976 14.1834 18.0976 13.7929 17.7071C13.4024 17.3166 13.4024 16.6834 13.7929 16.2929L18.0858 12L13.7929 7.70711C13.4024 7.31658 13.4024 6.68342 13.7929 6.29289C14.1834 5.90237 14.8166 5.90237 15.2071 6.29289L20.2071 11.2929C20.3946 11.4804 20.5 11.7348 20.5 12ZM3.79289 12.7071C3.60536 12.5196 3.5 12.2652 3.5 12C3.5 11.7348 3.60536 11.4804 3.79289 11.2929L8.79289 6.29289C9.18342 5.90237 9.81658 5.90237 10.2071 6.29289C10.5976 6.68342 10.5976 7.31658 10.2071 7.70711L5.91421 12L10.2071 16.2929C10.5976 16.6834 10.5976 17.3166 10.2071 17.7071C9.81658 18.0976 9.18342 18.0976 8.79289 17.7071L3.79289 12.7071Z" fill="black"/>
</svg>
