<svg width="24" height="24" viewBox="0 0 24 24" fill="none" xmlns="http://www.w3.org/2000/svg">
<path d="M2 15C2 17.7614 4.23858 20 7 20H7.54503C7.19867 19.4169 6.65146 18.97 5.9954 18.7513C5.12901 18.4625 5.12901 17.237 5.9954 16.9482C6.84669 16.6644 7.5147 15.9964 7.79847 15.1451C8.08726 14.2788 9.31274 14.2788 9.60154 15.1451C9.8853 15.9964 10.5533 16.6644 11.4046 16.9482C11.4755 16.9719 11.5407 17.0018 11.6 17.037C11.6593 17.0018 11.7245 16.9719 11.7954 16.9482C12.6467 16.6644 13.3147 15.9964 13.5985 15.1451C13.8873 14.2788 15.1127 14.2788 15.4015 15.1451C15.6853 15.9964 16.3533 16.6644 17.2046 16.9482C18.071 17.237 18.071 18.4625 17.2046 18.7513C16.5485 18.97 16.0013 19.4169 15.655 20H16C19.3137 20 22 17.3137 22 14C22 11.3467 20.2777 9.09565 17.8902 8.30379C17.3287 5.28532 14.6812 3 11.5 3C7.91015 3 5 5.91015 5 9.5C5 9.80195 5.02059 10.0991 5.06044 10.3901C3.26232 11.1476 2 12.9264 2 15Z" fill="black"/>
<path d="M7.49384 18.1923C7.89474 18.326 8.20933 18.6405 8.34296 19.0415C8.47896 19.4495 9.05608 19.4495 9.19208 19.0415C9.32572 18.6405 9.64031 18.326 10.0412 18.1923C10.4492 18.0563 10.4492 17.4792 10.0412 17.3432C9.64031 17.2096 9.32572 16.895 9.19208 16.4941C9.05608 16.0861 8.47896 16.0861 8.34296 16.4941C8.20933 16.895 7.89474 17.2096 7.49384 17.3432C7.08583 17.4792 7.08583 18.0563 7.49384 18.1923Z" fill="black"/>
<path d="M11.343 22.0415C11.2093 21.6405 10.8947 21.326 10.4938 21.1923C10.0858 21.0563 10.0858 20.4792 10.4938 20.3432C10.8947 20.2096 11.2093 19.895 11.343 19.4941C11.479 19.0861 12.0561 19.0861 12.1921 19.4941C12.3257 19.895 12.6403 20.2096 13.0412 20.3432C13.4492 20.4792 13.4492 21.0563 13.0412 21.1923C12.6403 21.326 12.3257 21.6405 12.1921 22.0415C12.0561 22.4495 11.479 22.4495 11.343 22.0415Z" fill="black"/>
<path d="M13.4938 18.1923C13.8947 18.326 14.2093 18.6405 14.343 19.0415C14.479 19.4495 15.0561 19.4495 15.1921 19.0415C15.3257 18.6405 15.6403 18.326 16.0412 18.1923C16.4492 18.0563 16.4492 17.4792 16.0412 17.3432C15.6403 17.2096 15.3257 16.895 15.1921 16.4941C15.0561 16.0861 14.479 16.0861 14.343 16.4941C14.2093 16.895 13.8947 17.2096 13.4938 17.3432C13.0858 17.4792 13.0858 18.0563 13.4938 18.1923Z" fill="black"/>
</svg>
