<svg width="24" height="24" viewBox="0 0 24 24" fill="none" xmlns="http://www.w3.org/2000/svg">
<path d="M2 15C2 17.7614 4.23858 20 7 20H9V18.9323C8.72862 18.7757 8.47737 18.5735 8.25777 18.3264C7.15702 17.0881 7.26856 15.1919 8.50691 14.0911L10.0069 12.7578C11.1436 11.7474 12.8564 11.7474 13.9931 12.7578L15.4931 14.0911C16.7314 15.1919 16.843 17.0881 15.7422 18.3264C15.5226 18.5735 15.2714 18.7757 15 18.9323V20H16C19.3137 20 22 17.3137 22 14C22 11.3467 20.2777 9.09565 17.8902 8.30379C17.3287 5.28532 14.6812 3 11.5 3C7.91015 3 5 5.91015 5 9.5C5 9.80195 5.02059 10.0991 5.06044 10.3901C3.26232 11.1476 2 12.9264 2 15Z" fill="black"/>
<path d="M12.6644 14.2526C12.2855 13.9158 11.7145 13.9158 11.3356 14.2526L9.83564 15.5859C9.42285 15.9528 9.38567 16.5849 9.75259 16.9977C10.0736 17.3588 10.5975 17.4325 11 17.1996V22C11 22.5523 11.4477 23 12 23C12.5523 23 13 22.5523 13 22V17.1996C13.4025 17.4325 13.9264 17.3588 14.2474 16.9977C14.6143 16.5849 14.5771 15.9528 14.1644 15.5859L12.6644 14.2526Z" fill="black"/>
</svg>
