<svg width="24" height="24" viewBox="0 0 24 24" fill="none" xmlns="http://www.w3.org/2000/svg">
<path d="M2 15C2 17.3166 3.57546 19.2652 5.71341 19.8329L6.61543 16.6758C7.0706 15.0827 8.73106 14.1603 10.3242 14.6154C10.4722 14.6577 10.6145 14.7105 10.7504 14.7726C11.3782 14.4846 12.108 14.4108 12.8242 14.6154C12.9722 14.6577 13.1145 14.7105 13.2504 14.7726C13.8782 14.4846 14.608 14.4108 15.3242 14.6154C16.9173 15.0706 17.8397 16.7311 17.3846 18.3242L16.9261 19.929C19.8001 19.4837 22 16.9988 22 14C22 11.3467 20.2777 9.09565 17.8902 8.30379C17.3287 5.28532 14.6812 3 11.5 3C7.91015 3 5 5.91015 5 9.5C5 9.80195 5.02059 10.0991 5.06044 10.3901C3.26232 11.1476 2 12.9264 2 15Z" fill="black"/>
<path d="M10.4615 17.7747C10.6132 17.2437 10.3058 16.6902 9.77472 16.5385C9.24369 16.3868 8.6902 16.6942 8.53848 17.2253L7.53848 20.7253C7.38675 21.2563 7.69424 21.8098 8.22528 21.9615C8.75631 22.1132 9.3098 21.8058 9.46152 21.2747L10.4615 17.7747Z" fill="black"/>
<path d="M12.2747 16.5385C12.8058 16.6902 13.1132 17.2437 12.9615 17.7747L11.9615 21.2747C11.8098 21.8058 11.2563 22.1132 10.7253 21.9615C10.1942 21.8098 9.88675 21.2563 10.0385 20.7253L11.0385 17.2253C11.1902 16.6942 11.7437 16.3868 12.2747 16.5385Z" fill="black"/>
<path d="M15.4615 17.7747C15.6132 17.2437 15.3058 16.6902 14.7747 16.5385C14.2437 16.3868 13.6902 16.6942 13.5385 17.2253L12.5385 20.7253C12.3868 21.2563 12.6942 21.8098 13.2253 21.9615C13.7563 22.1132 14.3098 21.8058 14.4615 21.2747L15.4615 17.7747Z" fill="black"/>
</svg>
