<svg width="24" height="24" viewBox="0 0 24 24" fill="none" xmlns="http://www.w3.org/2000/svg">
<path d="M22.7071 2.70711C23.0976 2.31658 23.0976 1.68342 22.7071 1.29289C22.3166 0.902369 21.6834 0.902369 21.2929 1.29289L1.29289 21.2929C0.902369 21.6834 0.902369 22.3166 1.29289 22.7071C1.68342 23.0976 2.31658 23.0976 2.70711 22.7071L22.7071 2.70711Z" fill="black"/>
<path d="M11.5 3C12.9781 3 14.341 3.49337 15.4329 4.32443L2.52486 17.2325C2.18898 16.5605 2 15.8023 2 15C2 12.9264 3.26232 11.1476 5.06044 10.3901C5.02059 10.0991 5 9.80195 5 9.5C5 5.91015 7.91015 3 11.5 3Z" fill="black"/>
<path d="M16 20H8.24264L19.2725 8.97016C20.9146 10.0407 22 11.8936 22 14C22 17.3137 19.3137 20 16 20Z" fill="black"/>
</svg>
