<svg width="24" height="24" viewBox="0 0 24 24" fill="none" xmlns="http://www.w3.org/2000/svg">
<path d="M2 11.1765C2 12.6812 2.9093 13.9829 4.2313 14.6069C4.75708 13.5003 5.67739 12.6174 6.81044 12.1401C6.77059 11.8491 6.75 11.552 6.75 11.25C6.75 7.66015 9.66015 4.75 13.25 4.75C13.6062 4.75 13.9557 4.77865 14.2963 4.83377C13.4603 3.158 11.6716 2 9.6 2C6.72812 2 4.4 4.22541 4.4 6.97059C4.4 7.20149 4.41647 7.42872 4.44835 7.65126C3.00985 8.23049 2 9.59075 2 11.1765Z" fill="black"/>
<path d="M10 20C7.79086 20 6 18.2881 6 16.1765C6 14.5908 7.00985 13.2305 8.44835 12.6513C8.41647 12.4287 8.4 12.2015 8.4 11.9706C8.4 9.22541 10.7281 7 13.6 7C16.145 7 18.2629 8.7476 18.7121 11.0558C20.6222 11.6614 22 13.3828 22 15.4118C22 17.9458 19.851 20 17.2 20H10Z" fill="black"/>
</svg>
