<svg width="24" height="24" viewBox="0 0 24 24" fill="none" xmlns="http://www.w3.org/2000/svg">
<path d="M2 15C2 17.7614 4.23858 20 7 20H7.40192C7.39095 19.981 7.38017 19.9618 7.36959 19.9425C6.84287 18.9821 6.8815 17.8109 7.47034 16.8873L9.70167 13.3873C10.5923 11.9902 12.4469 11.5797 13.844 12.4703C15.1181 13.2826 15.5717 14.8966 14.9662 16.2341C15.2033 16.4398 15.4098 16.6842 15.5755 16.9616C16.117 17.868 16.142 18.9924 15.6415 19.9221L15.5996 20H16C19.3137 20 22 17.3137 22 14C22 11.3467 20.2777 9.09565 17.8902 8.30379C17.3287 5.28532 14.6812 3 11.5 3C7.91015 3 5 5.91015 5 9.5C5 9.80195 5.02059 10.0991 5.06044 10.3901C3.26232 11.1476 2 12.9264 2 15Z" fill="black"/>
<path d="M13.0745 15.5376C13.3714 15.0719 13.2346 14.4537 12.7689 14.1568C12.3032 13.8599 11.685 13.9967 11.3881 14.4624L9.15678 17.9624C8.9605 18.2703 8.94762 18.6607 9.1232 18.9808C9.29877 19.301 9.63487 19.5 10 19.5H11.3259L10.2352 21.526C9.97335 22.0122 10.1553 22.6187 10.6416 22.8805C11.1279 23.1423 11.7344 22.9603 11.9962 22.474L13.8805 18.974C14.0473 18.6641 14.039 18.2893 13.8585 17.9872C13.678 17.685 13.352 17.5 13 17.5H11.8235L13.0745 15.5376Z" fill="black"/>
</svg>
