<svg width="24" height="24" viewBox="0 0 24 24" fill="none" xmlns="http://www.w3.org/2000/svg">
<path d="M2 15C2 17.7614 4.23858 20 7 20H7.57444C7.68275 19.5227 7.90963 19.0652 8.25777 18.6736C8.47737 18.4265 8.72862 18.2243 9 18.0677V15C9 13.3431 10.3431 12 12 12C13.6569 12 15 13.3431 15 15V18.0677C15.2714 18.2243 15.5226 18.4265 15.7422 18.6736C16.0868 19.0612 16.3126 19.5134 16.4222 19.9854C19.5389 19.7687 22 17.1718 22 14C22 11.3467 20.2777 9.09565 17.8902 8.30379C17.3287 5.28532 14.6812 3 11.5 3C7.91015 3 5 5.91015 5 9.5C5 9.80195 5.02059 10.0991 5.06044 10.3901C3.26232 11.1476 2 12.9264 2 15Z" fill="black"/>
<path d="M14.1644 21.4141L12.6644 22.7474C12.2855 23.0842 11.7145 23.0842 11.3356 22.7474L9.83564 21.4141C9.42285 21.0472 9.38567 20.4151 9.75259 20.0023C10.0736 19.6412 10.5975 19.5675 11 19.8004V15C11 14.4477 11.4477 14 12 14C12.5523 14 13 14.4477 13 15V19.8004C13.4025 19.5675 13.9264 19.6412 14.2474 20.0023C14.6143 20.4151 14.5771 21.0472 14.1644 21.4141Z" fill="black"/>
</svg>
