<svg width="24" height="24" viewBox="0 0 24 24" fill="none" xmlns="http://www.w3.org/2000/svg">
<path d="M21 1C21.5523 1 22 1.44772 22 2V5C22 5.55228 21.5523 6 21 6C20.4477 6 20 5.55228 20 5V2C20 1.44772 20.4477 1 21 1Z" fill="black"/>
<path d="M2 15C2 17.7614 4.23858 20 7 20H16C19.3137 20 22 17.3137 22 14C22 11.3467 20.2777 9.09565 17.8902 8.30379C17.3287 5.28532 14.6812 3 11.5 3C7.91015 3 5 5.91015 5 9.5C5 9.80195 5.02059 10.0991 5.06044 10.3901C3.26232 11.1476 2 12.9264 2 15Z" fill="black"/>
<path d="M20 7.25C20 7.80228 20.4477 8.25 21 8.25C21.5523 8.25 22 7.80228 22 7.25C22 6.69772 21.5523 6.25 21 6.25C20.4477 6.25 20 6.69772 20 7.25Z" fill="black"/>
</svg>
