<svg width="24" height="24" viewBox="0 0 24 24" fill="none" xmlns="http://www.w3.org/2000/svg">
<path d="M2 9.00022C2 9.5525 2.44772 10.0002 3 10.0002C3.55228 10.0002 4 9.5525 4 9.00022C4 6.98951 4.66116 5.76674 5.43394 5.04226C5.64936 4.8403 5.8795 4.67136 6.1159 4.53235L6.10557 4.55301C5.85858 5.04698 6.05881 5.64766 6.55279 5.89465C7.04676 6.14164 7.64744 5.94141 7.89443 5.44743L8.89443 3.44743C9.14142 2.95345 8.94119 2.35278 8.44721 2.10579L6.44721 1.10579C5.95324 0.858803 5.35256 1.05903 5.10557 1.55301C4.909 1.94615 4.9957 2.40688 5.28831 2.7031C4.86293 2.93286 4.44934 3.22386 4.06606 3.58318C2.83884 4.7337 2 6.51093 2 9.00022Z" fill="black"/>
<path d="M22 8.00022C22 11.3139 19.3137 14.0002 16 14.0002C15.9151 14.0002 15.8306 13.9985 15.7466 13.995C15.0221 11.188 12.8122 8.97812 10.0053 8.25361C10.0018 8.16958 10 8.0851 10 8.00022C10 4.68651 12.6863 2.00022 16 2.00022C19.3137 2.00022 22 4.68651 22 8.00022Z" fill="black"/>
<path fill-rule="evenodd" clip-rule="evenodd" d="M14 16.0002C14 19.3139 11.3137 22.0002 8 22.0002C4.68629 22.0002 2 19.3139 2 16.0002C2 12.6865 4.68629 10.0002 8 10.0002C11.3137 10.0002 14 12.6865 14 16.0002ZM7.3207 18.0382C7.10689 17.3967 6.60355 16.8934 5.96211 16.6796C5.30929 16.462 5.30929 15.5386 5.96211 15.321C6.60355 15.1072 7.10689 14.6038 7.3207 13.9624C7.53831 13.3096 8.46169 13.3096 8.6793 13.9624C8.89311 14.6038 9.39645 15.1072 10.0379 15.321C10.6907 15.5386 10.6907 16.462 10.0379 16.6796C9.39645 16.8934 8.89311 17.3967 8.6793 18.0382C8.46169 18.691 7.53831 18.691 7.3207 18.0382Z" fill="black"/>
<path d="M21 14.0002C21.5523 14.0002 22 14.4479 22 15.0002C22 17.4895 21.1612 19.2667 19.9339 20.4173C19.5507 20.7766 19.1371 21.0676 18.7117 21.2973C19.0043 21.5936 19.091 22.0543 18.8944 22.4474C18.6474 22.9414 18.0468 23.1416 17.5528 22.8946L15.5528 21.8946C15.0588 21.6477 14.8586 21.047 15.1056 20.553L16.1056 18.553C16.3526 18.059 16.9532 17.8588 17.4472 18.1058C17.9412 18.3528 18.1414 18.9535 17.8944 19.4474L17.8841 19.4681C18.1205 19.3291 18.3506 19.1601 18.5661 18.9582C19.3388 18.2337 20 17.0109 20 15.0002C20 14.4479 20.4477 14.0002 21 14.0002Z" fill="black"/>
</svg>
