<svg width="24" height="24" viewBox="0 0 24 24" fill="none" xmlns="http://www.w3.org/2000/svg">
<path d="M3.67069 3.5147C2.70708 4.12791 2.25 4.88281 2.25 5.59822C2.25 6.31362 2.70708 7.06853 3.67069 7.68174C4.62541 8.28929 5.99014 8.6896 7.53646 8.6896C9.08277 8.6896 10.4475 8.28929 11.4022 7.68174C12.3658 7.06853 12.8229 6.31362 12.8229 5.59822C12.8229 4.88281 12.3658 4.12791 11.4022 3.5147C10.4475 2.90715 9.08277 2.50684 7.53646 2.50684C5.99014 2.50684 4.62541 2.90715 3.67069 3.5147Z" fill="black"/>
<path d="M12.8229 8.49819C12.6302 8.65953 12.424 8.80949 12.2075 8.94723C10.9775 9.72999 9.32398 10.1896 7.53646 10.1896C5.74893 10.1896 4.09543 9.72999 2.86538 8.94723C2.64893 8.80949 2.44275 8.65953 2.25 8.49819V9.98837C2.25 10.7038 2.70708 11.4587 3.67069 12.0719C4.62541 12.6794 5.99014 13.0797 7.53646 13.0797C9.08277 13.0797 10.4475 12.6794 11.4022 12.0719C12.3658 11.4587 12.8229 10.7038 12.8229 9.98837V8.49819Z" fill="black"/>
<path d="M12.8229 12.8883C12.6302 13.0497 12.424 13.1996 12.2075 13.3374C10.9775 14.1201 9.32398 14.5797 7.53646 14.5797C5.74893 14.5797 4.09543 14.1201 2.86538 13.3374C2.64893 13.1996 2.44275 13.0497 2.25 12.8883V14.3785C2.25 15.0939 2.70708 15.8488 3.67069 16.462C4.62541 17.0696 5.99014 17.4699 7.53646 17.4699C9.08277 17.4699 10.4475 17.0696 11.4022 16.462C12.3658 15.8488 12.8229 15.0939 12.8229 14.3785V12.8883Z" fill="black"/>
<path d="M12.8229 17.2785C12.6302 17.4398 12.424 17.5898 12.2075 17.7275C10.9775 18.5103 9.32398 18.9699 7.53646 18.9699C5.74893 18.9699 4.09543 18.5103 2.86538 17.7275C2.64893 17.5898 2.44275 17.4398 2.25 17.2785V17.6711C2.25 18.3865 2.70708 19.1414 3.67069 19.7546C4.62541 20.3622 5.99014 20.7625 7.53646 20.7625C9.08277 20.7625 10.4475 20.3622 11.4022 19.7546C12.3658 19.1414 12.8229 18.3865 12.8229 17.6711V17.2785Z" fill="black"/>
<path d="M15.0487 7.98294C14.3519 8.42637 14.0598 8.94672 14.0598 9.40305C14.0598 9.85937 14.3519 10.3797 15.0487 10.8231C15.7366 11.2609 16.7327 11.5562 17.8719 11.5562C19.0111 11.5562 20.0073 11.2609 20.6952 10.8231C21.392 10.3797 21.6841 9.85937 21.6841 9.40305C21.6841 8.94672 21.392 8.42637 20.6952 7.98294C20.0073 7.54518 19.0111 7.24988 17.8719 7.24988C16.7327 7.24988 15.7366 7.54518 15.0487 7.98294Z" fill="black"/>
<path d="M21.6841 11.9658C21.6239 12.0081 21.5627 12.0491 21.5005 12.0886C20.5373 12.7016 19.2523 13.0562 17.8719 13.0562C16.4915 13.0562 15.2066 12.7016 14.2434 12.0886C14.1812 12.0491 14.12 12.0081 14.0598 11.9658V12.721C14.0598 13.1773 14.3519 13.6976 15.0487 14.1411C15.7366 14.5788 16.7327 14.8741 17.8719 14.8741C19.0111 14.8741 20.0073 14.5788 20.6952 14.1411C21.392 13.6976 21.6841 13.1773 21.6841 12.721V11.9658Z" fill="black"/>
<path d="M21.6841 15.2837C21.6239 15.326 21.5627 15.367 21.5005 15.4065C20.5373 16.0195 19.2523 16.3741 17.8719 16.3741C16.4915 16.3741 15.2066 16.0195 14.2434 15.4065C14.1812 15.367 14.12 15.326 14.0598 15.2837V16.0389C14.0598 16.4952 14.3519 17.0155 15.0487 17.459C15.7366 17.8967 16.7327 18.192 17.8719 18.192C19.0111 18.192 20.0073 17.8967 20.6952 17.459C21.392 17.0155 21.6841 16.4952 21.6841 16.0389V15.2837Z" fill="black"/>
<path d="M21.6814 18.6035C21.6221 18.6452 21.5618 18.6855 21.5005 18.7245C20.5373 19.3374 19.2523 19.692 17.8719 19.692C16.4915 19.692 15.2066 19.3374 14.2434 18.7245C14.1821 18.6855 14.1218 18.6451 14.0625 18.6035C14.0933 19.0409 14.3904 19.5285 15.0487 19.9474C15.7366 20.3852 16.7327 20.6805 17.8719 20.6805C19.0111 20.6805 20.0073 20.3852 20.6952 19.9474C21.3535 19.5285 21.6505 19.0409 21.6814 18.6035Z" fill="black"/>
</svg>
