<svg width="24" height="24" viewBox="0 0 24 24" fill="none" xmlns="http://www.w3.org/2000/svg">
<path d="M22 8C22 11.3137 19.3137 14 16 14C15.9151 14 15.8306 13.9982 15.7466 13.9947C15.0221 11.1878 12.8122 8.9779 10.0053 8.25339C10.0018 8.16936 10 8.08489 10 8C10 4.68629 12.6863 2 16 2C19.3137 2 22 4.68629 22 8Z" fill="black"/>
<path fill-rule="evenodd" clip-rule="evenodd" d="M14 16C14 19.3137 11.3137 22 8 22C4.68629 22 2 19.3137 2 16C2 12.6863 4.68629 10 8 10C11.3137 10 14 12.6863 14 16ZM7.3207 18.038C7.10689 17.3965 6.60355 16.8932 5.96211 16.6794C5.30929 16.4618 5.30929 15.5384 5.96211 15.3208C6.60355 15.1069 7.10689 14.6036 7.3207 13.9622C7.53831 13.3094 8.46169 13.3094 8.6793 13.9622C8.89311 14.6036 9.39645 15.1069 10.0379 15.3208C10.6907 15.5384 10.6907 16.4618 10.0379 16.6794C9.39645 16.8932 8.89311 17.3965 8.6793 18.038C8.46169 18.6908 7.53831 18.6908 7.3207 18.038Z" fill="black"/>
</svg>
