<svg width="24" height="24" viewBox="0 0 24 24" fill="none" xmlns="http://www.w3.org/2000/svg">
<path d="M16.2433 4.92856C17.0244 4.14751 18.2907 4.14751 19.0717 4.92856C19.8528 5.70961 19.8528 6.97594 19.0717 7.75699L15.5362 11.2925C15.1457 11.683 14.5125 11.683 14.122 11.2925L12.7078 9.87831C12.3173 9.48778 12.3173 8.85462 12.7078 8.46409L16.2433 4.92856Z" fill="black"/>
<path d="M14.122 11.2925L12.7078 9.87831L4.92961 17.6565C4.53909 18.047 4.53909 18.6802 4.92961 19.0707C5.32014 19.4612 5.9533 19.4612 6.34383 19.0707L14.122 11.2925Z" fill="black"/>
<path d="M14.122 11.2925C14.5125 11.683 15.1457 11.683 15.5362 11.2925L19.0717 7.75699C19.8528 6.97594 19.8528 5.70961 19.0717 4.92856C18.2907 4.14751 17.0244 4.14751 16.2433 4.92856L12.7078 8.46409C12.3173 8.85462 12.3173 9.48778 12.7078 9.87831M14.122 11.2925L12.7078 9.87831M14.122 11.2925L15.5362 12.7067M14.122 11.2925L6.34383 19.0707C5.9533 19.4612 5.32014 19.4612 4.92961 19.0707C4.53909 18.6802 4.53909 18.047 4.92961 17.6565L12.7078 9.87831M12.7078 9.87831L11.2936 8.46409" stroke="black" stroke-width="2" stroke-linecap="round" stroke-linejoin="round"/>
</svg>
