<svg width="24" height="24" viewBox="0 0 24 24" fill="none" xmlns="http://www.w3.org/2000/svg">
<path fill-rule="evenodd" clip-rule="evenodd" d="M12 22C17.5228 22 22 17.5228 22 12C22 6.47715 17.5228 2 12 2C6.47715 2 2 6.47715 2 12C2 17.5228 6.47715 22 12 22ZM13.0427 8.47886L9.92644 10.2088C9.60355 10.3881 9.40574 10.7307 9.41195 11.1L9.4719 14.6637C9.4846 15.4186 10.2971 15.8876 10.9571 15.5212L14.0734 13.7913C14.3963 13.612 14.5941 13.2694 14.5879 12.9001L14.528 9.33635C14.5153 8.58154 13.7028 8.11245 13.0427 8.47886Z" fill="black"/>
</svg>
