<svg width="24" height="24" viewBox="0 0 24 24" fill="none" xmlns="http://www.w3.org/2000/svg">
<path d="M7.55954 2H16.4419L15.7654 4.15631C15.5899 4.71575 15.4973 5.29789 15.4907 5.88418L15.4599 8.58827C15.4481 9.62974 15.7076 10.6564 16.2129 11.5671L20.3529 19.0298C21.0924 20.3628 20.1284 22 18.604 22H5.3974C3.87297 22 2.90897 20.3628 3.64851 19.0298L8.03139 11.1294C8.21483 10.7988 8.35211 10.4463 8.44066 10.0817C8.47964 10.0863 8.51931 10.0887 8.55954 10.0887H11.0007C11.553 10.0887 12.0007 9.64099 12.0007 9.08871C12.0007 8.53642 11.553 8.08871 11.0007 8.08871H9.55954V7H11.0007C11.553 7 12.0007 6.55228 12.0007 6C12.0007 5.44772 11.553 5 11.0007 5H8.55954C8.53294 5 8.50659 5.00104 8.48052 5.00308C8.42904 4.68907 8.35259 4.37915 8.25164 4.0763L7.55954 2Z" fill="black"/>
</svg>
