<svg width="24" height="24" viewBox="0 0 24 24" fill="none" xmlns="http://www.w3.org/2000/svg">
<path fill-rule="evenodd" clip-rule="evenodd" d="M5 2C3.34315 2 2 3.34315 2 5V19C2 20.6569 3.34315 22 5 22H19C20.6569 22 22 20.6569 22 19V5C22 3.34315 20.6569 2 19 2H5ZM14.7929 3.79289C15.1834 3.40237 15.8166 3.40237 16.2071 3.79289L20.2071 7.79289C20.5976 8.18342 20.5976 8.81658 20.2071 9.20711C19.8166 9.59763 19.1834 9.59763 18.7929 9.20711L16.5 6.91421V8.5C16.5 15.1274 11.1274 20.5 4.5 20.5C3.94771 20.5 3.5 20.0523 3.5 19.5C3.5 18.9477 3.94771 18.5 4.5 18.5C10.0228 18.5 14.5 14.0228 14.5 8.5V6.91421L12.2071 9.20711C11.8166 9.59763 11.1834 9.59763 10.7929 9.20711C10.4024 8.81658 10.4024 8.18342 10.7929 7.79289L14.7929 3.79289Z" fill="black"/>
</svg>
