<svg width="24" height="24" viewBox="0 0 24 24" fill="none" xmlns="http://www.w3.org/2000/svg">
<path fill-rule="evenodd" clip-rule="evenodd" d="M5 2C3.34315 2 2 3.34315 2 5V19C2 20.6569 3.34315 22 5 22H19C20.6569 22 22 20.6569 22 19V5C22 3.34315 20.6569 2 19 2H5ZM3.79289 14.7929C3.40237 15.1834 3.40237 15.8166 3.79289 16.2071L7.79289 20.2071C8.18342 20.5976 8.81658 20.5976 9.20711 20.2071C9.59763 19.8166 9.59763 19.1834 9.20711 18.7929L6.91421 16.5H8.5C15.1274 16.5 20.5 11.1274 20.5 4.5C20.5 3.94771 20.0523 3.5 19.5 3.5C18.9477 3.5 18.5 3.94771 18.5 4.5C18.5 10.0228 14.0228 14.5 8.5 14.5H6.91421L9.20711 12.2071C9.59763 11.8166 9.59763 11.1834 9.20711 10.7929C8.81658 10.4024 8.18342 10.4024 7.79289 10.7929L3.79289 14.7929Z" fill="black"/>
</svg>
