<svg width="24" height="24" viewBox="0 0 24 24" fill="none" xmlns="http://www.w3.org/2000/svg">
<path fill-rule="evenodd" clip-rule="evenodd" d="M5 2C3.34315 2 2 3.34315 2 5V19C2 20.6569 3.34315 22 5 22H19C20.6569 22 22 20.6569 22 19V5C22 3.34315 20.6569 2 19 2H5ZM9.20711 20.2071C8.81658 20.5976 8.18342 20.5976 7.79289 20.2071L3.79289 16.2071C3.40237 15.8166 3.40237 15.1834 3.79289 14.7929C4.18342 14.4024 4.81658 14.4024 5.20711 14.7929L7.5 17.0858L7.5 15.5C7.5 8.87258 12.8726 3.5 19.5 3.5C20.0523 3.5 20.5 3.94771 20.5 4.5C20.5 5.05229 20.0523 5.5 19.5 5.5C13.9772 5.5 9.5 9.97715 9.5 15.5V17.0858L11.7929 14.7929C12.1834 14.4024 12.8166 14.4024 13.2071 14.7929C13.5976 15.1834 13.5976 15.8166 13.2071 16.2071L9.20711 20.2071Z" fill="black"/>
</svg>
