<svg width="24" height="24" viewBox="0 0 24 24" fill="none" xmlns="http://www.w3.org/2000/svg">
<path fill-rule="evenodd" clip-rule="evenodd" d="M5 2C3.34315 2 2 3.34315 2 5V19C2 20.6569 3.34315 22 5 22H19C20.6569 22 22 20.6569 22 19V5C22 3.34315 20.6569 2 19 2H5ZM9.20711 3.79289C8.81658 3.40237 8.18342 3.40237 7.79289 3.79289L3.79289 7.79289C3.40237 8.18342 3.40237 8.81658 3.79289 9.20711C4.18342 9.59763 4.81658 9.59763 5.20711 9.20711L7.5 6.91421L7.5 8.5C7.5 15.1274 12.8726 20.5 19.5 20.5C20.0523 20.5 20.5 20.0523 20.5 19.5C20.5 18.9477 20.0523 18.5 19.5 18.5C13.9772 18.5 9.5 14.0228 9.5 8.5V6.91421L11.7929 9.20711C12.1834 9.59763 12.8166 9.59763 13.2071 9.20711C13.5976 8.81658 13.5976 8.18342 13.2071 7.79289L9.20711 3.79289Z" fill="black"/>
</svg>
