<svg width="24" height="24" viewBox="0 0 24 24" fill="none" xmlns="http://www.w3.org/2000/svg">
<path fill-rule="evenodd" clip-rule="evenodd" d="M5 2C3.34315 2 2 3.34315 2 5V19C2 20.6569 3.34315 22 5 22H19C20.6569 22 22 20.6569 22 19V5C22 3.34315 20.6569 2 19 2H5ZM20.2071 14.7929C20.5976 15.1834 20.5976 15.8166 20.2071 16.2071L16.2071 20.2071C15.8166 20.5976 15.1834 20.5976 14.7929 20.2071C14.4024 19.8166 14.4024 19.1834 14.7929 18.7929L17.0858 16.5H15.5C8.87258 16.5 3.5 11.1274 3.5 4.5C3.5 3.94771 3.94772 3.5 4.5 3.5C5.05229 3.5 5.5 3.94771 5.5 4.5C5.5 10.0228 9.97715 14.5 15.5 14.5H17.0858L14.7929 12.2071C14.4024 11.8166 14.4024 11.1834 14.7929 10.7929C15.1834 10.4024 15.8166 10.4024 16.2071 10.7929L20.2071 14.7929Z" fill="black"/>
</svg>
