<svg width="24" height="24" viewBox="0 0 24 24" fill="none" xmlns="http://www.w3.org/2000/svg">
<path fill-rule="evenodd" clip-rule="evenodd" d="M5 2C3.34315 2 2 3.34315 2 5V19C2 20.6569 3.34315 22 5 22H19C20.6569 22 22 20.6569 22 19V5C22 3.34315 20.6569 2 19 2H5ZM20.2071 9.20711C20.5976 8.81658 20.5976 8.18342 20.2071 7.79289L16.2071 3.79289C15.8166 3.40237 15.1834 3.40237 14.7929 3.79289C14.4024 4.18342 14.4024 4.81658 14.7929 5.20711L17.0858 7.5H15.5C8.87258 7.5 3.5 12.8726 3.5 19.5C3.5 20.0523 3.94771 20.5 4.5 20.5C5.05228 20.5 5.5 20.0523 5.5 19.5C5.5 13.9772 9.97715 9.5 15.5 9.5H17.0858L14.7929 11.7929C14.4024 12.1834 14.4024 12.8166 14.7929 13.2071C15.1834 13.5976 15.8166 13.5976 16.2071 13.2071L20.2071 9.20711Z" fill="black"/>
</svg>
