<svg width="24" height="24" viewBox="0 0 24 24" fill="none" xmlns="http://www.w3.org/2000/svg">
<path fill-rule="evenodd" clip-rule="evenodd" d="M3 5.5V17.5C3 19.1569 4.34315 20.5 6 20.5H15C16.6568 20.5 18 19.1569 18 17.5001H18.6826C21.067 17.5001 23 15.5671 23 13.1826V10.8616C23 8.98625 21.5538 7.76532 20.1907 7.32317C19.4945 7.09732 18.7168 7.03175 18 7.2189V5.5C18 4.94772 17.5523 4.5 17 4.5H4C3.44772 4.5 3 4.94772 3 5.5ZM18 9.89613V15.5001H18.6826C19.9625 15.5001 21 14.4625 21 13.1826V10.8616C21 10.1511 20.4363 9.50542 19.5736 9.22558C19.161 9.09175 18.7768 9.08193 18.5006 9.15525C18.246 9.22283 18.1088 9.34729 18.0346 9.51854C18.0196 9.55322 18 9.63715 18 9.89613Z" fill="black"/>
</svg>
