<svg width="24" height="24" viewBox="0 0 24 24" fill="none" xmlns="http://www.w3.org/2000/svg">
<path d="M11 6.79198C10.117 6.4062 9.5 5.52516 9.5 4.5C9.5 3.11929 10.6193 2 12 2C13.3807 2 14.5 3.11929 14.5 4.5C14.5 5.52516 13.883 6.4062 13 6.79198V11H17C19.2091 11 21 12.7909 21 15V16.208C21.883 16.5938 22.5 17.4748 22.5 18.5C22.5 19.8807 21.3807 21 20 21C18.6193 21 17.5 19.8807 17.5 18.5C17.5 17.4748 18.117 16.5938 19 16.208V15C19 13.8954 18.1046 13 17 13H13L13 16.208C13.883 16.5938 14.5 17.4748 14.5 18.5C14.5 19.8807 13.3807 21 12 21C10.6193 21 9.5 19.8807 9.5 18.5C9.5 17.4748 10.117 16.5938 11 16.208L11 13H7C5.89543 13 5 13.8954 5 15V16.208C5.88295 16.5938 6.5 17.4748 6.5 18.5C6.5 19.8807 5.38071 21 4 21C2.61929 21 1.5 19.8807 1.5 18.5C1.5 17.4748 2.11705 16.5938 3 16.208V15C3 12.7909 4.79086 11 7 11H11V6.79198Z" fill="black"/>
</svg>
