<svg width="24" height="24" viewBox="0 0 24 24" fill="none" xmlns="http://www.w3.org/2000/svg">
<path d="M5 2.90039H15C16.6569 2.90039 18 4.24354 18 5.90039V8.25055H14.75C13.3693 8.25055 12.25 9.36984 12.25 10.7505V15.7004H11V17.1004C11.5523 17.1004 12 17.5481 12 18.1004C12 18.6527 11.5523 19.1004 11 19.1004H6.80001C6.24773 19.1004 5.80001 18.6527 5.80001 18.1004C5.80001 17.5481 6.24773 17.1004 6.80001 17.1004H9.00001V15.7004L5 15.7004C3.34315 15.7004 2 14.3572 2 12.7004V5.90039C2 4.24354 3.34315 2.90039 5 2.90039Z" fill="black"/>
<path d="M15 9.00049H15.1338C15.3067 9.29939 15.6299 9.50049 16 9.50049H18C18.3701 9.50049 18.6933 9.29939 18.8662 9.00049H19C20.1046 9.00049 21 9.89592 21 11.0005V19.0005C21 20.1051 20.1046 21.0005 19 21.0005H15C13.8954 21.0005 13 20.1051 13 19.0005V11.0005C13 9.89592 13.8954 9.00049 15 9.00049Z" fill="black"/>
</svg>
