<svg width="24" height="24" viewBox="0 0 24 24" fill="none" xmlns="http://www.w3.org/2000/svg">
<path d="M8.38028 16.0825L13.4954 20.5156C14.1046 21.0402 14.9688 21.1489 15.689 20.7917L15.7014 20.7856L15.7188 20.7768C16.6987 20.2816 17.0962 19.0891 16.6094 18.1051L15.8416 16.5695C15.2913 15.4688 15.0161 14.9185 15.199 14.4921C15.2381 14.401 15.2905 14.3162 15.3545 14.2405C15.6541 13.8862 16.2694 13.8862 17.5 13.8862H17.6305C19.3895 13.8862 20.269 13.8862 20.8399 13.371C20.8907 13.3252 20.939 13.2769 20.9848 13.2261C21.5 12.6552 21.5 11.7757 21.5 10.0167V8.70131C21.5 7.80792 21.5 7.36123 21.3213 6.96734C21.1425 6.57345 20.8064 6.2793 20.134 5.69101L18.6311 4.37593C18.0718 3.88652 17.7921 3.64182 17.452 3.51403C17.1119 3.38623 16.7403 3.38623 15.9971 3.38623H12.1472C11.5774 3.38623 11.2925 3.38623 11.0222 3.46374C10.752 3.54124 10.5104 3.69224 10.0272 3.99424L8.88 4.71123C7.96095 5.28563 7.50143 5.57284 7.25072 6.02519C7 6.47754 7 7.01944 7 8.10322V5.88623C7 5.05781 6.32843 4.38623 5.5 4.38623H4.5C3.39543 4.38623 2.5 5.28166 2.5 6.38623V14.3862C2.5 15.4908 3.39543 16.3862 4.5 16.3862H5.5C6.32843 16.3862 7 15.7147 7 14.8862V13.0597C7 13.9586 7 14.408 7.1807 14.8037C7.3614 15.1994 7.70102 15.4938 8.38028 16.0825Z" fill="black"/>
</svg>
