<svg width="24" height="24" viewBox="0 0 24 24" fill="none" xmlns="http://www.w3.org/2000/svg">
<path fill-rule="evenodd" clip-rule="evenodd" d="M13.8057 2.74741C12.7985 1.773 11.1999 1.773 10.1927 2.74741C9.61669 3.30462 8.81579 3.56485 8.02228 3.45261C6.63465 3.25634 5.34141 4.19594 5.09928 5.5763C4.96082 6.36565 4.46583 7.04694 3.7579 7.42255C2.51992 8.07939 2.02595 9.59968 2.64141 10.8587C2.99336 11.5787 2.99336 12.4208 2.64141 13.1408C2.02595 14.3999 2.51992 15.9202 3.7579 16.577C4.46583 16.9526 4.96082 17.6339 5.09928 18.4233C5.34141 19.8036 6.63465 20.7432 8.02228 20.547C8.81579 20.4347 9.61669 20.6949 10.1927 21.2522C11.1999 22.2266 12.7985 22.2266 13.8057 21.2522C14.3817 20.6949 15.1826 20.4347 15.9761 20.547C17.3637 20.7432 18.657 19.8036 18.8991 18.4233C19.0376 17.6339 19.5325 16.9526 20.2405 16.577C21.4785 15.9202 21.9724 14.3999 21.357 13.1408C21.005 12.4208 21.005 11.5787 21.357 10.8587C21.9724 9.59968 21.4785 8.07939 20.2405 7.42255C19.5325 7.04694 19.0376 6.36565 18.8991 5.5763C18.657 4.19594 17.3637 3.25634 15.9761 3.45261C15.1826 3.56485 14.3817 3.30462 13.8057 2.74741ZM10.7653 10.7723C11.2535 10.2842 11.2535 9.49273 10.7653 9.00457C10.2772 8.51642 9.48573 8.51642 8.99757 9.00457C8.50942 9.49273 8.50942 10.2842 8.99757 10.7723C9.48573 11.2605 10.2772 11.2605 10.7653 10.7723ZM15.008 13.2473C15.4962 13.7354 15.4962 14.5269 15.008 15.015C14.5199 15.5032 13.7284 15.5032 13.2403 15.015C12.7521 14.5269 12.7521 13.7354 13.2403 13.2473C13.7284 12.7591 14.5199 12.7591 15.008 13.2473ZM9.17074 13.414C8.78022 13.8045 8.78022 14.4377 9.17074 14.8282C9.56127 15.2188 10.1944 15.2188 10.585 14.8282L14.8276 10.5856C15.2181 10.1951 15.2181 9.5619 14.8276 9.17138C14.4371 8.78085 13.8039 8.78085 13.4134 9.17138L9.17074 13.414Z" fill="black"/>
</svg>
