<svg width="24" height="24" viewBox="0 0 24 24" fill="none" xmlns="http://www.w3.org/2000/svg">
<path fill-rule="evenodd" clip-rule="evenodd" d="M12 21C16.9706 21 21 16.9706 21 12C21 7.02944 16.9706 3 12 3C7.02944 3 3 7.02944 3 12C3 16.9706 7.02944 21 12 21ZM10.75 12C10.75 12.6904 11.3096 13.25 12 13.25C12.6904 13.25 13.25 12.6904 13.25 12C13.25 11.3096 12.6904 10.75 12 10.75C11.3096 10.75 10.75 11.3096 10.75 12ZM12 8.75C11.3096 8.75 10.75 8.19036 10.75 7.5C10.75 6.80964 11.3096 6.25 12 6.25C12.6904 6.25 13.25 6.80964 13.25 7.5C13.25 8.19036 12.6904 8.75 12 8.75ZM10.75 16.5C10.75 17.1904 11.3096 17.75 12 17.75C12.6904 17.75 13.25 17.1904 13.25 16.5C13.25 15.8096 12.6904 15.25 12 15.25C11.3096 15.25 10.75 15.8096 10.75 16.5Z" fill="black"/>
</svg>
