<svg width="24" height="24" viewBox="0 0 24 24" fill="none" xmlns="http://www.w3.org/2000/svg">
<path d="M14 4.5C14 5.60457 13.1046 6.5 12 6.5C10.8954 6.5 10 5.60457 10 4.5C10 3.39543 10.8954 2.5 12 2.5C13.1046 2.5 14 3.39543 14 4.5Z" fill="black"/>
<path d="M14 12C14 13.1046 13.1046 14 12 14C10.8954 14 10 13.1046 10 12C10 10.8954 10.8954 10 12 10C13.1046 10 14 10.8954 14 12Z" fill="black"/>
<path d="M12 21.5C13.1046 21.5 14 20.6046 14 19.5C14 18.3954 13.1046 17.5 12 17.5C10.8954 17.5 10 18.3954 10 19.5C10 20.6046 10.8954 21.5 12 21.5Z" fill="black"/>
</svg>
