<svg width="24" height="24" viewBox="0 0 24 24" fill="none" xmlns="http://www.w3.org/2000/svg">
<path d="M16.7071 13.7071L12.7071 17.7071C12.3166 18.0976 11.6834 18.0976 11.2929 17.7071L7.29289 13.7071C6.90237 13.3166 6.90237 12.6834 7.29289 12.2929C7.68342 11.9024 8.31658 11.9024 8.70711 12.2929L11 14.5858V3C11 2.44771 11.4477 2 12 2C12.5523 2 13 2.44771 13 3V14.5858L15.2929 12.2929C15.6834 11.9024 16.3166 11.9024 16.7071 12.2929C17.0976 12.6834 17.0976 13.3166 16.7071 13.7071Z" fill="black"/>
<path d="M13.4142 18.4142L14.3284 17.5H21V19C21 20.6569 19.6569 22 18 22H6C4.34315 22 3 20.6569 3 19V17.5H9.67157L10.5858 18.4142C11.3668 19.1953 12.6332 19.1953 13.4142 18.4142Z" fill="black"/>
</svg>
