<svg width="24" height="24" viewBox="0 0 24 24" fill="none" xmlns="http://www.w3.org/2000/svg">
<path fill-rule="evenodd" clip-rule="evenodd" d="M12 3C13.7691 3 15.419 3.51044 16.8104 4.39207C16.3187 4.75645 16 5.341 16 6C16 7.10457 16.8954 8 18 8C18 9.10457 18.8954 10 20 10C20.2627 10 20.5136 9.94935 20.7434 9.85729C20.9111 10.544 21 11.2616 21 12C21 16.9706 16.9706 21 12 21C7.02944 21 3 16.9706 3 12C3 7.02944 7.02944 3 12 3ZM10.7071 15.2929C10.3166 14.9024 9.68342 14.9024 9.29289 15.2929C8.90237 15.6834 8.90237 16.3166 9.29289 16.7071C10.788 18.2022 13.212 18.2022 14.7071 16.7071C15.0976 16.3166 15.0976 15.6834 14.7071 15.2929C14.3166 14.9024 13.6834 14.9024 13.2929 15.2929C12.5788 16.0069 11.4212 16.0069 10.7071 15.2929ZM10.2 9.5C10.2 8.67157 9.52844 8 8.70001 8C7.87158 8 7.20001 8.67157 7.20001 9.5C7.20001 10.3284 7.87158 11 8.70001 11C9.52844 11 10.2 10.3284 10.2 9.5ZM15.3 8C16.1284 8 16.8 8.67157 16.8 9.5C16.8 10.3284 16.1284 11 15.3 11C14.4716 11 13.8 10.3284 13.8 9.5C13.8 8.67157 14.4716 8 15.3 8Z" fill="black"/>
<path d="M21 4C21 3.44772 20.5523 3 20 3C19.4477 3 19 3.44772 19 4V5H18C17.4477 5 17 5.44772 17 6C17 6.55228 17.4477 7 18 7H19V8C19 8.55228 19.4477 9 20 9C20.5523 9 21 8.55228 21 8V7H22C22.5523 7 23 6.55228 23 6C23 5.44772 22.5523 5 22 5H21V4Z" fill="black"/>
</svg>
