<svg width="24" height="24" viewBox="0 0 24 24" fill="none" xmlns="http://www.w3.org/2000/svg">
<path fill-rule="evenodd" clip-rule="evenodd" d="M12 21C16.9706 21 21 16.9706 21 12C21 7.02944 16.9706 3 12 3C7.02944 3 3 7.02944 3 12C3 16.9706 7.02944 21 12 21ZM10.7071 15.2929C10.3166 14.9024 9.68342 14.9024 9.29289 15.2929C8.90237 15.6834 8.90237 16.3166 9.29289 16.7071C10.788 18.2022 13.212 18.2022 14.7071 16.7071C15.0976 16.3166 15.0976 15.6834 14.7071 15.2929C14.3166 14.9024 13.6834 14.9024 13.2929 15.2929C12.5788 16.0069 11.4212 16.0069 10.7071 15.2929ZM10.2 9.5C10.2 8.67157 9.52844 8 8.70001 8C7.87158 8 7.20001 8.67157 7.20001 9.5C7.20001 10.3284 7.87158 11 8.70001 11C9.52844 11 10.2 10.3284 10.2 9.5ZM15.3 8C16.1284 8 16.8 8.67157 16.8 9.5C16.8 10.3284 16.1284 11 15.3 11C14.4716 11 13.8 10.3284 13.8 9.5C13.8 8.67157 14.4716 8 15.3 8Z" fill="black"/>
</svg>
