<svg width="24" height="24" viewBox="0 0 24 24" fill="none" xmlns="http://www.w3.org/2000/svg">
<path d="M5.75747 10.2171L11.862 11.9612C11.9517 11.9869 12.0469 11.9869 12.1367 11.9612L18.2412 10.2171C18.5937 10.1164 18.7215 9.68301 18.4801 9.40707L12.3756 2.43051C12.1764 2.20285 11.8222 2.20285 11.623 2.43051L5.51854 9.40707C5.2771 9.68301 5.40492 10.1164 5.75747 10.2171Z" fill="black"/>
<path d="M11.5968 21.4542L5.86882 13.6805C5.58588 13.2965 5.95009 12.7721 6.40871 12.9032L11.862 14.4612C11.9517 14.4869 12.0469 14.4869 12.1367 14.4612L17.5899 12.9032C18.0485 12.7721 18.4128 13.2965 18.1298 13.6805L12.4018 21.4542C12.202 21.7254 11.7966 21.7254 11.5968 21.4542Z" fill="black"/>
</svg>
