<svg width="24" height="24" viewBox="0 0 24 24" fill="none" xmlns="http://www.w3.org/2000/svg">
<path d="M12.6904 3C9.31022 3 6.53158 5.64316 6.34516 9H3.5C2.94772 9 2.5 9.44772 2.5 10C2.5 10.5523 2.94772 11 3.5 11H6.28076L6.23389 12.5H3.5C2.94772 12.5 2.5 12.9477 2.5 13.5C2.5 14.0523 2.94772 14.5 3.5 14.5H6.17139L6.09717 16.8751C6.02664 19.1321 7.83712 21 10.0952 21H17C17.5523 21 18 20.5523 18 20C18 19.4477 17.5523 19 17 19H10.0952C8.96617 19 8.06093 18.066 8.09619 16.9375L8.17236 14.5H12.5C13.0523 14.5 13.5 14.0523 13.5 13.5C13.5 12.9477 13.0523 12.5 12.5 12.5H8.23486L8.28174 11H12.5C13.0523 11 13.5 10.5523 13.5 10C13.5 9.44772 13.0523 9 12.5 9H8.34968C8.53179 6.75295 10.4116 5 12.6904 5H13.7639C14.7556 5 15.6621 5.56027 16.1056 6.44721C16.3526 6.94119 16.9532 7.14142 17.4472 6.89443C17.9412 6.64744 18.1414 6.04676 17.8944 5.55279C17.1122 3.98827 15.5131 3 13.7639 3H12.6904Z" fill="black"/>
</svg>
