<svg width="24" height="24" viewBox="0 0 24 24" fill="none" xmlns="http://www.w3.org/2000/svg">
<path fill-rule="evenodd" clip-rule="evenodd" d="M2 5C2 3.34315 3.34315 2 5 2H19C20.6569 2 22 3.34315 22 5V19C22 20.6569 20.6569 22 19 22H5C3.34315 22 2 20.6569 2 19V5ZM3.5 6.5C3.5 4.84315 4.84315 3.5 6.5 3.5H8.5C9.05228 3.5 9.5 3.94772 9.5 4.5C9.5 5.05228 9.05228 5.5 8.5 5.5H6.5C5.94772 5.5 5.5 5.94772 5.5 6.5V8.5C5.5 9.05228 5.05228 9.5 4.5 9.5C3.94772 9.5 3.5 9.05228 3.5 8.5V6.5ZM17.5 3.5C19.1569 3.5 20.5 4.84315 20.5 6.5V8.5C20.5 9.05228 20.0523 9.5 19.5 9.5C18.9477 9.5 18.5 9.05228 18.5 8.5V6.5C18.5 5.94772 18.0523 5.5 17.5 5.5H14.5C13.9477 5.5 13.5 5.05228 13.5 4.5C13.5 3.94772 13.9477 3.5 14.5 3.5H17.5ZM3.5 17.5C3.5 19.1569 4.84315 20.5 6.5 20.5H8.5C9.05228 20.5 9.5 20.0523 9.5 19.5C9.5 18.9477 9.05228 18.5 8.5 18.5H6.5C5.94772 18.5 5.5 18.0523 5.5 17.5V14.5C5.5 13.9477 5.05228 13.5 4.5 13.5C3.94772 13.5 3.5 13.9477 3.5 14.5V17.5ZM17.5 20.5C19.1569 20.5 20.5 19.1569 20.5 17.5V14.5C20.5 13.9477 20.0523 13.5 19.5 13.5C18.9477 13.5 18.5 13.9477 18.5 14.5V17.5C18.5 18.0523 18.0523 18.5 17.5 18.5H14.5C13.9477 18.5 13.5 18.9477 13.5 19.5C13.5 20.0523 13.9477 20.5 14.5 20.5H17.5Z" fill="black"/>
</svg>
