<svg width="24" height="24" viewBox="0 0 24 24" fill="none" xmlns="http://www.w3.org/2000/svg">
<path d="M5 3C5 2.44772 4.55228 2 4 2C3.44772 2 3 2.44772 3 3V4H2C1.44772 4 1 4.44772 1 5C1 5.55228 1.44772 6 2 6H3V7C3 7.55228 3.44772 8 4 8C4.55228 8 5 7.55228 5 7V6H6C6.55228 6 7 5.55228 7 5C7 4.44772 6.55228 4 6 4H5V3Z" fill="black"/>
<path d="M4.39499 18.9545C5.89149 12.8069 10.6184 3.46048 20.8905 3.04939C20.9435 3.04727 20.9905 3.08963 20.9948 3.14249C21.4319 8.43454 17.7921 8.70234 14.6851 8.55575C14.6029 8.55187 14.5522 8.6455 14.5956 8.71541C16.3918 11.6114 13.9579 13.2816 12.4864 12.5458C8.25855 10.7858 7.00243 15.0915 5.88594 18.9185C5.81409 19.1648 5.7428 19.4091 5.67135 19.6497C5.51451 20.1778 5.13107 20.3947 4.78629 20.3247C4.24975 20.2156 4.26549 19.4865 4.39499 18.9545Z" fill="black"/>
</svg>
