<svg width="24" height="24" viewBox="0 0 24 24" fill="none" xmlns="http://www.w3.org/2000/svg">
<path d="M20.9049 3.00398C10.6329 3.41507 5.90591 12.7615 4.4094 18.9091C4.27991 19.4411 4.26417 20.1702 4.80071 20.2792C5.14549 20.3493 5.52893 20.1324 5.68576 19.6043C6.86746 15.6254 8.00085 10.6271 12.5009 12.5004C13.9724 13.2362 16.4062 11.566 14.61 8.67C14.5666 8.60009 14.6173 8.50646 14.6995 8.51034C17.8065 8.65693 21.4463 8.38913 21.0092 3.09708C21.0049 3.04421 20.9579 3.00186 20.9049 3.00398Z" fill="black"/>
<path d="M3.61272 6.65015C3.45236 6.16907 3.07485 5.79156 2.59377 5.6312C2.10416 5.468 2.10416 4.77546 2.59377 4.61225C3.07485 4.45189 3.45236 4.07439 3.61272 3.59331C3.77592 3.1037 4.46846 3.1037 4.63166 3.59331C4.79203 4.07439 5.16953 4.45189 5.65061 4.61225C6.14022 4.77546 6.14022 5.468 5.65061 5.6312C5.16953 5.79156 4.79203 6.16907 4.63166 6.65015C4.46846 7.13976 3.77592 7.13976 3.61272 6.65015Z" fill="black"/>
<path d="M12.5937 18.6312C13.0748 18.7916 13.4523 19.1691 13.6127 19.6501C13.7759 20.1398 14.4684 20.1398 14.6316 19.6501C14.792 19.1691 15.1695 18.7916 15.6506 18.6312C16.1402 18.468 16.1402 17.7755 15.6506 17.6123C15.1695 17.4519 14.792 17.0744 14.6316 16.5933C14.4684 16.1037 13.7759 16.1037 13.6127 16.5933C13.4523 17.0744 13.0748 17.4519 12.5937 17.6123C12.1041 17.7755 12.1041 18.468 12.5937 18.6312Z" fill="black"/>
</svg>
