<svg width="24" height="24" viewBox="0 0 24 24" fill="none" xmlns="http://www.w3.org/2000/svg">
<path d="M13 2H7C5.34315 2 4 3.34315 4 5V14.5H7.16017C7.69084 14.5 8.20174 14.7163 8.58969 15.1051L10.8344 17.3551C11.7219 18.2446 11.7219 19.7554 10.8344 20.6449L9.48247 22H17C18.6569 22 20 20.6569 20 19V10H17C14.7909 10 13 8.20914 13 6V2Z" fill="black"/>
<path d="M19.7965 8C19.6797 7.6993 19.5143 7.41716 19.3047 7.1656L15.8995 3.07945C15.6469 2.77634 15.3405 2.52989 15 2.34941V6C15 7.10457 15.8954 8 17 8H19.7965Z" fill="black"/>
<path d="M4.70711 16.2929C5.09763 16.6834 5.09763 17.3166 4.70711 17.7071L3.41421 19L4.70711 20.2929C5.09763 20.6834 5.09763 21.3166 4.70711 21.7071C4.31658 22.0976 3.68342 22.0976 3.29289 21.7071L1.29289 19.7071C1.10536 19.5196 1 19.2652 1 19C1 18.7348 1.10536 18.4804 1.29289 18.2929L3.29289 16.2929C3.68342 15.9024 4.31658 15.9024 4.70711 16.2929Z" fill="black"/>
<path d="M6.29289 17.7071C5.90237 17.3166 5.90237 16.6834 6.29289 16.2929C6.68342 15.9024 7.31658 15.9024 7.70711 16.2929L9.70711 18.2929C9.89464 18.4804 10 18.7348 10 19C10 19.2652 9.89464 19.5196 9.70711 19.7071L7.70711 21.7071C7.31658 22.0976 6.68342 22.0976 6.29289 21.7071C5.90237 21.3166 5.90237 20.6834 6.29289 20.2929L7.58579 19L6.29289 17.7071Z" fill="black"/>
</svg>
