<svg width="24" height="24" viewBox="0 0 24 24" fill="none" xmlns="http://www.w3.org/2000/svg">
<path d="M13 2H7C5.34315 2 4 3.34315 4 5V19C4 20.6569 5.34315 22 7 22H8.6094L8.50691 21.9089C7.26856 20.8081 7.15702 18.9119 8.25777 17.6736C8.47737 17.4265 8.72862 17.2243 9 17.0677V14C9 12.3431 10.3431 11 12 11C13.6569 11 15 12.3431 15 14V17.0677C15.2714 17.2243 15.5226 17.4265 15.7422 17.6736C16.843 18.9119 16.7314 20.8081 15.4931 21.9089L15.3906 22H17C18.6569 22 20 20.6569 20 19V10H17C14.7909 10 13 8.20914 13 6V2Z" fill="black"/>
<path d="M19.7965 8C19.6797 7.6993 19.5143 7.41716 19.3047 7.1656L15.8995 3.07945C15.6469 2.77634 15.3405 2.52989 15 2.34941V6C15 7.10457 15.8954 8 17 8H19.7965Z" fill="black"/>
<path d="M14.1644 20.4141L12.6644 21.7474C12.2855 22.0842 11.7145 22.0842 11.3356 21.7474L9.83564 20.4141C9.42285 20.0472 9.38567 19.4151 9.75259 19.0023C10.0736 18.6412 10.5975 18.5675 11 18.8004V14C11 13.4477 11.4477 13 12 13C12.5523 13 13 13.4477 13 14V18.8004C13.4025 18.5675 13.9264 18.6412 14.2474 19.0023C14.6143 19.4151 14.5771 20.0472 14.1644 20.4141Z" fill="black"/>
</svg>
