<svg width="24" height="24" viewBox="0 0 24 24" fill="none" xmlns="http://www.w3.org/2000/svg">
<path d="M12 3C7.02944 3 3 7.02943 3 12V17.2C3 17.7523 2.55228 18.2 2 18.2C1.44772 18.2 1 17.7523 1 17.2V12C1 5.92486 5.92487 1 12 1C18.0751 1 23 5.92487 23 12V21C23 21.5523 22.5523 22 22 22C21.4477 22 21 21.5523 21 21V12C21 7.02944 16.9706 3 12 3Z" fill="black"/>
<path d="M12 6C10.2042 6 8.59768 6.76863 7.49932 7.98373C7.12898 8.39344 6.49662 8.42535 6.08691 8.055C5.6772 7.68466 5.64529 7.05229 6.01563 6.64258C7.4822 5.02013 9.62254 4 12 4C14.0222 4 15.8737 4.73829 17.2842 5.95783C18.9448 7.39355 20 9.50269 20 11.8571C20 11.8812 19.9992 11.905 19.9975 11.9286C19.9992 11.9522 20 11.976 20 12V12.5C20 16.0899 17.0899 19 13.5 19C10.1861 19 7.45148 16.5201 7.05059 13.3149C7.01777 13.2159 7 13.11 7 13V12C7 9.23858 9.23858 7 12 7C14.7614 7 17 9.23858 17 12V13C17 14.6569 15.6569 16 14 16C12.3431 16 11 14.6569 11 13V12C11 11.4477 11.4477 11 12 11C12.5523 11 13 11.4477 13 12V13C13 13.5523 13.4477 14 14 14C14.5523 14 15 13.5523 15 13V12C15 10.3431 13.6569 9 12 9C10.3431 9 9 10.3431 9 12V12.5C9 14.9853 11.0147 17 13.5 17C15.9853 17 18 14.9853 18 12.5V12C18 11.976 18.0008 11.9522 18.0025 11.9286C18.0008 11.905 18 11.8812 18 11.8571C18 10.1155 17.2221 8.54798 15.9762 7.47075C14.9187 6.55647 13.5284 6 12 6Z" fill="black"/>
<path d="M5.70751 8.86609C6.2233 9.06354 6.48136 9.64173 6.28391 10.1575C6.09623 10.6478 6 11.1683 6 11.6933V18.7143C6 19.2666 5.55228 19.7143 5 19.7143C4.44772 19.7143 4 19.2666 4 18.7143V11.6933C4 10.9239 4.14103 10.161 4.41609 9.44249C4.61354 8.9267 5.19173 8.66864 5.70751 8.86609Z" fill="black"/>
<path d="M18.1759 19.4608C18.4737 19.9259 18.338 20.5444 17.8729 20.8422C16.7065 21.589 15.3191 22.0218 13.8337 22.0218C13.0995 22.0218 12.3884 21.915 11.7158 21.7155C11.1863 21.5586 10.8843 21.0021 11.0412 20.4726C11.1982 19.943 11.7547 19.6411 12.2842 19.798C12.7747 19.9434 13.2944 20.0218 13.8337 20.0218C14.9256 20.0218 15.9404 19.7047 16.7945 19.1578C17.2597 18.86 17.8781 18.9957 18.1759 19.4608Z" fill="black"/>
<path d="M9 19C9 18.4477 8.55228 18 8 18C7.44772 18 7 18.4477 7 19V20C7 20.5523 7.44772 21 8 21C8.55228 21 9 20.5523 9 20V19Z" fill="black"/>
</svg>
