<svg width="24" height="24" viewBox="0 0 24 24" fill="none" xmlns="http://www.w3.org/2000/svg">
<path fill-rule="evenodd" clip-rule="evenodd" d="M7.53806 6.66663H5.22222C3.99492 6.66663 3 7.66155 3 8.88885V9.37125L10.2664 12.0689C10.6781 12.2217 11.1137 12.3 11.5527 12.3H12.4473C12.8863 12.3 13.3219 12.2217 13.7336 12.0689L21 9.37125V8.88885C21 7.66155 20.0051 6.66663 18.7778 6.66663H16.462C16.0267 5.12764 14.6117 4 12.9334 4H11.0667C9.38834 4 7.97336 5.12764 7.53806 6.66663ZM9.73327 6.66663H14.2668C13.9627 6.26183 13.4786 6 12.9334 6H11.0667C10.5214 6 10.0373 6.26183 9.73327 6.66663ZM13 8.75C13 8.19772 12.5523 7.75 12 7.75C11.4477 7.75 11 8.19772 11 8.75C10.4477 8.75 10 9.19772 10 9.75C10 10.3023 10.4477 10.75 11 10.75C11 11.3023 11.4477 11.75 12 11.75C12.5523 11.75 13 11.3023 13 10.75C13.5523 10.75 14 10.3023 14 9.75C14 9.19772 13.5523 8.75 13 8.75Z" fill="black"/>
<path d="M4.52687 17.3022L3.90002 11.1111L10.5958 13.591C10.9293 13.7145 11.2821 13.7778 11.6377 13.7778H12.3623C12.718 13.7778 13.0708 13.7145 13.4043 13.591L20.1 11.1111L19.4732 17.3022C19.3181 18.8342 18.0283 20 16.4884 20H7.51161C5.97178 20 4.68199 18.8342 4.52687 17.3022Z" fill="black"/>
</svg>
