<svg width="24" height="24" viewBox="0 0 24 24" fill="none" xmlns="http://www.w3.org/2000/svg">
<path d="M6.09333 3.37325L6.63724 5.54898C6.65677 5.62709 6.66665 5.70731 6.66665 5.78783V8.33326C6.66665 10.937 8.53246 13.1049 11 13.573V19.6526C9.91655 18.2586 7.80788 16.9999 4 16.9999C5.2563 20.9259 9.69794 22.1759 11.879 22.3259C11.9182 22.3307 11.958 22.3331 11.9984 22.3332L12 22.3333L12.0016 22.3332C12.042 22.3331 12.0818 22.3307 12.121 22.3259C14.3021 22.1759 18.7437 20.9259 20 16.9999C16.1921 16.9999 14.0835 18.2586 13 19.6526V13.573C15.4675 13.1049 17.3333 10.937 17.3333 8.33326V5.78784C17.3333 5.70731 17.3432 5.62709 17.3627 5.54897L17.9002 3.39927C17.9406 3.23734 17.7764 3.09561 17.6212 3.15709C16.7097 3.51827 14.2989 4.37359 12 4.33326C9.86937 4.29588 7.29384 3.45962 6.36003 3.13091C6.20728 3.07715 6.05405 3.21614 6.09333 3.37325Z" fill="black"/>
</svg>
