<svg width="24" height="24" viewBox="0 0 24 24" fill="none" xmlns="http://www.w3.org/2000/svg">
<path d="M12.2847 7.2H18.0014C19.6582 7.2 21 8.54314 21 10.2V12.0186C20.1845 11.9276 19.3352 12.1697 18.6736 12.7578C18.4265 12.9774 18.2243 13.2286 18.0677 13.5H17C15.3431 13.5 14 14.8431 14 16.5C14 17.2684 14.2889 17.9693 14.7639 18.5L14.7578 18.5069C14.3712 18.9418 14.1326 19.461 14.0418 20H6C4.34315 20 3 18.6569 3 17V6.56692C3 5.14925 4.14925 4 5.56692 4H8.11436C8.83286 4 9.93622 5.17792 10.7625 6.05999C11.0614 6.37912 11.324 6.65952 11.5191 6.8314C11.6586 6.95435 12.0987 7.2 12.2847 7.2Z" fill="black"/>
<path d="M22.7474 17.1644L21.4141 18.6644C21.0472 19.0771 20.4151 19.1143 20.0023 18.7474C19.6412 18.4264 19.5675 17.9025 19.8004 17.5H17C16.4477 17.5 16 17.0523 16 16.5C16 15.9477 16.4477 15.5 17 15.5H19.8004C19.5675 15.0975 19.6412 14.5736 20.0023 14.2526C20.4151 13.8857 21.0472 13.9229 21.4141 14.3356L22.7474 15.8356C23.0842 16.2145 23.0842 16.7855 22.7474 17.1644Z" fill="black"/>
<path d="M16.2526 21.1644C15.9158 20.7855 15.9158 20.2145 16.2526 19.8356L17.5859 18.3356C17.9528 17.9229 18.5849 17.8857 18.9977 18.2526C19.3588 18.5736 19.4325 19.0975 19.1996 19.5H22C22.5523 19.5 23 19.9477 23 20.5C23 21.0523 22.5523 21.5 22 21.5H19.1996C19.4325 21.9025 19.3588 22.4264 18.9977 22.7474C18.5849 23.1143 17.9528 23.0771 17.5859 22.6644L16.2526 21.1644Z" fill="black"/>
</svg>
