<svg width="24" height="24" viewBox="0 0 24 24" fill="none" xmlns="http://www.w3.org/2000/svg">
<path d="M12.2847 7.2H18.0014C19.6582 7.2 21 8.54314 21 10.2V12.3766C20.1787 11.5277 19.0276 11 17.7531 11C15.2583 11 13.2358 13.0225 13.2358 15.5173C13.2358 16.5317 13.5701 17.468 14.1346 18.222C13.4779 18.7423 12.924 19.3644 12.5097 20H6C4.34315 20 3 18.6569 3 17V6.56692C3 5.14925 4.14925 4 5.56692 4H8.11436C8.83286 4 9.93622 5.17792 10.7625 6.05999C11.0614 6.37912 11.324 6.65952 11.5191 6.8314C11.6586 6.95435 12.0987 7.2 12.2847 7.2Z" fill="black"/>
<path fill-rule="evenodd" clip-rule="evenodd" d="M15.2 16C15.2 14.3431 16.5431 13 18.2 13C19.8568 13 21.2 14.3431 21.2 16C21.2 17.0227 20.6882 17.9259 19.9068 18.4674C20.5942 18.86 21.1279 19.4432 21.4517 19.9913C21.597 20.2371 21.6968 20.5247 21.6999 20.8422C21.703 21.1637 21.6062 21.4494 21.4605 21.6841C21.1907 22.1189 20.7572 22.3786 20.4188 22.5341C19.7185 22.856 18.8248 23 18.2 23C17.5751 23 16.6815 22.856 15.9811 22.5341C15.6427 22.3786 15.2093 22.1189 14.9394 21.6841C14.7937 21.4494 14.6969 21.1637 14.7 20.8422C14.7031 20.5247 14.8029 20.2371 14.9482 19.9913C15.272 19.4432 15.8058 18.86 16.4931 18.4674C15.7117 17.9259 15.2 17.0227 15.2 16ZM18.2 15C17.6477 15 17.2 15.4477 17.2 16C17.2 16.5523 17.6477 17 18.2 17C18.7523 17 19.2 16.5523 19.2 16C19.2 15.4477 18.7523 15 18.2 15ZM18.2 20C17.7195 20 17.2097 20.3089 16.8605 20.7365C17.2476 20.9024 17.8157 21 18.2 21C18.5842 21 19.1523 20.9024 19.5394 20.7365C19.1903 20.3089 18.6804 20 18.2 20Z" fill="black"/>
</svg>
