<svg width="24" height="24" viewBox="0 0 24 24" fill="none" xmlns="http://www.w3.org/2000/svg">
<path d="M12.2847 7.2H18.0014C19.6582 7.2 21 8.54314 21 10.2V15.6432C20.3274 15.51 19.618 15.6086 19 15.9391C17.8649 15.3321 16.4217 15.5072 15.4645 16.4645C14.5072 17.4217 14.3321 18.8649 14.9391 20H6C4.34315 20 3 18.6569 3 17V6.56692C3 5.14925 4.14925 4 5.56692 4H8.11436C8.83286 4 9.93622 5.17792 10.7625 6.05999C11.0614 6.37912 11.324 6.65952 11.5191 6.8314C11.6586 6.95435 12.0987 7.2 12.2847 7.2Z" fill="black"/>
<path d="M18.2929 17.8786C17.9024 17.4881 17.2692 17.4881 16.8787 17.8786C16.4882 18.2691 16.4882 18.9023 16.8787 19.2928L17.5858 19.9999L16.8787 20.707C16.4882 21.0975 16.4882 21.7307 16.8787 22.1212C17.2692 22.5118 17.9024 22.5118 18.2929 22.1212L19 21.4141L19.7071 22.1212C20.0977 22.5118 20.7308 22.5118 21.1213 22.1212C21.5119 21.7307 21.5119 21.0975 21.1213 20.707L20.4142 19.9999L21.1213 19.2928C21.5119 18.9023 21.5119 18.2691 21.1213 17.8786C20.7308 17.4881 20.0977 17.4881 19.7071 17.8786L19 18.5857L18.2929 17.8786Z" fill="black"/>
</svg>
