<svg width="24" height="24" viewBox="0 0 24 24" fill="none" xmlns="http://www.w3.org/2000/svg">
<path d="M12.2847 7.2H18.0014C19.6582 7.2 21 8.54314 21 10.2V14.8786C20.4598 13.7666 19.3194 13 18 13C16.1591 13 14.6667 14.4924 14.6667 16.3333V17.4C13.2162 17.4 12.0362 18.558 12.0008 20H6C4.34315 20 3 18.6569 3 17V6.56692C3 5.14925 4.14925 4 5.56692 4H8.11436C8.83286 4 9.93622 5.17792 10.7625 6.05999C11.0614 6.37912 11.324 6.65952 11.5191 6.8314C11.6586 6.95435 12.0987 7.2 12.2847 7.2Z" fill="black"/>
<path fill-rule="evenodd" clip-rule="evenodd" d="M15 19.3222V21.6667C15 22.219 15.4477 22.6667 16 22.6667H21C21.5523 22.6667 22 22.219 22 21.6667V19.3222C22 18.4631 21.3036 17.7667 20.4444 17.7667V16.9444C20.4444 15.8706 19.5739 15 18.5 15C17.4261 15 16.5556 15.8706 16.5556 16.9444V17.7667C15.6964 17.7667 15 18.4631 15 19.3222ZM19 16.75C19 16.4739 18.7761 16.25 18.5 16.25C18.2239 16.25 18 16.4739 18 16.75V17.65H19V16.75Z" fill="black"/>
</svg>
