<svg width="24" height="24" viewBox="0 0 24 24" fill="none" xmlns="http://www.w3.org/2000/svg">
<path d="M12.2847 7.2H18.0014C19.6582 7.2 21 8.54314 21 10.2V15.2084L20.4931 14.7578C19.3564 13.7474 17.6436 13.7474 16.5069 14.7578L15.0069 16.0911C13.873 17.099 13.6838 18.7739 14.5051 20H6C4.34315 20 3 18.6569 3 17V6.56692C3 5.14925 4.14925 4 5.56692 4H8.11436C8.83286 4 9.93622 5.17792 10.7625 6.05999C11.0614 6.37912 11.324 6.65952 11.5191 6.8314C11.6586 6.95435 12.0987 7.2 12.2847 7.2Z" fill="black"/>
<path d="M19.1644 16.2526C18.7855 15.9158 18.2145 15.9158 17.8356 16.2526L16.3356 17.5859C15.9229 17.9528 15.8857 18.5849 16.2526 18.9977C16.5736 19.3588 17.0975 19.4325 17.5 19.1996V22C17.5 22.5523 17.9477 23 18.5 23C19.0523 23 19.5 22.5523 19.5 22V19.1996C19.9025 19.4325 20.4264 19.3588 20.7474 18.9977C21.1143 18.5849 21.0771 17.9528 20.6644 17.5859L19.1644 16.2526Z" fill="black"/>
</svg>
