<svg width="24" height="24" viewBox="0 0 24 24" fill="none" xmlns="http://www.w3.org/2000/svg">
<path d="M12.2847 7.2H18.0014C19.6582 7.2 21 8.54314 21 10.2V15.958C20.4161 15.3647 19.6232 15 18.75 15C16.9551 15 15.5 16.5407 15.5 18.4412C15.5 18.601 15.5103 18.7583 15.5302 18.9124C15.036 19.1328 14.6227 19.5167 14.3508 20H6C4.34315 20 3 18.6569 3 17V6.56692C3 5.14925 4.14925 4 5.56692 4H8.11436C8.83286 4 9.93622 5.17792 10.7625 6.05999C11.0614 6.37912 11.324 6.65952 11.5191 6.8314C11.6586 6.95435 12.0987 7.2 12.2847 7.2Z" fill="black"/>
<path d="M17.5 22C16.6716 22 16 21.3416 16 20.5294C16 19.9195 16.3787 19.3963 16.9181 19.1736C16.9062 19.088 16.9 19.0006 16.9 18.9118C16.9 17.8559 17.773 17 18.85 17C19.8044 17 20.5986 17.6722 20.767 18.5599C21.4833 18.7928 22 19.4549 22 20.2353C22 21.2099 21.1941 22 20.2 22H17.5Z" fill="black"/>
</svg>
