<svg width="24" height="24" viewBox="0 0 24 24" fill="none" xmlns="http://www.w3.org/2000/svg">
<path d="M12.2847 7.2H18.0014C19.6582 7.2 21 8.54314 21 10.2V14.9184L19.1755 14.1388C18.7422 13.9537 18.2578 13.9537 17.8245 14.1388L15.8324 14.99L15.019 15.3748C14.4081 15.6638 13.9983 16.2859 14 16.9924C14.0019 17.8182 14.0457 18.9646 14.2294 20H6C4.34315 20 3 18.6569 3 17V6.56692C3 5.14925 4.14925 4 5.56692 4H8.11436C8.83286 4 9.93622 5.17792 10.7625 6.05999C11.0614 6.37912 11.324 6.65952 11.5191 6.8314C11.6586 6.95435 12.0987 7.2 12.2847 7.2Z" fill="black"/>
<path d="M20.4339 16.8026L19.982 16.6L18.8753 16.1519C18.6346 16.0545 18.3654 16.0545 18.1247 16.1519L17.018 16.6L16.5661 16.8026C16.2268 16.9547 15.9991 17.2822 16 17.6541C16.0016 18.279 16.0511 19.2524 16.3106 19.9C16.6409 20.7247 17.519 21.3909 18.0574 21.7381C18.3291 21.9133 18.6709 21.9133 18.9426 21.7381C19.481 21.3909 20.3591 20.7247 20.6894 19.9C20.9489 19.2524 20.9984 18.279 21 17.6541C21.0009 17.2822 20.7732 16.9547 20.4339 16.8026Z" fill="black"/>
</svg>
