<svg width="24" height="24" viewBox="0 0 24 24" fill="none" xmlns="http://www.w3.org/2000/svg">
<path d="M12.2847 7.2H18.0014C19.6582 7.2 21 8.54314 21 10.2V15.3411C20.4625 14.5328 19.5435 14 18.5 14C16.8431 14 15.5 15.3431 15.5 17V18.0677C15.2286 18.2243 14.9774 18.4265 14.7578 18.6736C14.4096 19.0652 14.1828 19.5227 14.0744 20H6C4.34315 20 3 18.6569 3 17V6.56692C3 5.14925 4.14925 4 5.56692 4H8.11436C8.83286 4 9.93622 5.17792 10.7625 6.05999C11.0614 6.37912 11.324 6.65952 11.5191 6.8314C11.6586 6.95435 12.0987 7.2 12.2847 7.2Z" fill="black"/>
<path d="M20.6644 21.4141L19.1644 22.7474C18.7855 23.0842 18.2145 23.0842 17.8356 22.7474L16.3356 21.4141C15.9229 21.0472 15.8857 20.4151 16.2526 20.0023C16.5736 19.6412 17.0975 19.5675 17.5 19.8004V17C17.5 16.4477 17.9477 16 18.5 16C19.0523 16 19.5 16.4477 19.5 17V19.8004C19.9025 19.5675 20.4264 19.6412 20.7474 20.0023C21.1143 20.4151 21.0771 21.0472 20.6644 21.4141Z" fill="black"/>
</svg>
