<svg width="24" height="24" viewBox="0 0 24 24" fill="none" xmlns="http://www.w3.org/2000/svg">
<path d="M4.5 4.5C4.5 5.53284 5.12633 6.41939 6.01989 6.80057C6.00685 6.86501 6 6.93171 6 7C6 8.70985 6.56663 10.4288 7.58565 11.7389C8.42274 12.8152 9.58856 13.6386 11 13.9068V16.208C10.117 16.5938 9.5 17.4748 9.5 18.5C9.5 19.8807 10.6193 21 12 21C13.3807 21 14.5 19.8807 14.5 18.5C14.5 17.4748 13.883 16.5938 13 16.208V13.9068C14.4114 13.6386 15.5773 12.8152 16.4144 11.7389C17.4334 10.4288 18 8.70985 18 7C18 6.93171 17.9931 6.86501 17.9801 6.80057C18.8737 6.4194 19.5 5.53284 19.5 4.5C19.5 3.11929 18.3807 2 17 2C15.6193 2 14.5 3.11929 14.5 4.5C14.5 5.53284 15.1263 6.4194 16.0199 6.80057C16.0069 6.86501 16 6.93171 16 7C16 8.29015 15.5666 9.57123 14.8356 10.5111C14.1131 11.4401 13.1358 12 12 12C10.8642 12 9.88691 11.4401 9.16435 10.5111C8.43337 9.57123 8 8.29015 8 7C8 6.93171 7.99315 6.86501 7.98011 6.80057C8.87367 6.41939 9.5 5.53284 9.5 4.5C9.5 3.11929 8.38071 2 7 2C5.61929 2 4.5 3.11929 4.5 4.5Z" fill="black"/>
</svg>
