<svg width="24" height="24" viewBox="0 0 24 24" fill="none" xmlns="http://www.w3.org/2000/svg">
<path fill-rule="evenodd" clip-rule="evenodd" d="M16.0001 2.99997C16 2.44769 15.5523 1.99999 15 2C14.4477 2.00001 14 2.44774 14.0001 3.00003C14.0001 3.17334 13.9399 3.45556 13.7885 3.66571C13.674 3.82487 13.4742 4 13.0001 4C12.4703 4 11.9656 4.10956 11.5512 4.39767C11.1185 4.69848 10.8897 5.12054 10.7985 5.53514C10.6955 6.00321 10.7612 6.47367 10.8756 6.86148C6.96829 6.46344 3.38043 9.09842 2.6064 12.9686L2.38332 14.084C2.13674 15.3169 2.35855 16.5974 3.00543 17.6755C4.18207 19.6366 6.52892 20.5632 8.72789 19.9349L10.1004 19.5428C11.342 19.188 12.6582 19.188 13.8998 19.5428L15.2723 19.9349C17.4713 20.5632 19.8181 19.6366 20.9948 17.6755C21.6417 16.5974 21.8635 15.3169 21.6169 14.084L21.3938 12.9686C20.6111 9.05489 16.9509 6.40431 12.9927 6.87607C12.979 6.76644 12.9468 6.65723 12.8945 6.55279C12.844 6.45165 12.7956 6.32292 12.7685 6.19672C12.7522 6.12063 12.7474 6.06314 12.7473 6.02354C12.7952 6.01214 12.8755 6 13.0001 6C14.126 6 14.9263 5.50847 15.4116 4.83429C15.8603 4.21111 16.0001 3.49333 16.0001 2.99997ZM8.00011 10C8.55239 10 9.00011 10.4477 9.00011 11V12H10.0001C10.5524 12 11.0001 12.4477 11.0001 13C11.0001 13.5523 10.5524 14 10.0001 14H9.00011V15C9.00011 15.5523 8.55239 16 8.00011 16C7.44782 16 7.00011 15.5523 7.00011 15V14H6.00011C5.44782 14 5.00011 13.5523 5.00011 13C5.00011 12.4477 5.44782 12 6.00011 12H7.00011V11C7.00011 10.4477 7.44782 10 8.00011 10ZM16.0001 10C16.5524 10 17.0001 10.4477 17.0001 11C17.0001 11.5523 16.5524 12 16.0001 12C15.4478 12 15.0001 11.5523 15.0001 11C15.0001 10.4477 15.4478 10 16.0001 10ZM17.0001 15C17.0001 14.4477 16.5524 14 16.0001 14C15.4478 14 15.0001 14.4477 15.0001 15C15.0001 15.5523 15.4478 16 16.0001 16C16.5524 16 17.0001 15.5523 17.0001 15ZM18.0001 12C18.5524 12 19.0001 12.4477 19.0001 13C19.0001 13.5523 18.5524 14 18.0001 14C17.4478 14 17.0001 13.5523 17.0001 13C17.0001 12.4477 17.4478 12 18.0001 12ZM15.0001 13C15.0001 12.4477 14.5524 12 14.0001 12C13.4478 12 13.0001 12.4477 13.0001 13C13.0001 13.5523 13.4478 14 14.0001 14C14.5524 14 15.0001 13.5523 15.0001 13Z" fill="black"/>
</svg>
