<svg width="24" height="24" viewBox="0 0 24 24" fill="none" xmlns="http://www.w3.org/2000/svg">
<path d="M11.0009 13.9999C11.0009 12.343 12.344 10.9999 14.0009 10.9999C15.6577 10.9999 17.0009 12.343 17.0009 13.9999C17.0009 15.6567 15.6577 16.9999 14.0009 16.9999C12.344 16.9999 11.0009 15.6567 11.0009 13.9999Z" fill="black"/>
<path fill-rule="evenodd" clip-rule="evenodd" d="M15.5028 6.58553C14.6654 5.80468 13.3363 5.80468 12.4989 6.58553C12.02 7.03205 11.3541 7.24058 10.6944 7.15064C9.54074 6.99336 8.46553 7.7463 8.26422 8.85245C8.1491 9.485 7.73756 10.0309 7.14898 10.3319C6.11972 10.8583 5.70903 12.0766 6.22073 13.0855C6.51334 13.6625 6.51334 14.3373 6.22073 14.9143C5.70903 15.9232 6.11972 17.1415 7.14898 17.6679C7.73756 17.9688 8.1491 18.5148 8.26422 19.1473C8.46553 20.2535 9.54074 21.0064 10.6944 20.8491C11.3541 20.7592 12.02 20.9677 12.4989 21.4143C13.3363 22.1951 14.6654 22.1951 15.5028 21.4143C15.9817 20.9677 16.6476 20.7592 17.3073 20.8491C18.461 21.0064 19.5362 20.2535 19.7375 19.1473C19.8526 18.5148 20.2641 17.9688 20.8527 17.6679C21.882 17.1415 22.2927 15.9232 21.781 14.9143C21.4884 14.3373 21.4884 13.6625 21.781 13.0855C22.2927 12.0766 21.882 10.8583 20.8527 10.3319C20.2641 10.0309 19.8526 9.485 19.7375 8.85245C19.5362 7.7463 18.461 6.99336 17.3073 7.15064C16.6476 7.24058 15.9817 7.03205 15.5028 6.58553ZM14.0009 8.99989C11.2394 8.99989 9.00085 11.2385 9.00085 13.9999C9.00085 16.7613 11.2394 18.9999 14.0009 18.9999C16.7623 18.9999 19.0009 16.7613 19.0009 13.9999C19.0009 11.2385 16.7623 8.99989 14.0009 8.99989Z" fill="black"/>
<path d="M3.61272 9.64963C3.45236 9.16855 3.07485 8.79105 2.59377 8.63069C2.10416 8.46748 2.10416 7.77494 2.59377 7.61174C3.07485 7.45138 3.45236 7.07388 3.61272 6.59279C3.77592 6.10318 4.46846 6.10318 4.63166 6.59279C4.79203 7.07388 5.16953 7.45138 5.65061 7.61174C6.14022 7.77494 6.14022 8.46748 5.65061 8.63069C5.16953 8.79105 4.79203 9.16855 4.63166 9.64963C4.46846 10.1392 3.77592 10.1392 3.61272 9.64963Z" fill="black"/>
<path d="M7.61272 5.64963C7.45236 5.16855 7.07485 4.79105 6.59377 4.63069C6.10416 4.46748 6.10416 3.77494 6.59377 3.61174C7.07485 3.45138 7.45236 3.07388 7.61272 2.59279C7.77592 2.10318 8.46846 2.10318 8.63166 2.59279C8.79203 3.07388 9.16953 3.45138 9.65061 3.61174C10.1402 3.77494 10.1402 4.46748 9.65061 4.63069C9.16953 4.79105 8.79203 5.16855 8.63166 5.64963C8.46846 6.13925 7.77592 6.13925 7.61272 5.64963Z" fill="black"/>
</svg>
