<svg width="24" height="24" viewBox="0 0 24 24" fill="none" xmlns="http://www.w3.org/2000/svg">
<path d="M7.83632 16.1222C7.93347 16.3399 7.63671 16.5144 7.49368 16.3237L2.99062 10.3196C2.88026 10.1725 3.01031 9.96691 3.19054 10.0036L5.19645 10.4122C5.25971 10.4251 5.31286 10.4678 5.33917 10.5267L7.83632 16.1222Z" fill="black"/>
<path d="M20.8113 10.0036C20.9916 9.96687 21.1216 10.1724 21.0113 10.3196L16.5077 16.3243C16.3647 16.515 16.0679 16.3405 16.1651 16.1228L18.6625 10.5267C18.6888 10.4678 18.7419 10.4251 18.8052 10.4122L20.8113 10.0036Z" fill="black"/>
<path d="M17.4193 3.78017C17.379 3.63641 17.5047 3.50076 17.6511 3.53004L18.9386 3.78753C19.6013 3.92008 20.1523 4.37838 20.4033 5.00591L21.4386 7.59417C21.4849 7.71001 21.4151 7.83953 21.2928 7.86443L18.8947 8.35293C18.792 8.37385 18.6906 8.31191 18.6622 8.21097L17.4193 3.78017Z" fill="black"/>
<path d="M8.84032 3.1357C8.85921 3.06837 8.91429 3.01733 8.98287 3.00361C8.99487 3.00121 9.00709 3 9.01933 3H14.9825C14.9948 3 15.007 3.00121 15.0189 3.0036C15.0874 3.0173 15.1424 3.06826 15.1613 3.1355L16.6105 8.30154C16.6462 8.42909 16.5504 8.55556 16.4179 8.55556H7.58377C7.4513 8.55556 7.35542 8.42909 7.3912 8.30154L8.84032 3.1357Z" fill="black"/>
<path d="M6.35053 3.53008C6.49694 3.5008 6.62265 3.63645 6.58232 3.78021L5.33941 8.21097C5.31109 8.31191 5.20964 8.37385 5.10692 8.35293L2.70901 7.86446C2.58677 7.83956 2.5169 7.71004 2.56324 7.59421L3.59856 5.00591C3.84957 4.37838 4.40054 3.92008 5.06328 3.78753L6.35053 3.53008Z" fill="black"/>
<path d="M12.1835 20.137C12.113 20.295 11.8887 20.295 11.8182 20.137L7.6678 10.8371C7.60877 10.7048 7.70558 10.5556 7.85044 10.5556H16.1512C16.2961 10.5556 16.3929 10.7048 16.3338 10.8371L12.1835 20.137Z" fill="black"/>
</svg>
