<svg width="24" height="24" viewBox="0 0 24 24" fill="none" xmlns="http://www.w3.org/2000/svg">
<path fill-rule="evenodd" clip-rule="evenodd" d="M4 5.00043H6.73078C6.80698 2.93189 9.42732 1.40108 11.3018 3.10514L12.5 4.19443L13.6982 3.10514C15.5727 1.40108 18.193 2.93189 18.2692 5.00043H20C21.1046 5.00043 22 5.89586 22 7.00043V8.88932C22 9.50297 21.5025 10.0004 20.8889 10.0004H3.11111C2.49746 10.0004 2 9.50297 2 8.88932V7.00043C2 5.89586 2.89543 5.00043 4 5.00043ZM10.4134 5.00043H8.75741C8.84147 4.49889 9.48734 4.15857 9.95644 4.58502L10.4134 5.00043ZM16.2426 5.00043C16.1585 4.49889 15.5127 4.15857 15.0436 4.58502L14.5866 5.00043H16.2426Z" fill="black"/>
<path d="M9.5 13.688V12.0004H3.11108V19.0004C3.11108 20.6573 4.45423 22.0004 6.11108 22.0004H17.8889C19.5457 22.0004 20.8889 20.6573 20.8889 19.0004V12.0004H14.5V13.688C14.5 14.6199 13.422 15.138 12.6943 14.5559C12.2884 14.2311 11.7116 14.2311 11.3057 14.5559C10.578 15.138 9.5 14.6199 9.5 13.688Z" fill="black"/>
</svg>
