<svg width="24" height="24" viewBox="0 0 24 24" fill="none" xmlns="http://www.w3.org/2000/svg">
<path d="M5.53259 4.41173C5.35127 4.42669 5.1767 4.44142 5.01009 4.45573C5.19147 4.28758 5.37892 4.12589 5.57207 3.97104C5.55925 4.11042 5.54604 4.2575 5.53259 4.41173Z" fill="black"/>
<path d="M7.14275 3.31276C7.15866 3.15645 7.1729 3.02143 7.18497 2.90967C8.41342 2.25759 9.78963 1.84741 11.2503 1.74219V4.08512C9.91395 4.11071 8.40093 4.19777 7.04883 4.29466C7.08328 3.91147 7.11546 3.58086 7.14275 3.31276Z" fill="black"/>
<path d="M12.7503 4.08512V1.74219C14.211 1.84741 15.5873 2.25759 16.8157 2.90967C16.8278 3.02143 16.842 3.15645 16.8579 3.31276C16.8852 3.58086 16.9174 3.91147 16.9519 4.29466C15.5998 4.19777 14.0867 4.11071 12.7503 4.08512Z" fill="black"/>
<path d="M18.4681 4.41173C18.4546 4.2575 18.4414 4.11042 18.4286 3.97104C18.6218 4.12589 18.8092 4.28758 18.9906 4.45573C18.824 4.44142 18.6494 4.42669 18.4681 4.41173Z" fill="black"/>
<path d="M19.8662 6.03988C20.0892 6.06055 20.2764 6.07845 20.4205 6.09245C21.4609 7.57238 22.1208 9.33838 22.2585 11.2503H18.8156C18.7947 9.29576 18.6963 7.435 18.5883 5.92694C19.0826 5.96852 19.5179 6.00758 19.8662 6.03988Z" fill="black"/>
<path d="M18.8156 12.7503H22.2585C22.1208 14.6623 21.4609 16.4283 20.4205 17.9082C20.2764 17.9222 20.0892 17.9401 19.8662 17.9608C19.5179 17.9931 19.0826 18.0321 18.5883 18.0737C18.6963 16.5657 18.7947 14.7049 18.8156 12.7503Z" fill="black"/>
<path d="M18.4681 19.5889C18.6494 19.574 18.824 19.5592 18.9906 19.5449C18.8092 19.7131 18.6218 19.8748 18.4286 20.0296C18.4414 19.8902 18.4546 19.7432 18.4681 19.5889Z" fill="black"/>
<path d="M16.8579 20.6879C16.842 20.8442 16.8278 20.9792 16.8157 21.091C15.5873 21.7431 14.211 22.1532 12.7503 22.2585V19.9155C14.0867 19.8899 15.5998 19.8029 16.9519 19.706C16.9174 20.0892 16.8852 20.4198 16.8579 20.6879Z" fill="black"/>
<path d="M11.2503 19.9155V22.2585C9.78963 22.1532 8.41342 21.7431 7.18497 21.091C7.1729 20.9792 7.15866 20.8442 7.14275 20.6879C7.11546 20.4198 7.08328 20.0892 7.04883 19.706C8.40093 19.8029 9.91395 19.8899 11.2503 19.9155Z" fill="black"/>
<path d="M5.53259 19.5889C5.54604 19.7432 5.55925 19.8902 5.57207 20.0296C5.37892 19.8748 5.19148 19.7131 5.01009 19.5449C5.1767 19.5592 5.35127 19.574 5.53259 19.5889Z" fill="black"/>
<path d="M4.13444 17.9608C3.91149 17.9401 3.72428 17.9222 3.58021 17.9082C2.53976 16.4283 1.87986 14.6623 1.74219 12.7503H5.18511C5.20596 14.7049 5.3044 16.5657 5.41236 18.0737C4.9181 18.0321 4.48276 17.9931 4.13444 17.9608Z" fill="black"/>
<path d="M5.18511 11.2503H1.74219C1.87986 9.33838 2.53977 7.57238 3.58021 6.09245C3.72429 6.07845 3.91149 6.06055 4.13444 6.03988C4.48276 6.00758 4.9181 5.96852 5.41236 5.92694C5.3044 7.435 5.20596 9.29576 5.18511 11.2503Z" fill="black"/>
<path d="M6.68519 11.2503C6.70707 9.24131 6.81254 7.32883 6.92501 5.80759C8.31524 5.70549 9.88424 5.61239 11.2503 5.58539V11.2503H6.68519Z" fill="black"/>
<path d="M12.7503 11.2503V5.58539C14.1164 5.61239 15.6854 5.70549 17.0757 5.80759C17.1881 7.32883 17.2936 9.24131 17.3155 11.2503H12.7503Z" fill="black"/>
<path d="M12.7503 12.7503H17.3155C17.2936 14.7593 17.1881 16.6718 17.0757 18.1931C15.6854 18.2952 14.1164 18.3883 12.7503 18.4153V12.7503Z" fill="black"/>
<path d="M11.2503 12.7503V18.4153C9.88424 18.3883 8.31524 18.2952 6.92501 18.1931C6.81254 16.6718 6.70707 14.7593 6.68519 12.7503H11.2503Z" fill="black"/>
</svg>
