<svg width="24" height="24" viewBox="0 0 24 24" fill="none" xmlns="http://www.w3.org/2000/svg">
<path d="M4.65243 4.859C2.85857 6.70442 1.75391 9.22331 1.75391 12.0002C1.75391 12.1448 1.7569 12.2886 1.76283 12.4317L3.6723 11.4769L4.65243 8.04647V4.859Z" fill="black"/>
<path d="M14.842 8.48457C14.9612 8.46372 15.0781 8.53115 15.1198 8.64468L16.0877 11.2814C16.1126 11.3493 16.1069 11.4247 16.0721 11.4881L11.8902 19.0913C11.8522 19.1605 11.8098 19.1895 11.7738 19.2044C11.7318 19.2218 11.6765 19.2281 11.6171 19.2149C11.5577 19.2018 11.5102 19.1727 11.4795 19.1392C11.4532 19.1105 11.427 19.0662 11.4217 18.9875L11.1373 14.7213C11.096 14.1016 10.7293 13.5503 10.1738 13.2725L7.52872 11.9499C7.3761 11.8736 7.34309 11.6702 7.46375 11.5496L9.55812 9.45519C9.59448 9.41883 9.64116 9.39457 9.69181 9.38571L14.842 8.48457Z" fill="black"/>
<path fill-rule="evenodd" clip-rule="evenodd" d="M6.15243 3.58542V8.25655L4.93331 12.5235L1.95178 14.0143C2.88749 18.7087 7.0307 22.2465 12.0002 22.2465C14.192 22.2465 16.2231 21.5583 17.8891 20.3862L18.4315 15.5046L22.242 11.694C22.0801 6.17679 17.5567 1.75391 12.0002 1.75391C9.82642 1.75391 7.81072 2.43084 6.15243 3.58542ZM16.5279 8.12779C16.2362 7.33306 15.4174 6.8611 14.5835 7.00702L9.43328 7.90815C9.07875 7.97019 8.75197 8.14003 8.49746 8.39453L6.40309 10.4889C5.55847 11.3335 5.78953 12.7574 6.8579 13.2916L9.50302 14.6141C9.58238 14.6538 9.63476 14.7326 9.64066 14.8211L9.92507 19.0873C10.0414 20.8317 12.362 21.3461 13.2046 19.8142L17.3864 12.2109C17.6304 11.7673 17.6703 11.2398 17.4958 10.7645L16.5279 8.12779Z" fill="black"/>
<path d="M22.05 14.0074L19.8642 16.1932L19.5619 18.9147C20.7994 17.562 21.6789 15.8762 22.05 14.0074Z" fill="black"/>
</svg>
