<svg width="24" height="24" viewBox="0 0 24 24" fill="none" xmlns="http://www.w3.org/2000/svg">
<path d="M12.5079 2.30118C12.1941 2.11575 11.8042 2.11575 11.4904 2.30118L2.45611 7.63965C1.80109 8.02671 1.80109 8.97443 2.45612 9.3615L11.4904 14.7C11.8042 14.8854 12.1941 14.8854 12.5079 14.7L15.4992 12.9323V12.0004L11.8992 9.30041C11.4574 8.96904 11.3679 8.34224 11.6992 7.90041C12.0306 7.45858 12.6574 7.36904 13.0992 7.70041L17.0992 10.7004C17.351 10.8893 17.4992 11.1857 17.4992 11.5004V11.7505L21.5422 9.3615C22.1972 8.97444 22.1972 8.02671 21.5422 7.63964L12.5079 2.30118Z" fill="black"/>
<path d="M12.2564 16.6638L15.4991 14.7182V15.8005C15.4991 16.3528 15.9469 16.8005 16.4991 16.8005C17.0514 16.8005 17.4991 16.3528 17.4991 15.8005V13.5182L18.2419 13.0725C18.5752 12.8726 18.9991 13.1126 18.9991 13.5013V19.584C18.9991 19.7324 18.9348 19.8717 18.816 19.9606C18.1082 20.4906 15.4192 22.3182 11.9991 22.3182C8.57911 22.3182 5.89012 20.4906 5.18225 19.9606C5.06347 19.8717 4.99915 19.7324 4.99915 19.584V13.5013C4.99915 13.1126 5.42313 12.8726 5.75639 13.0725L11.7419 16.6638C11.9002 16.7588 12.0981 16.7588 12.2564 16.6638Z" fill="black"/>
</svg>
