<svg width="24" height="24" viewBox="0 0 24 24" fill="none" xmlns="http://www.w3.org/2000/svg">
<path d="M13.5 15V20C13.5 20.8284 14.1716 21.5 15 21.5H20C20.8284 21.5 21.5 20.8284 21.5 20V15C21.5 14.1716 20.8284 13.5 20 13.5H15C14.1716 13.5 13.5 14.1716 13.5 15Z" fill="black"/>
<path d="M2.5 15L2.5 20C2.5 20.8284 3.17157 21.5 4 21.5H9C9.82843 21.5 10.5 20.8284 10.5 20V15C10.5 14.1716 9.82843 13.5 9 13.5H4C3.17157 13.5 2.5 14.1716 2.5 15Z" fill="black"/>
<path d="M2.5 4L2.5 9C2.5 9.82843 3.17157 10.5 4 10.5H9C9.82843 10.5 10.5 9.82843 10.5 9V4C10.5 3.17157 9.82843 2.5 9 2.5L4 2.5C3.17157 2.5 2.5 3.17157 2.5 4Z" fill="black"/>
<path d="M13.5 4V9C13.5 9.82843 14.1716 10.5 15 10.5H20C20.8284 10.5 21.5 9.82843 21.5 9V4C21.5 3.17157 20.8284 2.5 20 2.5L15 2.5C14.1716 2.5 13.5 3.17157 13.5 4Z" fill="black"/>
<path d="M13.5 15V20C13.5 20.8284 14.1716 21.5 15 21.5H20C20.8284 21.5 21.5 20.8284 21.5 20V15C21.5 14.1716 20.8284 13.5 20 13.5H15C14.1716 13.5 13.5 14.1716 13.5 15Z" fill="black"/>
<path d="M2.5 15L2.5 20C2.5 20.8284 3.17157 21.5 4 21.5H9C9.82843 21.5 10.5 20.8284 10.5 20V15C10.5 14.1716 9.82843 13.5 9 13.5H4C3.17157 13.5 2.5 14.1716 2.5 15Z" fill="black"/>
<path d="M2.5 4L2.5 9C2.5 9.82843 3.17157 10.5 4 10.5H9C9.82843 10.5 10.5 9.82843 10.5 9V4C10.5 3.17157 9.82843 2.5 9 2.5L4 2.5C3.17157 2.5 2.5 3.17157 2.5 4Z" fill="black"/>
<path d="M13.5 4V9C13.5 9.82843 14.1716 10.5 15 10.5H20C20.8284 10.5 21.5 9.82843 21.5 9V4C21.5 3.17157 20.8284 2.5 20 2.5L15 2.5C14.1716 2.5 13.5 3.17157 13.5 4Z" fill="black"/>
</svg>
