<svg width="24" height="24" viewBox="0 0 24 24" fill="none" xmlns="http://www.w3.org/2000/svg">
<path d="M12 3C6.47715 3 2 7.47715 2 13V18C2 18.5523 2.44772 19 3 19C3.03722 19 3.07396 18.998 3.11012 18.994C3.34236 19.5831 3.91661 20 4.58824 20C5.46539 20 6.17647 19.2889 6.17647 18.4118V16.2507C6.17647 14.9559 4.93695 14.4146 4 14.7484V13C4 8.58172 7.58172 5 12 5C16.4183 5 20 8.58172 20 13V14.7379C19.0636 14.4038 17.8235 14.9429 17.8235 16.2389V18.4118C17.8235 19.2889 18.5346 20 19.4118 20C20.0834 20 20.6577 19.5831 20.8899 18.994C20.9261 18.998 20.9628 19 21 19C21.5523 19 22 18.5523 22 18V13C22 7.47715 17.5228 3 12 3Z" fill="black"/>
</svg>
