<svg width="24" height="24" viewBox="0 0 24 24" fill="none" xmlns="http://www.w3.org/2000/svg">
<path fill-rule="evenodd" clip-rule="evenodd" d="M9.84007 3.6429C8.45985 3.12474 7.23909 2.66644 5.56574 3.33021C2.88618 4.39312 1.61714 7.32194 2.10114 10.2018C2.84326 14.6176 8.03647 18.4815 10.5896 20.1391C11.4526 20.6995 12.5474 20.6995 13.4104 20.1391C15.9635 18.4815 21.1567 14.6176 21.8989 10.2018C22.3829 7.32194 21.1138 4.39313 18.4343 3.33021C16.7609 2.66645 15.5402 3.12474 14.16 3.6429C13.6633 3.82934 13.1461 4.02353 12.5796 4.17599C12.2003 4.2781 11.7997 4.2781 11.4204 4.17599C10.8539 4.02353 10.3367 3.82934 9.84007 3.6429ZM11.3575 8.4855C11.1697 8.17254 10.8263 7.98673 10.4616 8.00074C10.0969 8.01474 9.7688 8.22634 9.60557 8.55279L7.88197 12H7.5C6.94772 12 6.5 12.4477 6.5 13C6.5 13.5523 6.94772 14 7.5 14H8.5C8.87877 14 9.22504 13.786 9.39443 13.4472L10.5798 11.0766L12.6425 14.5145C12.8189 14.8084 13.1335 14.9916 13.4762 14.9997C13.8189 15.0079 14.1419 14.8399 14.3321 14.5547L16.0352 12H16.5C17.0523 12 17.5 11.5523 17.5 11C17.5 10.4477 17.0523 10 16.5 10H15.5C15.1656 10 14.8534 10.1671 14.6679 10.4453L13.5445 12.1305L11.3575 8.4855Z" fill="black"/>
</svg>
