<svg width="24" height="24" viewBox="0 0 24 24" fill="none" xmlns="http://www.w3.org/2000/svg">
<path d="M5.79934 3C5.79934 2.44772 5.35163 2 4.79934 2C4.24706 2 3.79934 2.44772 3.79934 3V6.6C3.79934 7.15228 4.24706 7.6 4.79934 7.6H8.4C8.95228 7.6 9.4 7.15228 9.4 6.6C9.4 6.04772 8.95228 5.6 8.4 5.6H7.19897C8.53664 4.59477 10.1988 4 12 4C16.4183 4 20 7.58172 20 12C20 16.4183 16.4183 20 12 20C7.58172 20 4 16.4183 4 12C4 11.4477 3.55228 11 3 11C2.44772 11 2 11.4477 2 12C2 17.5228 6.47715 22 12 22C17.5228 22 22 17.5228 22 12C22 6.47715 17.5228 2 12 2C9.65754 2 7.50317 2.80596 5.79934 4.15416V3Z" fill="black"/>
<path d="M12 8.5C12 7.94772 11.5523 7.5 11 7.5C10.4477 7.5 10 7.94772 10 8.5V13.5C10 14.0523 10.4477 14.5 11 14.5H14C14.5523 14.5 15 14.0523 15 13.5C15 12.9477 14.5523 12.5 14 12.5H12V8.5Z" fill="black"/>
</svg>
