<svg width="24" height="24" viewBox="0 0 24 24" fill="none" xmlns="http://www.w3.org/2000/svg">
<path d="M10.2803 3.20441L3.40269 8.01872C2.53372 8.62699 2.05056 9.64892 2.13191 10.7065L2.83693 19.8717C2.92557 21.0241 3.96971 21.8617 5.11388 21.6983L8.28349 21.2454C9.26879 21.1047 10.0006 20.2609 10.0006 19.2656V18.0001C10.0006 16.8956 10.8961 16.0001 12.0006 16.0001C13.1052 16.0001 14.0006 16.8956 14.0006 18.0001V19.2656C14.0006 20.2609 14.7325 21.1047 15.7178 21.2454L18.8874 21.6983C20.0316 21.8617 21.0757 21.0241 21.1644 19.8717L21.8694 10.7065C21.9507 9.64892 21.4676 8.62699 20.5986 8.01872L13.721 3.20441C12.6881 2.48134 11.3132 2.48134 10.2803 3.20441Z" fill="black"/>
</svg>
