<svg width="24" height="24" viewBox="0 0 24 24" fill="none" xmlns="http://www.w3.org/2000/svg">
<path d="M22.6961 4.20711C23.0866 3.81658 23.0866 3.18342 22.6961 2.79289C22.3056 2.40237 21.6724 2.40237 21.2819 2.79289L19.3431 4.73163L19.0613 4.44974C18.6707 4.05922 18.0376 4.05922 17.647 4.44974C17.2565 4.84027 17.2565 5.47343 17.647 5.86395L18.636 6.85295C19.0266 7.24347 19.6597 7.24347 20.0503 6.85295L22.6961 4.20711Z" fill="black"/>
<path d="M3 7.00002C3 5.89545 3.89543 5.00002 5 5.00002H16C16.5523 5.00002 17 4.5523 17 4.00002C17 3.44773 16.5523 3.00002 16 3.00002H5C2.79086 3.00002 1 4.79088 1 7.00002V18C1 20.2092 2.79086 22 5 22H19C21.2091 22 23 20.2092 23 18V10C23 9.44773 22.5523 9.00002 22 9.00002C21.4477 9.00002 21 9.44773 21 10V16.25L16.563 10.7037C15.2946 9.11823 12.8505 9.2243 11.7242 10.9137L10 13.5L9.33852 12.9836C8.42035 12.4335 7.23186 12.7038 6.6419 13.5969L3.83125 17.8515C3.61519 18.1786 3.5 18.5619 3.5 18.9539V19C3.5 19.1223 3.51098 19.2421 3.53201 19.3583C3.20181 19.0017 3 18.5244 3 18V7.00002Z" fill="black"/>
<path d="M5.18301 8.79829C5.66409 8.95865 6.04159 9.33615 6.20195 9.81724C6.36516 10.3068 7.0577 10.3068 7.2209 9.81724C7.38126 9.33615 7.75876 8.95865 8.23985 8.79829C8.72946 8.63509 8.72946 7.94255 8.23985 7.77934C7.75876 7.61898 7.38126 7.24148 7.2209 6.7604C7.0577 6.27078 6.36516 6.27079 6.20195 6.7604C6.04159 7.24148 5.66409 7.61898 5.18301 7.77934C4.69339 7.94255 4.69339 8.63509 5.18301 8.79829Z" fill="black"/>
</svg>
