<svg width="24" height="24" viewBox="0 0 24 24" fill="none" xmlns="http://www.w3.org/2000/svg">
<path d="M3 7C3 5.89543 3.89543 5 5 5H16C16.5523 5 17 4.55228 17 4C17 3.44772 16.5523 3 16 3H5C2.79086 3 1 4.79086 1 7V18C1 20.2091 2.79086 22 5 22H19C21.2091 22 23 20.2091 23 18V10C23 9.44772 22.5523 9 22 9C21.4477 9 21 9.44772 21 10V16.25L16.563 10.7037C15.2946 9.11822 12.8505 9.22428 11.7242 10.9137L10 13.5L9.33852 12.9836C8.42035 12.4335 7.23186 12.7038 6.6419 13.5969L3.83125 17.8515C3.61519 18.1786 3.5 18.5619 3.5 18.9539V19C3.5 19.1223 3.51098 19.2421 3.53201 19.3583C3.20181 19.0016 3 18.5244 3 18V7Z" fill="black"/>
<path d="M5.18301 8.79827C5.66409 8.95863 6.04159 9.33614 6.20195 9.81722C6.36516 10.3068 7.0577 10.3068 7.2209 9.81722C7.38126 9.33614 7.75876 8.95863 8.23985 8.79827C8.72946 8.63507 8.72946 7.94253 8.23985 7.77933C7.75876 7.61897 7.38126 7.24146 7.2209 6.76038C7.0577 6.27077 6.36516 6.27077 6.20195 6.76038C6.04159 7.24146 5.66409 7.61897 5.18301 7.77933C4.69339 7.94253 4.69339 8.63507 5.18301 8.79827Z" fill="black"/>
<path d="M21 4C21 3.44772 20.5523 3 20 3C19.4477 3 19 3.44772 19 4V5H18C17.4477 5 17 5.44772 17 6C17 6.55228 17.4477 7 18 7H19V8C19 8.55228 19.4477 9 20 9C20.5523 9 21 8.55228 21 8V7H22C22.5523 7 23 6.55228 23 6C23 5.44772 22.5523 5 22 5H21V4Z" fill="black"/>
</svg>
