<svg width="24" height="24" viewBox="0 0 24 24" fill="none" xmlns="http://www.w3.org/2000/svg">
<path d="M5.18288 8.79827C5.66396 8.95863 6.04147 9.33614 6.20183 9.81722C6.36503 10.3068 7.05757 10.3068 7.22078 9.81722C7.38114 9.33614 7.75864 8.95863 8.23972 8.79827C8.72933 8.63507 8.72933 7.94253 8.23972 7.77933C7.75864 7.61897 7.38114 7.24146 7.22078 6.76038C7.05757 6.27077 6.36503 6.27077 6.20183 6.76038C6.04147 7.24146 5.66396 7.61897 5.18288 7.77933C4.69327 7.94253 4.69327 8.63507 5.18288 8.79827Z" fill="black"/>
<path fill-rule="evenodd" clip-rule="evenodd" d="M5 2C2.79086 2 1 3.79086 1 6V18C1 20.2091 2.79086 22 5 22H19C21.2091 22 23 20.2091 23 18V6C23 3.79086 21.2091 2 19 2H5ZM3 6C3 4.89543 3.89543 4 5 4H19C20.1046 4 21 4.89543 21 6V15L16.6267 12.0845C15.7224 11.4816 14.5021 11.7113 13.8788 12.6016L13.1173 13.6895L12.5 13.3032L11.7788 12.8951C10.8817 12.3875 9.74574 12.6448 9.15496 13.4895L6.34327 17.5092C6.11983 17.8287 6 18.2091 6 18.5989C6 19.1534 6.23741 19.6525 6.61614 20H5C3.89543 20 3 19.1046 3 18V6Z" fill="black"/>
</svg>
