<svg width="24" height="24" viewBox="0 0 24 24" fill="none" xmlns="http://www.w3.org/2000/svg">
<path d="M6.18301 8.79827C6.66409 8.95863 7.04159 9.33614 7.20195 9.81722C7.36516 10.3068 8.0577 10.3068 8.2209 9.81722C8.38126 9.33614 8.75876 8.95863 9.23985 8.79827C9.72946 8.63507 9.72946 7.94253 9.23985 7.77933C8.75876 7.61897 8.38126 7.24146 8.2209 6.76038C8.0577 6.27077 7.36516 6.27077 7.20195 6.76038C7.04159 7.24146 6.66409 7.61897 6.18301 7.77933C5.69339 7.94253 5.69339 8.63507 6.18301 8.79827Z" fill="black"/>
<path fill-rule="evenodd" clip-rule="evenodd" d="M1 12C1 5.92487 5.92487 1 12 1C18.0751 1 23 5.92487 23 12C23 18.0751 18.0751 23 12 23C5.92487 23 1 18.0751 1 12ZM12 3C7.02944 3 3 7.02944 3 12C3 14.9396 4.40931 17.55 6.58914 19.1925L9.18595 15.6405C9.75014 14.7248 10.9375 14.4193 11.8736 14.949L12.6387 15.3602L13.2912 12.7167C13.6382 11.3867 15.1922 10.795 16.3359 11.5574L20.7005 14.3111C20.8959 13.5736 21 12.799 21 12C21 7.02944 16.9706 3 12 3Z" fill="black"/>
</svg>
