<svg width="24" height="24" viewBox="0 0 24 24" fill="none" xmlns="http://www.w3.org/2000/svg">
<path fill-rule="evenodd" clip-rule="evenodd" d="M21 12C21 16.9706 16.9706 21 12 21C7.02944 21 3 16.9706 3 12C3 7.02944 7.02944 3 12 3C16.9706 3 21 7.02944 21 12ZM12 6C12.5523 6 13 6.44772 13 7V14C13 14.5523 12.5523 15 12 15C11.4477 15 11 14.5523 11 14L11 7C11 6.44772 11.4477 6 12 6ZM10.75 16.75C10.75 17.4404 11.3096 18 12 18C12.6904 18 13.25 17.4404 13.25 16.75C13.25 16.0596 12.6904 15.5 12 15.5C11.3096 15.5 10.75 16.0596 10.75 16.75Z" fill="black"/>
</svg>
