<svg width="24" height="24" viewBox="0 0 24 24" fill="none" xmlns="http://www.w3.org/2000/svg">
<path fill-rule="evenodd" clip-rule="evenodd" d="M10.494 1.87278C11.4249 1.33277 12.5737 1.33277 13.5046 1.87278L16.7568 3.75933L20.0167 5.63252C20.9498 6.1687 21.5242 7.16363 21.522 8.23982L21.5143 11.9996L21.522 15.7593C21.5242 16.8355 20.9498 17.8304 20.0167 18.3666L16.7568 20.2398L13.5046 22.1263C12.5737 22.6663 11.4249 22.6663 10.494 22.1263L7.24178 20.2398L3.98189 18.3666C3.04878 17.8304 2.47436 16.8355 2.47657 15.7593L2.48428 11.9996L2.47657 8.23982C2.47436 7.16363 3.04878 6.1687 3.98189 5.63252L7.24178 3.75933L10.494 1.87278ZM11.9993 5.99956C12.5516 5.99956 12.9993 6.44727 12.9993 6.99956V13.9996C12.9993 14.5518 12.5516 14.9996 11.9993 14.9996C11.447 14.9996 10.9993 14.5518 10.9993 13.9996V6.99956C10.9993 6.44727 11.447 5.99956 11.9993 5.99956ZM10.7493 16.7496C10.7493 17.4399 11.3089 17.9996 11.9993 17.9996C12.6896 17.9996 13.2493 17.4399 13.2493 16.7496C13.2493 16.0592 12.6896 15.4996 11.9993 15.4996C11.3089 15.4996 10.7493 16.0592 10.7493 16.7496Z" fill="black"/>
</svg>
