<svg width="24" height="24" viewBox="0 0 24 24" fill="none" xmlns="http://www.w3.org/2000/svg">
<path fill-rule="evenodd" clip-rule="evenodd" d="M4.65836 19.166L4.46137 18.1251C4.2569 17.0447 4.82376 15.9247 5.83537 15.4104L5.91977 15.3675C6.46611 15.0898 6.88699 14.6067 7.0849 14.0301C7.31962 13.3462 7.8651 12.8007 8.54897 12.566L9.7833 12.1424C10.2201 11.9924 10.6202 11.742 10.9502 11.412L12.2975 10.0647C12.8131 9.54905 13.0456 8.82058 12.9149 8.12995C12.5287 6.08901 14.0397 4.07614 16.1361 3.83907L16.6108 3.78539C19.1164 3.50203 21.113 5.60894 20.7029 8.10368L20.6309 8.54151C20.3062 10.5166 18.4356 11.9263 16.4815 11.6686C15.8113 11.5802 15.1222 11.8205 14.6276 12.315L7.11235 19.8303C6.52385 20.4188 5.59435 20.4435 5.03626 19.8854C4.84161 19.6907 4.71039 19.4409 4.65836 19.166ZM17.5563 6.94952C17.9468 7.34005 17.9468 7.97321 17.5563 8.36373C17.1657 8.75426 16.5326 8.75426 16.1421 8.36373C15.7515 7.97321 15.7515 7.34005 16.1421 6.94952C16.5326 6.559 17.1657 6.559 17.5563 6.94952Z" fill="black"/>
</svg>
