<svg width="24" height="24" viewBox="0 0 24 24" fill="none" xmlns="http://www.w3.org/2000/svg">
<path fill-rule="evenodd" clip-rule="evenodd" d="M15.9999 4.49997C15.9999 3.94769 15.5522 3.49999 14.9999 3.5C14.4476 3.50001 13.9999 3.94774 13.9999 4.50003C13.9999 4.67334 13.9397 4.95556 13.7884 5.16571C13.6738 5.32487 13.4741 5.5 13 5.5C12.4702 5.5 11.9655 5.60956 11.5511 5.89767C11.1184 6.19848 10.8896 6.62054 10.7983 7.03514C10.6828 7.56049 10.7797 8.08887 10.9194 8.5H6C4.34315 8.5 3 9.84315 3 11.5V16.5C3 18.1569 4.34315 19.5 6 19.5H18C19.6569 19.5 21 18.1569 21 16.5V11.5C21 9.84315 19.6569 8.5 18 8.5H13.0002C13.0003 8.34946 12.9663 8.1966 12.8944 8.05279C12.8439 7.95165 12.7955 7.82292 12.7684 7.69672C12.7521 7.62063 12.7473 7.56314 12.7471 7.52354C12.7951 7.51214 12.8754 7.5 13 7.5C14.1259 7.5 14.9261 7.00847 15.4115 6.33429C15.8602 5.71111 16 4.99333 15.9999 4.49997ZM6 11C5.44772 11 5 11.4477 5 12C5 12.5523 5.44772 13 6 13H8C8.55228 13 9 12.5523 9 12C9 11.4477 8.55228 11 8 11H6ZM10 12C10 11.4477 10.4477 11 11 11H13C13.5523 11 14 11.4477 14 12C14 12.5523 13.5523 13 13 13H11C10.4477 13 10 12.5523 10 12ZM16 11C15.4477 11 15 11.4477 15 12C15 12.5523 15.4477 13 16 13H18C18.5523 13 19 12.5523 19 12C19 11.4477 18.5523 11 18 11H16ZM19 16C19 16.5523 18.5523 17 18 17H17C16.4477 17 16 16.5523 16 16C16 15.4477 16.4477 15 17 15H18C18.5523 15 19 15.4477 19 16ZM7 17C7.55228 17 8 16.5523 8 16C8 15.4477 7.55228 15 7 15H6C5.44772 15 5 15.4477 5 16C5 16.5523 5.44772 17 6 17H7ZM9 16C9 15.4477 9.44772 15 10 15H14.5C15.0523 15 15.5 15.4477 15.5 16C15.5 16.5523 15.0523 17 14.5 17H10C9.44772 17 9 16.5523 9 16Z" fill="black"/>
</svg>
