<svg width="24" height="24" viewBox="0 0 24 24" fill="none" xmlns="http://www.w3.org/2000/svg">
<path d="M4.91053 3.9005L4.11053 11.9005C4.05166 12.4892 4.51394 13 5.10557 13H11.0006V20H8.00058C7.44829 20 7.00058 20.4477 7.00058 21C7.00058 21.5523 7.44829 22 8.00058 22H16.0006C16.5529 22 17.0006 21.5523 17.0006 21C17.0006 20.4477 16.5529 20 16.0006 20H13.0006V13H18.8956C19.4872 13 19.9495 12.4892 19.8906 11.9005L19.0906 3.9005C19.0395 3.3893 18.6093 3 18.0956 3H5.90557C5.39181 3 4.96165 3.38929 4.91053 3.9005Z" fill="black"/>
</svg>
