<svg width="24" height="24" viewBox="0 0 24 24" fill="none" xmlns="http://www.w3.org/2000/svg">
<path d="M2.29202 7.5303L11.8289 4.06233C11.9393 4.02219 12.0603 4.02219 12.1707 4.06233L21.7076 7.5303C22.1464 7.68988 22.1464 8.31051 21.7076 8.47009L12.1707 11.9381C12.0603 11.9782 11.9393 11.9782 11.8289 11.9381L2.29202 8.47009C1.85318 8.31051 1.85318 7.68988 2.29202 7.5303Z" fill="black"/>
<path d="M6.59014 10.9673L2.29202 12.5303C1.85318 12.6898 1.85318 13.3105 2.29202 13.4701L11.8289 16.938C11.9393 16.9782 12.0603 16.9782 12.1707 16.938L21.7076 13.47C22.1464 13.3105 22.1464 12.6898 21.7076 12.5303L17.4094 10.9673L12.204 12.9623C12.0721 13.0128 11.9274 13.0128 11.7955 12.9623L6.59014 10.9673Z" fill="black"/>
<path d="M2.29202 16.5303L5.2514 15.4541L11.7955 17.9622C11.9274 18.0127 12.0721 18.0127 12.204 17.9622L18.7482 15.4541L21.7076 16.5303C22.1464 16.6898 22.1464 17.3105 21.7076 17.47L12.1707 20.938C12.0603 20.9782 11.9393 20.9782 11.8289 20.938L2.29202 17.4701C1.85318 17.3105 1.85318 16.6898 2.29202 16.5303Z" fill="black"/>
</svg>
