<svg width="24" height="24" viewBox="0 0 24 24" fill="none" xmlns="http://www.w3.org/2000/svg">
<path d="M8.23999 7.18031L5.49663 4.43694C9.22701 1.22284 14.7714 1.22284 18.5018 4.43694L15.7585 7.18031C13.5554 5.45761 10.443 5.45761 8.23999 7.18031Z" fill="black"/>
<path d="M16.8191 8.24097L19.5625 5.4976C22.7766 9.22798 22.7766 14.7724 19.5625 18.5028L16.8191 15.7594C18.5418 13.5564 18.5418 10.444 16.8191 8.24097Z" fill="black"/>
<path d="M15.7585 16.8201L18.5018 19.5635C14.7714 22.7776 9.22701 22.7776 5.49663 19.5635L8.23999 16.8201C10.443 18.5428 13.5554 18.5428 15.7585 16.8201Z" fill="black"/>
<path d="M7.17933 15.7594L4.43597 18.5028C1.22186 14.7724 1.22186 9.22798 4.43597 5.4976L7.17933 8.24097C5.45663 10.444 5.45663 13.5564 7.17933 15.7594Z" fill="black"/>
<path d="M8.73811 8.73908C10.5392 6.93802 13.4593 6.93802 15.2603 8.73908C17.0614 10.5401 17.0614 13.4603 15.2603 15.2613C13.4593 17.0624 10.5392 17.0624 8.73811 15.2613C6.93704 13.4603 6.93704 10.5401 8.73811 8.73908Z" fill="black"/>
</svg>
