<svg width="24" height="24" viewBox="0 0 24 24" fill="none" xmlns="http://www.w3.org/2000/svg">
<path d="M11.9999 9.05566C11.9999 9.0917 12.0037 9.12685 12.011 9.16073L6.72883 14.4429C6.39016 14.4156 6.17215 14.0586 6.31399 13.7408L11.0433 3.14358C11.2632 2.65081 11.9999 2.80774 11.9999 3.34735V9.05566Z" fill="black"/>
<path d="M11.9889 14.8397L17.2712 9.55735C17.6098 9.5848 17.8277 9.94165 17.6858 10.2594L12.9565 20.8566C12.7366 21.3494 11.9999 21.1925 11.9999 20.6529V14.9445C11.9999 14.9086 11.9961 14.8735 11.9889 14.8397Z" fill="black"/>
<path d="M20.7071 4.70723C21.0976 4.3167 21.0976 3.68354 20.7071 3.29302C20.3166 2.90249 19.6834 2.90249 19.2929 3.29302L3.29289 19.293C2.90237 19.6835 2.90237 20.3167 3.29289 20.7072C3.68342 21.0978 4.31658 21.0978 4.70711 20.7072L20.7071 4.70723Z" fill="black"/>
</svg>
