<svg width="24" height="24" viewBox="0 0 24 24" fill="none" xmlns="http://www.w3.org/2000/svg">
<path d="M8.38028 8.30425L13.4954 3.87115C14.1046 3.34657 14.9688 3.23779 15.689 3.59502L15.7014 3.60116L15.7188 3.60992C16.6987 4.10512 17.0962 5.29758 16.6094 6.28164L15.8416 7.81721C15.2913 8.91791 15.0161 9.46826 15.199 9.89466C15.2381 9.98575 15.2905 10.0705 15.3545 10.1462C15.6541 10.5005 16.2694 10.5005 17.5 10.5005H17.6305C19.3895 10.5005 20.269 10.5005 20.8399 11.0157C20.8907 11.0615 20.939 11.1098 20.9848 11.1606C21.5 11.7315 21.5 12.611 21.5 14.37V15.6854C21.5 16.5788 21.5 17.0255 21.3213 17.4194C21.1425 17.8133 20.8064 18.1074 20.134 18.6957L18.6311 20.0108C18.0718 20.5002 17.7921 20.7449 17.452 20.8727C17.1119 21.0005 16.7403 21.0005 15.9971 21.0005H12.1472C11.5774 21.0005 11.2925 21.0005 11.0222 20.923C10.752 20.8455 10.5104 20.6945 10.0272 20.3925L8.88 19.6755C7.96095 19.1011 7.50143 18.8139 7.25072 18.3615C7 17.9092 7 17.3673 7 16.2835V18.5005C7 19.3289 6.32843 20.0005 5.5 20.0005H4.5C3.39543 20.0005 2.5 19.1051 2.5 18.0005V10.0005C2.5 8.89592 3.39543 8.00049 4.5 8.00049H5.5C6.32843 8.00049 7 8.67206 7 9.50049V11.327C7 10.4281 7 9.97872 7.1807 9.583C7.3614 9.18728 7.70102 8.89293 8.38028 8.30425Z" fill="black"/>
</svg>
