<svg width="24" height="24" viewBox="0 0 24 24" fill="none" xmlns="http://www.w3.org/2000/svg">
<path d="M19.7786 4.22228C17.826 2.26966 14.6602 2.26966 12.7076 4.22228L9.87913 7.05071C9.48861 7.44123 9.48861 8.07439 9.87913 8.46492C10.2697 8.85544 10.9028 8.85544 11.2933 8.46492L14.1218 5.63649C15.2933 4.46492 17.1928 4.46492 18.3644 5.63649C19.536 6.80806 19.536 8.70756 18.3644 9.87913L15.536 12.7076C15.1455 13.0981 15.1455 13.7312 15.536 14.1218C15.9265 14.5123 16.5597 14.5123 16.9502 14.1218L19.7786 11.2933C21.7312 9.34072 21.7312 6.1749 19.7786 4.22228Z" fill="black"/>
<path d="M14.1218 11.2933C14.5123 10.9028 14.5123 10.2697 14.1218 9.87913C13.7312 9.48861 13.0981 9.48861 12.7076 9.87913L9.87913 12.7076C9.48861 13.0981 9.48861 13.7312 9.87913 14.1218C10.2697 14.5123 10.9028 14.5123 11.2933 14.1218L14.1218 11.2933Z" fill="black"/>
<path d="M8.46492 11.2933C8.85544 10.9028 8.85544 10.2697 8.46492 9.87913C8.07439 9.48861 7.44123 9.48861 7.05071 9.87913L4.22228 12.7076C2.26966 14.6602 2.26966 17.826 4.22228 19.7786C6.1749 21.7312 9.34072 21.7312 11.2933 19.7786L14.1218 16.9502C14.5123 16.5597 14.5123 15.9265 14.1218 15.536C13.7312 15.1455 13.0981 15.1455 12.7076 15.536L9.87913 18.3644C8.70756 19.536 6.80806 19.536 5.63649 18.3644C4.46492 17.1928 4.46492 15.2933 5.63649 14.1218L8.46492 11.2933Z" fill="black"/>
</svg>
