<svg width="24" height="24" viewBox="0 0 24 24" fill="none" xmlns="http://www.w3.org/2000/svg">
<path fill-rule="evenodd" clip-rule="evenodd" d="M8 6.75C8 4.67893 9.67893 3 11.75 3C13.8211 3 15.5 4.67893 15.5 6.75V7.5C15.5 8.05228 15.9477 8.5 16.5 8.5C17.0523 8.5 17.5 8.05228 17.5 7.5V6.75C17.5 3.57436 14.9256 1 11.75 1C8.57436 1 6 3.57436 6 6.75V10C4.34315 10 3 11.3431 3 13V19C3 20.6569 4.34315 22 6 22H18C19.6569 22 21 20.6569 21 19V13C21 11.3431 19.6569 10 18 10H8V6.75ZM12 14C12.5523 14 13 14.4477 13 15V17C13 17.5523 12.5523 18 12 18C11.4477 18 11 17.5523 11 17V15C11 14.4477 11.4477 14 12 14Z" fill="black"/>
</svg>
