<svg width="24" height="24" viewBox="0 0 24 24" fill="none" xmlns="http://www.w3.org/2000/svg">
<path d="M20.8286 2.95944C21.1548 2.84041 21.5 3.08193 21.5 3.42915V15.5703C21.5 15.9175 21.1548 16.1591 20.8286 16.04L13.7308 13.4499V5.54953L20.8286 2.95944Z" fill="black"/>
<path d="M12.7308 5.74036V13.2591L5.80511 12.7176C4.50395 12.6158 3.5 11.5303 3.5 10.2252V8.7743C3.5 7.46918 4.50395 6.38366 5.80511 6.28191L12.7308 5.74036Z" fill="black"/>
<path d="M8.29464 20.1871L7.56613 13.8583L10.5522 14.0918L11.2388 19.8418C11.3441 20.7238 10.6553 21.4997 9.76707 21.4997C9.01408 21.4997 8.38075 20.9351 8.29464 20.1871Z" fill="black"/>
</svg>
