<svg width="24" height="24" viewBox="0 0 24 24" fill="none" xmlns="http://www.w3.org/2000/svg">
<path d="M20.7603 19.2409L21.3425 18.6587C21.7134 18.2877 21.7346 17.6931 21.391 17.2966L12.086 6.56004L10.208 8.43807C10.1666 8.4794 10.1226 8.51636 10.0764 8.54895L19.2975 19.1887C19.6776 19.6272 20.3499 19.6512 20.7603 19.2409Z" fill="black"/>
<path d="M10.7728 5.04481L8.79375 7.02385C8.78673 7.03087 8.77984 7.03797 8.77307 7.04514L7.61068 5.70392C7.26707 5.30745 7.28828 4.71285 7.65926 4.34188L8.24145 3.75969C8.65181 3.34933 9.32416 3.37331 9.70424 3.81187L10.7728 5.04481Z" fill="black"/>
<path d="M3.61272 8.65023C3.45236 8.16915 3.07485 7.79164 2.59377 7.63128C2.10416 7.46808 2.10416 6.77554 2.59377 6.61233C3.07485 6.45197 3.45236 6.07447 3.61272 5.59339C3.77592 5.10378 4.46846 5.10378 4.63166 5.59339C4.79203 6.07447 5.16953 6.45197 5.65061 6.61233C6.14022 6.77554 6.14022 7.46808 5.65061 7.63128C5.16953 7.79164 4.79203 8.16915 4.63166 8.65023C4.46846 9.13984 3.77592 9.13984 3.61272 8.65023Z" fill="black"/>
<path d="M7.61272 15.6502C7.45236 15.1691 7.07485 14.7916 6.59377 14.6313C6.10416 14.4681 6.10416 13.7755 6.59377 13.6123C7.07485 13.452 7.45236 13.0745 7.61272 12.5934C7.77592 12.1038 8.46846 12.1038 8.63166 12.5934C8.79203 13.0745 9.16953 13.452 9.65061 13.6123C10.1402 13.7755 10.1402 14.4681 9.65061 14.6313C9.16953 14.7916 8.79203 15.1691 8.63166 15.6502C8.46846 16.1398 7.77592 16.1398 7.61272 15.6502Z" fill="black"/>
</svg>
