<svg width="24" height="24" viewBox="0 0 24 24" fill="none" xmlns="http://www.w3.org/2000/svg">
<path d="M5 4H19C20.6568 4 21.9999 5.343 22 6.99974C21.8763 6.9997 21.7505 7.02277 21.6286 7.07152L12.7428 10.6259C12.266 10.8166 11.734 10.8166 11.2572 10.6259L2.37139 7.07152C2.24951 7.02277 2.12371 6.9997 2 6.99973C2.00014 5.343 3.34323 4 5 4Z" fill="black"/>
<path d="M2 9.07703V17C2 18.6569 3.34315 20 5 20H19C20.6569 20 22 18.6569 22 17V9.07703L13.4856 12.4828C12.5319 12.8643 11.4681 12.8643 10.5144 12.4828L2 9.07703Z" fill="black"/>
</svg>
