<svg width="24" height="24" viewBox="0 0 24 24" fill="none" xmlns="http://www.w3.org/2000/svg">
<path d="M5 4H19C20.6568 4 21.9999 5.343 22 6.99974C21.8763 6.9997 21.7505 7.02277 21.6286 7.07152L12.7428 10.6259C12.266 10.8166 11.734 10.8166 11.2572 10.6259L2.37139 7.07152C2.24951 7.02277 2.12371 6.9997 2 6.99973C2.00014 5.343 3.34323 4 5 4Z" fill="black"/>
<path d="M2 9.07703V17C2 18.6569 3.34315 20 5 20H15.9391C15.3321 18.865 15.5072 17.4218 16.4645 16.4645C17.4217 15.5073 18.8649 15.3322 20 15.9392C20.618 15.6087 21.3274 15.51 22 15.6433V9.07703L13.4856 12.4828C12.5319 12.8643 11.4681 12.8643 10.5144 12.4828L2 9.07703Z" fill="black"/>
<path d="M21.4142 20.0001L22.1213 19.293C22.5118 18.9024 22.5118 18.2693 22.1213 17.8787C21.7308 17.4882 21.0976 17.4882 20.7071 17.8787L20 18.5858L19.2929 17.8787C18.9024 17.4882 18.2692 17.4882 17.8787 17.8787C17.4882 18.2693 17.4882 18.9024 17.8787 19.293L18.5858 20.0001L17.8787 20.7072C17.4882 21.0977 17.4882 21.7309 17.8787 22.1214C18.2692 22.5119 18.9024 22.5119 19.2929 22.1214L20 21.4143L20.7071 22.1214C21.0976 22.5119 21.7308 22.5119 22.1213 22.1214C22.5118 21.7309 22.5118 21.0977 22.1213 20.7072L21.4142 20.0001Z" fill="black"/>
</svg>
