<svg width="24" height="24" viewBox="0 0 24 24" fill="none" xmlns="http://www.w3.org/2000/svg">
<path d="M5 4H19C20.6568 4 21.9999 5.343 22 6.99974C21.8763 6.9997 21.7505 7.02277 21.6286 7.07152L12.7428 10.6259C12.266 10.8166 11.734 10.8166 11.2572 10.6259L2.37139 7.07152C2.24951 7.02277 2.12371 6.9997 2 6.99973C2.00014 5.343 3.34323 4 5 4Z" fill="black"/>
<path d="M2 9.07703V17C2 18.6569 3.34315 20 5 20H15.7639C15.2889 19.4692 15 18.7684 15 18C15 16.3431 16.3431 15 18 15H22V9.07703L13.4856 12.4828C12.5319 12.8643 11.4681 12.8643 10.5144 12.4828L2 9.07703Z" fill="black"/>
<path d="M18 17C17.4477 17 17 17.4477 17 18C17 18.5523 17.4477 19 18 19H22C22.5523 19 23 18.5523 23 18C23 17.4477 22.5523 17 22 17H18Z" fill="black"/>
</svg>
