<svg width="24" height="24" viewBox="0 0 24 24" fill="none" xmlns="http://www.w3.org/2000/svg">
<path d="M5 4H19C20.6568 4 21.9999 5.343 22 6.99974C21.8763 6.9997 21.7505 7.02277 21.6286 7.07152L12.7428 10.6259C12.266 10.8166 11.734 10.8166 11.2572 10.6259L2.37139 7.07152C2.24951 7.02277 2.12371 6.9997 2 6.99973C2.00014 5.343 3.34323 4 5 4Z" fill="black"/>
<path d="M2 9.07703V17C2 18.6569 3.34315 20 5 20H15C15 18.6462 15.8967 17.5019 17.1285 17.1285C17.5019 15.8967 18.6462 15 20 15C20.7684 15 21.4692 15.2889 22 15.7639V9.07703L13.4856 12.4828C12.5319 12.8643 11.4681 12.8643 10.5144 12.4828L2 9.07703Z" fill="black"/>
<path d="M21 18C21 17.4477 20.5523 17 20 17C19.4477 17 19 17.4477 19 18V19H18C17.4477 19 17 19.4477 17 20C17 20.5523 17.4477 21 18 21H19V22C19 22.5523 19.4477 23 20 23C20.5523 23 21 22.5523 21 22V21H22C22.5523 21 23 20.5523 23 20C23 19.4477 22.5523 19 22 19H21V18Z" fill="black"/>
</svg>
