<svg width="24" height="24" viewBox="0 0 24 24" fill="none" xmlns="http://www.w3.org/2000/svg">
<path d="M1.76758 2.60089C1.76758 2.41714 1.95916 2.29618 2.12506 2.37518L6.57217 4.49285C6.74629 4.57576 6.8572 4.75142 6.8572 4.94428V18.9109C6.8572 19.2784 6.47404 19.5203 6.14223 19.3623L2.48016 17.6184C2.04486 17.4112 1.76758 16.972 1.76758 16.4899V2.60089Z" fill="black"/>
<path d="M8.91631 19.9794C8.61884 20.0149 8.3572 19.7825 8.3572 19.4829V5.24647C8.3572 4.99638 8.54199 4.78475 8.7898 4.75104L11.5412 4.3767L15.0908 4.00108C15.3861 3.96983 15.6434 4.20135 15.6434 4.49831V18.7346C15.6434 18.9879 15.454 19.2011 15.2025 19.2311L8.91631 19.9794Z" fill="black"/>
<path d="M17.4284 19.5068C17.2543 19.4239 17.1434 19.2482 17.1434 19.0554V5.08878C17.1434 4.72128 17.5265 4.47935 17.8583 4.63735L21.5204 6.38119C21.9557 6.58848 22.233 7.02764 22.233 7.50977V21.3987C22.233 21.5825 22.0414 21.7035 21.8755 21.6245L17.4284 19.5068Z" fill="black"/>
</svg>
