<svg width="24" height="24" viewBox="0 0 24 24" fill="none" xmlns="http://www.w3.org/2000/svg">
<path d="M4.5 4.5C4.5 5.53284 5.12633 6.41939 6.01989 6.80057C6.00685 6.86501 6 6.93171 6 7V16.208C5.11705 16.5938 4.5 17.4748 4.5 18.5C4.5 19.8807 5.61929 21 7 21C8.38071 21 9.5 19.8807 9.5 18.5C9.5 17.4748 8.88295 16.5938 8 16.208V13.4199C8.3022 13.9588 8.63247 14.4944 8.98627 15.0133C9.86807 16.3066 10.919 17.5298 12.0777 18.4396C13.2286 19.3433 14.567 19.9999 15.9998 20C16.4559 20.6072 17.1821 21 18 21C19.3807 21 20.5 19.8807 20.5 18.5C20.5 17.1193 19.3807 16 18 16C16.8032 16 15.8028 16.841 15.5575 17.9643C14.8587 17.8535 14.1017 17.486 13.3129 16.8666C12.3623 16.1202 11.4444 15.0684 10.6387 13.8867C9.83563 12.7088 9.16677 11.4354 8.70167 10.2749C8.22722 9.091 8 8.11168 8 7.5V7C8 6.93171 7.99315 6.86501 7.98011 6.80057C8.87367 6.41939 9.5 5.53284 9.5 4.5C9.5 3.11929 8.38071 2 7 2C5.61929 2 4.5 3.11929 4.5 4.5Z" fill="black"/>
</svg>
