<svg width="24" height="24" viewBox="0 0 24 24" fill="none" xmlns="http://www.w3.org/2000/svg">
<path fill-rule="evenodd" clip-rule="evenodd" d="M18 3.5H6C4.34315 3.5 3 4.84315 3 6.5V14.5C3 16.1569 4.34315 17.5 6 17.5H8C8.64911 17.5 9.28071 17.7105 9.8 18.1L11.2 19.15C12.2667 19.95 13.7333 19.95 14.8 19.15L16.2 18.1C16.7193 17.7105 17.3509 17.5 18 17.5C19.6569 17.5 21 16.1569 21 14.5V6.5C21 4.84315 19.6569 3.5 18 3.5ZM6 8.5C6 7.94772 6.44772 7.5 7 7.5H12C12.5523 7.5 13 7.94772 13 8.5C13 9.05228 12.5523 9.5 12 9.5H7C6.44772 9.5 6 9.05228 6 8.5ZM7 11.5C6.44772 11.5 6 11.9477 6 12.5C6 13.0523 6.44772 13.5 7 13.5H16C16.5523 13.5 17 13.0523 17 12.5C17 11.9477 16.5523 11.5 16 11.5H7Z" fill="black"/>
</svg>
