<svg width="24" height="24" viewBox="0 0 24 24" fill="none" xmlns="http://www.w3.org/2000/svg">
<path fill-rule="evenodd" clip-rule="evenodd" d="M18 3.5H6C4.34315 3.5 3 4.84315 3 6.5V14.5C3 16.1569 4.34315 17.5 6 17.5H8C8.64911 17.5 9.28071 17.7105 9.8 18.1L11.0091 19.0068C11.0031 18.9344 11 18.8612 11 18.7872V14.5083C11 13.123 12.0745 12 13.4 12H20.6C20.7363 12 20.8699 12.0119 21 12.0347V6.5C21 4.84315 19.6569 3.5 18 3.5ZM6 8.5C6 7.94772 6.44772 7.5 7 7.5H17C17.5523 7.5 18 7.94772 18 8.5C18 9.05228 17.5523 9.5 17 9.5H7C6.44772 9.5 6 9.05228 6 8.5ZM7 12C6.44772 12 6 12.4477 6 13C6 13.5523 6.44772 14 7 14H10C10.5523 14 11 13.5523 11 13C11 12.4477 10.5523 12 10 12H7Z" fill="black"/>
<path fill-rule="evenodd" clip-rule="evenodd" d="M12 15C12 13.8954 12.8954 13 14 13H20C21.1046 13 22 13.8954 22 15V18.9112C22 19.7399 21.3282 20.4118 20.4994 20.4118C20.0301 20.4118 19.5725 20.5585 19.1907 20.8314L18.137 21.5844C17.7892 21.833 17.3219 21.833 16.9741 21.5844L16.1159 20.9711C15.6069 20.6073 14.997 20.4118 14.3715 20.4118H14C12.8954 20.4118 12 19.5163 12 18.4118V15ZM15 14.5C14.4477 14.5 14 14.9477 14 15.5C14 16.0523 14.4477 16.5 15 16.5H17C17.5523 16.5 18 16.0523 18 15.5C18 14.9477 17.5523 14.5 17 14.5H15ZM14 18C14 17.4477 14.4477 17 15 17H19C19.5523 17 20 17.4477 20 18C20 18.5523 19.5523 19 19 19H15C14.4477 19 14 18.5523 14 18Z" fill="black"/>
</svg>
