<svg width="24" height="24" viewBox="0 0 24 24" fill="none" xmlns="http://www.w3.org/2000/svg">
<path fill-rule="evenodd" clip-rule="evenodd" d="M20.2768 5H5C3.34315 5 2 6.34315 2 8V16C2 17.6569 3.34315 19 5 19H17C18.6569 19 20 17.6569 20 16V9.29669C20 8.77461 20.1362 8.26157 20.3953 7.80828L21.1451 6.49614C21.526 5.82948 21.0446 5 20.2768 5ZM6 10C6 9.44772 6.44772 9 7 9H12C12.5523 9 13 9.44772 13 10C13 10.5523 12.5523 11 12 11H7C6.44772 11 6 10.5523 6 10ZM7 13C6.44772 13 6 13.4477 6 14C6 14.5523 6.44772 15 7 15H16C16.5523 15 17 14.5523 17 14C17 13.4477 16.5523 13 16 13H7Z" fill="black"/>
</svg>
