<svg width="24" height="24" viewBox="0 0 24 24" fill="none" xmlns="http://www.w3.org/2000/svg">
<path d="M22.7071 1.29289C23.0976 1.68342 23.0976 2.31658 22.7071 2.70711L2.70711 22.7071C2.31658 23.0976 1.68342 23.0976 1.29289 22.7071C0.902369 22.3166 0.902369 21.6834 1.29289 21.2929L21.2929 1.29289C21.6834 0.902369 22.3166 0.902369 22.7071 1.29289Z" fill="black"/>
<path d="M5.09192 16.0797C5.04137 15.9504 4.99359 15.8184 4.94871 15.6838C4.77406 15.1599 4.20774 14.8767 3.6838 15.0513C3.15986 15.226 2.8767 15.7923 3.05134 16.3163C3.20142 16.7665 3.37699 17.1932 3.57537 17.5963L5.09192 16.0797Z" fill="black"/>
<path d="M6.08959 20.7389C10.8138 24.501 18.7119 23.0268 20.9487 16.3163C21.1234 15.7923 20.8402 15.226 20.3163 15.0513C19.7923 14.8767 19.226 15.1599 19.0513 15.6838C17.3167 20.8876 11.2617 22.0953 7.5218 19.3067L6.08959 20.7389Z" fill="black"/>
<path d="M12 3C13.7005 3 15.2358 3.70741 16.3276 4.84401L6.29824 14.8733C6.10469 14.2839 6 13.6542 6 13V9C6 5.68629 8.68629 3 12 3Z" fill="black"/>
<path d="M12 19C10.8111 19 9.70298 18.6542 8.7707 18.0577L17.9977 8.83077C17.9992 8.88699 18 8.9434 18 9V13C18 16.3137 15.3137 19 12 19Z" fill="black"/>
</svg>
