<svg width="24" height="24" viewBox="0 0 24 24" fill="none" xmlns="http://www.w3.org/2000/svg">
<path fill-rule="evenodd" clip-rule="evenodd" d="M12.0003 3C8.68656 3 6.00027 5.68629 6.00027 9V13C6.00027 16.3137 8.68656 19 12.0003 19C15.314 19 18.0003 16.3137 18.0003 13V9C18.0003 5.68629 15.314 3 12.0003 3ZM11.0003 9C11.0003 8.44772 10.5526 8 10.0003 8C9.44799 8 9.00027 8.44772 9.00027 9V13C9.00027 13.5523 9.44799 14 10.0003 14C10.5526 14 11.0003 13.5523 11.0003 13V9ZM14.0003 8C14.5526 8 15.0003 8.44772 15.0003 9V13C15.0003 13.5523 14.5526 14 14.0003 14C13.448 14 13.0003 13.5523 13.0003 13V9C13.0003 8.44772 13.448 8 14.0003 8Z" fill="black"/>
<path d="M4.94895 15.6838C4.77431 15.1598 4.20799 14.8767 3.68404 15.0513C3.1601 15.226 2.87694 15.7923 3.05159 16.3162C5.91819 24.916 18.0824 24.916 20.949 16.3162C21.1236 15.7923 20.8404 15.226 20.3165 15.0513C19.7926 14.8767 19.2262 15.1598 19.0516 15.6838C16.7928 22.4602 7.20776 22.4602 4.94895 15.6838Z" fill="black"/>
</svg>
