<svg width="24" height="24" viewBox="0 0 24 24" fill="none" xmlns="http://www.w3.org/2000/svg">
<path d="M13 11.9996C13 11.4473 12.5523 10.9996 12 10.9996C11.4477 10.9996 11 11.4473 11 11.9996C11 12.5519 11.4477 12.9996 12 12.9996C12.5523 12.9996 13 12.5519 13 11.9996Z" fill="black"/>
<path fill-rule="evenodd" clip-rule="evenodd" d="M22 9.19238V17.1807C22 18.7651 20.7683 20.0744 19.1846 20.1228C18.2355 20.1517 17.1291 20.173 16 20.1683C15.1991 20.1649 13.0429 19.6444 11.1375 19.1845C9.75557 18.8509 8.50551 18.5491 8 18.4996C6.75176 18.3772 5.69465 18.2823 4.83209 18.2097C3.24452 18.0762 2 16.7524 2 15.1592V7.16819C2 5.44694 3.44386 4.09031 5.15881 4.23751C5.95728 4.30604 6.90511 4.39223 8 4.49958C8.50551 4.54914 9.75556 4.85088 11.1375 5.18446C13.0429 5.6444 15.1991 6.16487 16 6.16826C16.9837 6.17242 17.9503 6.15677 18.8106 6.13351C20.5403 6.08677 22 7.46212 22 9.19238ZM5.09106 6.41622C4.54088 6.36809 4.05585 6.77508 4.00771 7.32526C3.95958 7.87544 4.36657 8.36048 4.91675 8.40861L6.90914 8.58292C7.45932 8.63106 7.94436 8.22407 7.99249 7.67388C8.04063 7.1237 7.63363 6.63867 7.08345 6.59053L5.09106 6.41622ZM16.0077 8.32526C16.0558 7.77508 16.5409 7.36809 17.0911 7.41622L19.0835 7.59053C19.6336 7.63867 20.0406 8.1237 19.9925 8.67388C19.9444 9.22407 19.4593 9.63106 18.9091 9.58292L16.9168 9.40861C16.3666 9.36048 15.9596 8.87544 16.0077 8.32526ZM5.09106 15.0034C4.54088 14.9552 4.05585 15.3622 4.00771 15.9124C3.95958 16.4626 4.36657 16.9476 4.91675 16.9958L6.90914 17.1701C7.45932 17.2182 7.94436 16.8112 7.99249 16.261C8.04063 15.7109 7.63363 15.2258 7.08345 15.1777L5.09106 15.0034ZM16.0077 17.3253C16.0558 16.7751 16.5409 16.3681 17.0911 16.4162L19.0835 16.5905C19.6336 16.6387 20.0406 17.1237 19.9925 17.6739C19.9444 18.2241 19.4593 18.6311 18.9091 18.5829L16.9168 18.4086C16.3666 18.3605 15.9596 17.8754 16.0077 17.3253ZM12 8.99958C13.6569 8.99958 15 10.3427 15 11.9996C15 13.6564 13.6569 14.9996 12 14.9996C10.3431 14.9996 9 13.6564 9 11.9996C9 10.3427 10.3431 8.99958 12 8.99958Z" fill="black"/>
</svg>
