<svg width="24" height="24" viewBox="0 0 24 24" fill="none" xmlns="http://www.w3.org/2000/svg">
<path d="M14.5405 2.32556C14.9623 2.43601 14.8527 3.08597 14.4286 3.18721C11.3651 3.91851 9 6.70893 9 10C9 10.4122 9.03563 10.8161 9.10398 11.2087C8.00974 12.1556 7.31429 13.5751 7.31429 15.1618C7.31429 15.4016 7.33017 15.6375 7.36091 15.8686C6.07936 16.4243 5.15063 17.6724 5.01668 19.1577C3.15554 17.3417 2 14.8058 2 12C2 6.47715 6.47715 2 12 2C12.8778 2 13.7293 2.11311 14.5405 2.32556Z" fill="black"/>
<path d="M20.2937 17.5888C20.1556 17.0133 19.9159 16.4791 19.5954 16.0073C19.9195 15.8129 20.2267 15.593 20.514 15.3503C20.847 15.0691 21.4285 15.3689 21.264 15.7725C21.0025 16.4139 20.6764 17.022 20.2937 17.5888Z" fill="black"/>
<path d="M7 18.7647C7 20.5515 8.34315 22 10 22H15.4C17.3882 22 19 20.2618 19 18.1176C19 16.4008 17.9666 14.9442 16.5341 14.4319C16.1972 12.4787 14.6087 11 12.7 11C10.5461 11 8.8 12.883 8.8 15.2059C8.8 15.4013 8.81235 15.5935 8.83626 15.7818C7.75739 16.272 7 17.4229 7 18.7647Z" fill="black"/>
</svg>
