<svg width="24" height="24" viewBox="0 0 24 24" fill="none" xmlns="http://www.w3.org/2000/svg">
<path d="M14.5405 2.32556C14.9623 2.43601 14.8527 3.08597 14.4286 3.18721C11.3651 3.91851 9 6.70893 9 10C9 13.866 12.134 17 16 17C17.7201 17 19.2953 16.3796 20.514 15.3503C20.847 15.0691 21.4285 15.3689 21.264 15.7725C19.7749 19.4254 16.1881 22 12 22C6.47715 22 2 17.5228 2 12C2 6.47715 6.47715 2 12 2C12.8778 2 13.7293 2.11311 14.5405 2.32556Z" fill="black"/>
<path d="M15.343 8.04145C15.2094 7.64055 14.8948 7.32596 14.4939 7.19233C14.0859 7.05633 14.0859 6.47921 14.4939 6.34321C14.8948 6.20957 15.2094 5.89498 15.343 5.49408C15.479 5.08607 16.0561 5.08607 16.1921 5.49408C16.3258 5.89498 16.6404 6.20957 17.0413 6.34321C17.4493 6.47921 17.4493 7.05633 17.0413 7.19233C16.6404 7.32596 16.3258 7.64055 16.1921 8.04145C16.0561 8.44946 15.479 8.44946 15.343 8.04145Z" fill="black"/>
<path d="M13.4939 13.1923C13.8948 13.326 14.2094 13.6405 14.343 14.0415C14.479 14.4495 15.0561 14.4495 15.1921 14.0415C15.3258 13.6405 15.6404 13.326 16.0413 13.1923C16.4493 13.0563 16.4493 12.4792 16.0413 12.3432C15.6404 12.2096 15.3258 11.895 15.1921 11.4941C15.0561 11.0861 14.479 11.0861 14.343 11.4941C14.2094 11.895 13.8948 12.2096 13.4939 12.3432C13.0859 12.4792 13.0859 13.0563 13.4939 13.1923Z" fill="black"/>
</svg>
