<svg width="24" height="24" viewBox="0 0 24 24" fill="none" xmlns="http://www.w3.org/2000/svg">
<path fill-rule="evenodd" clip-rule="evenodd" d="M15.9999 1.99997C15.9999 1.44769 15.5522 0.999985 14.9999 1C14.4476 1.00001 13.9999 1.44774 13.9999 2.00003C13.9999 2.17334 13.9397 2.45556 13.7884 2.66571C13.6738 2.82487 13.4741 3 13 3C12.4702 3 11.9655 3.10956 11.5511 3.39767C11.1184 3.69848 10.8896 4.12054 10.7983 4.53514C10.6753 5.09464 10.7932 5.65757 10.9471 6.07866C7.58066 6.58648 5 9.49187 5 13V15C5 18.866 8.13401 22 12 22C15.866 22 19 18.866 19 15V13C19 9.47272 16.3911 6.55478 12.9977 6.07055C13.0101 5.89759 12.9776 5.71914 12.8944 5.55279C12.8439 5.45165 12.7955 5.32292 12.7684 5.19672C12.7521 5.12063 12.7473 5.06314 12.7471 5.02354C12.7951 5.01214 12.8754 5 13 5C14.1259 5 14.9261 4.50847 15.4115 3.83429C15.8602 3.21111 16 2.49333 15.9999 1.99997ZM12 7.5C12.5523 7.5 13 7.94772 13 8.5V12.5C13 13.0523 12.5523 13.5 12 13.5C11.4477 13.5 11 13.0523 11 12.5V8.5C11 7.94772 11.4477 7.5 12 7.5Z" fill="black"/>
</svg>
