<svg width="24" height="24" viewBox="0 0 24 24" fill="none" xmlns="http://www.w3.org/2000/svg">
<path fill-rule="evenodd" clip-rule="evenodd" d="M2 5C2 3.34315 3.34315 2 5 2H19C20.6569 2 22 3.34315 22 5V19C22 20.6569 20.6569 22 19 22H5C3.34315 22 2 20.6569 2 19V5ZM11.2929 3.29289C11.6834 2.90237 12.3166 2.90237 12.7071 3.29289L15.7071 6.29289C16.0976 6.68342 16.0976 7.31658 15.7071 7.70711C15.3166 8.09763 14.6834 8.09763 14.2929 7.70711L13 6.41421V11H17.5858L16.2929 9.70711C15.9024 9.31658 15.9024 8.68342 16.2929 8.29289C16.6834 7.90237 17.3166 7.90237 17.7071 8.29289L20.7071 11.2929C20.8946 11.4804 21 11.7348 21 12C21 12.2652 20.8946 12.5196 20.7071 12.7071L17.7071 15.7071C17.3166 16.0976 16.6834 16.0976 16.2929 15.7071C15.9024 15.3166 15.9024 14.6834 16.2929 14.2929L17.5858 13H13V17.5858L14.2929 16.2929C14.6834 15.9024 15.3166 15.9024 15.7071 16.2929C16.0976 16.6834 16.0976 17.3166 15.7071 17.7071L12.7071 20.7071C12.3166 21.0976 11.6834 21.0976 11.2929 20.7071L8.29289 17.7071C7.90237 17.3166 7.90237 16.6834 8.29289 16.2929C8.68342 15.9024 9.31658 15.9024 9.70711 16.2929L11 17.5858V13H6.41421L7.70711 14.2929C8.09763 14.6834 8.09763 15.3166 7.70711 15.7071C7.31658 16.0976 6.68342 16.0976 6.29289 15.7071L3.29289 12.7071C2.90237 12.3166 2.90237 11.6834 3.29289 11.2929L6.29289 8.29289C6.68342 7.90237 7.31658 7.90237 7.70711 8.29289C8.09763 8.68342 8.09763 9.31658 7.70711 9.70711L6.41421 11H11V6.41421L9.70711 7.70711C9.31658 8.09763 8.68342 8.09763 8.29289 7.70711C7.90237 7.31658 7.90237 6.68342 8.29289 6.29289L11.2929 3.29289Z" fill="black"/>
</svg>
