<svg width="24" height="24" viewBox="0 0 24 24" fill="none" xmlns="http://www.w3.org/2000/svg">
<path d="M19.3228 5.28709L12.2623 4.03277C11.0085 3.81003 9.85435 4.75116 9.85435 5.99631V7.09753L20.9069 9.09327L20.9973 7.35178C21.0494 6.35022 20.3326 5.46648 19.3228 5.28709Z" fill="black"/>
<path d="M3.15878 16.7028C3.7421 17.8526 4.85261 19.5709 6.27991 19.5709C8.42485 19.5709 9.85435 17.6306 9.85435 15.6903C9.85435 15.6903 8.96074 14.5815 6.27991 14.5815C5.04947 14.5815 4.19553 14.8151 3.63168 15.0678C2.99133 15.3549 2.84588 16.086 3.15878 16.7028Z" fill="black"/>
<path d="M13.9218 17.1319C14.5051 18.2817 15.6156 20 17.0429 20C18.9331 20 20.2676 18.4934 20.558 16.8077L20.5715 16.5094C20.5438 16.1755 20.3706 15.8692 20.067 15.6903C19.5379 15.3784 18.5868 15.0107 17.0429 15.0107C15.8125 15.0107 14.9586 15.2442 14.3947 15.497C13.7544 15.784 13.6089 16.5151 13.9218 17.1319Z" fill="black"/>
<path d="M9.85435 15.6903C9.85435 17.6306 8.42485 19.5709 6.27991 19.5709C4.85261 19.5709 3.7421 17.8526 3.15878 16.7028C2.84588 16.086 2.99133 15.3549 3.63168 15.0678C4.19553 14.8151 5.04947 14.5815 6.27991 14.5815C8.96074 14.5815 9.85435 15.6903 9.85435 15.6903ZM9.85435 15.6903V7.09753M20.558 16.8077C20.2676 18.4934 18.933 20 17.0429 20C15.6156 20 14.5051 18.2817 13.9218 17.1319C13.6089 16.5151 13.7544 15.784 14.3947 15.497C14.9586 15.2442 15.8125 15.0107 17.0429 15.0107C18.5868 15.0107 19.5379 15.3784 20.067 15.6903C20.3706 15.8692 20.5438 16.1755 20.5715 16.5094M20.558 16.8077L20.5715 16.5094M20.558 16.8077C20.5753 16.7076 20.5797 16.6073 20.5715 16.5094M20.9069 9.09327L20.9973 7.35178C21.0494 6.35022 20.3326 5.46648 19.3228 5.28709L12.2623 4.03277C11.0085 3.81003 9.85435 4.75116 9.85435 5.99631V7.09753M20.9069 9.09327L9.85435 7.09753M20.9069 9.09327L20.5715 16.5094" stroke="black" stroke-width="2" stroke-linecap="round"/>
</svg>
