<svg width="24" height="24" viewBox="0 0 24 24" fill="none" xmlns="http://www.w3.org/2000/svg">
<path d="M17.7657 4.72356C18.2565 5.19166 18.6945 5.60933 19.0009 5.76429C18.9054 6.75886 18.1602 8.60912 16.0009 9.10648L16.0009 16.6016C16.0009 16.707 15.9845 16.8086 15.9543 16.904C15.9528 16.9638 15.947 17.0241 15.9367 17.0844C15.5856 19.1423 13.8205 21 11.3075 21C9.43339 21 7.97525 18.9336 7.20933 17.5509C6.79849 16.8092 6.98947 15.93 7.83027 15.5848C8.57063 15.2809 9.69188 15 11.3075 15C12.432 15 13.3171 15.1361 14.0009 15.3213L14.0009 3.99999C14.0009 3.50443 14.3614 3.09306 14.8344 3.01379V2.99992C15.61 2.66752 16.7919 3.7948 17.7657 4.72356Z" fill="black"/>
<path d="M5.61272 6.64973C5.45236 6.16865 5.07485 5.79114 4.59377 5.63078C4.10416 5.46758 4.10416 4.77504 4.59377 4.61183C5.07485 4.45147 5.45236 4.07397 5.61272 3.59289C5.77592 3.10328 6.46846 3.10328 6.63166 3.59289C6.79203 4.07397 7.16953 4.45147 7.65061 4.61183C8.14022 4.77504 8.14022 5.46758 7.65061 5.63078C7.16953 5.79114 6.79203 6.16865 6.63166 6.64973C6.46846 7.13934 5.77592 7.13934 5.61272 6.64973Z" fill="black"/>
<path d="M9.61272 11.6497C9.45236 11.1686 9.07485 10.7911 8.59377 10.6308C8.10416 10.4676 8.10416 9.77504 8.59377 9.61183C9.07485 9.45147 9.45236 9.07397 9.61272 8.59289C9.77592 8.10328 10.4685 8.10328 10.6317 8.59289C10.792 9.07397 11.1695 9.45147 11.6506 9.61183C12.1402 9.77504 12.1402 10.4676 11.6506 10.6308C11.1695 10.7911 10.792 11.1686 10.6317 11.6497C10.4685 12.1393 9.77592 12.1393 9.61272 11.6497Z" fill="black"/>
</svg>
