<svg width="24" height="24" viewBox="0 0 24 24" fill="none" xmlns="http://www.w3.org/2000/svg">
<path d="M14.0595 2.47595C13.9867 2.4591 13.9109 2.4502 13.833 2.4502C13.2807 2.4502 12.833 2.89791 12.833 3.4502V14.8874C12.1515 14.674 11.2717 14.5178 10.1563 14.5178C8.54064 14.5178 7.41938 14.8455 6.67903 15.2001C5.83823 15.6028 5.64725 16.6286 6.05809 17.4939C6.82401 19.107 8.28215 21.5178 10.1563 21.5178C12.7416 21.5178 14.5354 19.2239 14.8122 16.7418C14.8162 16.7064 14.8188 16.6711 14.82 16.6359C14.8363 16.5186 14.8437 16.3922 14.833 16.2634V9.95951C17.6326 9.55279 18.5728 7.11673 18.687 5.84438C18.2458 5.60573 17.3209 4.87709 16.4082 4.15818C15.6911 3.59333 14.9817 3.03449 14.5205 2.72401C14.4063 2.61581 14.2665 2.53429 14.1112 2.4894C14.0915 2.48243 14.0742 2.4779 14.0595 2.47595Z" fill="black"/>
</svg>
