<svg width="24" height="24" viewBox="0 0 24 24" fill="none" xmlns="http://www.w3.org/2000/svg">
<path d="M9 8H7V10H9V8Z" fill="black"/>
<path fill-rule="evenodd" clip-rule="evenodd" d="M15 3H5C3.89543 3 3 3.89543 3 5V19C3 20.1046 3.89543 21 5 21H17V5C17 3.89543 16.1046 3 15 3ZM5 17C5 16.4477 5.44772 16 6 16H14C14.5523 16 15 16.4477 15 17C15 17.5523 14.5523 18 14 18H6C5.44772 18 5 17.5523 5 17ZM6 13C5.44772 13 5 13.4477 5 14C5 14.5523 5.44772 15 6 15H14C14.5523 15 15 14.5523 15 14C15 13.4477 14.5523 13 14 13H6ZM12 11C12 10.4477 12.4477 10 13 10H14C14.5523 10 15 10.4477 15 11C15 11.5523 14.5523 12 14 12H13C12.4477 12 12 11.5523 12 11ZM13 7C12.4477 7 12 7.44772 12 8C12 8.55228 12.4477 9 13 9H14C14.5523 9 15 8.55228 15 8C15 7.44772 14.5523 7 14 7H13ZM5 8C5 6.89543 5.89543 6 7 6H9C10.1046 6 11 6.89543 11 8V10C11 11.1046 10.1046 12 9 12H7C5.89543 12 5 11.1046 5 10V8Z" fill="black"/>
<path d="M18 21H20.4C21.2837 21 22 20.1046 22 19V17C22 15.8954 21.2837 15 20.4 15H18V21Z" fill="black"/>
</svg>
