<svg width="24" height="24" viewBox="0 0 24 24" fill="none" xmlns="http://www.w3.org/2000/svg">
<path d="M21 5.5C21.5523 5.5 22 5.94772 22 6.5V17.5C22 18.0523 21.5523 18.5 21 18.5C20.4477 18.5 20 18.0523 20 17.5V13.5235L14.3984 16.323C13.2965 16.8737 12 16.0728 12 14.8414V12.0011C11.9996 12.5889 11.6943 13.1766 11.0839 13.4816L5.39844 16.323C4.29651 16.8737 3 16.0728 3 14.8414V9.15863C3 7.92722 4.29651 7.12632 5.39843 7.67702L11.0839 10.5184C11.6943 10.8234 11.9996 11.4111 12 11.9989V9.15863C12 7.92722 13.2965 7.12632 14.3984 7.67702L20 10.4765V6.5C20 5.94772 20.4477 5.5 21 5.5Z" fill="black"/>
</svg>
