<svg width="24" height="24" viewBox="0 0 24 24" fill="none" xmlns="http://www.w3.org/2000/svg">
<path d="M7.30184 4.51436C7.47821 4.19689 7.81283 4 8.176 4H16.216C16.3172 4 16.4098 4.0572 16.455 4.14775C16.702 4.64173 17.3027 4.84195 17.7967 4.59497C18.2907 4.34798 18.4909 3.7473 18.2439 3.25332C17.8598 2.4852 17.0747 2 16.216 2H8.176C7.0865 2 6.08263 2.59068 5.55353 3.54307L1.66464 10.5431C1.16127 11.4491 1.16127 12.5509 1.66464 13.4569L5.55353 20.4569C6.03766 21.3284 6.91929 21.897 7.9003 21.9873V22H15.9992V21.9948C17.0196 21.9347 17.9445 21.3576 18.4449 20.4569L22.3337 13.4569C22.8371 12.5509 22.8371 11.4491 22.3337 10.543L22.1625 10.2348C21.8942 9.75202 21.2854 9.57809 20.8027 9.84631C20.3199 10.1145 20.1459 10.7233 20.4142 11.2061L20.5854 11.5144C20.7532 11.8164 20.7532 12.1836 20.5854 12.4857L19.5755 14.3035C19.4295 14.0599 19.2293 13.8441 18.9797 13.6756L16.6259 12.0861C15.7216 11.4832 14.5013 11.7129 13.878 12.6033L12.8561 14.0631L11.7779 13.3967C10.8809 12.8891 9.74493 13.1464 9.15415 13.9911L6.42051 17.8993L3.41295 12.4856C3.24516 12.1836 3.24516 11.8164 3.41295 11.5144L7.30184 4.51436Z" fill="black"/>
<path d="M7.20102 9.81722C7.04066 9.33614 6.66316 8.95863 6.18207 8.79827C5.69246 8.63507 5.69246 7.94253 6.18207 7.77933C6.66316 7.61897 7.04066 7.24146 7.20102 6.76038C7.36422 6.27077 8.05677 6.27077 8.21997 6.76038C8.38033 7.24146 8.75783 7.61897 9.23892 7.77933C9.72853 7.94253 9.72853 8.63507 9.23892 8.79827C8.75783 8.95863 8.38033 9.33614 8.21997 9.81722C8.05677 10.3068 7.36422 10.3068 7.20102 9.81722Z" fill="black"/>
<path d="M17.9992 6C17.4469 6 16.9992 6.44772 16.9992 7C16.9992 7.55228 17.4469 8 17.9992 8H21.9992C22.5515 8 22.9992 7.55228 22.9992 7C22.9992 6.44772 22.5515 6 21.9992 6H17.9992Z" fill="black"/>
</svg>
