<svg width="24" height="24" viewBox="0 0 24 24" fill="none" xmlns="http://www.w3.org/2000/svg">
<path d="M11.9992 14.5C13.9322 14.5 15.4992 12.933 15.4992 11C15.4992 9.067 13.9322 7.5 11.9992 7.5C10.0662 7.5 8.49919 9.067 8.49919 11C8.49919 12.933 10.0662 14.5 11.9992 14.5Z" fill="black"/>
<path fill-rule="evenodd" clip-rule="evenodd" d="M15.9992 21.9948C17.0196 21.9347 17.9445 21.3576 18.4449 20.4569L22.3337 13.4569C22.8371 12.5509 22.8371 11.4491 22.3337 10.5431L18.4449 3.54307C17.9157 2.59068 16.9119 2 15.8224 2H8.176C7.0865 2 6.08263 2.59068 5.55353 3.54307L1.66464 10.5431C1.16127 11.4491 1.16127 12.5509 1.66464 13.4569L5.55353 20.4569C6.03766 21.3284 6.91929 21.897 7.9003 21.9873V22H15.9992V21.9948ZM8.176 4C7.81283 4 7.47821 4.19689 7.30184 4.51436L3.41295 11.5144C3.24516 11.8164 3.24516 12.1836 3.41295 12.4856L6.43726 17.9294C7.73177 17.1882 10.119 15.9891 11.9992 16C13.8852 16.011 16.2819 17.2453 17.5356 17.9753L20.5854 12.4856C20.7532 12.1836 20.7532 11.8164 20.5854 11.5144L16.6965 4.51436C16.5202 4.19689 16.1856 4 15.8224 4H8.176Z" fill="black"/>
</svg>
