<svg width="24" height="24" viewBox="0 0 24 24" fill="none" xmlns="http://www.w3.org/2000/svg">
<path d="M3.84026 8.15638L13.6368 2.50035C14.1151 2.22421 14.7267 2.38809 15.0028 2.86638L20.5028 12.3927C21.3312 13.8275 20.8396 15.6623 19.4047 16.4907L13.7873 19.734C12.3524 20.5624 10.5176 20.0708 9.68921 18.6359L5.45469 11.3015C5.20281 10.8652 4.84514 10.4994 4.41465 10.2378L3.82092 9.87697C3.17158 9.48236 3.18222 8.5363 3.84026 8.15638Z" fill="black"/>
<path d="M3.02424 14.4234L2.25481 16.7317C2.09778 17.2028 2.22039 17.7222 2.57153 18.0733C3.08353 18.5853 3.91364 18.5853 4.42563 18.0733C4.77678 17.7222 4.89939 17.2028 4.74235 16.7317L3.97293 14.4234C3.82098 13.9675 3.17619 13.9675 3.02424 14.4234Z" fill="black"/>
</svg>
