<svg width="24" height="24" viewBox="0 0 24 24" fill="none" xmlns="http://www.w3.org/2000/svg">
<path d="M21.2081 3.20334C20.2634 6.56893 15.2053 12.4487 12.1597 15.6409C11.0162 14.3583 9.5241 12.7958 7.98312 11.4277C11.2977 8.40262 17.3096 3.44498 20.3868 2.41265C20.9104 2.237 21.3573 2.6716 21.2081 3.20334Z" fill="black"/>
<path d="M7.73069 19.8041C8.67542 19.2078 9.75795 18.5245 10.9262 17.8887C11.3801 17.6415 11.5108 17.0435 11.1744 16.6511C10.0945 15.3916 8.3266 13.4915 6.60331 12.1108C6.33095 11.8926 5.95784 11.8424 5.64076 11.9882C3.08781 13.1621 3.25384 14.5105 3.78022 18.785C3.86063 19.438 3.94946 20.1593 4.03828 20.9588C4.16037 22.0575 5.59261 21.1536 7.73069 19.8041Z" fill="black"/>
</svg>
