<svg width="24" height="24" viewBox="0 0 24 24" fill="none" xmlns="http://www.w3.org/2000/svg">
<path fill-rule="evenodd" clip-rule="evenodd" d="M6.99924 20.5005C0.49922 17.5005 -1.0758 3.54529 11.9992 3.00051C23.9999 2.50049 23.9991 17.5005 19.4991 17.5005C18.453 17.5005 17.6729 17.3818 17.0925 17.1961C16.6642 17.059 16.1833 16.7996 15.6878 16.5323C14.6052 15.9482 13.4534 15.3269 12.6305 15.8639C11.8262 16.3887 11.4287 17.2151 12.4999 18.5005C15.7008 22.3416 9.33231 21.6672 6.99924 20.5005ZM16.4998 11.0005C17.3282 11.0005 17.9998 10.3289 17.9998 9.50049C17.9998 8.67206 17.3282 8.00049 16.4998 8.00049C15.6713 8.00049 14.9998 8.67206 14.9998 9.50049C14.9998 10.3289 15.6713 11.0005 16.4998 11.0005ZM10.9998 8.00049C10.9998 8.82892 10.3282 9.50049 9.49976 9.50049C8.67133 9.50049 7.99976 8.82892 7.99976 8.00049C7.99976 7.17206 8.67133 6.50049 9.49976 6.50049C10.3282 6.50049 10.9998 7.17206 10.9998 8.00049ZM7.49976 16.0005C8.32818 16.0005 8.99976 15.3289 8.99976 14.5005C8.99976 13.6721 8.32818 13.0005 7.49976 13.0005C6.67133 13.0005 5.99976 13.6721 5.99976 14.5005C5.99976 15.3289 6.67133 16.0005 7.49976 16.0005Z" fill="black"/>
</svg>
