<svg width="24" height="24" viewBox="0 0 24 24" fill="none" xmlns="http://www.w3.org/2000/svg">
<path d="M5 4.90039H15C16.6569 4.90039 18 6.24354 18 7.90039V11.2664C17.9181 11.2559 17.8347 11.2505 17.75 11.2505C16.6761 11.2505 15.8056 12.121 15.8056 13.1949V14.4505C14.9464 14.4505 14.25 15.1469 14.25 16.006V17.7004H11.25V18.6004H12.5C13.0523 18.6004 13.5 19.0482 13.5 19.6004C13.5 20.1527 13.0523 20.6004 12.5 20.6004H8C7.44772 20.6004 7 20.1527 7 19.6004C7 19.0482 7.44772 18.6004 8 18.6004H9.25005V17.7004H5C3.34315 17.7004 2 16.3572 2 14.7004V7.90039C2 6.24354 3.34315 4.90039 5 4.90039Z" fill="black"/>
<path fill-rule="evenodd" clip-rule="evenodd" d="M15 18.6672V16.3227C15 15.4636 15.6964 14.7672 16.5556 14.7672V13.9449C16.5556 12.871 17.4261 12.0005 18.5 12.0005C19.5739 12.0005 20.4444 12.871 20.4444 13.9449V14.7672C21.3036 14.7672 22 15.4636 22 16.3227V18.6672C22 19.2194 21.5523 19.6672 21 19.6672H16C15.4477 19.6672 15 19.2194 15 18.6672ZM18.5 13.2505C18.7761 13.2505 19 13.4743 19 13.7505V14.6505H18V13.7505C18 13.4743 18.2239 13.2505 18.5 13.2505Z" fill="black"/>
</svg>
