<svg width="24" height="24" viewBox="0 0 24 24" fill="none" xmlns="http://www.w3.org/2000/svg">
<path d="M15.25 4.40039H5.25C3.59315 4.40039 2.25 5.74354 2.25 7.40039V14.2004C2.25 15.8572 3.59315 17.2004 5.25 17.2004H9.25005C9.25005 17.2004 9.25005 17.2004 9.25005 17.2004V18.6004H8C7.44772 18.6004 7 19.0482 7 19.6004C7 20.1527 7.44772 20.6004 8 20.6004H12.5C13.0523 20.6004 13.5 20.1527 13.5 19.6004C13.5 19.0482 13.0523 18.6004 12.5 18.6004H11.25V17.2004C11.25 17.2004 11.25 17.2005 11.25 17.2004L13.4188 17.2004L13.6912 11.8728C13.7592 10.5435 14.8568 9.50049 16.1879 9.50049H18.25V7.40039C18.25 5.74354 16.9069 4.40039 15.25 4.40039Z" fill="black"/>
<path fill-rule="evenodd" clip-rule="evenodd" d="M19.5975 10.2505H16.4025C15.3368 10.2505 14.4582 11.0862 14.405 12.1506L14.105 18.1506C14.0479 19.293 14.9587 20.2505 16.1025 20.2505H19.8975C21.0413 20.2505 21.9521 19.293 21.895 18.1506L21.595 12.1506C21.5418 11.0862 20.6632 10.2505 19.5975 10.2505ZM19.25 13.5005C19.25 14.1908 18.6904 14.7505 18 14.7505C17.3097 14.7505 16.75 14.1908 16.75 13.5005C16.75 12.8101 17.3097 12.2505 18 12.2505C18.6904 12.2505 19.25 12.8101 19.25 13.5005ZM18 18.2505C18.6904 18.2505 19.25 17.6908 19.25 17.0005C19.25 16.3101 18.6904 15.7505 18 15.7505C17.3097 15.7505 16.75 16.3101 16.75 17.0005C16.75 17.6908 17.3097 18.2505 18 18.2505Z" fill="black"/>
</svg>
