<svg width="24" height="24" viewBox="0 0 24 24" fill="none" xmlns="http://www.w3.org/2000/svg">
<path d="M5.25 4.40039H15.25C16.9069 4.40039 18.25 5.74354 18.25 7.40039V10.0093C18.1674 10.0035 18.0841 10.0005 18 10.0005C16.067 10.0005 14.5 11.5675 14.5 13.5005C14.5 14.4626 14.8882 15.334 15.5164 15.9666C15.0762 16.3356 14.7128 16.7711 14.4407 17.2004H11.25V18.6004C11.8023 18.6004 12.25 19.0481 12.25 19.6004C12.25 20.1527 11.8023 20.6004 11.25 20.6004H7.05001C6.49773 20.6004 6.05001 20.1527 6.05001 19.6004C6.05001 19.0481 6.49773 18.6004 7.05001 18.6004H9.25001V17.2004L5.25 17.2004C3.59315 17.2004 2.25 15.8572 2.25 14.2004V7.40039C2.25 5.74354 3.59315 4.40039 5.25 4.40039Z" fill="black"/>
<path fill-rule="evenodd" clip-rule="evenodd" d="M15.5 13.5005C15.5 11.9817 16.7312 10.7505 18.25 10.7505C19.7688 10.7505 21 11.9817 21 13.5005C21 14.5895 20.367 15.5307 19.4488 15.9761C20.3824 16.3352 21.102 17.0652 21.5018 17.7418C21.6471 17.9876 21.7468 18.2752 21.7499 18.5926C21.7531 18.9142 21.6562 19.1999 21.5105 19.4346C21.2407 19.8694 20.8073 20.1291 20.4689 20.2846C19.7685 20.6065 18.8749 20.7505 18.25 20.7505C17.6251 20.7505 16.7315 20.6065 16.0311 20.2846C15.6927 20.1291 15.2593 19.8694 14.9895 19.4346C14.8438 19.1999 14.7469 18.9142 14.7501 18.5926C14.7532 18.2752 14.8529 17.9876 14.9982 17.7418C15.398 17.0652 16.1176 16.3352 17.0512 15.9761C16.133 15.5307 15.5 14.5895 15.5 13.5005ZM18.25 12.7505C17.8358 12.7505 17.5 13.0863 17.5 13.5005C17.5 13.9147 17.8358 14.2505 18.25 14.2505C18.6642 14.2505 19 13.9147 19 13.5005C19 13.0863 18.6642 12.7505 18.25 12.7505ZM18.25 17.7505C17.7696 17.7505 17.2597 18.0594 16.9105 18.487C17.2976 18.6529 17.8658 18.7505 18.25 18.7505C18.6342 18.7505 19.2024 18.6529 19.5895 18.487C19.2403 18.0594 18.7304 17.7505 18.25 17.7505Z" fill="black"/>
</svg>
