<svg width="24" height="24" viewBox="0 0 24 24" fill="none" xmlns="http://www.w3.org/2000/svg">
<path d="M6 2C3.79086 2 2 3.79086 2 6V18C2 20.2091 3.79086 22 6 22H18C20.2091 22 22 20.2091 22 18V12C22 11.4477 21.5523 11 21 11C20.4477 11 20 11.4477 20 12V18C20 19.1046 19.1046 20 18 20H6C4.89543 20 4 19.1046 4 18V6C4 4.89543 4.89543 4 6 4H8.68421C9.2365 4 9.68421 3.55228 9.68421 3C9.68421 2.44772 9.2365 2 8.68421 2H6Z" fill="black"/>
<path d="M6.80573 15.5691L7.05278 13.8397C7.14458 13.1971 7.44232 12.6017 7.90131 12.1427L15.2042 4.83978L18.6664 8.30199L11.3635 15.6049C10.9045 16.0639 10.3091 16.3616 9.66647 16.4534L7.9371 16.7005C7.27713 16.7947 6.71145 16.2291 6.80573 15.5691Z" fill="black"/>
<path d="M20.0701 6.87729L16.6289 3.43605C17.5901 2.66552 18.9977 2.7259 19.889 3.61719C20.7803 4.50849 20.8407 5.91605 20.0701 6.87729Z" fill="black"/>
</svg>
