<svg width="24" height="24" viewBox="0 0 24 24" fill="none" xmlns="http://www.w3.org/2000/svg">
<path d="M12 20.9998C16.6331 20.9998 20.4485 17.4989 20.9452 12.9982C21.0058 12.4492 20.5523 11.9998 20 11.9998H15C13.3431 11.9998 12 10.6566 12 8.99979V3.99979C12 3.4475 11.5506 2.99396 11.0016 3.05454C6.50088 3.55126 3 7.36668 3 11.9998C3 16.9704 7.02944 20.9998 12 20.9998Z" fill="black"/>
<path d="M21.9295 8.00276C21.492 4.93467 19.0651 2.50777 15.997 2.07025C15.4503 1.99229 15 2.4475 15 2.99979V7.99979C15 8.55207 15.4477 8.99979 16 8.99979H21C21.5523 8.99979 22.0075 8.54951 21.9295 8.00276Z" fill="black"/>
</svg>
