<svg width="24" height="24" viewBox="0 0 24 24" fill="none" xmlns="http://www.w3.org/2000/svg">
<path fill-rule="evenodd" clip-rule="evenodd" d="M10.3486 4.43829C11.177 3.00351 13.0115 2.51147 14.4463 3.33966L17.9111 5.33966C19.3458 6.16816 19.8372 8.0035 19.0088 9.43829L16.9629 12.9813C16.6667 13.4942 16.5293 14.0836 16.5674 14.6746L16.6768 16.368C16.7539 17.5635 15.4672 18.3625 14.4297 17.7635L10.7939 15.6639V15.6649L7.04394 22.16C6.7678 22.6383 6.15602 22.8023 5.67773 22.5262C5.1997 22.2499 5.03642 21.6381 5.3125 21.16L9.0625 14.6649V14.6639L5.42773 12.5662C4.39035 11.9672 4.43891 10.4537 5.51269 9.92267L7.03418 9.17071C7.5651 8.9082 8.00659 8.49418 8.30273 7.98126L10.3486 4.43829Z" fill="black"/>
</svg>
