<svg width="24" height="24" viewBox="0 0 24 24" fill="none" xmlns="http://www.w3.org/2000/svg">
<path d="M10.0005 2H14.0005C15.6574 2 17.0005 3.34315 17.0005 5V9.09167C17.0005 9.68395 17.1758 10.263 17.5044 10.7558L18.4458 12.1679C19.1104 13.1648 18.3958 14.5 17.1978 14.5H13.0005V22C13.0005 22.5523 12.5528 23 12.0005 23C11.4482 23 11.0005 22.5523 11.0005 22V14.5H6.8033C5.60526 14.5 4.89067 13.1648 5.55523 12.1679L6.49668 10.7558C6.82521 10.263 7.00053 9.68395 7.00053 9.09167V5C7.00053 3.34315 8.34367 2 10.0005 2Z" fill="black"/>
</svg>
