<svg width="24" height="24" viewBox="0 0 24 24" fill="none" xmlns="http://www.w3.org/2000/svg">
<path d="M13 12.6527C14.0835 11.2587 16.1921 10 20 10C18.8953 13.4521 15.3279 14.8352 13 15.2208V18.2252C13.3034 18.3176 13.6819 18.4522 13.9961 18.6318C14.4282 18.8787 14.9813 19.2972 15.3892 19.6191C15.6016 19.7867 15.7902 19.9406 15.9257 20.0526C15.9935 20.1087 16.0484 20.1545 16.0865 20.1865L16.1309 20.2239L16.1463 20.2369L16.1473 20.2377C16.568 20.5955 16.6196 21.227 16.2618 21.6478C15.9041 22.0685 15.273 22.1196 14.8523 21.7619L14.8496 21.7596L14.8399 21.7514L14.8006 21.7183C14.7659 21.6892 14.7151 21.6467 14.6516 21.5943C14.5245 21.4892 14.3479 21.3451 14.1502 21.1891C13.738 20.8638 13.291 20.5323 13.0039 20.3682C12.848 20.2792 12.5725 20.1806 12.278 20.0977C12.1741 20.0685 12.0784 20.044 12 20.0251C11.9216 20.044 11.8259 20.0685 11.722 20.0977C11.4275 20.1806 11.152 20.2792 10.9961 20.3682C10.709 20.5323 10.262 20.8638 9.84976 21.1891C9.65207 21.3451 9.47553 21.4892 9.34839 21.5943C9.28494 21.6467 9.23409 21.6892 9.19942 21.7183L9.16006 21.7514L9.15036 21.7596L9.14816 21.7615C8.72741 22.1192 8.09591 22.0685 7.73817 21.6478C7.38041 21.227 7.43148 20.5959 7.85222 20.2382C8.50639 21.0075 8.53982 21.0468 7.85222 20.2382L7.8537 20.2369L7.85703 20.2341L7.86906 20.2239L7.91345 20.1865C7.95163 20.1545 8.00646 20.1087 8.07432 20.0526C8.20979 19.9406 8.39838 19.7867 8.61078 19.6191C9.01873 19.2972 9.57176 18.8787 10.0039 18.6318C10.3181 18.4522 10.6966 18.3176 11 18.2252V9.6962C8.43629 9.08355 5.11099 7.47184 4 4C10.146 4 12.3573 6.91457 12.873 9.01187C12.9539 9.15624 13 9.32274 13 9.5V12.6527Z" fill="black"/>
</svg>
