<svg width="24" height="24" viewBox="0 0 24 24" fill="none" xmlns="http://www.w3.org/2000/svg">
<path d="M12 1C12.5523 1 13 1.44772 13 2V8.65269C14.0835 7.25868 16.1921 6 20 6C18.8953 9.45206 15.3279 10.8352 13 11.2208V12H17.8098C18.431 12 18.9019 12.5605 18.7948 13.1724L17.3948 21.1724C17.3111 21.6509 16.8956 22 16.4098 22H7.5902C7.10442 22 6.68891 21.6509 6.60517 21.1724L5.20517 13.1724C5.09808 12.5605 5.56898 12 6.1902 12H11V8.22084C8.67211 7.83525 5.10466 6.45206 4 3C7.80788 3 9.91655 4.25868 11 5.65269V2C11 1.44772 11.4477 1 12 1Z" fill="black"/>
</svg>
