<svg width="24" height="24" viewBox="0 0 24 24" fill="none" xmlns="http://www.w3.org/2000/svg">
<path d="M2 4.5C2 3.94772 2.44772 3.5 3 3.5H21C21.5523 3.5 22 3.94772 22 4.5C22 5.05228 21.5523 5.5 21 5.5H3C2.44772 5.5 2 5.05228 2 4.5Z" fill="black"/>
<path d="M2 9.5C2 8.94772 2.44772 8.5 3 8.5H12C12.5523 8.5 13 8.94772 13 9.5C13 10.0523 12.5523 10.5 12 10.5H3C2.44772 10.5 2 10.0523 2 9.5Z" fill="black"/>
<path d="M2 14.5C2 13.9477 2.44772 13.5 3 13.5H9C9.55228 13.5 10 13.9477 10 14.5C10 15.0523 9.55228 15.5 9 15.5H3C2.44772 15.5 2 15.0523 2 14.5Z" fill="black"/>
<path d="M2 19.5C2 18.9477 2.44772 18.5 3 18.5H9C9.55228 18.5 10 18.9477 10 19.5C10 20.0523 9.55228 20.5 9 20.5H3C2.44772 20.5 2 20.0523 2 19.5Z" fill="black"/>
<path d="M17.597 7C17.6516 7 17.7047 7.00654 17.7558 7.01891C17.7661 7.02034 17.7782 7.02367 17.792 7.02879C17.9009 7.06174 17.9989 7.1216 18.079 7.20104C18.4023 7.429 18.8997 7.83932 19.4024 8.25405C20.0422 8.78189 20.6907 9.31688 21 9.49211C20.9199 10.4263 20.2608 12.2149 18.2981 12.5136V16.142C18.3055 16.2366 18.3003 16.3294 18.2889 16.4155C18.2881 16.4414 18.2863 16.4673 18.2835 16.4933C18.0894 18.3157 16.8318 20 15.0193 20C13.7054 20 12.6831 18.2299 12.1462 17.0455C11.8581 16.4102 11.992 15.657 12.5815 15.3613C13.1005 15.101 13.8866 14.8604 15.0193 14.8604C15.8013 14.8604 16.4181 14.9751 16.8959 15.1318V7.73423C16.8959 7.32873 17.2098 7 17.597 7Z" fill="black"/>
</svg>
