<svg width="24" height="24" viewBox="0 0 24 24" fill="none" xmlns="http://www.w3.org/2000/svg">
<path d="M3 6C2.44772 6 2 6.44772 2 7V18C2 18.5523 2.44772 19 3 19C3.55228 19 4 18.5523 4 18V14.0235L9.60156 16.823C10.7035 17.3737 12 16.5728 12 15.3414V12.5011C12.0004 13.0889 12.3057 13.6766 12.9161 13.9816L18.6016 16.823C19.7035 17.3737 21 16.5728 21 15.3414V9.65863C21 8.42722 19.7035 7.62632 18.6016 8.17702L12.9161 11.0184C12.3057 11.3234 12.0004 11.9111 12 12.4989V9.65863C12 8.42722 10.7035 7.62632 9.60157 8.17702L4 10.9765V7C4 6.44772 3.55228 6 3 6Z" fill="black"/>
</svg>
