<svg width="24" height="24" viewBox="0 0 24 24" fill="none" xmlns="http://www.w3.org/2000/svg">
<path d="M8 3V4H16V3C16 2.44772 15.5523 2 15 2H9C8.44772 2 8 2.44772 8 3Z" fill="black"/>
<path fill-rule="evenodd" clip-rule="evenodd" d="M2 15V8C2 6.34315 3.34315 5 5 5H19C20.6569 5 22 6.34315 22 8V15C22 16.6569 20.6569 18 19 18H18V13C18 11.8954 17.1046 11 16 11H8C6.89543 11 6 11.8954 6 13V18H5C3.34315 18 2 16.6569 2 15ZM6 8C6.55228 8 7 8.44772 7 9C7 9.55228 6.55228 10 6 10C5.44772 10 5 9.55228 5 9C5 8.44772 5.44772 8 6 8Z" fill="black"/>
<path fill-rule="evenodd" clip-rule="evenodd" d="M7 21V13C7 12.4477 7.44772 12 8 12H16C16.5523 12 17 12.4477 17 13V21C17 21.5523 16.5523 22 16 22H8C7.44772 22 7 21.5523 7 21ZM9.5 15.5C9.5 14.9477 9.94772 14.5 10.5 14.5H13.5C14.0523 14.5 14.5 14.9477 14.5 15.5C14.5 16.0523 14.0523 16.5 13.5 16.5H10.5C9.94772 16.5 9.5 16.0523 9.5 15.5ZM10.5 17.5C9.94772 17.5 9.5 17.9477 9.5 18.5C9.5 19.0523 9.94772 19.5 10.5 19.5H12.5C13.0523 19.5 13.5 19.0523 13.5 18.5C13.5 17.9477 13.0523 17.5 12.5 17.5H10.5Z" fill="black"/>
</svg>
