<svg width="24" height="24" viewBox="0 0 24 24" fill="none" xmlns="http://www.w3.org/2000/svg">
<path d="M8.5 10C8.5 9.72386 8.72386 9.5 9 9.5H15C15.2761 9.5 15.5 9.72386 15.5 10V14C15.5 14.2761 15.2761 14.5 15 14.5H9C8.72386 14.5 8.5 14.2761 8.5 14V10Z" fill="black"/>
<path fill-rule="evenodd" clip-rule="evenodd" d="M16.5 2C17.0523 2 17.5 2.44772 17.5 3V5C17.5 5.01385 17.4997 5.02763 17.4992 5.04134C18.3968 5.19168 19.1594 5.74063 19.5987 6.5H21C21.5523 6.5 22 6.94772 22 7.5C22 8.05228 21.5523 8.5 21 8.5H20V9.5H21C21.5523 9.5 22 9.94772 22 10.5C22 11.0523 21.5523 11.5 21 11.5H20V12.5H21C21.5523 12.5 22 12.9477 22 13.5C22 14.0523 21.5523 14.5 21 14.5H20V15.5H21C21.5523 15.5 22 15.9477 22 16.5C22 17.0523 21.5523 17.5 21 17.5H19.5987C19.2413 18.1177 18.6701 18.5961 17.9863 18.8341C17.9953 18.8881 18 18.9435 18 19V21C18 21.5523 17.5523 22 17 22C16.4477 22 16 21.5523 16 21V19H15V21C15 21.5523 14.5523 22 14 22C13.4477 22 13 21.5523 13 21V19H12V21C12 21.5523 11.5523 22 11 22C10.4477 22 10 21.5523 10 21V19H9V21C9 21.5523 8.55228 22 8 22C7.44772 22 7 21.5523 7 21V19C5.88958 19 4.92006 18.3967 4.40135 17.5H3C2.44772 17.5 2 17.0523 2 16.5C2 15.9477 2.44772 15.5 3 15.5H4V14.5H3C2.44772 14.5 2 14.0523 2 13.5C2 12.9477 2.44772 12.5 3 12.5H4V11.5H3C2.44772 11.5 2 11.0523 2 10.5C2 9.94772 2.44772 9.5 3 9.5H4V8.5H3C2.44772 8.5 2 8.05228 2 7.5C2 6.94772 2.44772 6.5 3 6.5H4.40135C4.84062 5.74063 5.60318 5.19167 6.50084 5.04134C6.50028 5.02763 6.5 5.01385 6.5 5V3C6.5 2.44772 6.94772 2 7.5 2C8.05228 2 8.5 2.44772 8.5 3V5H9.5V3C9.5 2.44772 9.94772 2 10.5 2C11.0523 2 11.5 2.44772 11.5 3V5H12.5V3C12.5 2.44772 12.9477 2 13.5 2C14.0523 2 14.5 2.44772 14.5 3V5H15.5V3C15.5 2.44772 15.9477 2 16.5 2ZM9 7.5C7.61929 7.5 6.5 8.61929 6.5 10V14C6.5 15.3807 7.61929 16.5 9 16.5H15C16.3807 16.5 17.5 15.3807 17.5 14V10C17.5 8.61929 16.3807 7.5 15 7.5H9Z" fill="black"/>
</svg>
