<svg width="24" height="24" viewBox="0 0 24 24" fill="none" xmlns="http://www.w3.org/2000/svg">
<path d="M14.3986 4.01565L14.7071 3.70711C15.0976 3.31658 15.0976 2.68342 14.7071 2.29289C14.3166 1.90237 13.6834 1.90237 13.2929 2.29289L11.2929 4.29289C10.9024 4.68342 10.9024 5.31658 11.2929 5.70711L13.2929 7.70711C13.6834 8.09763 14.3166 8.09763 14.7071 7.70711C15.0976 7.31658 15.0976 6.68342 14.7071 6.29289L14.4473 6.03313C15.892 6.24911 17 7.49516 17 9V17C17 17.0683 17.0068 17.135 17.0199 17.1994C16.1263 17.5806 15.5 18.4672 15.5 19.5C15.5 20.8807 16.6193 22 18 22C19.3807 22 20.5 20.8807 20.5 19.5C20.5 18.4672 19.8737 17.5806 18.9801 17.1994C18.9932 17.135 19 17.0683 19 17V9C19 6.37273 16.9736 4.21874 14.3986 4.01565Z" fill="black"/>
<path d="M4.5 5.5C4.5 6.52516 5.11705 7.4062 6 7.79198V17C6 17.0683 6.00685 17.135 6.01989 17.1994C5.12633 17.5806 4.5 18.4672 4.5 19.5C4.5 20.8807 5.61929 22 7 22C8.38071 22 9.5 20.8807 9.5 19.5C9.5 18.4672 8.87367 17.5806 7.98011 17.1994C7.99315 17.135 8 17.0683 8 17V7.79198C8.88295 7.4062 9.5 6.52516 9.5 5.5C9.5 4.11929 8.38071 3 7 3C5.61929 3 4.5 4.11929 4.5 5.5Z" fill="black"/>
</svg>
