<svg width="24" height="24" viewBox="0 0 24 24" fill="none" xmlns="http://www.w3.org/2000/svg">
<path d="M2 5.5V3.5C2 2.67157 2.67157 2 3.5 2H5.5C6.32843 2 7 2.67157 7 3.5V5.5C7 6.32843 6.32843 7 5.5 7H3.5C2.67157 7 2 6.32843 2 5.5Z" fill="black"/>
<path d="M17 5.5V3.5C17 2.67157 17.6716 2 18.5 2H20.5C21.3284 2 22 2.67157 22 3.5V5.5C22 6.32843 21.3284 7 20.5 7H18.5C17.6716 7 17 6.32843 17 5.5Z" fill="black"/>
<path d="M2 18.5V20.5C2 21.3284 2.67157 22 3.5 22H5.5C6.32843 22 7 21.3284 7 20.5V18.5C7 17.6716 6.32843 17 5.5 17H3.5C2.67157 17 2 17.6716 2 18.5Z" fill="black"/>
<path d="M13 3C13 2.44772 13.4477 2 14 2C14.5523 2 15 2.44772 15 3C15 3.55228 14.5523 4 14 4C13.4477 4 13 3.55228 13 3Z" fill="black"/>
<path d="M10 4C9.44772 4 9 4.44772 9 5V7C9 7.55228 9.44772 8 10 8H9C8.44772 8 8 8.44772 8 9C8 9.55228 8.44772 10 9 10C9.55228 10 10 9.55228 10 9V13C10 13.5523 10.4477 14 11 14H14C13.4477 14 13 14.4477 13 15V16H10C9.44772 16 9 16.4477 9 17C9 17.5523 9.44772 18 10 18H11V20H10C9.44772 20 9 20.4477 9 21C9 21.5523 9.44772 22 10 22H12C12.5523 22 13 21.5523 13 21V16H14C14.5523 16 15 15.5523 15 15C15 14.4477 14.5523 14 14 14H15C15.5523 14 16 13.5523 16 13C16 12.4477 15.5523 12 15 12H12V9C12 9.55228 12.4477 10 13 10H14C14.5523 10 15 9.55228 15 9C15 8.44772 14.5523 8 14 8H12C12.5523 8 13 7.55228 13 7C13 6.44772 12.5523 6 12 6H11V5C11 4.44772 10.5523 4 10 4Z" fill="black"/>
<path d="M13 4C12.4477 4 12 4.44772 12 5C12 5.55228 12.4477 6 13 6C13.5523 6 14 5.55228 14 5C14 4.44772 13.5523 4 13 4Z" fill="black"/>
<path d="M18 16C17.4477 16 17 15.5523 17 15V13C17 12.4477 17.4477 12 18 12C18.5523 12 19 12.4477 19 13V14H20C20.5523 14 21 14.4477 21 15C21 15.5523 20.5523 16 20 16H19C19.5523 16 20 16.4477 20 17V18H21C21.5523 18 22 18.4477 22 19V21C22 21.5523 21.5523 22 21 22C20.4477 22 20 21.5523 20 21V20H19C18.4477 20 18 19.5523 18 19V18H15C14.4477 18 14 17.5523 14 17C14 16.4477 14.4477 16 15 16H18Z" fill="black"/>
<path d="M21 12C20.4477 12 20 12.4477 20 13C20 13.5523 20.4477 14 21 14C21.5523 14 22 13.5523 22 13C22 12.4477 21.5523 12 21 12Z" fill="black"/>
<path d="M18 20C17.4477 20 17 20.4477 17 21C17 21.5523 17.4477 22 18 22C18.5523 22 19 21.5523 19 21C19 20.4477 18.5523 20 18 20Z" fill="black"/>
<path d="M15 19C14.4477 19 14 19.4477 14 20C14 20.5523 14.4477 21 15 21C15.5523 21 16 20.5523 16 20C16 19.4477 15.5523 19 15 19Z" fill="black"/>
<path d="M6 12H7C7.55228 12 8 12.4477 8 13C8 13.5523 7.55228 14 7 14H3C2.44772 14 2 13.5523 2 13V11C2 10.4477 2.44772 10 3 10H5C5.55228 10 6 10.4477 6 11V12Z" fill="black"/>
<path d="M17 9C16.4477 9 16 9.44772 16 10C16 10.5523 16.4477 11 17 11H21C21.5523 11 22 10.5523 22 10C22 9.44772 21.5523 9 21 9H17Z" fill="black"/>
</svg>
