<svg width="24" height="24" viewBox="0 0 24 24" fill="none" xmlns="http://www.w3.org/2000/svg">
<path fill-rule="evenodd" clip-rule="evenodd" d="M4 18.812V5C4 3.34315 5.34315 2 7 2H17C18.6569 2 20 3.34315 20 5V18.812C20 20.7361 17.9751 21.9876 16.2541 21.1271C16.0852 21.0426 15.9076 20.9769 15.7244 20.9311L12.7276 20.1819C12.2499 20.0625 11.7501 20.0625 11.2724 20.1819L8.27564 20.9311C8.09243 20.9769 7.91478 21.0426 7.74587 21.1271C6.02488 21.9876 4 20.7361 4 18.812ZM8 6C7.44772 6 7 6.44772 7 7C7 7.55228 7.44772 8 8 8H16C16.5523 8 17 7.55228 17 7C17 6.44772 16.5523 6 16 6H8ZM7 12C7 11.4477 7.44772 11 8 11H16C16.5523 11 17 11.4477 17 12C17 12.5523 16.5523 13 16 13H8C7.44772 13 7 12.5523 7 12ZM8 16C7.44772 16 7 16.4477 7 17C7 17.5523 7.44772 18 8 18H10.6667C11.219 18 11.6667 17.5523 11.6667 17C11.6667 16.4477 11.219 16 10.6667 16H8ZM13.3333 16C12.781 16 12.3333 16.4477 12.3333 17C12.3333 17.5523 12.781 18 13.3333 18H16C16.5523 18 17 17.5523 17 17C17 16.4477 16.5523 16 16 16H13.3333Z" fill="black"/>
</svg>
