<svg width="24" height="24" viewBox="0 0 24 24" fill="none" xmlns="http://www.w3.org/2000/svg">
<path fill-rule="evenodd" clip-rule="evenodd" d="M5 2C3.34315 2 2 3.34315 2 5V19C2 20.6569 3.34315 22 5 22H19C20.6569 22 22 20.6569 22 19V5C22 3.34315 20.6569 2 19 2H5ZM20.4571 8.70711C20.8476 8.31658 20.8476 7.68342 20.4571 7.29289L16.4571 3.29289C16.0666 2.90237 15.4334 2.90237 15.0429 3.29289C14.6524 3.68342 14.6524 4.31658 15.0429 4.70711L17.3358 7H9.75C6.16015 7 3.25 9.91015 3.25 13.5C3.25 17.0899 6.16015 20 9.75 20H17.75C18.3023 20 18.75 19.5523 18.75 19C18.75 18.4477 18.3023 18 17.75 18H9.75C7.26472 18 5.25 15.9853 5.25 13.5C5.25 11.0147 7.26472 9 9.75 9H17.3358L15.0429 11.2929C14.6524 11.6834 14.6524 12.3166 15.0429 12.7071C15.4334 13.0976 16.0666 13.0976 16.4571 12.7071L20.4571 8.70711Z" fill="black"/>
</svg>
