<svg width="24" height="24" viewBox="0 0 24 24" fill="none" xmlns="http://www.w3.org/2000/svg">
<path fill-rule="evenodd" clip-rule="evenodd" d="M2 5C2 3.34315 3.34315 2 5 2H19C20.6569 2 22 3.34315 22 5V19C22 20.6569 20.6569 22 19 22H5C3.34315 22 2 20.6569 2 19V5ZM17 4C16.4477 4 16 4.44772 16 5V5.39987C14.7712 4.51968 13.2799 4 11.6664 4C7.38691 4 4 7.6283 4 12C4 12.5523 4.44772 13 5 13C5.55229 13 6 12.5523 6 12C6 8.63971 8.58239 6 11.6664 6C12.6926 6 13.6595 6.28923 14.4951 6.8H14.333C13.7807 6.8 13.333 7.24771 13.333 7.8C13.333 8.35228 13.7807 8.8 14.333 8.8H17C17.5523 8.8 18 8.35228 18 7.8V5C18 4.44772 17.5523 4 17 4ZM8 19C8 19.5523 7.55228 20 7 20C6.44772 20 6 19.5523 6 19V16.2C6 15.6477 6.44772 15.2 7 15.2H9.66705C10.2193 15.2 10.667 15.6477 10.667 16.2C10.667 16.7523 10.2193 17.2 9.66705 17.2H9.50489C10.3405 17.7108 11.3074 18 12.3336 18C15.4176 18 18 15.3603 18 12C18 11.4477 18.4477 11 19 11C19.5523 11 20 11.4477 20 12C20 16.3717 16.6131 20 12.3336 20C10.7201 20 9.22884 19.4803 8 18.6001V19Z" fill="black"/>
</svg>
