<svg width="24" height="24" viewBox="0 0 24 24" fill="none" xmlns="http://www.w3.org/2000/svg">
<path fill-rule="evenodd" clip-rule="evenodd" d="M3.12087 9.87824L9.87824 3.12087C11.0498 1.94929 12.9493 1.94929 14.1209 3.12087L20.8783 9.87824C22.0498 11.0498 22.0498 12.9493 20.8783 14.1209L14.1209 20.8783C12.9493 22.0498 11.0498 22.0498 9.87824 20.8783L3.12087 14.1209C1.94929 12.9493 1.94929 11.0498 3.12087 9.87824ZM13.752 7.7079C13.3278 7.35434 12.6972 7.41166 12.3436 7.83594C12.059 8.17754 12.0407 8.65285 12.2658 9.00966C10.9078 9.7798 9.99955 11.2381 9.99955 12.8984L9.99955 15.7732C9.99955 16.3255 10.4473 16.7732 10.9995 16.7732C11.5518 16.7732 11.9995 16.3255 11.9995 15.7732V12.8984C11.9995 12.3045 12.21 11.7574 12.562 11.3299C12.6482 11.5554 12.8158 11.7505 13.0487 11.8669C13.5427 12.1139 14.1434 11.9137 14.3903 11.4197L15.1507 9.89903C15.2319 9.74378 15.2734 9.56519 15.2623 9.37754C15.2454 9.08944 15.1081 8.83702 14.9021 8.6663L13.752 7.7079Z" fill="black"/>
</svg>
