<svg width="24" height="24" viewBox="0 0 24 24" fill="none" xmlns="http://www.w3.org/2000/svg">
<path fill-rule="evenodd" clip-rule="evenodd" d="M6.39647 11.1782C15.3708 1.57323 19.5116 2.45088 20.8595 3.02469C21.4333 4.37256 22.311 8.51343 12.706 17.4877C12.3797 12.9187 10.9654 11.5045 6.39647 11.1782ZM17.3297 8.67612C16.7439 9.26191 15.7942 9.26191 15.2084 8.67612C14.6226 8.09033 14.6226 7.14059 15.2084 6.5548C15.7942 5.96901 16.7439 5.96901 17.3297 6.5548C17.9155 7.14059 17.9155 8.09033 17.3297 8.67612Z" fill="black"/>
<path d="M9.19798 6.71802C8.26799 6.02373 5.31329 6.51028 2.48047 9.9C3.31641 10.7359 4.28703 10.5208 5.02169 10.358C5.26588 10.3039 5.48401 10.2556 5.66245 10.2536L9.19798 6.71802Z" fill="black"/>
<path d="M16.9763 14.6868C17.6706 15.6168 17.184 18.5715 13.7943 21.4043C12.9584 20.5683 13.1735 19.5977 13.3363 18.8631C13.3904 18.6189 13.4387 18.4007 13.4408 18.2223L16.9763 14.6868Z" fill="black"/>
<path d="M6.36942 17.5151C6.36942 17.5151 6.84083 15.158 7.43009 14.3331C7.43009 14.3331 8.70003 14.1888 9.19785 14.6866C9.69567 15.1845 9.55141 16.4544 9.55141 16.4544C8.37289 17.1615 6.36942 17.5151 6.36942 17.5151Z" fill="black"/>
</svg>
