<svg width="24" height="24" viewBox="0 0 24 24" fill="none" xmlns="http://www.w3.org/2000/svg">
<path fill-rule="evenodd" clip-rule="evenodd" d="M7.53857 18C7.09261 4.86248 10.6412 2.55504 12.0001 2.00769C13.3589 2.55504 16.9075 4.86248 16.4616 18C13.0001 15 11.0001 15 7.53857 18ZM13.5001 8.5C13.5001 9.32843 12.8285 10 12.0001 10C11.1717 10 10.5001 9.32843 10.5001 8.5C10.5001 7.67157 11.1717 7 12.0001 7C12.8285 7 13.5001 7.67157 13.5001 8.5Z" fill="black"/>
<path d="M6.50008 13C5.35153 13.1667 3.60629 15.6 4.00008 20C5.18228 20 5.71652 19.1616 6.12088 18.527C6.25529 18.316 6.37534 18.1276 6.50008 18V13Z" fill="black"/>
<path d="M17.5001 13C18.6486 13.1667 20.3939 15.6 20.0001 20C18.8179 20 18.2836 19.1616 17.8793 18.527C17.7449 18.316 17.6248 18.1276 17.5001 18V13Z" fill="black"/>
<path d="M12.0001 22.5C12.0001 22.5 10.6667 20.5 10.5001 19.5C10.5001 19.5 11.2961 18.5 12.0001 18.5C12.7041 18.5 13.5001 19.5 13.5001 19.5C13.1667 20.8333 12.0001 22.5 12.0001 22.5Z" fill="black"/>
</svg>
