<svg width="24" height="24" viewBox="0 0 24 24" fill="none" xmlns="http://www.w3.org/2000/svg">
<path fill-rule="evenodd" clip-rule="evenodd" d="M5 2C3.34315 2 2 3.34315 2 5V19C2 20.6569 3.34315 22 5 22H19C20.6569 22 22 20.6569 22 19V5C22 3.34315 20.6569 2 19 2H5ZM16.6005 5C16.6005 4.44772 17.0482 4 17.6005 4C18.1528 4 18.6005 4.44772 18.6005 5V7.8C18.6005 8.35228 18.1528 8.8 17.6005 8.8H14.8C14.2477 8.8 13.8 8.35228 13.8 7.8C13.8 7.24771 14.2477 6.8 14.8 6.8H14.9958C14.114 6.29086 13.091 6 12 6C8.68629 6 6 8.68629 6 12C6 15.3137 8.68629 18 12 18C15.3137 18 18 15.3137 18 12C18 11.4477 18.4477 11 19 11C19.5523 11 20 11.4477 20 12C20 16.4183 16.4183 20 12 20C7.58172 20 4 16.4183 4 12C4 7.58172 7.58172 4 12 4C13.7126 4 15.2996 4.53862 16.6005 5.45452V5Z" fill="black"/>
</svg>
