<svg width="24" height="24" viewBox="0 0 24 24" fill="none" xmlns="http://www.w3.org/2000/svg">
<path fill-rule="evenodd" clip-rule="evenodd" d="M5 2C3.34315 2 2 3.34315 2 5V19C2 20.6569 3.34315 22 5 22H19C20.6569 22 22 20.6569 22 19V5C22 3.34315 20.6569 2 19 2H5ZM7.39949 5C7.39949 4.44772 6.95177 4 6.39949 4C5.8472 4 5.39949 4.44772 5.39949 5V7.8C5.39949 8.35228 5.8472 8.8 6.39949 8.8H9.2C9.75228 8.8 10.2 8.35228 10.2 7.8C10.2 7.24771 9.75228 6.8 9.2 6.8H9.00425C9.88602 6.29086 10.909 6 12 6C15.3137 6 18 8.68629 18 12C18 15.3137 15.3137 18 12 18C8.68629 18 6 15.3137 6 12C6 11.4477 5.55228 11 5 11C4.44772 11 4 11.4477 4 12C4 16.4183 7.58172 20 12 20C16.4183 20 20 16.4183 20 12C20 7.58172 16.4183 4 12 4C10.2874 4 8.70041 4.53862 7.39949 5.45452V5Z" fill="black"/>
</svg>
