<svg width="24" height="24" viewBox="0 0 24 24" fill="none" xmlns="http://www.w3.org/2000/svg">
<path fill-rule="evenodd" clip-rule="evenodd" d="M5.29445 12.7191L3.19254 9.286C1.96056 7.27377 2.50698 4.65032 4.43989 3.29729C5.97713 2.22122 8.02317 2.22122 9.56042 3.29729C11.4933 4.65032 12.0397 7.27377 10.8078 9.286L8.70585 12.7191C8.4142 13.1955 7.97288 13.4938 7.4938 13.614C7.46562 13.8605 7.34617 14.097 7.14047 14.2685C6.82592 14.5306 6.50638 15.0335 6.47373 15.6185C6.44419 16.1477 6.64157 16.8996 7.64046 17.732C8.65101 18.5742 10.331 19.1912 12.1845 19.6126C13.2986 19.8659 14.422 20.0372 15.4053 20.1506L13.6576 17.296C12.4256 15.2838 12.9721 12.6603 14.905 11.3073C16.4422 10.2312 18.4883 10.2312 20.0255 11.3073C21.9584 12.6603 22.5048 15.2838 21.2729 17.296L19.1709 20.7291C18.8766 21.2099 18.4298 21.5093 17.9456 21.6273C17.802 22.0431 17.3939 22.3287 16.9338 22.298C15.6523 22.2126 13.6966 22.0075 11.7411 21.5629C9.81957 21.126 7.74954 20.4263 6.36009 19.2685C4.95898 18.1009 4.40637 16.7695 4.47684 15.507C4.53337 14.4942 4.98663 13.629 5.53614 13.0394C5.44758 12.9435 5.36645 12.8367 5.29445 12.7191ZM7.00024 8.70508C7.96674 8.70508 8.75024 7.92158 8.75024 6.95508C8.75024 5.98858 7.96674 5.20508 7.00024 5.20508C6.03375 5.20508 5.25024 5.98858 5.25024 6.95508C5.25024 7.92158 6.03375 8.70508 7.00024 8.70508ZM17.4702 16.7102C18.4367 16.7102 19.2202 15.9267 19.2202 14.9602C19.2202 13.9937 18.4367 13.2102 17.4702 13.2102C16.5037 13.2102 15.7202 13.9937 15.7202 14.9602C15.7202 15.9267 16.5037 16.7102 17.4702 16.7102Z" fill="black"/>
</svg>
