<svg width="24" height="24" viewBox="0 0 24 24" fill="none" xmlns="http://www.w3.org/2000/svg">
<path d="M20.5 20V15C20.5 14.1716 19.8284 13.5 19 13.5H4C3.17157 13.5 2.5 14.1716 2.5 15L2.5 20C2.5 20.8284 3.17157 21.5 4 21.5H19C19.8284 21.5 20.5 20.8284 20.5 20Z" fill="black"/>
<path d="M19 2.5L4 2.5C3.17157 2.5 2.5 3.17157 2.5 4L2.5 9C2.5 9.82843 3.17157 10.5 4 10.5H19C19.8284 10.5 20.5 9.82843 20.5 9L20.5 4C20.5 3.17157 19.8284 2.5 19 2.5Z" fill="black"/>
<path d="M20.5 20V15C20.5 14.1716 19.8284 13.5 19 13.5H4C3.17157 13.5 2.5 14.1716 2.5 15L2.5 20C2.5 20.8284 3.17157 21.5 4 21.5H19C19.8284 21.5 20.5 20.8284 20.5 20Z" fill="black"/>
<path d="M19 2.5L4 2.5C3.17157 2.5 2.5 3.17157 2.5 4L2.5 9C2.5 9.82843 3.17157 10.5 4 10.5H19C19.8284 10.5 20.5 9.82843 20.5 9L20.5 4C20.5 3.17157 19.8284 2.5 19 2.5Z" fill="black"/>
</svg>
