<svg width="24" height="24" viewBox="0 0 24 24" fill="none" xmlns="http://www.w3.org/2000/svg">
<path fill-rule="evenodd" clip-rule="evenodd" d="M4 6V18C4 19.6569 5.34315 21 7 21H8V19C8 17.8954 8.89543 17 10 17H14.2C15.3046 17 16.2 17.8954 16.2 19V21H17C18.6569 21 20 19.6569 20 18V8.7997C20 7.97047 19.6568 7.17823 19.0518 6.61108L16.0655 3.81139C15.5094 3.2901 14.7758 3 14.0137 3H7C5.34315 3 4 4.34315 4 6ZM8.5 6C7.94772 6 7.5 6.44772 7.5 7C7.5 7.55228 7.94772 8 8.5 8H15.2C15.7523 8 16.2 7.55228 16.2 7C16.2 6.44772 15.7523 6 15.2 6H8.5Z" fill="black"/>
<path d="M14.2 19H10V20H14.2V19Z" fill="black"/>
</svg>
