<svg width="24" height="24" viewBox="0 0 24 24" fill="none" xmlns="http://www.w3.org/2000/svg">
<path d="M2 6C2 3.79086 3.79086 2 6 2H8C8.55228 2 9 2.44772 9 3C9 3.55228 8.55228 4 8 4H6C4.89543 4 4 4.89543 4 6V8C4 8.55228 3.55228 9 3 9C2.44772 9 2 8.55228 2 8V6Z" fill="black"/>
<path d="M22 6C22 3.79086 20.2091 2 18 2H16C15.4477 2 15 2.44772 15 3C15 3.55228 15.4477 4 16 4H18C19.1046 4 20 4.89543 20 6V8C20 8.55228 20.4477 9 21 9C21.5523 9 22 8.55228 22 8V6Z" fill="black"/>
<path d="M6 22C3.79086 22 2 20.2091 2 18V16C2 15.4477 2.44772 15 3 15C3.55228 15 4 15.4477 4 16V18C4 19.1046 4.89543 20 6 20H8C8.55228 20 9 20.4477 9 21C9 21.5523 8.55228 22 8 22H6Z" fill="black"/>
<path d="M22 18C22 20.2091 20.2091 22 18 22H16C15.4477 22 15 21.5523 15 21C15 20.4477 15.4477 20 16 20H18C19.1046 20 20 19.1046 20 18V16C20 15.4477 20.4477 15 21 15C21.5523 15 22 15.4477 22 16V18Z" fill="black"/>
<path d="M2 12C1.44772 12 1 12.4477 1 13C1 13.5523 1.44772 14 2 14H22C22.5523 14 23 13.5523 23 13C23 12.4477 22.5523 12 22 12H2Z" fill="black"/>
</svg>
