<svg width="24" height="24" viewBox="0 0 24 24" fill="none" xmlns="http://www.w3.org/2000/svg">
<path d="M15.9153 3.40299C16.1377 2.89748 15.9083 2.30736 15.4027 2.08494C14.8972 1.86251 14.3071 2.092 14.0847 2.59751L12 7.33543L9.91532 2.59751C9.69289 2.092 9.10278 1.86251 8.59726 2.08494C8.09175 2.30736 7.86226 2.89748 8.08468 3.40299L10.9075 9.81843L8.60099 15.0605C8.40682 15.021 8.20583 15.0003 8 15.0003C6.34315 15.0003 5 16.3434 5 18.0003C5 19.6571 6.34315 21.0003 8 21.0003C9.65685 21.0003 11 19.6571 11 18.0003C11 17.2728 10.7411 16.6059 10.3104 16.0865C10.351 16.0303 10.3863 15.969 10.4153 15.903L12 12.3014L13.5847 15.903C13.6137 15.969 13.649 16.0303 13.6896 16.0865C13.2589 16.6058 13 17.2728 13 18.0003C13 19.6571 14.3431 21.0003 16 21.0003C17.6569 21.0003 19 19.6571 19 18.0003C19 16.3434 17.6569 15.0003 16 15.0003C15.7942 15.0003 15.5932 15.021 15.399 15.0605L13.0925 9.81843L15.9153 3.40299Z" fill="black"/>
</svg>
