<svg width="24" height="24" viewBox="0 0 24 24" fill="none" xmlns="http://www.w3.org/2000/svg">
<path d="M2 6C2 3.79086 3.79086 2 6 2H8C8.55228 2 9 2.44772 9 3C9 3.55228 8.55228 4 8 4H6C4.89543 4 4 4.89543 4 6V8C4 8.55228 3.55228 9 3 9C2.44772 9 2 8.55228 2 8V6Z" fill="black"/>
<path d="M22 6C22 3.79086 20.2091 2 18 2H16C15.4477 2 15 2.44772 15 3C15 3.55228 15.4477 4 16 4H18C19.1046 4 20 4.89543 20 6V8C20 8.55228 20.4477 9 21 9C21.5523 9 22 8.55228 22 8V6Z" fill="black"/>
<path d="M6 22C3.79086 22 2 20.2091 2 18V16C2 15.4477 2.44772 15 3 15C3.55228 15 4 15.4477 4 16V18C4 19.1046 4.89543 20 6 20H8C8.55228 20 9 20.4477 9 21C9 21.5523 8.55228 22 8 22H6Z" fill="black"/>
<path d="M22 18C22 20.2091 20.2091 22 18 22H16C15.4477 22 15 21.5523 15 21C15 20.4477 15.4477 20 16 20H18C19.1046 20 20 19.1046 20 18V16C20 15.4477 20.4477 15 21 15C21.5523 15 22 15.4477 22 16V18Z" fill="black"/>
<path d="M8.52098 10.6903C8.42476 10.4017 8.19826 10.1752 7.90961 10.079C7.61584 9.98104 7.61584 9.56552 7.90961 9.4676C8.19826 9.37138 8.42476 9.14488 8.52098 8.85623C8.6189 8.56246 9.03442 8.56246 9.13234 8.85623C9.22856 9.14488 9.45506 9.37138 9.74371 9.4676C10.0375 9.56552 10.0375 9.98104 9.74371 10.079C9.45506 10.1752 9.22856 10.4017 9.13234 10.6903C9.03442 10.9841 8.6189 10.9841 8.52098 10.6903Z" fill="black"/>
<path fill-rule="evenodd" clip-rule="evenodd" d="M9 5.6001C6.79086 5.6001 5 7.39096 5 9.6001V14.4001C5 16.6092 6.79086 18.4001 9 18.4001H15C17.2091 18.4001 19 16.6092 19 14.4001V9.6001C19 7.39096 17.2091 5.6001 15 5.6001H9ZM7 9.6001C7 8.49553 7.89543 7.6001 9 7.6001H15C16.1046 7.6001 17 8.49553 17 9.6001V13.5332L15.4267 12.4844C14.5224 11.8815 13.3021 12.1112 12.6788 13.0016L12.5 13.257C11.7164 12.8136 10.524 12.8631 10.0079 13.6009L8.60586 15.6054C8.4718 15.797 8.3999 16.0252 8.3999 16.2591C8.3999 16.2758 8.40026 16.2924 8.40097 16.3088C7.58905 16.0543 7 15.296 7 14.4001V9.6001Z" fill="black"/>
</svg>
