<svg width="24" height="24" viewBox="0 0 24 24" fill="none" xmlns="http://www.w3.org/2000/svg">
<path d="M16.5927 5.63069C17.0738 5.79105 17.4513 6.16855 17.6116 6.64963C17.7748 7.13925 18.4674 7.13925 18.6306 6.64963C18.7909 6.16855 19.1684 5.79105 19.6495 5.63069C20.1391 5.46748 20.1391 4.77494 19.6495 4.61174C19.1684 4.45138 18.7909 4.07388 18.6306 3.59279C18.4674 3.10318 17.7748 3.10318 17.6116 3.59279C17.4513 4.07388 17.0738 4.45138 16.5927 4.61174C16.1031 4.77494 16.1031 5.46748 16.5927 5.63069Z" fill="black"/>
<path d="M19.9599 10.632L5.82069 4.26938C4.6781 3.75522 3.44605 4.78553 3.74993 6.00107L4.734 9.93734C4.89224 10.5703 5.44152 11.0284 6.09264 11.0704L20.4997 11.9999L6.09264 12.9294C5.44152 12.9714 4.89224 13.4295 4.734 14.0625L3.74993 17.9988C3.44604 19.2143 4.6781 20.2446 5.82069 19.7304L19.9599 13.3678C21.1392 12.8371 21.1392 11.1627 19.9599 10.632Z" fill="black"/>
<path d="M16.5927 5.63069C17.0738 5.79105 17.4513 6.16855 17.6116 6.64963C17.7748 7.13925 18.4674 7.13925 18.6306 6.64963C18.7909 6.16855 19.1684 5.79105 19.6495 5.63069C20.1391 5.46748 20.1391 4.77494 19.6495 4.61174C19.1684 4.45138 18.7909 4.07388 18.6306 3.59279C18.4674 3.10318 17.7748 3.10318 17.6116 3.59279C17.4513 4.07388 17.0738 4.45138 16.5927 4.61174C16.1031 4.77494 16.1031 5.46748 16.5927 5.63069Z" fill="black"/>
<path d="M19.9599 10.632L5.82069 4.26938C4.6781 3.75522 3.44605 4.78553 3.74993 6.00107L4.734 9.93734C4.89224 10.5703 5.44152 11.0284 6.09264 11.0704L20.4997 11.9999L6.09264 12.9294C5.44152 12.9714 4.89224 13.4295 4.734 14.0625L3.74993 17.9988C3.44604 19.2143 4.6781 20.2446 5.82069 19.7304L19.9599 13.3678C21.1392 12.8371 21.1392 11.1627 19.9599 10.632Z" fill="black"/>
</svg>
