<svg width="24" height="24" viewBox="0 0 24 24" fill="none" xmlns="http://www.w3.org/2000/svg">
<path fill-rule="evenodd" clip-rule="evenodd" d="M5 4.5H19C20.6569 4.5 22 5.84315 22 7.5C22 9.15685 20.6569 10.5 19 10.5H5C3.34315 10.5 2 9.15685 2 7.5C2 5.84315 3.34315 4.5 5 4.5ZM15 6.5C14.4477 6.5 14 6.94772 14 7.5C14 8.05228 14.4477 8.5 15 8.5H19.5C20.0523 8.5 20.5 8.05228 20.5 7.5C20.5 6.94772 20.0523 6.5 19.5 6.5H15ZM9.5 7.5C9.5 6.94772 9.94772 6.5 10.5 6.5H12.5C13.0523 6.5 13.5 6.94772 13.5 7.5C13.5 8.05228 13.0523 8.5 12.5 8.5H10.5C9.94772 8.5 9.5 8.05228 9.5 7.5Z" fill="black"/>
<path fill-rule="evenodd" clip-rule="evenodd" d="M5 13.5H19C20.6569 13.5 22 14.8431 22 16.5C22 18.1569 20.6569 19.5 19 19.5H5C3.34315 19.5 2 18.1569 2 16.5C2 14.8431 3.34315 13.5 5 13.5ZM15 15.5C14.4477 15.5 14 15.9477 14 16.5C14 17.0523 14.4477 17.5 15 17.5H19.5C20.0523 17.5 20.5 17.0523 20.5 16.5C20.5 15.9477 20.0523 15.5 19.5 15.5H15ZM9.5 16.5C9.5 15.9477 9.94772 15.5 10.5 15.5H12.5C13.0523 15.5 13.5 15.9477 13.5 16.5C13.5 17.0523 13.0523 17.5 12.5 17.5H10.5C9.94772 17.5 9.5 17.0523 9.5 16.5Z" fill="black"/>
</svg>
