<svg width="24" height="24" viewBox="0 0 24 24" fill="none" xmlns="http://www.w3.org/2000/svg">
<path d="M19.4545 14C20.5281 14 21.4699 14.5639 22 15.4116V6C22 4.34315 20.6569 3 19 3H5C3.34315 3 2 4.34315 2 6V15.4116C2.53011 14.5639 3.47193 14 4.54545 14H19.4545Z" fill="black"/>
<path fill-rule="evenodd" clip-rule="evenodd" d="M5 15H19C20.6569 15 22 16.3431 22 18C22 19.6569 20.6569 21 19 21H5C3.34315 21 2 19.6569 2 18C2 16.3431 3.34315 15 5 15ZM13.8182 17C13.2659 17 12.8182 17.4477 12.8182 18C12.8182 18.5523 13.2659 19 13.8182 19H17.9091C18.4614 19 18.9091 18.5523 18.9091 18C18.9091 17.4477 18.4614 17 17.9091 17H13.8182ZM8.72727 18C8.72727 17.4477 9.17499 17 9.72727 17H11.5455C12.0977 17 12.5455 17.4477 12.5455 18C12.5455 18.5523 12.0977 19 11.5455 19H9.72727C9.17499 19 8.72727 18.5523 8.72727 18Z" fill="black"/>
</svg>
