<svg width="24" height="24" viewBox="0 0 24 24" fill="none" xmlns="http://www.w3.org/2000/svg">
<path fill-rule="evenodd" clip-rule="evenodd" d="M10.1922 2.74731C11.1994 1.77298 12.7983 1.77309 13.8055 2.74731C14.3815 3.30452 15.1829 3.56462 15.9764 3.45239C17.3638 3.25643 18.6571 4.19626 18.8993 5.57641C19.0377 6.36574 19.5322 7.04747 20.2401 7.42309C21.4779 8.07985 21.9724 9.59967 21.3573 10.8586C21.0053 11.5786 21.0053 12.4209 21.3573 13.1409C21.9727 14.3999 21.4781 15.9206 20.2401 16.5774C19.5324 16.953 19.0378 17.634 18.8993 18.4231C18.6572 19.8033 17.3639 20.7431 15.9764 20.5471C15.183 20.4349 14.3815 20.695 13.8055 21.2522C12.7983 22.2266 11.1995 22.2266 10.1922 21.2522C9.61632 20.6952 8.81566 20.435 8.02233 20.5471C6.6347 20.7434 5.34161 19.8035 5.09948 18.4231C4.96093 17.6339 4.4655 16.9529 3.75768 16.5774C2.51971 15.9205 2.02601 14.3999 2.64147 13.1409C2.9933 12.4209 2.99338 11.5785 2.64147 10.8586C2.02619 9.59968 2.51991 8.07995 3.75768 7.42309C4.46561 7.04748 4.96101 6.36576 5.09948 5.57641C5.34169 4.19615 6.63476 3.25612 8.02233 3.45239C8.8158 3.56458 9.61629 3.3045 10.1922 2.74731ZM11.9989 7.00024C9.23754 7.00033 6.99889 9.23887 6.99889 12.0002C6.99901 14.7615 9.23761 17.0001 11.9989 17.0002C14.7602 17.0002 16.9988 14.7616 16.9989 12.0002C16.9989 9.23882 14.7603 7.00024 11.9989 7.00024Z" fill="black"/>
</svg>
