<svg width="24" height="24" viewBox="0 0 24 24" fill="none" xmlns="http://www.w3.org/2000/svg">
<path d="M6 6C6 6.05652 6.00469 6.11194 6.0137 6.1659C4.84136 6.57385 4 7.68867 4 9C4 10.3113 4.84135 11.4262 6.0137 11.8341C6.00469 11.8881 6 11.9435 6 12L6 21C6 21.5523 6.44772 22 7 22C7.55228 22 8 21.5523 8 21L8 12C8 11.9435 7.99531 11.8881 7.9863 11.8341C9.15864 11.4262 10 10.3113 10 9C10 7.68867 9.15864 6.57385 7.9863 6.1659C7.99531 6.11194 8 6.05652 8 6L8 3C8 2.44772 7.55228 2 7 2C6.44772 2 6 2.44772 6 3L6 6Z" fill="black"/>
<path d="M16.0137 17.8341C16.0047 17.8881 16 17.9435 16 18V21C16 21.5523 16.4477 22 17 22C17.5523 22 18 21.5523 18 21V18C18 17.9435 17.9953 17.8881 17.9863 17.8341C19.1586 17.4262 20 16.3113 20 15C20 13.6887 19.1586 12.5738 17.9863 12.1659C17.9953 12.1119 18 12.0565 18 12V3C18 2.44772 17.5523 2 17 2C16.4477 2 16 2.44772 16 3V12C16 12.0565 16.0047 12.1119 16.0137 12.1659C14.8414 12.5738 14 13.6887 14 15C14 16.3113 14.8414 17.4262 16.0137 17.8341Z" fill="black"/>
</svg>
