<svg width="24" height="24" viewBox="0 0 24 24" fill="none" xmlns="http://www.w3.org/2000/svg">
<path d="M20 6C20 7.65685 18.6569 9 17 9C16.1173 9 15.3236 8.61878 14.7747 8.01199L14.7017 8.05821C14.4877 8.19354 14.1865 8.38125 13.8365 8.59167C13.1434 9.00833 12.2321 9.53026 11.4213 9.90691C10.7305 10.2279 9.69098 10.6165 8.85343 10.9161C8.49501 11.0444 8.16591 11.159 7.90516 11.2487C7.96707 11.4888 8 11.7406 8 12C8 12.2559 7.96796 12.5043 7.90767 12.7415C8.15991 12.8244 8.47404 12.9298 8.81715 13.0496C9.6485 13.34 10.7016 13.7328 11.4472 14.1056C12.1632 14.4636 13.063 14.9783 13.7699 15.3945C14.1264 15.6044 14.4395 15.7926 14.6635 15.9283C14.7017 15.9515 14.7373 15.9731 14.7701 15.993C15.3193 15.3833 16.1149 15 17 15C18.6569 15 20 16.3431 20 18C20 19.6569 18.6569 21 17 21C15.3431 21 14 19.6569 14 18C14 17.9557 14.001 17.9116 14.0029 17.8677C13.9935 17.8623 13.9841 17.8567 13.9748 17.851L13.952 17.8369L13.8836 17.795C13.8238 17.7584 13.7364 17.7051 13.6271 17.6389C13.4085 17.5064 13.1028 17.3227 12.7552 17.118C12.0539 16.7051 11.2037 16.2199 10.5528 15.8944C9.93158 15.5838 8.98466 15.2266 8.15772 14.9378C7.75152 14.7959 7.38669 14.6748 7.1235 14.5892C6.99203 14.5465 6.88625 14.5127 6.81372 14.4897L6.7309 14.4636L6.71812 14.4596C6.23147 14.8002 5.63907 15 5 15C3.34315 15 2 13.6569 2 12C2 10.3431 3.34315 9 5 9C5.63883 9 6.23103 9.19968 6.71758 9.54003L6.79986 9.5124C6.87515 9.48705 6.98455 9.45003 7.12001 9.40369C7.39112 9.31094 7.7657 9.18116 8.17967 9.03305C9.01982 8.73245 9.98034 8.37106 10.5787 8.09309C11.2913 7.76204 12.13 7.28397 12.806 6.87756C13.1406 6.67644 13.4288 6.49685 13.6329 6.36775C13.735 6.30325 13.8158 6.2515 13.8707 6.21614L13.933 6.17588L13.9484 6.16584L13.952 6.16351C13.9685 6.15273 13.986 6.14198 14.0029 6.13229C14.001 6.08843 14 6.04433 14 6C14 4.34315 15.3431 3 17 3C18.6569 3 20 4.34315 20 6Z" fill="black"/>
</svg>
