<svg width="24" height="24" viewBox="0 0 24 24" fill="none" xmlns="http://www.w3.org/2000/svg">
<path d="M16.7423 4.39962L18.2898 5.0861C19.3129 5.53991 20.0001 6.52408 20 7.64323C19.9998 9.61725 19.8498 12.7659 19.0062 14.8496C17.9293 17.5099 15.0339 19.6492 13.321 20.7307C12.5087 21.2437 11.4913 21.2437 10.679 20.7307C8.96609 19.6492 6.0707 17.5099 4.99378 14.8496C4.15023 12.7659 4.00017 9.61725 4 7.64323C3.99991 6.52408 4.68715 5.53991 5.71016 5.0861L7.25769 4.39962L10.8843 2.94664C11.6004 2.65971 12.3996 2.65971 13.1157 2.94664L16.7423 4.39962Z" fill="black"/>
</svg>
