<svg width="24" height="24" viewBox="0 0 24 24" fill="none" xmlns="http://www.w3.org/2000/svg">
<path fill-rule="evenodd" clip-rule="evenodd" d="M18.2898 5.0861L16.7423 4.39962L13.1157 2.94664C12.3996 2.65971 11.6004 2.65971 10.8843 2.94664L7.25769 4.39962L5.71016 5.0861C4.68715 5.53991 3.99991 6.52408 4 7.64323C4.00017 9.61725 4.15023 12.7659 4.99378 14.8496C6.0707 17.5099 8.96609 19.6492 10.679 20.7307C11.4913 21.2437 12.5087 21.2437 13.321 20.7307C15.0339 19.6492 17.9293 17.5099 19.0062 14.8496C19.8498 12.7659 19.9998 9.61725 20 7.64323C20.0001 6.52408 19.3129 5.53991 18.2898 5.0861ZM13.2426 11.828L13.9497 11.1209C14.3402 10.7304 14.3402 10.0973 13.9497 9.70673C13.5592 9.31621 12.926 9.31621 12.5355 9.70673L11.8284 10.4138L11.1213 9.70673C10.7307 9.31621 10.0976 9.31621 9.70705 9.70673C9.31652 10.0973 9.31652 10.7304 9.70705 11.1209L10.4142 11.828L9.70705 12.5352C9.31652 12.9257 9.31652 13.5588 9.70705 13.9494C10.0976 14.3399 10.7307 14.3399 11.1213 13.9494L11.8284 13.2423L12.5355 13.9494C12.926 14.3399 13.5592 14.3399 13.9497 13.9494C14.3402 13.5588 14.3402 12.9257 13.9497 12.5352L13.2426 11.828Z" fill="black"/>
</svg>
