<svg width="24" height="24" viewBox="0 0 24 24" fill="none" xmlns="http://www.w3.org/2000/svg">
<path fill-rule="evenodd" clip-rule="evenodd" d="M18.2898 5.0861L16.7423 4.39962L13.1157 2.94664C12.3996 2.65971 11.6004 2.65971 10.8843 2.94664L7.25769 4.39962L5.71016 5.0861C4.68715 5.53991 3.99991 6.52408 4 7.64323C4.00017 9.61725 4.15023 12.7659 4.99378 14.8496C6.0707 17.5099 8.96609 19.6492 10.679 20.7307C11.4913 21.2437 12.5087 21.2437 13.321 20.7307C15.0339 19.6492 17.9293 17.5099 19.0062 14.8496C19.8498 12.7659 19.9998 9.61725 20 7.64323C20.0001 6.52408 19.3129 5.53991 18.2898 5.0861ZM14.6961 11.2067C15.0866 10.8162 15.0866 10.183 14.6961 9.7925C14.3056 9.40198 13.6724 9.40198 13.2819 9.7925L11.3431 11.7312L11.0613 11.4493C10.6707 11.0588 10.0376 11.0588 9.64705 11.4493C9.25652 11.8399 9.25652 12.473 9.64705 12.8636L10.636 13.8526C11.0266 14.2431 11.6597 14.2431 12.0503 13.8526L14.6961 11.2067Z" fill="black"/>
</svg>
