<svg width="24" height="24" viewBox="0 0 24 24" fill="none" xmlns="http://www.w3.org/2000/svg">
<path fill-rule="evenodd" clip-rule="evenodd" d="M10.9923 9.41992C11.6256 9.10327 12.3716 9.10341 13.005 9.41992L21.0831 13.459C21.9031 13.869 22.3471 14.6953 22.1983 15.5068C22.0617 16.2522 21.8571 17.1091 21.5587 17.9062C21.2569 18.7124 20.8787 19.4034 20.422 19.8652C19.9012 20.3917 19.3901 20.631 18.8712 20.7217C18.3315 20.8158 17.7332 20.7586 17.0294 20.6084C16.2856 20.4496 15.6116 20.2355 14.7257 20.0195C13.8905 19.816 12.9753 19.6426 11.9991 19.6426C11.0229 19.6426 10.1078 19.816 9.27256 20.0195C8.38648 20.2355 7.71188 20.4496 6.96788 20.6084C6.26439 20.7585 5.6666 20.8158 5.12706 20.7217C4.60819 20.631 4.09697 20.3917 3.57628 19.8652C3.11955 19.4034 2.7404 18.7125 2.43858 17.9062C2.14021 17.1091 1.93657 16.2522 1.79991 15.5068C1.65118 14.6954 2.09535 13.869 2.91514 13.459L5.05772 12.3877L10.9923 9.41992ZM16.2755 6.58887C17.5181 6.58887 18.5254 7.5963 18.5255 8.83887V10.5029L13.6759 8.07812C12.6204 7.55052 11.3779 7.55049 10.3224 8.07812L5.47178 10.5029V8.83887C5.47187 7.59654 6.47953 6.58926 7.72178 6.58887H16.2755ZM13.2384 3.23047C13.3763 3.23066 13.4884 3.34251 13.4884 3.48047V5.08887H10.5099V3.48047C10.5099 3.34256 10.622 3.23073 10.7599 3.23047H13.2384Z" fill="black"/>
</svg>
