<svg width="24" height="24" viewBox="0 0 24 24" fill="none" xmlns="http://www.w3.org/2000/svg">
<path d="M9 7C9 5.34315 10.3431 4 12 4C13.525 4 14.7842 5.13782 14.975 6.6108L13.2929 8.29289C12.9024 8.68342 12.9024 9.31658 13.2929 9.70711C13.6834 10.0976 14.3166 10.0976 14.7071 9.70711L18.7071 5.70711C19.0976 5.31658 19.0976 4.68342 18.7071 4.29289C18.3166 3.90237 17.6834 3.90237 17.2929 4.29289L16.5845 5.00127C15.8132 3.23469 14.0508 2 12 2C9.23858 2 7 4.23858 7 7V20C7 20.5523 7.44772 21 8 21C8.55228 21 9 20.5523 9 20V7Z" fill="black"/>
</svg>
