<svg width="24" height="24" viewBox="0 0 24 24" fill="none" xmlns="http://www.w3.org/2000/svg">
<path fill-rule="evenodd" clip-rule="evenodd" d="M2 5C2 3.34315 3.34315 2 5 2H19C20.6569 2 22 3.34315 22 5V19C22 20.6569 20.6569 22 19 22H5C3.34315 22 2 20.6569 2 19V5ZM4.22183 4.2218C4.61235 3.83128 5.24552 3.83128 5.63604 4.2218L8.17158 6.75734V4.92891C8.17158 4.37663 8.61929 3.92891 9.17158 3.92891C9.72386 3.92891 10.1716 4.37663 10.1716 4.92891V9.17155C10.1716 9.72384 9.72386 10.1716 9.17158 10.1716L4.92894 10.1716C4.37665 10.1716 3.92894 9.72384 3.92894 9.17155C3.92894 8.61927 4.37665 8.17155 4.92894 8.17155H6.75736L4.22183 5.63602C3.83131 5.24549 3.83131 4.61233 4.22183 4.2218ZM13.8284 19.071L13.8284 14.8284C13.8284 14.2761 14.2761 13.8284 14.8284 13.8284L19.0711 13.8284C19.6234 13.8284 20.0711 14.2761 20.0711 14.8284C20.0711 15.3807 19.6234 15.8284 19.0711 15.8284L17.2426 15.8284L19.7782 18.3639C20.1687 18.7545 20.1687 19.3876 19.7782 19.7782C19.3877 20.1687 18.7545 20.1687 18.364 19.7782L15.8284 17.2426V19.071C15.8284 19.6233 15.3807 20.071 14.8284 20.071C14.2761 20.071 13.8284 19.6233 13.8284 19.071ZM19.7781 5.63604C20.1687 5.24552 20.1687 4.61235 19.7781 4.22183C19.3876 3.83131 18.7544 3.83131 18.3639 4.22183L15.8284 6.75737V4.92894C15.8284 4.37665 15.3807 3.92894 14.8284 3.92894C14.2761 3.92894 13.8284 4.37665 13.8284 4.92894L13.8284 9.17158C13.8284 9.72386 14.2761 10.1716 14.8284 10.1716H19.071C19.6233 10.1716 20.071 9.72386 20.071 9.17158C20.071 8.61929 19.6233 8.17158 19.071 8.17158L17.2426 8.17158L19.7781 5.63604ZM9.17153 13.8284L4.92889 13.8284C4.37661 13.8284 3.92889 14.2761 3.92889 14.8284C3.92889 15.3807 4.37661 15.8284 4.92889 15.8284H6.75732L4.22179 18.364C3.83126 18.7545 3.83126 19.3877 4.22179 19.7782C4.61231 20.1687 5.24547 20.1687 5.636 19.7782L8.17153 17.2426L8.17153 19.0711C8.17153 19.6234 8.61925 20.0711 9.17153 20.0711C9.72382 20.0711 10.1715 19.6234 10.1715 19.0711L10.1715 14.8284C10.1715 14.2761 9.72382 13.8284 9.17153 13.8284Z" fill="black"/>
</svg>
