<svg width="24" height="24" viewBox="0 0 24 24" fill="none" xmlns="http://www.w3.org/2000/svg">
<path fill-rule="evenodd" clip-rule="evenodd" d="M2 5C2 3.34315 3.34315 2 5 2H19C20.6569 2 22 3.34315 22 5V19C22 20.6569 20.6569 22 19 22H5C3.34315 22 2 20.6569 2 19V5ZM9.5 6.5C9.5 8.15685 8.15685 9.5 6.5 9.5H4.5C3.94772 9.5 3.5 9.05228 3.5 8.5C3.5 7.94772 3.94772 7.5 4.5 7.5H6.5C7.05228 7.5 7.5 7.05228 7.5 6.5V4.5C7.5 3.94772 7.94772 3.5 8.5 3.5C9.05228 3.5 9.5 3.94772 9.5 4.5V6.5ZM16.5 9.5C14.8431 9.5 13.5 8.15685 13.5 6.5V4.5C13.5 3.94772 13.9477 3.5 14.5 3.5C15.0523 3.5 15.5 3.94772 15.5 4.5V6.5C15.5 7.05228 15.9477 7.5 16.5 7.5H19.5C20.0523 7.5 20.5 7.94772 20.5 8.5C20.5 9.05228 20.0523 9.5 19.5 9.5H16.5ZM9.5 16.5C9.5 14.8431 8.15685 13.5 6.5 13.5H4.5C3.94772 13.5 3.5 13.9477 3.5 14.5C3.5 15.0523 3.94772 15.5 4.5 15.5H6.5C7.05228 15.5 7.5 15.9477 7.5 16.5V19.5C7.5 20.0523 7.94772 20.5 8.5 20.5C9.05228 20.5 9.5 20.0523 9.5 19.5V16.5ZM16.5 13.5C14.8431 13.5 13.5 14.8431 13.5 16.5V19.5C13.5 20.0523 13.9477 20.5 14.5 20.5C15.0523 20.5 15.5 20.0523 15.5 19.5V16.5C15.5 15.9477 15.9477 15.5 16.5 15.5H19.5C20.0523 15.5 20.5 15.0523 20.5 14.5C20.5 13.9477 20.0523 13.5 19.5 13.5H16.5Z" fill="black"/>
</svg>
