<svg width="24" height="24" viewBox="0 0 24 24" fill="none" xmlns="http://www.w3.org/2000/svg">
<path d="M20.0086 4.2821C19.6122 3.89763 18.9791 3.90737 18.5946 4.30385C18.2362 4.67344 18.2204 5.24861 18.541 5.63636H15.625C12.3692 5.63636 9.875 8.48774 9.875 11.8182C9.875 14.2114 8.11594 16 6.125 16H3C2.44772 16 2 16.4477 2 17C2 17.5523 2.44772 18 3 18H6.125C9.38076 18 11.875 15.1486 11.875 11.8182C11.875 9.42494 13.6341 7.63636 15.625 7.63636H18.9624L18.5215 8.20638C18.1836 8.64325 18.2638 9.27131 18.7007 9.6092C19.1376 9.94708 19.7656 9.86685 20.1035 9.42998L21.791 7.24816C22.1025 6.84541 22.0617 6.27291 21.6961 5.91846L20.0086 4.2821Z" fill="black"/>
<path d="M3 6C2.44772 6 2 6.44772 2 7C2 7.55229 2.44772 8 3 8H6.125C6.95567 8 7.72931 8.30108 8.36102 8.82583C8.78585 9.17873 9.41632 9.12042 9.76922 8.69559C10.1221 8.27076 10.0638 7.64029 9.63898 7.28739C8.67446 6.48617 7.45549 6 6.125 6H3Z" fill="black"/>
<path d="M20.1035 14.57C19.7656 14.1332 19.1376 14.0529 18.7007 14.3908C18.2638 14.7287 18.1836 15.3568 18.5215 15.7936L18.9624 16.3636H15.625C14.7614 16.3636 13.9586 16.0381 13.3134 15.4734C12.8978 15.1097 12.2661 15.1517 11.9023 15.5673C11.5386 15.9829 11.5807 16.6147 11.9963 16.9784C12.9779 17.8375 14.2407 18.3636 15.625 18.3636H18.541C18.2204 18.7514 18.2362 19.3266 18.5946 19.6961C18.9791 20.0926 19.6122 20.1024 20.0086 19.7179L21.6961 18.0815C22.0617 17.7271 22.1025 17.1546 21.791 16.7518L20.1035 14.57Z" fill="black"/>
</svg>
