<svg width="24" height="24" viewBox="0 0 24 24" fill="none" xmlns="http://www.w3.org/2000/svg">
<path d="M6 3H7.5L7.5 10.063C6.63739 10.285 6 11.0681 6 12C6 12.9319 6.63739 13.715 7.5 13.937L7.5 21H6C4.34315 21 3 19.6569 3 18V6C3 4.34315 4.34315 3 6 3Z" fill="black"/>
<path d="M22.7071 12.7071C23.0976 12.3166 23.0976 11.6834 22.7071 11.2929L18.7071 7.29289C18.3166 6.90237 17.6834 6.90237 17.2929 7.29289C16.9024 7.68342 16.9024 8.31658 17.2929 8.70711L19.5858 11L8 11C7.44771 11 7 11.4477 7 12C7 12.5523 7.44771 13 8 13L19.5858 13L17.2929 15.2929C16.9024 15.6834 16.9024 16.3166 17.2929 16.7071C17.6834 17.0976 18.3166 17.0976 18.7071 16.7071L22.7071 12.7071Z" fill="black"/>
</svg>
