<svg width="24" height="24" viewBox="0 0 24 24" fill="none" xmlns="http://www.w3.org/2000/svg">
<path d="M6 3H7.5L7.5 9.67157L6.58579 10.5858C5.80474 11.3668 5.80474 12.6332 6.58579 13.4142L7.5 14.3284L7.5 21H6C4.34315 21 3 19.6569 3 18V6C3 4.34315 4.34315 3 6 3Z" fill="black"/>
<path d="M7.29289 12.7071C6.90237 12.3166 6.90237 11.6834 7.29289 11.2929L11.2929 7.29289C11.6834 6.90237 12.3166 6.90237 12.7071 7.29289C13.0976 7.68342 13.0976 8.31658 12.7071 8.70711L10.4142 11L22 11C22.5523 11 23 11.4477 23 12C23 12.5523 22.5523 13 22 13L10.4142 13L12.7071 15.2929C13.0976 15.6834 13.0976 16.3166 12.7071 16.7071C12.3166 17.0976 11.6834 17.0976 11.2929 16.7071L7.29289 12.7071Z" fill="black"/>
</svg>
