<svg width="24" height="24" viewBox="0 0 24 24" fill="none" xmlns="http://www.w3.org/2000/svg">
<path d="M17.9998 2C18.5521 2 18.9998 2.44772 18.9998 3V21C18.9998 21.5523 18.5521 22 17.9998 22C17.4476 22 16.9998 21.5523 16.9998 21V3C16.9998 2.44772 17.4476 2 17.9998 2Z" fill="black"/>
<path d="M14.9998 9C14.9998 8.44772 14.5521 8 13.9998 8C13.4476 8 12.9998 8.44772 12.9998 9V21C12.9998 21.5523 13.4476 22 13.9998 22C14.5521 22 14.9998 21.5523 14.9998 21V9Z" fill="black"/>
<path d="M9.99985 12C10.5521 12 10.9998 12.4477 10.9998 13V21C10.9998 21.5523 10.5521 22 9.99985 22C9.44756 22 8.99985 21.5523 8.99985 21V13C8.99985 12.4477 9.44756 12 9.99985 12Z" fill="black"/>
<path d="M5.99985 16C6.55213 16 6.99985 16.4477 6.99985 17V21C6.99985 21.5523 6.55213 22 5.99985 22C5.44756 22 4.99985 21.5523 4.99985 21V17C4.99985 16.4477 5.44756 16 5.99985 16Z" fill="black"/>
<path d="M6.12117 4.70705C5.73064 4.31652 5.09748 4.31652 4.70696 4.70705C4.31643 5.09757 4.31643 5.73074 4.70696 6.12126L5.41406 6.82837L4.70696 7.53548C4.31643 7.926 4.31643 8.55917 4.70696 8.94969C5.09748 9.34021 5.73064 9.34021 6.12117 8.94969L6.82828 8.24258L7.53538 8.94969C7.92591 9.34021 8.55907 9.34021 8.9496 8.94969C9.34012 8.55917 9.34012 7.926 8.9496 7.53548L8.24249 6.82837L8.9496 6.12126C9.34012 5.73074 9.34012 5.09757 8.9496 4.70705C8.55907 4.31652 7.92591 4.31652 7.53538 4.70705L6.82828 5.41416L6.12117 4.70705Z" fill="black"/>
</svg>
