<svg width="24" height="24" viewBox="0 0 24 24" fill="none" xmlns="http://www.w3.org/2000/svg">
<path d="M5.00001 3C4.44773 3 4.00001 3.44772 4.00001 4C4.00001 4.55228 4.44773 5 5.00001 5H7.86497L4.23179 9.35982C3.98339 9.6579 3.92984 10.0728 4.09442 10.4242C4.259 10.7755 4.61199 11 5.00001 11H10C10.5523 11 11 10.5523 11 10C11 9.44772 10.5523 9 10 9H7.13505L10.7682 4.64018C11.0166 4.3421 11.0702 3.92723 10.9056 3.57584C10.741 3.22446 10.388 3 10 3H5.00001Z" fill="black"/>
<path d="M12 11C11.4477 11 11 11.4477 11 12C11 12.5523 11.4477 13 12 13H16.7962L11.2474 19.3415C10.9891 19.6368 10.9272 20.0559 11.0894 20.4132C11.2515 20.7705 11.6076 21 12 21H19C19.5523 21 20 20.5523 20 20C20 19.4477 19.5523 19 19 19H14.2038L19.7526 12.6585C20.011 12.3632 20.0728 11.9441 19.9106 11.5868C19.7485 11.2295 19.3924 11 19 11H12Z" fill="black"/>
</svg>
