<svg width="24" height="24" viewBox="0 0 24 24" fill="none" xmlns="http://www.w3.org/2000/svg">
<path d="M11.6605 1C12.2128 1 12.6605 1.44772 12.6605 2V4.13148L14.1058 3.16795C14.5653 2.8616 15.1862 2.98577 15.4926 3.4453C15.7989 3.90483 15.6747 4.5257 15.2152 4.83205L12.6605 6.53518V10.1546L16.3797 8.00739L16.501 5.01062C16.5233 4.45879 16.9888 4.02955 17.5406 4.05189C18.0924 4.07423 18.5217 4.53969 18.4993 5.09152L18.4292 6.82409L20.3207 5.73205C20.799 5.45591 21.4106 5.61978 21.6867 6.09808C21.9628 6.57637 21.799 7.18796 21.3207 7.4641L19.4748 8.52984L21.0319 9.29974C21.5269 9.54453 21.7298 10.1443 21.485 10.6394C21.2402 11.1345 20.6405 11.3373 20.1454 11.0926L17.3931 9.73169L13.5623 11.9434L16.8797 13.8587L19.5356 12.4654C20.0247 12.2088 20.6291 12.3973 20.8857 12.8863C21.1423 13.3754 20.9538 13.9799 20.4647 14.2364L18.9292 15.042L20.8207 16.134C21.299 16.4102 21.4628 17.0218 21.1867 17.5001C20.9106 17.9783 20.299 18.1422 19.8207 17.8661L17.9748 16.8003L18.0865 18.5338C18.1221 19.0849 17.7041 19.5605 17.153 19.5961C16.6018 19.6316 16.1262 19.2136 16.0907 18.6625L15.8931 15.5985L12.6605 13.7322V17.4648L15.2152 19.1679C15.6747 19.4743 15.7989 20.0952 15.4926 20.5547C15.1862 21.0142 14.5653 21.1384 14.1058 20.8321L12.6605 19.8685V22C12.6605 22.5523 12.2128 23 11.6605 23C11.1082 23 10.6605 22.5523 10.6605 22V19.8685L9.21522 20.8321C8.75569 21.1384 8.13482 21.0142 7.82847 20.5547C7.52212 20.0952 7.64629 19.4743 8.10582 19.1679L10.6605 17.4648V13.6187L7.92775 15.1965L7.73014 18.2605C7.6946 18.8117 7.219 19.2296 6.66786 19.1941C6.11672 19.1585 5.69875 18.6829 5.73429 18.1318L5.84608 16.3984L4.00017 17.4641C3.52187 17.7402 2.91028 17.5764 2.63414 17.0981C2.358 16.6198 2.52187 16.0082 3.00017 15.732L4.84608 14.6663L3.28899 13.8964C2.79392 13.6516 2.59102 13.0518 2.83581 12.5568C3.0806 12.0617 3.68037 11.8588 4.17544 12.1036L6.92775 13.4645L9.5623 11.9434L6.42775 10.1337L3.67544 11.4945C3.18037 11.7393 2.5806 11.5364 2.33581 11.0414C2.09102 10.5463 2.29392 9.94651 2.78899 9.70172L4.34609 8.93182L2.50017 7.86608C2.02187 7.58994 1.858 6.97834 2.13414 6.50005C2.41028 6.02176 3.02187 5.85788 3.50017 6.13403L5.34609 7.19977L5.23429 5.46634C5.19875 4.9152 5.61672 4.43959 6.16786 4.40405C6.719 4.36851 7.1946 4.78648 7.23014 5.33762L7.42775 8.40162L10.6605 10.2681V6.55068L8.1259 4.94723C7.65917 4.65197 7.52016 4.03425 7.81543 3.56752C8.11069 3.10079 8.72841 2.96179 9.19514 3.25705L10.6605 4.18408V2C10.6605 1.44772 11.1082 1 11.6605 1Z" fill="black"/>
</svg>
