<svg width="24" height="24" viewBox="0 0 24 24" fill="none" xmlns="http://www.w3.org/2000/svg">
<path fill-rule="evenodd" clip-rule="evenodd" d="M4.49879 15C3.11863 14.9993 2 13.8803 2 12.5V11.5C2 10.1193 3.11929 9 4.5 9C5.87988 9 6.99864 10.1179 7 11.4975L7 8C7 6.34315 8.34315 5 10 5H14C15.6569 5 17 6.34315 17 8L17 11.4986C17.0008 10.1185 18.1198 9 19.5 9C20.8807 9 22 10.1193 22 11.5V12.5C22 13.8807 20.8807 15 19.5 15C18.1197 15 17.0006 13.8813 17 12.5011V14C17 14.5523 16.5523 15 16 15H19.5H21C21.5523 15 22 15.4477 22 16V17.6C22 18.1523 21.5523 18.6 21 18.6V19C21 19.5523 20.5523 20 20 20C19.4477 20 19 19.5523 19 19V18.6H5V19C5 19.5523 4.55228 20 4 20C3.44772 20 3 19.5523 3 19V18.6C2.44772 18.6 2 18.1523 2 17.6V16C2 15.4477 2.44772 15 3 15H4.49879ZM8 15C7.44771 15 7 14.5523 7 14V12.5021C6.99888 13.8814 5.88068 14.9993 4.50121 15L8 15Z" fill="black"/>
</svg>
