<svg width="24" height="24" viewBox="0 0 24 24" fill="none" xmlns="http://www.w3.org/2000/svg">
<path d="M12.0006 6.5C11.1722 6.5 10.5006 7.17157 10.5006 8C10.5006 8.82843 11.1722 9.5 12.0006 9.5C12.8291 9.5 13.5006 8.82843 13.5006 8C13.5006 7.17157 12.8291 6.5 12.0006 6.5Z" fill="black"/>
<path d="M10.0006 16C10.0006 14.8954 10.8961 14 12.0006 14C13.1052 14 14.0006 14.8954 14.0006 16C14.0006 17.1046 13.1052 18 12.0006 18C10.8961 18 10.0006 17.1046 10.0006 16Z" fill="black"/>
<path fill-rule="evenodd" clip-rule="evenodd" d="M16.1469 2H7.85437C6.25575 2 4.93795 3.25356 4.85812 4.85019L4.15812 18.8502C4.07244 20.5637 5.43868 22 7.15437 22H16.8469C18.5626 22 19.9288 20.5637 19.8431 18.8502L19.1431 4.85019C19.0633 3.25356 17.7455 2 16.1469 2ZM8.50063 8C8.50063 6.067 10.0676 4.5 12.0006 4.5C13.9336 4.5 15.5006 6.067 15.5006 8C15.5006 9.933 13.9336 11.5 12.0006 11.5C10.0676 11.5 8.50063 9.933 8.50063 8ZM12.0006 12C9.79149 12 8.00063 13.7909 8.00063 16C8.00063 18.2091 9.79149 20 12.0006 20C14.2098 20 16.0006 18.2091 16.0006 16C16.0006 13.7909 14.2098 12 12.0006 12Z" fill="black"/>
</svg>
