<svg width="24" height="24" viewBox="0 0 24 24" fill="none" xmlns="http://www.w3.org/2000/svg">
<path d="M6.14915 7.86618C5.93533 7.22474 5.432 6.7214 4.79055 6.50758C4.13774 6.28998 4.13774 5.36659 4.79055 5.14899C5.432 4.93517 5.93534 4.43183 6.14915 3.79039C6.36675 3.13758 7.29014 3.13758 7.50775 3.79039C7.72156 4.43183 8.2249 4.93517 8.86634 5.14899C9.51916 5.36659 9.51916 6.28998 8.86634 6.50758C8.2249 6.7214 7.72156 7.22474 7.50775 7.86618C7.29014 8.51899 6.36675 8.51899 6.14915 7.86618Z" fill="black"/>
<path d="M6.29798 20.7325C5.87035 19.4496 4.86367 18.4429 3.58078 18.0153C2.27516 17.5801 2.27516 15.7333 3.58078 15.2981C4.86367 14.8705 5.87035 13.8638 6.29798 12.5809C6.73318 11.2753 8.57996 11.2753 9.01517 12.5809C9.4428 13.8638 10.4495 14.8705 11.7324 15.2981C13.038 15.7333 13.038 17.5801 11.7324 18.0153C10.4495 18.4429 9.4428 19.4496 9.01517 20.7325C8.57996 22.0381 6.73318 22.0381 6.29798 20.7325Z" fill="black"/>
<path d="M14.1857 11.2614C15.1478 11.5822 15.9028 12.3372 16.2236 13.2993C16.55 14.2786 17.9351 14.2786 18.2615 13.2993C18.5822 12.3372 19.3372 11.5822 20.2994 11.2614C21.2786 10.935 21.2786 9.54996 20.2994 9.22355C19.3372 8.90283 18.5822 8.14782 18.2615 7.18566C17.9351 6.20644 16.55 6.20644 16.2236 7.18566C15.9028 8.14782 15.1478 8.90283 14.1857 9.22355C13.2064 9.54996 13.2064 10.935 14.1857 11.2614Z" fill="black"/>
</svg>
