<svg width="24" height="24" viewBox="0 0 24 24" fill="none" xmlns="http://www.w3.org/2000/svg">
<path fill-rule="evenodd" clip-rule="evenodd" d="M10 1C9.44772 1 9 1.44772 9 2C9 2.55228 9.44772 3 10 3H11V5.05999C6.91525 5.55355 3.75 9.03213 3.75 13.25C3.75 17.8063 7.44365 21.5 12 21.5C16.5563 21.5 20.25 17.8063 20.25 13.25C20.25 9.03213 17.0848 5.55355 13 5.05999V3H14C14.5523 3 15 2.55228 15 2C15 1.44772 14.5523 1 14 1H10ZM11.5 8C12.0523 8 12.5 8.44772 12.5 9V13H14.5C15.0523 13 15.5 13.4477 15.5 14C15.5 14.5523 15.0523 15 14.5 15H11.5C10.9477 15 10.5 14.5523 10.5 14V9C10.5 8.44772 10.9477 8 11.5 8Z" fill="black"/>
</svg>
