<svg width="24" height="24" viewBox="0 0 24 24" fill="none" xmlns="http://www.w3.org/2000/svg">
<path d="M2.84392 5.12101L2.27126 6.32587C1.80799 7.30057 1.94502 8.43338 2.62943 9.28669L2.77476 9.46789C2.98634 9.73168 3.2357 9.97123 3.54953 10.0972C4.42002 10.4465 5.43425 10.3696 6.24144 9.86643L6.3504 9.79851C7.25604 9.23393 8.41577 9.16642 9.38931 9.62159L10.6036 10.1893C11.4896 10.6036 12.5324 10.6036 13.4184 10.1893L14.6327 9.62159C15.6062 9.16642 16.7659 9.23393 17.6716 9.79851L17.7805 9.86643C18.7334 10.4604 19.9747 10.4604 20.9276 9.86643C21.8512 9.29066 22.2342 8.19909 21.8548 7.2236L21.1074 5.3016C20.6796 4.20162 19.5954 3.44326 18.3461 3.37025L12.011 3L5.52341 3.37915C4.35293 3.44756 3.32023 4.11889 2.84392 5.12101Z" fill="black"/>
<path fill-rule="evenodd" clip-rule="evenodd" d="M6.60374 11.152L6.49988 11.2136C5.59155 11.7524 4.40821 11.7524 3.49988 11.2136L3.86971 18.4522C3.94253 19.8776 5.26273 21 6.86661 21H17.1331C18.737 21 20.0572 19.8776 20.13 18.4522L20.4999 11.2136C19.5916 11.7524 18.4082 11.7524 17.4999 11.2136L17.396 11.152C16.5327 10.64 15.4271 10.5787 14.4991 10.9916L13.3415 11.5065C12.4969 11.8822 11.5028 11.8822 10.6582 11.5065L9.50068 10.9916C8.57262 10.5787 7.46708 10.64 6.60374 11.152ZM9.70745 16.4457L9.99983 19.5672H13.9998L14.2922 16.4457C14.404 15.2525 13.3456 14.2292 11.9998 14.2292C10.654 14.2292 9.59568 15.2525 9.70745 16.4457Z" fill="black"/>
</svg>
