<svg width="24" height="24" viewBox="0 0 24 24" fill="none" xmlns="http://www.w3.org/2000/svg">
<path fill-rule="evenodd" clip-rule="evenodd" d="M7.53809 6.6665H5.22222C3.99492 6.6665 3 7.66143 3 8.88873V9.37113L10.2664 12.0688C10.6781 12.2216 11.1137 12.2999 11.5527 12.2999H12.4473C12.8863 12.2999 13.3219 12.2216 13.7336 12.0688L21 9.37113V8.88873C21 7.66143 20.0051 6.6665 18.7778 6.6665H16.462C16.0266 5.12758 14.6117 4 12.9334 4H11.0667C9.38838 4 7.97343 5.12758 7.53809 6.6665ZM9.73336 6.6665H14.2667C13.9626 6.26178 13.4786 6 12.9334 6H11.0667C10.5215 6 10.0374 6.26178 9.73336 6.6665ZM13 9.5C13 8.94772 12.5523 8.5 12 8.5C11.4477 8.5 11 8.94772 11 9.5V10.3889C11 10.9412 11.4477 11.3889 12 11.3889C12.5523 11.3889 13 10.9412 13 10.3889V9.5Z" fill="black"/>
<path d="M4.52687 17.3022L3.90002 11.1111L10.5958 13.591C10.9293 13.7145 11.2821 13.7778 11.6377 13.7778H12.3623C12.718 13.7778 13.0708 13.7145 13.4043 13.591L20.1 11.1111L19.4732 17.3022C19.3181 18.8342 18.0283 20 16.4884 20H7.51161C5.97178 20 4.68199 18.8342 4.52687 17.3022Z" fill="black"/>
</svg>
