<svg width="24" height="24" viewBox="0 0 24 24" fill="none" xmlns="http://www.w3.org/2000/svg">
<path d="M13 2C13 1.44772 12.5523 1 12 1C11.4477 1 11 1.44772 11 2V3.5C11 4.05228 11.4477 4.5 12 4.5C12.5523 4.5 13 4.05228 13 3.5V2Z" fill="black"/>
<path d="M2.47382 6.5C2.74996 6.02171 3.36155 5.85783 3.83984 6.13397L5.13888 6.88397C5.61717 7.16012 5.78105 7.77171 5.50491 8.25C5.22876 8.72829 4.61717 8.89217 4.13888 8.61603L2.83984 7.86603C2.36155 7.58988 2.19768 6.97829 2.47382 6.5Z" fill="black"/>
<path d="M18.8599 7.13397C18.3816 7.41012 18.2177 8.02171 18.4938 8.5C18.77 8.97829 19.3816 9.14217 19.8599 8.86603L21.1589 8.11603C21.6372 7.83988 21.8011 7.22829 21.5249 6.75C21.2488 6.27171 20.6372 6.10783 20.1589 6.38397L18.8599 7.13397Z" fill="black"/>
<path d="M19.8599 15.134C19.3816 14.8578 18.77 15.0217 18.4938 15.5C18.2177 15.9783 18.3816 16.5899 18.8599 16.866L20.1589 17.616C20.6372 17.8922 21.2488 17.7283 21.5249 17.25C21.8011 16.7717 21.6372 16.1601 21.1589 15.884L19.8599 15.134Z" fill="black"/>
<path d="M2 18.3529C2 19.8149 3.11929 21 4.5 21H9C10.6569 21 12 19.5778 12 17.8235C12 16.4188 11.1389 15.2271 9.94508 14.8079C9.66433 13.2099 8.3406 12 6.75 12C4.95507 12 3.5 13.5407 3.5 15.4412C3.5 15.601 3.51029 15.7583 3.53022 15.9124C2.63116 16.3134 2 17.2551 2 18.3529Z" fill="black"/>
<path d="M18.0001 12C18.0001 14.6324 16.3048 16.8689 13.9465 17.6772C13.6959 15.9755 12.5885 14.5868 11.1232 14.0558C10.7301 11.7476 8.87691 10 6.65006 10C6.54497 10 6.44071 10.0039 6.3374 10.0116C7.1578 7.67514 9.38331 6 12.0001 6C15.3138 6 18.0001 8.68629 18.0001 12Z" fill="black"/>
</svg>
