<svg width="24" height="24" viewBox="0 0 24 24" fill="none" xmlns="http://www.w3.org/2000/svg">
<path d="M13.0002 2C13.0002 1.44772 12.5525 1 12.0002 1C11.4479 1 11.0002 1.44772 11.0002 2V3.5C11.0002 4.05228 11.4479 4.5 12.0002 4.5C12.5525 4.5 13.0002 4.05228 13.0002 3.5V2Z" fill="black"/>
<path d="M3.84001 6.13397C3.36172 5.85783 2.75013 6.02171 2.47399 6.5C2.19784 6.97829 2.36172 7.58988 2.84001 7.86603L4.13905 8.61603C4.61734 8.89217 5.22893 8.72829 5.50507 8.25C5.78122 7.77171 5.61734 7.16012 5.13905 6.88397L3.84001 6.13397Z" fill="black"/>
<path d="M18.0002 12C18.0002 15.3137 15.3139 18 12.0002 18C8.68646 18 6.00017 15.3137 6.00017 12C6.00017 8.68629 8.68646 6 12.0002 6C15.3139 6 18.0002 8.68629 18.0002 12Z" fill="black"/>
<path d="M18.494 15.5C18.7701 15.0217 19.3817 14.8578 19.86 15.134L21.1591 15.884C21.6374 16.1601 21.8012 16.7717 21.5251 17.25C21.249 17.7283 20.6374 17.8922 20.1591 17.616L18.86 16.866C18.3817 16.5899 18.2179 15.9783 18.494 15.5Z" fill="black"/>
<path d="M18.86 7.13397C18.3817 7.41012 18.2179 8.02171 18.494 8.5C18.7701 8.97829 19.3817 9.14217 19.86 8.86603L21.1591 8.11603C21.6374 7.83988 21.8012 7.22829 21.5251 6.75C21.249 6.27171 20.6374 6.10783 20.1591 6.38397L18.86 7.13397Z" fill="black"/>
<path d="M12.0002 19C12.5525 19 13.0002 19.4477 13.0002 20V21.5C13.0002 22.0523 12.5525 22.5 12.0002 22.5C11.4479 22.5 11.0002 22.0523 11.0002 21.5V20C11.0002 19.4477 11.4479 19 12.0002 19Z" fill="black"/>
<path d="M2.47399 17.5C2.19784 17.0217 2.36172 16.4101 2.84001 16.134L4.13905 15.384C4.61734 15.1078 5.22893 15.2717 5.50507 15.75C5.78122 16.2283 5.61734 16.8399 5.13905 17.116L3.84001 17.866C3.36172 18.1422 2.75013 17.9783 2.47399 17.5Z" fill="black"/>
</svg>
