<svg width="24" height="24" viewBox="0 0 24 24" fill="none" xmlns="http://www.w3.org/2000/svg">
<path d="M16.3479 3.3535C15.8449 3.25271 15.3999 3.16357 14.8526 3.46747C13.9761 3.95411 13.6783 4.98451 13.9852 5.90972C14.463 7.35028 16.5028 8.3701 17.4493 8.77488C17.7514 8.90407 18.0933 8.85394 18.3455 8.64344C19.136 7.98389 20.797 6.42132 20.841 4.90421C20.8693 3.92983 20.2882 3.02835 19.3089 2.81389C18.6973 2.67996 18.2967 2.89311 17.8438 3.1341C17.6759 3.22347 17.5007 3.31667 17.305 3.39742C17.1896 3.44501 17.0639 3.46345 16.9397 3.45099C16.729 3.42986 16.5344 3.39088 16.3479 3.3535Z" fill="black"/>
<path d="M5 8.99999H3C2.44772 8.99999 2 9.44771 2 9.99999V20C2 20.5523 2.44772 21 3 21H5C5.55228 21 6 20.5523 6 20V18.9999C6.47893 18.6806 7.59356 19.0211 8.98961 19.4475C11.0915 20.0895 13.8313 20.9264 16 19.9999C19.311 18.5855 23.2 15.1999 22 13.9999C21.3453 13.3452 19.8332 13.8336 18.129 14.3841C16.6422 14.8643 15.0092 15.3918 13.6718 15.2485C12.8776 15.1634 13.0477 14.2813 13.8189 14.0734C15.6989 13.5665 17.5006 12.8624 17.9316 12.1458C17.987 12.0537 18.0024 11.9449 17.9934 11.8378C17.9298 11.0839 17.4012 10.5328 16 10.9999C14.6505 11.4497 13.5226 11.1318 12.4434 10.8277C11.626 10.5973 10.8365 10.3748 10 10.4999C8.58791 10.7111 7.39552 11.1712 6.45421 11.7173C6.16501 11.8851 6 12.1999 6 12.5343V9.99999C6 9.44771 5.55228 8.99999 5 8.99999Z" fill="black"/>
</svg>
