<svg width="24" height="24" viewBox="0 0 24 24" fill="none" xmlns="http://www.w3.org/2000/svg">
<path fill-rule="evenodd" clip-rule="evenodd" d="M2 5C2 3.34315 3.34315 2 5 2H19C20.6569 2 22 3.34315 22 5V19C22 20.6569 20.6569 22 19 22H5C3.34315 22 2 20.6569 2 19V5ZM10.5858 20.7782C10.0335 20.7782 9.58583 20.3305 9.58583 19.7782V15.5355C9.58583 14.9832 10.0335 14.5355 10.5858 14.5355C11.1381 14.5355 11.5858 14.9832 11.5858 15.5355V17.364L19.0711 9.87867C19.4616 9.48815 20.0948 9.48815 20.4853 9.87867C20.8759 10.2692 20.8759 10.9024 20.4853 11.2929L13 18.7782H14.8285C15.3808 18.7782 15.8285 19.2259 15.8285 19.7782C15.8285 20.3305 15.3808 20.7782 14.8285 20.7782H10.5858ZM13.4142 3.22183C13.9665 3.22183 14.4142 3.66955 14.4142 4.22183L14.4142 8.46447C14.4142 9.01676 13.9665 9.46447 13.4142 9.46447C12.8619 9.46447 12.4142 9.01676 12.4142 8.46447V6.63605L4.92892 14.1213C4.5384 14.5119 3.90523 14.5119 3.51471 14.1213C3.12418 13.7308 3.12418 13.0976 3.51471 12.7071L11 5.22183L9.17156 5.22183C8.61928 5.22183 8.17156 4.77412 8.17156 4.22183C8.17156 3.66955 8.61928 3.22183 9.17156 3.22183L13.4142 3.22183Z" fill="black"/>
</svg>
