<svg width="24" height="24" viewBox="0 0 24 24" fill="none" xmlns="http://www.w3.org/2000/svg">
<path fill-rule="evenodd" clip-rule="evenodd" d="M2 5C2 3.34315 3.34315 2 5 2H19C20.6569 2 22 3.34315 22 5V19C22 20.6569 20.6569 22 19 22H5C3.34315 22 2 20.6569 2 19V5ZM16.2929 20.2071L13.2929 17.2071C12.9024 16.8166 12.9024 16.1834 13.2929 15.7929C13.6834 15.4024 14.3166 15.4024 14.7071 15.7929L16 17.0858V4.5C16 3.94771 16.4477 3.5 17 3.5C17.5523 3.5 18 3.94771 18 4.5V17.0858L19.2929 15.7929C19.6834 15.4024 20.3166 15.4024 20.7071 15.7929C21.0976 16.1834 21.0976 16.8166 20.7071 17.2071L17.7071 20.2071C17.3166 20.5976 16.6834 20.5976 16.2929 20.2071ZM6.29289 3.79289C6.68342 3.40237 7.31658 3.40237 7.70711 3.79289L10.7071 6.79289C11.0976 7.18342 11.0976 7.81658 10.7071 8.20711C10.3166 8.59763 9.68342 8.59763 9.29289 8.20711L8 6.91421V19.5C8 20.0523 7.55229 20.5 7 20.5C6.44772 20.5 6 20.0523 6 19.5V6.91421L4.70711 8.20711C4.31658 8.59763 3.68342 8.59763 3.29289 8.20711C2.90237 7.81658 2.90237 7.18342 3.29289 6.79289L6.29289 3.79289Z" fill="black"/>
</svg>
