<svg width="24" height="24" viewBox="0 0 24 24" fill="none" xmlns="http://www.w3.org/2000/svg">
<path fill-rule="evenodd" clip-rule="evenodd" d="M2 5C2 3.34315 3.34315 2 5 2H19C20.6569 2 22 3.34315 22 5V19C22 20.6569 20.6569 22 19 22H5C3.34315 22 2 20.6569 2 19V5ZM3.79289 17.7071C3.40237 17.3166 3.40237 16.6834 3.79289 16.2929L6.79289 13.2929C7.18342 12.9024 7.81658 12.9024 8.20711 13.2929C8.59763 13.6834 8.59763 14.3166 8.20711 14.7071L6.91421 16L19.5 16C20.0523 16 20.5 16.4477 20.5 17C20.5 17.5523 20.0523 18 19.5 18H6.91421L8.20711 19.2929C8.59763 19.6834 8.59763 20.3166 8.20711 20.7071C7.81658 21.0976 7.18342 21.0976 6.79289 20.7071L3.79289 17.7071ZM20.2071 6.29289C20.5976 6.68342 20.5976 7.31658 20.2071 7.70711L17.2071 10.7071C16.8166 11.0976 16.1834 11.0976 15.7929 10.7071C15.4024 10.3166 15.4024 9.68342 15.7929 9.29289L17.0858 8L4.5 8C3.94772 8 3.5 7.55228 3.5 7C3.5 6.44771 3.94772 6 4.5 6L17.0858 6L15.7929 4.70711C15.4024 4.31658 15.4024 3.68342 15.7929 3.29289C16.1834 2.90237 16.8166 2.90237 17.2071 3.29289L20.2071 6.29289Z" fill="black"/>
</svg>
