<svg width="24" height="24" viewBox="0 0 24 24" fill="none" xmlns="http://www.w3.org/2000/svg">
<path d="M21 2C21 1.44772 20.5523 1 20 1C19.4477 1 19 1.44772 19 2V3.58579L12.4367 10.1491C12.2946 9.7699 11.9288 9.5 11.5 9.5C10.9477 9.5 10.5 9.94772 10.5 10.5V12.5C10.5 13.0523 10.9477 13.5 11.5 13.5H13.5C14.0523 13.5 14.5 13.0523 14.5 12.5C14.5 12.0712 14.2301 11.7054 13.8509 11.5633L20.4142 5H22C22.5523 5 23 4.55228 23 4C23 3.44772 22.5523 3 22 3H21V2Z" fill="black"/>
<path d="M12 2C14.0382 2 15.9339 2.60975 17.5148 3.65679L15.3302 5.84138C14.3399 5.30474 13.2055 5 12 5C8.13401 5 5 8.13401 5 12C5 15.866 8.13401 19 12 19C15.866 19 19 15.866 19 12C19 10.7945 18.6953 9.66014 18.1586 8.66981L20.3432 6.48522C21.3902 8.06609 22 9.96183 22 12C22 17.5228 17.5228 22 12 22C6.47715 22 2 17.5228 2 12C2 6.47715 6.47715 2 12 2Z" fill="black"/>
<path d="M12 7C12.6449 7 13.2612 7.12208 13.8272 7.34438L12.4383 8.7333C12.1585 8.58438 11.8391 8.5 11.5 8.5C10.3954 8.5 9.5 9.39543 9.5 10.5V12.5C9.5 13.6046 10.3954 14.5 11.5 14.5H13.5C14.6046 14.5 15.5 13.6046 15.5 12.5C15.5 12.1609 15.4156 11.8415 15.2667 11.5617L16.6556 10.1728C16.8779 10.7388 17 11.3551 17 12C17 14.7614 14.7614 17 12 17C9.23858 17 7 14.7614 7 12C7 9.23858 9.23858 7 12 7Z" fill="black"/>
</svg>
