<svg width="24" height="24" viewBox="0 0 24 24" fill="none" xmlns="http://www.w3.org/2000/svg">
<path d="M14.191 4.5H9.80902L10.309 3.5H13.691L14.191 4.5Z" fill="black"/>
<path d="M2.5 12C2.5 11.7239 2.72386 11.5 3 11.5H21C21.2761 11.5 21.5 11.7239 21.5 12V15.5C21.5 16.0523 21.0523 16.5 20.5 16.5H3.5C2.94772 16.5 2.5 16.0523 2.5 15.5V12Z" fill="black"/>
<path d="M18.9815 6.52566L20.3063 10.5H3.69371L5.01849 6.52566C5.22266 5.91315 5.79587 5.5 6.44152 5.5H17.5585C18.2041 5.5 18.7773 5.91315 18.9815 6.52566Z" fill="black"/>
<path d="M16.5 17.5H20V19C20 19.2761 19.7761 19.5 19.5 19.5H17C16.7239 19.5 16.5 19.2761 16.5 19V17.5Z" fill="black"/>
<path d="M4 19V17.5H7.5V19C7.5 19.2761 7.27614 19.5 7 19.5H4.5C4.22386 19.5 4 19.2761 4 19Z" fill="black"/>
</svg>
