<svg width="24" height="24" viewBox="0 0 24 24" fill="none" xmlns="http://www.w3.org/2000/svg">
<path fill-rule="evenodd" clip-rule="evenodd" d="M18 4H6C4.34315 4 3 5.34315 3 7V17C3 18.6569 4.34315 20 6 20H18C19.6569 20 21 18.6569 21 17V7C21 5.34315 19.6569 4 18 4ZM6.152 8.47C5.85929 8.93834 6.00166 9.55529 6.47 9.848L9.1132 11.5L6.47 13.152C6.00166 13.4447 5.85929 14.0617 6.152 14.53C6.44471 14.9983 7.06166 15.1407 7.53 14.848L10.1732 13.196C11.4265 12.4127 11.4265 10.5873 10.1732 9.804L7.53 8.152C7.06166 7.85929 6.44471 8.00166 6.152 8.47ZM13 13C12.4477 13 12 13.4477 12 14C12 14.5523 12.4477 15 13 15H17C17.5523 15 18 14.5523 18 14C18 13.4477 17.5523 13 17 13H13Z" fill="black"/>
</svg>
