<svg width="24" height="24" viewBox="0 0 24 24" fill="none" xmlns="http://www.w3.org/2000/svg">
<path fill-rule="evenodd" clip-rule="evenodd" d="M17 16.8225C17 19.682 14.7614 22 12 22C9.23858 22 7 19.682 7 16.8225C7 15.1015 7.81098 13.5765 9.05882 12.6351C9.23754 12.5003 9.35294 12.2942 9.35294 12.0703V4.64706C9.35294 3.18513 10.5381 2 12 2C13.4619 2 14.6471 3.18513 14.6471 4.64706V12.0703C14.6471 12.2942 14.7625 12.5003 14.9412 12.6351C16.189 13.5765 17 15.1015 17 16.8225ZM13 5C13 4.44772 12.5523 4 12 4C11.4477 4 11 4.44772 11 5V16C11 16.5523 11.4477 17 12 17C12.5523 17 13 16.5523 13 16V5Z" fill="black"/>
</svg>
