<svg width="24" height="24" viewBox="0 0 24 24" fill="none" xmlns="http://www.w3.org/2000/svg">
<path fill-rule="evenodd" clip-rule="evenodd" d="M4.87353 4H18.4995C20.1563 4 21.4995 5.34315 21.4995 7V8.09168C21.4995 8.68395 21.3241 9.26297 20.9956 9.75577L20.4652 10.5514C19.868 11.4472 19.7966 12.5943 20.278 13.5572L21.1827 15.3666C21.391 15.7831 21.4995 16.2425 21.4995 16.7082L21.4995 17C21.4995 18.6568 20.1563 20 18.4995 20H4.99947C3.34262 20 1.99947 18.6569 1.99947 17L1.99947 16.8604C1.99947 16.2981 2.15748 15.7472 2.45547 15.2704L3.50572 13.59C4.11373 12.6172 4.11373 11.3828 3.50572 10.41L2.34772 8.55719C2.11831 8.19014 1.97166 7.77751 1.91797 7.34801C1.69575 5.57024 3.08193 4 4.87353 4ZM7.99947 6.5C7.99947 5.94772 7.55176 5.5 6.99947 5.5C6.44719 5.5 5.99947 5.94772 5.99947 6.5V8.5C5.99947 9.05229 6.44719 9.5 6.99947 9.5C7.55176 9.5 7.99947 9.05229 7.99947 8.5V6.5ZM6.99947 10C7.55176 10 7.99947 10.4477 7.99947 11V13C7.99947 13.5523 7.55176 14 6.99947 14C6.44719 14 5.99947 13.5523 5.99947 13V11C5.99947 10.4477 6.44719 10 6.99947 10ZM7.99947 15.5C7.99947 14.9477 7.55176 14.5 6.99947 14.5C6.44719 14.5 5.99947 14.9477 5.99947 15.5V17.5C5.99947 18.0523 6.44719 18.5 6.99947 18.5C7.55176 18.5 7.99947 18.0523 7.99947 17.5V15.5Z" fill="black"/>
</svg>
