<svg width="24" height="24" viewBox="0 0 24 24" fill="none" xmlns="http://www.w3.org/2000/svg">
<path fill-rule="evenodd" clip-rule="evenodd" d="M18 6.5C18 8.433 14.6421 10 10.5 10C6.35786 10 3 8.433 3 6.5C3 4.567 6.35786 3 10.5 3C14.6421 3 18 4.567 18 6.5ZM8.5 6.5C8.5 7.05228 9.39543 7.5 10.5 7.5C11.6046 7.5 12.5 7.05228 12.5 6.5C12.5 5.94772 11.6046 5.5 10.5 5.5C9.39543 5.5 8.5 5.94772 8.5 6.5Z" fill="black"/>
<path d="M10.5 11.4998C13.4867 11.4998 16.1676 10.8452 18 9.80713V9.99994H20C21.1046 9.99994 22 10.8954 22 11.9999V18.9999C22 20.1045 21.1046 20.9999 20 20.9999H10.5C6.35786 20.9999 3 19.4329 3 17.4999V9.80713C4.83236 10.8452 7.51327 11.4998 10.5 11.4998Z" fill="black"/>
</svg>
