<svg width="24" height="24" viewBox="0 0 24 24" fill="none" xmlns="http://www.w3.org/2000/svg">
<path fill-rule="evenodd" clip-rule="evenodd" d="M20 16C20 18.7614 17.7614 21 15 21H9C6.23858 21 4 18.7614 4 16V10C4 5.58172 7.58172 2 12 2C16.4183 2 20 5.58172 20 10V16ZM17 13V10C17 7.23858 14.7614 5 12 5C9.23858 5 7 7.23858 7 10V13C7 14.1046 7.89543 15 9 15H15C16.1046 15 17 14.1046 17 13ZM10 17C9.44772 17 9 17.4477 9 18C9 18.5523 9.44772 19 10 19H15C15.5523 19 16 18.5523 16 18C16 17.4477 15.5523 17 15 17H10Z" fill="black"/>
</svg>
