<svg width="24" height="24" viewBox="0 0 24 24" fill="none" xmlns="http://www.w3.org/2000/svg">
<path d="M12 4C13.6569 4 15 5.34315 15 7V18H11C11 15.7909 9.20914 14 7 14C4.79086 14 3 15.7909 3 18C2.44772 18 2 17.5523 2 17V7C2 5.34315 3.34315 4 5 4H12Z" fill="black"/>
<path d="M16 15.3542V9.5H18.0504C19.2359 9.5 20.3103 10.1982 20.7918 11.2816L21.7414 13.4182C21.9119 13.8018 22 14.2169 22 14.6366V15.3542C21.2671 14.5238 20.1947 14 19 14C17.8053 14 16.7329 14.5238 16 15.3542Z" fill="black"/>
<path fill-rule="evenodd" clip-rule="evenodd" d="M7 15C5.34315 15 4 16.3431 4 18C4 19.6569 5.34315 21 7 21C8.65685 21 10 19.6569 10 18C10 16.3431 8.65685 15 7 15ZM6 18C6 17.4477 6.44772 17 7 17C7.55228 17 8 17.4477 8 18C8 18.5523 7.55228 19 7 19C6.44772 19 6 18.5523 6 18Z" fill="black"/>
<path fill-rule="evenodd" clip-rule="evenodd" d="M19 15C17.3431 15 16 16.3431 16 18C16 19.6569 17.3431 21 19 21C20.6569 21 22 19.6569 22 18C22 16.3431 20.6569 15 19 15ZM18 18C18 17.4477 18.4477 17 19 17C19.5523 17 20 17.4477 20 18C20 18.5523 19.5523 19 19 19C18.4477 19 18 18.5523 18 18Z" fill="black"/>
</svg>
