<svg width="24" height="24" viewBox="0 0 24 24" fill="none" xmlns="http://www.w3.org/2000/svg">
<path fill-rule="evenodd" clip-rule="evenodd" d="M5 3H19C20.6569 3 22 4.34315 22 6V16C22 17.6569 20.6569 19 19 19H5C3.34315 19 2 17.6569 2 16V6C2 4.34315 3.34315 3 5 3ZM6.5 8C5.94772 8 5.5 8.44772 5.5 9C5.5 9.55228 5.94772 10 6.5 10H7.5V13C7.5 13.5523 7.94772 14 8.5 14C9.05228 14 9.5 13.5523 9.5 13V10H10.5C11.0523 10 11.5 9.55228 11.5 9C11.5 8.44772 11.0523 8 10.5 8H6.5ZM13.0528 8.10557C13.5468 7.85858 14.1474 8.05881 14.3944 8.55279L15.5 10.7639L16.6056 8.55279C16.8526 8.05881 17.4532 7.85858 17.9472 8.10557C18.4412 8.35256 18.6414 8.95324 18.3944 9.44721L16.3944 13.4472C16.225 13.786 15.8788 14 15.5 14C15.1212 14 14.775 13.786 14.6056 13.4472L12.6056 9.44721C12.3586 8.95324 12.5588 8.35256 13.0528 8.10557Z" fill="black"/>
<path d="M10.5 20C9.94772 20 9.5 20.4477 9.5 21C9.5 21.5523 9.94772 22 10.5 22H13.5C14.0523 22 14.5 21.5523 14.5 21C14.5 20.4477 14.0523 20 13.5 20H10.5Z" fill="black"/>
</svg>
