<svg width="24" height="24" viewBox="0 0 24 24" fill="none" xmlns="http://www.w3.org/2000/svg">
<path fill-rule="evenodd" clip-rule="evenodd" d="M5 2C3.34315 2 2 3.34315 2 5V19C2 20.6569 3.34315 22 5 22H19C20.6569 22 22 20.6569 22 19V5C22 3.34315 20.6569 2 19 2H5ZM3.54289 8.70711C3.15237 8.31658 3.15237 7.68342 3.54289 7.29289L7.54289 3.29289C7.93342 2.90237 8.56658 2.90237 8.95711 3.29289C9.34763 3.68342 9.34763 4.31658 8.95711 4.70711L6.66421 7H14.25C17.8399 7 20.75 9.91015 20.75 13.5C20.75 17.0899 17.8398 20 14.25 20H6.25C5.69772 20 5.25 19.5523 5.25 19C5.25 18.4477 5.69772 18 6.25 18H14.25C16.7353 18 18.75 15.9853 18.75 13.5C18.75 11.0147 16.7353 9 14.25 9H6.66421L8.95711 11.2929C9.34763 11.6834 9.34763 12.3166 8.95711 12.7071C8.56658 13.0976 7.93342 13.0976 7.54289 12.7071L3.54289 8.70711Z" fill="black"/>
</svg>
