<svg width="24" height="24" viewBox="0 0 24 24" fill="none" xmlns="http://www.w3.org/2000/svg">
<path d="M12.7071 2.29289C12.3166 1.90237 11.6834 1.90237 11.2929 2.29289L7.29289 6.29289C6.90237 6.68342 6.90237 7.31658 7.29289 7.70711C7.68342 8.09763 8.31658 8.09763 8.70711 7.70711L11 5.41421V17C11 17.5523 11.4477 18 12 18C12.5523 18 13 17.5523 13 17V5.41421L15.2929 7.70711C15.6834 8.09763 16.3166 8.09763 16.7071 7.70711C17.0976 7.31658 17.0976 6.68342 16.7071 6.29289L12.7071 2.29289Z" fill="black"/>
<path d="M3 17.5H10.063C10.285 18.3626 11.0681 19 12 19C12.9319 19 13.715 18.3626 13.937 17.5H21V19C21 20.6569 19.6569 22 18 22H6C4.34315 22 3 20.6569 3 19V17.5Z" fill="black"/>
</svg>
