<svg width="24" height="24" viewBox="0 0 24 24" fill="none" xmlns="http://www.w3.org/2000/svg">
<path d="M22.6961 4.20711C23.0866 3.81658 23.0866 3.18342 22.6961 2.79289C22.3056 2.40237 21.6724 2.40237 21.2819 2.79289L19.3431 4.73163L19.0613 4.44974C18.6707 4.05922 18.0376 4.05922 17.647 4.44974C17.2565 4.84027 17.2565 5.47343 17.647 5.86395L18.636 6.85295C19.0266 7.24347 19.6597 7.24347 20.0503 6.85295L22.6961 4.20711Z" fill="black"/>
<path d="M16 7.00002C16 9.20915 14.2091 11 12 11C9.79086 11 8 9.20915 8 7.00002C8 4.79088 9.79086 3.00002 12 3.00002C14.2091 3.00002 16 4.79088 16 7.00002Z" fill="black"/>
<path d="M12 22C9.13273 22 3.64905 20.6701 5.30565 18C6.55143 15.9921 9.07123 14 12 14C14.9288 14 17.4486 15.9921 18.6943 18C20.3509 20.6701 14.8673 22 12 22Z" fill="black"/>
</svg>
