<svg width="24" height="24" viewBox="0 0 24 24" fill="none" xmlns="http://www.w3.org/2000/svg">
<path d="M21 3C21 2.44772 20.5523 2 20 2C19.4477 2 19 2.44772 19 3V4H18C17.4477 4 17 4.44772 17 5C17 5.55228 17.4477 6 18 6H19V7C19 7.55228 19.4477 8 20 8C20.5523 8 21 7.55228 21 7V6H22C22.5523 6 23 5.55228 23 5C23 4.44772 22.5523 4 22 4H21V3Z" fill="black"/>
<path d="M16 7C16 9.20914 14.2091 11 12 11C9.79086 11 8 9.20914 8 7C8 4.79086 9.79086 3 12 3C14.2091 3 16 4.79086 16 7Z" fill="black"/>
<path d="M12 22C9.13273 22 3.64905 20.6701 5.30565 18C6.55143 15.9921 9.07123 14 12 14C14.9288 14 17.4486 15.9921 18.6943 18C20.3509 20.6701 14.8673 22 12 22Z" fill="black"/>
</svg>
