<svg width="24" height="24" viewBox="0 0 24 24" fill="none" xmlns="http://www.w3.org/2000/svg">
<path d="M13.9992 14C16.7606 14 18.9992 11.7614 18.9992 9C18.9992 6.23858 16.7606 4 13.9992 4C11.2377 4 8.99916 6.23858 8.99916 9C8.99916 11.7614 11.2377 14 13.9992 14Z" fill="black"/>
<path d="M8.15456 20.5272C7.8634 20.9965 7.24692 21.1409 6.77762 20.8497C6.30832 20.5586 6.16392 19.9421 6.45509 19.4728C7.82449 17.2656 10.626 15 13.9992 15C17.3724 15 20.1739 17.2656 21.5433 19.4728C21.8344 19.9421 21.69 20.5586 21.2207 20.8497C20.7514 21.1409 20.1349 20.9965 19.8438 20.5272C18.7216 18.7185 16.4835 17 13.9992 17C11.5148 17 9.27671 18.7185 8.15456 20.5272Z" fill="black"/>
<path d="M7.89702 6.55972C8.14018 7.05559 7.93532 7.6547 7.43944 7.89786C6.53078 8.34344 5.99916 9.15179 5.99916 10C5.99916 10.8482 6.53078 11.6566 7.43944 12.1021C7.93532 12.3453 8.14018 12.9444 7.89702 13.4403C7.65386 13.9362 7.05475 14.141 6.55888 13.8979C5.08207 13.1737 3.99916 11.7335 3.99916 10C3.99916 8.26647 5.08207 6.82632 6.55888 6.10214C7.05475 5.85898 7.65386 6.06384 7.89702 6.55972Z" fill="black"/>
<path d="M4.15456 20.5272C3.8634 20.9965 3.24692 21.1409 2.77762 20.8497C2.30832 20.5586 2.16392 19.9421 2.45509 19.4728C3.03418 18.5394 3.96072 17.7604 4.9944 17.1559C5.47116 16.8772 6.08364 17.0377 6.36242 17.5144C6.6412 17.9912 6.48071 18.6037 6.00395 18.8824C5.14024 19.3875 4.50477 19.9627 4.15456 20.5272Z" fill="black"/>
</svg>
