<svg width="24" height="24" viewBox="0 0 24 24" fill="none" xmlns="http://www.w3.org/2000/svg">
<path d="M21.4142 5.00015L22.1213 4.29304C22.5118 3.90252 22.5118 3.26935 22.1213 2.87883C21.7308 2.48831 21.0976 2.48831 20.7071 2.87883L20 3.58594L19.2929 2.87883C18.9024 2.48831 18.2692 2.48831 17.8787 2.87883C17.4882 3.26935 17.4882 3.90252 17.8787 4.29304L18.5858 5.00015L17.8787 5.70726C17.4882 6.09778 17.4882 6.73095 17.8787 7.12147C18.2692 7.512 18.9024 7.512 19.2929 7.12147L20 6.41436L20.7071 7.12147C21.0976 7.512 21.7308 7.512 22.1213 7.12147C22.5118 6.73095 22.5118 6.09778 22.1213 5.70726L21.4142 5.00015Z" fill="black"/>
<path d="M16 7.00009C16 9.20923 14.2091 11.0001 12 11.0001C9.79086 11.0001 8 9.20923 8 7.00009C8 4.79095 9.79086 3.00009 12 3.00009C14.2091 3.00009 16 4.79095 16 7.00009Z" fill="black"/>
<path d="M12 22.0001C9.13273 22.0001 3.64905 20.6702 5.30565 18.0001C6.55143 15.9922 9.07123 14.0001 12 14.0001C14.9288 14.0001 17.4486 15.9922 18.6943 18.0001C20.3509 20.6702 14.8673 22.0001 12 22.0001Z" fill="black"/>
</svg>
