<svg width="24" height="24" viewBox="0 0 24 24" fill="none" xmlns="http://www.w3.org/2000/svg">
<path d="M16 7C16 9.20914 14.2091 11 12 11C9.79086 11 8 9.20914 8 7C8 4.79086 9.79086 3 12 3C14.2091 3 16 4.79086 16 7Z" fill="black"/>
<path d="M12 22C9.13273 22 3.64905 20.6701 5.30565 18C6.55143 15.9921 9.07123 14 12 14C14.9288 14 17.4486 15.9921 18.6943 18C20.3509 20.6701 14.8673 22 12 22Z" fill="black"/>
<path d="M20 3.58433C20 3.58433 19.1029 2.6184 17.9067 3.17036C17.1357 3.52614 16.8951 4.22513 17.0399 5.01992C17.2239 6.03052 18.3233 6.93641 19.1287 7.47715C19.6593 7.83334 20.3408 7.83334 20.8713 7.47715C21.6767 6.9364 22.7761 6.03052 22.9601 5.01992C23.1049 4.22513 22.8643 3.52614 22.0933 3.17036C20.8971 2.6184 20 3.58433 20 3.58433Z" fill="black"/>
</svg>
