<svg width="24" height="24" viewBox="0 0 24 24" fill="none" xmlns="http://www.w3.org/2000/svg">
<path fill-rule="evenodd" clip-rule="evenodd" d="M13.8057 2.74741C12.7985 1.773 11.1999 1.773 10.1927 2.74741C9.61669 3.30462 8.81579 3.56485 8.02228 3.45261C6.63465 3.25634 5.34141 4.19594 5.09928 5.5763C4.96082 6.36565 4.46583 7.04694 3.7579 7.42255C2.51992 8.07939 2.02595 9.59968 2.64141 10.8587C2.99336 11.5787 2.99336 12.4208 2.64141 13.1408C2.02595 14.3999 2.51992 15.9202 3.7579 16.577C4.46583 16.9526 4.96082 17.6339 5.09928 18.4233C5.34141 19.8036 6.63465 20.7432 8.02228 20.547C8.81579 20.4347 9.61669 20.6949 10.1927 21.2522C11.1999 22.2266 12.7985 22.2266 13.8057 21.2522C14.3817 20.6949 15.1826 20.4347 15.9761 20.547C17.3637 20.7432 18.657 19.8036 18.8991 18.4233C19.0376 17.6339 19.5325 16.9526 20.2405 16.577C21.4785 15.9202 21.9724 14.3999 21.357 13.1408C21.005 12.4208 21.005 11.5787 21.357 10.8587C21.9724 9.59968 21.4785 8.07939 20.2405 7.42255C19.5325 7.04694 19.0376 6.36565 18.8991 5.5763C18.657 4.19594 17.3637 3.25634 15.9761 3.45261C15.1826 3.56485 14.3817 3.30462 13.8057 2.74741ZM16.7168 9.69625C17.1014 9.29993 17.092 8.66684 16.6957 8.28219C16.2993 7.89755 15.6662 7.90701 15.2816 8.30332L10.1759 13.564L8.71678 12.0606C8.33214 11.6643 7.69905 11.6548 7.30273 12.0394C6.90641 12.4241 6.89695 13.0572 7.28159 13.4535L9.45829 15.6962C9.64661 15.8903 9.90548 15.9998 10.1759 15.9998C10.4463 15.9998 10.7052 15.8903 10.8935 15.6962L16.7168 9.69625Z" fill="black"/>
</svg>
