<svg width="24" height="24" viewBox="0 0 24 24" fill="none" xmlns="http://www.w3.org/2000/svg">
<path fill-rule="evenodd" clip-rule="evenodd" d="M15 5H5C3.34315 5 2 6.34315 2 8V16C2 17.6569 3.34315 19 5 19H15C16.6569 19 18 17.6569 18 16V15L20.4 16.8C21.0592 17.2944 22 16.824 22 16V8C22 7.17595 21.0592 6.70557 20.4 7.2L18 9V8C18 6.34315 16.6569 5 15 5ZM4.59292 9.63079C5.074 9.79115 5.4515 10.1687 5.61186 10.6497C5.77507 11.1394 6.46761 11.1394 6.63081 10.6497C6.79117 10.1687 7.16868 9.79115 7.64976 9.63079C8.13937 9.46759 8.13937 8.77505 7.64976 8.61185C7.16868 8.45149 6.79117 8.07398 6.63081 7.5929C6.46761 7.10329 5.77507 7.10329 5.61186 7.5929C5.4515 8.07398 5.074 8.45149 4.59292 8.61185C4.10331 8.77505 4.10331 9.46759 4.59292 9.63079Z" fill="black"/>
</svg>
