<svg width="24" height="24" viewBox="0 0 24 24" fill="none" xmlns="http://www.w3.org/2000/svg">
<path d="M22.7071 2.70711C23.0976 2.31658 23.0976 1.68342 22.7071 1.29289C22.3166 0.902369 21.6834 0.902369 21.2929 1.29289L1.29289 21.2929C0.902369 21.6834 0.902369 22.3166 1.29289 22.7071C1.68342 23.0976 2.31658 23.0976 2.70711 22.7071L22.7071 2.70711Z" fill="black"/>
<path fill-rule="evenodd" clip-rule="evenodd" d="M16.0006 5.17093C15.6877 5.06024 15.3509 5 15 5H5C3.34315 5 2 6.34315 2 8V16C2 16.8721 2.3721 17.6572 2.96619 18.2054L16.0006 5.17093ZM5.61186 10.6497C5.4515 10.1687 5.074 9.79115 4.59292 9.63079C4.10331 9.46759 4.10331 8.77505 4.59292 8.61185C5.074 8.45149 5.4515 8.07398 5.61186 7.5929C5.77507 7.10329 6.46761 7.10329 6.63081 7.5929C6.79117 8.07398 7.16868 8.45149 7.64976 8.61185C8.13937 8.77505 8.13937 9.46759 7.64976 9.63079C7.16868 9.79115 6.79117 10.1687 6.63081 10.6497C6.46761 11.1394 5.77507 11.1394 5.61186 10.6497Z" fill="black"/>
<path d="M7.82843 19H15C16.6569 19 18 17.6569 18 16V15L20.4 16.8C21.0592 17.2944 22 16.824 22 16V8C22 7.17595 21.0592 6.70557 20.4 7.2L18 9V8.82843L7.82843 19Z" fill="black"/>
</svg>
