<svg width="24" height="24" viewBox="0 0 24 24" fill="none" xmlns="http://www.w3.org/2000/svg">
<path d="M11.75 2C12.3023 2 12.75 2.44772 12.75 3V21C12.75 21.5523 12.3023 22 11.75 22C11.1977 22 10.75 21.5523 10.75 21V3C10.75 2.44772 11.1977 2 11.75 2ZM19.75 3C20.3023 3 20.75 3.44772 20.75 4V18C20.75 18.5523 20.3023 19 19.75 19C19.1977 19 18.75 18.5523 18.75 18V4C18.75 3.44772 19.1977 3 19.75 3ZM7.75 4C8.30228 4 8.75 4.44772 8.75 5V17C8.75 17.5523 8.30228 18 7.75 18C7.19772 18 6.75 17.5523 6.75 17V5C6.75 4.44772 7.19772 4 7.75 4ZM15.75 7C16.3023 7 16.75 7.44772 16.75 8V14C16.75 14.5523 16.3023 15 15.75 15C15.1977 15 14.75 14.5523 14.75 14V8C14.75 7.44772 15.1977 7 15.75 7ZM4.25 8C4.80228 8 5.25 8.44772 5.25 9V13C5.25 13.5523 4.80228 14 4.25 14C3.69772 14 3.25 13.5523 3.25 13V9C3.25 8.44772 3.69772 8 4.25 8Z" fill="black"/>
</svg>
