<svg width="24" height="24" viewBox="0 0 24 24" fill="none" xmlns="http://www.w3.org/2000/svg">
<path d="M4.57574 6.63239L8.32636 6.09659C8.76982 6.03323 9.19347 5.87138 9.56619 5.62289L13.4453 3.03682C14.1099 2.59378 15 3.07017 15 3.86887V20.1318C15 20.9305 14.1099 21.4069 13.4453 20.9639L9.56619 18.3778C9.19347 18.1293 8.76982 17.9675 8.32636 17.9041L4.57573 17.3683C3.09779 17.1572 2 15.8914 2 14.3985V9.60224C2 8.10929 3.09779 6.84353 4.57574 6.63239Z" fill="black"/>
<path d="M21.2426 11.8288L21.9497 11.1217C22.3402 10.7311 22.3402 10.098 21.9497 9.70746C21.5592 9.31694 20.926 9.31694 20.5355 9.70746L19.8284 10.4146L19.1213 9.70746C18.7307 9.31694 18.0976 9.31694 17.707 9.70746C17.3165 10.098 17.3165 10.7311 17.707 11.1217L18.4142 11.8288L17.707 12.5359C17.3165 12.9264 17.3165 13.5596 17.707 13.9501C18.0976 14.3406 18.7307 14.3406 19.1213 13.9501L19.8284 13.243L20.5355 13.9501C20.926 14.3406 21.5592 14.3406 21.9497 13.9501C22.3402 13.5596 22.3402 12.9264 21.9497 12.5359L21.2426 11.8288Z" fill="black"/>
</svg>
