<svg width="24" height="24" viewBox="0 0 24 24" fill="none" xmlns="http://www.w3.org/2000/svg">
<path d="M4.57574 6.63239L8.32636 6.09659C8.76982 6.03323 9.19347 5.87138 9.56619 5.62289L13.4453 3.03682C14.1099 2.59378 15 3.07017 15 3.86887V20.1318C15 20.9305 14.1099 21.4069 13.4453 20.9639L9.56619 18.3778C9.19347 18.1293 8.76982 17.9675 8.32636 17.9041L4.57573 17.3683C3.09779 17.1572 2 15.8914 2 14.3985V9.60224C2 8.10929 3.09779 6.84353 4.57574 6.63239Z" fill="black"/>
<path d="M17.161 13.3096C16.6414 13.4968 16.372 14.0698 16.5592 14.5894C16.7465 15.109 17.3195 15.3784 17.839 15.1911C19.314 14.6596 20 13.2769 20 12.0004C20 10.7238 19.314 9.34111 17.839 8.80958C17.3195 8.62233 16.7465 8.89174 16.5592 9.41132C16.372 9.93089 16.6414 10.5039 17.161 10.6911C17.686 10.8804 18 11.3873 18 12.0004C18 12.6134 17.686 13.1203 17.161 13.3096Z" fill="black"/>
</svg>
