<svg width="24" height="24" viewBox="0 0 24 24" fill="none" xmlns="http://www.w3.org/2000/svg">
<path d="M8.32636 6.09659L4.57574 6.63239C3.09779 6.84353 2 8.10929 2 9.60224V14.3985C2 15.8914 3.09779 17.1572 4.57573 17.3683L8.32636 17.9041C8.76982 17.9675 9.19347 18.1293 9.56619 18.3778L13.4453 20.9639C14.1099 21.4069 15 20.9305 15 20.1318V3.86887C15 3.07017 14.1099 2.59378 13.4453 3.03682L9.56619 5.62289C9.19347 5.87138 8.76982 6.03323 8.32636 6.09659Z" fill="black"/>
<path d="M16.5592 14.5894C16.372 14.0698 16.6414 13.4968 17.161 13.3096C17.686 13.1203 18 12.6134 18 12.0004C18 11.3873 17.686 10.8804 17.161 10.6911C16.6414 10.5039 16.372 9.93089 16.5592 9.41132C16.7465 8.89174 17.3195 8.62233 17.839 8.80958C19.314 9.34111 20 10.7238 20 12.0004C20 13.2769 19.314 14.6596 17.839 15.1911C17.3195 15.3784 16.7465 15.109 16.5592 14.5894Z" fill="black"/>
<path d="M17.661 17.0596C17.1414 17.2468 16.872 17.8198 17.0592 18.3394C17.2465 18.859 17.8195 19.1284 18.339 18.9411C21.4806 17.809 23 14.8516 23 12.0004C23 9.14909 21.4806 6.19174 18.339 5.05958C17.8195 4.87233 17.2465 5.14174 17.0592 5.66132C16.872 6.18089 17.1414 6.75388 17.661 6.94113C19.8527 7.73099 21 9.81262 21 12.0004C21 14.1881 19.8527 16.2697 17.661 17.0596Z" fill="black"/>
</svg>
