<svg width="24" height="24" viewBox="0 0 24 24" fill="none" xmlns="http://www.w3.org/2000/svg">
<path d="M22.7071 2.70711C23.0976 2.31658 23.0976 1.68342 22.7071 1.29289C22.3166 0.902369 21.6834 0.902369 21.2929 1.29289L1.29289 21.2929C0.902369 21.6834 0.902369 22.3166 1.29289 22.7071C1.68342 23.0976 2.31658 23.0976 2.70711 22.7071L22.7071 2.70711Z" fill="black"/>
<path d="M15 3.86838V6.17152L3.95939 17.2121C2.80269 16.7851 2 15.6746 2 14.398V9.60175C2 8.1088 3.09779 6.84304 4.57574 6.6319L8.32636 6.0961C8.76982 6.03275 9.19347 5.87089 9.56619 5.6224L13.4453 3.03633C14.1099 2.59329 15 3.06969 15 3.86838Z" fill="black"/>
<path d="M9.56619 18.3773C9.33264 18.2216 9.07909 18.0999 8.8132 18.0152L15 11.8284V20.1313C15 20.93 14.1099 21.4064 13.4453 20.9634L9.56619 18.3773Z" fill="black"/>
</svg>
