<svg width="24" height="24" viewBox="0 0 24 24" fill="none" xmlns="http://www.w3.org/2000/svg">
<path fill-rule="evenodd" clip-rule="evenodd" d="M2.0469 13.5554C1.88815 11.9568 2.07197 9.91334 3.55171 8.40002C5.63222 6.2723 9.05771 6 12 6C14.9423 6 18.3678 6.27231 20.4483 8.40002C21.928 9.91335 22.1119 11.9568 21.9531 13.5555C21.7894 15.204 20.5192 16.435 18.9858 17.0623C17.5167 17.6633 15.8703 17.6633 14.4012 17.0623L14.3467 17.04C12.8427 16.4247 11.1573 16.4247 9.65325 17.04L9.59882 17.0623C8.1297 17.6633 6.48331 17.6633 5.01419 17.0623C3.48083 16.435 2.21061 15.204 2.0469 13.5554ZM9.05295 8.92109C9.2219 9.4194 9.74524 9.69734 10.2467 9.56915C10.2698 9.5653 10.331 9.55637 10.4474 9.54622C10.6953 9.52462 11.1641 9.5 12 9.5C12.8359 9.5 13.3047 9.52462 13.5526 9.54622C13.669 9.55637 13.7302 9.5653 13.7533 9.56915C14.2548 9.69734 14.7781 9.4194 14.947 8.92109C15.1244 8.39805 14.8441 7.83029 14.3211 7.65295C14.2953 7.64459 14.3217 7.65317 14.3195 7.6524L14.3178 7.65186L14.3146 7.65078L14.3082 7.64866L14.2953 7.64459C14.2868 7.64195 14.2782 7.63941 14.2697 7.63699C14.2527 7.63214 14.2352 7.6276 14.2173 7.62331C14.1818 7.61478 14.1422 7.60669 14.0974 7.59896C14.0087 7.58363 13.8896 7.56802 13.7262 7.55378C13.4004 7.52538 12.8692 7.5 12 7.5C11.1308 7.5 10.5996 7.52538 10.2738 7.55378C10.1104 7.56802 9.99134 7.58363 9.90257 7.59896C9.85779 7.60669 9.81822 7.61478 9.78267 7.62331C9.76476 7.6276 9.74733 7.63214 9.73029 7.63699C9.72175 7.63941 9.71322 7.64195 9.70469 7.64459L9.69185 7.64866L9.68539 7.65078L9.68216 7.65186L9.68053 7.6524C9.6783 7.65316 9.67891 7.65295 9.67891 7.65295C9.15587 7.83029 8.87562 8.39805 9.05295 8.92109Z" fill="black"/>
</svg>
