<svg width="24" height="24" viewBox="0 0 24 24" fill="none" xmlns="http://www.w3.org/2000/svg">
<path d="M21.4931 14.7578L21.7656 15H22V13H20C19.4477 13 19 13.4477 19 14C19 14.014 19.0003 14.0278 19.0009 14.0416C19.8705 13.8955 20.7915 14.1342 21.4931 14.7578Z" fill="black"/>
<path d="M7 20H15.5051C14.6838 18.7739 14.873 17.099 16.0069 16.0911L17.1862 15.0428C17.0658 14.718 17 14.3667 17 14C17 12.3431 18.3431 11 20 11H22V10.5556C22 8.8987 20.6578 7.55556 19.001 7.55556H15.5L15.489 7.55H7C6.44772 7.55 6 7.10228 6 6.55C6 5.99772 6.44772 5.55 7 5.55H14.2643C13.8842 4.74032 13.4903 4 13.0138 4H6.22476C4.99606 4 4 4.99606 4 6.22476V17C4 18.6569 5.34315 20 7 20Z" fill="black"/>
<path d="M20.1644 16.2526C19.7855 15.9158 19.2145 15.9158 18.8356 16.2526L17.3356 17.5859C16.9229 17.9528 16.8857 18.5849 17.2526 18.9977C17.5736 19.3588 18.0975 19.4325 18.5 19.1996V22C18.5 22.5523 18.9477 23 19.5 23C20.0523 23 20.5 22.5523 20.5 22V19.1996C20.9025 19.4325 21.4264 19.3588 21.7474 18.9977C22.1143 18.5849 22.0771 17.9528 21.6644 17.5859L20.1644 16.2526Z" fill="black"/>
</svg>
