<svg width="24" height="24" viewBox="0 0 24 24" fill="none" xmlns="http://www.w3.org/2000/svg">
<path d="M17.1285 17.1285C17.1924 16.9178 17.2788 16.7169 17.385 16.5286C16.5521 15.9956 16 15.0623 16 14C16 12.3431 17.3431 11 19 11H21V10.5556C21 8.8987 19.6578 7.55556 18.001 7.55556H14.5L14.489 7.55H6C5.44772 7.55 5 7.10228 5 6.55C5 5.99772 5.44772 5.55 6 5.55H13.2643C12.8842 4.74032 12.4903 4 12.0138 4H5.22476C3.99606 4 3 4.99606 3 6.22476V17C3 18.6569 4.34315 20 6 20H15C15 18.6462 15.8967 17.5019 17.1285 17.1285Z" fill="black"/>
<path d="M21 15H19C18.4477 15 18 14.5523 18 14C18 13.4477 18.4477 13 19 13H21V15Z" fill="black"/>
<path d="M21 18C21 17.4477 20.5523 17 20 17C19.4477 17 19 17.4477 19 18V19H18C17.4477 19 17 19.4477 17 20C17 20.5523 17.4477 21 18 21H19V22C19 22.5523 19.4477 23 20 23C20.5523 23 21 22.5523 21 22V21H22C22.5523 21 23 20.5523 23 20C23 19.4477 22.5523 19 22 19H21V18Z" fill="black"/>
</svg>
