<svg width="24" height="24" viewBox="0 0 24 24" fill="none" xmlns="http://www.w3.org/2000/svg">
<path d="M16.2929 16.2929C16.6288 15.957 17.0245 15.7174 17.4457 15.5742C17.1631 15.1166 17 14.5773 17 14C17 12.3431 18.3431 11 20 11H22V10.5556C22 8.8987 20.6578 7.55556 19.001 7.55556H15.5L15.489 7.55H7C6.44772 7.55 6 7.10228 6 6.55C6 5.99772 6.44772 5.55 7 5.55H14.2643C13.8842 4.74032 13.4903 4 13.0138 4H6.22476C4.99606 4 4 4.99606 4 6.22476V17C4 18.6569 5.34315 20 7 20H15.6828C15.7091 19.9421 15.7374 19.8849 15.7676 19.8284C15.1605 18.6934 15.3356 17.2502 16.2929 16.2929Z" fill="black"/>
<path d="M22 13H20C19.4477 13 19 13.4477 19 14C19 14.5523 19.4477 15 20 15H22V13Z" fill="black"/>
<path d="M21.2426 19.8284L21.9497 19.1213C22.3402 18.7308 22.3402 18.0976 21.9497 17.7071C21.5592 17.3166 20.926 17.3166 20.5355 17.7071L19.8284 18.4142L19.1213 17.7071C18.7307 17.3166 18.0976 17.3166 17.707 17.7071C17.3165 18.0976 17.3165 18.7308 17.707 19.1213L18.4142 19.8284L17.707 20.5355C17.3165 20.9261 17.3165 21.5592 17.707 21.9497C18.0976 22.3403 18.7307 22.3403 19.1213 21.9497L19.8284 21.2426L20.5355 21.9497C20.926 22.3403 21.5592 22.3403 21.9497 21.9497C22.3402 21.5592 22.3402 20.9261 21.9497 20.5355L21.2426 19.8284Z" fill="black"/>
</svg>
