<svg width="24" height="24" viewBox="0 0 24 24" fill="none" xmlns="http://www.w3.org/2000/svg">
<path d="M15 19C15 17.42 16.2214 16.1253 17.7716 16.0086C17.292 15.4768 17 14.7725 17 14C17 12.3431 18.3431 11 20 11H22V10.5556C22 8.8987 20.6578 7.55556 19.001 7.55556H15.5L15.489 7.55H7C6.44772 7.55 6 7.10228 6 6.55C6 5.99772 6.44772 5.55 7 5.55H14.2643C13.8842 4.74032 13.4903 4 13.0138 4H6.22476C4.99606 4 4 4.99606 4 6.22476V17C4 18.6569 5.34315 20 7 20H15.1707C15.0602 19.6872 15 19.3506 15 19Z" fill="black"/>
<path d="M22 13H20C19.4477 13 19 13.4477 19 14C19 14.5523 19.4477 15 20 15H22V13Z" fill="black"/>
<path d="M18 18C17.4477 18 17 18.4477 17 19C17 19.5523 17.4477 20 18 20H22C22.5523 20 23 19.5523 23 19C23 18.4477 22.5523 18 22 18H18Z" fill="black"/>
</svg>
