<svg width="24" height="24" viewBox="0 0 24 24" fill="none" xmlns="http://www.w3.org/2000/svg">
<path d="M16.5 17C16.5 16.621 16.5703 16.2584 16.6985 15.9245C16.2625 15.4036 16 14.7325 16 14C16 12.3431 17.3431 11 19 11H21V10.5556C21 8.8987 19.6578 7.55556 18.001 7.55556H14.5L14.489 7.55H6C5.44772 7.55 5 7.10228 5 6.55C5 5.99772 5.44772 5.55 6 5.55H13.2643C12.8842 4.74032 12.4903 4 12.0138 4H5.22476C3.99606 4 3 4.99606 3 6.22476V17C3 18.6569 4.34315 20 6 20H15.0744C15.1828 19.5227 15.4096 19.0652 15.7578 18.6736C15.9774 18.4265 16.2286 18.2243 16.5 18.0677V17Z" fill="black"/>
<path d="M19.5 14C20.0464 14 20.5587 14.1461 21 14.4013V13H19C18.4477 13 18 13.4477 18 14C18 14.1281 18.0241 14.2506 18.068 14.3632C18.4936 14.1316 18.9814 14 19.5 14Z" fill="black"/>
<path d="M21.6644 21.4141L20.1644 22.7474C19.7855 23.0842 19.2145 23.0842 18.8356 22.7474L17.3356 21.4141C16.9229 21.0472 16.8857 20.4151 17.2526 20.0023C17.5736 19.6412 18.0975 19.5675 18.5 19.8004V17C18.5 16.4477 18.9477 16 19.5 16C20.0523 16 20.5 16.4477 20.5 17V19.8004C20.9025 19.5675 21.4264 19.6412 21.7474 20.0023C22.1143 20.4151 22.0771 21.0472 21.6644 21.4141Z" fill="black"/>
</svg>
