<svg width="24" height="24" viewBox="0 0 24 24" fill="none" xmlns="http://www.w3.org/2000/svg">
<path d="M19.016 17.2303L19.323 16.9233C17.9922 16.6164 17 15.4241 17 14C17 12.3431 18.3431 11 20 11H22V10.5556C22 8.8987 20.6578 7.55556 19.001 7.55556H15.5L15.489 7.55H7C6.44772 7.55 6 7.10228 6 6.55C6 5.99772 6.44772 5.55 7 5.55H14.2643C13.8842 4.74032 13.4903 4 13.0138 4H6.22476C4.99606 4 4 4.99606 4 6.22476V17C4 18.6569 5.34315 20 7 20H15.3582C15.3954 19.2853 15.6869 18.5814 16.2328 18.0355C16.9881 17.2803 18.0458 17.0119 19.016 17.2303Z" fill="black"/>
<path d="M22 13H20C19.4477 13 19 13.4477 19 14C19 14.5523 19.4477 15 20 15H22V13Z" fill="black"/>
<path d="M22.6961 19.2071C23.0866 18.8166 23.0866 18.1834 22.6961 17.7929C22.3056 17.4024 21.6724 17.4024 21.2819 17.7929L19.3431 19.7316L19.0613 19.4497C18.6707 19.0592 18.0376 19.0592 17.647 19.4497C17.2565 19.8403 17.2565 20.4734 17.647 20.8639L18.636 21.8529C19.0266 22.2435 19.6597 22.2435 20.0503 21.8529L22.6961 19.2071Z" fill="black"/>
</svg>
