<svg width="24" height="24" viewBox="0 0 24 24" fill="none" xmlns="http://www.w3.org/2000/svg">
<path d="M9.01851 5.66487C9.18514 4.16575 10.4564 3 12 3C13.5436 3 14.8149 4.16575 14.9815 5.66487C14.077 5.23843 13.0663 5 12 5C10.9337 5 9.92305 5.23843 9.01851 5.66487Z" fill="black"/>
<path d="M9.01851 18.3351C9.92305 18.7616 10.9337 19 12 19C13.0663 19 14.077 18.7616 14.9815 18.3351C14.8149 19.8342 13.5436 21 12 21C10.4564 21 9.18514 19.8342 9.01851 18.3351Z" fill="black"/>
<path fill-rule="evenodd" clip-rule="evenodd" d="M15.6 16.8004C17.0573 15.7058 18 13.963 18 12C18 10.037 17.0573 8.29421 15.6 7.19956C14.5972 6.44633 13.3507 6 12 6C10.6493 6 9.40279 6.44633 8.4 7.19956C6.94266 8.29421 6 10.037 6 12C6 13.963 6.94266 15.7058 8.4 16.8004C9.40279 17.5537 10.6493 18 12 18C13.3507 18 14.5972 17.5537 15.6 16.8004ZM12.5 10C12.5 9.44772 12.0523 9 11.5 9C10.9477 9 10.5 9.44772 10.5 10V13C10.5 13.5523 10.9477 14 11.5 14H13.5C14.0523 14 14.5 13.5523 14.5 13C14.5 12.4477 14.0523 12 13.5 12H12.5V10Z" fill="black"/>
</svg>
