<svg width="24" height="24" viewBox="0 0 24 24" fill="none" xmlns="http://www.w3.org/2000/svg">
<path fill-rule="evenodd" clip-rule="evenodd" d="M8.02373 2.45862C7.37546 0.513791 4.62454 0.513793 3.97627 2.45862C3.73742 3.17516 3.17516 3.73742 2.45862 3.97627C0.513792 4.62454 0.513792 7.37546 2.45862 8.02373C3.17516 8.26258 3.73742 8.82484 3.97627 9.54138C4.62454 11.4862 7.37546 11.4862 8.02373 9.54138C8.26258 8.82484 8.82484 8.26258 9.54138 8.02373C11.4862 7.37546 11.4862 4.62454 9.54138 3.97627C8.82484 3.73742 8.26258 3.17516 8.02373 2.45862ZM5.87363 3.09108C5.88974 3.04276 5.90852 3.02846 5.91826 3.02187C5.93419 3.01109 5.96241 3 6 3C6.03759 3 6.06581 3.01109 6.08174 3.02187C6.09148 3.02846 6.11026 3.04276 6.12637 3.09108C6.56428 4.40482 7.59518 5.43572 8.90892 5.87363C8.95724 5.88974 8.97154 5.90852 8.97813 5.91826C8.98891 5.93419 9 5.96241 9 6C9 6.03759 8.98891 6.06581 8.97813 6.08174C8.97154 6.09148 8.95724 6.11026 8.90892 6.12637C7.59518 6.56428 6.56428 7.59518 6.12637 8.90892C6.11026 8.95724 6.09148 8.97154 6.08174 8.97813C6.06581 8.98891 6.03759 9 6 9C5.96241 9 5.93419 8.98891 5.91826 8.97813C5.90852 8.97154 5.88974 8.95724 5.87363 8.90892C5.43572 7.59518 4.40482 6.56428 3.09108 6.12637C3.04276 6.11026 3.02846 6.09148 3.02187 6.08174C3.01109 6.06581 3 6.03759 3 6C3 5.96241 3.01109 5.93419 3.02187 5.91826C3.02846 5.90852 3.04276 5.88974 3.09108 5.87363C4.40482 5.43572 5.43572 4.40482 5.87363 3.09108Z" fill="black"/>
<path fill-rule="evenodd" clip-rule="evenodd" d="M17.83 9.03976C16.9235 6.32008 13.0765 6.32008 12.17 9.03976C11.6774 10.5177 10.5177 11.6774 9.03976 12.17C6.32008 13.0765 6.32008 16.9235 9.03976 17.83C10.5177 18.3227 11.6774 19.4823 12.17 20.9602C13.0765 23.6799 16.9235 23.6799 17.83 20.9602C18.3226 19.4823 19.4823 18.3227 20.9602 17.83C23.6799 16.9235 23.6799 13.0765 20.9602 12.17C19.4823 11.6774 18.3227 10.5177 17.83 9.03976ZM14.0673 9.67222C14.3661 8.77593 15.6339 8.77593 15.9327 9.67222C16.6244 11.7473 18.2527 13.3756 20.3278 14.0673C21.2241 14.3661 21.2241 15.6339 20.3278 15.9327C18.2527 16.6244 16.6244 18.2527 15.9327 20.3278C15.6339 21.2241 14.3661 21.2241 14.0673 20.3278C13.3756 18.2527 11.7473 16.6244 9.67222 15.9327C8.77593 15.6339 8.77593 14.3661 9.67222 14.0673C11.7473 13.3756 13.3756 11.7473 14.0673 9.67222Z" fill="black"/>
</svg>
