<svg width="24" height="24" viewBox="0 0 24 24" fill="none" xmlns="http://www.w3.org/2000/svg">
<path fill-rule="evenodd" clip-rule="evenodd" d="M11.5 19.5C11.5 20.8807 10.3807 22 9 22C7.61929 22 6.5 20.8807 6.5 19.5V14.6907C6.5 13.2615 5.89338 11.8994 4.83104 10.9433L4.06781 10.2564C3.06985 9.35823 2.5 8.0787 2.5 6.73609V6.14781C2.5 3.85704 4.35704 2 6.64781 2C8.15416 2 9.54211 2.81667 10.2737 4.13346L10.7627 5.01368C11.2462 5.8841 11.5 6.8634 11.5 7.85913V19.5ZM4.5 6.14781C4.5 4.96161 5.46161 4 6.64781 4C7.42783 4 8.14653 4.42289 8.52534 5.10474L9.01436 5.98497C9.33286 6.55827 9.5 7.20329 9.5 7.85913V19.5C9.5 19.7761 9.27614 20 9 20C8.72386 20 8.5 19.7761 8.5 19.5V14.6907C8.5 12.6945 7.65274 10.7921 6.16896 9.45671L5.40574 8.7698C4.82921 8.25093 4.5 7.51173 4.5 6.73609V6.14781Z" fill="black"/>
<path fill-rule="evenodd" clip-rule="evenodd" d="M12.5 19.5C12.5 20.8807 13.6193 22 15 22C16.3807 22 17.5 20.8807 17.5 19.5V14.6907C17.5 13.2615 18.1066 11.8994 19.169 10.9433L19.9322 10.2564C20.9301 9.35823 21.5 8.0787 21.5 6.73609V6.14781C21.5 3.85704 19.643 2 17.3522 2C15.8458 2 14.4579 2.81667 13.7263 4.13346L13.2373 5.01368C12.7538 5.8841 12.5 6.8634 12.5 7.85913V19.5ZM19.5 6.14781C19.5 4.96161 18.5384 4 17.3522 4C16.5722 4 15.8535 4.42289 15.4747 5.10474L14.9856 5.98497C14.6671 6.55827 14.5 7.20329 14.5 7.85913V19.5C14.5 19.7761 14.7239 20 15 20C15.2761 20 15.5 19.7761 15.5 19.5V14.6907C15.5 12.6945 16.3473 10.7921 17.831 9.45671L18.5943 8.7698C19.1708 8.25093 19.5 7.51173 19.5 6.73609V6.14781Z" fill="black"/>
</svg>
