<svg width="24" height="24" viewBox="0 0 24 24" fill="none" xmlns="http://www.w3.org/2000/svg">
<path fill-rule="evenodd" clip-rule="evenodd" d="M12 1C10.3431 1 9 2.34315 9 4V7.46482L3.8906 10.8711C3.3342 11.242 3 11.8665 3 12.5352V14.6126C3 15.9777 4.33739 16.9416 5.63246 16.5099L9 15.3874V17.5858L7 19.5858C5.74007 20.8457 6.6324 23 8.41421 23H9.87689C10.0404 23 10.2033 22.9799 10.362 22.9403L12 22.5308L13.638 22.9403C13.7967 22.9799 13.9596 23 14.1231 23H15.5858C17.3676 23 18.2599 20.8457 17 19.5858L15 17.5858V15.3874L18.3675 16.5099C19.6626 16.9416 21 15.9777 21 14.6126V12.5352C21 11.8665 20.6658 11.242 20.1094 10.8711L15 7.46482V4C15 2.34315 13.6569 1 12 1ZM11 4C11 3.44772 11.4477 3 12 3C12.5523 3 13 3.44772 13 4V7.46482C13 8.13352 13.3342 8.75799 13.8906 9.12892L19 12.5352V14.6126L15.6325 13.4901C14.3374 13.0584 13 14.0223 13 15.3874V17.5858C13 18.1162 13.2107 18.6249 13.5858 19L15.5858 21H14.1231L12.4851 20.5905C12.1666 20.5109 11.8334 20.5109 11.5149 20.5905L9.87689 21H8.41421L10.4142 19C10.7893 18.6249 11 18.1162 11 17.5858V15.3874C11 14.0223 9.66261 13.0584 8.36754 13.4901L5 14.6126V12.5352L10.1094 9.12892C10.6658 8.75799 11 8.13352 11 7.46482V4Z" fill="black"/>
</svg>
