<svg width="24" height="24" viewBox="0 0 24 24" fill="none" xmlns="http://www.w3.org/2000/svg">
<path d="M1.80461 4.53046C1.41409 4.92099 1.41409 5.55415 1.80461 5.94468C2.19514 6.3352 2.8283 6.3352 3.21883 5.94468L5.6937 3.4698C6.08422 3.07928 6.08422 2.44611 5.6937 2.05559C5.30317 1.66506 4.67001 1.66506 4.27949 2.05559L1.80461 4.53046Z" fill="black"/>
<path d="M11.999 9.00002C11.999 8.44774 11.5513 8.00002 10.999 8.00002C10.4467 8.00002 9.99902 8.44774 9.99902 9.00002V14C9.99902 14.5523 10.4467 15 10.999 15H13.999C14.5513 15 14.999 14.5523 14.999 14C14.999 13.4477 14.5513 13 13.999 13H11.999V9.00002Z" fill="black"/>
<path fill-rule="evenodd" clip-rule="evenodd" d="M11.999 2.00002C6.47618 2.00002 1.99902 6.47717 1.99902 12C1.99902 17.5229 6.47618 22 11.999 22C17.5219 22 21.999 17.5229 21.999 12C21.999 6.47717 17.5219 2.00002 11.999 2.00002ZM3.99902 12C3.99902 7.58174 7.58075 4.00002 11.999 4.00002C16.4173 4.00002 19.999 7.58174 19.999 12C19.999 16.4183 16.4173 20 11.999 20C7.58075 20 3.99902 16.4183 3.99902 12Z" fill="black"/>
<path d="M18.2919 2.29291C18.6824 1.90239 19.3156 1.90239 19.7061 2.29291L22.181 4.76779C22.5715 5.15831 22.5715 5.79148 22.181 6.182C21.7905 6.57253 21.1573 6.57253 20.7668 6.182L18.2919 3.70713C17.9014 3.3166 17.9014 2.68344 18.2919 2.29291Z" fill="black"/>
</svg>
