<svg width="24" height="24" viewBox="0 0 24 24" fill="none" xmlns="http://www.w3.org/2000/svg">
<path d="M2 6C2 3.79086 3.79086 2 6 2H8C8.55228 2 9 2.44772 9 3C9 3.55228 8.55228 4 8 4H6C4.89543 4 4 4.89543 4 6V8C4 8.55228 3.55228 9 3 9C2.44772 9 2 8.55228 2 8V6Z" fill="black"/>
<path d="M22 6C22 3.79086 20.2091 2 18 2H16C15.4477 2 15 2.44772 15 3C15 3.55228 15.4477 4 16 4H18C19.1046 4 20 4.89543 20 6V8C20 8.55228 20.4477 9 21 9C21.5523 9 22 8.55228 22 8V6Z" fill="black"/>
<path d="M6 22C3.79086 22 2 20.2091 2 18V16C2 15.4477 2.44772 15 3 15C3.55228 15 4 15.4477 4 16V18C4 19.1046 4.89543 20 6 20H8C8.55228 20 9 20.4477 9 21C9 21.5523 8.55228 22 8 22H6Z" fill="black"/>
<path d="M22 18C22 20.2091 20.2091 22 18 22H16C15.4477 22 15 21.5523 15 21C15 20.4477 15.4477 20 16 20H18C19.1046 20 20 19.1046 20 18V16C20 15.4477 20.4477 15 21 15C21.5523 15 22 15.4477 22 16V18Z" fill="black"/>
<path fill-rule="evenodd" clip-rule="evenodd" d="M12 6C11.6699 6 11.3438 6.07289 11.0451 6.21346L8.29681 7.50676C6.89484 8.16651 6 9.57659 6 11.126V14.3682C6 15.0056 6.3681 15.5856 6.94482 15.857L11.0451 17.7865C11.3438 17.9271 11.6699 18 12 18C12.3301 18 12.6562 17.9271 12.9549 17.7865L17.0552 15.857C17.6319 15.5856 18 15.0056 18 14.3682V11.126C18 9.57659 17.1052 8.16651 15.7032 7.50676L12.9549 6.21346C12.6562 6.07289 12.3301 6 12 6ZM13 11.159V8.44506L14.8516 9.3164C15.5526 9.64628 16 10.3513 16 11.126V12.9771L13 11.159ZM12.1033 15.9769L14.9109 14.6557L12 12.8915L9.08913 14.6557L11.8967 15.9769C11.929 15.9921 11.9643 16 12 16C12.0357 16 12.071 15.9921 12.1033 15.9769ZM11 8.44506V11.159L8 12.9771V11.126C8 10.3513 8.44742 9.64628 9.14841 9.3164L11 8.44506Z" fill="black"/>
</svg>
