<svg width="24" height="24" viewBox="0 0 24 24" fill="none" xmlns="http://www.w3.org/2000/svg">
<path d="M20.779 4.22168C20.779 3.66939 20.3313 3.22168 19.779 3.22168H15.5364C14.9841 3.22168 14.5364 3.66939 14.5364 4.22168C14.5364 4.77396 14.9841 5.22168 15.5364 5.22168H17.3648L5.22266 17.3638L5.22266 15.5354C5.22266 14.9831 4.77494 14.5354 4.22266 14.5354C3.67037 14.5354 3.22266 14.9831 3.22266 15.5354V19.778C3.22266 20.3303 3.67037 20.778 4.22266 20.778H8.4653C9.01758 20.778 9.4653 20.3303 9.4653 19.778C9.4653 19.2257 9.01758 18.778 8.4653 18.778L6.63687 18.778L18.779 6.63589V8.46432C18.779 9.0166 19.2267 9.46432 19.779 9.46432C20.3313 9.46432 20.779 9.0166 20.779 8.46432V4.22168Z" fill="black"/>
</svg>
