<svg width="24" height="24" viewBox="0 0 24 24" fill="none" xmlns="http://www.w3.org/2000/svg">
<path d="M4.79289 6.20711C4.40237 5.81658 4.40237 5.18342 4.79289 4.79289C5.18342 4.40237 5.81658 4.40237 6.20711 4.79289L9.46447 8.05026V6.22183C9.46447 5.66954 9.91218 5.22183 10.4645 5.22183C11.0168 5.22183 11.4645 5.66954 11.4645 6.22183V10.4645C11.4645 11.0168 11.0168 11.4645 10.4645 11.4645L6.22183 11.4645C5.66954 11.4645 5.22183 11.0168 5.22183 10.4645C5.22183 9.91219 5.66954 9.46447 6.22183 9.46447H8.05026L4.79289 6.20711Z" fill="black"/>
<path d="M13.5355 12.5355L17.7782 12.5355C18.3305 12.5355 18.7782 12.9832 18.7782 13.5355C18.7782 14.0878 18.3305 14.5355 17.7782 14.5355L15.9497 14.5355L19.2071 17.7929C19.5976 18.1834 19.5976 18.8166 19.2071 19.2071C18.8166 19.5976 18.1834 19.5976 17.7929 19.2071L14.5355 15.9497L14.5355 17.7782C14.5355 18.3305 14.0878 18.7782 13.5355 18.7782C12.9832 18.7782 12.5355 18.3305 12.5355 17.7782L12.5355 13.5355C12.5355 12.9833 12.9833 12.5355 13.5355 12.5355Z" fill="black"/>
</svg>
