<svg width="24" height="24" viewBox="0 0 24 24" fill="none" xmlns="http://www.w3.org/2000/svg">
<g clip-path="url(#clip0_207_4322)">
<path d="M20 12C20 12 19.994 14.5181 19.5 16C19.4815 16.0556 19.4628 16.1129 19.4439 16.1718C18.8225 18.1138 15.7755 18.0203 15.5 16M7.99999 13.4C7.99999 16.155 10.699 18.1003 13.3126 17.2291L13.4718 17.1761C13.8224 17.0592 14.1558 16.8961 14.4632 16.6912L15.5 16M15.5 16C15.26 14.9878 15.8969 14.3882 16.1988 13.0694C16.4267 12.0735 16.1214 11.0637 15.4519 10.292C14.74 9.47135 13.707 9 12.6206 9L12.3473 9C9.94636 9 8 10.9464 8 13.3473L8 13.6154M14.5 20L11.964 20.2415C7.69334 20.6483 4 17.2899 4 13C4 8.58172 7.58173 5 12 5L12.5333 5C16.6571 5 20 8.34294 20 12.4667" stroke="black" stroke-width="2" stroke-linecap="round" stroke-linejoin="round"/>
</g>
<defs>
<clipPath id="clip0_207_4322">
<rect width="24" height="24" fill="white"/>
</clipPath>
</defs>
</svg>
