<svg width="24" height="24" viewBox="0 0 24 24" fill="none" xmlns="http://www.w3.org/2000/svg">
<path fill-rule="evenodd" clip-rule="evenodd" d="M9.15452 6.78277C10.9206 5.90013 13 7.18341 13 9.15889V9.3588L18.1545 6.78277C19.9206 5.90013 22 7.18341 22 9.15889V14.8416C22 16.8171 19.9206 18.1004 18.1545 17.2178L13 14.6417V14.8416C13 16.8171 10.9206 18.1004 9.15452 17.2178L3.46907 14.3764C1.5103 13.3975 1.51031 10.6031 3.46908 9.62414L9.15452 6.78277ZM11 9.15889C11 8.67156 10.4863 8.35303 10.0486 8.57179L4.36317 11.4132C3.87894 11.6552 3.87895 12.3454 4.36316 12.5874L10.0486 15.4287C10.4863 15.6475 11 15.329 11 14.8416V9.15889ZM13 12.0017C13.0005 12.2343 13.1216 12.4666 13.3632 12.5874L19.0486 15.4287C19.4863 15.6475 20 15.329 20 14.8416V9.15889C20 8.67156 19.4863 8.35303 19.0486 8.57179L13.3632 11.4132C13.1216 11.5339 13.0005 11.7662 13 11.9988V12.0017Z" fill="black"/>
</svg>
