<svg width="24" height="24" viewBox="0 0 24 24" fill="none" xmlns="http://www.w3.org/2000/svg">
<path fill-rule="evenodd" clip-rule="evenodd" d="M14.0071 7.00822C12.7659 6.28821 11.2341 6.28821 9.9929 7.00822L9.33749 7.38842L8.68054 7.76591C7.43639 8.48082 6.6705 9.80739 6.67344 11.2423L6.675 12L6.67344 12.7577C6.6705 14.1926 7.43639 15.5192 8.68054 16.2341L9.33572 16.6106L9.33928 16.6126L9.9929 16.9918C11.2341 17.7118 12.7659 17.7118 14.0071 16.9918L14.6607 16.6126L14.6643 16.6106L15.3195 16.2341C16.5636 15.5192 17.3295 14.1926 17.3266 12.7577L17.325 12.0021V11.9979L17.3266 11.2423C17.3295 9.80739 16.5636 8.48082 15.3195 7.76591L14.6643 7.38944L14.0071 7.00822ZM10.3393 9.11944L10.9965 8.73822C11.6171 8.37821 12.3829 8.37821 13.0035 8.73822L13.6607 9.11944L13.6643 9.12149L14.323 9.50001C14.9451 9.85747 15.328 10.5207 15.3266 11.2382L15.325 11.9979V12.0021L15.3266 12.7618C15.328 13.4793 14.9451 14.1425 14.323 14.5L13.6643 14.8785L13.6607 14.8806L13.0036 15.2618C12.3829 15.6218 11.6171 15.6218 10.9964 15.2618L10.3393 14.8806L10.3357 14.8785L9.67699 14.5C9.05491 14.1425 8.67197 13.4793 8.67344 12.7618L8.67501 12.0021L8.67344 11.2382C8.67197 10.5207 9.05491 9.85747 9.67699 9.50001L10.3357 9.12149L10.3393 9.11944Z" fill="black"/>
<path fill-rule="evenodd" clip-rule="evenodd" d="M12 1C5.92487 1 1 5.92487 1 12C1 18.0751 5.92487 23 12 23C18.0751 23 23 18.0751 23 12C23 6.36343 18.7614 1.7183 13.2971 1.07578C12.8713 1.02571 12.4385 1 12 1ZM3 12C3 11.8399 3.00418 11.6808 3.01244 11.5228C4.38312 11.4518 5.62672 10.6814 6.29878 9.47594L6.66775 8.81413L7.03941 8.15388C7.69033 6.99752 7.72232 5.60064 7.14134 4.42284C8.54281 3.52233 10.2104 3 12 3C12.0609 3 12.1216 3.0006 12.1822 3.0018C12.2392 4.36885 12.9925 5.6173 14.1859 6.30302L14.8411 6.67949L14.8446 6.68154L15.4982 7.06071C16.7235 7.77149 18.232 7.7806 19.4645 7.08805L19.5248 7.06093C20.4574 8.47893 21 10.1762 21 12C21 12.1715 20.9952 12.3418 20.9857 12.5109C19.552 12.5091 18.2268 13.2748 17.5124 14.518L17.136 15.1732L17.1339 15.1768L16.7548 15.8304C16.0636 17.0219 16.0359 18.4811 16.6717 19.6941C15.3099 20.5227 13.7107 21 12 21H11.9973C11.9346 19.6399 11.1826 18.3993 9.99446 17.7165L9.33928 17.3401L9.33572 17.338L8.6821 16.9588C7.46654 16.2537 5.97228 16.2391 4.7452 16.9151L4.51642 17.0013C3.55861 15.5709 3 13.8507 3 12ZM4.55192 8.50205C4.29287 8.96671 3.86397 9.30208 3.36706 9.44761C3.78006 8.04853 4.52392 6.79134 5.50804 5.76665C5.6106 6.23842 5.54053 6.73941 5.29656 7.17283L4.92388 7.83489L4.92188 7.83846L4.55192 8.50205ZM15.1823 4.56893C14.6923 4.28733 14.3506 3.81595 14.2284 3.2778C15.7421 3.66328 17.1026 4.43269 18.2001 5.47621C17.6462 5.68145 17.0228 5.63295 16.5018 5.33071L15.8446 4.9495L15.841 4.94745L15.1823 4.56893ZM19.2465 15.5145C19.5452 14.9947 20.0574 14.6419 20.6364 14.5407C20.1981 16.0328 19.3837 17.364 18.3028 18.4245C18.1413 17.8986 18.202 17.3214 18.4848 16.8339L18.866 16.1768L18.868 16.1732L19.2465 15.5145ZM8.99801 19.4506C9.49578 19.7367 9.84044 20.2185 9.95755 20.7672C8.40098 20.4061 6.99926 19.641 5.86876 18.5885C6.44924 18.3327 7.12226 18.3661 7.67855 18.6888L8.33572 19.0701L8.33928 19.0721L8.99801 19.4506Z" fill="black"/>
</svg>
