<svg width="24" height="24" viewBox="0 0 24 24" fill="none" xmlns="http://www.w3.org/2000/svg">
<path fill-rule="evenodd" clip-rule="evenodd" d="M12.6325 2.15634C12.2219 2.0195 11.7781 2.0195 11.3675 2.15634L3.36754 4.82301C2.55086 5.09524 2 5.85952 2 6.72038V8.99962C2 10.1042 2.89543 10.9996 4 10.9996H5V15.9996H4C2.89543 15.9996 2 16.895 2 17.9996V19.9996C2 21.1042 2.89543 21.9996 4 21.9996H20C21.1046 21.9996 22 21.1042 22 19.9996V17.9996C22 16.895 21.1046 15.9996 20 15.9996H19V10.9996H20C21.1046 10.9996 22 10.1042 22 8.99962V6.72038C22 5.85952 21.4491 5.09524 20.6325 4.82301L12.6325 2.15634ZM17 15.9996V10.9996H15V15.9996H17ZM13 15.9996V10.9996H11V15.9996H13ZM9 15.9996V10.9996H7V15.9996H9ZM4 17.9996V19.9996H20V17.9996H4ZM4 8.99962L4 6.72038L12 4.05371L20 6.72038V8.99962H4Z" fill="black"/>
</svg>
