<svg width="24" height="24" viewBox="0 0 24 24" fill="none" xmlns="http://www.w3.org/2000/svg">
<path fill-rule="evenodd" clip-rule="evenodd" d="M15.5 2C14.1193 2 13 3.11929 13 4.5V19.5C13 20.8807 14.1193 22 15.5 22H19.5C20.8807 22 22 20.8807 22 19.5V4.5C22 3.11929 20.8807 2 19.5 2H15.5ZM15 4.5C15 4.22386 15.2239 4 15.5 4H19.5C19.7761 4 20 4.22386 20 4.5V19.5C20 19.7761 19.7761 20 19.5 20H15.5C15.2239 20 15 19.7761 15 19.5V4.5Z" fill="black"/>
<path fill-rule="evenodd" clip-rule="evenodd" d="M4.5 11C3.11929 11 2 12.1193 2 13.5V19.5C2 20.8807 3.11929 22 4.5 22H8.5C9.88071 22 11 20.8807 11 19.5V13.5C11 12.1193 9.88071 11 8.5 11H4.5ZM4 13.5C4 13.2239 4.22386 13 4.5 13H8.5C8.77614 13 9 13.2239 9 13.5V19.5C9 19.7761 8.77614 20 8.5 20H4.5C4.22386 20 4 19.7761 4 19.5V13.5Z" fill="black"/>
</svg>
