<svg width="24" height="24" viewBox="0 0 24 24" fill="none" xmlns="http://www.w3.org/2000/svg">
<path fill-rule="evenodd" clip-rule="evenodd" d="M13 4.5C13 3.11929 11.8807 2 10.5 2H4.5C3.11929 2 2 3.11929 2 4.5V8.5C2 9.88071 3.11929 11 4.5 11H10.5C11.8807 11 13 9.88071 13 8.5V4.5ZM10.5 4C10.7761 4 11 4.22386 11 4.5V8.5C11 8.77614 10.7761 9 10.5 9L4.5 9C4.22386 9 4 8.77614 4 8.5L4 4.5C4 4.22386 4.22386 4 4.5 4L10.5 4Z" fill="black"/>
<path fill-rule="evenodd" clip-rule="evenodd" d="M22 15.5C22 14.1193 20.8807 13 19.5 13L4.5 13C3.11929 13 2 14.1193 2 15.5V19.5C2 20.8807 3.11929 22 4.5 22H19.5C20.8807 22 22 20.8807 22 19.5V15.5ZM19.5 15C19.7761 15 20 15.2239 20 15.5V19.5C20 19.7761 19.7761 20 19.5 20H4.5C4.22386 20 4 19.7761 4 19.5L4 15.5C4 15.2239 4.22386 15 4.5 15L19.5 15Z" fill="black"/>
</svg>
