<svg width="24" height="24" viewBox="0 0 24 24" fill="none" xmlns="http://www.w3.org/2000/svg">
<path fill-rule="evenodd" clip-rule="evenodd" d="M6 5C3.79086 5 2 6.79086 2 9V15C2 17.2091 3.79086 19 6 19H16.4571C18.6663 19 20.4571 17.2091 20.4571 15V14.9854C21.3275 14.8733 22 14.1295 22 13.2286V10.7714C22 9.87054 21.3275 9.12673 20.4571 9.01461V9C20.4571 6.79086 18.6663 5 16.4571 5H6ZM4 9C4 7.89543 4.89543 7 6 7H16.4571C17.5617 7 18.4571 7.89543 18.4571 9V15C18.4571 16.1046 17.5617 17 16.4571 17H6C4.89543 17 4 16.1046 4 15V9Z" fill="black"/>
</svg>
