<svg width="24" height="24" viewBox="0 0 24 24" fill="none" xmlns="http://www.w3.org/2000/svg">
<path fill-rule="evenodd" clip-rule="evenodd" d="M12 9.52566C12 8.09997 10.0366 7.71389 9.49679 9.03343L8.24365 12.0967C7.89377 12.9519 8.52282 13.8889 9.44686 13.8889H10V14.4743C10 15.9 11.9634 16.2861 12.5032 14.9666L13.7564 11.9033C14.1062 11.0481 13.4772 10.1111 12.5531 10.1111H12V9.52566ZM10.4895 11.8889L10.5085 11.8425C10.5295 11.8586 10.5509 11.8741 10.5729 11.8889H10.4895ZM11.4915 12.1575C11.4705 12.1414 11.4491 12.1259 11.4271 12.1111H11.5105L11.4915 12.1575Z" fill="black"/>
<path fill-rule="evenodd" clip-rule="evenodd" d="M6 5C3.79086 5 2 6.79086 2 9V15C2 17.2091 3.79086 19 6 19H16C18.2091 19 20 17.2091 20 15V14.792C20.883 14.4062 21.5 13.5252 21.5 12.5V11.5C21.5 10.4748 20.883 9.5938 20 9.20802V9C20 6.79086 18.2091 5 16 5H6ZM18 9C18 7.89543 17.1046 7 16 7H6C4.89543 7 4 7.89543 4 9V15C4 16.1046 4.89543 17 6 17H16C17.1046 17 18 16.1046 18 15V9Z" fill="black"/>
</svg>
