<svg width="24" height="24" viewBox="0 0 24 24" fill="none" xmlns="http://www.w3.org/2000/svg">
<path d="M6.5 8C7.05228 8 7.5 8.44772 7.5 9V15C7.5 15.5523 7.05228 16 6.5 16C5.94772 16 5.5 15.5523 5.5 15V9C5.5 8.44772 5.94772 8 6.5 8Z" fill="black"/>
<path d="M10.5 9C10.5 8.44772 10.0523 8 9.5 8C8.94772 8 8.5 8.44772 8.5 9V15C8.5 15.5523 8.94772 16 9.5 16C10.0523 16 10.5 15.5523 10.5 15V9Z" fill="black"/>
<path d="M12.5 8C13.0523 8 13.5 8.44772 13.5 9V15C13.5 15.5523 13.0523 16 12.5 16C11.9477 16 11.5 15.5523 11.5 15V9C11.5 8.44772 11.9477 8 12.5 8Z" fill="black"/>
<path d="M16.5 9C16.5 8.44772 16.0523 8 15.5 8C14.9477 8 14.5 8.44772 14.5 9V15C14.5 15.5523 14.9477 16 15.5 16C16.0523 16 16.5 15.5523 16.5 15V9Z" fill="black"/>
<path fill-rule="evenodd" clip-rule="evenodd" d="M2 9C2 6.79086 3.79086 5 6 5H16C18.2091 5 20 6.79086 20 9V9.20802C20.883 9.5938 21.5 10.4748 21.5 11.5V12.5C21.5 13.5252 20.883 14.4062 20 14.792V15C20 17.2091 18.2091 19 16 19H6C3.79086 19 2 17.2091 2 15V9ZM18 15C18 16.1046 17.1046 17 16 17H6C4.89543 17 4 16.1046 4 15V9C4 7.89543 4.89543 7 6 7H16C17.1046 7 18 7.89543 18 9V15Z" fill="black"/>
</svg>
