<svg width="24" height="24" viewBox="0 0 24 24" fill="none" xmlns="http://www.w3.org/2000/svg">
<path fill-rule="evenodd" clip-rule="evenodd" d="M3 4C1.89543 4 1 4.89543 1 6V7C1 8.10457 1.89543 9 3 9C1.89543 9 1 9.89543 1 11V18C1 19.0626 1.82866 19.9316 2.875 19.9962V20C2.875 20.5523 3.32272 21 3.875 21C4.42728 21 4.875 20.5523 4.875 20H19.125C19.125 20.5523 19.5727 21 20.125 21C20.6773 21 21.125 20.5523 21.125 20V19.9962C22.1713 19.9316 23 19.0626 23 18V11C23 9.89543 22.1046 9 21 9H8C9.10457 9 10 8.10457 10 7V6C10 4.89543 9.10457 4 8 4H3ZM3 6H8V7H3V6ZM3 11H21V18H3V11Z" fill="black"/>
</svg>
