<svg width="24" height="24" viewBox="0 0 24 24" fill="none" xmlns="http://www.w3.org/2000/svg">
<path d="M13 3.57088C14.2071 3.74351 15.3149 4.22405 16.2412 4.93041L14.8089 6.36273C14.0083 5.81823 13.0413 5.5 12 5.5C9.23836 5.5 7.00002 7.73772 7.00002 10.4989V14.1716L3.83264 17.339C3.91495 16.9323 4.06696 16.5377 4.26911 16.1776C4.48407 15.7947 4.67843 15.4151 4.81629 15.0855C4.88506 14.9211 4.93428 14.782 4.96521 14.6703C4.98046 14.6152 4.9897 14.5724 4.99491 14.5409C4.99925 14.5146 4.99991 14.5015 5.00001 14.4996L5.00002 14.4917V10.4989C5.00002 6.97223 7.6079 4.05593 11 3.57087V3C11 2.44772 11.4477 2 12 2C12.5523 2 13 2.44772 13 3V3.57088Z" fill="black"/>
<path d="M16.9605 9.86792L18.6174 8.21103C18.8654 8.92807 19 9.69798 19 10.4994V14.4993C19 14.4993 19.0004 14.5124 19.0051 14.5409C19.0103 14.5724 19.0196 14.6152 19.0348 14.6703C19.0658 14.782 19.115 14.9211 19.1838 15.0855C19.3216 15.4151 19.516 15.7947 19.7309 16.1776C20.1351 16.8975 20.3388 17.7554 20.1859 18.5712C20.0246 19.4316 19.4708 20.1819 18.525 20.542C17.68 20.8637 16.5554 21.1579 15.0701 21.333C15.0348 21.3637 14.993 21.3987 14.945 21.4371C14.7947 21.5574 14.58 21.7132 14.3086 21.8682C13.7701 22.176 12.9738 22.5 12 22.5C11.0262 22.5 10.2299 22.176 9.69136 21.8682C9.42 21.7132 9.20528 21.5574 9.05499 21.4371C9.00699 21.3987 8.9652 21.3637 8.92986 21.333C7.77328 21.1966 6.83535 20.9881 6.07791 20.7505L7.71634 19.1121C8.76862 19.3356 10.1661 19.5 12 19.5C14.924 19.5 16.7384 19.0822 17.8133 18.6729C18.0731 18.574 18.18 18.4166 18.2201 18.2027C18.2685 17.9444 18.2143 17.5616 17.9869 17.1566C17.7531 16.74 17.518 16.2861 17.3386 15.8571C17.1735 15.4623 17 14.9629 17 14.5V10.4994C17 10.2855 16.9866 10.0747 16.9605 9.86792Z" fill="black"/>
<path d="M20.7071 3.29289C21.0976 3.68342 21.0976 4.31658 20.7071 4.70711L4.70711 20.7071C4.31658 21.0976 3.68342 21.0976 3.29289 20.7071C2.90237 20.3166 2.90237 19.6834 3.29289 19.2929L19.2929 3.29289C19.6834 2.90237 20.3166 2.90237 20.7071 3.29289Z" fill="black"/>
</svg>
