<svg width="24" height="24" viewBox="0 0 24 24" fill="none" xmlns="http://www.w3.org/2000/svg">
<path fill-rule="evenodd" clip-rule="evenodd" d="M2.5 4C2.5 3.44772 2.94772 3 3.5 3H5C5.55228 3 6 3.44772 6 4V5.66667L7 7H13.6338C13.5487 6.85291 13.5 6.68214 13.5 6.5C13.5 5.94772 13.9477 5.5 14.5 5.5H18C18.5523 5.5 19 5.94772 19 6.5C19 7.05228 18.5523 7.5 18 7.5H17.0352L16.5826 8.17883L17.4702 11.5073C17.5629 11.5025 17.6561 11.5 17.75 11.5C20.6495 11.5 23 13.8505 23 16.75C23 19.6495 20.6495 22 17.75 22C14.8505 22 12.5 19.6495 12.5 16.75C12.5 15.9627 12.6733 15.2159 12.9838 14.5456L10.1834 13.2727C11.0027 14.1988 11.5 15.4163 11.5 16.75C11.5 19.6495 9.1495 22 6.25 22C3.35051 22 1 19.6495 1 16.75C1 14.1051 2.95578 11.9171 5.5 11.5532V8.33333L4.2 6.6C4.07018 6.4269 4 6.21637 4 6V5H3.5C2.94772 5 2.5 4.55228 2.5 4ZM15.5294 11.9914C15.0347 12.2226 14.582 12.5287 14.1859 12.8951L7.5 9.85609V9H14.7317L15.5294 11.9914ZM14.8051 15.3735C14.6093 15.7915 14.5 16.258 14.5 16.75C14.5 18.5449 15.9551 20 17.75 20C19.5449 20 21 18.5449 21 16.75C21 15.0406 19.6803 13.6395 18.0042 13.5098L18.4662 15.2423C18.5659 15.6159 18.4412 16.0135 18.146 16.2633C17.8509 16.5131 17.4382 16.5704 17.0862 16.4104L14.8051 15.3735ZM5.5 15.5V13.587C4.06665 13.9255 3 15.2132 3 16.75C3 18.5449 4.45507 20 6.25 20C8.04493 20 9.5 18.5449 9.5 16.75C9.5 15.398 8.67448 14.2389 7.5 13.7491V15.5C7.5 16.0523 7.05228 16.5 6.5 16.5C5.94772 16.5 5.5 16.0523 5.5 15.5Z" fill="black"/>
</svg>
