<svg width="24" height="24" viewBox="0 0 24 24" fill="none" xmlns="http://www.w3.org/2000/svg">
<path fill-rule="evenodd" clip-rule="evenodd" d="M13.1094 4.2045C11.7803 3.31842 10 4.27121 10 5.8686V9.91946L7.62473 8.01921C7.19347 7.6742 6.56418 7.74412 6.21917 8.17539C5.87416 8.60665 5.94408 9.23594 6.37534 9.58095L9.39926 12.0001L6.37534 14.4192C5.94408 14.7642 5.87416 15.3935 6.21917 15.8248C6.56418 16.256 7.19347 16.326 7.62473 15.9809L10 14.0807V18.1316C10 19.729 11.7803 20.6817 13.1094 19.7957L16.3067 17.6642C17.4941 16.8725 17.4941 15.1276 16.3067 14.336L12.8028 12.0001L16.3067 9.66418C17.4941 8.87254 17.4941 7.12762 16.3067 6.33598L13.1094 4.2045ZM15.1973 8.00008L12 10.1316V5.8686L15.1973 8.00008ZM15.1973 16.0001L12 18.1316V13.8686L15.1973 16.0001Z" fill="black"/>
</svg>
