<svg width="24" height="24" viewBox="0 0 24 24" fill="none" xmlns="http://www.w3.org/2000/svg">
<path fill-rule="evenodd" clip-rule="evenodd" d="M8 8.28444V19.9996C8 21.1042 7.10457 21.9996 6 21.9996H4C2.89543 21.9996 2 21.1042 2 19.9996V3.99964C2 2.89507 2.89543 1.99964 4 1.99964H6C6.74846 1.99964 7.40089 2.41077 7.74379 3.01952C7.98827 2.78625 8.29524 2.61185 8.64698 2.52559L10.5894 2.04923C11.6622 1.78615 12.7451 2.44254 13.0082 3.51532L16 15.7149V3.99964C16 2.89507 16.8954 1.99964 18 1.99964H20C21.1046 1.99964 22 2.89507 22 3.99964V19.9996C22 21.1042 21.1046 21.9996 20 21.9996H18C17.2515 21.9996 16.5991 21.5885 16.2562 20.9797C16.0117 21.213 15.7047 21.3874 15.353 21.4737L13.4106 21.95C12.3378 22.2131 11.2548 21.5567 10.9918 20.4839L8 8.28444ZM9.12334 4.46804L11.0658 3.99168L14.8766 19.5312L12.9342 20.0076L9.12334 4.46804ZM6 3.99964L4 3.99964V19.9996H6V3.99964ZM20 3.99964L18 3.99964V19.9996H20V3.99964Z" fill="black"/>
</svg>
