<svg width="24" height="24" viewBox="0 0 24 24" fill="none" xmlns="http://www.w3.org/2000/svg">
<path d="M5.63636 3.81825C4.63868 3.81825 3.81818 4.63509 3.81818 5.6572V13.8013C3.81818 14.7075 4.9466 15.053 5.45844 14.3498L5.70787 14.007C6.15259 13.396 6.78622 13.0343 7.45455 12.9221V14.8253C7.35019 14.8864 7.25557 14.9703 7.17793 15.077L6.92849 15.4197C5.36202 17.5721 2 16.4364 2 13.8013V5.6572C2 3.64388 3.62159 2 5.63636 2H10.1818C12.1897 2 13.8071 3.63262 13.8181 5.63651H11.9999C11.9889 4.62408 11.1728 3.81825 10.1818 3.81825H5.63636Z" fill="black"/>
<path fill-rule="evenodd" clip-rule="evenodd" d="M18.5584 6.54563C20.4129 6.54563 22 7.98255 22 9.85577V19.4878C22 20.7114 21.1693 21.5614 20.2317 21.8664C19.2967 22.1706 18.1314 21.9789 17.3671 21.0472L15.4785 18.745C15.4134 18.6657 15.3083 18.6141 15.1818 18.6141C15.0553 18.6141 14.9502 18.6657 14.8851 18.745L12.9965 21.0472C12.2322 21.9789 11.0669 22.1706 10.1319 21.8664C9.19435 21.5614 8.36364 20.7114 8.36364 19.4878V9.85577C8.36364 7.98255 9.95078 6.54563 11.8052 6.54563H18.5584ZM20.1818 9.85577C20.1818 9.07691 19.5013 8.36389 18.5584 8.36389H11.8052C10.8623 8.36389 10.1818 9.07691 10.1818 9.85577V19.4878C10.1818 19.7884 10.3681 20.0312 10.6943 20.1373C11.0231 20.2443 11.3683 20.1653 11.5909 19.8939L13.4795 17.5918C14.3501 16.5305 16.0135 16.5305 16.8842 17.5918L18.7728 19.8939C18.9954 20.1653 19.3405 20.2443 19.6693 20.1373C19.9955 20.0312 20.1818 19.7884 20.1818 19.4878V9.85577Z" fill="black"/>
</svg>
