<svg width="24" height="24" viewBox="0 0 24 24" fill="none" xmlns="http://www.w3.org/2000/svg">
<path fill-rule="evenodd" clip-rule="evenodd" d="M7.42857 1C5.01874 1 3 2.89041 3 5.30126V19.7948C3 22.9156 6.99131 24.0975 8.86786 21.7744L11.4247 18.6091C11.7108 18.2549 12.2892 18.2549 12.5753 18.609L15.1321 21.7744C17.0087 24.0975 21 22.9156 21 19.7948V5.30126C21 2.89041 18.9813 1 16.5714 1H7.42857ZM5 5.30126C5 4.06564 6.05131 3 7.42857 3H16.5714C17.9487 3 19 4.06564 19 5.30126V19.7948C19 20.8651 17.4837 21.5028 16.688 20.5176L14.1311 17.3523C13.0445 16.0071 10.9555 16.0071 9.86891 17.3523L7.31204 20.5177C6.51628 21.5028 5 20.8651 5 19.7948V5.30126Z" fill="black"/>
</svg>
