<svg width="24" height="24" viewBox="0 0 24 24" fill="none" xmlns="http://www.w3.org/2000/svg">
<path d="M5.55279 10.8944C5.05881 10.6474 4.85858 10.0467 5.10557 9.55273C5.35256 9.05876 5.95324 8.85853 6.44721 9.10552L9.44721 10.6055C9.94119 10.8525 10.1414 11.4532 9.89443 11.9472C9.64744 12.4411 9.04676 12.6414 8.55279 12.3944L5.55279 10.8944Z" fill="black"/>
<path d="M5.55279 13.8944C5.05881 13.6474 4.85858 13.0467 5.10557 12.5527C5.35256 12.0588 5.95324 11.8585 6.44721 12.1055L9.44721 13.6055C9.94119 13.8525 10.1414 14.4532 9.89443 14.9472C9.64744 15.4411 9.04676 15.6414 8.55279 15.3944L5.55279 13.8944Z" fill="black"/>
<path d="M18.8944 9.55273C19.1414 10.0467 18.9412 10.6474 18.4472 10.8944L15.4472 12.3944C14.9532 12.6414 14.3526 12.4411 14.1056 11.9472C13.8586 11.4532 14.0588 10.8525 14.5528 10.6055L17.5528 9.10552C18.0468 8.85853 18.6474 9.05876 18.8944 9.55273Z" fill="black"/>
<path d="M18.8944 12.5527C19.1414 13.0467 18.9412 13.6474 18.4472 13.8944L15.4472 15.3944C14.9532 15.6414 14.3526 15.4411 14.1056 14.9472C13.8586 14.4532 14.0588 13.8525 14.5528 13.6055L17.5528 12.1055C18.0468 11.8585 18.6474 12.0588 18.8944 12.5527Z" fill="black"/>
<path fill-rule="evenodd" clip-rule="evenodd" d="M12 19.9999C12.3502 20.9366 12.3502 20.9366 12.3503 20.9366L12.3594 20.9332L12.3835 20.9241L12.4742 20.8896C12.5525 20.8597 12.6658 20.8161 12.8071 20.7607C13.0897 20.65 13.4855 20.4919 13.9405 20.3016C14.844 19.9237 16.0062 19.4081 16.9787 18.8779C18.0587 18.2891 19.6546 17.6167 20.6095 17.2304C21.4414 16.8939 22 16.0864 22 15.1753V5.56915C22 4.12792 20.6204 3.0473 19.2006 3.48363C18.2643 3.77137 17.0382 4.17495 16.1008 4.58308C15.1215 5.00945 13.9538 5.65991 13.0529 6.1883C12.6398 6.43056 12.2753 6.65167 12 6.82108C11.7247 6.65167 11.3602 6.43056 10.9471 6.1883C10.0462 5.65991 8.8785 5.00945 7.89918 4.58308C6.96177 4.17495 5.73568 3.77137 4.79939 3.48363C3.37964 3.0473 2 4.12792 2 5.56915V15.1753C2 16.0864 2.55861 16.8939 3.39051 17.2304C4.34538 17.6167 5.94127 18.2891 7.02134 18.8779C7.99383 19.4081 9.15605 19.9237 10.0595 20.3016C10.5145 20.4919 10.9103 20.65 11.1929 20.7607C11.3342 20.8161 11.4475 20.8597 11.5258 20.8896L11.6165 20.9241L11.6406 20.9332L11.649 20.9363C11.649 20.9363 11.6498 20.9366 12 19.9999ZM4.21185 5.39538C4.12004 5.36716 4 5.42904 4 5.56915V15.1753C4 15.2577 4.05132 15.3403 4.14048 15.3764C5.0946 15.7623 6.78695 16.4723 7.97866 17.1219C8.86058 17.6027 9.94836 18.0872 10.8313 18.4565C10.8885 18.4805 10.9448 18.5039 11 18.5267V8.55409C10.7294 8.38713 10.3584 8.16165 9.9353 7.91347C9.04701 7.39248 7.96473 6.79295 7.10082 6.41682C6.2725 6.05619 5.13671 5.67961 4.21185 5.39538ZM13 8.55409V18.5267C13.0552 18.5039 13.1115 18.4805 13.1687 18.4565C14.0516 18.0872 15.1394 17.6027 16.0213 17.1219C17.2131 16.4723 18.9054 15.7623 19.8595 15.3764C19.9487 15.3403 20 15.2577 20 15.1753V5.56915C20 5.42904 19.88 5.36716 19.7881 5.39538C18.8633 5.67961 17.7275 6.05619 16.8992 6.41682C16.0353 6.79295 14.953 7.39248 14.0647 7.91347C13.6416 8.16165 13.2706 8.38713 13 8.55409Z" fill="black"/>
<path d="M12 19.9999L12.3503 20.9366C12.1245 21.021 11.8748 21.0207 11.649 20.9363L12 19.9999Z" fill="black"/>
</svg>
