<svg width="24" height="24" viewBox="0 0 24 24" fill="none" xmlns="http://www.w3.org/2000/svg">
<path d="M7.42857 1C5.01874 1 3 2.89041 3 5.30126V19.7948C3 22.9156 6.99131 24.0975 8.86786 21.7744L11.4247 18.6091C11.7108 18.2549 12.2892 18.2549 12.5753 18.6091L15.1321 21.7744C17.0087 24.0975 21 22.9156 21 19.7948V10.5C21 9.94772 20.5523 9.5 20 9.5C19.4477 9.5 19 9.94772 19 10.5V19.7948C19 20.8651 17.4837 21.5028 16.688 20.5177L14.1311 17.3523C13.0445 16.0071 10.9555 16.0071 9.86891 17.3523L7.31204 20.5177C6.51628 21.5028 5 20.8651 5 19.7948V5.30126C5 4.06564 6.05131 3 7.42857 3H14.5C15.0523 3 15.5 2.55228 15.5 2C15.5 1.44772 15.0523 1 14.5 1H7.42857Z" fill="black"/>
<path d="M19 2C19 1.44772 18.5523 1 18 1C17.4477 1 17 1.44772 17 2V4H15C14.4477 4 14 4.44772 14 5C14 5.55228 14.4477 6 15 6H17V8C17 8.55228 17.4477 9 18 9C18.5523 9 19 8.55228 19 8V6H21C21.5523 6 22 5.55228 22 5C22 4.44772 21.5523 4 21 4H19V2Z" fill="black"/>
</svg>
