<svg width="24" height="24" viewBox="0 0 24 24" fill="none" xmlns="http://www.w3.org/2000/svg">
<path fill-rule="evenodd" clip-rule="evenodd" d="M6.66667 2C4.62995 2 3 3.66829 3 5.7V17.9789C3 20.1879 4.77193 22 6.98381 22H18.4563C18.8534 22 19.3623 21.9101 19.7383 21.5051C20.1161 21.0981 20.1491 20.5997 20.1243 20.278C20.099 19.9499 20.0011 19.6198 19.9054 19.3446C19.815 19.0847 19.7026 18.8085 19.5993 18.5545L19.5715 18.4862C19.3288 17.8889 19.1545 17.4279 19.1148 17.0769C19.1098 17.0328 19.1079 16.9969 19.1076 16.9682C19.4112 16.9222 19.7032 16.8233 19.968 16.6515C20.3661 16.3932 20.6075 16.0319 20.7509 15.6696C21.0003 15.0393 21.0002 14.2528 21 13.6578L21 5.7C21 3.66829 19.3701 2 17.3333 2H6.66667ZM17.1275 17.3017C17.1166 17.2057 17.1093 17.1046 17.1079 17H5V17.9789C5 19.1069 5.89986 20 6.98381 20H18.0158C17.9434 19.7919 17.8505 19.5635 17.742 19.2967L17.7109 19.2202C17.4955 18.6901 17.2031 17.9708 17.1275 17.3017ZM18.8715 14.9763C18.8478 14.9846 18.787 15 18.6667 15H5V5.7C5 4.74937 5.75787 4 6.66667 4H17.3333C18.2421 4 19 4.74937 19 5.7V13.6155C19 13.9483 18.9975 14.2231 18.9779 14.462C18.9581 14.7039 18.9245 14.8495 18.8912 14.9337C18.8829 14.9547 18.8761 14.9682 18.8715 14.9763ZM18.8818 14.9723L18.8837 14.9713C18.8837 14.9713 18.8831 14.9716 18.8818 14.9723ZM18.1309 20.4431C18.1308 20.4461 18.1308 20.4478 18.1309 20.4478C18.1309 20.4479 18.1309 20.4471 18.1309 20.4454" fill="black"/>
</svg>
