<svg width="24" height="24" viewBox="0 0 24 24" fill="none" xmlns="http://www.w3.org/2000/svg">
<path d="M7 12.25C7 12.9404 7.55964 13.5 8.25 13.5C8.94036 13.5 9.5 12.9404 9.5 12.25C9.5 11.5596 8.94036 11 8.25 11C7.55964 11 7 11.5596 7 12.25Z" fill="black"/>
<path d="M15.25 13.5C14.5596 13.5 14 12.9404 14 12.25C14 11.5596 14.5596 11 15.25 11C15.9404 11 16.5 11.5596 16.5 12.25C16.5 12.9404 15.9404 13.5 15.25 13.5Z" fill="black"/>
<path d="M9.10557 15.5528C9.35256 15.0588 9.95323 14.8586 10.4472 15.1056L10.6584 15.2111C11.5029 15.6334 12.4971 15.6334 13.3416 15.2111L13.5528 15.1056C14.0468 14.8586 14.6474 15.0588 14.8944 15.5528C15.1414 16.0468 14.9412 16.6474 14.4472 16.8944L14.2361 17C12.8284 17.7038 11.1716 17.7038 9.76393 17L9.55279 16.8944C9.05881 16.6474 8.85858 16.0468 9.10557 15.5528Z" fill="black"/>
<path fill-rule="evenodd" clip-rule="evenodd" d="M16.7071 1.29289C16.3166 0.902369 15.6834 0.902369 15.2929 1.29289L14.5858 2H13C12.6512 2 12.3276 2.18173 12.1461 2.47956L11.2194 4H7C3.68629 4 1 6.68629 1 10V18C1 20.2091 2.79086 22 5 22H19C21.2091 22 23 20.2091 23 18V10C23 6.68629 20.3137 4 17 4H15C15.2652 4 15.5196 3.89464 15.7071 3.70711L16.7071 2.70711C17.0976 2.31658 17.0976 1.68342 16.7071 1.29289ZM7 6C4.79086 6 3 7.79086 3 10V18C3 19.1046 3.89543 20 5 20H19C20.1046 20 21 19.1046 21 18V10C21 7.79086 19.2091 6 17 6H7Z" fill="black"/>
</svg>
