<svg width="24" height="24" viewBox="0 0 24 24" fill="none" xmlns="http://www.w3.org/2000/svg">
<path fill-rule="evenodd" clip-rule="evenodd" d="M5 2.5C3.34315 2.5 2 3.84315 2 5.5V7.5C2 8.24028 2.4022 8.88663 3 9.23244V17.5C3 19.7091 4.79086 21.5 7 21.5H17C19.2091 21.5 21 19.7091 21 17.5V9.23244C21.5978 8.88663 22 8.24028 22 7.5V5.5C22 3.84315 20.6569 2.5 19 2.5H5ZM7 19.5C5.89543 19.5 5 18.6046 5 17.5V9.5H19V17.5C19 18.6046 18.1046 19.5 17 19.5H7ZM19 4.5C19.5523 4.5 20 4.94772 20 5.5V7.5H4V5.5C4 4.94772 4.44772 4.5 5 4.5H19Z" fill="black"/>
</svg>
