<svg width="24" height="24" viewBox="0 0 24 24" fill="none" xmlns="http://www.w3.org/2000/svg">
<path fill-rule="evenodd" clip-rule="evenodd" d="M0.88843 6.90497C0.91148 6.71981 0.947856 6.47232 1.02555 6.24492C1.07322 6.01362 1.17814 5.82878 1.27038 5.70028C1.39713 5.5237 1.55234 5.37957 1.69472 5.26547C1.97984 5.03699 2.34698 4.8242 2.73176 4.62971C3.51135 4.23566 4.54399 3.82774 5.60621 3.44799C7.74092 2.68482 10.1304 1.9881 11.1803 1.69042C11.727 1.53539 12.2952 1.54273 12.8368 1.70966C13.8829 2.03208 16.2674 2.78218 18.3965 3.56241C19.4568 3.95095 20.4807 4.35668 21.2498 4.72812C21.6292 4.91133 21.9856 5.10461 22.2608 5.30158C22.3963 5.39862 22.5501 5.5231 22.6796 5.67618C22.7657 5.77796 22.9047 5.96648 22.9672 6.22679C23.0493 6.45909 23.087 6.71486 23.1107 6.90494C23.1464 7.19201 23.1709 7.53871 23.1878 7.91804C23.2216 8.67935 23.2273 9.6352 23.2174 10.6375C23.1976 12.6457 23.1143 14.8943 23.0565 16.2626C23.0068 17.4412 22.2671 18.4697 21.1803 18.9044L13.1137 22.131C12.3985 22.4171 11.6006 22.4171 10.8854 22.131L2.81884 18.9044C1.73201 18.4697 0.992322 17.4411 0.942562 16.2626C0.884789 14.8943 0.801574 12.6456 0.781721 10.6375C0.771812 9.63518 0.777519 8.67935 0.811357 7.91805C0.828217 7.53873 0.852698 7.19204 0.88843 6.90497ZM10.9995 20.0226V11.1741C10.962 11.1608 10.9247 11.1468 10.8876 11.1319L2.81428 7.90258L2.80938 8.00686C2.77793 8.71446 2.77184 9.62831 2.78162 10.6177C2.80115 12.5931 2.88328 14.8163 2.94078 16.1782C2.95696 16.5613 3.19723 16.9017 3.56162 17.0475L10.9995 20.0226ZM12.9995 20.0226V11.1742C13.037 11.1608 13.0743 11.1468 13.1115 11.1319L21.1849 7.90256L21.1898 8.00688C21.2212 8.71447 21.2273 9.62833 21.2175 10.6178C21.198 12.5932 21.1158 14.8163 21.0583 16.1782C21.0421 16.5613 20.8019 16.9017 20.4375 17.0474L12.9995 20.0226ZM17.7084 5.44029C18.5007 5.73065 19.2389 6.0189 19.8454 6.28427L17.0159 7.41606L9.67159 4.21932C10.5246 3.9591 11.2572 3.74745 11.7258 3.61457C11.8995 3.56533 12.0736 3.56727 12.2477 3.62093C13.2857 3.94086 15.6298 4.67859 17.7084 5.44029ZM6.79689 5.1493L14.4045 8.46064L12.3687 9.27497C12.1303 9.37033 11.8688 9.37033 11.6304 9.27497L4.01791 6.22997C4.64056 5.94345 5.42602 5.63638 6.27949 5.33126C6.45042 5.27015 6.62318 5.20943 6.79689 5.1493Z" fill="black"/>
</svg>
