<svg width="24" height="24" viewBox="0 0 24 24" fill="none" xmlns="http://www.w3.org/2000/svg">
<path fill-rule="evenodd" clip-rule="evenodd" d="M7.5 7.32929C8.66519 6.91746 9.5 5.80622 9.5 4.5C9.5 2.84315 8.15685 1.5 6.5 1.5C4.84315 1.5 3.5 2.84315 3.5 4.5C3.5 5.80622 4.33481 6.91746 5.5 7.32929V12.6707C4.33481 13.0825 3.5 14.1938 3.5 15.5C3.5 16.8071 4.3359 17.9189 5.50229 18.3301C5.50085 18.3521 5.50011 18.3742 5.50011 18.3966V21.5C5.50011 22.0523 5.94783 22.5 6.50011 22.5C7.0524 22.5 7.50011 22.0523 7.50011 21.5V18.3966C7.50011 18.3742 7.49938 18.352 7.49793 18.33C8.26505 18.0595 8.88919 17.4859 9.22656 16.7531C12.8992 16.7655 15.3335 15.9362 16.7866 14.0849C18.1354 12.3665 18.4466 9.97596 18.4932 7.3317C19.6619 6.9218 20.5 5.80877 20.5 4.5C20.5 2.84315 19.1569 1.5 17.5 1.5C15.8431 1.5 14.5 2.84315 14.5 4.5C14.5 5.80335 15.3311 6.91258 16.4923 7.32657C16.4418 9.90318 16.1296 11.6828 15.2134 12.85C14.3383 13.9649 12.7129 14.7389 9.40629 14.7531C9.15755 13.7823 8.43519 13.0012 7.5 12.6707V7.32929ZM7.5 4.5C7.5 3.94772 7.05228 3.5 6.5 3.5C5.94772 3.5 5.5 3.94772 5.5 4.5C5.5 5.05228 5.94772 5.5 6.5 5.5C7.05228 5.5 7.5 5.05228 7.5 4.5ZM17.5 5.5C18.0523 5.5 18.5 5.05228 18.5 4.5C18.5 3.94772 18.0523 3.5 17.5 3.5C16.9477 3.5 16.5 3.94772 16.5 4.5C16.5 5.05228 16.9477 5.5 17.5 5.5ZM7.5 15.5C7.5 14.9477 7.05228 14.5 6.5 14.5C5.94772 14.5 5.5 14.9477 5.5 15.5C5.5 16.0523 5.94772 16.5 6.5 16.5C7.05228 16.5 7.5 16.0523 7.5 15.5Z" fill="black"/>
</svg>
