<svg width="24" height="24" viewBox="0 0 24 24" fill="none" xmlns="http://www.w3.org/2000/svg">
<path fill-rule="evenodd" clip-rule="evenodd" d="M12.0005 1C10.6198 1 9.5005 2.11929 9.5005 3.5V6C9.5005 6.55228 9.05279 7 8.5005 7H6.0005C4.34365 7 3.0005 8.34315 3.0005 10V13.9377L2.28923 19.6279C2.06541 21.4185 3.46157 23 5.26607 23H18.7349C20.5394 23 21.9356 21.4185 21.7118 19.6279L21.0005 13.9377V10C21.0005 8.34315 19.6574 7 18.0005 7H15.5005C14.9482 7 14.5005 6.55228 14.5005 6V3.5C14.5005 2.11929 13.3812 1 12.0005 1ZM4.27379 19.876L4.88328 15H19.1177L19.7272 19.876C19.8018 20.4728 19.3364 21 18.7349 21H16.8678L16.4905 18.3586C16.4123 17.8118 15.9058 17.4319 15.3591 17.5101C14.8123 17.5882 14.4324 18.0947 14.5106 18.6414L14.8475 21H5.26607C4.66457 21 4.19918 20.4728 4.27379 19.876ZM18.0005 9C18.5528 9 19.0005 9.44772 19.0005 10V13H5.0005V10C5.0005 9.44772 5.44822 9 6.0005 9H8.5005C10.1574 9 11.5005 7.65685 11.5005 6V3.5C11.5005 3.22386 11.7244 3 12.0005 3C12.2766 3 12.5005 3.22386 12.5005 3.5V6C12.5005 7.65685 13.8436 9 15.5005 9H18.0005Z" fill="black"/>
</svg>
