<svg width="24" height="24" viewBox="0 0 24 24" fill="none" xmlns="http://www.w3.org/2000/svg">
<path fill-rule="evenodd" clip-rule="evenodd" d="M5.00921 11.8637C5.00313 11.8129 5 11.7612 5 11.7087V5C5 3.89543 5.89543 3 7 3H8V2C8 1.44771 8.44772 1 9 1C9.55228 1 10 1.44771 10 2V3H10.5V2C10.5 1.44771 10.9477 1 11.5 1C12.0523 1 12.5 1.44771 12.5 2V3.02469C15.0267 3.27555 17 5.40733 17 8C17 9.27077 16.5259 10.4308 15.745 11.3129C17.646 12.021 19 13.8524 19 16C19 18.7614 16.7614 21 14 21H12.5V22C12.5 22.5523 12.0523 23 11.5 23C10.9477 23 10.5 22.5523 10.5 22V21H10V22C10 22.5523 9.55228 23 9 23C8.44772 23 8 22.5523 8 22V21H7C5.89543 21 5 20.1046 5 19V12C5 11.9538 5.00314 11.9083 5.00921 11.8637ZM7 11H12C13.6569 11 15 9.65685 15 8C15 6.34315 13.6569 5 12 5H7V11ZM7 13V19H14C15.6569 19 17 17.6569 17 16C17 14.3431 15.6569 13 14 13H7Z" fill="black"/>
</svg>
