<svg width="24" height="24" viewBox="0 0 24 24" fill="none" xmlns="http://www.w3.org/2000/svg">
<path fill-rule="evenodd" clip-rule="evenodd" d="M7.19918 5.08018L7.30225 4.66789C7.84116 2.51225 9.77801 1 12 1C14.222 1 16.1588 2.51225 16.6977 4.66789L16.8008 5.08018C17.9688 5.31752 18.9518 6.06375 19.5085 7.07733L20.2929 6.29289C20.6834 5.90237 21.3166 5.90237 21.7071 6.29289C22.0976 6.68342 22.0976 7.31658 21.7071 7.70711L20 9.41422V12L21.5 12C22.0523 12 22.5 12.4477 22.5 13C22.5 13.5523 22.0523 14 21.5 14L19.9381 14C19.8186 14.9588 19.5293 15.8648 19.1015 16.6872L20.7071 18.2929C21.0976 18.6834 21.0976 19.3166 20.7071 19.7071C20.3166 20.0976 19.6834 20.0976 19.2929 19.7071L17.9422 18.3564C16.478 19.9797 14.3582 21 12 21C9.64183 21 7.52196 19.9797 6.05779 18.3564L4.70711 19.7071C4.31658 20.0976 3.68342 20.0976 3.29289 19.7071C2.90237 19.3166 2.90237 18.6834 3.29289 18.2929L4.89854 16.6872C4.47066 15.8648 4.18145 14.9588 4.06189 14L2.5 14C1.94772 14 1.5 13.5523 1.5 13C1.5 12.4477 1.94771 12 2.5 12L4 12V9.41421L2.29289 7.70711C1.90237 7.31658 1.90237 6.68342 2.29289 6.29289C2.68342 5.90237 3.31658 5.90237 3.70711 6.29289L4.49154 7.07732C5.04817 6.06375 6.03124 5.31752 7.19918 5.08018ZM12 19C8.68629 19 6 16.3137 6 13V9C6 7.89543 6.89543 7 8 7H16C17.1046 7 18 7.89543 18 9V13C18 16.3137 15.3137 19 12 19ZM14.7147 5C14.3481 3.81669 13.251 3 12 3C10.749 3 9.65192 3.81669 9.28531 5H14.7147Z" fill="black"/>
</svg>
