<svg width="24" height="24" viewBox="0 0 24 24" fill="none" xmlns="http://www.w3.org/2000/svg">
<path fill-rule="evenodd" clip-rule="evenodd" d="M7 5C7 3.89543 7.89543 3 9 3H15C16.1046 3 17 3.89543 17 5V19H20C20.5523 19 21 19.4477 21 20C21 20.5523 20.5523 21 20 21H4C3.44772 21 3 20.5523 3 20C3 19.4477 3.44772 19 4 19H7V5ZM15 15H13C12.4477 15 12 15.4477 12 16C12 16.5523 12.4477 17 13 17H15V19H9V17H10C10.5523 17 11 16.5523 11 16C11 15.4477 10.5523 15 10 15H9V14H11C11.5523 14 12 13.5523 12 13C12 12.4477 11.5523 12 11 12H9V11H10C10.5523 11 11 10.5523 11 10C11 9.44772 10.5523 9 10 9H9V8H11C11.5523 8 12 7.55228 12 7C12 6.44772 11.5523 6 11 6H9V5H15V6H14C13.4477 6 13 6.44772 13 7C13 7.55228 13.4477 8 14 8H15V9H13C12.4477 9 12 9.44772 12 10C12 10.5523 12.4477 11 13 11H15V12H14C13.4477 12 13 12.4477 13 13C13 13.5523 13.4477 14 14 14H15V15Z" fill="black"/>
</svg>
