<svg width="24" height="24" viewBox="0 0 24 24" fill="none" xmlns="http://www.w3.org/2000/svg">
<path d="M16 13.9997C16 14.5519 15.5523 14.9997 15 14.9997H14C13.4477 14.9997 13 14.5519 13 13.9997C13 13.4474 13.4477 12.9997 14 12.9997H15C15.5523 12.9997 16 13.4474 16 13.9997Z" fill="black"/>
<path d="M15 11.9997C15.5523 11.9997 16 11.5519 16 10.9997C16 10.4474 15.5523 9.99966 15 9.99966H14C13.4477 9.99966 13 10.4474 13 10.9997C13 11.5519 13.4477 11.9997 14 11.9997H15Z" fill="black"/>
<path d="M11 13.9997C11 14.5519 10.5523 14.9997 10 14.9997H9C8.44772 14.9997 8 14.5519 8 13.9997C8 13.4474 8.44772 12.9997 9 12.9997H10C10.5523 12.9997 11 13.4474 11 13.9997Z" fill="black"/>
<path d="M10 11.9997C10.5523 11.9997 11 11.5519 11 10.9997C11 10.4474 10.5523 9.99966 10 9.99966H9C8.44772 9.99966 8 10.4474 8 10.9997C8 11.5519 8.44772 11.9997 9 11.9997H10Z" fill="black"/>
<path fill-rule="evenodd" clip-rule="evenodd" d="M12.9782 4.39915C12.3667 4.0594 11.622 4.06389 11.0146 4.41097L5.00772 7.8435C4.38457 8.19958 4 8.86227 4 9.57998V18.9997C3.44772 18.9997 3 19.4474 3 19.9997C3 20.5519 3.44772 20.9997 4 20.9997H20C20.5523 20.9997 21 20.5519 21 19.9997C21 19.4474 20.5523 18.9997 20 18.9997V9.56585C20 8.86333 19.6314 8.21231 19.029 7.85087L17.5 6.93347V5.99966C17.5 5.44738 17.0523 4.99966 16.5 4.99966C16.0125 4.99966 15.6065 5.34847 15.5179 5.81011L12.9782 4.39915ZM13 18.9997V16.9997C13 16.4474 12.5523 15.9997 12 15.9997C11.4477 15.9997 11 16.4474 11 16.9997V18.9997H6V9.57998L12.0069 6.14746L15.9998 8.36573L18 9.56585V18.9997H13Z" fill="black"/>
</svg>
