<svg width="24" height="24" viewBox="0 0 24 24" fill="none" xmlns="http://www.w3.org/2000/svg">
<path d="M16 14.0003C16 14.5526 15.5523 15.0003 15 15.0003H14C13.4477 15.0003 13 14.5526 13 14.0003C13 13.448 13.4477 13.0003 14 13.0003H15C15.5523 13.0003 16 13.448 16 14.0003Z" fill="black"/>
<path d="M15 12.0003C15.5523 12.0003 16 11.5526 16 11.0003C16 10.448 15.5523 10.0003 15 10.0003H14C13.4477 10.0003 13 10.448 13 11.0003C13 11.5526 13.4477 12.0003 14 12.0003H15Z" fill="black"/>
<path d="M11 14.0003C11 14.5526 10.5523 15.0003 10 15.0003H9C8.44772 15.0003 8 14.5526 8 14.0003C8 13.448 8.44772 13.0003 9 13.0003H10C10.5523 13.0003 11 13.448 11 14.0003Z" fill="black"/>
<path d="M10 12.0003C10.5523 12.0003 11 11.5526 11 11.0003C11 10.448 10.5523 10.0003 10 10.0003H9C8.44772 10.0003 8 10.448 8 11.0003C8 11.5526 8.44772 12.0003 9 12.0003H10Z" fill="black"/>
<path fill-rule="evenodd" clip-rule="evenodd" d="M13.1094 4.53805C12.4376 4.09018 11.5624 4.09018 10.8906 4.53805L5.8906 7.87138C5.3342 8.24231 5 8.86678 5 9.53548V19.0003H4C3.44772 19.0003 3 19.448 3 20.0003C3 20.5526 3.44772 21.0003 4 21.0003H20C20.5523 21.0003 21 20.5526 21 20.0003C21 19.448 20.5523 19.0003 20 19.0003H19V9.53548C19 8.86678 18.6658 8.24231 18.1094 7.87138L13.1094 4.53805ZM13 19.0003V17.0003C13 16.448 12.5523 16.0003 12 16.0003C11.4477 16.0003 11 16.448 11 17.0003V19.0003H7V9.53548L12 6.20215L17 9.53548V19.0003H13Z" fill="black"/>
</svg>
