<svg width="24" height="24" viewBox="0 0 24 24" fill="none" xmlns="http://www.w3.org/2000/svg">
<path d="M15 10.9996C15.5523 10.9996 16 10.5519 16 9.99962C16 9.44733 15.5523 8.99962 15 8.99962H14C13.4477 8.99962 13 9.44733 13 9.99962C13 10.5519 13.4477 10.9996 14 10.9996H15Z" fill="black"/>
<path d="M11 12.9996C11 13.5519 10.5523 13.9996 10 13.9996H9C8.44772 13.9996 8 13.5519 8 12.9996C8 12.4473 8.44772 11.9996 9 11.9996H10C10.5523 11.9996 11 12.4473 11 12.9996Z" fill="black"/>
<path d="M10 10.9996C10.5523 10.9996 11 10.5519 11 9.99962C11 9.44733 10.5523 8.99962 10 8.99962H9C8.44772 8.99962 8 9.44733 8 9.99962C8 10.5519 8.44772 10.9996 9 10.9996H10Z" fill="black"/>
<path d="M16 12.9996C16 13.5519 15.5523 13.9996 15 13.9996H14C13.4477 13.9996 13 13.5519 13 12.9996C13 12.4473 13.4477 11.9996 14 11.9996H15C15.5523 11.9996 16 12.4473 16 12.9996Z" fill="black"/>
<path d="M10 16.9996C10.5523 16.9996 11 16.5519 11 15.9996C11 15.4473 10.5523 14.9996 10 14.9996H9C8.44772 14.9996 8 15.4473 8 15.9996C8 16.5519 8.44772 16.9996 9 16.9996H10Z" fill="black"/>
<path d="M16 15.9996C16 16.5519 15.5523 16.9996 15 16.9996H14C13.4477 16.9996 13 16.5519 13 15.9996C13 15.4473 13.4477 14.9996 14 14.9996H15C15.5523 14.9996 16 15.4473 16 15.9996Z" fill="black"/>
<path fill-rule="evenodd" clip-rule="evenodd" d="M12.9923 4.41488C12.3774 4.06353 11.6226 4.06353 11.0077 4.41488L5.00772 7.84345C4.38457 8.19954 4 8.86222 4 9.57994V18.9996H2.5C1.94772 18.9996 1.5 19.4473 1.5 19.9996C1.5 20.5519 1.94772 20.9996 2.5 20.9996H21.5C22.0523 20.9996 22.5 20.5519 22.5 19.9996C22.5 19.4473 22.0523 18.9996 21.5 18.9996H20V9.57994C20 8.86223 19.6154 8.19954 18.9923 7.84345L12.9923 4.41488ZM13 18.9996V17.9996C13 17.4473 12.5523 16.9996 12 16.9996C11.4477 16.9996 11 17.4473 11 17.9996V18.9996H6V9.57994L12 6.15137L18 9.57994V18.9996H13Z" fill="black"/>
</svg>
