<svg width="24" height="24" viewBox="0 0 24 24" fill="none" xmlns="http://www.w3.org/2000/svg">
<path d="M11.5 7C11.5 7.55228 11.0523 8 10.5 8H9.5C8.94772 8 8.5 7.55228 8.5 7C8.5 6.44772 8.94772 6 9.5 6H10.5C11.0523 6 11.5 6.44772 11.5 7Z" fill="black"/>
<path d="M14.5 11C15.0523 11 15.5 10.5523 15.5 10C15.5 9.44772 15.0523 9 14.5 9H13.5C12.9477 9 12.5 9.44772 12.5 10C12.5 10.5523 12.9477 11 13.5 11H14.5Z" fill="black"/>
<path d="M11.5 13C11.5 13.5523 11.0523 14 10.5 14H9.5C8.94772 14 8.5 13.5523 8.5 13C8.5 12.4477 8.94772 12 9.5 12H10.5C11.0523 12 11.5 12.4477 11.5 13Z" fill="black"/>
<path d="M14.5 8C15.0523 8 15.5 7.55228 15.5 7C15.5 6.44772 15.0523 6 14.5 6H13.5C12.9477 6 12.5 6.44772 12.5 7C12.5 7.55228 12.9477 8 13.5 8H14.5Z" fill="black"/>
<path d="M11.5 10C11.5 10.5523 11.0523 11 10.5 11H9.5C8.94772 11 8.5 10.5523 8.5 10C8.5 9.44772 8.94772 9 9.5 9H10.5C11.0523 9 11.5 9.44772 11.5 10Z" fill="black"/>
<path d="M14.5 14C15.0523 14 15.5 13.5523 15.5 13C15.5 12.4477 15.0523 12 14.5 12H13.5C12.9477 12 12.5 12.4477 12.5 13C12.5 13.5523 12.9477 14 13.5 14H14.5Z" fill="black"/>
<path d="M11.5 16C11.5 16.5523 11.0523 17 10.5 17H9.5C8.94772 17 8.5 16.5523 8.5 16C8.5 15.4477 8.94772 15 9.5 15H10.5C11.0523 15 11.5 15.4477 11.5 16Z" fill="black"/>
<path d="M14.5 17C15.0523 17 15.5 16.5523 15.5 16C15.5 15.4477 15.0523 15 14.5 15H13.5C12.9477 15 12.5 15.4477 12.5 16C12.5 16.5523 12.9477 17 13.5 17H14.5Z" fill="black"/>
<path fill-rule="evenodd" clip-rule="evenodd" d="M6 5C6 3.89543 6.89543 3 8 3H16C17.1046 3 18 3.89543 18 5V19H20C20.5523 19 21 19.4477 21 20C21 20.5523 20.5523 21 20 21H4C3.44772 21 3 20.5523 3 20C3 19.4477 3.44772 19 4 19H6V5ZM8 19H16V5H8V19Z" fill="black"/>
</svg>
