<svg width="24" height="24" viewBox="0 0 24 24" fill="none" xmlns="http://www.w3.org/2000/svg">
<path d="M9.5 7C9.5 7.55228 9.05229 8 8.5 8H7.5C6.94772 8 6.5 7.55228 6.5 7C6.5 6.44772 6.94772 6 7.5 6H8.5C9.05229 6 9.5 6.44772 9.5 7Z" fill="black"/>
<path d="M12.5 11C13.0523 11 13.5 10.5523 13.5 10C13.5 9.44772 13.0523 9 12.5 9H11.5C10.9477 9 10.5 9.44772 10.5 10C10.5 10.5523 10.9477 11 11.5 11H12.5Z" fill="black"/>
<path d="M9.5 13C9.5 13.5523 9.05229 14 8.5 14H7.5C6.94772 14 6.5 13.5523 6.5 13C6.5 12.4477 6.94772 12 7.5 12H8.5C9.05229 12 9.5 12.4477 9.5 13Z" fill="black"/>
<path d="M12.5 8C13.0523 8 13.5 7.55228 13.5 7C13.5 6.44772 13.0523 6 12.5 6H11.5C10.9477 6 10.5 6.44772 10.5 7C10.5 7.55228 10.9477 8 11.5 8H12.5Z" fill="black"/>
<path d="M9.5 10C9.5 10.5523 9.05229 11 8.5 11H7.5C6.94772 11 6.5 10.5523 6.5 10C6.5 9.44772 6.94772 9 7.5 9H8.5C9.05229 9 9.5 9.44772 9.5 10Z" fill="black"/>
<path d="M12.5 14C13.0523 14 13.5 13.5523 13.5 13C13.5 12.4477 13.0523 12 12.5 12H11.5C10.9477 12 10.5 12.4477 10.5 13C10.5 13.5523 10.9477 14 11.5 14H12.5Z" fill="black"/>
<path d="M9.5 16C9.5 16.5523 9.05229 17 8.5 17H7.5C6.94772 17 6.5 16.5523 6.5 16C6.5 15.4477 6.94772 15 7.5 15H8.5C9.05229 15 9.5 15.4477 9.5 16Z" fill="black"/>
<path d="M12.5 17C13.0523 17 13.5 16.5523 13.5 16C13.5 15.4477 13.0523 15 12.5 15H11.5C10.9477 15 10.5 15.4477 10.5 16C10.5 16.5523 10.9477 17 11.5 17H12.5Z" fill="black"/>
<path fill-rule="evenodd" clip-rule="evenodd" d="M4 5C4 3.89543 4.89543 3 6 3H14C15.1046 3 16 3.89543 16 5V9H19C20.1046 9 21 9.89543 21 11V19H22C22.5523 19 23 19.4477 23 20C23 20.5523 22.5523 21 22 21H2C1.44772 21 1 20.5523 1 20C1 19.4477 1.44772 19 2 19H4V5ZM6 19H14V5H6V19ZM19 15V14H18.5C17.9477 14 17.5 13.5523 17.5 13C17.5 12.4477 17.9477 12 18.5 12H19V11H16V19H19V17H18.5C17.9477 17 17.5 16.5523 17.5 16C17.5 15.4477 17.9477 15 18.5 15H19Z" fill="black"/>
</svg>
