<svg width="24" height="24" viewBox="0 0 24 24" fill="none" xmlns="http://www.w3.org/2000/svg">
<path d="M12 2C13.9875 2 15.7945 2.77311 17.1366 4.03501L15.7214 5.45015C14.7421 4.54974 13.4352 4 12 4C8.96243 4 6.5 6.46243 6.5 9.5C6.5 10.9345 7.04913 12.2416 7.95003 13.2215L6.53512 14.6364C5.27375 13.2949 4.5 11.4882 4.5 9.5C4.5 5.35786 7.85786 2 12 2Z" fill="black"/>
<path d="M17.4975 9.33097L19.2512 7.57719C19.4135 8.19084 19.5 8.83532 19.5 9.5C19.5 12.2622 18.0066 14.674 15.7871 15.9748L15.0438 18.9479C14.8892 19.5662 14.3337 20 13.6963 20C13.5583 20 13.4174 20.0127 13.2624 20.0348C13.6874 20.1501 14 20.5385 14 21C14 21.5523 13.5523 22 13 22H11C10.4477 22 10 21.5523 10 21C10 20.5385 10.3126 20.1501 10.7376 20.0348C10.5826 20.0127 10.4417 20 10.3037 20C9.66633 20 9.11078 19.5662 8.95621 18.9479L8.74106 18.0874L10.3903 16.4381L10.7874 18.0263C11.098 18.0584 11.3873 18.114 11.6314 18.161L11.6645 18.1674C11.7298 18.1799 11.792 18.1918 11.8538 18.2034C11.9356 18.2187 11.9835 18.222 12 18.222C12.0165 18.222 12.0644 18.2187 12.1462 18.2034C12.208 18.1918 12.2702 18.1799 12.3355 18.1674L12.3686 18.161C12.6127 18.114 12.902 18.0584 13.2126 18.0263L13.9531 15.0646C14.0236 14.7826 14.2133 14.5452 14.4729 14.4143C16.2706 13.5076 17.5 11.6465 17.5 9.5C17.5 9.44345 17.4991 9.38711 17.4975 9.33097Z" fill="black"/>
<path d="M20.7071 3.29289C21.0976 3.68342 21.0976 4.31658 20.7071 4.70711L6.20711 19.2071C5.81658 19.5976 5.18342 19.5976 4.79289 19.2071C4.40237 18.8166 4.40237 18.1834 4.79289 17.7929L19.2929 3.29289C19.6834 2.90237 20.3166 2.90237 20.7071 3.29289Z" fill="black"/>
</svg>
