<svg width="24" height="24" viewBox="0 0 24 24" fill="none" xmlns="http://www.w3.org/2000/svg">
<path d="M13.1917 7.28995C13.5366 7.63203 13.5802 8.1631 13.321 8.5529C13.5751 8.63905 13.7888 8.82562 13.9061 9.07695C14.0704 9.42894 14.0161 9.84425 13.7667 10.1421L12.5104 11.6421C12.1558 12.0655 11.5251 12.1213 11.1017 11.7667C10.7214 11.4481 10.6377 10.9067 10.8816 10.493C10.5264 10.4508 10.2168 10.2204 10.0769 9.88461C9.92165 9.51196 10.0057 9.08249 10.29 8.79585L11.7775 7.29585C12.1664 6.9037 12.7996 6.90106 13.1917 7.28995Z" fill="black"/>
<path fill-rule="evenodd" clip-rule="evenodd" d="M4.5 9.5C4.5 5.35786 7.85786 2 12 2C16.1421 2 19.5 5.35786 19.5 9.5C19.5 12.2622 18.0066 14.674 15.7871 15.9748L15.0438 18.9479C14.8892 19.5662 14.3337 20 13.6963 20C13.5583 20 13.4174 20.0127 13.2624 20.0348C13.6874 20.1501 14 20.5385 14 21C14 21.5523 13.5523 22 13 22H11C10.4477 22 10 21.5523 10 21C10 20.5385 10.3126 20.1501 10.7376 20.0348C10.5826 20.0127 10.4417 20 10.3037 20C9.66633 20 9.11078 19.5662 8.95621 18.9479L8.21293 15.9748C5.99338 14.674 4.5 12.2622 4.5 9.5ZM12 4C8.96243 4 6.5 6.46243 6.5 9.5C6.5 11.6465 7.72943 13.5076 9.52712 14.4143C9.78668 14.5452 9.97643 14.7826 10.0469 15.0646L10.7874 18.0263C11.098 18.0584 11.3873 18.114 11.6314 18.161L11.6645 18.1674C11.7298 18.1799 11.792 18.1918 11.8538 18.2034C11.9356 18.2187 11.9835 18.222 12 18.222C12.0165 18.222 12.0644 18.2187 12.1462 18.2034C12.208 18.1918 12.2702 18.1799 12.3355 18.1674L12.3686 18.161C12.6127 18.114 12.902 18.0584 13.2126 18.0263L13.9531 15.0646C14.0236 14.7826 14.2133 14.5452 14.4729 14.4143C16.2706 13.5076 17.5 11.6465 17.5 9.5C17.5 6.46243 15.0376 4 12 4Z" fill="black"/>
</svg>
