<svg width="24" height="24" viewBox="0 0 24 24" fill="none" xmlns="http://www.w3.org/2000/svg">
<path fill-rule="evenodd" clip-rule="evenodd" d="M7 4C6.44772 4 6 4.44772 6 5V15C6 15.5523 6.44772 16 7 16H17C17.5523 16 18 15.5523 18 15V5C18 4.44772 17.5523 4 17 4H7ZM8 14V6H16V14H8Z" fill="black"/>
<path fill-rule="evenodd" clip-rule="evenodd" d="M6 1C4.34315 1 3 2.34315 3 4V12.6337C2.61757 12.4126 2.12008 12.4657 1.79289 12.7929C1.40237 13.1834 1.40237 13.8166 1.79289 14.2071L3 15.4142V18C3 19.3062 3.83481 20.4175 5 20.8293V21C5 22.1046 5.89543 23 7 23H8C9.10457 23 10 22.1046 10 21H14C14 22.1046 14.8954 23 16 23H17C18.1046 23 19 22.1046 19 21V20.8293C20.1652 20.4175 21 19.3062 21 18V15.4142L22.2071 14.2071C22.5976 13.8166 22.5976 13.1834 22.2071 12.7929C21.8799 12.4657 21.3824 12.4126 21 12.6337V4C21 2.34315 19.6569 1 18 1H6ZM5 4C5 3.44772 5.44772 3 6 3H18C18.5523 3 19 3.44772 19 4V18C19 18.5523 18.5523 19 18 19H6C5.44772 19 5 18.5523 5 18V4Z" fill="black"/>
</svg>
