<svg width="24" height="24" viewBox="0 0 24 24" fill="none" xmlns="http://www.w3.org/2000/svg">
<path fill-rule="evenodd" clip-rule="evenodd" d="M9 2C9 1.44772 8.55228 1 8 1C7.44772 1 7 1.44772 7 2V3H6C3.79086 3 2 4.79086 2 7V18C2 20.2091 3.79086 22 6 22H15C15.5523 22 16 21.5523 16 21C16 20.4477 15.5523 20 15 20H6C4.89543 20 4 19.1046 4 18V9.5H20V15.5C20 16.0523 20.4477 16.5 21 16.5C21.5523 16.5 22 16.0523 22 15.5V7C22 4.79086 20.2091 3 18 3H17V2C17 1.44772 16.5523 1 16 1C15.4477 1 15 1.44772 15 2V3H9V2ZM16 6C15.4477 6 15 5.55228 15 5H9C9 5.55228 8.55228 6 8 6C7.44772 6 7 5.55228 7 5H6C4.89543 5 4 5.89543 4 7V7.5H20V7C20 5.89543 19.1046 5 18 5H17C17 5.55228 16.5523 6 16 6Z" fill="black"/>
<path d="M21.9497 19.1213C22.3402 18.7308 22.3402 18.0976 21.9497 17.7071C21.5592 17.3166 20.926 17.3166 20.5355 17.7071L19.8284 18.4142L19.1213 17.7071C18.7307 17.3166 18.0976 17.3166 17.707 17.7071C17.3165 18.0976 17.3165 18.7308 17.707 19.1213L18.4142 19.8284L17.707 20.5355C17.3165 20.9261 17.3165 21.5592 17.707 21.9497C18.0976 22.3403 18.7307 22.3403 19.1213 21.9497L19.8284 21.2426L20.5355 21.9497C20.926 22.3403 21.5592 22.3403 21.9497 21.9497C22.3402 21.5592 22.3402 20.9261 21.9497 20.5355L21.2426 19.8284L21.9497 19.1213Z" fill="black"/>
</svg>
