<svg width="24" height="24" viewBox="0 0 24 24" fill="none" xmlns="http://www.w3.org/2000/svg">
<path fill-rule="evenodd" clip-rule="evenodd" d="M9 2C9 1.44772 8.55228 1 8 1C7.44772 1 7 1.44772 7 2V3H6C3.79086 3 2 4.79086 2 7V18C2 20.2091 3.79086 22 6 22H15C15.5523 22 16 21.5523 16 21C16 20.4477 15.5523 20 15 20H6C4.89543 20 4 19.1046 4 18V9.5H20V16C20 16.5523 20.4477 17 21 17C21.5523 17 22 16.5523 22 16V7C22 4.79086 20.2091 3 18 3H17V2C17 1.44772 16.5523 1 16 1C15.4477 1 15 1.44772 15 2V3H9V2ZM16 6C15.4477 6 15 5.55228 15 5H9C9 5.55228 8.55228 6 8 6C7.44772 6 7 5.55228 7 5H6C4.89543 5 4 5.89543 4 7V7.5H20V7C20 5.89543 19.1046 5 18 5H17C17 5.55228 16.5523 6 16 6Z" fill="black"/>
<path d="M22.6961 20.2071C23.0866 19.8166 23.0866 19.1834 22.6961 18.7929C22.3056 18.4024 21.6724 18.4024 21.2819 18.7929L19.3431 20.7316L19.0613 20.4497C18.6707 20.0592 18.0376 20.0592 17.647 20.4497C17.2565 20.8403 17.2565 21.4734 17.647 21.8639L18.636 22.8529C19.0266 23.2435 19.6597 23.2435 20.0503 22.8529L22.6961 20.2071Z" fill="black"/>
</svg>
