<svg width="24" height="24" viewBox="0 0 24 24" fill="none" xmlns="http://www.w3.org/2000/svg">
<path fill-rule="evenodd" clip-rule="evenodd" d="M9 2C9 1.44772 8.55228 1 8 1C7.44772 1 7 1.44772 7 2V3H6C3.79086 3 2 4.79086 2 7V18C2 20.2091 3.79086 22 6 22H15C15.5523 22 16 21.5523 16 21C16 20.4477 15.5523 20 15 20H6C4.89543 20 4 19.1046 4 18V9.5H20V16C20 16.5523 20.4477 17 21 17C21.5523 17 22 16.5523 22 16V7C22 4.79086 20.2091 3 18 3H17V2C17 1.44772 16.5523 1 16 1C15.4477 1 15 1.44772 15 2V3H9V2ZM16 6C15.4477 6 15 5.55228 15 5H9C9 5.55228 8.55228 6 8 6C7.44772 6 7 5.55228 7 5H6C4.89543 5 4 5.89543 4 7V7.5H20V7C20 5.89543 19.1046 5 18 5H17C17 5.55228 16.5523 6 16 6Z" fill="black"/>
<path d="M18 19C17.4477 19 17 19.4477 17 20C17 20.5523 17.4477 21 18 21H22C22.5523 21 23 20.5523 23 20C23 19.4477 22.5523 19 22 19H18Z" fill="black"/>
</svg>
