<svg width="24" height="24" viewBox="0 0 24 24" fill="none" xmlns="http://www.w3.org/2000/svg">
<path d="M5 17.5C5 16.9477 5.44772 16.5 6 16.5H13C13.5523 16.5 14 16.9477 14 17.5C14 18.0523 13.5523 18.5 13 18.5H6C5.44772 18.5 5 18.0523 5 17.5Z" fill="black"/>
<path d="M16 16.5C15.4477 16.5 15 16.9477 15 17.5C15 18.0523 15.4477 18.5 16 18.5H18C18.5523 18.5 19 18.0523 19 17.5C19 16.9477 18.5523 16.5 18 16.5H16Z" fill="black"/>
<path fill-rule="evenodd" clip-rule="evenodd" d="M8 1.5C8.55228 1.5 9 1.94772 9 2.5V3.5H15V2.5C15 1.94772 15.4477 1.5 16 1.5C16.5523 1.5 17 1.94772 17 2.5V3.5H18C20.2091 3.5 22 5.29086 22 7.5V18.5C22 20.7091 20.2091 22.5 18 22.5H6C3.79086 22.5 2 20.7091 2 18.5V7.5C2 5.29086 3.79086 3.5 6 3.5H7V2.5C7 1.94772 7.44772 1.5 8 1.5ZM15 5.5C15 6.05228 15.4477 6.5 16 6.5C16.5523 6.5 17 6.05228 17 5.5H18C19.1046 5.5 20 6.39543 20 7.5V8H4V7.5C4 6.39543 4.89543 5.5 6 5.5H7C7 6.05228 7.44772 6.5 8 6.5C8.55228 6.5 9 6.05228 9 5.5H15ZM20 10H4V18.5C4 19.6046 4.89543 20.5 6 20.5H18C19.1046 20.5 20 19.6046 20 18.5V10Z" fill="black"/>
</svg>
