<svg width="24" height="24" viewBox="0 0 24 24" fill="none" xmlns="http://www.w3.org/2000/svg">
<path fill-rule="evenodd" clip-rule="evenodd" d="M3.68206 3.34285C2.94369 4.08122 2.43866 5.18769 2.72673 6.38629C3.16834 8.2238 4.49723 11.5722 8.46023 15.5352C12.4232 19.4982 15.7717 20.8271 17.6092 21.2687C18.8078 21.5568 19.9143 21.0518 20.6526 20.3134L21.1882 19.7779C22.7503 18.2158 22.7503 15.6831 21.1882 14.121L20.2593 13.1921C18.986 11.9189 17.0189 11.6533 15.4536 12.5434L15.3571 12.5983C14.7157 12.963 13.9788 12.9332 13.4568 12.5554C13.0355 12.2506 12.6329 11.9298 12.3493 11.6461C12.0657 11.3625 11.7449 10.9599 11.44 10.5387C11.0622 10.0167 11.0324 9.2798 11.3972 8.63836L11.4521 8.54183C12.3421 6.97653 12.0766 5.00945 10.8033 3.73619L9.87445 2.80731C8.31235 1.24522 5.77969 1.24522 4.21759 2.80732L3.68206 3.34285ZM4.67135 5.91893C4.58756 5.57029 4.70942 5.14391 5.09627 4.75706L5.63181 4.22153C6.41286 3.44048 7.67918 3.44048 8.46023 4.22153L9.38911 5.15041C10.0257 5.78704 10.1585 6.77058 9.71348 7.55323L9.65859 7.64976C8.95368 8.88942 8.92895 10.4803 9.81983 11.7113C10.1471 12.1634 10.5403 12.6656 10.9351 13.0604C11.3299 13.4552 11.832 13.8484 12.2842 14.1756C13.5152 15.0665 15.1061 15.0418 16.3457 14.3369L16.4422 14.282C17.2249 13.837 18.2084 13.9697 18.8451 14.6064L19.7739 15.5352C20.555 16.3163 20.555 17.5826 19.7739 18.3637L19.2384 18.8992C18.8516 19.286 18.4252 19.4079 18.0765 19.3241C16.6075 18.9711 13.5841 17.8307 9.87445 14.121C6.16477 10.4114 5.02441 7.38797 4.67135 5.91893Z" fill="black"/>
<path d="M19.2681 5.67323C19.2383 5.16718 18.8346 4.76345 18.3285 4.73368L16.325 4.61583C15.7737 4.5834 15.3005 5.00405 15.268 5.55538C15.2397 6.0377 15.5581 6.46025 16.0073 6.58019L14.0271 8.56038C13.6366 8.95091 13.6366 9.58407 14.0271 9.9746C14.4177 10.3651 15.0508 10.3651 15.4414 9.9746L17.4216 7.99441C17.5415 8.44369 17.964 8.76207 18.4464 8.7337C18.9977 8.70127 19.4183 8.22803 19.3859 7.6767L19.2681 5.67323Z" fill="black"/>
</svg>
