<svg width="24" height="24" viewBox="0 0 24 24" fill="none" xmlns="http://www.w3.org/2000/svg">
<path fill-rule="evenodd" clip-rule="evenodd" d="M2.72673 6.38629C2.43866 5.18769 2.94369 4.08122 3.68206 3.34285L4.21759 2.80732C5.77969 1.24522 8.31235 1.24522 9.87445 2.80731L10.8033 3.73619C12.0766 5.00945 12.3421 6.97653 11.4521 8.54183L11.3972 8.63836C11.0324 9.2798 11.0622 10.0167 11.44 10.5387C11.7449 10.9599 12.0657 11.3625 12.3493 11.6461C12.6329 11.9298 13.0355 12.2506 13.4568 12.5554C13.9788 12.9332 14.7157 12.963 15.3571 12.5983L15.4536 12.5434C17.0189 11.6533 18.986 11.9189 20.2593 13.1921L21.1882 14.121C22.7503 15.6831 22.7503 18.2158 21.1882 19.7779L20.6526 20.3134C19.9143 21.0518 18.8078 21.5568 17.6092 21.2687C15.7717 20.8271 12.4232 19.4982 8.46023 15.5352C4.49723 11.5722 3.16834 8.2238 2.72673 6.38629ZM5.09627 4.75706C4.70942 5.14391 4.58756 5.57029 4.67135 5.91893C5.02441 7.38797 6.16477 10.4114 9.87445 14.121C13.5841 17.8307 16.6075 18.9711 18.0765 19.3241C18.4252 19.4079 18.8516 19.286 19.2384 18.8992L19.7739 18.3637C20.555 17.5826 20.555 16.3163 19.7739 15.5352L18.8451 14.6064C18.2084 13.9697 17.2249 13.837 16.4422 14.282L16.3457 14.3369C15.1061 15.0418 13.5152 15.0665 12.2842 14.1756C11.832 13.8484 11.3299 13.4552 10.9351 13.0604C10.5403 12.6656 10.1471 12.1634 9.81983 11.7113C8.92895 10.4803 8.95368 8.88942 9.65859 7.64976L9.71348 7.55323C10.1585 6.77058 10.0257 5.78704 9.38911 5.15041L8.46023 4.22153C7.67918 3.44048 6.41286 3.44048 5.63181 4.22153L5.09627 4.75706Z" fill="black"/>
<path d="M18.0088 3.006C18.6231 3.26864 19.1826 3.64762 19.656 4.12098C20.1294 4.59435 20.5083 5.15383 20.771 5.7682C21.0336 6.38262 21.1752 7.0409 21.1859 7.70598C21.1967 8.37115 21.0763 9.03019 20.8299 9.64495C20.7421 9.86398 20.639 10.0758 20.5214 10.2789C20.2447 10.7568 19.6329 10.92 19.155 10.6433C18.677 10.3665 18.5139 9.75476 18.7906 9.2768C18.8601 9.15667 18.9213 9.03111 18.9734 8.90095C19.1198 8.53578 19.1927 8.14087 19.1862 7.73824C19.1797 7.33551 19.0939 6.93306 18.932 6.55436C18.7701 6.17562 18.5356 5.82906 18.2418 5.5352C17.9479 5.24133 17.6014 5.00692 17.2226 4.84501C16.8439 4.68312 16.4415 4.59729 16.0387 4.5908C15.6361 4.5843 15.2412 4.65719 14.876 4.80353C14.7459 4.8557 14.6203 4.91686 14.5002 4.98641C14.0222 5.26312 13.4104 5.09998 13.1337 4.62202C12.857 4.14406 13.0201 3.53227 13.4981 3.25556C13.7012 3.13798 13.913 3.03485 14.132 2.94707C14.7468 2.7007 15.4058 2.58033 16.071 2.59106C16.7361 2.60179 17.3944 2.74334 18.0088 3.006Z" fill="black"/>
<path d="M17.6204 6.20677C17.321 5.90737 16.9584 5.68469 16.559 5.54805C16.1605 5.41169 15.738 5.36504 15.3185 5.40025C14.8993 5.43543 14.4884 5.55171 14.1069 5.73537C13.8877 5.8409 13.6793 5.96811 13.4849 6.11388C13.0431 6.44525 12.9535 7.07205 13.2849 7.51388C13.6163 7.95571 14.2431 8.04525 14.6849 7.71388C14.7773 7.64455 14.8746 7.58545 14.9744 7.53743C15.1488 7.45346 15.3233 7.40687 15.4857 7.39325C15.6477 7.37965 15.7914 7.39923 15.9115 7.44033C16.0308 7.48113 16.1289 7.54368 16.2062 7.62098C16.2835 7.69829 16.3461 7.79643 16.3869 7.91569C16.428 8.0358 16.4476 8.17948 16.434 8.34149C16.4203 8.50386 16.3737 8.67841 16.2898 8.85284C16.2418 8.95259 16.1827 9.04986 16.1133 9.1423C15.782 9.58413 15.8715 10.2109 16.3133 10.5423C16.7552 10.8737 17.382 10.7841 17.7133 10.3423C17.8591 10.1479 17.9863 9.93955 18.0918 9.72035C18.2755 9.33883 18.3918 8.92792 18.427 8.50875C18.4622 8.08922 18.4155 7.66666 18.2792 7.26817C18.1425 6.86883 17.9198 6.50617 17.6204 6.20677Z" fill="black"/>
</svg>
