<svg width="24" height="24" viewBox="0 0 24 24" fill="none" xmlns="http://www.w3.org/2000/svg">
<path fill-rule="evenodd" clip-rule="evenodd" d="M3.68206 3.34285C2.94369 4.08122 2.43866 5.18769 2.72673 6.38629C3.16834 8.2238 4.49723 11.5722 8.46023 15.5352C12.4232 19.4982 15.7717 20.8271 17.6092 21.2687C18.8078 21.5568 19.9143 21.0518 20.6526 20.3134L21.1882 19.7779C22.7503 18.2158 22.7503 15.6831 21.1882 14.121L20.2593 13.1921C18.986 11.9189 17.0189 11.6533 15.4536 12.5434L15.3571 12.5983C14.7157 12.963 13.9788 12.9332 13.4568 12.5554C13.0355 12.2506 12.6329 11.9298 12.3493 11.6461C12.0657 11.3625 11.7449 10.9599 11.44 10.5387C11.0622 10.0167 11.0324 9.2798 11.3972 8.63836L11.4521 8.54183C12.3421 6.97653 12.0766 5.00945 10.8033 3.73619L9.87445 2.80731C8.31235 1.24522 5.77969 1.24522 4.21759 2.80732L3.68206 3.34285ZM4.67135 5.91893C4.58756 5.57029 4.70942 5.14391 5.09627 4.75706L5.63181 4.22153C6.41286 3.44048 7.67918 3.44048 8.46023 4.22153L9.38911 5.15041C10.0257 5.78704 10.1585 6.77058 9.71348 7.55323L9.65859 7.64976C8.95368 8.88942 8.92895 10.4803 9.81983 11.7113C10.1471 12.1634 10.5403 12.6656 10.9351 13.0604C11.3299 13.4552 11.832 13.8484 12.2842 14.1756C13.5152 15.0665 15.1061 15.0418 16.3457 14.3369L16.4422 14.282C17.2249 13.837 18.2084 13.9697 18.8451 14.6064L19.7739 15.5352C20.555 16.3163 20.555 17.5826 19.7739 18.3637L19.2384 18.8992C18.8516 19.286 18.4252 19.4079 18.0765 19.3241C16.6075 18.9711 13.5841 17.8307 9.87445 14.121C6.16477 10.4114 5.02441 7.38797 4.67135 5.91893Z" fill="black"/>
<path d="M17.9991 4.99966C17.9991 4.44738 17.5514 3.99966 16.9991 3.99966C16.4468 3.99966 15.9991 4.44738 15.9991 4.99966V5.99966H14.9991C14.4468 5.99966 13.9991 6.44738 13.9991 6.99966C13.9991 7.55195 14.4468 7.99966 14.9991 7.99966H15.9991V8.99966C15.9991 9.55195 16.4468 9.99966 16.9991 9.99966C17.5514 9.99966 17.9991 9.55195 17.9991 8.99966V7.99966H18.9991C19.5514 7.99966 19.9991 7.55195 19.9991 6.99966C19.9991 6.44738 19.5514 5.99966 18.9991 5.99966H17.9991V4.99966Z" fill="black"/>
</svg>
