<svg width="24" height="24" viewBox="0 0 24 24" fill="none" xmlns="http://www.w3.org/2000/svg">
<path d="M22.7071 1.29289C23.0976 1.68342 23.0976 2.31658 22.7071 2.70711L2.70711 22.7071C2.31658 23.0976 1.68342 23.0976 1.29289 22.7071C0.902369 22.3166 0.902369 21.6834 1.29289 21.2929L21.2929 1.29289C21.6834 0.902369 22.3166 0.902369 22.7071 1.29289Z" fill="black"/>
<path d="M12 8C12.3634 8 12.7178 8.03877 13.0592 8.1124L11.0013 10.1702C10.1478 10.4714 9.47144 11.1478 9.17023 12.0013L7.1124 14.0592C7.03877 13.7178 7 13.3634 7 13C7 10.2386 9.23858 8 12 8Z" fill="black"/>
<path d="M12 16C11.6491 16 11.3123 15.9398 10.9994 15.8291L9.49831 17.3301C10.2341 17.7561 11.0886 18 12 18C14.7614 18 17 15.7614 17 13C17 12.0886 16.7561 11.2341 16.3301 10.4983L14.8291 11.9994C14.9398 12.3123 15 12.6491 15 13C15 14.6569 13.6569 16 12 16Z" fill="black"/>
<path d="M17.5459 10.0415C17.4174 10.427 16.8951 10.4482 16.7231 10.1053L18.4588 8.36963C18.8018 8.54159 18.7805 9.06386 18.395 9.19236C17.9941 9.32599 17.6795 9.64058 17.5459 10.0415Z" fill="black"/>
<path d="M16.5858 3.67157L17.0429 4.12868L15.6287 5.54289L15.1716 5.08579C14.7965 4.71071 14.2878 4.5 13.7574 4.5H10.2426C9.71221 4.5 9.2035 4.71071 8.82843 5.08579L8.14252 5.77169C7.75948 6.15474 7.30262 6.45598 6.79966 6.65717L4.25722 7.67415C3.4979 7.97787 3 8.71329 3 9.5311V17.5C3 17.7034 3.03037 17.8998 3.08683 18.0847L1.58604 19.5855C1.21428 18.9783 1 18.2642 1 17.5V9.5311C1 7.89548 1.9958 6.42465 3.51444 5.81719L6.05688 4.80022C6.30836 4.69962 6.53679 4.549 6.72831 4.35748L7.41421 3.67157C8.16436 2.92143 9.18177 2.5 10.2426 2.5H13.7574C14.8182 2.5 15.8356 2.92143 16.5858 3.67157Z" fill="black"/>
<path d="M19 19.5H7.32843L5.32843 21.5H19C21.2091 21.5 23 19.7091 23 17.5V9.5311C23 8.02871 22.1598 6.66535 20.846 5.98244L19.3224 7.506L19.7428 7.67415C20.5021 7.97787 21 8.71329 21 9.5311V17.5C21 18.6046 20.1046 19.5 19 19.5Z" fill="black"/>
</svg>
