<svg width="24" height="24" viewBox="0 0 24 24" fill="none" xmlns="http://www.w3.org/2000/svg">
<path fill-rule="evenodd" clip-rule="evenodd" d="M16.5 3C17.8807 3 19 4.11929 19 5.5V6H21C21.5523 6 22 6.44772 22 7C22 7.55228 21.5523 8 21 8H19V8.5C19 9.88071 17.8807 11 16.5 11H13.5C12.1193 11 11 9.88071 11 8.5V8L3 8C2.44772 8 2 7.55228 2 7C2 6.44772 2.44772 6 3 6L11 6V5.5C11 4.11929 12.1193 3 13.5 3H16.5ZM17 5.5V8.5C17 8.77614 16.7761 9 16.5 9H13.5C13.2239 9 13 8.77614 13 8.5V5.5C13 5.22386 13.2239 5 13.5 5L16.5 5C16.7761 5 17 5.22386 17 5.5Z" fill="black"/>
<path fill-rule="evenodd" clip-rule="evenodd" d="M5 16H3C2.44772 16 2 16.4477 2 17C2 17.5523 2.44772 18 3 18H5V18.5C5 19.8807 6.11929 21 7.5 21H13.5C14.8807 21 16 19.8807 16 18.5V18H21C21.5523 18 22 17.5523 22 17C22 16.4477 21.5523 16 21 16H16V15.5C16 14.1193 14.8807 13 13.5 13H7.5C6.11929 13 5 14.1193 5 15.5V16ZM14 15.5C14 15.2239 13.7761 15 13.5 15H7.5C7.22386 15 7 15.2239 7 15.5V18.5C7 18.7761 7.22386 19 7.5 19H13.5C13.7761 19 14 18.7761 14 18.5V15.5Z" fill="black"/>
</svg>
