<svg width="24" height="24" viewBox="0 0 24 24" fill="none" xmlns="http://www.w3.org/2000/svg">
<path fill-rule="evenodd" clip-rule="evenodd" d="M17 21C15.8954 21 15 20.1046 15 19V18H9V19C9 20.1046 8.10457 21 7 21H4.5C3.39543 21 2.5 20.1046 2.5 19V17.792C1.61705 17.4062 1 16.5252 1 15.5V12C1 11.5534 1.1464 11.1409 1.39384 10.8081L1.29289 10.7071C0.902369 10.3166 0.902369 9.68342 1.29289 9.29289C1.63639 8.9494 2.1676 8.90803 2.55631 9.1688L3.59547 6.05132C4.00381 4.82629 5.15023 4 6.44152 4H17.5585C18.8498 4 19.9962 4.82629 20.4045 6.05132L21.4437 9.1688C21.8324 8.90803 22.3636 8.9494 22.7071 9.29289C23.0976 9.68342 23.0976 10.3166 22.7071 10.7071L22.6062 10.8081C22.8536 11.1409 23 11.5534 23 12V15.5C23 16.5252 22.383 17.4062 21.5 17.792V19C21.5 20.1046 20.6046 21 19.5 21H17ZM5.49284 6.68377C5.62895 6.27543 6.01109 6 6.44152 6H17.5585C17.9889 6 18.371 6.27543 18.5072 6.68377L19.6126 10H4.38743L5.49284 6.68377ZM3.5 16C3.22386 16 3 15.7761 3 15.5V12H21V15.5C21 15.7761 20.7761 16 20.5 16H3.5ZM17 18H19.5V19H17V18ZM4.5 18H7V19H4.5V18Z" fill="black"/>
</svg>
