<svg width="24" height="24" viewBox="0 0 24 24" fill="none" xmlns="http://www.w3.org/2000/svg">
<path fill-rule="evenodd" clip-rule="evenodd" d="M1 6.5C1 4.29086 2.79086 2.5 5 2.5H19C21.2091 2.5 23 4.29086 23 6.5V14.25C23 14.8023 22.5523 15.25 22 15.25C21.4477 15.25 21 14.8023 21 14.25V9H3V17.5C3 18.6046 3.89543 19.5 5 19.5H14.5C15.0523 19.5 15.5 19.9477 15.5 20.5C15.5 21.0523 15.0523 21.5 14.5 21.5H5C2.79086 21.5 1 19.7091 1 17.5V6.5ZM3 7H21V6.5C21 5.39543 20.1046 4.5 19 4.5H5C3.89543 4.5 3 5.39543 3 6.5V7Z" fill="black"/>
<path d="M4 16C4 15.4477 4.44772 15 5 15H13C13.5523 15 14 15.4477 14 16C14 16.5523 13.5523 17 13 17H5C4.44772 17 4 16.5523 4 16Z" fill="black"/>
<path d="M21.2426 18.8284L21.9497 18.1213C22.3402 17.7308 22.3402 17.0976 21.9497 16.7071C21.5592 16.3166 20.926 16.3166 20.5355 16.7071L19.8284 17.4142L19.1213 16.7071C18.7307 16.3166 18.0976 16.3166 17.707 16.7071C17.3165 17.0976 17.3165 17.7308 17.707 18.1213L18.4142 18.8284L17.707 19.5355C17.3165 19.9261 17.3165 20.5592 17.707 20.9497C18.0976 21.3403 18.7307 21.3403 19.1213 20.9497L19.8284 20.2426L20.5355 20.9497C20.926 21.3403 21.5592 21.3403 21.9497 20.9497C22.3402 20.5592 22.3402 19.9261 21.9497 19.5355L21.2426 18.8284Z" fill="black"/>
</svg>
