<svg width="24" height="24" viewBox="0 0 24 24" fill="none" xmlns="http://www.w3.org/2000/svg">
<path fill-rule="evenodd" clip-rule="evenodd" d="M1 6.5C1 4.29086 2.79086 2.5 5 2.5H19C21.2091 2.5 23 4.29086 23 6.5V14.25C23 14.8023 22.5523 15.25 22 15.25C21.4477 15.25 21 14.8023 21 14.25V9H3V17.5C3 18.6046 3.89543 19.5 5 19.5H14.5C15.0523 19.5 15.5 19.9477 15.5 20.5C15.5 21.0523 15.0523 21.5 14.5 21.5H5C2.79086 21.5 1 19.7091 1 17.5V6.5ZM3 7H21V6.5C21 5.39543 20.1046 4.5 19 4.5H5C3.89543 4.5 3 5.39543 3 6.5V7Z" fill="black"/>
<path d="M4 16C4 15.4477 4.44772 15 5 15H13C13.5523 15 14 15.4477 14 16C14 16.5523 13.5523 17 13 17H5C4.44772 17 4 16.5523 4 16Z" fill="black"/>
<path d="M21.6644 20.4141L20.1644 21.7474C19.7855 22.0842 19.2145 22.0842 18.8356 21.7474L17.3356 20.4141C16.9229 20.0472 16.8857 19.4151 17.2526 19.0023C17.5736 18.6412 18.0975 18.5675 18.5 18.8004V16C18.5 15.4477 18.9477 15 19.5 15C20.0523 15 20.5 15.4477 20.5 16V18.8004C20.9025 18.5675 21.4264 18.6412 21.7474 19.0023C22.1143 19.4151 22.0771 20.0472 21.6644 20.4141Z" fill="black"/>
</svg>
