<svg width="24" height="24" viewBox="0 0 24 24" fill="none" xmlns="http://www.w3.org/2000/svg">
<path fill-rule="evenodd" clip-rule="evenodd" d="M1 6.5C1 4.29086 2.79086 2.5 5 2.5H19C21.2091 2.5 23 4.29086 23 6.5V14.25C23 14.8023 22.5523 15.25 22 15.25C21.4477 15.25 21 14.8023 21 14.25V9H3V17.5C3 18.6046 3.89543 19.5 5 19.5H14.5C15.0523 19.5 15.5 19.9477 15.5 20.5C15.5 21.0523 15.0523 21.5 14.5 21.5H5C2.79086 21.5 1 19.7091 1 17.5V6.5ZM3 7H21V6.5C21 5.39543 20.1046 4.5 19 4.5H5C3.89543 4.5 3 5.39543 3 6.5V7Z" fill="black"/>
<path d="M4 16C4 15.4477 4.44772 15 5 15H13C13.5523 15 14 15.4477 14 16C14 16.5523 13.5523 17 13 17H5C4.44772 17 4 16.5523 4 16Z" fill="black"/>
<path d="M22.6961 18.4962C23.0866 18.1056 23.0866 17.4725 22.6961 17.0819C22.3056 16.6914 21.6724 16.6914 21.2819 17.0819L19.3431 19.0207L19.0613 18.7388C18.6707 18.3483 18.0376 18.3483 17.647 18.7388C17.2565 19.1293 17.2565 19.7625 17.647 20.153L18.636 21.142C19.0266 21.5325 19.6597 21.5325 20.0503 21.142L22.6961 18.4962Z" fill="black"/>
</svg>
