<svg width="24" height="24" viewBox="0 0 24 24" fill="none" xmlns="http://www.w3.org/2000/svg">
<path fill-rule="evenodd" clip-rule="evenodd" d="M1 6.5C1 4.29086 2.79086 2.5 5 2.5H19C21.2091 2.5 23 4.29086 23 6.5V14.25C23 14.8023 22.5523 15.25 22 15.25C21.4477 15.25 21 14.8023 21 14.25V9H3V17.5C3 18.6046 3.89543 19.5 5 19.5H14.5C15.0523 19.5 15.5 19.9477 15.5 20.5C15.5 21.0523 15.0523 21.5 14.5 21.5H5C2.79086 21.5 1 19.7091 1 17.5V6.5ZM3 7H21V6.5C21 5.39543 20.1046 4.5 19 4.5H5C3.89543 4.5 3 5.39543 3 6.5V7Z" fill="black"/>
<path d="M4 16C4 15.4477 4.44772 15 5 15H13C13.5523 15 14 15.4477 14 16C14 16.5523 13.5523 17 13 17H5C4.44772 17 4 16.5523 4 16Z" fill="black"/>
<path d="M21.4141 20.6644L22.7474 19.1644C23.0842 18.7855 23.0842 18.2145 22.7474 17.8356L21.4141 16.3356C21.0472 15.9229 20.4151 15.8857 20.0023 16.2526C19.6412 16.5736 19.5675 17.0975 19.8004 17.5H17C16.4477 17.5 16 17.9477 16 18.5C16 19.0523 16.4477 19.5 17 19.5H19.8004C19.5675 19.9025 19.6412 20.4264 20.0023 20.7474C20.4151 21.1143 21.0472 21.0771 21.4141 20.6644Z" fill="black"/>
</svg>
