<svg width="24" height="24" viewBox="0 0 24 24" fill="none" xmlns="http://www.w3.org/2000/svg">
<path fill-rule="evenodd" clip-rule="evenodd" d="M1 6.5C1 4.29086 2.79086 2.5 5 2.5H19C21.2091 2.5 23 4.29086 23 6.5V14.25C23 14.8023 22.5523 15.25 22 15.25C21.4477 15.25 21 14.8023 21 14.25V9H3V17.5C3 18.6046 3.89543 19.5 5 19.5H14.5C15.0523 19.5 15.5 19.9477 15.5 20.5C15.5 21.0523 15.0523 21.5 14.5 21.5H5C2.79086 21.5 1 19.7091 1 17.5V6.5ZM3 7H21V6.5C21 5.39543 20.1046 4.5 19 4.5H5C3.89543 4.5 3 5.39543 3 6.5V7Z" fill="black"/>
<path d="M4 16C4 15.4477 4.44772 15 5 15H13C13.5523 15 14 15.4477 14 16C14 16.5523 13.5523 17 13 17H5C4.44772 17 4 16.5523 4 16Z" fill="black"/>
<path d="M18 17C17.4477 17 17 17.4477 17 18C17 18.5523 17.4477 19 18 19H22C22.5523 19 23 18.5523 23 18C23 17.4477 22.5523 17 22 17H18Z" fill="black"/>
</svg>
