<svg width="24" height="24" viewBox="0 0 24 24" fill="none" xmlns="http://www.w3.org/2000/svg">
<path d="M4 16C4 15.4477 4.44772 15 5 15H13C13.5523 15 14 15.4477 14 16C14 16.5523 13.5523 17 13 17H5C4.44772 17 4 16.5523 4 16Z" fill="black"/>
<path d="M16 15C15.4477 15 15 15.4477 15 16C15 16.5523 15.4477 17 16 17H18C18.5523 17 19 16.5523 19 16C19 15.4477 18.5523 15 18 15H16Z" fill="black"/>
<path fill-rule="evenodd" clip-rule="evenodd" d="M1 6.5C1 4.29086 2.79086 2.5 5 2.5H19C21.2091 2.5 23 4.29086 23 6.5V17.5C23 19.7091 21.2091 21.5 19 21.5H5C2.79086 21.5 1 19.7091 1 17.5V6.5ZM5 4.5C3.89543 4.5 3 5.39543 3 6.5V7H21V6.5C21 5.39543 20.1046 4.5 19 4.5H5ZM21 9H3V17.5C3 18.6046 3.89543 19.5 5 19.5H19C20.1046 19.5 21 18.6046 21 17.5V9Z" fill="black"/>
</svg>
