<svg width="24" height="24" viewBox="0 0 24 24" fill="none" xmlns="http://www.w3.org/2000/svg">
<path fill-rule="evenodd" clip-rule="evenodd" d="M1.5 2C1.5 1.44772 1.94772 1 2.5 1C4.21434 1 5.66894 2.24144 5.96556 3.92747L6.5061 7H15.9014C16.9965 6.99999 17.884 6.99998 18.5922 7.062C19.3175 7.12553 19.9714 7.26118 20.5496 7.60785C21.3703 8.09999 21.9976 8.85541 22.3163 9.75271C22.543 10.391 22.5321 11.0532 22.4325 11.7573C22.3357 12.4415 22.1357 13.2795 21.891 14.3051L21.8707 14.3902C21.7098 15.065 21.5758 15.6266 21.4289 16.0822C21.275 16.5597 21.0872 16.9871 20.7865 17.3748C20.3509 17.9363 19.7758 18.3764 19.1192 18.6563C18.6689 18.8482 18.2049 18.9273 17.695 18.9644C17.2056 19 16.6115 19 15.8909 19H15.3984C13.7781 19 12.4918 19 11.4541 18.9025C10.389 18.8024 9.49306 18.5932 8.68037 18.1183C8.11937 17.7904 7.61316 17.3796 7.18052 16.8996C6.5506 16.2009 6.17972 15.3741 5.89356 14.3692C5.61607 13.3948 5.3966 12.1681 5.12175 10.6321L4.6823 8.17614L4.68179 8.17326L3.99581 4.274C3.86479 3.52928 3.22842 3 2.5 3C1.94772 3 1.5 2.55228 1.5 2ZM18.4177 9.05437C17.8071 9.0009 17.0076 9 15.8547 9H6.86148L7.08111 10.2274C7.36748 11.8278 7.57039 12.9551 7.81709 13.8214C8.05826 14.6683 8.31783 15.1743 8.66601 15.5605C8.95926 15.8858 9.30434 16.1664 9.68952 16.3915C10.1517 16.6617 10.7248 16.8251 11.6413 16.9113C12.5745 16.999 13.7668 17 15.4487 17H15.8547C16.6204 17 17.1416 16.9994 17.5499 16.9697C17.946 16.9409 18.1668 16.8881 18.3349 16.8165C18.6839 16.6677 18.9831 16.4365 19.2062 16.1489C19.3105 16.0145 19.4096 15.8278 19.5254 15.4686C19.6456 15.0958 19.7621 14.6103 19.9341 13.8892C20.1931 12.8036 20.3701 12.0572 20.4522 11.4771C20.533 10.9061 20.5012 10.6179 20.4316 10.4221C20.2721 9.97292 19.9536 9.58247 19.5211 9.32315C19.3229 9.20432 19.0212 9.10723 18.4177 9.05437Z" fill="black"/>
<path d="M9.25 22C9.94036 22 10.5 21.4404 10.5 20.75C10.5 20.0596 9.94036 19.5 9.25 19.5C8.55964 19.5 8 20.0596 8 20.75C8 21.4404 8.55964 22 9.25 22Z" fill="black"/>
<path d="M19.5 20.75C19.5 21.4404 18.9404 22 18.25 22C17.5596 22 17 21.4404 17 20.75C17 20.0596 17.5596 19.5 18.25 19.5C18.9404 19.5 19.5 20.0596 19.5 20.75Z" fill="black"/>
<path d="M21 2C21 1.44772 20.5523 1 20 1C19.4477 1 19 1.44772 19 2V3H18C17.4477 3 17 3.44772 17 4C17 4.55228 17.4477 5 18 5H19V6C19 6.55228 19.4477 7 20 7C20.5523 7 21 6.55228 21 6V5H22C22.5523 5 23 4.55228 23 4C23 3.44772 22.5523 3 22 3H21V2Z" fill="black"/>
</svg>
