<svg width="24" height="24" viewBox="0 0 24 24" fill="none" xmlns="http://www.w3.org/2000/svg">
<path d="M5.29289 14.9597C4.90237 15.3502 4.90237 15.9833 5.29289 16.3739C5.68342 16.7644 6.31658 16.7644 6.70711 16.3739L10.0678 13.0132L11.3675 14.0746C11.7759 14.4081 12.3731 14.3673 12.7322 13.9812L16.0028 10.4652L17.2705 11.8174C17.6482 12.2203 18.281 12.2407 18.6839 11.863C19.0869 11.4852 19.1073 10.8524 18.7295 10.4495L16.7295 8.31615C16.54 8.11401 16.2751 7.99956 15.9981 8.00009C15.721 8.00063 15.4565 8.11611 15.2678 8.31899L11.9064 11.9325L10.6325 10.8922C10.2349 10.5675 9.65592 10.5966 9.29289 10.9597L5.29289 14.9597Z" fill="black"/>
<path fill-rule="evenodd" clip-rule="evenodd" d="M5 3C2.79086 3 1 4.79086 1 7V17C1 19.2091 2.79086 21 5 21H19C21.2091 21 23 19.2091 23 17V7C23 4.79086 21.2091 3 19 3H5ZM3 7C3 5.89543 3.89543 5 5 5H19C20.1046 5 21 5.89543 21 7V17C21 18.1046 20.1046 19 19 19H5C3.89543 19 3 18.1046 3 17V7Z" fill="black"/>
</svg>
