<svg width="24" height="24" viewBox="0 0 24 24" fill="none" xmlns="http://www.w3.org/2000/svg">
<path d="M5.29289 14.3739C4.90237 13.9833 4.90237 13.3502 5.29289 12.9597L9.29289 8.95965C9.65592 8.59662 10.2349 8.56748 10.6325 8.89223L11.9064 9.93253L15.2678 6.31899C15.4565 6.11611 15.721 6.00063 15.9981 6.00009C16.2751 5.99956 16.54 6.11401 16.7295 6.31615L18.7295 8.44948C19.1073 8.8524 19.0869 9.48523 18.6839 9.86296C18.281 10.2407 17.6482 10.2203 17.2705 9.81737L16.0028 8.46524L12.7322 11.9812C12.3731 12.3673 11.7759 12.4081 11.3675 12.0746L10.0678 11.0132L6.70711 14.3739C6.31658 14.7644 5.68342 14.7644 5.29289 14.3739Z" fill="black"/>
<path fill-rule="evenodd" clip-rule="evenodd" d="M1 5C1 2.79086 2.79086 1 5 1H19C21.2091 1 23 2.79086 23 5V15C23 17.2091 21.2091 19 19 19H14.4142L16.7071 21.2929C17.0976 21.6834 17.0976 22.3166 16.7071 22.7071C16.3166 23.0976 15.6834 23.0976 15.2929 22.7071L12 19.4142L8.70711 22.7071C8.31658 23.0976 7.68342 23.0976 7.29289 22.7071C6.90237 22.3166 6.90237 21.6834 7.29289 21.2929L9.58579 19H5C2.79086 19 1 17.2091 1 15V5ZM19 17C20.1046 17 21 16.1046 21 15V5C21 3.89543 20.1046 3 19 3H5C3.89543 3 3 3.89543 3 5V15C3 16.1046 3.89543 17 5 17H19Z" fill="black"/>
</svg>
