<svg width="24" height="24" viewBox="0 0 24 24" fill="none" xmlns="http://www.w3.org/2000/svg">
<path d="M5.29289 9.7071C4.90237 9.31657 4.90237 8.68341 5.29289 8.29288C5.68342 7.90236 6.31658 7.90236 6.70711 8.29288L10.0678 11.6535L11.3675 10.5921C11.7759 10.2586 12.3731 10.2995 12.7322 10.6856L16.0028 14.2015L17.2705 12.8494C17.6482 12.4465 18.281 12.4261 18.6839 12.8038C19.0869 13.1815 19.1073 13.8144 18.7295 14.2173L16.7295 16.3506C16.54 16.5527 16.2751 16.6672 15.9981 16.6667C15.721 16.6661 15.4565 16.5506 15.2678 16.3478L11.9064 12.7342L10.6325 13.7745C10.2349 14.0993 9.65592 14.0701 9.29289 13.7071L5.29289 9.7071Z" fill="black"/>
<path fill-rule="evenodd" clip-rule="evenodd" d="M5 3C2.79086 3 1 4.79086 1 7V17C1 19.2091 2.79086 21 5 21H19C21.2091 21 23 19.2091 23 17V7C23 4.79086 21.2091 3 19 3H5ZM3 7C3 5.89543 3.89543 5 5 5H19C20.1046 5 21 5.89543 21 7V17C21 18.1046 20.1046 19 19 19H5C3.89543 19 3 18.1046 3 17V7Z" fill="black"/>
</svg>
