<svg width="24" height="24" viewBox="0 0 24 24" fill="none" xmlns="http://www.w3.org/2000/svg">
<path d="M6 10C6 9.44772 6.44772 9 7 9H12C12.5523 9 13 9.44772 13 10C13 10.5523 12.5523 11 12 11H7C6.44772 11 6 10.5523 6 10Z" fill="black"/>
<path d="M7 13C6.44772 13 6 13.4477 6 14C6 14.5523 6.44772 15 7 15H16C16.5523 15 17 14.5523 17 14C17 13.4477 16.5523 13 16 13H7Z" fill="black"/>
<path fill-rule="evenodd" clip-rule="evenodd" d="M2 12C2 6.47715 6.47715 2 12 2C17.5228 2 22 6.47715 22 12C22 17.5228 17.5228 22 12 22C11.1677 22 10.3578 21.8981 9.58269 21.7056L4.03877 21.0126C2.84049 20.8628 2.00773 19.7459 2.20626 18.5547L2.54915 16.4974C2.55113 16.4854 2.55138 16.4733 2.54988 16.4613L2.29438 14.4173C2.1019 13.6422 2 12.8323 2 12ZM12 4C7.58172 4 4 7.58172 4 12C4 12.6866 4.08625 13.3515 4.24801 13.9853L4.26355 14.0462L4.53444 16.2132C4.55992 16.4171 4.55571 16.6235 4.52193 16.8262L4.17905 18.8835C4.16737 18.9536 4.21635 19.0193 4.28684 19.0281L9.95384 19.7364L10.0147 19.752C10.6485 19.9137 11.3135 20 12 20C16.4183 20 20 16.4183 20 12C20 7.58172 16.4183 4 12 4Z" fill="black"/>
</svg>
