<svg width="24" height="24" viewBox="0 0 24 24" fill="none" xmlns="http://www.w3.org/2000/svg">
<path d="M6 15C5.44772 15 5 14.5523 5 14C5 13.4477 5.44772 13 6 13C6.55228 13 7 13.4477 7 14C7 14.5523 6.55228 15 6 15Z" fill="black"/>
<path d="M9 14C9 14.5523 9.44772 15 10 15C10.5523 15 11 14.5523 11 14C11 13.4477 10.5523 13 10 13C9.44772 13 9 13.4477 9 14Z" fill="black"/>
<path d="M14 15C13.4477 15 13 14.5523 13 14C13 13.4477 13.4477 13 14 13C14.5523 13 15 13.4477 15 14C15 14.5523 14.5523 15 14 15Z" fill="black"/>
<path fill-rule="evenodd" clip-rule="evenodd" d="M20.478 13.448L17.9964 13.7582C17.9988 13.8385 18 13.9191 18 14C18 18.4183 14.4183 22 10 22C9.33907 22 8.69556 21.9196 8.07926 21.7677L3.78037 21.2303C2.72307 21.0982 1.98827 20.1126 2.16345 19.0616L2.42714 17.4794L2.23231 15.9207C2.08036 15.3044 2 14.6609 2 14C2 9.58172 5.58172 6 10 6C10.1136 6 10.2267 6.00237 10.3392 6.00706C11.1609 3.67344 13.3839 2 16 2C19.3137 2 22 4.68629 22 8C22 8.48944 21.9412 8.96646 21.8298 9.42385L21.6979 10.4794L21.8794 11.5684C22.0312 12.4793 21.3944 13.3335 20.478 13.448ZM16 4C18.2091 4 20 5.79086 20 8C20 8.34404 19.9568 8.67655 19.876 8.99301L19.8605 9.05391L19.7065 10.2856C19.687 10.4414 19.6903 10.5993 19.7161 10.7543L19.8424 11.5119L17.6883 11.7812C16.9424 9.19202 14.924 7.142 12.3539 6.35192C12.982 4.96457 14.3793 4 16 4ZM10 8C6.68629 8 4 10.6863 4 14C4 14.5153 4.06473 15.014 4.18599 15.4891L4.20154 15.55L4.41396 17.2494C4.43644 17.4293 4.43272 17.6114 4.40293 17.7902L4.15764 19.2619L8.44996 19.7985L8.51087 19.814C8.98597 19.9353 9.48471 20 10 20C13.3137 20 16 17.3137 16 14C16 10.6863 13.3137 8 10 8Z" fill="black"/>
</svg>
