<svg width="24" height="24" viewBox="0 0 24 24" fill="none" xmlns="http://www.w3.org/2000/svg">
<path d="M15.75 12C15.75 12.6904 16.3096 13.25 17 13.25C17.6904 13.25 18.25 12.6904 18.25 12C18.25 11.3096 17.6904 10.75 17 10.75C16.3096 10.75 15.75 11.3096 15.75 12Z" fill="black"/>
<path d="M12 13.25C11.3096 13.25 10.75 12.6904 10.75 12C10.75 11.3096 11.3096 10.75 12 10.75C12.6904 10.75 13.25 11.3096 13.25 12C13.25 12.6904 12.6904 13.25 12 13.25Z" fill="black"/>
<path d="M5.75 12C5.75 12.6904 6.30964 13.25 7 13.25C7.69036 13.25 8.25 12.6904 8.25 12C8.25 11.3096 7.69036 10.75 7 10.75C6.30964 10.75 5.75 11.3096 5.75 12Z" fill="black"/>
<path fill-rule="evenodd" clip-rule="evenodd" d="M12 2C6.47715 2 2 6.47715 2 12C2 12.8323 2.1019 13.6422 2.29438 14.4173L2.54988 16.4613C2.55138 16.4733 2.55113 16.4854 2.54915 16.4974L2.20626 18.5547C2.00773 19.7459 2.84049 20.8628 4.03877 21.0126L9.58269 21.7056C10.3578 21.8981 11.1677 22 12 22C17.5228 22 22 17.5228 22 12C22 6.47715 17.5228 2 12 2ZM4 12C4 7.58172 7.58172 4 12 4C16.4183 4 20 7.58172 20 12C20 16.4183 16.4183 20 12 20C11.3135 20 10.6485 19.9137 10.0147 19.752L9.95384 19.7364L4.28684 19.0281C4.21635 19.0193 4.16737 18.9536 4.17905 18.8835L4.52193 16.8262C4.55571 16.6235 4.55992 16.4171 4.53444 16.2132L4.26355 14.0462L4.24801 13.9853C4.08625 13.3515 4 12.6866 4 12Z" fill="black"/>
</svg>
