<svg width="24" height="24" viewBox="0 0 24 24" fill="none" xmlns="http://www.w3.org/2000/svg">
<path d="M16.7176 9.69646C17.1022 9.30015 17.0928 8.66705 16.6965 8.28241C16.3001 7.89776 15.6671 7.90722 15.2824 8.30354L10.1767 13.5642L8.7176 12.0608C8.33295 11.6645 7.69986 11.655 7.30354 12.0397C6.90722 12.4243 6.89776 13.0574 7.2824 13.4537L9.4591 15.6965C9.64742 15.8905 9.90629 16 10.1767 16C10.4471 16 10.706 15.8905 10.8943 15.6965L16.7176 9.69646Z" fill="black"/>
<path fill-rule="evenodd" clip-rule="evenodd" d="M7 3C4.79086 3 3 4.79086 3 7V17C3 19.2091 4.79086 21 7 21H17C19.2091 21 21 19.2091 21 17V7C21 4.79086 19.2091 3 17 3H7ZM5 7C5 5.89543 5.89543 5 7 5H17C18.1046 5 19 5.89543 19 7V17C19 18.1046 18.1046 19 17 19H7C5.89543 19 5 18.1046 5 17V7Z" fill="black"/>
</svg>
