<svg width="24" height="24" viewBox="0 0 24 24" fill="none" xmlns="http://www.w3.org/2000/svg">
<path d="M12.7071 3.29289C12.5196 3.10536 12.2652 3 12 3C11.7348 3 11.4804 3.10536 11.2929 3.29289L5.29289 9.29289C4.90237 9.68342 4.90237 10.3166 5.29289 10.7071C5.68342 11.0976 6.31658 11.0976 6.70711 10.7071L12 5.41421L17.2929 10.7071C17.6834 11.0976 18.3166 11.0976 18.7071 10.7071C19.0976 10.3166 19.0976 9.68342 18.7071 9.29289L12.7071 3.29289Z" fill="black"/>
<path d="M12.7071 21.7071C12.5196 21.8946 12.2652 22 12 22C11.7348 22 11.4804 21.8946 11.2929 21.7071L5.29289 15.7071C4.90237 15.3166 4.90237 14.6834 5.29289 14.2929C5.68342 13.9024 6.31658 13.9024 6.70711 14.2929L12 19.5858L17.2929 14.2929C17.6834 13.9024 18.3166 13.9024 18.7071 14.2929C19.0976 14.6834 19.0976 15.3166 18.7071 15.7071L12.7071 21.7071Z" fill="black"/>
</svg>
