<svg width="24" height="24" viewBox="0 0 24 24" fill="none" xmlns="http://www.w3.org/2000/svg">
<path d="M21.2071 13.2071C21.3946 13.0196 21.5 12.7652 21.5 12.5C21.5 12.2348 21.3946 11.9804 21.2071 11.7929L15.2071 5.79289C14.8166 5.40237 14.1834 5.40237 13.7929 5.79289C13.4024 6.18342 13.4024 6.81658 13.7929 7.20711L19.0858 12.5L13.7929 17.7929C13.4024 18.1834 13.4024 18.8166 13.7929 19.2071C14.1834 19.5976 14.8166 19.5976 15.2071 19.2071L21.2071 13.2071Z" fill="black"/>
<path d="M2.79289 13.2071C2.60536 13.0196 2.5 12.7652 2.5 12.5C2.5 12.2348 2.60536 11.9804 2.79289 11.7929L8.79289 5.79289C9.18342 5.40237 9.81658 5.40237 10.2071 5.79289C10.5976 6.18342 10.5976 6.81658 10.2071 7.20711L4.91421 12.5L10.2071 17.7929C10.5976 18.1834 10.5976 18.8166 10.2071 19.2071C9.81658 19.5976 9.18342 19.5976 8.79289 19.2071L2.79289 13.2071Z" fill="black"/>
</svg>
