<svg width="24" height="24" viewBox="0 0 24 24" fill="none" xmlns="http://www.w3.org/2000/svg">
<path fill-rule="evenodd" clip-rule="evenodd" d="M10 1C8.69378 1 7.58254 1.83481 7.17071 3H7C4.79086 3 3 4.79086 3 7V18C3 20.2091 4.79086 22 7 22H17C19.2091 22 21 20.2091 21 18V7C21 4.79086 19.2091 3 17 3H16.8293C16.4175 1.83481 15.3062 1 14 1H10ZM9 4C9 3.44772 9.44772 3 10 3H14C14.5523 3 15 3.44772 15 4C15 4.55228 14.5523 5 14 5H10C9.44772 5 9 4.55228 9 4ZM5 7C5 5.89543 5.89543 5 7 5H7.17071C7.58254 6.16519 8.69378 7 10 7H14C15.3062 7 16.4175 6.16519 16.8293 5H17C18.1046 5 19 5.89543 19 7V18C19 19.1046 18.1046 20 17 20H7C5.89543 20 5 19.1046 5 18V7Z" fill="black"/>
</svg>
