<svg width="24" height="24" viewBox="0 0 24 24" fill="none" xmlns="http://www.w3.org/2000/svg">
<path d="M6 9.5C6 6.46243 8.46243 4 11.5 4C14.1907 4 16.432 5.93318 16.907 8.48668C16.9736 8.84475 17.2297 9.1383 17.5754 9.25295C19.5661 9.9132 21 11.7905 21 14C21 16.7614 18.7614 19 16 19C15.4477 19 15 19.4477 15 20C15 20.5523 15.4477 21 16 21C19.866 21 23 17.866 23 14C23 11.1075 21.2462 8.62697 18.7463 7.55958C17.8909 4.358 14.9717 2 11.5 2C7.35786 2 4 5.35786 4 9.5C4 9.60028 4.00197 9.70014 4.00589 9.79955C2.21048 10.8354 1 12.7754 1 15C1 18.3137 3.68629 21 7 21C7.55228 21 8 20.5523 8 20C8 19.4477 7.55228 19 7 19C4.79086 19 3 17.2091 3 15C3 13.3427 4.00818 11.9185 5.44865 11.3117C5.86549 11.1361 6.11256 10.7026 6.05119 10.2544C6.01748 10.0083 6 9.75644 6 9.5Z" fill="black"/>
<path d="M13.0745 15.5376C13.3714 15.0719 13.2346 14.4537 12.7689 14.1568C12.3032 13.8599 11.685 13.9967 11.3881 14.4624L9.15678 17.9624C8.9605 18.2703 8.94762 18.6607 9.1232 18.9808C9.29877 19.301 9.63487 19.5 10 19.5H11.3259L10.2352 21.526C9.97335 22.0122 10.1553 22.6187 10.6416 22.8805C11.1279 23.1423 11.7344 22.9603 11.9962 22.474L13.8805 18.974C14.0473 18.6641 14.039 18.2893 13.8585 17.9872C13.678 17.685 13.352 17.5 13 17.5H11.8235L13.0745 15.5376Z" fill="black"/>
</svg>
