<svg width="24" height="24" viewBox="0 0 24 24" fill="none" xmlns="http://www.w3.org/2000/svg">
<path d="M9.6 3C7.2374 3 5.4 4.81974 5.4 6.97059C5.4 7.15387 5.41307 7.33371 5.43825 7.50945C5.50356 7.96533 5.24908 8.40686 4.82187 8.57888C3.72857 9.01912 3 10.0336 3 11.1765C3 12.2927 3.70361 13.2947 4.75235 13.7464C4.3537 14.2761 4.0579 14.8877 3.89461 15.5513C2.19917 14.7907 1 13.1383 1 11.1765C1 9.4138 1.97485 7.89465 3.40062 7.05549C3.40021 7.02723 3.4 6.99893 3.4 6.97059C3.4 3.63108 6.21884 1 9.6 1C12.3404 1 14.7028 2.72183 15.5074 5.1527C14.8042 4.89227 14.0437 4.75 13.25 4.75C13.1941 4.75 13.1383 4.75071 13.0828 4.75211C12.3343 3.70425 11.0658 3 9.6 3Z" fill="black"/>
<path fill-rule="evenodd" clip-rule="evenodd" d="M13.6 6C10.2188 6 7.4 8.63108 7.4 11.9706C7.4 11.9989 7.40021 12.0272 7.40062 12.0555C5.97485 12.8947 5 14.4138 5 16.1765C5 18.8825 7.28158 21 10 21H17.2C20.3603 21 23 18.5401 23 15.4118C23 13.1112 21.5655 11.1662 19.5551 10.3038C18.7999 7.79347 16.3968 6 13.6 6ZM9.4 11.9706C9.4 9.81974 11.2374 8 13.6 8C15.6888 8 17.377 9.43019 17.7305 11.2469C17.8005 11.6061 18.061 11.8985 18.4099 12.0091C19.9411 12.4945 21 13.8558 21 15.4118C21 17.3514 19.3417 19 17.2 19H10C8.30014 19 7 17.6938 7 16.1765C7 15.0336 7.72857 14.0191 8.82187 13.5789C9.24908 13.4069 9.50356 12.9653 9.43825 12.5094C9.41307 12.3337 9.4 12.1539 9.4 11.9706Z" fill="black"/>
</svg>
