<svg width="24" height="24" viewBox="0 0 24 24" fill="none" xmlns="http://www.w3.org/2000/svg">
<path d="M6 9.5C6 6.46243 8.46243 4 11.5 4C14.1907 4 16.432 5.93318 16.907 8.48668C16.9736 8.84475 17.2297 9.1383 17.5754 9.25295C19.5661 9.9132 21 11.7905 21 14C21 16.4765 19.1985 18.5342 16.8345 18.9308C16.2899 19.0222 15.9224 19.5378 16.0138 20.0825C16.1052 20.6272 16.6208 20.9946 17.1655 20.9033C20.4769 20.3477 23 17.4695 23 14C23 11.1075 21.2462 8.62697 18.7463 7.55958C17.8909 4.358 14.9717 2 11.5 2C7.35786 2 4 5.35786 4 9.5C4 9.60028 4.00197 9.70014 4.00589 9.79955C2.21048 10.8354 1 12.7754 1 15C1 17.9039 3.06196 20.324 5.80107 20.88C6.34231 20.9899 6.87015 20.6402 6.98001 20.0989C7.08988 19.5577 6.74018 19.0298 6.19893 18.92C4.37356 18.5494 3 16.934 3 15C3 13.3427 4.00818 11.9185 5.44865 11.3117C5.86549 11.1361 6.11256 10.7026 6.05119 10.2544C6.01748 10.0083 6 9.75644 6 9.5Z" fill="black"/>
<path d="M7.49389 18.1923C7.8948 18.326 8.20938 18.6405 8.34302 19.0415C8.47902 19.4495 9.05614 19.4495 9.19214 19.0415C9.32577 18.6405 9.64036 18.326 10.0413 18.1923C10.4493 18.0563 10.4493 17.4792 10.0413 17.3432C9.64036 17.2096 9.32577 16.895 9.19214 16.4941C9.05614 16.0861 8.47902 16.0861 8.34302 16.4941C8.20938 16.895 7.8948 17.2096 7.49389 17.3432C7.08589 17.4792 7.08589 18.0563 7.49389 18.1923Z" fill="black"/>
<path d="M11.343 22.0415C11.2094 21.6405 10.8948 21.326 10.4939 21.1923C10.0859 21.0563 10.0859 20.4792 10.4939 20.3432C10.8948 20.2096 11.2094 19.895 11.343 19.4941C11.479 19.0861 12.0561 19.0861 12.1921 19.4941C12.3258 19.895 12.6404 20.2096 13.0413 20.3432C13.4493 20.4792 13.4493 21.0563 13.0413 21.1923C12.6404 21.326 12.3258 21.6405 12.1921 22.0415C12.0561 22.4495 11.479 22.4495 11.343 22.0415Z" fill="black"/>
<path d="M13.4939 18.1923C13.8948 18.326 14.2094 18.6405 14.343 19.0415C14.479 19.4495 15.0561 19.4495 15.1921 19.0415C15.3258 18.6405 15.6404 18.326 16.0413 18.1923C16.4493 18.0563 16.4493 17.4792 16.0413 17.3432C15.6404 17.2096 15.3258 16.895 15.1921 16.4941C15.0561 16.0861 14.479 16.0861 14.343 16.4941C14.2094 16.895 13.8948 17.2096 13.4939 17.3432C13.0859 17.4792 13.0859 18.0563 13.4939 18.1923Z" fill="black"/>
</svg>
