<svg width="24" height="24" viewBox="0 0 24 24" fill="none" xmlns="http://www.w3.org/2000/svg">
<path d="M2.70711 22.7071L22.7071 2.70711C23.0976 2.31658 23.0976 1.68342 22.7071 1.29289C22.3166 0.902369 21.6834 0.902369 21.2929 1.29289L1.29289 21.2929C0.902369 21.6834 0.902369 22.3166 1.29289 22.7071C1.68342 23.0976 2.31658 23.0976 2.70711 22.7071Z" fill="black"/>
<path d="M17.5754 9.25298L19.104 7.72442C21.4119 8.86811 23 11.2476 23 14C23 17.866 19.866 21 16 21H7C6.63288 21 6.27346 20.967 5.92454 20.9039L7.82843 19H16C18.7614 19 21 16.7614 21 14C21 11.7905 19.5662 9.91325 17.5754 9.25298Z" fill="black"/>
<path d="M1 15C1 16.4459 1.51144 17.7723 2.36329 18.8083L3.78768 17.3839C3.29281 16.7181 3 15.8933 3 15C3 13.3427 4.00818 11.9185 5.44865 11.3117C5.86549 11.1361 6.11256 10.7026 6.05119 10.2544C6.01748 10.0083 6 9.75644 6 9.5C6 6.46243 8.46243 4 11.5 4C13.062 4 14.4725 4.65147 15.474 5.69757L16.8883 4.28324C15.5251 2.87524 13.6151 2 11.5 2C7.35786 2 4 5.35786 4 9.5C4 9.60028 4.00197 9.70014 4.00589 9.79955C2.21048 10.8354 1 12.7754 1 15Z" fill="black"/>
</svg>
