<svg width="24" height="24" viewBox="0 0 24 24" fill="none" xmlns="http://www.w3.org/2000/svg">
<path d="M6 9.5C6 6.46243 8.46243 4 11.5 4C14.1907 4 16.432 5.93318 16.907 8.48668C16.9736 8.84475 17.2297 9.1383 17.5754 9.25295C19.5661 9.9132 21 11.7905 21 14C21 16.7614 18.7614 19 16 19C15.4477 19 15 19.4477 15 20C15 20.5523 15.4477 21 16 21C19.866 21 23 17.866 23 14C23 11.1075 21.2462 8.62697 18.7463 7.55958C17.8909 4.358 14.9717 2 11.5 2C7.35786 2 4 5.35786 4 9.5C4 9.60028 4.00197 9.70014 4.00589 9.79955C2.21048 10.8354 1 12.7754 1 15C1 18.3137 3.68629 21 7 21C7.55228 21 8 20.5523 8 20C8 19.4477 7.55228 19 7 19C4.79086 19 3 17.2091 3 15C3 13.3427 4.00818 11.9185 5.44865 11.3117C5.86549 11.1361 6.11256 10.7026 6.05119 10.2544C6.01748 10.0083 6 9.75644 6 9.5Z" fill="black"/>
<path d="M14.1644 21.4141L12.6644 22.7474C12.2855 23.0842 11.7145 23.0842 11.3356 22.7474L9.83564 21.4141C9.42285 21.0472 9.38567 20.4151 9.75259 20.0023C10.0736 19.6412 10.5975 19.5675 11 19.8004V15C11 14.4477 11.4477 14 12 14C12.5523 14 13 14.4477 13 15V19.8004C13.4025 19.5675 13.9264 19.6412 14.2474 20.0023C14.6143 20.4151 14.5771 21.0472 14.1644 21.4141Z" fill="black"/>
</svg>
