<svg width="24" height="24" viewBox="0 0 24 24" fill="none" xmlns="http://www.w3.org/2000/svg">
<path d="M6 9.5C6 6.46243 8.46243 4 11.5 4C14.1907 4 16.432 5.93318 16.907 8.48668C16.9736 8.84475 17.2297 9.1383 17.5754 9.25295C19.5661 9.9132 21 11.7905 21 14C21 16.4765 19.1985 18.5342 16.8345 18.9308C16.2899 19.0222 15.9224 19.5378 16.0138 20.0825C16.1052 20.6272 16.6208 20.9946 17.1655 20.9033C20.4769 20.3477 23 17.4695 23 14C23 11.1075 21.2462 8.62697 18.7463 7.55958C17.8909 4.358 14.9717 2 11.5 2C7.35786 2 4 5.35786 4 9.5C4 9.60028 4.00197 9.70014 4.00589 9.79955C2.21048 10.8354 1 12.7754 1 15C1 17.9039 3.06196 20.324 5.80107 20.88C6.34231 20.9899 6.87015 20.6402 6.98001 20.0989C7.08988 19.5577 6.74018 19.0298 6.19893 18.92C4.37356 18.5494 3 16.934 3 15C3 13.3427 4.00818 11.9185 5.44865 11.3117C5.86549 11.1361 6.11256 10.7026 6.05119 10.2544C6.01748 10.0083 6 9.75644 6 9.5Z" fill="black"/>
<path d="M10.4615 17.7747C10.6132 17.2437 10.3058 16.6902 9.77472 16.5385C9.24369 16.3868 8.6902 16.6942 8.53848 17.2253L7.53848 20.7253C7.38675 21.2563 7.69424 21.8098 8.22528 21.9615C8.75631 22.1132 9.3098 21.8058 9.46152 21.2747L10.4615 17.7747Z" fill="black"/>
<path d="M12.2747 16.5385C12.8058 16.6902 13.1132 17.2437 12.9615 17.7747L11.9615 21.2747C11.8098 21.8058 11.2563 22.1132 10.7253 21.9615C10.1942 21.8098 9.88675 21.2563 10.0385 20.7253L11.0385 17.2253C11.1902 16.6942 11.7437 16.3868 12.2747 16.5385Z" fill="black"/>
<path d="M15.4615 17.7747C15.6132 17.2437 15.3058 16.6902 14.7747 16.5385C14.2437 16.3868 13.6902 16.6942 13.5385 17.2253L12.5385 20.7253C12.3868 21.2563 12.6942 21.8098 13.2253 21.9615C13.7563 22.1132 14.3098 21.8058 14.4615 21.2747L15.4615 17.7747Z" fill="black"/>
</svg>
