<svg width="24" height="24" viewBox="0 0 24 24" fill="none" xmlns="http://www.w3.org/2000/svg">
<path d="M21 1C21.5523 1 22 1.44772 22 2V5C22 5.55228 21.5523 6 21 6C20.4477 6 20 5.55228 20 5V2C20 1.44772 20.4477 1 21 1Z" fill="black"/>
<path fill-rule="evenodd" clip-rule="evenodd" d="M11.5 2C7.35786 2 4 5.35786 4 9.5C4 9.60028 4.00197 9.70014 4.00589 9.79955C2.21048 10.8354 1 12.7754 1 15C1 18.3137 3.68629 21 7 21H16C19.866 21 23 17.866 23 14C23 11.1075 21.2462 8.62697 18.7463 7.55958C17.8909 4.358 14.9717 2 11.5 2ZM6 9.5C6 6.46243 8.46243 4 11.5 4C14.1907 4 16.432 5.93318 16.907 8.48668C16.9736 8.84475 17.2297 9.1383 17.5754 9.25295C19.5661 9.9132 21 11.7905 21 14C21 16.7614 18.7614 19 16 19H7C4.79086 19 3 17.2091 3 15C3 13.3427 4.00818 11.9185 5.44865 11.3117C5.86549 11.1361 6.11256 10.7026 6.05119 10.2544C6.01748 10.0083 6 9.75644 6 9.5Z" fill="black"/>
<path d="M20 7.25C20 7.80228 20.4477 8.25 21 8.25C21.5523 8.25 22 7.80228 22 7.25C22 6.69772 21.5523 6.25 21 6.25C20.4477 6.25 20 6.69772 20 7.25Z" fill="black"/>
</svg>
