<svg width="24" height="24" viewBox="0 0 24 24" fill="none" xmlns="http://www.w3.org/2000/svg">
<path d="M8 2C5.79086 2 4 3.79086 4 6V9.1459C4 9.90344 3.572 10.596 2.89443 10.9348L2.55279 11.1056C2.214 11.275 2 11.6212 2 12C2 12.3788 2.214 12.725 2.55279 12.8944L2.89443 13.0652C3.572 13.404 4 14.0966 4 14.8541V18C4 20.2091 5.79086 22 8 22H9.5C10.0523 22 10.5 21.5523 10.5 21C10.5 20.4477 10.0523 20 9.5 20H8C6.89543 20 6 19.1046 6 18V14.8541C6 13.7636 5.55653 12.7405 4.80268 12C5.55653 11.2595 6 10.2364 6 9.1459V6C6 4.89543 6.89543 4 8 4H9.5C10.0523 4 10.5 3.55228 10.5 3C10.5 2.44772 10.0523 2 9.5 2H8Z" fill="black"/>
<path d="M16 2C18.2091 2 20 3.79086 20 6V9.1459C20 9.90344 20.428 10.596 21.1056 10.9348L21.4472 11.1056C21.786 11.275 22 11.6212 22 12C22 12.3788 21.786 12.725 21.4472 12.8944L21.1056 13.0652C20.428 13.404 20 14.0966 20 14.8541V18C20 20.2091 18.2091 22 16 22H14.5C13.9477 22 13.5 21.5523 13.5 21C13.5 20.4477 13.9477 20 14.5 20H16C17.1046 20 18 19.1046 18 18V14.8541C18 13.7636 18.4435 12.7405 19.1973 12C18.4435 11.2595 18 10.2364 18 9.1459V6C18 4.89543 17.1046 4 16 4H14.5C13.9477 4 13.5 3.55228 13.5 3C13.5 2.44772 13.9477 2 14.5 2H16Z" fill="black"/>
</svg>
