<svg width="24" height="24" viewBox="0 0 24 24" fill="none" xmlns="http://www.w3.org/2000/svg">
<path d="M15.4417 5.33661C15.6275 4.8165 15.3564 4.24428 14.8363 4.05853C14.3162 3.87278 13.744 4.14383 13.5583 4.66394L8.55826 18.6639C8.3725 19.184 8.64355 19.7563 9.16366 19.942C9.68377 20.1278 10.256 19.8567 10.4417 19.3366L15.4417 5.33661Z" fill="black"/>
<path d="M8.83205 7.44557C9.1384 7.9051 9.01423 8.52597 8.5547 8.83232L3.80278 12.0003L8.5547 15.1682C9.01423 15.4746 9.1384 16.0954 8.83205 16.555C8.5257 17.0145 7.90483 17.1387 7.4453 16.8323L1.4453 12.8323C1.1671 12.6469 1 12.3346 1 12.0003C1 11.6659 1.1671 11.3537 1.4453 11.1682L7.4453 7.16822C7.90483 6.86187 8.5257 6.98604 8.83205 7.44557Z" fill="black"/>
<path d="M15.1679 7.44557C14.8616 7.9051 14.9858 8.52597 15.4453 8.83232L20.1972 12.0003L15.4453 15.1682C14.9858 15.4746 14.8616 16.0954 15.1679 16.555C15.4743 17.0145 16.0952 17.1387 16.5547 16.8323L22.5547 12.8323C22.8329 12.6469 23 12.3346 23 12.0003C23 11.6659 22.8329 11.3537 22.5547 11.1682L16.5547 7.16822C16.0952 6.86187 15.4743 6.98604 15.1679 7.44557Z" fill="black"/>
</svg>
