<svg width="24" height="24" viewBox="0 0 24 24" fill="none" xmlns="http://www.w3.org/2000/svg">
<path fill-rule="evenodd" clip-rule="evenodd" d="M14 7.47013V6.5C14 5.07302 13.093 3.9241 11.926 3.18146C10.7471 2.43128 9.17959 2 7.5 2C5.82041 2 4.25289 2.43128 3.07404 3.18146C1.90704 3.9241 1 5.07302 1 6.5V17.5C1 18.927 1.90704 20.0759 3.07404 20.8185C4.25289 21.5687 5.82041 22 7.5 22C9.17959 22 10.7471 21.5687 11.926 20.8185C12.4576 20.4802 12.9352 20.0576 13.2978 19.5628C13.5867 20.1591 14.0609 20.6564 14.6089 21.0294C15.5194 21.649 16.7213 22 18 22C19.2787 22 20.4806 21.649 21.3911 21.0294C22.2963 20.4133 23 19.4583 23 18.2778V9.72222C23 8.54172 22.2963 7.58668 21.3911 6.97061C20.4806 6.35099 19.2787 6 18 6C16.7213 6 15.5194 6.35099 14.6089 6.97061C14.3921 7.11819 14.1868 7.28521 14 7.47013ZM3 6.5C3 5.99399 3.32417 5.39291 4.14779 4.86879C4.95954 4.35222 6.14203 4 7.5 4C8.85797 4 10.0405 4.35222 10.8522 4.86879C11.6758 5.39291 12 5.99399 12 6.5C12 7.00601 11.6758 7.60709 10.8522 8.13121C10.0405 8.64778 8.85797 9 7.5 9C6.14203 9 4.95954 8.64778 4.14779 8.13121C3.32417 7.60709 3 7.00601 3 6.5ZM11.926 9.81854C11.9508 9.80275 11.9754 9.78679 12 9.77064V10.5C12 11.006 11.6758 11.6071 10.8522 12.1312C10.0405 12.6478 8.85797 13 7.5 13C6.14203 13 4.95954 12.6478 4.14779 12.1312C3.32417 11.6071 3 11.006 3 10.5V9.77064C3.02456 9.78679 3.04924 9.80275 3.07404 9.81854C4.25289 10.5687 5.82041 11 7.5 11C9.17959 11 10.7471 10.5687 11.926 9.81854ZM11.926 13.8185C11.9508 13.8028 11.9754 13.7868 12 13.7706V14.5C12 15.006 11.6758 15.6071 10.8522 16.1312C10.0405 16.6478 8.85797 17 7.5 17C6.14203 17 4.95954 16.6478 4.14779 16.1312C3.32417 15.6071 3 15.006 3 14.5V13.7706C3.02456 13.7868 3.04924 13.8028 3.07404 13.8185C4.25289 14.5687 5.82041 15 7.5 15C9.17959 15 10.7471 14.5687 11.926 13.8185ZM11.926 17.8185L11.9646 17.7937C11.8608 18.2289 11.5213 18.7054 10.8522 19.1312C10.0405 19.6478 8.85797 20 7.5 20C6.14203 20 4.95954 19.6478 4.14779 19.1312C3.47871 18.7054 3.13923 18.2289 3.0354 17.7937L3.07404 17.8185C4.25289 18.5687 5.82041 19 7.5 19C9.17959 19 10.7471 18.5687 11.926 17.8185ZM15 9.72222C15 9.39928 15.1917 8.99321 15.7342 8.62403C16.2714 8.2584 17.0695 8 18 8C18.9305 8 19.7286 8.2584 20.2658 8.62403C20.8083 8.99321 21 9.39928 21 9.72222C21 10.0452 20.8083 10.4512 20.2658 10.8204C19.7286 11.186 18.9305 11.4444 18 11.4444C17.0695 11.4444 16.2714 11.186 15.7342 10.8204C15.1917 10.4512 15 10.0452 15 9.72222ZM18 13.4444C19.1031 13.4444 20.149 13.1832 21 12.7137V12.8333C21 13.1563 20.8083 13.5623 20.2658 13.9315C19.7286 14.2972 18.9305 14.5556 18 14.5556C17.0695 14.5556 16.2714 14.2972 15.7342 13.9315C15.1917 13.5623 15 13.1563 15 12.8333V12.7137C15.851 13.1832 16.8969 13.4444 18 13.4444ZM18 16.5556C19.1031 16.5556 20.149 16.2944 21 15.8248V15.9444C21 16.2674 20.8083 16.6735 20.2658 17.0426C19.7286 17.4083 18.9305 17.6667 18 17.6667C17.0695 17.6667 16.2714 17.4083 15.7342 17.0426C15.1917 16.6735 15 16.2674 15 15.9444V15.8248C15.851 16.2944 16.8969 16.5556 18 16.5556ZM18 19.6667C18.911 19.6667 19.7831 19.4885 20.5386 19.1619C20.4597 19.234 20.3691 19.3057 20.2658 19.376C19.7286 19.7416 18.9305 20 18 20C17.0695 20 16.2714 19.7416 15.7342 19.376C15.6309 19.3057 15.5403 19.234 15.4614 19.1619C16.2169 19.4885 17.089 19.6667 18 19.6667Z" fill="black"/>
</svg>
