<svg width="24" height="24" viewBox="0 0 24 24" fill="none" xmlns="http://www.w3.org/2000/svg">
<path d="M7.3207 18.038C7.10689 17.3965 6.60355 16.8932 5.96211 16.6794C5.30929 16.4618 5.30929 15.5384 5.96211 15.3208C6.60355 15.1069 7.10689 14.6036 7.3207 13.9622C7.53831 13.3094 8.46169 13.3094 8.6793 13.9622C8.89311 14.6036 9.39645 15.1069 10.0379 15.3208C10.6907 15.5384 10.6907 16.4618 10.0379 16.6794C9.39645 16.8932 8.89311 17.3965 8.6793 18.038C8.46169 18.6908 7.53831 18.6908 7.3207 18.038Z" fill="black"/>
<path fill-rule="evenodd" clip-rule="evenodd" d="M8.57465 9.52505C8.52545 9.19017 8.5 8.84786 8.5 8.5C8.5 4.63401 11.634 1.5 15.5 1.5C19.366 1.5 22.5 4.63401 22.5 8.5C22.5 12.366 19.366 15.5 15.5 15.5C15.1521 15.5 14.8098 15.4746 14.4749 15.4253C14.4915 15.6147 14.5 15.8064 14.5 16C14.5 19.5899 11.5899 22.5 8 22.5C4.41015 22.5 1.5 19.5899 1.5 16C1.5 12.4101 4.41015 9.5 8 9.5C8.19365 9.5 8.38531 9.50847 8.57465 9.52505ZM10.5 8.5C10.5 5.73858 12.7386 3.5 15.5 3.5C18.2614 3.5 20.5 5.73858 20.5 8.5C20.5 11.2614 18.2614 13.5 15.5 13.5C14.9326 13.5 14.3893 13.4059 13.8834 13.2332C13.2396 11.8665 12.1335 10.7604 10.7668 10.1166C10.5941 9.61074 10.5 9.06737 10.5 8.5ZM8 11.5C5.51472 11.5 3.5 13.5147 3.5 16C3.5 18.4853 5.51472 20.5 8 20.5C10.4853 20.5 12.5 18.4853 12.5 16C12.5 13.5147 10.4853 11.5 8 11.5Z" fill="black"/>
</svg>
