<svg width="24" height="24" viewBox="0 0 24 24" fill="none" xmlns="http://www.w3.org/2000/svg">
<path d="M3 10.0002C2.44772 10.0002 2 9.5525 2 9.00022C2 6.51093 2.83884 4.7337 4.06606 3.58318C4.44934 3.22386 4.86293 2.93286 5.28831 2.7031C4.9957 2.40688 4.909 1.94615 5.10557 1.55301C5.35256 1.05903 5.95324 0.858803 6.44721 1.10579L8.44721 2.10579C8.94119 2.35278 9.14142 2.95345 8.89443 3.44743L7.89443 5.44743C7.64744 5.94141 7.04676 6.14164 6.55279 5.89465C6.05881 5.64766 5.85858 5.04698 6.10557 4.55301L6.1159 4.53235C5.8795 4.67136 5.64936 4.8403 5.43394 5.04226C4.66116 5.76673 4 6.98951 4 9.00022C4 9.5525 3.55228 10.0002 3 10.0002Z" fill="black"/>
<path d="M5.79047 16.5079C6.43192 16.7218 6.93526 17.2251 7.14907 17.8665C7.36668 18.5194 8.29006 18.5194 8.50767 17.8665C8.72148 17.2251 9.22482 16.7218 9.86626 16.5079C10.5191 16.2903 10.5191 15.367 9.86626 15.1493C9.22482 14.9355 8.72148 14.4322 8.50767 13.7908C8.29006 13.1379 7.36668 13.1379 7.14907 13.7908C6.93526 14.4322 6.43192 14.9355 5.79047 15.1493C5.13766 15.367 5.13766 16.2903 5.79047 16.5079Z" fill="black"/>
<path fill-rule="evenodd" clip-rule="evenodd" d="M8.5 8.50022C8.5 8.84808 8.52545 9.19038 8.57465 9.52527C8.38531 9.50869 8.19365 9.50022 8 9.50022C4.41015 9.50022 1.5 12.4104 1.5 16.0002C1.5 19.5901 4.41015 22.5002 8 22.5002C11.5899 22.5002 14.5 19.5901 14.5 16.0002C14.5 15.8066 14.4915 15.6149 14.4749 15.4256C14.8098 15.4748 15.1521 15.5002 15.5 15.5002C19.366 15.5002 22.5 12.3662 22.5 8.50022C22.5 4.63423 19.366 1.50022 15.5 1.50022C11.634 1.50022 8.5 4.63423 8.5 8.50022ZM15.5 3.50022C12.7386 3.50022 10.5 5.7388 10.5 8.50022C10.5 9.06759 10.5941 9.61096 10.7668 10.1168C12.1335 10.7606 13.2396 11.8667 13.8834 13.2334C14.3893 13.4061 14.9326 13.5002 15.5 13.5002C18.2614 13.5002 20.5 11.2616 20.5 8.50022C20.5 5.7388 18.2614 3.50022 15.5 3.50022ZM8 11.5002C5.51472 11.5002 3.5 13.5149 3.5 16.0002C3.5 18.4855 5.51472 20.5002 8 20.5002C10.4853 20.5002 12.5 18.4855 12.5 16.0002C12.5 13.5149 10.4853 11.5002 8 11.5002Z" fill="black"/>
<path d="M22 15.0002C22 14.4479 21.5523 14.0002 21 14.0002C20.4477 14.0002 20 14.4479 20 15.0002C20 17.0109 19.3388 18.2337 18.5661 18.9582C18.3506 19.1601 18.1205 19.3291 17.8841 19.4681L17.8944 19.4474C18.1414 18.9535 17.9412 18.3528 17.4472 18.1058C16.9532 17.8588 16.3526 18.059 16.1056 18.553L15.1056 20.553C14.8586 21.047 15.0588 21.6477 15.5528 21.8946L17.5528 22.8946C18.0468 23.1416 18.6474 22.9414 18.8944 22.4474C19.091 22.0543 19.0043 21.5936 18.7117 21.2973C19.1371 21.0676 19.5507 20.7766 19.9339 20.4173C21.1612 19.2667 22 17.4895 22 15.0002Z" fill="black"/>
</svg>
