<svg width="24" height="24" viewBox="0 0 24 24" fill="none" xmlns="http://www.w3.org/2000/svg">
<path fill-rule="evenodd" clip-rule="evenodd" d="M1 19.5C1 20.8807 2.11929 22 3.5 22H8.5C9.88071 22 11 20.8807 11 19.5V4.5C11 3.11929 9.88071 2 8.5 2H3.5C2.11929 2 1 3.11929 1 4.5V19.5ZM3.5 20C3.22386 20 3 19.7761 3 19.5L3 4.5C3 4.22386 3.22386 4 3.5 4L8.5 4C8.77614 4 9 4.22386 9 4.5V19.5C9 19.7761 8.77614 20 8.5 20H3.5Z" fill="black"/>
<path fill-rule="evenodd" clip-rule="evenodd" d="M14.5 2C13.1193 2 12 3.11929 12 4.5V19.5C12 20.8807 13.1193 22 14.5 22H19.5C20.8807 22 22 20.8807 22 19.5V4.5C22 3.11929 20.8807 2 19.5 2H14.5ZM14 4.5C14 4.22386 14.2239 4 14.5 4H19.5C19.7761 4 20 4.22386 20 4.5V19.5C20 19.7761 19.7761 20 19.5 20H14.5C14.2239 20 14 19.7761 14 19.5V4.5Z" fill="black"/>
</svg>
