<svg width="24" height="24" viewBox="0 0 24 24" fill="none" xmlns="http://www.w3.org/2000/svg">
<path fill-rule="evenodd" clip-rule="evenodd" d="M15.5278 9.31953C15.5024 7.80991 13.8775 6.87173 12.5574 7.60455L9.44108 9.33452C8.79529 9.69302 8.39967 10.3783 8.41209 11.1168L8.47204 14.6806C8.49744 16.1902 10.1224 17.1284 11.4425 16.3956L14.5588 14.6656C15.2046 14.3071 15.6002 13.6218 15.5878 12.8833L15.5278 9.31953ZM10.4118 11.0831L13.5281 9.35317L13.5881 12.917L10.4718 14.6469L10.4118 11.0831Z" fill="black"/>
<path fill-rule="evenodd" clip-rule="evenodd" d="M12 1C5.92487 1 1 5.92487 1 12C1 18.0751 5.92487 23 12 23C18.0751 23 23 18.0751 23 12C23 5.92487 18.0751 1 12 1ZM3 12C3 7.02944 7.02944 3 12 3C16.9706 3 21 7.02944 21 12C21 16.9706 16.9706 21 12 21C7.02944 21 3 16.9706 3 12Z" fill="black"/>
</svg>
