<svg width="24" height="24" viewBox="0 0 24 24" fill="none" xmlns="http://www.w3.org/2000/svg">
<path fill-rule="evenodd" clip-rule="evenodd" d="M7.55902 1C7.23758 1 6.93573 1.15452 6.74778 1.41529C6.55983 1.67606 6.50869 2.01128 6.61034 2.31623L7.30244 4.39253C7.47238 4.90236 7.55902 5.43626 7.55902 5.97367V9.08871C7.55902 9.63301 7.42047 10.1684 7.15642 10.6443L2.77354 18.5446C1.66424 20.5442 3.11023 23 5.39689 23H18.6035C20.8901 23 22.3361 20.5442 21.2268 18.5447L17.0868 11.082C16.6657 10.323 16.4495 9.46752 16.4594 8.59963L16.4901 5.89554C16.4956 5.40697 16.5728 4.92185 16.719 4.45565L17.3955 2.29934C17.4908 1.99562 17.4358 1.66468 17.2474 1.40811C17.059 1.15154 16.7597 1 16.4414 1H7.55902ZM9.19981 3.76007L8.94645 3H15.0796L14.8107 3.85697C14.606 4.50965 14.498 5.18882 14.4902 5.87282L14.4595 8.57691C14.4457 9.79196 14.7484 10.9897 15.3379 12.0523L19.4779 19.5149C19.8477 20.1814 19.3657 21 18.6035 21H5.39689C4.63467 21 4.15267 20.1814 4.52244 19.5149L8.90532 11.6146C9.17059 11.1364 9.35786 10.6213 9.46209 10.0887H11.0002C11.5525 10.0887 12.0002 9.64099 12.0002 9.08871C12.0002 8.53642 11.5525 8.08871 11.0002 8.08871H9.55902V7H11.0002C11.5525 7 12.0002 6.55228 12.0002 6C12.0002 5.44772 11.5525 5 11.0002 5H9.49098C9.4319 4.57937 9.33456 4.16432 9.19981 3.76007Z" fill="black"/>
</svg>
