<svg width="24" height="24" viewBox="0 0 24 24" fill="none" xmlns="http://www.w3.org/2000/svg">
<path d="M2.79289 17.2071C2.40237 16.8166 2.40237 16.1834 2.79289 15.7929L6.79289 11.7929C7.18342 11.4024 7.81658 11.4024 8.20711 11.7929C8.59763 12.1834 8.59763 12.8166 8.20711 13.2071L5.91421 15.5L7.5 15.5C14.1274 15.5 19.5 10.1274 19.5 3.5C19.5 2.94772 19.9477 2.5 20.5 2.5C21.0523 2.5 21.5 2.94772 21.5 3.5C21.5 11.232 15.232 17.5 7.5 17.5L5.91421 17.5L8.20711 19.7929C8.59763 20.1834 8.59763 20.8166 8.20711 21.2071C7.81658 21.5976 7.18342 21.5976 6.79289 21.2071L2.79289 17.2071Z" fill="black"/>
</svg>
