<svg width="24" height="24" viewBox="0 0 24 24" fill="none" xmlns="http://www.w3.org/2000/svg">
<path d="M21.2071 8.20711C21.5976 7.81658 21.5976 7.18342 21.2071 6.79289L17.2071 2.79289C16.8166 2.40237 16.1834 2.40237 15.7929 2.79289C15.4024 3.18342 15.4024 3.81658 15.7929 4.20711L18.0858 6.5H16.5C8.76801 6.5 2.5 12.768 2.5 20.5C2.5 21.0523 2.94772 21.5 3.5 21.5C4.05229 21.5 4.5 21.0523 4.5 20.5C4.5 13.8726 9.87258 8.5 16.5 8.5H18.0858L15.7929 10.7929C15.4024 11.1834 15.4024 11.8166 15.7929 12.2071C16.1834 12.5976 16.8166 12.5976 17.2071 12.2071L21.2071 8.20711Z" fill="black"/>
</svg>
