<svg width="24" height="24" viewBox="0 0 24 24" fill="none" xmlns="http://www.w3.org/2000/svg">
<path d="M15.7929 2.79289C16.1834 2.40237 16.8166 2.40237 17.2071 2.79289L21.2071 6.79289C21.5976 7.18342 21.5976 7.81658 21.2071 8.20711C20.8166 8.59763 20.1834 8.59763 19.7929 8.20711L17.5 5.91421V7.5C17.5 15.232 11.232 21.5 3.5 21.5C2.94772 21.5 2.5 21.0523 2.5 20.5C2.5 19.9477 2.94772 19.5 3.5 19.5C10.1274 19.5 15.5 14.1274 15.5 7.5V5.91421L13.2071 8.20711C12.8166 8.59763 12.1834 8.59763 11.7929 8.20711C11.4024 7.81658 11.4024 7.18342 11.7929 6.79289L15.7929 2.79289Z" fill="black"/>
</svg>
