<svg width="24" height="24" viewBox="0 0 24 24" fill="none" xmlns="http://www.w3.org/2000/svg">
<path d="M8.20711 21.2071C7.81658 21.5976 7.18342 21.5976 6.79289 21.2071L2.79289 17.2071C2.40237 16.8166 2.40237 16.1834 2.79289 15.7929C3.18342 15.4024 3.81658 15.4024 4.20711 15.7929L6.5 18.0858V16.5C6.5 8.76801 12.768 2.5 20.5 2.5C21.0523 2.5 21.5 2.94772 21.5 3.5C21.5 4.05228 21.0523 4.5 20.5 4.5C13.8726 4.5 8.5 9.87258 8.5 16.5V18.0858L10.7929 15.7929C11.1834 15.4024 11.8166 15.4024 12.2071 15.7929C12.5976 16.1834 12.5976 16.8166 12.2071 17.2071L8.20711 21.2071Z" fill="black"/>
</svg>
