<svg width="24" height="24" viewBox="0 0 24 24" fill="none" xmlns="http://www.w3.org/2000/svg">
<path d="M2.79289 8.20711C2.40237 7.81658 2.40237 7.18342 2.79289 6.79289L6.79289 2.79289C7.18342 2.40237 7.81658 2.40237 8.20711 2.79289C8.59763 3.18342 8.59763 3.81658 8.20711 4.20711L5.91421 6.5H7.5C15.232 6.5 21.5 12.768 21.5 20.5C21.5 21.0523 21.0523 21.5 20.5 21.5C19.9477 21.5 19.5 21.0523 19.5 20.5C19.5 13.8726 14.1274 8.5 7.5 8.5H5.91421L8.20711 10.7929C8.59763 11.1834 8.59763 11.8166 8.20711 12.2071C7.81658 12.5976 7.18342 12.5976 6.79289 12.2071L2.79289 8.20711Z" fill="black"/>
</svg>
