<svg width="24" height="24" viewBox="0 0 24 24" fill="none" xmlns="http://www.w3.org/2000/svg">
<path d="M8.20711 2.79289C7.81658 2.40237 7.18342 2.40237 6.79289 2.79289L2.79289 6.79289C2.40237 7.18342 2.40237 7.81658 2.79289 8.20711C3.18342 8.59763 3.81658 8.59763 4.20711 8.20711L6.5 5.91421V7.5C6.5 15.232 12.768 21.5 20.5 21.5C21.0523 21.5 21.5 21.0523 21.5 20.5C21.5 19.9477 21.0523 19.5 20.5 19.5C13.8726 19.5 8.5 14.1274 8.5 7.5V5.91421L10.7929 8.20711C11.1834 8.59763 11.8166 8.59763 12.2071 8.20711C12.5976 7.81658 12.5976 7.18342 12.2071 6.79289L8.20711 2.79289Z" fill="black"/>
</svg>
