<svg width="24" height="24" viewBox="0 0 24 24" fill="none" xmlns="http://www.w3.org/2000/svg">
<path d="M21.2071 15.7929C21.5976 16.1834 21.5976 16.8166 21.2071 17.2071L17.2071 21.2071C16.8166 21.5976 16.1834 21.5976 15.7929 21.2071C15.4024 20.8166 15.4024 20.1834 15.7929 19.7929L18.0858 17.5L16.5 17.5C8.76801 17.5 2.5 11.232 2.5 3.5C2.5 2.94772 2.94771 2.5 3.5 2.5C4.05228 2.5 4.5 2.94772 4.5 3.5C4.5 10.1274 9.87258 15.5 16.5 15.5L18.0858 15.5L15.7929 13.2071C15.4024 12.8166 15.4024 12.1834 15.7929 11.7929C16.1834 11.4024 16.8166 11.4024 17.2071 11.7929L21.2071 15.7929Z" fill="black"/>
</svg>
