<svg width="24" height="24" viewBox="0 0 24 24" fill="none" xmlns="http://www.w3.org/2000/svg">
<path fill-rule="evenodd" clip-rule="evenodd" d="M3 3.5C2.44772 3.5 2 3.94772 2 4.5V16.5C2 18.7091 3.79086 20.5 6 20.5H14C15.8638 20.5 17.4299 19.2253 17.874 17.5001H18.6826C21.067 17.5001 23 15.5671 23 13.1826V10.8616C23 8.98625 21.5538 7.76532 20.1907 7.32317C19.4945 7.09732 18.7168 7.03175 18 7.2189V4.5C18 3.94772 17.5523 3.5 17 3.5H3ZM18 9.89613V15.5L18.6826 15.5001C19.9625 15.5001 21 14.4625 21 13.1826V10.8616C21 10.1511 20.4363 9.50542 19.5736 9.22558C19.161 9.09175 18.7768 9.08193 18.5006 9.15525C18.246 9.22283 18.1088 9.34729 18.0346 9.51854C18.0196 9.55322 18 9.63715 18 9.89613ZM16 5.5H4V16.5C4 17.6046 4.89543 18.5 6 18.5H14C15.1046 18.5 16 17.6046 16 16.5V5.5Z" fill="black"/>
</svg>
