<svg width="24" height="24" viewBox="0 0 24 24" fill="none" xmlns="http://www.w3.org/2000/svg">
<path fill-rule="evenodd" clip-rule="evenodd" d="M13 6.82929C14.1652 6.41746 15 5.30622 15 4C15 2.34315 13.6569 1 12 1C10.3431 1 9 2.34315 9 4C9 5.30622 9.83481 6.41746 11 6.82929V11H7C4.79086 11 3 12.7909 3 15V17.1707C1.83481 17.5825 1 18.6938 1 20C1 21.6569 2.34315 23 4 23C5.65685 23 7 21.6569 7 20C7 18.6938 6.16519 17.5825 5 17.1707V15C5 13.8954 5.89543 13 7 13H11L11 17.1707C9.83481 17.5825 9 18.6938 9 20C9 21.6569 10.3431 23 12 23C13.6569 23 15 21.6569 15 20C15 18.6938 14.1652 17.5825 13 17.1707L13 13H17C18.1046 13 19 13.8954 19 15V17.1707C17.8348 17.5825 17 18.6938 17 20C17 21.6569 18.3431 23 20 23C21.6569 23 23 21.6569 23 20C23 18.6938 22.1652 17.5825 21 17.1707V15C21 12.7909 19.2091 11 17 11H13V6.82929ZM12 3C12.5523 3 13 3.44772 13 4C13 4.55228 12.5523 5 12 5C11.4477 5 11 4.55228 11 4C11 3.44772 11.4477 3 12 3ZM20 19C19.4477 19 19 19.4477 19 20C19 20.5523 19.4477 21 20 21C20.5523 21 21 20.5523 21 20C21 19.4477 20.5523 19 20 19ZM12 19C12.5523 19 13 19.4477 13 20C13 20.5523 12.5523 21 12 21C11.4477 21 11 20.5523 11 20C11 19.4477 11.4477 19 12 19ZM4 19C4.55228 19 5 19.4477 5 20C5 20.5523 4.55228 21 4 21C3.44772 21 3 20.5523 3 20C3 19.4477 3.44772 19 4 19Z" fill="black"/>
</svg>
