<svg width="24" height="24" viewBox="0 0 24 24" fill="none" xmlns="http://www.w3.org/2000/svg">
<path fill-rule="evenodd" clip-rule="evenodd" d="M1 5.90039C1 3.69126 2.79086 1.90039 5 1.90039H15C17.2091 1.90039 19 3.69125 19 5.90039V7.00043C19 7.05697 18.9953 7.11241 18.9863 7.16639C20.1586 7.57433 21 8.68915 21 10.0005V18.0005C21 19.6573 19.6569 21.0005 18 21.0005H14C12.7238 21.0005 11.6338 20.2036 11.2002 19.0804C11.1355 19.0935 11.0686 19.1004 11 19.1004H6.80001C6.24773 19.1004 5.80001 18.6527 5.80001 18.1004C5.80001 17.5481 6.24773 17.1004 6.80001 17.1004H9.00001V16.7004H5C2.79086 16.7004 1 14.9095 1 12.7004V5.90039ZM11 14.7004V10.0005C11 8.34363 12.3431 7.00049 14 7.00049H17C17 7.00047 17 7.00051 17 7.00049V5.90039C17 4.79582 16.1046 3.90039 15 3.90039H5C3.89543 3.90039 3 4.79582 3 5.90039V12.7004C3 13.805 3.89543 14.7004 5 14.7004H11ZM13 10.0005C13 9.4482 13.4477 9.00049 14 9.00049H14.2707C14.4531 9.19486 14.7124 9.31628 15 9.31628H17C17.2876 9.31628 17.5469 9.19486 17.7293 9.00049H18C18.5523 9.00049 19 9.4482 19 10.0005V18.0005C19 18.5528 18.5523 19.0005 18 19.0005H14C13.4477 19.0005 13 18.5528 13 18.0005V10.0005Z" fill="black"/>
</svg>
