<svg width="24" height="24" viewBox="0 0 24 24" fill="none" xmlns="http://www.w3.org/2000/svg">
<path fill-rule="evenodd" clip-rule="evenodd" d="M7.59771 16.2079C7.16138 16.7123 6.52198 17.0307 5.80948 17.0307L5.05526 17.0307C4.87403 17.0307 4.71822 17.0308 4.57707 17.0167C3.22059 16.8808 2.14738 15.7892 2.01378 14.4094C1.99988 14.2658 1.99994 14.1074 2.00001 13.923V6.57655C1.99994 6.3922 1.99988 6.23374 2.01378 6.09016C2.14738 4.71042 3.22059 3.61881 4.57707 3.48291C4.71823 3.46877 4.87404 3.46884 5.05528 3.46891L5.80948 3.46892C6.5908 3.46892 7.28421 3.85172 7.71834 4.44298L9.69382 3.18706C10.0772 2.94277 10.4166 2.72647 10.8061 2.61284C11.1956 2.49921 11.5961 2.49965 12.0485 2.50016L15.9264 2.50011C16.5149 2.49927 17.0368 2.49852 17.5271 2.68592C18.0174 2.87331 18.4097 3.22341 18.852 3.61819L20.3735 4.97252L20.4827 5.06941C21.0144 5.54105 21.4866 5.95997 21.7444 6.53764C22.0021 7.11531 22.001 7.75268 21.9998 8.47028L21.9997 8.61761L21.9997 9.95116C21.9997 10.7524 21.9998 11.443 21.9309 11.999C21.8573 12.5931 21.692 13.167 21.2637 13.6498C21.1983 13.7235 21.1292 13.7938 21.0567 13.8603C20.5821 14.296 20.0178 14.4641 19.4338 14.5389C18.8871 14.609 18.2082 14.609 17.4205 14.6089L17.2379 14.6089C16.625 14.6089 16.2586 14.6108 16.0049 14.6439L15.9823 14.647L15.9897 14.6689C16.074 14.9145 16.2362 15.2487 16.5103 15.8063L17.2332 17.2768L17.2433 17.2975C17.9387 18.7274 17.3708 20.4601 15.9711 21.1796L15.9508 21.19L15.9363 21.1973C14.9074 21.7164 13.6729 21.5583 12.8026 20.7961L7.59771 16.2079ZM14.0454 19.3279C14.3355 19.582 14.747 19.6347 15.09 19.4617L15.099 19.4571L15.112 19.4505C15.5785 19.2107 15.7678 18.6331 15.536 18.1565L14.7813 16.6211C14.5411 16.1326 14.3212 15.6853 14.1915 15.3078C14.0554 14.9115 13.9429 14.3868 14.1712 13.8453C14.2456 13.6688 14.3454 13.5045 14.4673 13.3579C14.8414 12.9079 15.3532 12.7757 15.7625 12.7223C16.1525 12.6714 16.6441 12.6715 17.1811 12.6715L17.3621 12.6715C18.2248 12.6715 18.7823 12.6697 19.1957 12.6167C19.5852 12.5668 19.7116 12.4854 19.7806 12.422C19.8048 12.3998 19.8278 12.3764 19.8496 12.3518C19.9119 12.2816 19.992 12.153 20.0411 11.7568C20.0932 11.3363 20.095 10.7693 20.095 9.89185V8.61761C20.095 7.66484 20.0751 7.48441 20.0098 7.3382C19.9446 7.19199 19.8242 7.05795 19.1193 6.43055L17.6879 5.15665C17.1026 4.63574 16.9816 4.54708 16.8572 4.49951C16.7327 4.45195 16.5842 4.43762 15.8065 4.43762H12.14C11.5449 4.43762 11.4303 4.44623 11.3312 4.47515C11.2321 4.50407 11.1304 4.55853 10.6258 4.87935L8.19039 6.42756V14.1666L14.0454 19.3279ZM5.80948 15.0933C6.07247 15.0933 6.28566 14.8764 6.28566 14.6089V5.89066C6.28566 5.62316 6.07247 5.40631 5.80948 5.40631H5.09521C4.85144 5.40631 4.79859 5.40749 4.76377 5.41097C4.31161 5.45627 3.95387 5.82014 3.90934 6.28006C3.90591 6.31548 3.90475 6.36923 3.90475 6.61718V13.8824C3.90475 14.1303 3.90591 14.1841 3.90934 14.2195C3.95387 14.6794 4.31161 15.0433 4.76377 15.0886C4.79859 15.0921 4.85144 15.0933 5.09521 15.0933H5.80948Z" fill="black"/>
</svg>
