<svg width="24" height="24" viewBox="0 0 24 24" fill="none" xmlns="http://www.w3.org/2000/svg">
<path d="M10.7675 10.7723C11.2556 10.2842 11.2556 9.49273 10.7675 9.00457C10.2793 8.51642 9.48787 8.51642 8.99972 9.00457C8.51156 9.49273 8.51156 10.2842 8.99972 10.7723C9.48787 11.2605 10.2793 11.2605 10.7675 10.7723Z" fill="black"/>
<path d="M15.0102 13.2473C15.4983 13.7354 15.4983 14.5269 15.0102 15.015C14.522 15.5032 13.7306 15.5032 13.2424 15.015C12.7542 14.5269 12.7542 13.7354 13.2424 13.2473C13.7306 12.7591 14.522 12.7591 15.0102 13.2473Z" fill="black"/>
<path d="M9.17289 13.414C8.78237 13.8045 8.78237 14.4377 9.17289 14.8282C9.56341 15.2188 10.1966 15.2188 10.5871 14.8282L14.8297 10.5856C15.2203 10.1951 15.2203 9.5619 14.8297 9.17138C14.4392 8.78085 13.8061 8.78085 13.4155 9.17138L9.17289 13.414Z" fill="black"/>
<path fill-rule="evenodd" clip-rule="evenodd" d="M14.5031 2.02869C13.1082 0.67924 10.8944 0.67924 9.49952 2.02869C9.14522 2.37144 8.65258 2.53151 8.16448 2.46247C6.24278 2.19066 4.45179 3.49189 4.11646 5.40352C4.03129 5.88907 3.72682 6.30814 3.29136 6.53918C1.5769 7.44883 0.892807 9.55426 1.74515 11.2979C1.96165 11.7408 1.96165 12.2588 1.74515 12.7017C0.892807 14.4453 1.5769 16.5507 3.29136 17.4604C3.72682 17.6914 4.03129 18.1105 4.11646 18.596C4.45179 20.5077 6.24278 21.8089 8.16448 21.5371C8.65258 21.4681 9.14522 21.6281 9.49952 21.9709C10.8944 23.3203 13.1082 23.3203 14.5031 21.9709C14.8574 21.6281 15.3501 21.4681 15.8382 21.5371C17.7599 21.8089 19.5509 20.5077 19.8862 18.596C19.9714 18.1105 20.2758 17.6914 20.7113 17.4604C22.4258 16.5507 23.1099 14.4453 22.2575 12.7017C22.041 12.2588 22.041 11.7408 22.2575 11.2979C23.1099 9.55426 22.4258 7.44883 20.7113 6.53918C20.2758 6.30814 19.9714 5.88907 19.8862 5.40352C19.5509 3.49189 17.7599 2.19066 15.8382 2.46247C15.3501 2.53151 14.8574 2.37144 14.5031 2.02869ZM10.8901 3.46614C11.5097 2.86676 12.493 2.86676 13.1126 3.46614C13.9102 4.23781 15.0194 4.59819 16.1183 4.44276C16.9718 4.32203 17.7673 4.89999 17.9163 5.74908C18.108 6.84224 18.7935 7.78573 19.7739 8.30591C20.5354 8.70994 20.8393 9.64511 20.4607 10.4196C19.9733 11.4167 19.9733 12.5829 20.4607 13.58C20.8393 14.3545 20.5354 15.2896 19.7739 15.6937C18.7935 16.2138 18.108 17.1573 17.9163 18.2505C17.7673 19.0996 16.9718 19.6775 16.1183 19.5568C15.0194 19.4014 13.9102 19.7618 13.1126 20.5334C12.493 21.1328 11.5097 21.1328 10.8901 20.5334C10.0924 19.7618 8.98329 19.4014 7.88438 19.5568C7.03082 19.6775 6.23533 19.0996 6.08638 18.2505C5.89463 17.1573 5.20914 16.2138 4.22874 15.6937C3.46723 15.2896 3.16338 14.3545 3.54197 13.58C4.02937 12.5829 4.02937 11.4167 3.54197 10.4196C3.16338 9.64511 3.46723 8.70994 4.22874 8.30591C5.20914 7.78573 5.89463 6.84224 6.08638 5.74908C6.23533 4.89999 7.03082 4.32203 7.88438 4.44276C8.98329 4.59819 10.0924 4.23781 10.8901 3.46614Z" fill="black"/>
</svg>
