<svg width="24" height="24" viewBox="0 0 24 24" fill="none" xmlns="http://www.w3.org/2000/svg">
<path fill-rule="evenodd" clip-rule="evenodd" d="M13 2C13 1.44772 12.5523 1 12 1C11.4477 1 11 1.44772 11 2V3C8.23858 3 6 5.23858 6 8C6 10.7614 8.23858 13 11 13V19C9.34315 19 8 17.6569 8 16C8 15.4477 7.55228 15 7 15C6.44772 15 6 15.4477 6 16C6 18.7614 8.23858 21 11 21V22C11 22.5523 11.4477 23 12 23C12.5523 23 13 22.5523 13 22V21C15.7614 21 18 18.7614 18 16C18 13.2386 15.7614 11 13 11V5C14.6569 5 16 6.34315 16 8C16 8.55228 16.4477 9 17 9C17.5523 9 18 8.55228 18 8C18 5.23858 15.7614 3 13 3V2ZM11 5C9.34315 5 8 6.34315 8 8C8 9.65685 9.34315 11 11 11V5ZM13 13V19C14.6569 19 16 17.6569 16 16C16 14.3431 14.6569 13 13 13Z" fill="black"/>
</svg>
