<svg width="24" height="24" viewBox="0 0 24 24" fill="none" xmlns="http://www.w3.org/2000/svg">
<path fill-rule="evenodd" clip-rule="evenodd" d="M4 11.5C2.61929 11.5 1.5 10.3807 1.5 9L1.5 4C1.5 2.61929 2.61929 1.5 4 1.5H9C10.3807 1.5 11.5 2.61929 11.5 4V9C11.5 10.3807 10.3807 11.5 9 11.5H4ZM3.5 9C3.5 9.27614 3.72386 9.5 4 9.5L9 9.5C9.27614 9.5 9.5 9.27614 9.5 9V4C9.5 3.72386 9.27614 3.5 9 3.5L4 3.5C3.72386 3.5 3.5 3.72386 3.5 4L3.5 9Z" fill="black"/>
<path fill-rule="evenodd" clip-rule="evenodd" d="M7.67604 13.1942C6.75039 12.2686 5.24961 12.2686 4.32396 13.1942L1.69424 15.824C0.768587 16.7496 0.768588 18.2504 1.69424 19.176L4.32396 21.8058C5.24961 22.7314 6.75039 22.7314 7.67604 21.8058L10.3058 19.176C11.2314 18.2504 11.2314 16.7496 10.3058 15.824L7.67604 13.1942ZM5.73818 14.6085C5.88278 14.4639 6.11722 14.4639 6.26182 14.6085L8.89155 17.2382C9.03615 17.3828 9.03615 17.6172 8.89155 17.7618L6.26182 20.3915C6.11722 20.5361 5.88278 20.5361 5.73818 20.3916L3.10845 17.7618C2.96385 17.6172 2.96385 17.3828 3.10845 17.2382L5.73818 14.6085Z" fill="black"/>
<path fill-rule="evenodd" clip-rule="evenodd" d="M12.5 20C12.5 21.3807 13.6193 22.5 15 22.5H20C21.3807 22.5 22.5 21.3807 22.5 20V15C22.5 13.6193 21.3807 12.5 20 12.5H15C13.6193 12.5 12.5 13.6193 12.5 15V20ZM15 20.5C14.7239 20.5 14.5 20.2761 14.5 20V15C14.5 14.7239 14.7239 14.5 15 14.5H20C20.2761 14.5 20.5 14.7239 20.5 15V20C20.5 20.2761 20.2761 20.5 20 20.5H15Z" fill="black"/>
<path fill-rule="evenodd" clip-rule="evenodd" d="M12.5 6.5C12.5 9.26142 14.7386 11.5 17.5 11.5C20.2614 11.5 22.5 9.26142 22.5 6.5C22.5 3.73858 20.2614 1.5 17.5 1.5C14.7386 1.5 12.5 3.73858 12.5 6.5ZM17.5 3.5C19.1569 3.5 20.5 4.84315 20.5 6.5C20.5 8.15685 19.1569 9.5 17.5 9.5C15.8431 9.5 14.5 8.15685 14.5 6.5C14.5 4.84315 15.8431 3.5 17.5 3.5Z" fill="black"/>
</svg>
