<svg width="24" height="24" viewBox="0 0 24 24" fill="none" xmlns="http://www.w3.org/2000/svg">
<path d="M8.70001 8C9.52844 8 10.2 8.67157 10.2 9.5C10.2 10.3284 9.52844 11 8.70001 11C7.87158 11 7.20001 10.3284 7.20001 9.5C7.20001 8.67157 7.87158 8 8.70001 8Z" fill="black"/>
<path d="M16.8 9.5C16.8 8.67157 16.1284 8 15.3 8C14.4716 8 13.8 8.67157 13.8 9.5C13.8 10.3284 14.4716 11 15.3 11C16.1284 11 16.8 10.3284 16.8 9.5Z" fill="black"/>
<path d="M10.7071 15.2929C10.3166 14.9024 9.68342 14.9024 9.29289 15.2929C8.90237 15.6834 8.90237 16.3166 9.29289 16.7071C10.788 18.2022 13.212 18.2022 14.7071 16.7071C15.0976 16.3166 15.0976 15.6834 14.7071 15.2929C14.3166 14.9024 13.6834 14.9024 13.2929 15.2929C12.5788 16.0069 11.4212 16.0069 10.7071 15.2929Z" fill="black"/>
<path fill-rule="evenodd" clip-rule="evenodd" d="M12 2C6.47715 2 2 6.47715 2 12C2 17.5228 6.47715 22 12 22C17.5228 22 22 17.5228 22 12C22 6.47715 17.5228 2 12 2ZM4 12C4 7.58172 7.58172 4 12 4C16.4183 4 20 7.58172 20 12C20 16.4183 16.4183 20 12 20C7.58172 20 4 16.4183 4 12Z" fill="black"/>
</svg>
