<svg width="24" height="24" viewBox="0 0 24 24" fill="none" xmlns="http://www.w3.org/2000/svg">
<path fill-rule="evenodd" clip-rule="evenodd" d="M18.5165 11.1786L12.412 12.9227C12.1427 12.9997 11.8572 12.9997 11.5878 12.9227L5.48334 11.1786C4.4257 10.8764 4.04222 9.57638 4.76656 8.74857L10.871 1.77201C11.4687 1.08902 12.5312 1.08902 13.1288 1.77201L19.2333 8.74857C19.9576 9.57638 19.5741 10.8764 18.5165 11.1786ZM6.79094 9.47218L11.9999 10.9605L17.2089 9.47218L11.9999 3.51906L6.79094 9.47218Z" fill="black"/>
<path fill-rule="evenodd" clip-rule="evenodd" d="M13.2075 22.0474C12.608 22.861 11.3918 22.861 10.7923 22.0474L5.06436 14.2737C4.21554 13.1217 5.30815 11.5485 6.68403 11.9416L11.9999 13.4605L17.3158 11.9416C18.6917 11.5485 19.7843 13.1217 18.9355 14.2737L13.2075 22.0474ZM7.54398 14.2674L11.9999 20.3147L16.4558 14.2674L12.412 15.4227C12.1427 15.4997 11.8572 15.4997 11.5878 15.4227L7.54398 14.2674Z" fill="black"/>
</svg>
