<svg width="24" height="24" viewBox="0 0 24 24" fill="none" xmlns="http://www.w3.org/2000/svg">
<path d="M6 2C3.79086 2 2 3.79086 2 6V8C2 8.55228 2.44772 9 3 9C3.55228 9 4 8.55228 4 8V6C4 4.89543 4.89543 4 6 4H8C8.55228 4 9 3.55228 9 3C9 2.44772 8.55228 2 8 2H6Z" fill="black"/>
<path d="M18 2C20.2091 2 22 3.79086 22 6V8C22 8.55228 21.5523 9 21 9C20.4477 9 20 8.55228 20 8V6C20 4.89543 19.1046 4 18 4H16C15.4477 4 15 3.55228 15 3C15 2.44772 15.4477 2 16 2H18Z" fill="black"/>
<path d="M2 18C2 20.2091 3.79086 22 6 22H8C8.55228 22 9 21.5523 9 21C9 20.4477 8.55228 20 8 20H6C4.89543 20 4 19.1046 4 18V16C4 15.4477 3.55228 15 3 15C2.44772 15 2 15.4477 2 16V18Z" fill="black"/>
<path d="M18 22C20.2091 22 22 20.2091 22 18V16C22 15.4477 21.5523 15 21 15C20.4477 15 20 15.4477 20 16V18C20 19.1046 19.1046 20 18 20H16C15.4477 20 15 20.4477 15 21C15 21.5523 15.4477 22 16 22H18Z" fill="black"/>
</svg>
