<svg width="24" height="24" viewBox="0 0 24 24" fill="none" xmlns="http://www.w3.org/2000/svg">
<path d="M6 2C3.79086 2 2 3.79086 2 6V8C2 8.55228 2.44772 9 3 9C3.55228 9 4 8.55228 4 8V6C4 4.89543 4.89543 4 6 4H8C8.55228 4 9 3.55228 9 3C9 2.44772 8.55228 2 8 2H6Z" fill="black"/>
<path d="M18 2C20.2091 2 22 3.79086 22 6V8C22 8.55228 21.5523 9 21 9C20.4477 9 20 8.55228 20 8V6C20 4.89543 19.1046 4 18 4H16C15.4477 4 15 3.55228 15 3C15 2.44772 15.4477 2 16 2H18Z" fill="black"/>
<path d="M2 18C2 20.2091 3.79086 22 6 22H8C8.55228 22 9 21.5523 9 21C9 20.4477 8.55228 20 8 20H6C4.89543 20 4 19.1046 4 18V16C4 15.4477 3.55228 15 3 15C2.44772 15 2 15.4477 2 16V18Z" fill="black"/>
<path d="M18 22C20.2091 22 22 20.2091 22 18V16C22 15.4477 21.5523 15 21 15C20.4477 15 20 15.4477 20 16V18C20 19.1046 19.1046 20 18 20H16C15.4477 20 15 20.4477 15 21C15 21.5523 15.4477 22 16 22H18Z" fill="black"/>
<path d="M6.75 8.25C6.75 8.94036 7.30964 9.5 8 9.5C8.69036 9.5 9.25 8.94036 9.25 8.25C9.25 7.55964 8.69036 7 8 7C7.30964 7 6.75 7.55964 6.75 8.25Z" fill="black"/>
<path d="M16 9.5C15.3096 9.5 14.75 8.94036 14.75 8.25C14.75 7.55964 15.3096 7 16 7C16.6904 7 17.25 7.55964 17.25 8.25C17.25 8.94036 16.6904 9.5 16 9.5Z" fill="black"/>
<path d="M9.10557 15.5528C9.35256 15.0588 9.95324 14.8586 10.4472 15.1056C11.4247 15.5943 12.5753 15.5943 13.5528 15.1056C14.0468 14.8586 14.6474 15.0588 14.8944 15.5528C15.1414 16.0468 14.9412 16.6474 14.4472 16.8944C12.9067 17.6647 11.0933 17.6647 9.55279 16.8944C9.05881 16.6474 8.85858 16.0468 9.10557 15.5528Z" fill="black"/>
<path d="M12.8944 10.0528C12.6474 9.55881 12.0468 9.35858 11.5528 9.60557C11.0588 9.85256 10.8586 10.4532 11.1056 10.9472L11.6328 12.0017C11.5483 12.1484 11.5 12.3186 11.5 12.5C11.5 13.0523 11.9477 13.5 12.5 13.5H12.6764C13.5685 13.5 14.1486 12.5612 13.7497 11.7633L12.8944 10.0528Z" fill="black"/>
</svg>
