<svg width="24" height="24" viewBox="0 0 24 24" fill="none" xmlns="http://www.w3.org/2000/svg">
<path fill-rule="evenodd" clip-rule="evenodd" d="M21.9959 2.90947C21.9479 2.38119 21.4957 1.98232 20.9655 2.0006C14.7819 2.21383 10.4801 5.47336 7.65271 9.37579C4.84288 13.254 3.44474 17.8158 3.01005 20.8586C2.93615 21.3759 3.27298 21.8628 3.78307 21.9762C4.29316 22.0896 4.80453 21.7911 4.95667 21.2912C5.04091 21.0144 5.12648 20.7255 5.21454 20.4281C5.7636 18.5742 6.40944 16.3936 7.42942 14.8021C8.0102 13.8959 8.64049 13.3028 9.32715 13.0432C9.97652 12.7976 10.8411 12.7886 12.0528 13.3944C13.2703 14.0032 14.7745 13.5774 15.6 12.5226C16.2239 11.7253 16.4133 10.6795 16.088 9.53411C17.2777 9.5075 18.5452 9.33348 19.6058 8.75182C20.4336 8.2979 21.1265 7.60354 21.5591 6.59852C21.9833 5.6131 22.1307 4.39213 21.9959 2.90947ZM12.9472 11.6056C11.4744 10.8692 10.1187 10.7076 8.90304 11.076C9.0231 10.899 9.14617 10.7233 9.27229 10.5492C11.6771 7.23002 15.1526 4.54006 20.0431 4.06436C20.0298 4.82008 19.9041 5.38506 19.7221 5.80775C19.4777 6.37565 19.1081 6.74379 18.6442 6.9982C17.6349 7.55167 16.1643 7.58622 14.5526 7.50139C14.1748 7.48151 13.8182 7.67645 13.631 8.00514C13.4439 8.33382 13.4581 8.73999 13.668 9.05471C14.5044 10.3093 14.2461 11.0075 14.025 11.29C13.7255 11.6726 13.2297 11.7468 12.9472 11.6056Z" fill="black"/>
<path d="M5 3.00001C5 2.44773 4.55229 2.00001 4 2.00001C3.44772 2.00001 3 2.44773 3 3.00001V4.00001H2C1.44772 4.00001 1 4.44773 1 5.00001C1 5.55229 1.44772 6.00001 2 6.00001H3V7.00001C3 7.55229 3.44772 8.00001 4 8.00001C4.55229 8.00001 5 7.55229 5 7.00001V6.00001H6C6.55229 6.00001 7 5.55229 7 5.00001C7 4.44773 6.55229 4.00001 6 4.00001H5V3.00001Z" fill="black"/>
</svg>
