<svg width="24" height="24" viewBox="0 0 24 24" fill="none" xmlns="http://www.w3.org/2000/svg">
<path fill-rule="evenodd" clip-rule="evenodd" d="M21.996 2.90947C21.948 2.38119 21.4958 1.98232 20.9656 2.0006C14.782 2.21383 10.4802 5.47336 7.65281 9.37579C4.84298 13.254 3.44484 17.8158 3.01015 20.8586C2.93625 21.3759 3.27308 21.8628 3.78317 21.9762C4.29326 22.0896 4.80463 21.7911 4.95678 21.2912C5.04103 21.0143 5.12663 20.7253 5.21472 20.4279C5.76378 18.574 6.40954 16.3936 7.42952 14.8021C8.0103 13.8959 8.64059 13.3028 9.32725 13.0432C9.97662 12.7976 10.8412 12.7886 12.0529 13.3944C13.2704 14.0032 14.7746 13.5774 15.6001 12.5226C16.224 11.7253 16.4134 10.6795 16.0881 9.53411C17.2778 9.5075 18.5453 9.33348 19.6059 8.75182C20.4337 8.2979 21.1266 7.60354 21.5592 6.59852C21.9834 5.6131 22.1308 4.39213 21.996 2.90947ZM12.9473 11.6056C11.4745 10.8692 10.1188 10.7076 8.90314 11.076C9.0232 10.899 9.14627 10.7233 9.2724 10.5492C11.6772 7.23002 15.1527 4.54006 20.0432 4.06436C20.0299 4.82008 19.9042 5.38506 19.7222 5.80775C19.4778 6.37565 19.1082 6.74379 18.6443 6.9982C17.635 7.55167 16.1644 7.58622 14.5527 7.50139C14.1749 7.48151 13.8183 7.67645 13.6311 8.00514C13.444 8.33382 13.4582 8.73999 13.6681 9.05471C14.5045 10.3093 14.2462 11.0075 14.0251 11.29C13.7256 11.6726 13.2298 11.7468 12.9473 11.6056Z" fill="black"/>
</svg>
