<svg width="24" height="24" viewBox="0 0 24 24" fill="none" xmlns="http://www.w3.org/2000/svg">
<path fill-rule="evenodd" clip-rule="evenodd" d="M20.9664 2.0006C21.4965 1.98232 21.9487 2.38119 21.9967 2.90947C22.1315 4.39213 21.9842 5.6131 21.56 6.59852C21.1274 7.60354 20.4344 8.2979 19.6067 8.75182C18.546 9.33348 17.2786 9.5075 16.0889 9.53411C16.4141 10.6795 16.2248 11.7253 15.6009 12.5226C14.7753 13.5774 13.2712 14.0032 12.0536 13.3944C10.8419 12.7886 9.97737 12.7976 9.328 13.0432C8.64134 13.3028 8.01105 13.8959 7.43027 14.8021C6.41029 16.3936 5.76453 18.574 5.21547 20.4279C5.12741 20.7252 5.04175 21.0144 4.95753 21.2912C4.80538 21.7911 4.29402 22.0896 3.78392 21.9762C3.27383 21.8628 2.93701 21.3759 3.0109 20.8586C3.44559 17.8158 4.84373 13.254 7.65356 9.37579C10.481 5.47336 14.7828 2.21383 20.9664 2.0006ZM8.90389 11.076C10.1195 10.7076 11.4753 10.8692 12.9481 11.6056C13.2305 11.7468 13.7264 11.6726 14.0258 11.29C14.2469 11.0075 14.5052 10.3093 13.6688 9.05471C13.459 8.73999 13.4447 8.33382 13.6319 8.00514C13.8191 7.67645 14.1757 7.48151 14.5534 7.50139C16.1652 7.58622 17.6358 7.55167 18.645 6.9982C19.1089 6.74379 19.4785 6.37565 19.723 5.80775C19.9049 5.38506 20.0307 4.82008 20.044 4.06436C15.1535 4.54006 11.678 7.23002 9.27315 10.5492C9.14702 10.7233 9.02395 10.899 8.90389 11.076Z" fill="black"/>
<path d="M3.61272 6.64975C3.45236 6.16867 3.07485 5.79116 2.59377 5.6308C2.10416 5.4676 2.10416 4.77506 2.59377 4.61186C3.07485 4.4515 3.45236 4.07399 3.61272 3.59291C3.77592 3.1033 4.46846 3.1033 4.63166 3.59291C4.79203 4.07399 5.16953 4.4515 5.65061 4.61186C6.14022 4.77506 6.14022 5.4676 5.65061 5.6308C5.16953 5.79116 4.79203 6.16867 4.63166 6.64975C4.46846 7.13936 3.77592 7.13936 3.61272 6.64975Z" fill="black"/>
<path d="M12.5937 18.6308C13.0748 18.7912 13.4523 19.1687 13.6127 19.6497C13.7759 20.1394 14.4684 20.1394 14.6316 19.6497C14.792 19.1687 15.1695 18.7912 15.6506 18.6308C16.1402 18.4676 16.1402 17.7751 15.6506 17.6119C15.1695 17.4515 14.792 17.074 14.6316 16.5929C14.4684 16.1033 13.7759 16.1033 13.6127 16.5929C13.4523 17.074 13.0748 17.4515 12.5937 17.6119C12.1041 17.7751 12.1041 18.4676 12.5937 18.6308Z" fill="black"/>
</svg>
