<svg width="24" height="24" viewBox="0 0 24 24" fill="none" xmlns="http://www.w3.org/2000/svg">
<path fill-rule="evenodd" clip-rule="evenodd" d="M3 5C3 2.79086 4.79086 1 7 1H13.5949C14.782 1 15.9078 1.52729 16.6678 2.43926L20.0729 6.52541C20.6719 7.24427 21 8.1504 21 9.08615V19C21 21.2091 19.2091 23 17 23H10C9.44772 23 9 22.5523 9 22C9 21.4477 9.44772 21 10 21H17C18.1046 21 19 20.1046 19 19V10H17C14.7909 10 13 8.20914 13 6V3H7C5.89543 3 5 3.89543 5 5V14C5 14.5523 4.55228 15 4 15C3.44772 15 3 14.5523 3 14V5ZM18.5364 7.80578C18.5882 7.86786 18.6359 7.93274 18.6794 8H17C15.8954 8 15 7.10457 15 6V3.57674C15.0458 3.622 15.0897 3.66966 15.1313 3.71963L18.5364 7.80578Z" fill="black"/>
<path fill-rule="evenodd" clip-rule="evenodd" d="M4.85 16C3.3373 16 2.06365 17.1338 1.91457 18.6195C1.36017 19.0694 1 19.7537 1 20.5294C1 21.9125 2.13805 23 3.5 23H6.2C7.72764 23 9 21.7808 9 20.2353C9 19.2002 8.42703 18.3101 7.59224 17.8365C7.15611 16.7524 6.0847 16 4.85 16ZM3.9 18.9118C3.9 18.4268 4.30657 18 4.85 18C5.32895 18 5.70661 18.3354 5.78458 18.7464C5.85263 19.105 6.11069 19.3981 6.45783 19.5109C6.78489 19.6173 7 19.9115 7 20.2353C7 20.6391 6.66059 21 6.2 21H3.5C3.2051 21 3 20.7707 3 20.5294C3 20.3474 3.11284 20.1751 3.29985 20.0978C3.72125 19.9238 3.97159 19.4868 3.90852 19.0352C3.90294 18.9953 3.9 18.9541 3.9 18.9118Z" fill="black"/>
</svg>
