<svg width="24" height="24" viewBox="0 0 24 24" fill="none" xmlns="http://www.w3.org/2000/svg">
<path fill-rule="evenodd" clip-rule="evenodd" d="M7 1C4.79086 1 3 2.79086 3 5V19C3 21.2091 4.79086 23 7 23H17C19.2091 23 21 21.2091 21 19V9.08615C21 8.1504 20.6719 7.24427 20.0729 6.52541L16.6678 2.43926C15.9078 1.52729 14.782 1 13.5949 1H7ZM5 5C5 3.89543 5.89543 3 7 3H13V6C13 8.20914 14.7909 10 17 10H19V19C19 20.1046 18.1046 21 17 21H7C5.89543 21 5 20.1046 5 19V5ZM18.6794 8C18.6359 7.93274 18.5882 7.86786 18.5364 7.80578L15.1313 3.71963C15.0897 3.66966 15.0458 3.622 15 3.57674V6C15 7.10457 15.8954 8 17 8H18.6794Z" fill="black"/>
</svg>
