<svg width="24" height="24" viewBox="0 0 24 24" fill="none" xmlns="http://www.w3.org/2000/svg">
<path fill-rule="evenodd" clip-rule="evenodd" d="M7 1C4.79086 1 3 2.79086 3 5V14C3 14.5523 3.44772 15 4 15C4.55228 15 5 14.5523 5 14V5C5 3.89543 5.89543 3 7 3H13V6C13 8.20914 14.7909 10 17 10H19V19C19 20.1046 18.1046 21 17 21H10C9.44772 21 9 21.4477 9 22C9 22.5523 9.44772 23 10 23H17C19.2091 23 21 21.2091 21 19V9.08615C21 8.1504 20.6719 7.24427 20.0729 6.52541L16.6678 2.43926C15.9078 1.52729 14.782 1 13.5949 1H7ZM18.6794 8C18.6359 7.93274 18.5882 7.86786 18.5364 7.80578L15.1313 3.71963C15.0897 3.66966 15.0458 3.622 15 3.57674V6C15 7.10457 15.8954 8 17 8H18.6794Z" fill="black"/>
<path d="M4.70711 16.2929C5.09763 16.6834 5.09763 17.3166 4.70711 17.7071L3.41421 19L4.70711 20.2929C5.09763 20.6834 5.09763 21.3166 4.70711 21.7071C4.31658 22.0976 3.68342 22.0976 3.29289 21.7071L1.29289 19.7071C1.10536 19.5196 1 19.2652 1 19C1 18.7348 1.10536 18.4804 1.29289 18.2929L3.29289 16.2929C3.68342 15.9024 4.31658 15.9024 4.70711 16.2929Z" fill="black"/>
<path d="M6.29289 17.7071C5.90237 17.3166 5.90237 16.6834 6.29289 16.2929C6.68342 15.9024 7.31658 15.9024 7.70711 16.2929L9.70711 18.2929C9.89464 18.4804 10 18.7348 10 19C10 19.2652 9.89464 19.5196 9.70711 19.7071L7.70711 21.7071C7.31658 22.0976 6.68342 22.0976 6.29289 21.7071C5.90237 21.3166 5.90237 20.6834 6.29289 20.2929L7.58579 19L6.29289 17.7071Z" fill="black"/>
</svg>
