<svg width="24" height="24" viewBox="0 0 24 24" fill="none" xmlns="http://www.w3.org/2000/svg">
<path fill-rule="evenodd" clip-rule="evenodd" d="M5.28098 2C3.46895 2 2 3.46895 2 5.28098C2 5.95415 2.20706 6.61103 2.5931 7.1625L8.63846 15.7987C8.87378 16.1349 9 16.5353 9 16.9457V19.1568C9 21.2065 11.157 22.5396 12.9902 21.6229C14.2219 21.0071 15 19.7481 15 18.371V16.9457C15 16.5353 15.1262 16.1349 15.3615 15.7987L21.4069 7.1625C21.7929 6.61102 22 5.95415 22 5.28098C22 3.46895 20.5311 2 18.719 2H5.28098ZM13 18.371C13 18.9906 12.6499 19.557 12.0958 19.8341C11.5923 20.0858 11 19.7197 11 19.1568V16.9457C11 16.125 10.7476 15.3242 10.2769 14.6518L4.23156 6.01558C4.08084 5.80027 4 5.5438 4 5.28098C4 4.57352 4.57352 4 5.28098 4H18.719C19.4265 4 20 4.57352 20 5.28098C20 5.54381 19.9192 5.80027 19.7684 6.01558L13.7231 14.6518C13.2524 15.3242 13 16.125 13 16.9457V18.371Z" fill="black"/>
</svg>
