<svg width="24" height="24" viewBox="0 0 24 24" fill="none" xmlns="http://www.w3.org/2000/svg">
<path fill-rule="evenodd" clip-rule="evenodd" d="M5.60484 1.58141C5.97183 1.42354 6.39756 1.49925 6.68762 1.77395L6.69026 1.77644L6.70079 1.78635L6.74445 1.82712C6.78316 1.86312 6.84042 1.91599 6.91276 1.98175C7.05768 2.1135 7.26184 2.29582 7.49778 2.49721C7.98149 2.91009 8.55507 3.36532 9.01662 3.64381C10.5238 4.55318 12.9009 4.81389 15.0652 4.79804C16.118 4.79033 17.0673 4.7184 17.7536 4.64821C18.0961 4.61318 18.3715 4.57875 18.5596 4.55334C18.6536 4.54064 18.7257 4.5302 18.7734 4.5231L18.8262 4.51508L18.8382 4.51319L18.8403 4.51286C19.1921 4.45605 19.5479 4.59071 19.7737 4.86642C19.9995 5.14221 20.0615 5.51737 19.9363 5.85115L18.6097 9.38878L20.848 12.97C21.0225 13.2492 21.0484 13.5964 20.9172 13.8984C20.7861 14.2004 20.5147 14.4184 20.1916 14.4815C14.9234 15.5098 11.7376 14.7997 7 13.5398V21.5C7 22.0523 6.55228 22.5 6 22.5C5.44772 22.5 5 22.0523 5 21.5V2.50002C5 2.10049 5.23782 1.73929 5.60484 1.58141ZM15.0799 6.79799C15.9864 6.79135 16.8178 6.74055 17.4887 6.68215L16.5637 9.1489C16.4544 9.44035 16.487 9.76607 16.652 10.03L18.3603 12.7634C14.2277 13.3458 11.4805 12.6668 7 11.4697V4.67074C7.32259 4.91957 7.66236 5.16254 7.98338 5.35624C10.003 6.57484 12.8759 6.81413 15.0799 6.79799Z" fill="black"/>
</svg>
