<svg width="24" height="24" viewBox="0 0 24 24" fill="none" xmlns="http://www.w3.org/2000/svg">
<path d="M12 21.3333C14.1333 21.2222 18.72 20 20 16C13.6 16 12 19.5556 12 21.3333Z" stroke="black" stroke-width="2" stroke-linecap="round" stroke-linejoin="round"/>
<path d="M12 21.3333C9.86667 21.2222 5.28 20 4 16C10.4 16 12 19.5556 12 21.3333Z" stroke="black" stroke-width="2" stroke-linecap="round" stroke-linejoin="round"/>
<path d="M12 21.3337V13.3337M12 13.3337C14.9455 13.3337 17.3333 10.9458 17.3333 8.00033V5.4549C17.3333 5.37438 17.3432 5.29416 17.3627 5.21604L17.9002 3.06633C17.9406 2.90441 17.7764 2.76267 17.6212 2.82416C16.7097 3.18533 14.2989 4.04066 12 4.00033C9.86937 3.96295 7.29384 3.12668 6.36003 2.79798C6.20728 2.74421 6.05405 2.88321 6.09333 3.04031L6.63724 5.21604C6.65677 5.29416 6.66665 5.37437 6.66665 5.4549V8.00033C6.66665 10.9458 9.05446 13.3337 12 13.3337Z" stroke="black" stroke-width="2" stroke-linecap="round"/>
</svg>
