<svg width="24" height="24" viewBox="0 0 24 24" fill="none" xmlns="http://www.w3.org/2000/svg">
<path d="M2 6.56692C2 4.59696 3.59696 3 5.56692 3H8.11436C8.68354 3 9.18934 3.29472 9.52848 3.53158C9.9043 3.79405 10.277 4.13287 10.6098 4.46035C10.9235 4.76909 11.2285 5.0947 11.4897 5.37363L11.5447 5.43229C11.8265 5.73301 12.0298 5.94676 12.1691 6.07132C12.1765 6.07653 12.1887 6.0848 12.2057 6.09557C12.243 6.11913 12.29 6.14614 12.3384 6.17076C12.3617 6.18266 12.3822 6.19236 12.3992 6.2H18.0014C20.2111 6.2 22 7.99145 22 10.2V12.5C22 13.0523 21.5523 13.5 21 13.5C20.4477 13.5 20 13.0523 20 12.5V10.2C20 9.09484 19.1053 8.2 18.0014 8.2H12.2847C12.0606 8.2 11.8655 8.13573 11.7688 8.10103C11.648 8.05773 11.5311 8.00406 11.4305 7.95285C11.2499 7.86084 11.0195 7.72409 10.8579 7.58162C10.6304 7.38114 10.3502 7.08258 10.0853 6.79984L10.0357 6.74694C9.76928 6.46251 9.49043 6.16484 9.20694 5.88585C8.9026 5.58635 8.62291 5.33861 8.38332 5.17128C8.21433 5.05326 8.12153 5.01554 8.09324 5.00403C8.088 5.00191 8.08497 5.00067 8.08408 5H5.56692C4.70153 5 4 5.70153 4 6.56692V17C4 18.1046 4.89543 19 6 19H14.5C15.0523 19 15.5 19.4477 15.5 20C15.5 20.5523 15.0523 21 14.5 21H6C3.79086 21 2 19.2091 2 17V6.56692Z" fill="black"/>
<path d="M22.7474 17.1644L21.4141 18.6644C21.0472 19.0771 20.4151 19.1143 20.0023 18.7474C19.6412 18.4264 19.5675 17.9025 19.8004 17.5H17C16.4477 17.5 16 17.0523 16 16.5C16 15.9477 16.4477 15.5 17 15.5H19.8004C19.5675 15.0975 19.6412 14.5736 20.0023 14.2526C20.4151 13.8857 21.0472 13.9229 21.4141 14.3356L22.7474 15.8356C23.0842 16.2145 23.0842 16.7855 22.7474 17.1644Z" fill="black"/>
<path d="M16.2526 21.1644C15.9158 20.7855 15.9158 20.2145 16.2526 19.8356L17.5859 18.3356C17.9528 17.9229 18.5849 17.8857 18.9977 18.2526C19.3588 18.5736 19.4325 19.0975 19.1996 19.5H22C22.5523 19.5 23 19.9477 23 20.5C23 21.0523 22.5523 21.5 22 21.5H19.1996C19.4325 21.9025 19.3588 22.4264 18.9977 22.7474C18.5849 23.1143 17.9528 23.0771 17.5859 22.6644L16.2526 21.1644Z" fill="black"/>
</svg>
