<svg width="24" height="24" viewBox="0 0 24 24" fill="none" xmlns="http://www.w3.org/2000/svg">
<path d="M2 6.56692C2 4.59696 3.59696 3 5.56692 3H8.11436C8.68354 3 9.18934 3.29472 9.52848 3.53158C9.9043 3.79405 10.277 4.13287 10.6098 4.46035C10.9235 4.76909 11.2285 5.0947 11.4897 5.37363L11.5447 5.43229C11.8265 5.73301 12.0298 5.94676 12.1691 6.07132C12.1765 6.07653 12.1887 6.0848 12.2057 6.09557C12.243 6.11913 12.29 6.14614 12.3384 6.17076C12.3617 6.18266 12.3822 6.19236 12.3992 6.2H18.0014C20.2111 6.2 22 7.99145 22 10.2V12.5C22 13.0523 21.5523 13.5 21 13.5C20.4477 13.5 20 13.0523 20 12.5V10.2C20 9.09484 19.1053 8.2 18.0014 8.2H12.2847C12.0606 8.2 11.8655 8.13573 11.7688 8.10103C11.648 8.05773 11.5311 8.00406 11.4305 7.95285C11.2499 7.86084 11.0195 7.72409 10.8579 7.58162C10.6304 7.38114 10.3502 7.08258 10.0853 6.79984L10.0357 6.74694C9.76928 6.46251 9.49043 6.16484 9.20694 5.88585C8.9026 5.58635 8.62291 5.33861 8.38332 5.17128C8.21433 5.05326 8.12153 5.01554 8.09324 5.00403C8.088 5.00191 8.08497 5.00067 8.08408 5H5.56692C4.70153 5 4 5.70153 4 6.56692V17C4 18.1046 4.89543 19 6 19H13C13.5523 19 14 19.4477 14 20C14 20.5523 13.5523 21 13 21H6C3.79086 21 2 19.2091 2 17V6.56692Z" fill="black"/>
<path fill-rule="evenodd" clip-rule="evenodd" d="M15.2 16C15.2 14.3431 16.5431 13 18.2 13C19.8568 13 21.2 14.3431 21.2 16C21.2 17.0227 20.6882 17.9259 19.9068 18.4674C20.5941 18.86 21.1279 19.4432 21.4517 19.9913C21.597 20.2371 21.6968 20.5247 21.6999 20.8422C21.703 21.1637 21.6062 21.4494 21.4605 21.6841C21.1907 22.1189 20.7572 22.3786 20.4188 22.5341C19.7185 22.856 18.8248 23 18.2 23C17.5751 23 16.6815 22.856 15.9811 22.5341C15.6427 22.3786 15.2093 22.1189 14.9394 21.6841C14.7937 21.4494 14.6969 21.1637 14.7 20.8422C14.7031 20.5247 14.8029 20.2371 14.9482 19.9913C15.272 19.4432 15.8058 18.86 16.4931 18.4674C15.7117 17.9259 15.2 17.0227 15.2 16ZM18.2 15C17.6477 15 17.2 15.4477 17.2 16C17.2 16.5523 17.6477 17 18.2 17C18.7523 17 19.2 16.5523 19.2 16C19.2 15.4477 18.7523 15 18.2 15ZM18.2 20C17.7195 20 17.2097 20.3089 16.8605 20.7365C17.2476 20.9024 17.8157 21 18.2 21C18.5842 21 19.1523 20.9024 19.5394 20.7365C19.1903 20.3089 18.6804 20 18.2 20Z" fill="black"/>
</svg>
