<svg width="24" height="24" viewBox="0 0 24 24" fill="none" xmlns="http://www.w3.org/2000/svg">
<path d="M5.56692 3C3.59696 3 2 4.59696 2 6.56692V17C2 19.2091 3.79086 21 6 21H13C13.5523 21 14 20.5523 14 20C14 19.4477 13.5523 19 13 19H6C4.89543 19 4 18.1046 4 17V6.56692C4 5.70153 4.70153 5 5.56692 5H8.08408C8.08497 5.00067 8.088 5.00191 8.09324 5.00403C8.12153 5.01554 8.21433 5.05326 8.38332 5.17128C8.62291 5.33861 8.9026 5.58635 9.20694 5.88585C9.49043 6.16484 9.76928 6.46251 10.0357 6.74694L10.0853 6.79984C10.3502 7.08258 10.6304 7.38114 10.8579 7.58162C11.0195 7.72409 11.2499 7.86084 11.4305 7.95285C11.5311 8.00406 11.648 8.05773 11.7688 8.10103C11.8655 8.13573 12.0606 8.2 12.2847 8.2H18.0014C19.1053 8.2 20 9.09484 20 10.2V12.5C20 13.0523 20.4477 13.5 21 13.5C21.5523 13.5 22 13.0523 22 12.5V10.2C22 7.99145 20.2111 6.2 18.0014 6.2H12.3995C12.3825 6.19236 12.3617 6.18266 12.3384 6.17076C12.29 6.14614 12.243 6.11913 12.2057 6.09557C12.1887 6.0848 12.1765 6.07653 12.1691 6.07132C12.0298 5.94676 11.8265 5.73301 11.5447 5.43229L11.4897 5.37363C11.2285 5.0947 10.9235 4.76909 10.6098 4.46035C10.277 4.13287 9.9043 3.79405 9.52848 3.53158C9.18934 3.29472 8.68354 3 8.11436 3H5.56692Z" fill="black"/>
<path fill-rule="evenodd" clip-rule="evenodd" d="M21.6667 16.6667C21.6667 15.1939 20.4728 14 19 14C17.5272 14 16.3333 15.1939 16.3333 16.6667V16.8912C15.545 17.2657 15 18.0692 15 19V20.6667C15 21.7712 15.8954 22.6667 17 22.6667H21C22.1046 22.6667 23 21.7712 23 20.6667V19C23 18.0692 22.455 17.2657 21.6667 16.8912V16.6667ZM18.3333 16.6667C18.3333 16.2985 18.6318 16 19 16C19.3682 16 19.6667 16.2985 19.6667 16.6667H18.3333ZM17 19C17 18.8159 17.1492 18.6667 17.3333 18.6667H20.6667C20.8508 18.6667 21 18.8159 21 19V20.6667H17V19Z" fill="black"/>
</svg>
