<svg width="24" height="24" viewBox="0 0 24 24" fill="none" xmlns="http://www.w3.org/2000/svg">
<path d="M5.56692 3C3.59696 3 2 4.59696 2 6.56692V17C2 19.2091 3.79086 21 6 21H14C14.5523 21 15 20.5523 15 20C15 19.4477 14.5523 19 14 19H6C4.89543 19 4 18.1046 4 17V6.56692C4 5.70153 4.70153 5 5.56692 5H8.08408C8.08497 5.00067 8.088 5.00191 8.09324 5.00403C8.12153 5.01554 8.21433 5.05326 8.38332 5.17128C8.62291 5.33861 8.9026 5.58635 9.20694 5.88585C9.49043 6.16484 9.76928 6.46251 10.0357 6.74694L10.0853 6.79984C10.3502 7.08258 10.6304 7.38114 10.8579 7.58162C11.0195 7.72409 11.2499 7.86084 11.4305 7.95285C11.5311 8.00406 11.648 8.05773 11.7688 8.10103C11.8655 8.13573 12.0606 8.2 12.2847 8.2H18.0014C19.1053 8.2 20 9.09484 20 10.2V15C20 15.5523 20.4477 16 21 16C21.5523 16 22 15.5523 22 15V10.2C22 7.99145 20.2111 6.2 18.0014 6.2H12.3995C12.3825 6.19236 12.3617 6.18266 12.3384 6.17076C12.29 6.14614 12.243 6.11913 12.2057 6.09557C12.1887 6.0848 12.1765 6.07653 12.1691 6.07132C12.0298 5.94676 11.8265 5.73301 11.5447 5.43229L11.4897 5.37363C11.2285 5.0947 10.9235 4.76909 10.6098 4.46035C10.277 4.13287 9.9043 3.79405 9.52848 3.53158C9.18934 3.29472 8.68354 3 8.11436 3H5.56692Z" fill="black"/>
<path d="M20 17C20 16.4477 19.5523 16 19 16C18.4477 16 18 16.4477 18 17V18H17C16.4477 18 16 18.4477 16 19C16 19.5523 16.4477 20 17 20H18V21C18 21.5523 18.4477 22 19 22C19.5523 22 20 21.5523 20 21V20H21C21.5523 20 22 19.5523 22 19C22 18.4477 21.5523 18 21 18H20V17Z" fill="black"/>
</svg>
