<svg width="24" height="24" viewBox="0 0 24 24" fill="none" xmlns="http://www.w3.org/2000/svg">
<path d="M5.56692 3C3.59696 3 2 4.59696 2 6.56692V17C2 19.2091 3.79086 21 6 21H13C13.5523 21 14 20.5523 14 20C14 19.4477 13.5523 19 13 19H6C4.89543 19 4 18.1046 4 17V6.56692C4 5.70153 4.70153 5 5.56692 5H8.08408C8.08497 5.00067 8.088 5.00191 8.09324 5.00403C8.12153 5.01554 8.21433 5.05326 8.38332 5.17128C8.62291 5.33861 8.9026 5.58635 9.20694 5.88585C9.49043 6.16484 9.76928 6.46251 10.0357 6.74694L10.0853 6.79984C10.3502 7.08258 10.6304 7.38114 10.8579 7.58162C11.0195 7.72409 11.2499 7.86084 11.4305 7.95285C11.5311 8.00406 11.648 8.05773 11.7688 8.10103C11.8655 8.13573 12.0606 8.2 12.2847 8.2H18.0014C19.1053 8.2 20 9.09484 20 10.2V14.5C20 15.0523 20.4477 15.5 21 15.5C21.5523 15.5 22 15.0523 22 14.5V10.2C22 7.99145 20.2111 6.2 18.0014 6.2H12.3995C12.3825 6.19236 12.3617 6.18266 12.3384 6.17076C12.29 6.14614 12.243 6.11913 12.2057 6.09557C12.1887 6.0848 12.1765 6.07653 12.1691 6.07132C12.0298 5.94676 11.8265 5.73301 11.5447 5.43229L11.4897 5.37363C11.2285 5.0947 10.9235 4.76909 10.6098 4.46035C10.277 4.13287 9.9043 3.79405 9.52848 3.53158C9.18934 3.29472 8.68354 3 8.11436 3H5.56692Z" fill="black"/>
<path fill-rule="evenodd" clip-rule="evenodd" d="M19.2506 15.225C18.7692 15.0301 18.2308 15.0301 17.7494 15.225L16.6428 15.6731C16.6314 15.6777 16.6201 15.6825 16.609 15.6875L16.1571 15.8901C15.4854 16.1911 14.9981 16.8599 15 17.6566C15.0016 18.2761 15.0437 19.4268 15.3823 20.2719C15.6216 20.8693 16.0343 21.3578 16.4157 21.7216C16.8044 22.0925 17.2139 22.3841 17.5154 22.5785C18.1171 22.9665 18.8829 22.9665 19.4846 22.5785C19.7861 22.3841 20.1956 22.0925 20.5843 21.7216C20.9657 21.3578 21.3784 20.8693 21.6177 20.2719C21.9563 19.4268 21.9984 18.2761 22 17.6566C22.0019 16.8599 21.5146 16.1911 20.8429 15.8901L20.391 15.6875C20.3799 15.6825 20.3686 15.6777 20.3572 15.6731L19.2506 15.225ZM17.0003 17.7038L17.4103 17.52L18.5 17.0788L19.5897 17.52L19.9997 17.7038C19.9952 18.3252 19.9366 19.0903 19.7612 19.5281C19.6701 19.7554 19.4786 20.0124 19.2038 20.2746C18.9724 20.4953 18.7179 20.6859 18.5 20.8323C18.2821 20.6859 18.0276 20.4953 17.7962 20.2746C17.5214 20.0124 17.3299 19.7554 17.2388 19.5281C17.0634 19.0903 17.0048 18.3252 17.0003 17.7038Z" fill="black"/>
</svg>
