<svg width="24" height="24" viewBox="0 0 24 24" fill="none" xmlns="http://www.w3.org/2000/svg">
<path d="M5.56692 3C3.59696 3 2 4.59696 2 6.56692V17C2 19.2091 3.79086 21 6 21H13C13.5523 21 14 20.5523 14 20C14 19.4477 13.5523 19 13 19H6C4.89543 19 4 18.1046 4 17V6.56692C4 5.70153 4.70153 5 5.56692 5H8.08408C8.08497 5.00067 8.088 5.00191 8.09324 5.00403C8.12153 5.01554 8.21433 5.05326 8.38332 5.17128C8.62291 5.33861 8.9026 5.58635 9.20694 5.88585C9.49043 6.16484 9.76928 6.46251 10.0357 6.74694L10.0853 6.79984C10.3502 7.08258 10.6304 7.38114 10.8579 7.58162C11.0195 7.72409 11.2499 7.86084 11.4305 7.95285C11.5311 8.00406 11.648 8.05773 11.7688 8.10103C11.8655 8.13573 12.0606 8.2 12.2847 8.2H18.0014C19.1053 8.2 20 9.09484 20 10.2V14.5C20 15.0523 20.4477 15.5 21 15.5C21.5523 15.5 22 15.0523 22 14.5V10.2C22 7.99145 20.2111 6.2 18.0014 6.2H12.3995C12.3825 6.19236 12.3617 6.18266 12.3384 6.17076C12.29 6.14614 12.243 6.11913 12.2057 6.09557C12.1887 6.0848 12.1765 6.07653 12.1691 6.07132C12.0298 5.94676 11.8265 5.73301 11.5447 5.43229L11.4897 5.37363C11.2285 5.0947 10.9235 4.76909 10.6098 4.46035C10.277 4.13287 9.9043 3.79405 9.52848 3.53158C9.18934 3.29472 8.68354 3 8.11436 3H5.56692Z" fill="black"/>
<path fill-rule="evenodd" clip-rule="evenodd" d="M18.85 16C17.3373 16 16.0636 17.1338 15.9146 18.6195C15.3602 19.0694 15 19.7537 15 20.5294C15 21.9125 16.138 23 17.5 23H20.2C21.7276 23 23 21.7808 23 20.2353C23 19.2002 22.427 18.3101 21.5922 17.8365C21.1561 16.7524 20.0847 16 18.85 16ZM17.9 18.9118C17.9 18.4268 18.3066 18 18.85 18C19.329 18 19.7066 18.3354 19.7846 18.7464C19.8526 19.105 20.1107 19.3981 20.4578 19.5109C20.7849 19.6173 21 19.9115 21 20.2353C21 20.6391 20.6606 21 20.2 21H17.5C17.2051 21 17 20.7707 17 20.5294C17 20.3474 17.1128 20.1751 17.2998 20.0978C17.7213 19.9238 17.9716 19.4868 17.9085 19.0352C17.9029 18.9953 17.9 18.9541 17.9 18.9118Z" fill="black"/>
</svg>
