<svg width="24" height="24" viewBox="0 0 24 24" fill="none" xmlns="http://www.w3.org/2000/svg">
<path fill-rule="evenodd" clip-rule="evenodd" d="M10 5C10 6.28515 9.19191 7.38156 8.05612 7.80882C8.19522 8.81334 8.58694 9.76867 9.16435 10.5111C9.88691 11.4401 10.8642 12 12 12C13.1358 12 14.1131 11.4401 14.8356 10.5111C15.4131 9.76867 15.8048 8.81334 15.9439 7.80882C14.8081 7.38156 14 6.28515 14 5C14 3.34315 15.3431 2 17 2C18.6569 2 20 3.34315 20 5C20 6.32325 19.1433 7.4464 17.9543 7.84505C17.8007 9.26584 17.2653 10.6449 16.4144 11.7389C15.5773 12.8152 14.4114 13.6386 13 13.9068V16.1707C14.1652 16.5825 15 17.6938 15 19C15 20.6569 13.6569 22 12 22C10.3431 22 9 20.6569 9 19C9 17.6938 9.83481 16.5825 11 16.1707V13.9068C9.58856 13.6386 8.42274 12.8152 7.58565 11.7389C6.73473 10.6449 6.19926 9.26584 6.04575 7.84505C4.85672 7.4464 4 6.32325 4 5C4 3.34315 5.34315 2 7 2C8.65685 2 10 3.34315 10 5ZM7 4C7.55228 4 8 4.44772 8 5C8 5.55228 7.55228 6 7 6C6.44772 6 6 5.55228 6 5C6 4.44772 6.44772 4 7 4ZM17 6C17.5523 6 18 5.55228 18 5C18 4.44772 17.5523 4 17 4C16.4477 4 16 4.44772 16 5C16 5.55228 16.4477 6 17 6ZM11 19C11 18.4477 11.4477 18 12 18C12.5523 18 13 18.4477 13 19C13 19.5523 12.5523 20 12 20C11.4477 20 11 19.5523 11 19Z" fill="black"/>
</svg>
