<svg width="24" height="24" viewBox="0 0 24 24" fill="none" xmlns="http://www.w3.org/2000/svg">
<path d="M8.00011 10C8.5524 10 9.00011 10.4477 9.00011 11V12H10.0001C10.5524 12 11.0001 12.4477 11.0001 13C11.0001 13.5523 10.5524 14 10.0001 14H9.00011V15C9.00011 15.5523 8.5524 16 8.00011 16C7.44783 16 7.00011 15.5523 7.00011 15V14H6.00011C5.44783 14 5.00011 13.5523 5.00011 13C5.00011 12.4477 5.44783 12 6.00011 12H7.00011V11C7.00011 10.4477 7.44783 10 8.00011 10Z" fill="black"/>
<path d="M16.0001 10C16.5524 10 17.0001 10.4477 17.0001 11C17.0001 11.5523 16.5524 12 16.0001 12C15.4478 12 15.0001 11.5523 15.0001 11C15.0001 10.4477 15.4478 10 16.0001 10Z" fill="black"/>
<path d="M17.0001 15C17.0001 14.4477 16.5524 14 16.0001 14C15.4478 14 15.0001 14.4477 15.0001 15C15.0001 15.5523 15.4478 16 16.0001 16C16.5524 16 17.0001 15.5523 17.0001 15Z" fill="black"/>
<path d="M18.0001 12C18.5524 12 19.0001 12.4477 19.0001 13C19.0001 13.5523 18.5524 14 18.0001 14C17.4478 14 17.0001 13.5523 17.0001 13C17.0001 12.4477 17.4478 12 18.0001 12Z" fill="black"/>
<path d="M15.0001 13C15.0001 12.4477 14.5524 12 14.0001 12C13.4478 12 13.0001 12.4477 13.0001 13C13.0001 13.5523 13.4478 14 14.0001 14C14.5524 14 15.0001 13.5523 15.0001 13Z" fill="black"/>
<path fill-rule="evenodd" clip-rule="evenodd" d="M16.0001 2.99997C16 2.44769 15.5523 1.99999 15 2C14.4477 2.00001 14 2.44774 14.0001 3.00003C14.0001 3.17334 13.9398 3.45556 13.7885 3.66571C13.6739 3.82487 13.4742 4 13.0001 4C12.4703 4 11.9656 4.10956 11.5512 4.39767C11.1185 4.69848 10.8897 5.12054 10.7985 5.53514C10.7756 5.6392 10.761 5.74337 10.7535 5.84673C6.42237 5.51731 2.48634 8.46986 1.62582 12.7724L1.40274 13.8878C1.10737 15.3647 1.37307 16.8986 2.14794 18.19C3.55738 20.5391 6.36857 21.649 9.00262 20.8964L10.3751 20.5043C11.4372 20.2008 12.563 20.2008 13.6251 20.5043L14.9976 20.8964C17.6317 21.649 20.4428 20.5391 21.8523 18.19C22.6272 16.8986 22.8928 15.3647 22.5975 13.8878L22.3744 12.7724C21.5701 8.75069 18.0786 5.90848 14.089 5.82364C14.6609 5.62282 15.1008 5.266 15.4116 4.83429C15.8603 4.21111 16.0001 3.49333 16.0001 2.99997ZM11.6402 7.93301C11.8657 8.01992 12.1219 8.02529 12.3602 7.933C12.5981 7.92308 12.8357 7.90333 13.0725 7.87374C16.5277 7.44184 19.7303 9.75021 20.4132 13.1647L20.6363 14.2801C20.8341 15.269 20.6562 16.2962 20.1373 17.161C19.1935 18.7341 17.3109 19.4774 15.547 18.9734L14.1746 18.5813C12.7534 18.1752 11.2469 18.1752 9.82567 18.5813L8.45317 18.9734C6.68928 19.4774 4.80676 18.7341 3.86293 17.161C3.34403 16.2962 3.16611 15.269 3.3639 14.2801L3.58698 13.1647C4.26987 9.75021 7.47257 7.44184 10.9278 7.87374C11.1645 7.90334 11.4022 7.92309 11.6402 7.93301Z" fill="black"/>
</svg>
