<svg width="24" height="24" viewBox="0 0 24 24" fill="none" xmlns="http://www.w3.org/2000/svg">
<path d="M6.59377 4.63069C7.07485 4.79105 7.45236 5.16855 7.61272 5.64963C7.77592 6.13925 8.46846 6.13925 8.63166 5.64963C8.79203 5.16855 9.16953 4.79105 9.65061 4.63069C10.1402 4.46748 10.1402 3.77494 9.65061 3.61174C9.16953 3.45138 8.79203 3.07388 8.63166 2.59279C8.46846 2.10318 7.77592 2.10318 7.61272 2.59279C7.45236 3.07388 7.07485 3.45138 6.59377 3.61174C6.10416 3.77494 6.10416 4.46748 6.59377 4.63069Z" fill="black"/>
<path fill-rule="evenodd" clip-rule="evenodd" d="M14.0009 8.99989C11.2394 8.99989 9.00085 11.2385 9.00085 13.9999C9.00085 16.7613 11.2394 18.9999 14.0009 18.9999C16.7623 18.9999 19.0009 16.7613 19.0009 13.9999C19.0009 11.2385 16.7623 8.99989 14.0009 8.99989ZM11.0009 13.9999C11.0009 12.343 12.344 10.9999 14.0009 10.9999C15.6577 10.9999 17.0009 12.343 17.0009 13.9999C17.0009 15.6567 15.6577 16.9999 14.0009 16.9999C12.344 16.9999 11.0009 15.6567 11.0009 13.9999Z" fill="black"/>
<path fill-rule="evenodd" clip-rule="evenodd" d="M16.1848 5.85414C14.9632 4.71515 13.0385 4.71515 11.8169 5.85414C11.5619 6.09192 11.1976 6.20999 10.8295 6.15981C9.1766 5.93446 7.58296 7.01082 7.28038 8.6734C7.22285 8.98948 7.01408 9.27775 6.69368 9.4416C5.19204 10.2095 4.55882 12.0195 5.32887 13.5378C5.47729 13.8305 5.47729 14.1693 5.32887 14.4619C4.55882 15.9803 5.19204 17.7903 6.69368 18.5582C7.01408 18.722 7.22285 19.0103 7.28038 19.3264C7.58296 20.989 9.1766 22.0653 10.8295 21.84C11.1976 21.7898 11.5619 21.9079 11.8169 22.1456C13.0385 23.2846 14.9632 23.2846 16.1848 22.1456C16.4398 21.9079 16.8041 21.7898 17.1722 21.84C18.8251 22.0653 20.4188 20.989 20.7213 19.3264C20.7789 19.0103 20.9876 18.722 21.308 18.5582C22.8097 17.7903 23.4429 15.9803 22.6728 14.4619C22.5244 14.1693 22.5244 13.8305 22.6728 13.5378C23.4429 12.0195 22.8097 10.2095 21.308 9.4416C20.9876 9.27775 20.7789 8.98948 20.7213 8.6734C20.4188 7.01082 18.8251 5.93446 17.1722 6.15981C16.8041 6.20999 16.4398 6.09192 16.1848 5.85414ZM13.1809 7.31691C13.6342 6.89422 14.3675 6.89422 14.8208 7.31691C15.5236 7.97217 16.491 8.27118 17.4424 8.14147C18.0968 8.05225 18.6536 8.48178 18.7537 9.0315C18.9264 9.98051 19.5407 10.7841 20.3974 11.2223C20.9543 11.5071 21.1425 12.1337 20.8891 12.6332C20.4523 13.4945 20.4523 14.5053 20.8891 15.3666C21.1425 15.8661 20.9543 16.4927 20.3974 16.7775C19.5407 17.2157 18.9264 18.0193 18.7537 18.9683C18.6536 19.518 18.0968 19.9475 17.4424 19.8583C16.491 19.7286 15.5236 20.0276 14.8208 20.6829C14.3675 21.1056 13.6342 21.1056 13.1809 20.6829C12.4781 20.0276 11.5107 19.7286 10.5593 19.8583C9.90488 19.9475 9.3481 19.518 9.24805 18.9683C9.07534 18.0193 8.46105 17.2157 7.60429 16.7775C7.0474 16.4927 6.85923 15.8661 7.11258 15.3666C7.54939 14.5053 7.54939 13.4945 7.11258 12.6332C6.85923 12.1337 7.0474 11.5071 7.60429 11.2223C8.46105 10.7841 9.07534 9.98051 9.24805 9.0315C9.3481 8.48178 9.90488 8.05225 10.5593 8.14147C11.5107 8.27118 12.4781 7.97217 13.1809 7.31691Z" fill="black"/>
<path d="M3.61272 9.64963C3.45236 9.16855 3.07485 8.79105 2.59377 8.63069C2.10416 8.46748 2.10416 7.77494 2.59377 7.61174C3.07485 7.45138 3.45236 7.07388 3.61272 6.59279C3.77592 6.10318 4.46846 6.10318 4.63166 6.59279C4.79203 7.07388 5.16953 7.45138 5.65061 7.61174C6.14022 7.77494 6.14022 8.46748 5.65061 8.63069C5.16953 8.79105 4.79203 9.16855 4.63166 9.64963C4.46846 10.1392 3.77592 10.1392 3.61272 9.64963Z" fill="black"/>
</svg>
