<svg width="24" height="24" viewBox="0 0 24 24" fill="none" xmlns="http://www.w3.org/2000/svg">
<path fill-rule="evenodd" clip-rule="evenodd" d="M9.00001 2C8.93416 2 8.86846 2.0065 8.80389 2.01942L4.86625 2.80695C3.87213 3.00577 3.04568 3.69323 2.66917 4.63452L1.07153 8.62861C0.941919 8.95264 0.990612 9.32081 1.20001 9.6L9.60001 20.8C10.1666 21.5554 11.0557 22 12 22C12.9443 22 13.8334 21.5554 14.4 20.8L22.8 9.6C23.0094 9.32081 23.0581 8.95264 22.9285 8.62861L21.3308 4.63452C20.9543 3.69323 20.1279 3.00577 19.1338 2.80695L15.1961 2.01942C15.1316 2.0065 15.0659 2 15 2H9.00001ZM19.6296 10.4939L15.173 16.436L17.6984 10.8801L19.6296 10.4939ZM20.625 8.25519L17.7082 8.83856L16.4121 4.30222L18.7415 4.76811C19.0729 4.83438 19.3484 5.06354 19.4739 5.3773L20.625 8.25519ZM8.32574 9L9.75431 4H14.2457L15.6743 9H8.32574ZM12 18.5834L8.55301 11H15.447L12 18.5834ZM8.827 16.436L6.30161 10.8801L4.37042 10.4939L8.827 16.436ZM4.52612 5.3773L3.37497 8.25519L6.29183 8.83856L7.58793 4.30222L5.25848 4.76811C4.92711 4.83438 4.65163 5.06354 4.52612 5.3773Z" fill="black"/>
</svg>
