<svg width="24" height="24" viewBox="0 0 24 24" fill="none" xmlns="http://www.w3.org/2000/svg">
<path fill-rule="evenodd" clip-rule="evenodd" d="M13.6982 2.10514L12.5 3.19443L11.3018 2.10514C9.42732 0.401084 6.80698 1.93189 6.73078 4.00043H4C2.34315 4.00043 1 5.34358 1 7.00043V8.88932C1 9.69345 1.44959 10.3926 2.11111 10.749V19.0004C2.11111 21.2096 3.90197 23.0004 6.11111 23.0004H17.8889C20.098 23.0004 21.8889 21.2096 21.8889 19.0004V10.749C22.5504 10.3926 23 9.69345 23 8.88932V7.00043C23 5.34358 21.6569 4.00043 20 4.00043H18.2692C18.193 1.93189 15.5727 0.401084 13.6982 2.10514ZM8.01833 6.00043C8.00673 6.00064 7.99514 6.00064 7.98356 6.00043H4C3.44772 6.00043 3 6.44815 3 7.00043V8.88932C3 8.95069 3.04975 9.00043 3.11111 9.00043H20.8889C20.9503 9.00043 21 8.95069 21 8.88932V7.00043C21 6.44815 20.5523 6.00043 20 6.00043H17.0164C17.0049 6.00064 16.9933 6.00064 16.9817 6.00043H8.01833ZM13.5 11.0004H10.5V13.688C10.5 13.7224 10.5084 13.7386 10.5147 13.7482C10.5234 13.7614 10.5393 13.777 10.5631 13.7884C10.587 13.7999 10.6091 13.8026 10.6248 13.8011C10.6363 13.8001 10.6542 13.7965 10.681 13.775C11.4521 13.1581 12.5479 13.1581 13.319 13.775C13.3458 13.7965 13.3637 13.8001 13.3752 13.8011C13.3909 13.8026 13.413 13.7999 13.4369 13.7884C13.4607 13.777 13.4766 13.7614 13.4853 13.7482C13.4916 13.7386 13.5 13.7224 13.5 13.688V11.0004ZM8.5 11.0004V13.688C8.5 15.4584 10.5479 16.4427 11.9304 15.3367C11.9711 15.3042 12.0289 15.3042 12.0696 15.3367C13.4521 16.4427 15.5 15.4584 15.5 13.688V11.0004H19.8889V19.0004C19.8889 20.105 18.9935 21.0004 17.8889 21.0004H6.11111C5.00654 21.0004 4.11111 20.105 4.11111 19.0004V11.0004H8.5ZM9.95644 3.58502L10.4134 4.00043H8.75741C8.84147 3.49889 9.48734 3.15857 9.95644 3.58502ZM16.2426 4.00043C16.1585 3.49889 15.5127 3.15857 15.0436 3.58502L14.5866 4.00043H16.2426Z" fill="black"/>
</svg>
