<svg width="24" height="24" viewBox="0 0 24 24" fill="none" xmlns="http://www.w3.org/2000/svg">
<path fill-rule="evenodd" clip-rule="evenodd" d="M12 1C8.40056 1 5.20486 2.7299 3.1997 5.39942C1.81871 7.23797 1 9.52482 1 12C1 14.4752 1.81871 16.762 3.1997 18.6006C5.20486 21.2701 8.40056 23 12 23C15.5994 23 18.7951 21.2701 20.8003 18.6006C22.1813 16.762 23 14.4752 23 12C23 9.52482 22.1813 7.23797 20.8003 5.39942C18.7951 2.7299 15.5994 1 12 1ZM4.90148 6.9176C5.12565 6.89682 5.38969 6.87293 5.68444 6.84733C5.60258 8.06193 5.53095 9.49456 5.50782 11H3.05486C3.2194 9.50989 3.74743 8.13055 4.54856 6.95084C4.65102 6.94104 4.76929 6.92986 4.90148 6.9176ZM4.54856 17.0492C3.74743 15.8695 3.2194 14.4901 3.05486 13H5.50782C5.53095 14.5054 5.60258 15.9381 5.68444 17.1527C5.38969 17.1271 5.12565 17.1032 4.90148 17.0824C4.76929 17.0701 4.65102 17.059 4.54856 17.0492ZM7.50806 13C7.53297 14.5746 7.61241 16.0714 7.70023 17.3123C8.77446 17.3887 9.94229 17.4564 11 17.4852V13H7.50806ZM7.91935 19.8659C7.9254 19.9251 7.93118 19.9809 7.93664 20.0329C8.87517 20.5086 9.90816 20.8245 11 20.9451V19.4859C9.98757 19.4595 8.88779 19.3986 7.86654 19.3288C7.8846 19.5195 7.90151 19.6907 7.91673 19.8403C7.91761 19.8489 7.91848 19.8574 7.91935 19.8659ZM16.0634 20.0329C15.1248 20.5086 14.0918 20.8245 13 20.9451V19.4859C14.0124 19.4595 15.1122 19.3986 16.1335 19.3288C16.1154 19.5195 16.0985 19.6907 16.0833 19.8403C16.0763 19.9091 16.0696 19.9734 16.0634 20.0329ZM16.2998 17.3123C15.2255 17.3887 14.0577 17.4564 13 17.4852V13H16.4919C16.467 14.5746 16.3876 16.0714 16.2998 17.3123ZM16.2998 6.68766C16.3876 7.92861 16.467 9.42539 16.4919 11H13V6.51476C14.0577 6.5436 15.2255 6.61133 16.2998 6.68766ZM16.1335 4.67121C15.1122 4.60142 14.0124 4.54054 13 4.51407V3.05489C14.0918 3.17552 15.1248 3.49139 16.0634 3.96708C16.0696 4.02656 16.0763 4.09085 16.0833 4.15974C16.0985 4.30931 16.1154 4.48051 16.1335 4.67121ZM7.86654 4.67121C8.88779 4.60142 9.98757 4.54054 11 4.51407V3.05489C9.90816 3.17552 8.87517 3.49139 7.93664 3.96708C7.9304 4.02656 7.92375 4.09085 7.91673 4.15974C7.90151 4.30931 7.8846 4.48051 7.86654 4.67121ZM11 6.51476C9.94229 6.5436 8.77446 6.61133 7.70023 6.68766C7.61241 7.92861 7.53297 9.42539 7.50806 11H11V6.51476ZM19.0985 6.9176C18.8744 6.89682 18.6103 6.87293 18.3156 6.84733C18.3974 8.06193 18.4691 9.49456 18.4922 11H20.9451C20.7806 9.50989 20.2526 8.13055 19.4514 6.95084C19.349 6.94104 19.2307 6.92986 19.0985 6.9176ZM18.3156 17.1527C18.3974 15.9381 18.4691 14.5054 18.4922 13H20.9451C20.7806 14.4901 20.2526 15.8695 19.4514 17.0492C19.349 17.059 19.2307 17.0701 19.0985 17.0824C18.8744 17.1032 18.6103 17.1271 18.3156 17.1527Z" fill="black"/>
</svg>
