<svg width="24" height="24" viewBox="0 0 24 24" fill="none" xmlns="http://www.w3.org/2000/svg">
<path fill-rule="evenodd" clip-rule="evenodd" d="M12 1C5.92487 1 1 5.92487 1 12C1 18.0751 5.92487 23 12 23C18.0751 23 23 18.0751 23 12C23 5.92487 18.0751 1 12 1ZM4.15933 11.3023L3.00076 11.8816C3.02781 9.78424 3.77227 7.85988 5 6.34267V8.35994L4.15933 11.3023ZM7 4.51555C8.4301 3.55827 10.1499 3 12 3C16.8348 3 20.7791 6.81226 20.991 11.5947L17.5448 15.0409L17.0554 19.4471C15.6144 20.4272 13.8741 21 12 21C7.71891 21 4.13597 18.0109 3.22435 14.0059L5.84067 12.6977L6.21723 11.3797C6.07344 12.2094 6.46108 13.0986 7.29374 13.5149L9.54033 14.6382L9.77492 18.1571C9.90783 20.1508 12.56 20.7387 13.5229 18.9879L17.1568 12.3809C17.4356 11.874 17.4812 11.2711 17.2818 10.7279L16.442 8.43988C16.1086 7.53161 15.1728 6.99224 14.2197 7.15899L9.63894 7.9605C9.23376 8.03139 8.86029 8.22549 8.56943 8.51635L6.77395 10.3118C6.57624 10.5095 6.4301 10.735 6.3332 10.9739L7 8.64006V4.51555ZM19.4552 15.9591L20.5268 14.8874C20.2386 15.7388 19.8265 16.533 19.3119 17.2487L19.4552 15.9591ZM10.4348 12.8493L8.18816 11.726L9.98365 9.93057L14.5644 9.12906L15.4043 11.4171L11.7705 18.0241L11.5359 14.5052C11.4887 13.7969 11.0696 13.1668 10.4348 12.8493Z" fill="black"/>
</svg>
