<svg width="24" height="24" viewBox="0 0 24 24" fill="none" xmlns="http://www.w3.org/2000/svg">
<path fill-rule="evenodd" clip-rule="evenodd" d="M12.7726 2.54677C12.2976 2.26175 11.7041 2.26175 11.2291 2.54677L2.20091 7.96367C1.2299 8.54628 1.2299 9.95355 2.20091 10.5362L4.00083 11.6161V18.0157C4.00083 18.4536 4.19382 18.9003 4.58461 19.1928C5.3458 19.7627 8.25205 21.7499 12.0008 21.7499C15.7496 21.7499 18.6559 19.7627 19.4171 19.1928C19.8078 18.9003 20.0008 18.4536 20.0008 18.0157V11.6161L21.8008 10.5362C22.7718 9.95355 22.7718 8.54628 21.8008 7.96367L12.7726 2.54677ZM3.94448 9.24991L12.0008 4.4161L20.0572 9.24991L16.6953 11.267L13.0821 8.68618C12.6327 8.36517 12.0081 8.46926 11.6871 8.91867C11.3661 9.36809 11.4702 9.99264 11.9196 10.3136L14.8252 12.3891L12.0008 14.0837L3.94448 9.24991ZM15.0008 14.6161L12.7726 15.9531C12.2976 16.2381 11.7041 16.2381 11.2291 15.9531L6.00083 12.8161V17.749C6.88349 18.3661 9.18516 19.7499 12.0008 19.7499C14.8165 19.7499 17.1182 18.3661 18.0008 17.749V12.8161L17.0008 13.4161V15.9999C17.0008 16.5522 16.5531 16.9999 16.0008 16.9999C15.4485 16.9999 15.0008 16.5522 15.0008 15.9999V14.6161Z" fill="black"/>
</svg>
