<svg width="24" height="24" viewBox="0 0 24 24" fill="none" xmlns="http://www.w3.org/2000/svg">
<path fill-rule="evenodd" clip-rule="evenodd" d="M2 8.5C2 9.88071 3.11929 11 4.5 11L19.5 11C20.8807 11 22 9.88071 22 8.5V4.5C22 3.11929 20.8807 2 19.5 2H4.5C3.11929 2 2 3.11929 2 4.5V8.5ZM4.5 9C4.22386 9 4 8.77614 4 8.5L4 4.5C4 4.22386 4.22386 4 4.5 4L19.5 4C19.7761 4 20 4.22386 20 4.5V8.5C20 8.77614 19.7761 9 19.5 9L4.5 9Z" fill="black"/>
<path fill-rule="evenodd" clip-rule="evenodd" d="M4.5 22C3.11929 22 2 20.8807 2 19.5V14.5C2 13.1193 3.11929 12 4.5 12H8.5C9.88071 12 11 13.1193 11 14.5V19.5C11 20.8807 9.88071 22 8.5 22H4.5ZM4 19.5C4 19.7761 4.22386 20 4.5 20H8.5C8.77614 20 9 19.7761 9 19.5V14.5C9 14.2239 8.77614 14 8.5 14H4.5C4.22386 14 4 14.2239 4 14.5L4 19.5Z" fill="black"/>
<path fill-rule="evenodd" clip-rule="evenodd" d="M15.5 22C14.1193 22 13 20.8807 13 19.5V14.5C13 13.1193 14.1193 12 15.5 12H19.5C20.8807 12 22 13.1193 22 14.5V19.5C22 20.8807 20.8807 22 19.5 22H15.5ZM15 19.5C15 19.7761 15.2239 20 15.5 20H19.5C19.7761 20 20 19.7761 20 19.5V14.5C20 14.2239 19.7761 14 19.5 14H15.5C15.2239 14 15 14.2239 15 14.5V19.5Z" fill="black"/>
</svg>
