<svg width="24" height="24" viewBox="0 0 24 24" fill="none" xmlns="http://www.w3.org/2000/svg">
<path fill-rule="evenodd" clip-rule="evenodd" d="M12.0001 3C6.4773 3 2.00015 7.47715 2.00015 13V15.9841C1.99995 15.9956 1.99995 16.007 2.00015 16.0183V18.4118C2.00015 19.8412 3.15894 21 4.58838 21C6.01782 21 7.17662 19.8412 7.17662 18.4118V16.2507C7.17662 14.3089 5.46177 13.4095 4.00015 13.7078V13C4.00015 8.58172 7.58187 5 12.0001 5C16.4184 5 20.0001 8.58172 20.0001 13V13.6972C18.539 13.3985 16.8237 14.2952 16.8237 16.2389V18.4118C16.8237 18.8882 16.9524 19.3346 17.177 19.718C16.2919 20.1581 15.084 20.5 13.5001 20.5C12.9479 20.5 12.5001 20.9478 12.5001 21.5C12.5001 22.0523 12.9479 22.5 13.5001 22.5C15.944 22.5 17.7557 21.8106 18.9966 20.9669C19.1318 20.9887 19.2705 21 19.4119 21C20.8414 21 22.0001 19.8412 22.0001 18.4118V16.0178C22.0003 16.0068 22.0003 15.9958 22.0001 15.9847V13C22.0001 7.47715 17.523 3 12.0001 3ZM19.2521 18.978C19.3029 18.9923 19.3565 19 19.4119 19C19.7368 19 20.0001 18.7366 20.0001 18.4118V16.0882C19.959 15.8995 19.874 15.8038 19.7964 15.7481C19.6953 15.6756 19.546 15.6306 19.3761 15.6433C19.2062 15.6561 19.0653 15.723 18.9762 15.8098C18.9007 15.8833 18.8237 16.0063 18.8237 16.2389V18.4118C18.8237 18.631 18.9436 18.8222 19.1215 18.9234C19.1661 18.9384 19.2097 18.9567 19.2521 18.978ZM4.00015 18.4118V16.0927C4.04272 15.907 4.1276 15.8125 4.20537 15.7573C4.30692 15.6853 4.45617 15.641 4.62555 15.6544C4.79493 15.6678 4.93538 15.7349 5.02438 15.822C5.09998 15.8959 5.17662 16.0191 5.17662 16.2507V18.4118C5.17662 18.7366 4.91326 19 4.58838 19C4.26351 19 4.00015 18.7366 4.00015 18.4118Z" fill="black"/>
</svg>
