<svg width="24" height="24" viewBox="0 0 24 24" fill="none" xmlns="http://www.w3.org/2000/svg">
<path d="M21 16V13C21 8.02944 16.9706 4 12 4C7.02944 4 3 8.02944 3 13V16M21 16V18.4118C21 19.2889 20.2889 20 19.4118 20C18.5346 20 17.8235 19.2889 17.8235 18.4118V16.2389C17.8235 14.2634 20.7045 14.0467 21 16ZM3 16V18.4118C3 19.2889 3.71108 20 4.58824 20C5.46539 20 6.17647 19.2889 6.17647 18.4118V16.2507C6.17647 14.2814 3.3089 14.0551 3 16Z" stroke="black" stroke-width="2" stroke-linecap="round" stroke-linejoin="round"/>
</svg>
