<svg width="24" height="24" viewBox="0 0 24 24" fill="none" xmlns="http://www.w3.org/2000/svg">
<path d="M11.3582 8.48548C11.1705 8.17252 10.8271 7.98671 10.4624 8.00072C10.0977 8.01472 9.76954 8.22632 9.60631 8.55277L7.88271 12H7.50074C6.94846 12 6.50074 12.4477 6.50074 13C6.50074 13.5523 6.94846 14 7.50074 14H8.50074C8.87951 14 9.22577 13.786 9.39517 13.4472L10.5805 11.0765L12.6432 14.5145C12.8196 14.8084 13.1343 14.9915 13.477 14.9997C13.8196 15.0079 14.1426 14.8399 14.3328 14.5547L16.0359 12H16.5007C17.053 12 17.5007 11.5523 17.5007 11C17.5007 10.4477 17.053 9.99998 16.5007 9.99998H15.5007C15.1664 9.99998 14.8542 10.1671 14.6687 10.4453L13.5452 12.1305L11.3582 8.48548Z" fill="black"/>
<path fill-rule="evenodd" clip-rule="evenodd" d="M11.681 3.21034C11.1972 3.08011 10.7462 2.91447 10.2744 2.7375L10.1824 2.70297C9.75022 2.54063 9.28506 2.36591 8.81102 2.23475C7.743 1.93924 6.58405 1.85075 5.19776 2.40065C1.98293 3.67589 0.572265 7.13393 1.11571 10.3675C1.53806 12.8806 3.1962 15.1328 4.9568 16.9088C6.73711 18.7047 8.73887 20.1294 10.0458 20.9779C11.24 21.7532 12.7615 21.7532 13.9557 20.9779C15.2626 20.1294 17.2644 18.7047 19.0447 16.9088C20.8053 15.1328 22.4634 12.8806 22.8858 10.3675C23.4292 7.13392 22.0186 3.6759 18.8037 2.40066C17.4174 1.85075 16.2585 1.93924 15.1905 2.23475C14.7164 2.36592 14.2513 2.54063 13.8191 2.70296L13.7271 2.7375C13.2553 2.91447 12.8043 3.08011 12.3205 3.21034C12.1114 3.26662 11.8901 3.26662 11.681 3.21034ZM5.9352 4.25973C6.82435 3.90704 7.5224 3.95334 8.27767 4.16232C8.66238 4.26877 9.04872 4.41374 9.50386 4.58454L9.57205 4.61012C10.0431 4.78678 10.5747 4.98374 11.1612 5.1416C11.7108 5.28953 12.2907 5.28953 12.8403 5.1416C13.4268 4.98374 13.9584 4.78679 14.4294 4.61012L14.4976 4.58453C14.9528 4.41374 15.3391 4.26877 15.7238 4.16232C16.4791 3.95335 17.1771 3.90704 18.0663 4.25973C20.2106 5.11032 21.338 7.50992 20.9134 10.036C20.5937 11.9388 19.2841 13.8264 17.6243 15.5007C15.9842 17.1552 14.1128 18.4913 12.8666 19.3004C12.3348 19.6457 11.6667 19.6457 11.1349 19.3004C9.88865 18.4913 8.01725 17.1552 6.37716 15.5007C4.71735 13.8264 3.40782 11.9388 3.08805 10.036C2.6635 7.50991 3.79091 5.11031 5.9352 4.25973Z" fill="black"/>
</svg>
