<svg width="24" height="24" viewBox="0 0 24 24" fill="none" xmlns="http://www.w3.org/2000/svg">
<path d="M9.85695 3.9496C9.18644 2.27331 6.81356 2.27331 6.14305 3.9496L3.32297 10.9998H2C1.44772 10.9998 1 11.4475 1 11.9998C1 12.5521 1.44772 12.9998 2 12.9998H3.32297C4.14078 12.9998 4.87619 12.5019 5.17992 11.7426L8 4.69238L14.143 20.05C14.8136 21.7263 17.1864 21.7263 17.857 20.05L20.677 12.9998L22 12.9998C22.5523 12.9998 23 12.5521 23 11.9998C23 11.4475 22.5523 10.9998 22 10.9998H20.677C19.8592 10.9998 19.1238 11.4977 18.8201 12.257L16 19.3072L9.85695 3.9496Z" fill="black"/>
</svg>
