<svg width="24" height="24" viewBox="0 0 24 24" fill="none" xmlns="http://www.w3.org/2000/svg">
<path fill-rule="evenodd" clip-rule="evenodd" d="M14.2945 2.38518C12.9172 1.42109 11.0841 1.42108 9.70681 2.38518L2.82923 7.19948C1.67061 8.01052 1.02639 9.37309 1.13486 10.7832L1.83988 19.9484C1.97285 21.677 3.53905 22.9334 5.25531 22.6882L8.42492 22.2354C9.90287 22.0243 11.0007 20.7585 11.0007 19.2656V18.0001C11.0007 17.4479 11.4484 17.0001 12.0007 17.0001C12.5529 17.0001 13.0007 17.4479 13.0007 18.0001V19.2656C13.0007 20.7585 14.0984 22.0243 15.5764 22.2354L18.746 22.6882C20.4623 22.9334 22.0285 21.677 22.1614 19.9484L22.8665 10.7832C22.9749 9.37309 22.3307 8.01052 21.1721 7.19949L14.2945 2.38518ZM10.8537 4.02364C11.5424 3.5416 12.4589 3.5416 13.1476 4.02365L20.0252 8.83795C20.6045 9.24347 20.9266 9.92475 20.8723 10.6298L20.1673 19.795C20.123 20.3712 19.6009 20.79 19.0289 20.7083L15.8592 20.2555C15.3666 20.1851 15.0007 19.7632 15.0007 19.2656V18.0001C15.0007 16.3433 13.6575 15.0001 12.0007 15.0001C10.3438 15.0001 9.00066 16.3433 9.00066 18.0001V19.2656C9.00066 19.7632 8.63473 20.1851 8.14208 20.2555L4.97246 20.7083C4.40038 20.79 3.87831 20.3712 3.83399 19.795L3.12897 10.6298C3.07474 9.92475 3.39685 9.24347 3.97616 8.83795L10.8537 4.02364Z" fill="black"/>
</svg>
