<svg width="24" height="24" viewBox="0 0 24 24" fill="none" xmlns="http://www.w3.org/2000/svg">
<path d="M6.18301 8.79827C6.66409 8.95863 7.04159 9.33614 7.20195 9.81722C7.36516 10.3068 8.0577 10.3068 8.2209 9.81722C8.38126 9.33614 8.75876 8.95863 9.23985 8.79827C9.72946 8.63507 9.72946 7.94253 9.23985 7.77933C8.75876 7.61897 8.38126 7.24146 8.2209 6.76038C8.0577 6.27077 7.36516 6.27077 7.20195 6.76038C7.04159 7.24146 6.66409 7.61897 6.18301 7.77933C5.69339 7.94253 5.69339 8.63507 6.18301 8.79827Z" fill="black"/>
<path fill-rule="evenodd" clip-rule="evenodd" d="M12 1C5.92487 1 1 5.92487 1 12C1 18.0751 5.92487 23 12 23C18.0751 23 23 18.0751 23 12C23 5.92487 18.0751 1 12 1ZM3 12C3 7.02944 7.02944 3 12 3C16.9706 3 21 7.02944 21 12C21 12.4672 20.9644 12.926 20.8958 13.374L16.8907 10.7253L16.889 10.7242C15.1738 9.58223 12.844 10.4699 12.3237 12.4641L12.3205 12.4769L11.9714 13.8913C10.6564 13.3809 9.13378 13.8586 8.3577 15.0791L5.82377 18.5463C4.08512 16.9054 3 14.5794 3 12ZM15.7843 12.3914L20.3352 15.4011C19.0267 18.6045 15.9252 20.8852 12.2779 20.9958L14.2603 12.9637C14.4366 12.3024 15.211 12.0092 15.7813 12.3894L15.7843 12.3914ZM11.4815 15.8759L10.2584 20.8316C9.2408 20.6321 8.28468 20.2611 7.42134 19.7499L10.0167 16.1986L10.0374 16.165C10.3195 15.7071 10.9132 15.5544 11.3813 15.8192L11.4815 15.8759Z" fill="black"/>
</svg>
