<svg width="24" height="24" viewBox="0 0 24 24" fill="none" xmlns="http://www.w3.org/2000/svg">
<path fill-rule="evenodd" clip-rule="evenodd" d="M3 7C3 5.89543 3.89543 5 5 5H16C16.5523 5 17 4.55228 17 4C17 3.44772 16.5523 3 16 3H5C2.79086 3 1 4.79086 1 7V18C1 20.2091 2.79086 22 5 22H19C21.2091 22 23 20.2091 23 18V10C23 9.44772 22.5523 9 22 9C21.4477 9 21 9.44772 21 10V14.6492L17.3438 10.079C15.6526 7.96503 12.3939 8.10644 10.8922 10.359L9.75253 12.0684C8.39009 11.3206 6.67121 11.7382 5.80752 13.0457L3 17.2956V7ZM15.7821 11.3284L21 17.8508V18C21 19.1046 20.1046 20 19 20H8.73703C7.93834 20 7.46195 19.1099 7.90498 18.4453L12.5563 11.4684C13.3071 10.3421 14.9365 10.2714 15.7821 11.3284ZM6.24088 17.3359C5.67321 18.1874 5.60871 19.1624 5.9078 20H5.5C4.94771 20 4.5 19.5523 4.5 19V18.9539C4.5 18.7579 4.55759 18.5662 4.66562 18.4027L7.47627 14.148C7.73105 13.7624 8.20908 13.609 8.63044 13.7516L6.24088 17.3359Z" fill="black"/>
<path d="M5.18301 8.79827C5.66409 8.95863 6.04159 9.33614 6.20195 9.81722C6.36516 10.3068 7.0577 10.3068 7.2209 9.81722C7.38126 9.33614 7.75876 8.95863 8.23985 8.79827C8.72946 8.63507 8.72946 7.94253 8.23985 7.77933C7.75876 7.61897 7.38126 7.24146 7.2209 6.76038C7.0577 6.27077 6.36516 6.27077 6.20195 6.76038C6.04159 7.24146 5.66409 7.61897 5.18301 7.77933C4.69339 7.94253 4.69339 8.63507 5.18301 8.79827Z" fill="black"/>
<path d="M22.2426 5.82843L22.9497 5.12132C23.3402 4.7308 23.3402 4.09763 22.9497 3.70711C22.5592 3.31658 21.926 3.31658 21.5355 3.70711L20.8284 4.41421L20.1213 3.70711C19.7307 3.31658 19.0976 3.31658 18.707 3.70711C18.3165 4.09763 18.3165 4.7308 18.707 5.12132L19.4142 5.82843L18.707 6.53553C18.3165 6.92606 18.3165 7.55922 18.707 7.94975C19.0976 8.34027 19.7307 8.34027 20.1213 7.94975L20.8284 7.24264L21.5355 7.94975C21.926 8.34027 22.5592 8.34027 22.9497 7.94975C23.3402 7.55922 23.3402 6.92606 22.9497 6.53553L22.2426 5.82843Z" fill="black"/>
</svg>
