<svg width="24" height="24" viewBox="0 0 24 24" fill="none" xmlns="http://www.w3.org/2000/svg">
<path d="M16 3C16.5523 3 17 3.44772 17 4C17 4.55228 16.5523 5 16 5H5C3.89543 5 3 5.89543 3 7V17.2959L5.80762 13.0459C6.67147 11.7382 8.38939 11.3229 9.75195 12.0713L10.8926 10.3594C12.3943 8.10683 15.6526 7.96512 17.3438 10.0791L21 14.6484V10C21 9.44772 21.4477 9 22 9C22.5523 9 23 9.44772 23 10V18C23 20.2091 21.2091 22 19 22H5C2.79086 22 1 20.2091 1 18V7C1 4.79086 2.79086 3 5 3H16ZM8.63086 13.752C8.20937 13.6091 7.73144 13.7626 7.47656 14.1484L4.66602 18.4023C4.55799 18.5659 4.5 18.7581 4.5 18.9541V19C4.5 19.5523 4.94771 20 5.5 20H5.90918C5.60991 19.1623 5.67344 18.1876 6.24121 17.3359L8.63086 13.752ZM15.7822 11.3281C14.9366 10.2712 13.3075 10.3425 12.5566 11.4688L7.90527 18.4453C7.46224 19.1099 7.93861 20 8.7373 20H19C20.1046 20 21 19.1046 21 18V17.8506L15.7822 11.3281ZM6.20117 6.76074C6.36438 6.27113 7.0575 6.27113 7.2207 6.76074C7.38113 7.24159 7.75836 7.61896 8.23926 7.7793C8.72886 7.9425 8.72883 8.63463 8.23926 8.79785C7.75818 8.95821 7.38106 9.3363 7.2207 9.81738C7.05747 10.3069 6.3644 10.3069 6.20117 9.81738C6.04081 9.3363 5.6637 8.95821 5.18262 8.79785C4.69304 8.63463 4.69302 7.9425 5.18262 7.7793C5.66351 7.61896 6.04074 7.24159 6.20117 6.76074ZM22 5C22.5523 5 23 5.44772 23 6C23 6.55228 22.5523 7 22 7H18C17.4477 7 17 6.55228 17 6C17 5.44772 17.4477 5 18 5H22Z" fill="black"/>
</svg>
