<svg width="24" height="24" viewBox="0 0 24 24" fill="none" xmlns="http://www.w3.org/2000/svg">
<path d="M8.73906 3.93156C10.1202 1.35618 13.8814 1.35611 15.2625 3.93156L21.574 15.705C22.8852 18.1512 21.0381 20.9995 18.3123 20.9999H5.68925C2.96333 20.9997 1.11618 18.1513 2.42754 15.705L8.73906 3.93156ZM13.4998 4.87688C12.8729 3.70779 11.1287 3.70785 10.5018 4.87688L4.19023 16.6503C3.63648 17.6837 4.38288 18.9997 5.68925 18.9999H18.3123C19.6185 18.9995 20.3649 17.6836 19.8113 16.6503L13.4998 4.87688ZM12.0008 15.4999C12.691 15.5001 13.2508 16.0597 13.2508 16.7499C13.2508 17.4402 12.691 17.9998 12.0008 17.9999C11.3104 17.9999 10.7508 17.4403 10.7508 16.7499C10.7508 16.0596 11.3104 15.4999 12.0008 15.4999ZM12.0008 5.99992C12.5529 6.00006 13.0008 6.44772 13.0008 6.99992V13.9999C13.0008 14.5521 12.5529 14.9998 12.0008 14.9999C11.4485 14.9999 11.0008 14.5522 11.0008 13.9999V6.99992C11.0008 6.44764 11.4485 5.99992 12.0008 5.99992Z" fill="black"/>
</svg>
