<svg width="24" height="24" viewBox="0 0 24 24" fill="none" xmlns="http://www.w3.org/2000/svg">
<path d="M11.9993 5.99956C12.5516 5.99956 12.9993 6.44727 12.9993 6.99956V13.9996C12.9993 14.5518 12.5516 14.9996 11.9993 14.9996C11.447 14.9996 10.9993 14.5518 10.9993 13.9996V6.99956C10.9993 6.44727 11.447 5.99956 11.9993 5.99956Z" fill="black"/>
<path d="M11.9993 17.9996C11.3089 17.9996 10.7493 17.4399 10.7493 16.7496C10.7493 16.0592 11.3089 15.4996 11.9993 15.4996C12.6896 15.4996 13.2493 16.0592 13.2493 16.7496C13.2493 17.4399 12.6896 17.9996 11.9993 17.9996Z" fill="black"/>
<path fill-rule="evenodd" clip-rule="evenodd" d="M14.0064 1.00778C12.7652 0.287771 11.2334 0.287771 9.99218 1.00778L6.74356 2.89228L3.48367 4.76547C2.23952 5.48038 1.47363 6.80694 1.47657 8.24187L1.48428 11.9975V12.0016L1.47657 15.7572C1.47363 17.1922 2.23952 18.5187 3.48367 19.2336L6.74 21.1048L6.74356 21.1068L9.99218 22.9913C11.2334 23.7113 12.7652 23.7113 14.0064 22.9913L17.255 21.1068L17.2586 21.1048L20.5149 19.2336C21.759 18.5187 22.5249 17.1922 22.522 15.7572L22.5143 12.0016V11.9975L22.522 8.24187C22.5249 6.80695 21.759 5.48038 20.5149 4.76547L17.2586 2.89433L17.255 2.89228L14.0064 1.00778ZM10.9957 2.73778C11.6163 2.37777 12.3822 2.37777 13.0028 2.73778L16.255 4.62432L16.2586 4.62638L19.5184 6.49957C20.1405 6.85702 20.5235 7.52031 20.522 8.23777L20.5143 11.9975V12.0016L20.522 15.7613C20.5235 16.4788 20.1405 17.1421 19.5184 17.4995L16.2586 19.3727L16.255 19.3748L13.0028 21.2613C12.3822 21.6213 11.6163 21.6213 10.9957 21.2613L7.74356 19.3748L4.48012 17.4995C3.85804 17.1421 3.4751 16.4788 3.47657 15.7613L3.48428 12.0016V11.9975L3.47657 8.23777C3.4751 7.52031 3.85804 6.85702 4.48012 6.49957L7.74 4.62638L7.74355 4.62432L10.9957 2.73778Z" fill="black"/>
</svg>
