<svg width="24" height="24" viewBox="0 0 24 24" fill="none" xmlns="http://www.w3.org/2000/svg">
<path d="M4.46087 18.1251L4.65786 19.166C4.70989 19.4409 4.84111 19.6907 5.03576 19.8854C5.59385 20.4435 6.52335 20.4188 7.11185 19.8303L14.6271 12.315C15.1217 11.8205 15.8108 11.5802 16.481 11.6686C18.4351 11.9263 20.3057 10.5166 20.6304 8.5415L20.7024 8.10366C21.1125 5.60893 19.1159 3.50202 16.6103 3.78538L16.1356 3.83906C14.0392 4.07613 12.5282 6.089 12.9144 8.12994C13.0451 8.82057 12.8126 9.54904 12.297 10.0647L10.9497 11.412C10.6197 11.742 10.2196 11.9924 9.7828 12.1423L8.54848 12.566C7.86461 12.8007 7.31912 13.3462 7.0844 14.0301C6.88649 14.6067 6.46561 15.0898 5.91927 15.3675L5.83487 15.4104C4.82327 15.9247 4.2564 17.0447 4.46087 18.1251Z" stroke="black" stroke-width="2" stroke-linecap="round"/>
<circle cx="1" cy="1" r="1" transform="matrix(0.707107 0.707107 0.707107 -0.707107 15.4355 7.65723)" fill="black"/>
</svg>
