<svg width="24" height="24" viewBox="0 0 24 24" fill="none" xmlns="http://www.w3.org/2000/svg">
<path d="M5 12C5 11.4477 5.44772 11 6 11H8C8.55228 11 9 11.4477 9 12C9 12.5523 8.55228 13 8 13H6C5.44772 13 5 12.5523 5 12Z" fill="black"/>
<path d="M11 11C10.4477 11 10 11.4477 10 12C10 12.5523 10.4477 13 11 13H13C13.5523 13 14 12.5523 14 12C14 11.4477 13.5523 11 13 11H11Z" fill="black"/>
<path d="M15 12C15 11.4477 15.4477 11 16 11H18C18.5523 11 19 11.4477 19 12C19 12.5523 18.5523 13 18 13H16C15.4477 13 15 12.5523 15 12Z" fill="black"/>
<path d="M18 17C18.5523 17 19 16.5523 19 16C19 15.4477 18.5523 15 18 15H17C16.4477 15 16 15.4477 16 16C16 16.5523 16.4477 17 17 17H18Z" fill="black"/>
<path d="M8 16C8 16.5523 7.55228 17 7 17H6C5.44772 17 5 16.5523 5 16C5 15.4477 5.44772 15 6 15H7C7.55228 15 8 15.4477 8 16Z" fill="black"/>
<path d="M10 15C9.44772 15 9 15.4477 9 16C9 16.5523 9.44772 17 10 17H14.5C15.0523 17 15.5 16.5523 15.5 16C15.5 15.4477 15.0523 15 14.5 15H10Z" fill="black"/>
<path fill-rule="evenodd" clip-rule="evenodd" d="M15.9999 4.49997C15.9999 3.94769 15.5522 3.49999 14.9999 3.5C14.4476 3.50001 13.9999 3.94774 13.9999 4.50003C13.9999 4.67334 13.9397 4.95556 13.7884 5.16571C13.6738 5.32487 13.4741 5.5 13 5.5C12.4702 5.5 11.9655 5.60956 11.5511 5.89767C11.1184 6.19848 10.8896 6.62054 10.7983 7.03514C10.7641 7.19087 10.7485 7.34687 10.7472 7.5H6C3.79086 7.5 2 9.29086 2 11.5V16.5C2 18.7091 3.79086 20.5 6 20.5H18C20.2091 20.5 22 18.7091 22 16.5V11.5C22 9.29086 20.2091 7.5 18 7.5H13C14.1259 7.5 14.9261 7.00847 15.4115 6.33429C15.8602 5.71111 16 4.99333 15.9999 4.49997ZM11.9799 9.5C11.9938 9.50029 12.0077 9.50029 12.0217 9.5H18C19.1046 9.5 20 10.3954 20 11.5V16.5C20 17.6046 19.1046 18.5 18 18.5H6C4.89543 18.5 4 17.6046 4 16.5V11.5C4 10.3954 4.89543 9.5 6 9.5H11.9799Z" fill="black"/>
</svg>
