<svg width="24" height="24" viewBox="0 0 24 24" fill="none" xmlns="http://www.w3.org/2000/svg">
<path fill-rule="evenodd" clip-rule="evenodd" d="M5.8952 2C4.8761 2 4.01998 2.76627 3.90743 3.77914L3.12966 10.7791C2.99802 11.9639 3.9254 13 5.11742 13H11.0002V20H8.00016C7.44788 20 7.00016 20.4477 7.00016 21C7.00016 21.5523 7.44788 22 8.00016 22H16.0002C16.5524 22 17.0002 21.5523 17.0002 21C17.0002 20.4477 16.5524 20 16.0002 20H13.0002V13H18.8829C20.0749 13 21.0023 11.9639 20.8707 10.7791L20.0929 3.77914C19.9803 2.76627 19.1242 2 18.1051 2H5.8952ZM5.11742 11L5.8952 4H18.1051L18.8829 11H5.11742Z" fill="black"/>
</svg>
