<svg width="24" height="24" viewBox="0 0 24 24" fill="none" xmlns="http://www.w3.org/2000/svg">
<path fill-rule="evenodd" clip-rule="evenodd" d="M5 1.5C2.79086 1.5 1 3.29086 1 5.5V15.5C1 17.7091 2.79086 19.5 5 19.5H19C21.2091 19.5 23 17.7091 23 15.5V5.5C23 3.29086 21.2091 1.5 19 1.5H5ZM3 5.5C3 4.39543 3.89543 3.5 5 3.5H19C20.1046 3.5 21 4.39543 21 5.5V15.5C21 16.6046 20.1046 17.5 19 17.5H5C3.89543 17.5 3 16.6046 3 15.5V5.5Z" fill="black"/>
<path d="M2 20.5C1.44772 20.5 1 20.9477 1 21.5C1 22.0523 1.44772 22.5 2 22.5H22C22.5523 22.5 23 22.0523 23 21.5C23 20.9477 22.5523 20.5 22 20.5H2Z" fill="black"/>
</svg>
