<svg width="24" height="24" viewBox="0 0 24 24" fill="none" xmlns="http://www.w3.org/2000/svg">
<path d="M11.5781 3.09827C11.8528 3.01798 12.1453 3.01807 12.4199 3.09827L12.5557 3.14514L21.21 6.60706C22.467 7.11002 22.467 8.88926 21.21 9.39221L19.6914 9.99866L21.21 10.6071C22.467 11.11 22.467 12.8893 21.21 13.3922L19.6914 13.9987L21.21 14.6071C22.467 15.11 22.467 16.8893 21.21 17.3922L12.5557 20.8541C12.1984 20.9968 11.7996 20.9969 11.4424 20.8541L2.78809 17.3922C1.53162 16.8891 1.53153 15.1101 2.78809 14.6071L4.30567 13.9987L2.78809 13.3922C1.53162 12.8891 1.53153 11.1101 2.78809 10.6071L4.30567 9.99866L2.78809 9.39221C1.53162 8.88906 1.53153 7.11011 2.78809 6.60706L11.4424 3.14514L11.5781 3.09827ZM12.5557 16.8541C12.1984 16.9968 11.7996 16.9969 11.4424 16.8541L6.99903 15.0758L4.69043 15.9996L11.999 18.9225L19.3066 15.9996L16.9981 15.0758L12.5557 16.8541ZM12.5557 12.8541C12.1984 12.9968 11.7996 12.9969 11.4424 12.8541L6.99903 11.0758L4.69043 11.9996L11.999 14.9225L19.3066 11.9996L16.9981 11.0758L12.5557 12.8541ZM4.69043 7.99964L11.999 10.9225L19.3066 7.99964L11.999 5.07581L4.69043 7.99964Z" fill="black"/>
</svg>
