<svg width="24" height="24" viewBox="0 0 24 24" fill="none" xmlns="http://www.w3.org/2000/svg">
<path d="M4.22183 4.22183C8.51759 -0.0739418 15.4827 -0.0739416 19.7785 4.22183C24.0742 8.51759 24.0742 15.4827 19.7785 19.7785C15.4827 24.0742 8.51759 24.0742 4.22183 19.7785C-0.0739416 15.4827 -0.0739418 8.51759 4.22183 4.22183ZM15.4757 16.8898C13.4009 18.3683 10.5982 18.3686 8.52358 16.8898L6.38296 19.0304C9.65879 21.6544 14.3404 21.6541 17.6164 19.0304L15.4757 16.8898ZM4.9689 6.38296C2.34539 9.65861 2.3457 14.3405 4.9689 17.6164L7.10952 15.4757C5.63142 13.4011 5.63111 10.598 7.10952 8.52358L4.9689 6.38296ZM16.8898 8.52358C18.3686 10.5982 18.3683 13.4009 16.8898 15.4757L19.0304 17.6164C21.6541 14.3404 21.6544 9.65879 19.0304 6.38296L16.8898 8.52358ZM14.8283 9.17202C13.2662 7.60992 10.7341 7.60992 9.17202 9.17202C7.60992 10.7341 7.60992 13.2662 9.17202 14.8283C10.7341 16.3904 13.2662 16.3904 14.8283 14.8283C16.3904 13.2662 16.3904 10.7341 14.8283 9.17202ZM17.6164 4.9689C14.3405 2.3457 9.65861 2.34539 6.38296 4.9689L8.52358 7.10952C10.598 5.63111 13.4011 5.63142 15.4757 7.10952L17.6164 4.9689Z" fill="black"/>
</svg>
