<svg width="24" height="24" viewBox="0 0 24 24" fill="none" xmlns="http://www.w3.org/2000/svg">
<path d="M13.0002 3.92332V8.17157L11.0451 10.1266C11.0158 10.0228 11.0002 9.91321 11.0002 9.8V7.61661L8.87103 12.3007L6.49288 14.6788C6.13662 14.3452 5.99122 13.8031 6.21832 13.3034L10.7077 3.42676C11.2417 2.2519 13.0002 2.63279 13.0002 3.92332Z" fill="black"/>
<path d="M15.1293 11.6993L17.5074 9.32115C17.8637 9.65476 18.0091 10.1969 17.782 10.6966L13.2926 20.5732C12.7586 21.7481 11.0002 21.3672 11.0002 20.0767V15.8284L12.9552 13.8734C12.9845 13.9772 13.0002 14.0868 13.0002 14.2V16.3834L15.1293 11.6993Z" fill="black"/>
<path d="M20.7071 4.70711C21.0976 4.31658 21.0976 3.68342 20.7071 3.29289C20.3166 2.90237 19.6834 2.90237 19.2929 3.29289L3.29289 19.2929C2.90237 19.6834 2.90237 20.3166 3.29289 20.7071C3.68342 21.0976 4.31658 21.0976 4.70711 20.7071L20.7071 4.70711Z" fill="black"/>
</svg>
