<svg width="24" height="24" viewBox="0 0 24 24" fill="none" xmlns="http://www.w3.org/2000/svg">
<path fill-rule="evenodd" clip-rule="evenodd" d="M7.59771 7.79215C7.16138 7.28768 6.52198 6.96935 5.80948 6.96935L5.05526 6.96934C4.87403 6.96926 4.71822 6.9692 4.57707 6.98334C3.22059 7.11923 2.14738 8.21084 2.01378 9.59059C1.99988 9.73416 1.99994 9.89263 2.00001 10.077V17.4234C1.99994 17.6078 1.99988 17.7663 2.01378 17.9098C2.14738 19.2896 3.22059 20.3812 4.57707 20.5171C4.71823 20.5312 4.87404 20.5312 5.05528 20.5311L5.80948 20.5311C6.5908 20.5311 7.28421 20.1483 7.71834 19.557L9.69382 20.8129C10.0772 21.0572 10.4166 21.2735 10.8061 21.3872C11.1956 21.5008 11.5961 21.5003 12.0485 21.4998L15.9264 21.4999C16.5149 21.5007 17.0368 21.5015 17.5271 21.3141C18.0174 21.1267 18.4097 20.7766 18.852 20.3818L20.3735 19.0275L20.4827 18.9306C21.0144 18.4589 21.4866 18.04 21.7444 17.4624C22.0021 16.8847 22.001 16.2473 21.9998 15.5297L21.9997 15.3824L21.9997 14.0488C21.9997 13.2476 21.9998 12.557 21.9309 12.001C21.8573 11.4069 21.692 10.833 21.2637 10.3502C21.1983 10.2765 21.1292 10.2062 21.0567 10.1397C20.5821 9.70401 20.0178 9.53592 19.4338 9.46107C18.8871 9.391 18.2082 9.39104 17.4205 9.39108L17.2379 9.39109C16.625 9.39109 16.2586 9.38917 16.0049 9.35607L15.9823 9.35298L15.9897 9.33107C16.074 9.0855 16.2362 8.75132 16.5103 8.19371L17.2332 6.72317L17.2433 6.70249C17.9387 5.27261 17.3708 3.53991 15.9711 2.82037L15.9508 2.81001L15.9363 2.80267C14.9074 2.2836 13.6729 2.44166 12.8026 3.2039L7.59771 7.79215ZM14.0454 4.67205C14.3355 4.41797 14.747 4.36528 15.09 4.53831L15.099 4.54287L15.112 4.54948C15.5785 4.78933 15.7678 5.3669 15.536 5.84352L14.7813 7.3789C14.5411 7.86742 14.3212 8.31468 14.1915 8.69224C14.0554 9.0885 13.9429 9.6132 14.1712 10.1547C14.2456 10.3312 14.3454 10.4955 14.4673 10.6421C14.8414 11.0921 15.3532 11.2243 15.7625 11.2777C16.1525 11.3286 16.6441 11.3285 17.1811 11.3285L17.3621 11.3285C18.2248 11.3285 18.7823 11.3303 19.1957 11.3833C19.5852 11.4332 19.7116 11.5146 19.7806 11.578C19.8048 11.6002 19.8278 11.6236 19.8496 11.6482C19.9119 11.7184 19.992 11.847 20.0411 12.2432C20.0932 12.6637 20.095 13.2307 20.095 14.1082V15.3824C20.095 16.3352 20.0751 16.5156 20.0098 16.6618C19.9446 16.808 19.8242 16.942 19.1193 17.5694L17.6879 18.8434C17.1026 19.3643 16.9816 19.4529 16.8572 19.5005C16.7327 19.5481 16.5842 19.5624 15.8065 19.5624H12.14C11.5449 19.5624 11.4303 19.5538 11.3312 19.5248C11.2321 19.4959 11.1304 19.4415 10.6258 19.1207L8.19039 17.5724V9.83342L14.0454 4.67205ZM5.80948 8.90674C6.07247 8.90674 6.28566 9.12359 6.28566 9.39109V18.1093C6.28566 18.3768 6.07247 18.5937 5.80948 18.5937H5.09521C4.85144 18.5937 4.79859 18.5925 4.76377 18.589C4.31161 18.5437 3.95387 18.1799 3.90934 17.7199C3.90591 17.6845 3.90475 17.6308 3.90475 17.3828V10.1176C3.90475 9.86966 3.90591 9.81591 3.90934 9.78048C3.95387 9.32057 4.31161 8.9567 4.76377 8.9114C4.79859 8.90791 4.85144 8.90674 5.09521 8.90674H5.80948Z" fill="black"/>
</svg>
