<svg width="24" height="24" viewBox="0 0 24 24" fill="none" xmlns="http://www.w3.org/2000/svg">
<path d="M12.7076 4.22228C14.6602 2.26966 17.826 2.26966 19.7786 4.22228C21.7312 6.1749 21.7312 9.34072 19.7786 11.2933L16.9502 14.1218C16.5597 14.5123 15.9265 14.5123 15.536 14.1218C15.1455 13.7312 15.1455 13.0981 15.536 12.7076L18.3644 9.87913C19.536 8.70756 19.536 6.80806 18.3644 5.63649C17.1928 4.46492 15.2933 4.46492 14.1218 5.63649L11.2933 8.46492C10.9028 8.85544 10.2697 8.85544 9.87913 8.46492C9.48861 8.07439 9.48861 7.44123 9.87913 7.05071L12.7076 4.22228Z" fill="black"/>
<path d="M8.46492 9.87913C8.85544 10.2697 8.85544 10.9028 8.46492 11.2933L5.63649 14.1218C4.46492 15.2933 4.46492 17.1928 5.63649 18.3644C6.80806 19.536 8.70756 19.536 9.87913 18.3644L12.7076 15.536C13.0981 15.1455 13.7312 15.1455 14.1218 15.536C14.5123 15.9265 14.5123 16.5597 14.1218 16.9502L11.2933 19.7786C9.34072 21.7312 6.1749 21.7312 4.22228 19.7786C2.26966 17.826 2.26966 14.6602 4.22228 12.7076L7.05071 9.87913C7.44123 9.48861 8.07439 9.48861 8.46492 9.87913Z" fill="black"/>
<path d="M19.3644 15.5358C19.3644 16.0881 18.9167 16.5358 18.3644 16.5358H16.9502C16.6763 16.5358 16.4281 16.4257 16.2475 16.2473C16.4259 16.4279 16.536 16.6761 16.536 16.95V18.3642C16.536 18.9165 16.0883 19.3642 15.536 19.3642C14.9837 19.3642 14.536 18.9165 14.536 18.3642V16.95C14.536 16.3977 14.9837 15.95 15.536 15.95C15.8099 15.95 16.0581 16.0601 16.2387 16.2385C16.0603 16.0579 15.9502 15.8097 15.9502 15.5358C15.9502 14.9836 16.3979 14.5358 16.9502 14.5358H18.3644C18.9167 14.5358 19.3644 14.9836 19.3644 15.5358Z" fill="black"/>
<path d="M8.46494 4.63653C7.91266 4.63653 7.46494 5.08424 7.46494 5.63653V7.05074C7.46494 7.32464 7.57506 7.57283 7.75345 7.75343C7.57284 7.57503 7.32464 7.4649 7.05072 7.4649H5.63651C5.08423 7.4649 4.63651 7.91261 4.63651 8.4649C4.63651 9.01718 5.08423 9.4649 5.63651 9.4649H7.05072C7.60301 9.4649 8.05072 9.01718 8.05072 8.4649C8.05072 8.19099 7.9406 7.94281 7.76222 7.76221C7.94283 7.94061 8.19102 8.05074 8.46494 8.05074C9.01723 8.05074 9.46494 7.60303 9.46494 7.05074V5.63653C9.46494 5.08424 9.01723 4.63653 8.46494 4.63653Z" fill="black"/>
</svg>
