<svg width="24" height="24" viewBox="0 0 24 24" fill="none" xmlns="http://www.w3.org/2000/svg">
<path d="M2 4.5C2 3.94772 2.44772 3.5 3 3.5H21C21.5523 3.5 22 3.94772 22 4.5C22 5.05228 21.5523 5.5 21 5.5H3C2.44772 5.5 2 5.05228 2 4.5Z" fill="black"/>
<path d="M2 9.5C2 8.94772 2.44772 8.5 3 8.5H19C19.5523 8.5 20 8.94772 20 9.5C20 10.0523 19.5523 10.5 19 10.5H3C2.44772 10.5 2 10.0523 2 9.5Z" fill="black"/>
<path d="M3 13.5C2.44772 13.5 2 13.9477 2 14.5C2 15.0523 2.44772 15.5 3 15.5H17C17.5523 15.5 18 15.0523 18 14.5C18 13.9477 17.5523 13.5 17 13.5H3Z" fill="black"/>
<path d="M2 19.5C2 18.9477 2.44772 18.5 3 18.5H15C15.5523 18.5 16 18.9477 16 19.5C16 20.0523 15.5523 20.5 15 20.5H3C2.44772 20.5 2 20.0523 2 19.5Z" fill="black"/>
<path d="M21 17.5C21 16.9477 20.5523 16.5 20 16.5C19.4477 16.5 19 16.9477 19 17.5V18.5H18C17.4477 18.5 17 18.9477 17 19.5C17 20.0523 17.4477 20.5 18 20.5H19V21.5C19 22.0523 19.4477 22.5 20 22.5C20.5523 22.5 21 22.0523 21 21.5V20.5H22C22.5523 20.5 23 20.0523 23 19.5C23 18.9477 22.5523 18.5 22 18.5H21V17.5Z" fill="black"/>
</svg>
