<svg width="24" height="24" viewBox="0 0 24 24" fill="none" xmlns="http://www.w3.org/2000/svg">
<path d="M13 15C13 14.4477 12.5523 14 12 14C11.4477 14 11 14.4477 11 15V17C11 17.5523 11.4477 18 12 18C12.5523 18 13 17.5523 13 17V15Z" fill="black"/>
<path fill-rule="evenodd" clip-rule="evenodd" d="M8 6.75C8 4.67893 9.67893 3 11.75 3C13.8211 3 15.5 4.67893 15.5 6.75V7.5C15.5 8.05228 15.9477 8.5 16.5 8.5C17.0523 8.5 17.5 8.05228 17.5 7.5V6.75C17.5 3.57436 14.9256 1 11.75 1C8.57436 1 6 3.57436 6 6.75V9C3.79086 9 2 10.7909 2 13V19C2 21.2091 3.79086 23 6 23H18C20.2091 23 22 21.2091 22 19V13C22 10.7909 20.2091 9 18 9H8V6.75ZM4 13C4 11.8954 4.89543 11 6 11H18C19.1046 11 20 11.8954 20 13V19C20 20.1046 19.1046 21 18 21H6C4.89543 21 4 20.1046 4 19V13Z" fill="black"/>
</svg>
