<svg width="24" height="24" viewBox="0 0 24 24" fill="none" xmlns="http://www.w3.org/2000/svg">
<path d="M13 15C13 14.4477 12.5523 14 12 14C11.4477 14 11 14.4477 11 15V17C11 17.5523 11.4477 18 12 18C12.5523 18 13 17.5523 13 17V15Z" fill="black"/>
<path fill-rule="evenodd" clip-rule="evenodd" d="M18 7C18 3.68629 15.3137 1 12 1C8.68629 1 6 3.68629 6 7V9C3.79086 9 2 10.7909 2 13V19C2 21.2091 3.79086 23 6 23H18C20.2091 23 22 21.2091 22 19V13C22 10.7909 20.2091 9 18 9V7ZM8 7C8 4.79086 9.79086 3 12 3C14.2091 3 16 4.79086 16 7V9H8V7ZM4 13C4 11.8954 4.89543 11 6 11H18C19.1046 11 20 11.8954 20 13V19C20 20.1046 19.1046 21 18 21H6C4.89543 21 4 20.1046 4 19V13Z" fill="black"/>
</svg>
