<svg width="24" height="24" viewBox="0 0 24 24" fill="none" xmlns="http://www.w3.org/2000/svg">
<path fill-rule="evenodd" clip-rule="evenodd" d="M23 3.42948C23 2.04059 21.6191 1.07455 20.3144 1.55066L13.0165 4.21377L5.68817 4.78681C3.60632 4.9496 2 6.68644 2 8.77464V10.2255C2 12.3137 3.60633 14.0505 5.68817 14.2133L6.10077 14.2456L6.80448 20.3589C6.97774 21.8641 8.25202 23.0001 9.76707 23.0001C11.5542 23.0001 12.9401 21.4389 12.7282 19.6643L12.1375 14.7176L13.0165 14.7864L20.3144 17.4495C21.6191 17.9256 23 16.9595 23 15.5707V3.42948ZM5.84408 6.78072L12.2308 6.28131V12.7188L5.84409 12.2194C4.80316 12.138 4 11.2696 4 10.2255V8.77464C4 7.73054 4.80316 6.86212 5.84408 6.78072ZM21 15.5707L14.2308 13.1005V5.89965L21 3.42948L21 15.5707ZM8.79136 20.1302L8.13226 14.4044L10.1043 14.5586L10.7423 19.9015C10.8121 20.4859 10.3557 21.0001 9.76707 21.0001C9.2681 21.0001 8.84842 20.6259 8.79136 20.1302Z" fill="black"/>
</svg>
