<svg width="24" height="24" viewBox="0 0 24 24" fill="none" xmlns="http://www.w3.org/2000/svg">
<path fill-rule="evenodd" clip-rule="evenodd" d="M3.00027 17C3.00027 18.1046 3.8957 19 5.00027 19H15.0003C15.5526 19 16.0003 19.4477 16.0003 20C16.0003 20.5523 15.5526 21 15.0003 21H5.00027C2.79113 21 1.00027 19.2091 1.00027 17V8.02268C0.999912 8.00739 0.999911 7.99206 1.00027 7.97671V7C1.00027 4.79086 2.79113 3 5.00027 3H19.0003C21.2094 3 23.0003 4.79086 23.0003 7V7.9767C23.0006 7.99206 23.0006 8.00739 23.0003 8.02268V16C23.0003 16.5523 22.5525 17 22.0003 17C21.448 17 21.0003 16.5523 21.0003 16V9.47703L13.4858 12.4828C12.5322 12.8643 11.4683 12.8643 10.5147 12.4828L3.00027 9.47703V17ZM3.00027 7V7.32297L11.2575 10.6259C11.7343 10.8166 12.2662 10.8166 12.743 10.6259L21.0003 7.32297V7C21.0003 5.89543 20.1048 5 19.0003 5H5.00027C3.8957 5 3.00027 5.89543 3.00027 7Z" fill="black"/>
<path d="M21.4145 20.0001L22.1216 19.293C22.5121 18.9024 22.5121 18.2693 22.1216 17.8787C21.7311 17.4882 21.0979 17.4882 20.7074 17.8787L20.0003 18.5858L19.2932 17.8787C18.9026 17.4882 18.2695 17.4882 17.8789 17.8787C17.4884 18.2693 17.4884 18.9024 17.8789 19.293L18.5861 20.0001L17.8789 20.7072C17.4884 21.0977 17.4884 21.7309 17.8789 22.1214C18.2695 22.5119 18.9026 22.5119 19.2932 22.1214L20.0003 21.4143L20.7074 22.1214C21.0979 22.5119 21.7311 22.5119 22.1216 22.1214C22.5121 21.7309 22.5121 21.0977 22.1216 20.7072L21.4145 20.0001Z" fill="black"/>
</svg>
