<svg width="24" height="24" viewBox="0 0 24 24" fill="none" xmlns="http://www.w3.org/2000/svg">
<path fill-rule="evenodd" clip-rule="evenodd" d="M11.9992 5.50011C9.5139 5.50011 7.49918 7.51483 7.49918 10.0001C7.49918 12.4854 9.5139 14.5001 11.9992 14.5001C14.4845 14.5001 16.4992 12.4854 16.4992 10.0001C16.4992 7.51483 14.4845 5.50011 11.9992 5.50011ZM9.49918 10.0001C9.49918 8.6194 10.6185 7.50011 11.9992 7.50011C13.3799 7.50011 14.4992 8.6194 14.4992 10.0001C14.4992 11.3808 13.3799 12.5001 11.9992 12.5001C10.6185 12.5001 9.49918 11.3808 9.49918 10.0001Z" fill="black"/>
<path fill-rule="evenodd" clip-rule="evenodd" d="M7.80842 3.5921C10.3461 1.90029 13.6522 1.90029 16.1899 3.5921C19.6208 5.87937 20.584 10.4951 18.3543 13.9637L14.5227 19.9239C13.3418 21.7608 10.6566 21.7608 9.47564 19.9239L5.64408 13.9637C3.4143 10.4951 4.37752 5.87937 7.80842 3.5921ZM8.91782 5.2562C10.7837 4.01226 13.2146 4.01226 15.0805 5.2562C17.6032 6.93797 18.3114 10.3318 16.6719 12.8821L12.8404 18.8424C12.4467 19.4547 11.5516 19.4547 11.158 18.8424L7.32643 12.8821C5.68694 10.3318 6.39517 6.93797 8.91782 5.2562Z" fill="black"/>
</svg>
