<svg width="24" height="24" viewBox="0 0 24 24" fill="none" xmlns="http://www.w3.org/2000/svg">
<path fill-rule="evenodd" clip-rule="evenodd" d="M6 2C3.79086 2 2 3.79086 2 6V18C2 20.2091 3.79086 22 6 22H18C20.2091 22 22 20.2091 22 18V6C22 3.79086 20.2091 2 18 2H6ZM4 6C4 4.89543 4.89543 4 6 4H18C19.1046 4 20 4.89543 20 6V6.45434L9.56544 13.1689L4 6.15159V6ZM10.8143 14.7435L20 8.83264V18C20 19.1046 19.1046 20 18 20H14.9832L10.8143 14.7435ZM12.4306 20H6C4.89543 20 4 19.1046 4 18V9.37015L12.4306 20Z" fill="black"/>
</svg>
