<svg width="24" height="24" viewBox="0 0 24 24" fill="none" xmlns="http://www.w3.org/2000/svg">
<path fill-rule="evenodd" clip-rule="evenodd" d="M10.8944 7.82918C9.56463 7.16428 8 8.13127 8 9.61803V14.382C8 15.8687 9.56462 16.8357 10.8944 16.1708L15.6584 13.7889C17.1325 13.0518 17.1325 10.9482 15.6584 10.2111L10.8944 7.82918ZM10 9.61803L14.7639 12L10 14.382V9.61803Z" fill="black"/>
<path fill-rule="evenodd" clip-rule="evenodd" d="M5 2.5C2.79086 2.5 1 4.29086 1 6.5V17.5C1 19.7091 2.79086 21.5 5 21.5H19C21.2091 21.5 23 19.7091 23 17.5V6.5C23 4.29086 21.2091 2.5 19 2.5H5ZM3 6.5C3 5.39543 3.89543 4.5 5 4.5H19C20.1046 4.5 21 5.39543 21 6.5V17.5C21 18.6046 20.1046 19.5 19 19.5H5C3.89543 19.5 3 18.6046 3 17.5V6.5Z" fill="black"/>
</svg>
