<svg width="24" height="24" viewBox="0 0 24 24" fill="none" xmlns="http://www.w3.org/2000/svg">
<path fill-rule="evenodd" clip-rule="evenodd" d="M8.01772 7.82297C9.17364 7.40617 10 6.29959 10 5C10 3.34315 8.65685 2 7 2C5.34315 2 4 3.34315 4 5C4 6.30622 4.83481 7.41746 6 7.82929V16.1707C4.83481 16.5825 4 17.6938 4 19C4 20.6569 5.34315 22 7 22C8.65685 22 10 20.6569 10 19C10 17.6938 9.16519 16.5825 8 16.1707V13.4199C8.3022 13.9588 8.63247 14.4944 8.98627 15.0133C9.86807 16.3066 10.919 17.5298 12.0777 18.4396C12.9964 19.1609 14.0345 19.7249 15.1447 19.9231C15.5341 21.1283 16.6652 22 18 22C19.6569 22 21 20.6569 21 19C21 17.3431 19.6569 16 18 16C16.7353 16 15.6534 16.7826 15.2121 17.8899C14.6117 17.7273 13.9734 17.3852 13.3129 16.8666C12.3623 16.1202 11.4444 15.0684 10.6387 13.8867C9.83563 12.7088 9.16677 11.4354 8.70167 10.2749C8.30352 9.2814 8.07948 8.43197 8.01772 7.82297ZM7 4C7.55228 4 8 4.44772 8 5C8 5.55228 7.55228 6 7 6C6.44772 6 6 5.55228 6 5C6 4.44772 6.44772 4 7 4ZM17 19C17 19.5523 17.4477 20 18 20C18.5523 20 19 19.5523 19 19C19 18.4477 18.5523 18 18 18C17.4477 18 17 18.4477 17 19ZM6 19C6 18.4477 6.44772 18 7 18C7.55228 18 8 18.4477 8 19C8 19.5523 7.55228 20 7 20C6.44772 20 6 19.5523 6 19Z" fill="black"/>
</svg>
