<svg width="24" height="24" viewBox="0 0 24 24" fill="none" xmlns="http://www.w3.org/2000/svg">
<path d="M7 7.5C6.44772 7.5 6 7.94772 6 8.5C6 9.05228 6.44772 9.5 7 9.5H17C17.5523 9.5 18 9.05228 18 8.5C18 7.94772 17.5523 7.5 17 7.5H7Z" fill="black"/>
<path d="M6 13C6 12.4477 6.44772 12 7 12H10C10.5523 12 11 12.4477 11 13C11 13.5523 10.5523 14 10 14H7C6.44772 14 6 13.5523 6 13Z" fill="black"/>
<path d="M15 14.5C14.4477 14.5 14 14.9477 14 15.5C14 16.0523 14.4477 16.5 15 16.5H17C17.5523 16.5 18 16.0523 18 15.5C18 14.9477 17.5523 14.5 17 14.5H15Z" fill="black"/>
<path d="M14 18C14 17.4477 14.4477 17 15 17H19C19.5523 17 20 17.4477 20 18C20 18.5523 19.5523 19 19 19H15C14.4477 19 14 18.5523 14 18Z" fill="black"/>
<path fill-rule="evenodd" clip-rule="evenodd" d="M22 12.7639V6.5C22 4.29086 20.2091 2.5 18 2.5H6C3.79086 2.5 2 4.29086 2 6.5V14.5C2 16.7091 3.79086 18.5 6 18.5H7.91385C8.38172 18.5 8.83479 18.664 9.19422 18.9636L11.3598 20.7682C11.651 21.0109 12.0393 21.06 12.3686 20.9298C12.8382 21.2347 13.3984 21.4118 14 21.4118H14.3715C14.7885 21.4118 15.1951 21.5421 15.5344 21.7846L16.3926 22.398C17.0882 22.8951 18.0229 22.8951 18.7185 22.398L19.7721 21.645C19.9843 21.4933 20.2386 21.4118 20.4994 21.4118C21.8805 21.4118 23 20.2922 23 18.9112V15C23 14.1115 22.6137 13.3132 22 12.7639ZM11 17.865V15C11 13.3431 12.3431 12 14 12H20V6.5C20 5.39543 19.1046 4.5 18 4.5H6C4.89543 4.5 4 5.39543 4 6.5V14.5C4 15.6046 4.89543 16.5 6 16.5H7.91385C8.8496 16.5 9.75573 16.8281 10.4746 17.4271L11 17.865ZM18.6092 20.0178C19.1607 19.6237 19.8216 19.4118 20.4994 19.4118C20.7759 19.4118 21 19.1877 21 18.9112V15C21 14.4477 20.5523 14 20 14H14C13.4477 14 13 14.4477 13 15V18.4118C13 18.9641 13.4477 19.4118 14 19.4118H14.3715C15.2056 19.4118 16.0188 19.6725 16.6973 20.1575L17.5556 20.7709L18.6092 20.0178Z" fill="black"/>
</svg>
