<svg width="24" height="24" viewBox="0 0 24 24" fill="none" xmlns="http://www.w3.org/2000/svg">
<path d="M10.0003 8C10.5526 8 11.0003 8.44772 11.0003 9V13C11.0003 13.5523 10.5526 14 10.0003 14C9.44799 14 9.00027 13.5523 9.00027 13V9C9.00027 8.44772 9.44799 8 10.0003 8Z" fill="black"/>
<path d="M15.0003 9C15.0003 8.44772 14.5526 8 14.0003 8C13.448 8 13.0003 8.44772 13.0003 9V13C13.0003 13.5523 13.448 14 14.0003 14C14.5526 14 15.0003 13.5523 15.0003 13V9Z" fill="black"/>
<path fill-rule="evenodd" clip-rule="evenodd" d="M12.0003 2C8.13428 2 5.00027 5.13401 5.00027 9V13C5.00027 16.866 8.13428 20 12.0003 20C15.8663 20 19.0003 16.866 19.0003 13V9C19.0003 5.13401 15.8663 2 12.0003 2ZM7.00027 9C7.00027 6.23858 9.23885 4 12.0003 4C14.7617 4 17.0003 6.23858 17.0003 9V13C17.0003 15.7614 14.7617 18 12.0003 18C9.23885 18 7.00027 15.7614 7.00027 13V9Z" fill="black"/>
<path d="M4.94895 15.6838C4.77431 15.1598 4.20799 14.8767 3.68404 15.0513C3.1601 15.226 2.87694 15.7923 3.05159 16.3162C5.91819 24.916 18.0824 24.916 20.949 16.3162C21.1236 15.7923 20.8404 15.226 20.3165 15.0513C19.7926 14.8767 19.2262 15.1598 19.0516 15.6838C16.7928 22.4602 7.20776 22.4602 4.94895 15.6838Z" fill="black"/>
</svg>
