<svg width="24" height="24" viewBox="0 0 24 24" fill="none" xmlns="http://www.w3.org/2000/svg">
<path d="M21.2929 1.29289C21.6834 0.902369 22.3166 0.902369 22.7071 1.29289C23.0976 1.68342 23.0976 2.31658 22.7071 2.70711L2.70711 22.7071C2.31658 23.0976 1.68342 23.0976 1.29289 22.7071C0.902369 22.3166 0.902369 21.6834 1.29289 21.2929L21.2929 1.29289Z" fill="black"/>
<path d="M5.09192 16.0797C5.04137 15.9504 4.99359 15.8184 4.94871 15.6838C4.77406 15.1599 4.20774 14.8767 3.6838 15.0513C3.15986 15.226 2.8767 15.7923 3.05134 16.3163C3.20142 16.7665 3.37699 17.1932 3.57537 17.5963L5.09192 16.0797Z" fill="black"/>
<path d="M6.0896 20.7389C10.8138 24.501 18.7119 23.0268 20.9487 16.3163C21.1234 15.7923 20.8402 15.226 20.3163 15.0513C19.7923 14.8767 19.226 15.1599 19.0513 15.6838C17.3167 20.8876 11.2617 22.0953 7.5218 19.3067L6.0896 20.7389Z" fill="black"/>
<path d="M12 2C13.9766 2 15.7619 2.81928 17.0348 4.13678L15.6203 5.55129C14.7096 4.59558 13.4244 4 12 4C9.23858 4 7 6.23858 7 9V13C7 13.3634 7.03877 13.7178 7.1124 14.0592L5.51975 15.6518C5.18471 14.8339 5 13.9385 5 13V9C5 5.13401 8.13401 2 12 2Z" fill="black"/>
<path d="M12 18C11.0886 18 10.2341 17.7561 9.49831 17.3301L8.04915 18.7793C9.17358 19.5494 10.5342 20 12 20C15.866 20 19 16.866 19 13V9C19 8.63007 18.9713 8.26684 18.916 7.91241L17 9.82843V13C17 15.7614 14.7614 18 12 18Z" fill="black"/>
</svg>
