<svg width="24" height="24" viewBox="0 0 24 24" fill="none" xmlns="http://www.w3.org/2000/svg">
<path fill-rule="evenodd" clip-rule="evenodd" d="M15 1.5C17.2091 1.5 19 3.29086 19 5.5V18.5C19 20.7091 17.2091 22.5 15 22.5H9C6.79086 22.5 5 20.7091 5 18.5V5.5C5 3.29086 6.79086 1.5 9 1.5H15ZM7 5.5C7 4.39543 7.89543 3.5 9 3.5H9.58535C9.79127 4.0826 10.3469 4.5 11 4.5H13C13.6531 4.5 14.2087 4.0826 14.4146 3.5H15C16.1046 3.5 17 4.39543 17 5.5V18.5C17 19.6046 16.1046 20.5 15 20.5H9C7.89543 20.5 7 19.6046 7 18.5V5.5Z" fill="black"/>
</svg>
