<svg width="24" height="24" viewBox="0 0 24 24" fill="none" xmlns="http://www.w3.org/2000/svg">
<path d="M5.09106 6.41636C4.54088 6.36822 4.05585 6.77521 4.00771 7.3254C3.95958 7.87558 4.36657 8.36061 4.91675 8.40875L6.90914 8.58306C7.45932 8.63119 7.94436 8.2242 7.99249 7.67402C8.04063 7.12384 7.63363 6.63881 7.08345 6.59067L5.09106 6.41636Z" fill="black"/>
<path d="M16.0077 8.3254C16.0558 7.77521 16.5409 7.36822 17.0911 7.41636L19.0835 7.59067C19.6336 7.63881 20.0406 8.12384 19.9925 8.67402C19.9444 9.2242 19.4593 9.63119 18.9091 9.58306L16.9168 9.40875C16.3666 9.36061 15.9596 8.87558 16.0077 8.3254Z" fill="black"/>
<path d="M5.09106 15.0035C4.54088 14.9554 4.05585 15.3624 4.00771 15.9126C3.95958 16.4627 4.36657 16.9478 4.91675 16.9959L6.90914 17.1702C7.45932 17.2184 7.94436 16.8114 7.99249 16.2612C8.04063 15.711 7.63363 15.226 7.08345 15.1778L5.09106 15.0035Z" fill="black"/>
<path d="M16.0077 17.3254C16.0558 16.7752 16.5409 16.3682 17.0911 16.4164L19.0835 16.5907C19.6336 16.6388 20.0406 17.1238 19.9925 17.674C19.9444 18.2242 19.4593 18.6312 18.9091 18.5831L16.9168 18.4087C16.3666 18.3606 15.9596 17.8756 16.0077 17.3254Z" fill="black"/>
<path fill-rule="evenodd" clip-rule="evenodd" d="M12 8.99971C13.6569 8.99971 15 10.3429 15 11.9997C15 13.6566 13.6569 14.9997 12 14.9997C10.3431 14.9997 9 13.6566 9 11.9997C9 10.3429 10.3431 8.99971 12 8.99971ZM13 11.9997C13 11.4474 12.5523 10.9997 12 10.9997C11.4477 10.9997 11 11.4474 11 11.9997C11 12.552 11.4477 12.9997 12 12.9997C12.5523 12.9997 13 12.552 13 11.9997Z" fill="black"/>
<path fill-rule="evenodd" clip-rule="evenodd" d="M5.24433 3.24131C2.9311 3.04275 1 4.8756 1 7.16833V15.1594C1 17.2845 2.65497 19.0302 4.74824 19.2064C5.60626 19.2785 6.65879 19.373 7.90243 19.4949C8.12536 19.5168 8.62104 19.6179 9.33769 19.7836C9.80886 19.8926 10.3392 20.0206 10.8964 20.1551C11.1591 20.2185 11.4286 20.2836 11.6998 20.3486C12.5391 20.5496 13.3972 20.7504 14.1357 20.9015C14.8428 21.0462 15.5356 21.1664 15.9958 21.1684C17.1394 21.1732 18.2579 21.1516 19.2151 21.1224C21.3562 21.0571 23 19.2882 23 17.1809V9.19252C23 6.8801 21.0564 5.07259 18.7836 5.13402C17.931 5.15706 16.9751 5.17251 16.0042 5.1684C15.7734 5.16743 15.2712 5.09239 14.5366 4.94208C13.8335 4.79819 13.0034 4.60425 12.1657 4.40358C11.9033 4.34073 11.6395 4.27705 11.3793 4.21423L11.3782 4.21399C10.8155 4.07815 10.269 3.94622 9.78829 3.83507C9.10812 3.67778 8.47589 3.54157 8.09757 3.50448C6.99864 3.39675 6.04679 3.31018 5.24433 3.24131ZM3 7.16833C3 6.01855 3.95662 5.13813 5.07329 5.23398C5.86777 5.30217 6.81158 5.388 7.90243 5.49494C8.12536 5.5168 8.62104 5.61792 9.33769 5.78365C9.80894 5.89262 10.3394 6.02068 10.8967 6.1552C11.1596 6.21866 11.4284 6.28355 11.6998 6.34856C12.5391 6.5496 13.3972 6.75036 14.1357 6.90147C14.8428 7.04617 15.5356 7.16644 15.9958 7.16838C16.9924 7.1726 17.9697 7.15674 18.8377 7.13329C20.0241 7.10122 21 8.04441 21 9.19252V17.1809C21 18.2423 20.1803 19.092 19.1541 19.1234C18.2131 19.1521 17.1187 19.1731 16.0042 19.1684C15.7734 19.1674 15.2712 19.0924 14.5366 18.9421C13.8335 18.7982 13.0034 18.6042 12.1657 18.4036C11.903 18.3407 11.639 18.2769 11.3784 18.214C10.8156 18.0782 10.269 17.9462 9.7883 17.8351C9.10812 17.6778 8.47589 17.5416 8.09757 17.5045C6.84472 17.3817 5.78303 17.2864 4.91593 17.2134C3.83407 17.1224 3 16.2206 3 15.1594V7.16833Z" fill="black"/>
</svg>
