<svg width="24" height="24" viewBox="0 0 24 24" fill="none" xmlns="http://www.w3.org/2000/svg">
<path fill-rule="evenodd" clip-rule="evenodd" d="M12.4689 6.11044C13.9411 6.11044 15.1346 7.3039 15.1346 8.77611C15.1346 10.2483 13.9411 11.4418 12.4689 11.4418C10.9967 11.4418 9.80327 10.2483 9.80327 8.77611C9.80327 7.3039 10.9967 6.11044 12.4689 6.11044ZM13.1346 8.77611C13.1346 8.40847 12.8366 8.11044 12.4689 8.11044C12.1013 8.11044 11.8033 8.40847 11.8033 8.77611C11.8033 9.14374 12.1013 9.44177 12.4689 9.44177C12.8366 9.44177 13.1346 9.14374 13.1346 8.77611Z" fill="black"/>
<path fill-rule="evenodd" clip-rule="evenodd" d="M3.14062 5.94629C3.14062 3.73715 4.93149 1.94629 7.14062 1.94629H17.7972C20.0064 1.94629 21.7972 3.73715 21.7972 5.94629V11.6059C21.7972 12.1509 21.6883 12.6704 21.4909 13.1439L21.2107 15.2037C21.0998 16.0189 20.7538 16.7367 20.254 17.3042C20.2408 17.3456 20.2247 17.3866 20.2056 17.4269L19.258 19.4355C18.1919 21.6953 15.3378 22.4353 13.3079 20.9783L4.71814 14.8127C4.64579 14.7607 4.58243 14.7009 4.52841 14.6353C3.67854 13.9017 3.14062 12.8167 3.14062 11.6059V5.94629ZM17.7972 15.6059C18.2586 15.6059 18.7017 15.5278 19.1141 15.3841C18.751 16.3306 17.7067 16.8829 16.6856 16.5841L13.3419 15.6059H17.7972ZM5.84041 4.42656C5.41207 4.79337 5.14062 5.33813 5.14062 5.94629V11.6059C5.14062 12.2141 5.41207 12.7588 5.8404 13.1257C5.71404 12.9582 5.63912 12.7498 5.63912 12.5238C5.63912 11.9716 6.08683 11.5238 6.63912 11.5238H8.30478C8.85707 11.5238 9.30478 11.9716 9.30478 12.5238C9.30478 13.0761 8.85707 13.5238 8.30478 13.5238H6.63912C6.61313 13.5238 6.58737 13.5229 6.56188 13.5209C6.74508 13.5762 6.93938 13.6059 7.14063 13.6059H17.7972C17.9985 13.6059 18.1928 13.5762 18.376 13.5209C18.3505 13.5229 18.3247 13.5238 18.2988 13.5238H16.6331C16.0808 13.5238 15.6331 13.0761 15.6331 12.5238C15.6331 11.9716 16.0808 11.5238 16.6331 11.5238H18.2988C18.851 11.5238 19.2988 11.9716 19.2988 12.5238C19.2988 12.7498 19.2238 12.9582 19.0975 13.1257C19.5258 12.7588 19.7972 12.2141 19.7972 11.6059V5.94629C19.7972 5.33813 19.5258 4.79337 19.0975 4.42656C19.2238 4.594 19.2988 4.80243 19.2988 5.02837C19.2988 5.58065 18.851 6.02837 18.2988 6.02837H16.6331C16.0808 6.02837 15.6331 5.58065 15.6331 5.02837C15.6331 4.47608 16.0808 4.02837 16.6331 4.02837H18.2988C18.3247 4.02837 18.3505 4.02936 18.376 4.03131C18.1928 3.97601 17.9985 3.94629 17.7972 3.94629H7.14062C6.93938 3.94629 6.74508 3.97601 6.56188 4.03131C6.58737 4.02936 6.61313 4.02837 6.63912 4.02837H8.30478C8.85707 4.02837 9.30478 4.47608 9.30478 5.02837C9.30478 5.58065 8.85707 6.02837 8.30478 6.02837H6.63912C6.08683 6.02837 5.63912 5.58065 5.63912 5.02837C5.63912 4.80243 5.71404 4.594 5.84041 4.42656ZM17.4088 18.6632C16.9873 18.68 16.5546 18.6297 16.1241 18.5037L11.3405 17.1042L14.4742 19.3535C15.4644 20.0643 16.847 19.7294 17.4088 18.6632Z" fill="black"/>
</svg>
