<svg width="24" height="24" viewBox="0 0 24 24" fill="none" xmlns="http://www.w3.org/2000/svg">
<path fill-rule="evenodd" clip-rule="evenodd" d="M1 12C1 5.92487 5.92487 1 12 1C12.9641 1 13.9006 1.12426 14.7938 1.35818C15.1643 1.45521 15.4639 1.69252 15.6392 2.01508C15.8034 2.31713 15.8303 2.63802 15.7912 2.90478C15.7168 3.41238 15.3493 3.99552 14.6608 4.15988C12.025 4.7891 10 7.19456 10 10C10 13.3137 12.6863 16 16 16C17.4752 16 18.8237 15.4689 19.8688 14.5863C20.4096 14.1296 21.0977 14.1791 21.5522 14.4255C21.7904 14.5547 22.0309 14.7696 22.1734 15.0829C22.3252 15.4169 22.3336 15.7976 22.19 16.15C20.5528 20.1663 16.6085 23 12 23C5.92487 23 1 18.0751 1 12ZM12 3C7.02944 3 3 7.02944 3 12C3 16.9706 7.02944 21 12 21C14.9876 21 17.6366 19.5441 19.2741 17.3012C18.2745 17.7501 17.166 18 16 18C11.5817 18 8 14.4183 8 10C8 6.99337 9.71456 4.36784 12.1752 3.00167C12.1169 3.00056 12.0585 3 12 3Z" fill="black"/>
<path d="M15.343 8.04145C15.2094 7.64055 14.8948 7.32596 14.4939 7.19233C14.0859 7.05633 14.0859 6.47921 14.4939 6.34321C14.8948 6.20957 15.2094 5.89498 15.343 5.49408C15.479 5.08607 16.0561 5.08607 16.1921 5.49408C16.3258 5.89498 16.6404 6.20957 17.0413 6.34321C17.4493 6.47921 17.4493 7.05633 17.0413 7.19233C16.6404 7.32596 16.3258 7.64055 16.1921 8.04145C16.0561 8.44946 15.479 8.44946 15.343 8.04145Z" fill="black"/>
<path d="M13.4939 13.1923C13.8948 13.326 14.2094 13.6405 14.343 14.0415C14.479 14.4495 15.0561 14.4495 15.1921 14.0415C15.3258 13.6405 15.6404 13.326 16.0413 13.1923C16.4493 13.0563 16.4493 12.4792 16.0413 12.3432C15.6404 12.2096 15.3258 11.895 15.1921 11.4941C15.0561 11.0861 14.479 11.0861 14.343 11.4941C14.2094 11.895 13.8948 12.2096 13.4939 12.3432C13.0859 12.4792 13.0859 13.0563 13.4939 13.1923Z" fill="black"/>
</svg>
