<svg width="24" height="24" viewBox="0 0 24 24" fill="none" xmlns="http://www.w3.org/2000/svg">
<path fill-rule="evenodd" clip-rule="evenodd" d="M12 1C5.92487 1 1 5.92487 1 12C1 18.0751 5.92487 23 12 23C16.6085 23 20.5528 20.1663 22.19 16.15C22.3336 15.7976 22.3252 15.4169 22.1734 15.0829C22.0309 14.7696 21.7904 14.5547 21.5522 14.4255C21.0977 14.1791 20.4096 14.1296 19.8688 14.5863C18.8237 15.4689 17.4752 16 16 16C12.6863 16 10 13.3137 10 10C10 7.19456 12.025 4.7891 14.6608 4.15988C15.3493 3.99552 15.7168 3.41238 15.7912 2.90478C15.8303 2.63802 15.8034 2.31713 15.6392 2.01508C15.4639 1.69252 15.1643 1.45521 14.7938 1.35818C13.9006 1.12426 12.9641 1 12 1ZM3 12C3 7.02944 7.02944 3 12 3C12.0585 3 12.1169 3.00056 12.1752 3.00167C9.71456 4.36784 8 6.99337 8 10C8 14.4183 11.5817 18 16 18C17.166 18 18.2745 17.7501 19.2741 17.3012C17.6366 19.5441 14.9876 21 12 21C7.02944 21 3 16.9706 3 12Z" fill="black"/>
</svg>
