<svg width="24" height="24" viewBox="0 0 24 24" fill="none" xmlns="http://www.w3.org/2000/svg">
<path fill-rule="evenodd" clip-rule="evenodd" d="M12 23C10.2807 23 8.65087 22.6048 7.19891 21.8995C3.53149 20.1178 1 16.3555 1 12C1 5.92487 5.92487 1 12 1C12.9641 1 13.9006 1.12426 14.7938 1.35818C15.1643 1.45521 15.4639 1.69252 15.6392 2.01508C15.8034 2.31713 15.8303 2.63802 15.7912 2.90478C15.7168 3.41238 15.3493 3.99552 14.6608 4.15988C12.025 4.7891 10 7.19456 10 10C10 10.8824 10.1899 11.7189 10.5311 12.4722C11.383 11.0046 12.9052 10 14.7 10C16.9653 10 18.8033 11.6088 19.3964 13.7174C19.7239 13.8848 20.0283 14.0912 20.305 14.3305C20.7453 14.1677 21.2134 14.2417 21.552 14.4252C21.7901 14.5542 22.0309 14.7691 22.1734 15.0824C22.3254 15.4165 22.3337 15.7973 22.1901 16.1497C22.087 16.4026 21.9748 16.6508 21.8539 16.8939C21.9495 17.2866 22 17.6969 22 18.1176C22 20.7416 20.0103 23 17.4 23H12ZM3 12C3 7.02944 7.02944 3 12 3C12.0585 3 12.1169 3.00056 12.1752 3.00167C9.71456 4.36784 8 6.99337 8 10C8 11.6425 8.49608 13.1722 9.34676 14.4437C9.48884 14.656 9.64079 14.8612 9.80196 15.0584C9.80066 15.1075 9.8 15.1566 9.8 15.2059L9.80004 15.2262C8.69933 15.9938 8 17.3083 8 18.7647C8 19.2542 8.08026 19.7297 8.22905 20.1746C8.17671 20.1504 8.12463 20.1257 8.07284 20.1005C5.06791 18.6407 3 15.5609 3 12ZM11.8 15.2059C11.8 13.3629 13.1681 12 14.7 12C16.0608 12 17.2836 13.0654 17.5487 14.6018C17.6099 14.9572 17.8578 15.252 18.1973 15.3734C19.2076 15.7348 20 16.7966 20 18.1176C20 19.782 18.7662 21 17.4 21H12C10.9652 21 10 20.0717 10 18.7647C10 17.7962 10.5451 17.0125 11.2499 16.6923C11.649 16.511 11.8835 16.0908 11.8283 15.6559C11.8097 15.5093 11.8 15.3591 11.8 15.2059Z" fill="black"/>
</svg>
