<svg width="24" height="24" viewBox="0 0 24 24" fill="none" xmlns="http://www.w3.org/2000/svg">
<path d="M12 7.5C12.5523 7.5 13 7.94772 13 8.5V12.5C13 13.0523 12.5523 13.5 12 13.5C11.4477 13.5 11 13.0523 11 12.5V8.5C11 7.94772 11.4477 7.5 12 7.5Z" fill="black"/>
<path fill-rule="evenodd" clip-rule="evenodd" d="M15.9999 1.99997C15.9999 1.44769 15.5522 0.999985 14.9999 1C14.4476 1.00001 13.9999 1.44774 13.9999 2.00003C13.9999 2.17334 13.9397 2.45556 13.7884 2.66571C13.6738 2.82487 13.4741 3 13 3C12.4702 3 11.9655 3.10956 11.5511 3.39767C11.1184 3.69848 10.8896 4.12054 10.7983 4.53514C10.7568 4.72402 10.7427 4.91329 10.7482 5.09737C6.92455 5.69822 4 9.00758 4 13V15C4 19.4183 7.58172 23 12 23C16.4183 23 20 19.4183 20 15V13C20 8.83371 16.8152 5.41128 12.7473 5.03444C12.7472 5.03067 12.7472 5.02703 12.7471 5.02354C12.7951 5.01214 12.8754 5 13 5C14.1259 5 14.9261 4.50847 15.4115 3.83429C15.8602 3.21111 16 2.49333 15.9999 1.99997ZM11.9813 7.00003C11.9942 7.00028 12.0071 7.00028 12.02 7.00003C15.3245 7.01084 18 9.69297 18 13V15C18 18.3137 15.3137 21 12 21C8.68629 21 6 18.3137 6 15V13C6 9.69253 8.67618 7.01012 11.9813 7.00003Z" fill="black"/>
</svg>
