<svg width="24" height="24" viewBox="0 0 24 24" fill="none" xmlns="http://www.w3.org/2000/svg">
<path d="M12.7071 2.29289C12.3166 1.90237 11.6834 1.90237 11.2929 2.29289L8.29289 5.29289C7.90237 5.68342 7.90237 6.31658 8.29289 6.70711C8.68342 7.09763 9.31658 7.09763 9.70711 6.70711L11 5.41421V11H5.41421L6.70711 9.70711C7.09763 9.31658 7.09763 8.68342 6.70711 8.29289C6.31658 7.90237 5.68342 7.90237 5.29289 8.29289L2.29289 11.2929C1.90237 11.6834 1.90237 12.3166 2.29289 12.7071L5.29289 15.7071C5.68342 16.0976 6.31658 16.0976 6.70711 15.7071C7.09763 15.3166 7.09763 14.6834 6.70711 14.2929L5.41421 13H11V18.5858L9.70711 17.2929C9.31658 16.9024 8.68342 16.9024 8.29289 17.2929C7.90237 17.6834 7.90237 18.3166 8.29289 18.7071L11.2929 21.7071C11.6834 22.0976 12.3166 22.0976 12.7071 21.7071L15.7071 18.7071C16.0976 18.3166 16.0976 17.6834 15.7071 17.2929C15.3166 16.9024 14.6834 16.9024 14.2929 17.2929L13 18.5858V13H18.5858L17.2929 14.2929C16.9024 14.6834 16.9024 15.3166 17.2929 15.7071C17.6834 16.0976 18.3166 16.0976 18.7071 15.7071L21.7071 12.7071C22.0976 12.3166 22.0976 11.6834 21.7071 11.2929L18.7071 8.29289C18.3166 7.90237 17.6834 7.90237 17.2929 8.29289C16.9024 8.68342 16.9024 9.31658 17.2929 9.70711L18.5858 11H13V5.41421L14.2929 6.70711C14.6834 7.09763 15.3166 7.09763 15.7071 6.70711C16.0976 6.31658 16.0976 5.68342 15.7071 5.29289L12.7071 2.29289Z" fill="black"/>
<path d="M12.7071 2.29289C12.3166 1.90237 11.6834 1.90237 11.2929 2.29289L8.29289 5.29289C7.90237 5.68342 7.90237 6.31658 8.29289 6.70711C8.68342 7.09763 9.31658 7.09763 9.70711 6.70711L11 5.41421V11H5.41421L6.70711 9.70711C7.09763 9.31658 7.09763 8.68342 6.70711 8.29289C6.31658 7.90237 5.68342 7.90237 5.29289 8.29289L2.29289 11.2929C1.90237 11.6834 1.90237 12.3166 2.29289 12.7071L5.29289 15.7071C5.68342 16.0976 6.31658 16.0976 6.70711 15.7071C7.09763 15.3166 7.09763 14.6834 6.70711 14.2929L5.41421 13H11V18.5858L9.70711 17.2929C9.31658 16.9024 8.68342 16.9024 8.29289 17.2929C7.90237 17.6834 7.90237 18.3166 8.29289 18.7071L11.2929 21.7071C11.6834 22.0976 12.3166 22.0976 12.7071 21.7071L15.7071 18.7071C16.0976 18.3166 16.0976 17.6834 15.7071 17.2929C15.3166 16.9024 14.6834 16.9024 14.2929 17.2929L13 18.5858V13H18.5858L17.2929 14.2929C16.9024 14.6834 16.9024 15.3166 17.2929 15.7071C17.6834 16.0976 18.3166 16.0976 18.7071 15.7071L21.7071 12.7071C22.0976 12.3166 22.0976 11.6834 21.7071 11.2929L18.7071 8.29289C18.3166 7.90237 17.6834 7.90237 17.2929 8.29289C16.9024 8.68342 16.9024 9.31658 17.2929 9.70711L18.5858 11H13V5.41421L14.2929 6.70711C14.6834 7.09763 15.3166 7.09763 15.7071 6.70711C16.0976 6.31658 16.0976 5.68342 15.7071 5.29289L12.7071 2.29289Z" fill="black"/>
</svg>
