<svg width="24" height="24" viewBox="0 0 24 24" fill="none" xmlns="http://www.w3.org/2000/svg">
<path fill-rule="evenodd" clip-rule="evenodd" d="M12.4381 3.04801C10.5991 2.72132 8.85522 4.10107 8.85522 5.99614V13.9657C8.2018 13.7431 7.35572 13.5814 6.28079 13.5814C4.92043 13.5814 3.92576 13.8404 3.22354 14.1551C1.91939 14.7397 1.77316 16.1799 2.26785 17.155C2.57796 17.7663 3.0502 18.5755 3.66877 19.2459C4.27052 19.8981 5.15312 20.5707 6.28079 20.5707C9.11456 20.5707 10.8552 18.0354 10.8552 15.6901V8.2941L19.8693 9.92175L19.6663 14.4114C19.0079 14.1808 18.1469 14.0105 17.0438 14.0105C15.6835 14.0105 14.6888 14.2695 13.9866 14.5843C12.6824 15.1688 12.5362 16.6091 13.0309 17.5841C13.341 18.1954 13.8132 19.0046 14.4318 19.6751C15.0336 20.3273 15.9162 20.9998 17.0438 20.9998C19.5368 20.9998 21.1927 19.0184 21.5444 16.9773C21.5711 16.8223 21.5809 16.6643 21.5735 16.5069L21.9064 9.14496L21.9067 9.13827L21.9969 7.40348C22.076 5.88064 20.9877 4.56687 19.4986 4.30233L12.4381 3.04801ZM8.62876 16.0315C8.7032 16.0684 8.76782 16.1045 8.82327 16.1381C8.63112 17.4779 7.59313 18.5707 6.28079 18.5707C5.98116 18.5707 5.59484 18.3841 5.13869 17.8897C4.69934 17.4135 4.32467 16.7887 4.05145 16.2502C3.99245 16.1339 3.9976 16.047 4.00614 16.0143C4.00639 16.0134 4.00664 16.0125 4.00688 16.0116C4.0086 16.0057 4.01022 16.0021 4.01111 16.0003C4.01205 15.9985 4.01259 15.9978 4.0127 15.9977C4.01278 15.9976 4.01383 15.9963 4.01696 15.994C4.0202 15.9915 4.02771 15.9864 4.04157 15.9802C4.46705 15.7895 5.18027 15.5814 6.28079 15.5814C7.47876 15.5814 8.21861 15.8279 8.62876 16.0315ZM19.968 7.90723L10.8552 6.26175V5.99614C10.8552 5.40091 11.4196 4.89839 12.0882 5.01718L19.1488 6.2715C19.6793 6.36575 20.0245 6.81945 19.9996 7.29974L19.968 7.90723ZM19.5657 16.5556C19.5658 16.5558 19.5672 16.5573 19.569 16.5616L19.563 16.6955C19.3148 17.9977 18.3124 18.9998 17.0438 18.9998C16.7442 18.9998 16.3579 18.8132 15.9017 18.3188C15.4624 17.8426 15.0877 17.2178 14.8145 16.6793C14.7555 16.563 14.7606 16.4761 14.7692 16.4434C14.7694 16.4425 14.7697 16.4416 14.7699 16.4408C14.7716 16.4348 14.7733 16.4312 14.7741 16.4295C14.7746 16.4285 14.775 16.4278 14.7753 16.4274M19.5657 16.5556L19.5646 16.5547ZM19.5646 16.5547C19.5641 16.5542 19.5627 16.5531 19.5601 16.5516ZM19.5601 16.5516C19.1951 16.3364 18.4213 16.0105 17.0438 16.0105ZM17.0438 16.0105C15.9433 16.0105 15.2301 16.2186 14.8046 16.4093ZM14.8046 16.4093C14.7907 16.4155 14.7832 16.4206 14.78 16.4231ZM14.78 16.4231L14.7768 16.4258ZM14.7768 16.4258L14.7753 16.4274Z" fill="black"/>
</svg>
