<svg width="24" height="24" viewBox="0 0 24 24" fill="none" xmlns="http://www.w3.org/2000/svg">
<path fill-rule="evenodd" clip-rule="evenodd" d="M14.3794 2.10951C14.7139 1.9386 15.116 1.96956 15.4204 2.18966C16.4528 2.93625 18.6246 4.45346 19.4522 4.872C19.8197 5.05786 20.0356 5.45 19.9963 5.85993C19.9234 6.61882 19.5776 7.69467 18.7724 8.59749C18.0995 9.35192 17.1341 9.95183 15.8344 10.1566V16.514C15.8344 19.1506 13.8993 22 10.7493 22C9.51512 22 8.54092 21.2553 7.8653 20.5146C7.17196 19.7545 6.63983 18.8334 6.28844 18.1328C5.75468 17.0686 5.91469 15.5162 7.30985 14.8837C8.09353 14.5284 9.21157 14.2323 10.7493 14.2323C12.0697 14.2323 13.08 14.4506 13.8344 14.7366V3C13.8344 2.62437 14.0449 2.28042 14.3794 2.10951ZM13.8096 16.9502C13.7263 16.8945 13.6212 16.8317 13.4921 16.7669C13.003 16.5213 12.137 16.2323 10.7493 16.2323C9.47465 16.2323 8.64082 16.4762 8.1357 16.7052C8.08816 16.7268 8.06443 16.7492 8.05108 16.7654C8.0368 16.7827 8.0222 16.808 8.01222 16.8467C7.99108 16.9285 7.99317 17.0706 8.07618 17.2361C8.39144 17.8647 8.82722 18.6014 9.34293 19.1668C9.87634 19.7515 10.3523 20 10.7493 20C12.3627 20 13.6199 18.6132 13.8096 16.9502ZM15.8344 8.11826C16.5064 7.95119 16.9633 7.62112 17.2798 7.26626C17.5638 6.94779 17.7514 6.58931 17.8655 6.26722C17.2689 5.90293 16.5236 5.40438 15.8344 4.92919V8.11826Z" fill="black"/>
<path d="M4.59377 5.6308C5.07485 5.79116 5.45236 6.16866 5.61272 6.64974C5.77592 7.13936 6.46846 7.13936 6.63166 6.64974C6.79203 6.16866 7.16953 5.79116 7.65061 5.6308C8.14022 5.46759 8.14022 4.77505 7.65061 4.61185C7.16953 4.45149 6.79203 4.07399 6.63166 3.5929C6.46846 3.10329 5.77592 3.10329 5.61272 3.5929C5.45236 4.07399 5.07485 4.45149 4.59377 4.61185C4.10416 4.77505 4.10416 5.46759 4.59377 5.6308Z" fill="black"/>
<path d="M8.59377 10.6308C9.07485 10.7912 9.45236 11.1687 9.61272 11.6497C9.77592 12.1394 10.4685 12.1394 10.6317 11.6497C10.792 11.1687 11.1695 10.7912 11.6506 10.6308C12.1402 10.4676 12.1402 9.77505 11.6506 9.61185C11.1695 9.45149 10.792 9.07399 10.6317 8.5929C10.4685 8.10329 9.77592 8.10329 9.61272 8.5929C9.45236 9.07399 9.07485 9.45149 8.59377 9.61185C8.10416 9.77505 8.10416 10.4676 8.59377 10.6308Z" fill="black"/>
</svg>
