<svg width="24" height="24" viewBox="0 0 24 24" fill="none" xmlns="http://www.w3.org/2000/svg">
<path fill-rule="evenodd" clip-rule="evenodd" d="M14.4203 2.18966C14.1159 1.96956 13.7139 1.9386 13.3794 2.10951C13.0449 2.28042 12.8344 2.62437 12.8344 3V14.7366C12.08 14.4506 11.0697 14.2323 9.7493 14.2323C8.21154 14.2323 7.0935 14.5284 6.30983 14.8837C4.91467 15.5162 4.75466 17.0686 5.28842 18.1328C5.63981 18.8334 6.17193 19.7545 6.86527 20.5146C7.5409 21.2553 8.51509 22 9.7493 22C12.8993 22 14.8344 19.1506 14.8344 16.514V10.1566C16.1341 9.95183 17.0995 9.35192 17.7723 8.59749C18.5776 7.69467 18.9234 6.61882 18.9963 5.85993C19.0356 5.45 18.8196 5.05786 18.4521 4.872C17.6246 4.45346 15.4528 2.93625 14.4203 2.18966ZM12.4921 16.7669C12.6212 16.8317 12.7262 16.8945 12.8096 16.9502C12.6199 18.6132 11.3627 20 9.7493 20C9.3523 20 8.87632 19.7515 8.3429 19.1668C7.8272 18.6014 7.39142 17.8647 7.07616 17.2361C6.99314 17.0706 6.99105 16.9285 7.01219 16.8467C7.02217 16.808 7.03677 16.7827 7.05105 16.7654C7.0644 16.7492 7.08814 16.7268 7.13567 16.7052C7.64079 16.4762 8.47462 16.2323 9.7493 16.2323C11.137 16.2323 12.003 16.5213 12.4921 16.7669ZM16.2797 7.26626C15.9633 7.62112 15.5064 7.95119 14.8344 8.11826V4.92919C15.5236 5.40438 16.2688 5.90293 16.8655 6.26722C16.7514 6.58931 16.5638 6.94779 16.2797 7.26626Z" fill="black"/>
</svg>
