<svg width="24" height="24" viewBox="0 0 24 24" fill="none" xmlns="http://www.w3.org/2000/svg">
<path fill-rule="evenodd" clip-rule="evenodd" d="M21.259 5.83479C22.0233 3.81961 20.05 1.84628 18.0348 2.61066L3.73852 8.0334C1.72961 8.7954 1.5542 11.5691 3.45112 12.5781L8.43429 15.2287C8.52221 15.2755 8.59416 15.3474 8.64092 15.4353L11.2915 20.4185C12.3005 22.3154 15.0742 22.14 15.8362 20.1311L21.259 5.83479ZM18.7441 4.48066C19.1472 4.32778 19.5418 4.72245 19.389 5.12548L13.9662 19.4218C13.8138 19.8236 13.2591 19.8587 13.0573 19.4793L10.4067 14.4961C10.1728 14.0565 9.8131 13.6968 9.37352 13.463L4.39034 10.8123C4.01096 10.6105 4.04604 10.0558 4.44782 9.9034L18.7441 4.48066Z" fill="black"/>
</svg>
