<svg width="24" height="24" viewBox="0 0 24 24" fill="none" xmlns="http://www.w3.org/2000/svg">
<path d="M9.71944 4.62901C10.6039 2.66394 13.3953 2.66411 14.28 4.62901L20.5544 18.5733C21.4356 20.5325 19.5983 22.6172 17.5437 21.9894L12.1462 20.3399C12.0511 20.311 11.9483 20.3109 11.8532 20.3399L6.45576 21.9894C4.40123 22.6169 2.56384 20.5325 3.44502 18.5733L9.71944 4.62901ZM12.4558 5.4503C12.2787 5.05747 11.7205 5.05731 11.5437 5.4503L5.26924 19.3937C5.093 19.7853 5.46014 20.2021 5.8708 20.0773L11.2692 18.4278C11.7453 18.2824 12.2541 18.2825 12.7302 18.4278L18.1286 20.0773C18.5394 20.2024 18.9064 19.7854 18.7302 19.3937L12.4558 5.4503Z" fill="black"/>
</svg>
