<svg width="24" height="24" viewBox="0 0 24 24" fill="none" xmlns="http://www.w3.org/2000/svg">
<path d="M6 16C5.44772 16 5 16.4477 5 17C5 17.5523 5.44772 18 6 18H14C14.5523 18 15 17.5523 15 17C15 16.4477 14.5523 16 14 16H6Z" fill="black"/>
<path d="M5 14C5 13.4477 5.44772 13 6 13H14C14.5523 13 15 13.4477 15 14C15 14.5523 14.5523 15 14 15H6C5.44772 15 5 14.5523 5 14Z" fill="black"/>
<path d="M13 10C12.4477 10 12 10.4477 12 11C12 11.5523 12.4477 12 13 12H14C14.5523 12 15 11.5523 15 11C15 10.4477 14.5523 10 14 10H13Z" fill="black"/>
<path d="M12 8C12 7.44772 12.4477 7 13 7H14C14.5523 7 15 7.44772 15 8C15 8.55228 14.5523 9 14 9H13C12.4477 9 12 8.55228 12 8Z" fill="black"/>
<path fill-rule="evenodd" clip-rule="evenodd" d="M7 6C5.89543 6 5 6.89543 5 8V10C5 11.1046 5.89543 12 7 12H9C10.1046 12 11 11.1046 11 10V8C11 6.89543 10.1046 6 9 6H7ZM7 8H9V10H7V8Z" fill="black"/>
<path fill-rule="evenodd" clip-rule="evenodd" d="M5 2C3.34315 2 2 3.34315 2 5V19C2 20.6569 3.34315 22 5 22H20C21.6569 22 23 20.6569 23 19V17C23 15.3431 21.6569 14 20 14H18V5C18 3.34315 16.6569 2 15 2H5ZM20 20H18V16H20C20.5523 16 21 16.4477 21 17V19C21 19.5523 20.5523 20 20 20ZM16 20H5C4.44772 20 4 19.5523 4 19V5C4 4.44772 4.44772 4 5 4H15C15.5523 4 16 4.44772 16 5V20Z" fill="black"/>
</svg>
