<svg width="24" height="24" viewBox="0 0 24 24" fill="none" xmlns="http://www.w3.org/2000/svg">
<path fill-rule="evenodd" clip-rule="evenodd" d="M22 6.5C22 5.94772 21.5523 5.5 21 5.5C20.4477 5.5 20 5.94772 20 6.5V9.35854L14.8455 6.78251C13.0794 5.89987 11 7.18314 11 9.15863V9.35854L5.84548 6.78251C4.07936 5.89987 2 7.18314 2 9.15863V14.8414C2 16.8169 4.07936 18.1001 5.84548 17.2175L11 14.6415V14.8414C11 16.8169 13.0794 18.1001 14.8455 17.2175L20 14.6415V17.5C20 18.0523 20.4477 18.5 21 18.5C21.5523 18.5 22 18.0523 22 17.5V6.5ZM11 12.0009V11.9991C10.9997 11.7664 10.8787 11.5338 10.6368 11.4129L4.95139 8.57153C4.51366 8.35277 4 8.6713 4 9.15863V14.8414C4 15.3287 4.51366 15.6472 4.95139 15.4285L10.6368 12.5871C10.8787 12.4662 10.9997 12.2336 11 12.0009ZM13 14.8414C13 15.3287 13.5137 15.6472 13.9514 15.4285L19.6368 12.5871C20.1211 12.3451 20.1211 11.6549 19.6368 11.4129L13.9514 8.57153C13.5137 8.35277 13 8.6713 13 9.15863V14.8414Z" fill="black"/>
</svg>
