<svg width="24" height="24" viewBox="0 0 24 24" fill="none" xmlns="http://www.w3.org/2000/svg">
<path d="M7.30184 4.51436C7.47821 4.19689 7.81283 4 8.176 4H16.216C16.7683 4 17.216 3.55228 17.216 3C17.216 2.44772 16.7683 2 16.216 2H8.176C7.0865 2 6.08263 2.59068 5.55353 3.54307L1.66464 10.5431C1.16127 11.4491 1.16127 12.5509 1.66464 13.4569L5.55353 20.4569C6.03766 21.3284 6.91929 21.897 7.9003 21.9873V22H15.9992V21.9948C17.0196 21.9347 17.9445 21.3576 18.4449 20.4569L22.3337 13.4569C22.8371 12.5509 22.8371 11.4491 22.3337 10.543L22.1625 10.2348C21.8942 9.75202 21.2854 9.57809 20.8027 9.84631C20.3199 10.1145 20.1459 10.7233 20.4142 11.2061L20.5854 11.5144C20.7532 11.8164 20.7532 12.1836 20.5854 12.4857L19.5755 14.3035C19.4295 14.0599 19.2293 13.8441 18.9797 13.6756L16.6259 12.0861C15.7216 11.4832 14.5013 11.7129 13.878 12.6033L12.8561 14.0631L11.7779 13.3967C10.8809 12.8891 9.74493 13.1464 9.15415 13.9911L6.42051 17.8993L3.41295 12.4856C3.24516 12.1836 3.24516 11.8164 3.41295 11.5144L7.30184 4.51436Z" fill="black"/>
<path d="M6.1822 8.79827C6.66328 8.95863 7.04078 9.33614 7.20114 9.81722C7.36435 10.3068 8.05689 10.3068 8.22009 9.81722C8.38045 9.33614 8.75796 8.95863 9.23904 8.79827C9.72865 8.63507 9.72865 7.94253 9.23904 7.77933C8.75796 7.61897 8.38045 7.24146 8.22009 6.76038C8.05689 6.27077 7.36435 6.27077 7.20114 6.76038C7.04078 7.24146 6.66328 7.61897 6.1822 7.77933C5.69259 7.94253 5.69259 8.63507 6.1822 8.79827Z" fill="black"/>
<path d="M20.9992 4C20.9992 3.44772 20.5515 3 19.9992 3C19.4469 3 18.9992 3.44772 18.9992 4V5H17.9992C17.4469 5 16.9992 5.44772 16.9992 6C16.9992 6.55228 17.4469 7 17.9992 7H18.9992V8C18.9992 8.55228 19.4469 9 19.9992 9C20.5515 9 20.9992 8.55228 20.9992 8V7H21.9992C22.5515 7 22.9992 6.55228 22.9992 6C22.9992 5.44772 22.5515 5 21.9992 5H20.9992V4Z" fill="black"/>
</svg>
