<svg width="24" height="24" viewBox="0 0 24 24" fill="none" xmlns="http://www.w3.org/2000/svg">
<path fill-rule="evenodd" clip-rule="evenodd" d="M8.176 4C7.81283 4 7.47821 4.19689 7.30184 4.51436L3.41295 11.5144C3.24516 11.8164 3.24516 12.1836 3.41295 12.4856L5.88031 16.9269L8.33471 13.4179C9.22088 12.151 10.9248 11.765 12.2704 12.5264L12.2872 12.5359L12.5785 12.7159L13.0588 12.0298C13.9937 10.6942 15.8241 10.3497 17.1806 11.254L17.1855 11.2573L19.5394 12.8468C19.7536 12.9915 19.9436 13.1594 20.108 13.3451L20.5854 12.4857C20.7532 12.1836 20.7532 11.8164 20.5854 11.5144L20.4142 11.2061C20.1459 10.7233 20.3199 10.1145 20.8027 9.84631C21.2854 9.57809 21.8942 9.75202 22.1625 10.2348L22.3337 10.5431C22.8371 11.4491 22.8371 12.5509 22.3337 13.4569L20.5157 16.7293C20.5051 16.7496 20.4941 16.7698 20.4829 16.79L18.4449 20.4585C17.9445 21.3592 17.0196 21.9363 15.9992 21.9964V22.0016H7.9003V21.9889C6.91929 21.8986 6.03767 21.33 5.55353 20.4585L5.37672 20.1403C5.36546 20.12 5.35421 20.0993 5.34302 20.078L1.66464 13.4569C1.16127 12.5509 1.16127 11.4491 1.66464 10.5431L5.55353 3.54307C6.08263 2.59068 7.0865 2 8.176 2H16.216C17.0747 2 17.8598 2.4852 18.2439 3.25332C18.4909 3.7473 18.2907 4.34798 17.7967 4.59497C17.3027 4.84195 16.702 4.64173 16.455 4.14775C16.4098 4.0572 16.3172 4 16.216 4H8.176ZM11.782 20C11.0089 19.9574 10.5686 19.0748 11.0213 18.4281L14.6973 13.1767C15.0084 12.7322 15.6172 12.617 16.0691 12.9167L16.0712 12.9181L18.4201 14.5043C18.8389 14.7871 18.9793 15.3362 18.7533 15.7835L16.6965 19.4856C16.5202 19.8031 16.1856 20 15.8224 20H11.782ZM9.01078 20H8.176C7.81283 20 7.47821 19.8031 7.30184 19.4856L7.1043 19.1301C7.06923 19.0612 7.04984 19.0057 7.04072 18.9651C7.03295 18.9305 7.03416 18.9141 7.03463 18.9106C7.07136 18.75 7.1249 18.6369 7.1619 18.584L9.97359 14.5642C10.2659 14.1463 10.8252 14.016 11.2714 14.2593L11.4297 14.3571L9.38281 17.2812C8.78019 18.1421 8.70514 19.1424 9.01078 20Z" fill="black"/>
<path d="M7.20104 9.81722C7.04068 9.33614 6.66317 8.95863 6.18209 8.79827C5.69248 8.63507 5.69248 7.94253 6.18209 7.77933C6.66317 7.61897 7.04068 7.24146 7.20104 6.76038C7.36424 6.27077 8.05678 6.27077 8.21998 6.76038C8.38034 7.24146 8.75785 7.61897 9.23893 7.77933C9.72854 7.94253 9.72854 8.63507 9.23893 8.79827C8.75785 8.95863 8.38034 9.33614 8.21998 9.81722C8.05678 10.3068 7.36424 10.3068 7.20104 9.81722Z" fill="black"/>
<path d="M17.9992 6C17.4469 6 16.9992 6.44772 16.9992 7C16.9992 7.55228 17.4469 8 17.9992 8H21.9992C22.5515 8 22.9992 7.55228 22.9992 7C22.9992 6.44772 22.5515 6 21.9992 6H17.9992Z" fill="black"/>
</svg>
