<svg width="24" height="24" viewBox="0 0 24 24" fill="none" xmlns="http://www.w3.org/2000/svg">
<path fill-rule="evenodd" clip-rule="evenodd" d="M11.9992 6.5C9.79005 6.5 7.99919 8.29086 7.99919 10.5C7.99919 12.7091 9.79005 14.5 11.9992 14.5C14.2083 14.5 15.9992 12.7091 15.9992 10.5C15.9992 8.29086 14.2083 6.5 11.9992 6.5ZM9.99919 10.5C9.99919 9.39543 10.8946 8.5 11.9992 8.5C13.1038 8.5 13.9992 9.39543 13.9992 10.5C13.9992 11.6046 13.1038 12.5 11.9992 12.5C10.8946 12.5 9.99919 11.6046 9.99919 10.5Z" fill="black"/>
<path fill-rule="evenodd" clip-rule="evenodd" d="M8.176 2C7.0865 2 6.08263 2.59068 5.55353 3.54307L1.66464 10.5431C1.16127 11.4491 1.16127 12.5509 1.66464 13.4569L5.55353 20.4569C6.08264 21.4093 7.0865 22 8.176 22H15.8224C16.9119 22 17.9157 21.4093 18.4449 20.4569L22.3337 13.4569C22.8371 12.5509 22.8371 11.4491 22.3337 10.5431L18.4449 3.54307C17.9157 2.59068 16.9119 2 15.8224 2H8.176ZM7.30184 4.51436C7.47821 4.19689 7.81283 4 8.176 4H15.8224C16.1856 4 16.5202 4.19689 16.6965 4.51436L20.5854 11.5144C20.7532 11.8164 20.7532 12.1836 20.5854 12.4856L18.0214 17.1009C17.645 16.8823 17.1718 16.6212 16.6409 16.3591C15.3605 15.7271 13.5879 15.0092 12.005 15C10.5305 14.9914 8.89835 15.5946 7.64859 16.175C6.99607 16.478 6.40974 16.7932 5.95158 17.0552L3.41295 12.4856C3.24516 12.1836 3.24516 11.8164 3.41295 11.5144L7.30184 4.51436ZM15.7557 18.1526C16.2546 18.3988 16.6998 18.6454 17.0499 18.8496L16.6965 19.4856C16.5202 19.8031 16.1856 20 15.8224 20H8.176C7.81283 20 7.47821 19.8031 7.30184 19.4856L6.92295 18.8036C7.34314 18.5627 7.88683 18.2695 8.49093 17.9889C9.68824 17.4329 10.9833 16.9941 11.9934 17C13.0897 17.0064 14.5115 17.5385 15.7557 18.1526Z" fill="black"/>
</svg>
