<svg width="24" height="24" viewBox="0 0 24 24" fill="none" xmlns="http://www.w3.org/2000/svg">
<path d="M6.18207 8.79827C6.66316 8.95863 7.04066 9.33614 7.20102 9.81722C7.36422 10.3068 8.05677 10.3068 8.21997 9.81722C8.38033 9.33614 8.75783 8.95863 9.23892 8.79827C9.72853 8.63507 9.72853 7.94253 9.23892 7.77933C8.75783 7.61897 8.38033 7.24146 8.21997 6.76038C8.05677 6.27077 7.36422 6.27077 7.20102 6.76038C7.04066 7.24146 6.66316 7.61897 6.18207 7.77933C5.69246 7.94253 5.69246 8.63507 6.18207 8.79827Z" fill="black"/>
<path fill-rule="evenodd" clip-rule="evenodd" d="M18.4449 20.4569C17.9445 21.3576 17.0196 21.9347 15.9992 21.9948V22H7.9003V21.9873C6.91929 21.897 6.03766 21.3284 5.55353 20.4569L1.66464 13.4569C1.16127 12.5509 1.16127 11.4491 1.66464 10.5431L5.55353 3.54307C6.08263 2.59068 7.0865 2 8.176 2H15.8224C16.9119 2 17.9157 2.59068 18.4449 3.54307L22.3337 10.5431C22.8371 11.4491 22.8371 12.5509 22.3337 13.4569L18.4449 20.4569ZM7.30184 4.51436C7.47821 4.19689 7.81283 4 8.176 4H15.8224C16.1856 4 16.5202 4.19689 16.6965 4.51436L20.5854 11.5144C20.7532 11.8164 20.7532 12.1836 20.5854 12.4856L20.1548 13.2608L17.1855 11.2557L17.1806 11.2524C15.8241 10.3481 13.9937 10.6926 13.0588 12.0282L12.5785 12.7143L12.2872 12.5343L12.2704 12.5248C10.9248 11.7634 9.22088 12.1494 8.33471 13.4163L5.87981 16.926L3.41295 12.4856C3.24516 12.1836 3.24516 11.8164 3.41295 11.5144L7.30184 4.51436ZM16.0712 12.9165L19.1798 15.0157L16.6965 19.4856C16.5202 19.8031 16.1856 20 15.8224 20H11.8405C11.0315 20 10.5573 19.0893 11.0213 18.4265L14.6973 13.1751C15.0084 12.7306 15.6172 12.6154 16.0692 12.9152L16.0712 12.9165ZM9.38281 17.2796C8.77982 18.141 8.70505 19.142 9.01135 20H8.176C7.81283 20 7.47821 19.8031 7.30184 19.4856L7.02023 18.9787C7.04998 18.8137 7.10687 18.6611 7.1619 18.5824L9.97359 14.5626C10.2659 14.1447 10.8252 14.0144 11.2714 14.2577L11.4297 14.3555L9.38281 17.2796Z" fill="black"/>
</svg>
