<svg width="24" height="24" viewBox="0 0 24 24" fill="none" xmlns="http://www.w3.org/2000/svg">
<path fill-rule="evenodd" clip-rule="evenodd" d="M3.34029 7.28955C2.02421 8.04939 2.00293 9.94149 3.3016 10.7307L3.89533 11.0916C4.18232 11.266 4.42077 11.5098 4.58869 11.8007L8.82321 19.1351C9.92778 21.0483 12.3741 21.7038 14.2873 20.5992L19.9048 17.3559C21.8179 16.2514 22.4734 13.805 21.3689 11.8918L15.8689 2.36557C15.3166 1.40898 14.0934 1.08123 13.1368 1.63352L3.34029 7.28955ZM4.34029 9.0216L14.1368 3.36557L19.6368 12.8918C20.1891 13.8484 19.8614 15.0716 18.9048 15.6239L13.2873 18.8671C12.3307 19.4194 11.1075 19.0917 10.5553 18.1351L6.32074 10.8007C5.98491 10.219 5.50801 9.73126 4.93402 9.38243L4.34029 9.0216Z" fill="black"/>
<path fill-rule="evenodd" clip-rule="evenodd" d="M5.69106 16.4146C5.96788 17.2451 5.75174 18.1606 5.13277 18.7796C4.23025 19.6821 2.76697 19.6821 1.86445 18.7796C1.24548 18.1606 1.02934 17.2451 1.30616 16.4146L2.07559 14.1063C2.53143 12.7388 4.46579 12.7388 4.92164 14.1063L5.69106 16.4146ZM3.20352 17.0471L3.49861 16.1618L3.7937 17.0471C3.83095 17.1588 3.80186 17.2821 3.71856 17.3654C3.59708 17.4869 3.40014 17.4869 3.27867 17.3654C3.19536 17.2821 3.16627 17.1588 3.20352 17.0471Z" fill="black"/>
</svg>
