<svg width="24" height="24" viewBox="0 0 24 24" fill="none" xmlns="http://www.w3.org/2000/svg">
<path d="M16.4992 11.0005C17.3276 11.0005 17.9992 10.3289 17.9992 9.50047C17.9992 8.67204 17.3276 8.00047 16.4992 8.00047C15.6708 8.00047 14.9992 8.67204 14.9992 9.50047C14.9992 10.3289 15.6708 11.0005 16.4992 11.0005Z" fill="black"/>
<path d="M10.9992 8.50047C10.9992 9.3289 10.3276 10.0005 9.49922 10.0005C8.67079 10.0005 7.99922 9.3289 7.99922 8.50047C7.99922 7.67204 8.67079 7.00047 9.49922 7.00047C10.3276 7.00047 10.9992 7.67204 10.9992 8.50047Z" fill="black"/>
<path d="M7.49922 16.0005C8.32765 16.0005 8.99922 15.3289 8.99922 14.5005C8.99922 13.672 8.32765 13.0005 7.49922 13.0005C6.67079 13.0005 5.99922 13.672 5.99922 14.5005C5.99922 15.3289 6.67079 16.0005 7.49922 16.0005Z" fill="black"/>
<path fill-rule="evenodd" clip-rule="evenodd" d="M19.4986 18.5005C21.2888 18.5005 22.3746 17.0097 22.8656 15.468C23.3756 13.8665 23.4134 11.8144 22.9055 9.81661C22.3951 7.80877 21.3141 5.7803 19.503 4.2842C17.6776 2.77632 15.1795 1.86709 11.957 2.00136C8.50772 2.14508 5.91565 3.18051 4.11802 4.79983C2.32105 6.41855 1.40071 8.54683 1.16392 10.7215C0.700382 14.9788 2.8528 19.679 6.56561 21.402C7.25443 21.744 8.17823 22.0254 9.10483 22.2026C10.0374 22.3808 11.0595 22.47 11.9353 22.3722C12.3721 22.3234 12.825 22.2226 13.224 22.0253C13.6299 21.8245 14.0374 21.4926 14.2469 20.9687C14.4566 20.444 14.401 19.8939 14.2162 19.3917C14.0344 18.8977 13.7075 18.3882 13.2676 17.8603C12.8227 17.3265 12.8449 17.0806 12.8499 17.0477C12.8552 17.0133 12.8912 16.8874 13.1764 16.7013C13.2148 16.6762 13.2921 16.6398 13.4959 16.6698C13.7174 16.7023 14.004 16.8027 14.3714 16.9766C14.6414 17.1044 14.9065 17.2474 15.1925 17.4017C15.2979 17.4586 15.4062 17.517 15.5186 17.5767C15.907 17.7831 16.3519 18.0092 16.7872 18.1485C17.4933 18.3744 18.3821 18.5005 19.4986 18.5005ZM12.0403 3.99963C14.8181 3.88389 16.8202 4.66215 18.2292 5.82614C19.6526 7.00191 20.5402 8.6297 20.9672 10.3094C21.3967 11.9991 21.3406 13.6658 20.9599 14.8611C20.5601 16.1163 19.9583 16.5005 19.4986 16.5005C18.5228 16.5005 17.8514 16.3891 17.3967 16.2436C17.15 16.1647 16.846 16.0173 16.4573 15.8107C16.3698 15.7642 16.2773 15.7142 16.1812 15.6624C15.8823 15.5011 15.549 15.3213 15.2271 15.1689C14.7994 14.9664 14.3012 14.7667 13.7868 14.691C13.2546 14.6128 12.6448 14.6601 12.0835 15.0264C11.5644 15.3651 10.9996 15.9148 10.8728 16.7462C10.7458 17.579 11.1048 18.389 11.7311 19.1407C12.0914 19.573 12.2657 19.8827 12.3392 20.0824C12.3606 20.1406 12.3713 20.1828 12.3764 20.2115C12.3661 20.2177 12.3532 20.2247 12.3374 20.2325C12.2208 20.2902 12.0182 20.3505 11.7133 20.3846C11.1054 20.4525 10.298 20.3944 9.48031 20.2381C8.66304 20.0819 7.9222 19.8442 7.44595 19.6061L7.43196 19.5991L7.41776 19.5925C4.63916 18.3101 2.76007 14.5392 3.15217 10.938C3.3435 9.18084 4.0747 7.53066 5.45662 6.28582C6.83788 5.04156 8.95205 4.1283 12.0403 3.99963ZM12.4149 20.1841L12.4141 20.1849L12.4122 20.1869L12.4149 20.1841C12.415 20.184 12.4149 20.1842 12.4149 20.1841Z" fill="black"/>
</svg>
