<svg width="24" height="24" viewBox="0 0 24 24" fill="none" xmlns="http://www.w3.org/2000/svg">
<path d="M15.3894 7.404C16.1705 6.62295 17.4368 6.62295 18.2179 7.404C18.9989 8.18505 18.9989 9.45138 18.2179 10.2324L10.7932 17.6571C9.4264 19.0239 7.21032 19.0239 5.84349 17.6571C4.47665 16.2902 4.47665 14.0741 5.84349 12.7073L13.162 5.38875C13.5526 4.99822 13.5526 4.36506 13.162 3.97453C12.7715 3.58401 12.1384 3.58401 11.7478 3.97453L4.42927 11.2931C2.28139 13.441 2.28139 16.9234 4.42927 19.0713C6.57716 21.2191 10.0596 21.2191 12.2074 19.0713L19.6321 11.6466C21.1942 10.0845 21.1942 7.55189 19.6321 5.98979C18.07 4.42769 15.5373 4.42769 13.9752 5.98979L6.33846 13.6265C5.36215 14.6029 5.36215 16.1858 6.33846 17.1621C7.31477 18.1384 8.89768 18.1384 9.87399 17.1621L17.4047 9.63139C17.7952 9.24086 17.7952 8.6077 17.4047 8.21717C17.0142 7.82665 16.381 7.82665 15.9905 8.21717L8.45978 15.7479C8.26452 15.9431 7.94794 15.9431 7.75267 15.7479C7.55741 15.5526 7.55741 15.236 7.75267 15.0408L15.3894 7.404Z" fill="black"/>
</svg>
