<svg width="24" height="24" viewBox="0 0 24 24" fill="none" xmlns="http://www.w3.org/2000/svg">
<path fill-rule="evenodd" clip-rule="evenodd" d="M5 3C2.79086 3 1 4.79086 1 7V17C1 19.2091 2.79086 21 5 21H7C9.20914 21 11 19.2091 11 17V7C11 4.79086 9.20914 3 7 3H5ZM3 7C3 5.89543 3.89543 5 5 5H7C8.10457 5 9 5.89543 9 7V17C9 18.1046 8.10457 19 7 19H5C3.89543 19 3 18.1046 3 17V7Z" fill="black"/>
<path fill-rule="evenodd" clip-rule="evenodd" d="M16 3C13.7909 3 12 4.79086 12 7V17C12 19.2091 13.7909 21 16 21H18C20.2091 21 22 19.2091 22 17V7C22 4.79086 20.2091 3 18 3H16ZM14 7C14 5.89543 14.8954 5 16 5H18C19.1046 5 20 5.89543 20 7V17C20 18.1046 19.1046 19 18 19H16C14.8954 19 14 18.1046 14 17V7Z" fill="black"/>
</svg>
