<svg width="24" height="24" viewBox="0 0 24 24" fill="none" xmlns="http://www.w3.org/2000/svg">
<path fill-rule="evenodd" clip-rule="evenodd" d="M1.25 7.40039C1.25 5.19126 3.04086 3.40039 5.25 3.40039H15.25C17.4591 3.40039 19.25 5.19125 19.25 7.40039V11.0005C19.25 11.1008 19.2352 11.1977 19.2077 11.289C20.0736 11.7296 20.6667 12.6291 20.6667 13.6672V14.025C21.455 14.3995 22 15.203 22 16.1338V18.0005C22 19.1051 21.1046 20.0005 20 20.0005H16C14.9629 20.0005 14.1101 19.2111 14.0099 18.2003C14.0066 18.2004 14.0033 18.2004 14 18.2004H11.25V18.6004H12.5C13.0523 18.6004 13.5 19.0482 13.5 19.6004C13.5 20.1527 13.0523 20.6004 12.5 20.6004H8C7.44772 20.6004 7 20.1527 7 19.6004C7 19.0482 7.44772 18.6004 8 18.6004H9.25005V18.2004H5.25C3.04086 18.2004 1.25 16.4095 1.25 14.2004V7.40039ZM14 16.2004V16.1338C14 15.203 14.545 14.3995 15.3333 14.025V13.6672C15.3333 12.4528 16.145 11.428 17.2555 11.1058C17.2519 11.0712 17.25 11.0361 17.25 11.0005V7.40039C17.25 6.29582 16.3546 5.40039 15.25 5.40039H5.25C4.14543 5.40039 3.25 6.29582 3.25 7.40039V14.2004C3.25 15.305 4.14543 16.2004 5.25 16.2004H14ZM17.3333 13.6672C17.3333 13.299 17.6318 13.0005 18 13.0005C18.3682 13.0005 18.6667 13.299 18.6667 13.6672V13.8005H17.3333V13.6672ZM16 16.1338C16 15.9497 16.1492 15.8005 16.3333 15.8005H19.6667C19.8508 15.8005 20 15.9497 20 16.1338V18.0005H16V16.1338Z" fill="black"/>
</svg>
