<svg width="24" height="24" viewBox="0 0 24 24" fill="none" xmlns="http://www.w3.org/2000/svg">
<path fill-rule="evenodd" clip-rule="evenodd" d="M16.25 13.5005C16.25 12.534 17.0335 11.7505 18 11.7505C18.9665 11.7505 19.75 12.534 19.75 13.5005C19.75 14.467 18.9665 15.2505 18 15.2505C17.0335 15.2505 16.25 14.467 16.25 13.5005ZM18 13.7505C18.1381 13.7505 18.25 13.6386 18.25 13.5005C18.25 13.3624 18.1381 13.2505 18 13.2505C17.8619 13.2505 17.75 13.3624 17.75 13.5005C17.75 13.6386 17.8619 13.7505 18 13.7505Z" fill="black"/>
<path fill-rule="evenodd" clip-rule="evenodd" d="M18 15.2505C18.9665 15.2505 19.75 16.034 19.75 17.0005C19.75 17.967 18.9665 18.7505 18 18.7505C17.0335 18.7505 16.25 17.967 16.25 17.0005C16.25 16.034 17.0335 15.2505 18 15.2505ZM18.25 17.0005C18.25 17.1386 18.1381 17.2505 18 17.2505C17.8619 17.2505 17.75 17.1386 17.75 17.0005C17.75 16.8624 17.8619 16.7505 18 16.7505C18.1381 16.7505 18.25 16.8624 18.25 17.0005Z" fill="black"/>
<path fill-rule="evenodd" clip-rule="evenodd" d="M1.25 7.40039C1.25 5.19126 3.04086 3.40039 5.25 3.40039H15.25C17.4591 3.40039 19.25 5.19125 19.25 7.40039V9.25049H19.5975C21.1961 9.25049 22.5139 10.504 22.5938 12.1007L22.8938 18.1007C22.9794 19.8142 21.6132 21.2505 19.8975 21.2505H16.1025C14.9795 21.2505 14.0062 20.6351 13.4918 19.7294C13.4285 20.2208 13.0086 20.6004 12.5 20.6004H8C7.44772 20.6004 7 20.1527 7 19.6004C7 19.0482 7.44772 18.6004 8 18.6004H9.25005V18.2004H5.25C3.04086 18.2004 1.25 16.4095 1.25 14.2004V7.40039ZM13.1624 18.8513C13.1197 18.6412 13.099 18.4234 13.1029 18.2004H11.25V18.6004H12.5C12.7541 18.6004 12.986 18.6952 13.1624 18.8513ZM13.2013 16.2004L13.4062 12.1007C13.4861 10.504 14.8039 9.25049 16.4025 9.25049H17.25V7.40039C17.25 6.29582 16.3546 5.40039 15.25 5.40039H5.25C4.14543 5.40039 3.25 6.29582 3.25 7.40039V14.2004C3.25 15.305 4.14543 16.2004 5.25 16.2004H13.2013ZM15.4037 12.2006C15.4304 11.6683 15.8696 11.2505 16.4025 11.2505H19.5975C20.1304 11.2505 20.5696 11.6683 20.5963 12.2006L20.8963 18.2005C20.9248 18.7717 20.4694 19.2505 19.8975 19.2505H16.1025C15.5306 19.2505 15.0752 18.7717 15.1037 18.2006L15.4037 12.2006Z" fill="black"/>
</svg>
