<svg width="24" height="24" viewBox="0 0 24 24" fill="none" xmlns="http://www.w3.org/2000/svg">
<path fill-rule="evenodd" clip-rule="evenodd" d="M5.25 3.40039C3.04086 3.40039 1.25 5.19126 1.25 7.40039V14.2004C1.25 16.4095 3.04086 18.2004 5.25 18.2004H9.25001V18.6004H7.49997C6.94768 18.6004 6.49997 19.0481 6.49997 19.6004C6.49997 20.1527 6.94768 20.6004 7.49997 20.6004H13C13.5522 20.6004 14 20.1527 14 19.6004C14 19.0481 13.5522 18.6004 13 18.6004H11.25V18.2004H14.1516C14.0621 18.3897 14.0029 18.6045 14.0001 18.8407C13.9958 19.2085 14.1296 19.5192 14.3049 19.7546C14.6199 20.1775 15.1094 20.4176 15.4808 20.5598C16.2724 20.863 17.2934 21.0005 18 21.0005C18.7066 21.0005 19.7276 20.863 20.5192 20.5598C20.8906 20.4176 21.3801 20.1775 21.6951 19.7546C21.8704 19.5192 22.0042 19.2085 21.9999 18.8407C21.9957 18.4795 21.8595 18.1685 21.6847 17.9221C21.1125 17.115 20.0678 16.3154 18.7847 16.074C18.8092 16.028 18.8327 15.9814 18.8554 15.9344C18.866 15.9124 18.8757 15.8903 18.8845 15.868C20.1096 15.4905 21 14.3495 21 13.0005C21 11.7897 20.2828 10.7465 19.25 10.2725V7.40039C19.25 5.19125 17.4591 3.40039 15.25 3.40039H5.25ZM15 13.0005C15 14.1578 15.6553 15.162 16.615 15.6624C16.2571 15.9967 15.7769 16.2004 15.25 16.2004H5.25C4.14543 16.2004 3.25 15.305 3.25 14.2004V7.40039C3.25 6.29582 4.14543 5.40039 5.25 5.40039H15.25C16.3546 5.40039 17.25 6.29582 17.25 7.40039V10.095C15.9561 10.428 15 11.6026 15 13.0005ZM18 12.0005C17.4477 12.0005 17 12.4482 17 13.0005C17 13.5528 17.4477 14.0005 18 14.0005C18.5523 14.0005 19 13.5528 19 13.0005C19 12.4482 18.5523 12.0005 18 12.0005ZM16.2671 18.7182C16.7782 18.8985 17.5014 19.0005 18 19.0005C18.4986 19.0005 19.2218 18.8985 19.7329 18.7182C19.305 18.3226 18.675 18.0005 18 18.0005C17.325 18.0005 16.695 18.3226 16.2671 18.7182Z" fill="black"/>
</svg>
