<svg width="24" height="24" viewBox="0 0 24 24" fill="none" xmlns="http://www.w3.org/2000/svg">
<path fill-rule="evenodd" clip-rule="evenodd" d="M5 1.5C2.79086 1.5 1 3.29086 1 5.5V15.5C1 17.7091 2.79086 19.5 5 19.5H11V20.5H8C7.44772 20.5 7 20.9477 7 21.5C7 22.0523 7.44772 22.5 8 22.5H16C16.5523 22.5 17 22.0523 17 21.5C17 20.9477 16.5523 20.5 16 20.5H13V19.5H19C21.2091 19.5 23 17.7091 23 15.5V5.5C23 3.29086 21.2091 1.5 19 1.5H5ZM19 17.5C20.1046 17.5 21 16.6046 21 15.5V5.5C21 4.39543 20.1046 3.5 19 3.5H5C3.89543 3.5 3 4.39543 3 5.5V15.5C3 16.6046 3.89543 17.5 5 17.5H19Z" fill="black"/>
</svg>
