<svg width="24" height="24" viewBox="0 0 24 24" fill="none" xmlns="http://www.w3.org/2000/svg">
<path d="M15.1837 3.66074C16.7458 2.09879 19.2789 2.09874 20.8409 3.66074C22.403 5.22279 22.4029 7.75586 20.8409 9.31796L10.2345 19.9244C9.62251 20.5364 8.82761 20.9338 7.97083 21.0562L5.33118 21.4322C4.01136 21.6207 2.881 20.4903 3.06946 19.1705L3.44544 16.5309C3.56782 15.6742 3.9654 14.8801 4.57727 14.2682L15.1837 3.66074ZM5.99133 15.6822C5.68546 15.9882 5.48709 16.3858 5.4259 16.8141L5.04895 19.4527L7.68762 19.0758C8.11592 19.0146 8.51349 18.8162 8.81946 18.5103L18.087 9.24277L15.2589 6.41464L5.99133 15.6822ZM19.4269 5.07578C18.6711 4.32004 17.463 4.29774 16.6779 5.00449L19.4972 7.8248C20.2039 7.03977 20.1822 5.83157 19.4269 5.07578Z" fill="black"/>
</svg>
