<svg width="24" height="24" viewBox="0 0 24 24" fill="none" xmlns="http://www.w3.org/2000/svg">
<path fill-rule="evenodd" clip-rule="evenodd" d="M16.1382 1.0805C14.893 0.902936 14 1.94051 14 3.00002V8.00002C14 9.10459 14.8954 10 16 10H21C22.0595 10 23.0971 9.10699 22.9195 7.86181C22.4192 4.35355 19.6465 1.58078 16.1382 1.0805ZM16 3.00002C15.9992 3.00286 15.9961 3.01068 15.9848 3.02146C15.9751 3.03073 15.9577 3.0434 15.9314 3.05231C15.9034 3.0618 15.8758 3.06332 15.8559 3.06047C15.9041 3.06735 15.9521 3.0748 16 3.08282V8.00002H20.9172C20.9252 8.04788 20.9327 8.09593 20.9396 8.14416C20.9367 8.12417 20.9382 8.09663 20.9477 8.06862C20.9566 8.04231 20.9693 8.02491 20.9786 8.01522C20.9893 8.00396 20.9972 8.00092 21 8.00017L20.9172 8.00002C20.4963 5.48829 18.5117 3.50377 16 3.08282V3.00002Z" fill="black"/>
<path fill-rule="evenodd" clip-rule="evenodd" d="M13 4.00002C13 2.92868 12.1066 1.92674 10.8919 2.06081C5.89004 2.61283 2 6.85146 2 12C2 17.5229 6.47715 22 12 22C17.1486 22 21.3872 18.11 21.9392 13.1081C22.0733 11.8934 21.0713 11 20 11H15C13.8954 11 13 10.1046 13 9.00002V4.00002ZM4 12C4 7.92065 7.05414 4.55327 11 4.06181V9.00002C11 11.2092 12.7909 13 15 13H19.9382C19.4467 16.9459 16.0794 20 12 20C7.58172 20 4 16.4183 4 12Z" fill="black"/>
</svg>
