<svg width="24" height="24" viewBox="0 0 24 24" fill="none" xmlns="http://www.w3.org/2000/svg">
<path fill-rule="evenodd" clip-rule="evenodd" d="M14.9466 2.47407C13.0335 1.3695 10.5871 2.025 9.48254 3.93817L7.4367 7.48166C7.23928 7.82361 6.94505 8.09947 6.59111 8.27448L5.0697 9.02673C3.2798 9.91174 3.19854 12.4345 4.92776 13.4328L8.56263 15.5314L5.31269 21.1605C5.03654 21.6388 5.20042 22.2504 5.67871 22.5265C6.15701 22.8026 6.7686 22.6388 7.04474 22.1605L10.2947 16.5314L13.9296 18.63C15.6588 19.6284 17.8029 18.2967 17.6744 16.3041L17.5652 14.6104C17.5398 14.2163 17.6316 13.8236 17.829 13.4817L19.8748 9.93817C20.9794 8.025 20.3239 5.57864 18.4107 4.47407L14.9466 2.47407ZM10.4419 14.307L14.9296 16.898C15.2755 17.0977 15.7043 16.8313 15.6786 16.4328L15.5694 14.7391C15.5185 13.951 15.7021 13.1656 16.097 12.4817L18.1428 8.93817C18.6951 7.98158 18.3673 6.7584 17.4107 6.20612L13.9466 4.20612C12.9901 3.65383 11.7669 3.98158 11.2146 4.93817L9.16876 8.48166C8.77391 9.16556 8.18545 9.71728 7.47756 10.0673L5.95615 10.8196C5.59817 10.9966 5.58192 11.5011 5.92776 11.7008L10.4154 14.2917C10.4198 14.2942 10.4243 14.2967 10.4287 14.2993C10.4331 14.3018 10.4376 14.3044 10.4419 14.307Z" fill="black"/>
</svg>
