<svg width="24" height="24" viewBox="0 0 24 24" fill="none" xmlns="http://www.w3.org/2000/svg">
<path fill-rule="evenodd" clip-rule="evenodd" d="M10.0003 1C7.79112 1 6.00026 2.79086 6.00026 5V9.09167C6.00026 9.48652 5.88338 9.87254 5.66436 10.2011L4.72291 11.6132C3.61532 13.2746 4.80629 15.5 6.80303 15.5H11.0003V22C11.0003 22.5523 11.448 23 12.0003 23C12.5525 23 13.0003 22.5523 13.0003 22V15.5H17.1975C19.1942 15.5 20.3852 13.2746 19.2776 11.6132L18.3362 10.2011C18.1171 9.87254 18.0003 9.48652 18.0003 9.09167V5C18.0003 2.79086 16.2094 1 14.0003 1H10.0003ZM17.1975 13.5C17.5968 13.5 17.835 13.0549 17.6135 12.7226L16.6721 11.3105C16.234 10.6534 16.0003 9.88137 16.0003 9.09167V5C16.0003 3.89543 15.1048 3 14.0003 3H10.0003C8.89569 3 8.00026 3.89543 8.00026 5V9.09167C8.00026 9.88137 7.7665 10.6534 7.32846 11.3105L6.38701 12.7226C6.16549 13.0549 6.40368 13.5 6.80303 13.5H17.1975Z" fill="black"/>
</svg>
