<svg width="24" height="24" viewBox="0 0 24 24" fill="none" xmlns="http://www.w3.org/2000/svg">
<path fill-rule="evenodd" clip-rule="evenodd" d="M12 1C12.5523 1 13 1.44772 13 2V7.19388C14.4309 5.91073 16.674 5 20 5C20.3193 5 20.6194 5.1525 20.8077 5.41041C20.996 5.66833 21.0498 6.00065 20.9524 6.30478C20.2115 8.62013 18.5241 10.0992 16.8048 11H17.8098C19.0523 11 19.994 12.1209 19.7799 13.3448L18.3799 21.3448C18.2124 22.3018 17.3814 23 16.4098 23H7.5902C6.61864 23 5.78762 22.3018 5.62014 21.3448L4.22014 13.3448C4.00597 12.1209 4.94776 11 6.1902 11H11V9.23323C9.89599 9.06664 8.52633 8.6933 7.21807 8.01191C5.49083 7.11231 3.79177 5.63036 3.04758 3.30478C2.95026 3.00065 3.00404 2.66833 3.1923 2.41041C3.38057 2.1525 3.68069 2 4.00001 2C7.32602 2 9.5691 2.91073 11 4.19388V2C11 1.44772 11.4477 1 12 1ZM8.14194 6.23809C9.01982 6.69531 9.93826 6.98603 10.735 7.15368C10.5391 6.69301 10.2182 6.19449 9.7206 5.73376C8.93852 5.00961 7.66403 4.32965 5.63048 4.09053C6.26535 5.02761 7.15928 5.72628 8.14194 6.23809ZM15.8581 9.23809C14.9802 9.69531 14.0618 9.98603 13.265 10.1537C13.4609 9.69301 13.7818 9.19449 14.2794 8.73376C15.0615 8.00961 16.336 7.32965 18.3695 7.09053C17.7347 8.02761 16.8407 8.72628 15.8581 9.23809ZM7.5902 21L6.1902 13L17.8098 13L16.4098 21H7.5902Z" fill="black"/>
</svg>
