<svg width="24" height="24" viewBox="0 0 24 24" fill="none" xmlns="http://www.w3.org/2000/svg">
<path fill-rule="evenodd" clip-rule="evenodd" d="M11.0794 5.26624C9.65259 3.94511 7.38821 3 4.00001 3C3.68069 3 3.38057 3.1525 3.1923 3.41041C3.00404 3.66833 2.95026 4.00065 3.04758 4.30478C3.79177 6.63036 5.49083 8.11231 7.21807 9.01191C8.52633 9.6933 9.89599 10.0666 11 10.2332V18.2252C10.6966 18.3176 10.3181 18.4522 10.0039 18.6318C9.57177 18.8787 9.01874 19.2972 8.61079 19.6191C8.39839 19.7867 8.20979 19.9406 8.07433 20.0526C8.00647 20.1087 7.95164 20.1545 7.91346 20.1865L7.86906 20.2239L7.85704 20.2341L7.85371 20.2369L7.85274 20.2377C7.85269 20.2378 7.85223 20.2382 8.50001 21L7.85274 20.2377C7.43199 20.5955 7.38042 21.227 7.73818 21.6478C8.09592 22.0685 8.72698 22.1196 9.14773 21.7619L9.15037 21.7596L9.16007 21.7514L9.19943 21.7183C9.2341 21.6892 9.28494 21.6467 9.34839 21.5943C9.47554 21.4892 9.65208 21.3451 9.84977 21.1891C10.262 20.8638 10.709 20.5323 10.9961 20.3682C11.152 20.2792 11.4275 20.1806 11.722 20.0977C11.8259 20.0685 11.9216 20.044 12 20.0251C12.0784 20.044 12.1741 20.0685 12.278 20.0977C12.5725 20.1806 12.848 20.2792 13.0039 20.3682C13.291 20.5323 13.738 20.8638 14.1502 21.1891C14.3479 21.3451 14.5245 21.4892 14.6516 21.5943C14.7151 21.6467 14.7659 21.6892 14.8006 21.7183L14.8399 21.7514L14.8496 21.7596L14.8518 21.7615C15.2726 22.1192 15.9041 22.0685 16.2618 21.6478C16.6196 21.227 16.5685 20.5959 16.1478 20.2382L15.5 21C16.1478 20.2382 16.1478 20.2382 16.1478 20.2382L16.1463 20.2369L16.131 20.2239L16.0866 20.1865C16.0484 20.1545 15.9935 20.1087 15.9257 20.0526C15.7902 19.9406 15.6016 19.7867 15.3892 19.6191C14.9813 19.2972 14.4282 18.8787 13.9961 18.6318C13.6819 18.4522 13.3034 18.3176 13 18.2252V16.2332C14.104 16.0666 15.4737 15.6933 16.7819 15.0119C18.5092 14.1123 20.2082 12.6304 20.9524 10.3048C21.0498 10.0006 20.996 9.66833 20.8077 9.41041C20.6194 9.1525 20.3193 9 20 9C16.674 9 14.4309 9.91073 13 11.1939V9.5C13 9.47183 12.9988 9.44393 12.9966 9.41635C12.9988 9.38884 13 9.36115 13 9.33333C13 8.17619 12.4913 6.5735 11.0794 5.26624ZM10.735 8.15368C9.93826 7.98603 9.01982 7.69531 8.14194 7.23809C7.15928 6.72628 6.26535 6.02761 5.63048 5.09053C7.66403 5.32965 8.93852 6.00961 9.7206 6.73376C10.2182 7.19449 10.5391 7.69301 10.735 8.15368ZM13.265 14.1537C14.0618 13.986 14.9802 13.6953 15.8581 13.2381C16.8407 12.7263 17.7347 12.0276 18.3695 11.0905C16.336 11.3296 15.0615 12.0096 14.2794 12.7338C13.7818 13.1945 13.4609 13.693 13.265 14.1537Z" fill="black"/>
</svg>
