<svg width="24" height="24" viewBox="0 0 24 24" fill="none" xmlns="http://www.w3.org/2000/svg">
<path d="M2 4.5C2 3.94772 2.44772 3.5 3 3.5H21C21.5523 3.5 22 3.94772 22 4.5C22 5.05228 21.5523 5.5 21 5.5H3C2.44772 5.5 2 5.05228 2 4.5Z" fill="black"/>
<path d="M2 9.5C2 8.94772 2.44772 8.5 3 8.5H12C12.5523 8.5 13 8.94772 13 9.5C13 10.0523 12.5523 10.5 12 10.5H3C2.44772 10.5 2 10.0523 2 9.5Z" fill="black"/>
<path d="M3 13.5C2.44772 13.5 2 13.9477 2 14.5C2 15.0523 2.44772 15.5 3 15.5H9C9.55228 15.5 10 15.0523 10 14.5C10 13.9477 9.55228 13.5 9 13.5H3Z" fill="black"/>
<path d="M2 19.5C2 18.9477 2.44772 18.5 3 18.5H9C9.55228 18.5 10 18.9477 10 19.5C10 20.0523 9.55228 20.5 9 20.5H3C2.44772 20.5 2 20.0523 2 19.5Z" fill="black"/>
<path fill-rule="evenodd" clip-rule="evenodd" d="M18.8083 6.68966C18.5039 6.46955 18.1019 6.4386 17.7674 6.60951C17.4329 6.78042 17.2224 7.12437 17.2224 7.5V14.8668C16.7519 14.739 16.182 14.6549 15.499 14.6549C14.43 14.6549 13.6372 14.861 13.0684 15.1189C11.9171 15.6408 11.8125 16.9114 12.2271 17.738C12.4674 18.217 12.8382 18.8618 13.33 19.401C13.8041 19.9208 14.5366 20.5 15.499 20.5C17.8318 20.5 19.2224 18.3982 19.2224 16.5093V12.546C20.0264 12.3613 20.6472 11.9572 21.0964 11.4535C21.6869 10.7915 21.9411 10.0047 21.9954 9.43847C22.0348 9.02854 21.8188 8.6364 21.4513 8.45055C20.9285 8.18613 19.5048 7.19332 18.8083 6.68966ZM15.499 16.6549C16.3723 16.6549 16.8972 16.8355 17.1744 16.974C16.9903 17.8506 16.2986 18.5 15.499 18.5C15.3739 18.5 15.1396 18.4171 14.8077 18.0532C14.5039 17.7202 14.2372 17.2787 14.0354 16.882C14.3392 16.7672 14.8106 16.6549 15.499 16.6549ZM19.6038 10.1223C19.5074 10.2305 19.384 10.3382 19.2224 10.4281V9.41601C19.4278 9.55366 19.6314 9.68729 19.8221 9.80829C19.765 9.91476 19.6931 10.0223 19.6038 10.1223Z" fill="black"/>
</svg>
