<svg width="24" height="24" viewBox="0 0 24 24" fill="none" xmlns="http://www.w3.org/2000/svg">
<path d="M16.3053 2.80024C14.8273 2.2433 13.2026 2.21195 11.7041 2.71144C8.97029 3.62271 7.10242 6.13686 7.00408 9.00023H4C3.44772 9.00023 3 9.44794 3 10.0002C3 10.5525 3.44772 11.0002 4 11.0002H7V12.5002H4C3.44772 12.5002 3 12.9479 3 13.5002C3 14.0525 3.44772 14.5002 4 14.5002H7V14.7624C7 17.7236 8.89485 20.3526 11.7041 21.289C13.2026 21.7885 14.8273 21.7572 16.3053 21.2002L16.7795 21.0216C18.8923 20.2255 20.4669 18.4251 20.9744 16.225C21.0986 15.6869 20.7629 15.15 20.2248 15.0258C19.6866 14.9017 19.1497 15.2373 19.0256 15.7754C18.6685 17.3233 17.5608 18.5899 16.0743 19.15L15.6002 19.3287C14.5518 19.7237 13.3994 19.7459 12.3365 19.3917C10.344 18.7275 9 16.8628 9 14.7624V14.5002H15C15.5523 14.5002 16 14.0525 16 13.5002C16 12.9479 15.5523 12.5002 15 12.5002H9V11.0002H15C15.5523 11.0002 16 10.5525 16 10.0002C16 9.44794 15.5523 9.00023 15 9.00023H9.00576C9.10283 6.99803 10.4195 5.24781 12.3365 4.6088C13.3994 4.25452 14.5518 4.27676 15.6002 4.67179L16.0743 4.85044C17.5608 5.41054 18.6685 6.67715 19.0256 8.22501C19.1497 8.76316 19.6866 9.09878 20.2248 8.97464C20.7629 8.85049 21.0986 8.31359 20.9744 7.77544C20.4669 5.57534 18.8923 3.77501 16.7795 2.97888L16.3053 2.80024Z" fill="black"/>
</svg>
