<svg width="24" height="24" viewBox="0 0 24 24" fill="none" xmlns="http://www.w3.org/2000/svg">
<path fill-rule="evenodd" clip-rule="evenodd" d="M13 3C13 2.44772 12.5523 2 12 2C11.4477 2 11 2.44772 11 3V4.05493C6.50005 4.55237 3 8.36745 3 13C3 17.9706 7.02944 22 12 22C16.9706 22 21 17.9706 21 13C21 8.36745 17.5 4.55237 13 4.05493V3ZM11 6.07089V11C11 11.5523 11.4477 12 12 12C12.5523 12 13 11.5523 13 11V6.07089C16.3923 6.55612 19 9.47353 19 13C19 16.866 15.866 20 12 20C8.13401 20 5 16.866 5 13C5 9.47353 7.60771 6.55612 11 6.07089Z" fill="black"/>
</svg>
