<svg width="24" height="24" viewBox="0 0 24 24" fill="none" xmlns="http://www.w3.org/2000/svg">
<path fill-rule="evenodd" clip-rule="evenodd" d="M2 6.5C2 5.94772 2.44771 5.5 3 5.5C3.55229 5.5 4 5.94772 4 6.5V9.35854L9.15452 6.78251C10.9206 5.89987 13 7.18314 13 9.15863V9.35854L18.1545 6.78251C19.9206 5.89987 22 7.18314 22 9.15863V14.8414C22 16.8169 19.9206 18.1001 18.1545 17.2175L13 14.6415V14.8414C13 16.8169 10.9206 18.1001 9.15452 17.2175L4 14.6415V17.5C4 18.0523 3.55229 18.5 3 18.5C2.44771 18.5 2 18.0523 2 17.5V6.5ZM11 9.15863C11 8.6713 10.4863 8.35277 10.0486 8.57153L4.36317 11.4129C3.87894 11.6549 3.87895 12.3451 4.36316 12.5871L10.0486 15.4285C10.4863 15.6472 11 15.3287 11 14.8414V9.15863ZM13 12.0009C13.0003 12.2336 13.1213 12.4662 13.3632 12.5871L19.0486 15.4285C19.4863 15.6472 20 15.3287 20 14.8414V9.15863C20 8.6713 19.4863 8.35277 19.0486 8.57153L13.3632 11.4129C13.1213 11.5338 13.0003 11.7664 13 11.9991V12.0009Z" fill="black"/>
</svg>
