<svg width="24" height="24" viewBox="0 0 24 24" fill="none" xmlns="http://www.w3.org/2000/svg">
<path d="M6 8C6.55228 8 7 8.44772 7 9C7 9.55228 6.55228 10 6 10C5.44772 10 5 9.55228 5 9C5 8.44772 5.44772 8 6 8Z" fill="black"/>
<path d="M9.5 15.5C9.5 14.9477 9.94772 14.5 10.5 14.5H13.5C14.0523 14.5 14.5 14.9477 14.5 15.5C14.5 16.0523 14.0523 16.5 13.5 16.5H10.5C9.94772 16.5 9.5 16.0523 9.5 15.5Z" fill="black"/>
<path d="M10.5 17.5C9.94772 17.5 9.5 17.9477 9.5 18.5C9.5 19.0523 9.94772 19.5 10.5 19.5H12.5C13.0523 19.5 13.5 19.0523 13.5 18.5C13.5 17.9477 13.0523 17.5 12.5 17.5H10.5Z" fill="black"/>
<path fill-rule="evenodd" clip-rule="evenodd" d="M7 4C7 2.89543 7.89543 2 9 2H15C16.1046 2 17 2.89543 17 4V5H18C20.2091 5 22 6.79086 22 9V14C22 16.2091 20.2091 18 18 18H17V20C17 21.1046 16.1046 22 15 22H9C7.89543 22 7 21.1046 7 20V18H6C3.79086 18 2 16.2091 2 14V9C2 6.79086 3.79086 5 6 5H7V4ZM15 4V5H9V4H15ZM4 9C4 7.89543 4.89543 7 6 7H18C19.1046 7 20 7.89543 20 9V14C20 15.1046 19.1046 16 18 16H17V14C17 12.8954 16.1046 12 15 12H9C7.89543 12 7 12.8954 7 14V16H6C4.89543 16 4 15.1046 4 14V9ZM9 14H15V20H9V14Z" fill="black"/>
</svg>
