<svg width="24" height="24" viewBox="0 0 24 24" fill="none" xmlns="http://www.w3.org/2000/svg">
<path fill-rule="evenodd" clip-rule="evenodd" d="M8.7 7.5C7.48497 7.5 6.5 8.48497 6.5 9.7V14.3C6.5 15.515 7.48497 16.5 8.7 16.5H15.3C16.515 16.5 17.5 15.515 17.5 14.3V9.7C17.5 8.48497 16.515 7.5 15.3 7.5H8.7ZM8.5 9.7C8.5 9.58954 8.58954 9.5 8.7 9.5H15.3C15.4105 9.5 15.5 9.58954 15.5 9.7V14.3C15.5 14.4105 15.4105 14.5 15.3 14.5H8.7C8.58954 14.5 8.5 14.4105 8.5 14.3V9.7Z" fill="black"/>
<path fill-rule="evenodd" clip-rule="evenodd" d="M16.5 2C17.0523 2 17.5 2.44772 17.5 3V4.03095C18.96 4.21301 20.1757 5.18195 20.7092 6.5H22C22.5523 6.5 23 6.94772 23 7.5C23 8.05228 22.5523 8.5 22 8.5H21V9.5H22C22.5523 9.5 23 9.94772 23 10.5C23 11.0523 22.5523 11.5 22 11.5H21V12.5H22C22.5523 12.5 23 12.9477 23 13.5C23 14.0523 22.5523 14.5 22 14.5H21V15.5H22C22.5523 15.5 23 15.9477 23 16.5C23 17.0523 22.5523 17.5 22 17.5H20.7092C20.2379 18.6644 19.2342 19.5563 18 19.874V21C18 21.5523 17.5523 22 17 22C16.4477 22 16 21.5523 16 21V20H15V21C15 21.5523 14.5523 22 14 22C13.4477 22 13 21.5523 13 21V20H12V21C12 21.5523 11.5523 22 11 22C10.4477 22 10 21.5523 10 21V20H9V21C9 21.5523 8.55228 22 8 22C7.44772 22 7 21.5523 7 21V20C5.32131 20 3.88415 18.9659 3.29076 17.5H2C1.44772 17.5 1 17.0523 1 16.5C1 15.9477 1.44772 15.5 2 15.5H3V14.5H2C1.44772 14.5 1 14.0523 1 13.5C1 12.9477 1.44772 12.5 2 12.5H3V11.5H2C1.44772 11.5 1 11.0523 1 10.5C1 9.94772 1.44772 9.5 2 9.5H3V8.5H2C1.44772 8.5 1 8.05228 1 7.5C1 6.94772 1.44772 6.5 2 6.5H3.29076C3.82429 5.18195 5.03996 4.21301 6.5 4.03095V3C6.5 2.44772 6.94772 2 7.5 2C8.05228 2 8.5 2.44772 8.5 3V4H9.5V3C9.5 2.44772 9.94771 2 10.5 2C11.0523 2 11.5 2.44772 11.5 3V4H12.5V3C12.5 2.44772 12.9477 2 13.5 2C14.0523 2 14.5 2.44772 14.5 3V4H15.5V3C15.5 2.44772 15.9477 2 16.5 2ZM19 16C19 17.1046 18.1046 18 17 18H7C5.89543 18 5 17.1046 5 16V8C5 6.89543 5.89543 6 7 6H17C18.1046 6 19 6.89543 19 8V16Z" fill="black"/>
</svg>
