<svg width="24" height="24" viewBox="0 0 24 24" fill="none" xmlns="http://www.w3.org/2000/svg">
<path fill-rule="evenodd" clip-rule="evenodd" d="M14.7071 3.70711C15.0976 3.31658 15.0976 2.68342 14.7071 2.29289C14.3166 1.90237 13.6834 1.90237 13.2929 2.29289L11.2929 4.29289C10.9024 4.68342 10.9024 5.31658 11.2929 5.70711L13.2929 7.70711C13.6834 8.09763 14.3166 8.09763 14.7071 7.70711C15.0976 7.31658 15.0976 6.68342 14.7071 6.29289L14.4473 6.03313C15.892 6.24911 17 7.49516 17 9V16.1707C15.8348 16.5825 15 17.6938 15 19C15 20.6569 16.3431 22 18 22C19.6569 22 21 20.6569 21 19C21 17.6938 20.1652 16.5825 19 16.1707V9C19 6.37273 16.9736 4.21874 14.3986 4.01565L14.7071 3.70711ZM18 18C17.4477 18 17 18.4477 17 19C17 19.5523 17.4477 20 18 20C18.5523 20 19 19.5523 19 19C19 18.4477 18.5523 18 18 18Z" fill="black"/>
<path fill-rule="evenodd" clip-rule="evenodd" d="M10 5C10 6.30622 9.16519 7.41746 8 7.82929V16.1707C9.16519 16.5825 10 17.6938 10 19C10 20.6569 8.65685 22 7 22C5.34315 22 4 20.6569 4 19C4 17.6938 4.83481 16.5825 6 16.1707V7.82929C4.83481 7.41746 4 6.30622 4 5C4 3.34315 5.34315 2 7 2C8.65685 2 10 3.34315 10 5ZM7 4C7.55228 4 8 4.44772 8 5C8 5.55228 7.55228 6 7 6C6.44772 6 6 5.55228 6 5C6 4.44772 6.44772 4 7 4ZM6 19C6 18.4477 6.44772 18 7 18C7.55228 18 8 18.4477 8 19C8 19.5523 7.55228 20 7 20C6.44772 20 6 19.5523 6 19Z" fill="black"/>
</svg>
