<svg width="24" height="24" viewBox="0 0 24 24" fill="none" xmlns="http://www.w3.org/2000/svg">
<path fill-rule="evenodd" clip-rule="evenodd" d="M1.5 5.5C1.5 6.88071 2.61929 8 4 8H6C7.38071 8 8.5 6.88071 8.5 5.5V3.5C8.5 2.11929 7.38071 1 6 1H4C2.61929 1 1.5 2.11929 1.5 3.5V5.5ZM4 6C3.72386 6 3.5 5.77614 3.5 5.5V3.5C3.5 3.22386 3.72386 3 4 3H6C6.27614 3 6.5 3.22386 6.5 3.5V5.5C6.5 5.77614 6.27614 6 6 6H4Z" fill="black"/>
<path fill-rule="evenodd" clip-rule="evenodd" d="M15.5 5.5C15.5 6.88071 16.6193 8 18 8H20C21.3807 8 22.5 6.88071 22.5 5.5V3.5C22.5 2.11929 21.3807 1 20 1H18C16.6193 1 15.5 2.11929 15.5 3.5V5.5ZM18 6C17.7239 6 17.5 5.77614 17.5 5.5V3.5C17.5 3.22386 17.7239 3 18 3H20C20.2761 3 20.5 3.22386 20.5 3.5V5.5C20.5 5.77614 20.2761 6 20 6H18Z" fill="black"/>
<path fill-rule="evenodd" clip-rule="evenodd" d="M4 23C2.61929 23 1.5 21.8807 1.5 20.5V18.5C1.5 17.1193 2.61929 16 4 16H6C7.38071 16 8.5 17.1193 8.5 18.5V20.5C8.5 21.8807 7.38071 23 6 23H4ZM3.5 20.5C3.5 20.7761 3.72386 21 4 21H6C6.27614 21 6.5 20.7761 6.5 20.5V18.5C6.5 18.2239 6.27614 18 6 18H4C3.72386 18 3.5 18.2239 3.5 18.5V20.5Z" fill="black"/>
<path d="M13 3C13 2.44771 13.4477 2 14 2C14.5523 2 15 2.44771 15 3C15 3.55228 14.5523 4 14 4C13.4477 4 13 3.55228 13 3Z" fill="black"/>
<path d="M10 4C9.44772 4 9 4.44771 9 5V7C9 7.55228 9.44772 8 10 8H9C8.44772 8 8 8.44771 8 9C8 9.55228 8.44772 10 9 10C9.55229 10 10 9.55228 10 9V13C10 13.5523 10.4477 14 11 14H14C13.4477 14 13 14.4477 13 15V16H10C9.44772 16 9 16.4477 9 17C9 17.5523 9.44772 18 10 18H11V20H10C9.44772 20 9 20.4477 9 21C9 21.5523 9.44772 22 10 22H12C12.5523 22 13 21.5523 13 21V16H14C14.5523 16 15 15.5523 15 15C15 14.4477 14.5523 14 14 14H15C15.5523 14 16 13.5523 16 13C16 12.4477 15.5523 12 15 12H12V9C12 9.55228 12.4477 10 13 10H14C14.5523 10 15 9.55228 15 9C15 8.44771 14.5523 8 14 8H12C12.5523 8 13 7.55228 13 7C13 6.44771 12.5523 6 12 6H11V5C11 4.44771 10.5523 4 10 4Z" fill="black"/>
<path d="M13 4C12.4477 4 12 4.44771 12 5C12 5.55228 12.4477 6 13 6C13.5523 6 14 5.55228 14 5C14 4.44771 13.5523 4 13 4Z" fill="black"/>
<path d="M18 16C17.4477 16 17 15.5523 17 15V13C17 12.4477 17.4477 12 18 12C18.5523 12 19 12.4477 19 13V14H20C20.5523 14 21 14.4477 21 15C21 15.5523 20.5523 16 20 16H19C19.5523 16 20 16.4477 20 17V18H21C21.5523 18 22 18.4477 22 19V21C22 21.5523 21.5523 22 21 22C20.4477 22 20 21.5523 20 21V20H19C18.4477 20 18 19.5523 18 19V18H15C14.4477 18 14 17.5523 14 17C14 16.4477 14.4477 16 15 16H18Z" fill="black"/>
<path d="M21 12C20.4477 12 20 12.4477 20 13C20 13.5523 20.4477 14 21 14C21.5523 14 22 13.5523 22 13C22 12.4477 21.5523 12 21 12Z" fill="black"/>
<path d="M18 20C17.4477 20 17 20.4477 17 21C17 21.5523 17.4477 22 18 22C18.5523 22 19 21.5523 19 21C19 20.4477 18.5523 20 18 20Z" fill="black"/>
<path d="M15 19C14.4477 19 14 19.4477 14 20C14 20.5523 14.4477 21 15 21C15.5523 21 16 20.5523 16 20C16 19.4477 15.5523 19 15 19Z" fill="black"/>
<path d="M6 12H7C7.55228 12 8 12.4477 8 13C8 13.5523 7.55228 14 7 14H3C2.44772 14 2 13.5523 2 13V11C2 10.4477 2.44772 10 3 10H5C5.55228 10 6 10.4477 6 11V12Z" fill="black"/>
<path d="M17 9C16.4477 9 16 9.44771 16 10C16 10.5523 16.4477 11 17 11H21C21.5523 11 22 10.5523 22 10C22 9.44771 21.5523 9 21 9H17Z" fill="black"/>
</svg>
