<svg width="24" height="24" viewBox="0 0 24 24" fill="none" xmlns="http://www.w3.org/2000/svg">
<path d="M12.1401 10.1449C12.4224 9.93322 12.4901 9.53791 12.2944 9.24434C12.0617 8.8953 11.5678 8.84639 11.2712 9.14303L10.7071 9.70711C10.3166 10.0976 9.68342 10.0976 9.29289 9.70711C8.90237 9.31658 8.90237 8.68342 9.29289 8.29289L9.85697 7.72881C11.046 6.53975 13.0257 6.73577 13.9585 8.13494C14.743 9.3117 14.4715 10.8963 13.3401 11.7449L13.2916 11.7813C13.108 11.919 13 12.135 13 12.3645L13 12.5C13 13.0523 12.5523 13.5 12 13.5C11.4477 13.5 11 13.0523 11 12.5L11 12.3645C11 11.5055 11.4044 10.6967 12.0916 10.1813L12.1401 10.1449Z" fill="black"/>
<path d="M11 15.5C11 16.0523 11.4477 16.5 12 16.5C12.5523 16.5 13 16.0523 13 15.5C13 14.9477 12.5523 14.5 12 14.5C11.4477 14.5 11 14.9477 11 15.5Z" fill="black"/>
<path fill-rule="evenodd" clip-rule="evenodd" d="M2 12C2 6.47715 6.47715 2 12 2C17.5228 2 22 6.47715 22 12C22 17.5228 17.5228 22 12 22C6.47715 22 2 17.5228 2 12ZM12 4C7.58172 4 4 7.58172 4 12C4 16.4183 7.58172 20 12 20C16.4183 20 20 16.4183 20 12C20 7.58172 16.4183 4 12 4Z" fill="black"/>
</svg>
