<svg width="24" height="24" viewBox="0 0 24 24" fill="none" xmlns="http://www.w3.org/2000/svg">
<path d="M7 10.3405V7C7 5.34315 8.34315 4 10 4H15C16.6569 4 18 5.34315 18 7V12.2903C18 12.5135 17.976 12.7344 17.9147 12.949C17.5833 14.1087 16.2306 18.0667 12.8929 19.4363C12.0797 19.77 11.2199 19.9183 10.4603 19.973C9.59017 20.0357 9.21052 18.909 9.65913 18.1609C9.83736 17.8636 10.0048 17.5312 10.1429 17.1663C10.36 16.5922 10.4728 16.027 10.5278 15.5361C10.6361 14.569 10.0212 13.724 9.15562 13.2794L8.62935 13.009C7.62898 12.4952 7 11.4651 7 10.3405Z" stroke="black" stroke-width="2" stroke-linecap="round" stroke-linejoin="round"/>
</svg>
