<svg width="24" height="24" viewBox="0 0 24 24" fill="none" xmlns="http://www.w3.org/2000/svg">
<path d="M21.4571 8.70711C21.8476 8.31658 21.8476 7.68342 21.4571 7.29289L17.4571 3.29289C17.0666 2.90237 16.4334 2.90237 16.0429 3.29289C15.6524 3.68342 15.6524 4.31658 16.0429 4.70711L18.3358 7H9.25C5.38401 7 2.25 10.134 2.25 14C2.25 17.866 5.38401 21 9.25 21H18.75C19.3023 21 19.75 20.5523 19.75 20C19.75 19.4477 19.3023 19 18.75 19H9.25C6.48858 19 4.25 16.7614 4.25 14C4.25 11.2386 6.48858 9 9.25 9H18.3358L16.0429 11.2929C15.6524 11.6834 15.6524 12.3166 16.0429 12.7071C16.4334 13.0976 17.0666 13.0976 17.4571 12.7071L21.4571 8.70711Z" fill="black"/>
</svg>
