<svg width="24" height="24" viewBox="0 0 24 24" fill="none" xmlns="http://www.w3.org/2000/svg">
<path d="M17 4C17 3.44772 17.4477 3 18 3C18.5523 3 19 3.44772 19 4V7.2C19 7.75229 18.5523 8.2 18 8.2H14.8884C14.3362 8.2 13.8884 7.75229 13.8884 7.2C13.8884 6.64772 14.3362 6.2 14.8884 6.2H15.5735C14.4881 5.44066 13.181 5 11.7775 5C8.06078 5 5 8.10723 5 12C5 12.5523 4.55229 13 4 13C3.44772 13 3 12.5523 3 12C3 7.05622 6.9034 3 11.7775 3C13.7372 3 15.5433 3.65852 17 4.76587V4Z" fill="black"/>
<path d="M7 20C7 20.5523 6.55228 21 6 21C5.44772 21 5 20.5523 5 20V16.8C5 16.2477 5.44772 15.8 6 15.8H9.11155C9.66384 15.8 10.1116 16.2477 10.1116 16.8C10.1116 17.3523 9.66384 17.8 9.11155 17.8H8.42654C9.5119 18.5593 10.819 19 12.2225 19C15.9392 19 19 15.8928 19 12C19 11.4477 19.4477 11 20 11C20.5523 11 21 11.4477 21 12C21 16.9438 17.0966 21 12.2225 21C10.2628 21 8.45674 20.3415 7 19.2341V20Z" fill="black"/>
</svg>
