<svg width="24" height="24" viewBox="0 0 24 24" fill="none" xmlns="http://www.w3.org/2000/svg">
<path d="M18.631 2.22423C18.2025 1.87575 17.5727 1.94059 17.2242 2.36905C16.8757 2.79751 16.9406 3.42735 17.369 3.77583L18.1857 4.44003H9.56C5.38473 4.44003 2 7.82476 2 12C2 12.5523 2.44772 13 3 13C3.55228 13 4 12.5523 4 12C4 8.92933 6.4893 6.44003 9.56 6.44003H18.5389L17.3025 7.64344C16.9067 8.02865 16.8982 8.66175 17.2834 9.05752C17.6686 9.45328 18.3017 9.46184 18.6975 9.07663L21.6975 6.15663C21.902 5.95757 22.0117 5.68062 21.999 5.39551C21.9863 5.11041 21.8524 4.84431 21.631 4.66423L18.631 2.22423Z" fill="black"/>
<path d="M5.36902 21.7758C5.79748 22.1243 6.42732 22.0595 6.7758 21.631C7.12428 21.2026 7.05944 20.5727 6.63098 20.2242L5.81434 19.56H14.44C18.6153 19.56 22 16.1753 22 12C22 11.4477 21.5523 11 21 11C20.4477 11 20 11.4477 20 12C20 15.0707 17.5107 17.56 14.44 17.56H5.46111L6.69749 16.3566C7.09325 15.9714 7.10181 15.3383 6.7166 14.9425C6.33138 14.5468 5.69828 14.5382 5.30251 14.9234L2.30252 17.8434C2.09801 18.0425 1.98829 18.3194 2.00099 18.6046C2.0137 18.8897 2.14762 19.1558 2.36902 19.3358L5.36902 21.7758Z" fill="black"/>
</svg>
