<svg width="24" height="24" viewBox="0 0 24 24" fill="none" xmlns="http://www.w3.org/2000/svg">
<path d="M17.2242 2.36905C17.5727 1.94059 18.2025 1.87575 18.631 2.22423L21.631 4.66423C21.8524 4.84431 21.9863 5.11041 21.999 5.39551C22.0117 5.68062 21.902 5.95757 21.6975 6.15663L18.6975 9.07663C18.3017 9.46184 17.6686 9.45328 17.2834 9.05752C16.8982 8.66175 16.9067 8.02865 17.3025 7.64344L18.5389 6.44003H9.56C6.4893 6.44003 4 8.92933 4 12C4 12.5523 3.55228 13 3 13C2.44772 13 2 12.5523 2 12C2 7.82476 5.38473 4.44003 9.56 4.44003H18.1857L17.369 3.77583C16.9406 3.42735 16.8757 2.79751 17.2242 2.36905Z" fill="black"/>
<path d="M6.7758 21.631C6.42732 22.0595 5.79748 22.1243 5.36902 21.7758L2.36902 19.3358C2.14762 19.1558 2.0137 18.8897 2.00099 18.6046C1.98829 18.3194 2.09801 18.0425 2.30252 17.8434L5.30251 14.9234C5.69828 14.5382 6.33138 14.5468 6.7166 14.9425C7.10181 15.3383 7.09325 15.9714 6.69749 16.3566L5.46111 17.56H14.44C17.5107 17.56 20 15.0707 20 12C20 11.4477 20.4477 11 21 11C21.5523 11 22 11.4477 22 12C22 16.1753 18.6153 19.56 14.44 19.56H5.81434L6.63098 20.2242C7.05944 20.5727 7.12428 21.2026 6.7758 21.631Z" fill="black"/>
<path d="M12.7536 9.84776C12.7536 9.22896 12.2519 8.72733 11.6331 8.72733C11.4209 8.72733 11.2131 8.78759 11.0338 8.90111L9.77681 9.69693C9.60933 9.80297 9.50781 9.98739 9.50781 10.1856C9.50781 10.6403 10.0082 11.1172 10.3934 10.8757L10.8935 10.566C10.9407 10.5367 11.0702 10.4758 11.1221 10.4561C11.1693 10.438 11.2159 10.4745 11.2159 10.5251V15.2312C11.2159 15.6558 11.5601 16.0001 11.9847 16.0001C12.4093 16.0001 12.7536 15.6558 12.7536 15.2312V9.84776Z" fill="black"/>
</svg>
