<svg width="24" height="24" viewBox="0 0 24 24" fill="none" xmlns="http://www.w3.org/2000/svg">
<path d="M13.752 7.7079C13.3278 7.35434 12.6972 7.41166 12.3436 7.83594C12.059 8.17754 12.0407 8.65285 12.2658 9.00966C10.9078 9.7798 9.99955 11.2381 9.99955 12.8984V15.7732C9.99955 16.3255 10.4473 16.7732 10.9995 16.7732C11.5518 16.7732 11.9995 16.3255 11.9995 15.7732V12.8984C11.9995 12.3045 12.21 11.7574 12.562 11.3299C12.6482 11.5554 12.8158 11.7505 13.0487 11.8669C13.5427 12.1139 14.1434 11.9137 14.3903 11.4197L15.1507 9.89903C15.2319 9.74378 15.2734 9.56519 15.2623 9.37754C15.2454 9.08944 15.1081 8.83702 14.9021 8.6663L13.752 7.7079Z" fill="black"/>
<path fill-rule="evenodd" clip-rule="evenodd" d="M2.41376 9.17113C0.851663 10.7332 0.851663 13.2659 2.41376 14.828L9.17113 21.5854C10.7332 23.1475 13.2659 23.1475 14.828 21.5854L21.5854 14.828C23.1475 13.2659 23.1475 10.7332 21.5854 9.17113L14.828 2.41376C13.2659 0.851663 10.7332 0.851664 9.17113 2.41376L2.41376 9.17113ZM3.82797 13.4138C3.04693 12.6327 3.04693 11.3664 3.82797 10.5853L10.5853 3.82797C11.3664 3.04693 12.6327 3.04693 13.4138 3.82797L20.1711 10.5853C20.9522 11.3664 20.9522 12.6327 20.1711 13.4138L13.4138 20.1711C12.6327 20.9522 11.3664 20.9522 10.5853 20.1711L3.82797 13.4138Z" fill="black"/>
</svg>
