<svg width="24" height="24" viewBox="0 0 24 24" fill="none" xmlns="http://www.w3.org/2000/svg">
<path fill-rule="evenodd" clip-rule="evenodd" d="M12.0001 6.00027C10.6193 6.00027 9.50005 7.11955 9.50005 8.50027C9.50005 9.88098 10.6193 11.0003 12.0001 11.0003C13.3808 11.0003 14.5001 9.88098 14.5001 8.50027C14.5001 7.11955 13.3808 6.00027 12.0001 6.00027ZM11.5001 8.50027C11.5001 8.22412 11.7239 8.00027 12.0001 8.00027C12.2762 8.00027 12.5001 8.22412 12.5001 8.50027C12.5001 8.77641 12.2762 9.00027 12.0001 9.00027C11.7239 9.00027 11.5001 8.77641 11.5001 8.50027Z" fill="black"/>
<path fill-rule="evenodd" clip-rule="evenodd" d="M12.5656 1.16256C12.399 1.05417 12.2019 0.996328 12.0001 1.00018C11.7982 0.996328 11.6011 1.05417 11.4345 1.16256C10.5254 1.57549 9.22419 2.50864 8.19201 4.84635C7.45836 6.50793 6.86329 8.87127 6.61937 12.2617C6.3392 12.4129 6.08421 12.6157 5.86093 12.84C5.44147 13.2612 5.06465 13.8249 4.75977 14.5024C4.14813 15.8615 3.7943 17.746 4.00403 20.0894C4.05019 20.6051 4.48231 21.0003 5.00005 21.0003C6.17213 21.0003 6.92948 20.4191 7.41952 19.8346C7.64502 19.5657 7.824 19.2847 7.9538 19.0809L7.96334 19.066C8.04227 18.9421 8.09668 18.859 8.13587 18.8023C8.15554 18.7876 8.17475 18.7722 8.19348 18.756C9.88965 17.2859 11.0167 16.7503 12.0001 16.7503C12.9834 16.7503 14.1105 17.2859 15.8066 18.756C15.8254 18.7722 15.8446 18.7876 15.8642 18.8023C15.9034 18.859 15.9578 18.9421 16.0368 19.066L16.0463 19.0809C16.1761 19.2847 16.3551 19.5657 16.5806 19.8346C17.0706 20.4191 17.828 21.0003 19.0001 21.0003C19.5178 21.0003 19.9499 20.6051 19.9961 20.0894C20.2058 17.746 19.852 15.8615 19.2403 14.5024C18.9355 13.8249 18.5586 13.2612 18.1392 12.84C17.9159 12.6157 17.6609 12.4129 17.3807 12.2617C17.1368 8.87127 16.5417 6.50793 15.8081 4.84635C14.7759 2.50864 13.4747 1.57549 12.5656 1.16256ZM6.50005 17.6517C6.42238 17.7618 6.3546 17.8685 6.29961 17.9551L6.27665 17.9912C6.15865 18.1764 6.05709 18.334 5.94678 18.4755C5.97707 17.2395 6.20263 16.253 6.50005 15.5188V17.6517ZM17.5001 17.6517V15.5188C17.7975 16.253 18.023 17.2395 18.0533 18.4755C17.943 18.334 17.8415 18.1764 17.7235 17.9912L17.7005 17.9551C17.6455 17.8685 17.5777 17.7618 17.5001 17.6517ZM12.0001 3.11874C11.4833 3.42152 10.7132 4.08794 10.0216 5.65418C9.19659 7.52269 8.48363 10.6762 8.50035 15.9883C9.66516 15.2061 10.7987 14.7503 12.0001 14.7503C13.2015 14.7503 14.335 15.2061 15.4998 15.9883C15.5165 10.6762 14.8035 7.52269 13.9785 5.65418C13.287 4.08794 12.5168 3.42152 12.0001 3.11874Z" fill="black"/>
<path fill-rule="evenodd" clip-rule="evenodd" d="M10.9935 17.7766C11.2466 17.64 11.5961 17.5003 12.0001 17.5003C12.404 17.5003 12.7536 17.64 13.0066 17.7766C13.267 17.9172 13.4941 18.0922 13.6709 18.2462C13.8507 18.4029 13.9997 18.5564 14.1031 18.6696C14.1554 18.7269 14.1976 18.7755 14.2278 18.8113C14.243 18.8292 14.2553 18.844 14.2644 18.8552L14.2758 18.8692L14.2797 18.8741L14.2813 18.876L14.2819 18.8768C14.282 18.877 14.2825 18.8775 13.5001 19.5003L14.2819 18.8768C14.4757 19.1203 14.5457 19.4409 14.4702 19.7428C14.2691 20.547 13.8375 21.3941 13.4933 21.9964C13.3156 22.3075 13.1493 22.5734 13.0271 22.7623C12.9659 22.8569 12.9153 22.9328 12.8794 22.9859C12.8746 22.9931 12.87 22.9999 12.8656 23.0063C12.854 23.0234 12.8444 23.0374 12.837 23.0482L12.8248 23.0657L12.8212 23.071L12.8194 23.0735C12.8194 23.0736 12.8193 23.0737 12.0001 22.5003C11.168 23.055 11.168 23.0549 11.1679 23.0548L11.1663 23.0524L11.1626 23.0469L11.1498 23.0275C11.1389 23.011 11.1234 22.9872 11.1038 22.957C11.0646 22.8967 11.0091 22.8104 10.9423 22.7041C10.8092 22.4921 10.6291 22.1974 10.4425 21.8683C10.2571 21.541 10.059 21.1686 9.89363 20.8031C9.73527 20.453 9.57711 20.0454 9.51366 19.6647C9.46709 19.3852 9.54122 19.0991 9.71765 18.8775L10.5001 19.5003C9.71765 18.8775 9.71751 18.8777 9.71765 18.8775L9.71885 18.876L9.72036 18.8741L9.72428 18.8692L9.73568 18.8552C9.74484 18.844 9.75712 18.8292 9.77228 18.8113C9.80255 18.7755 9.84473 18.7269 9.89704 18.6696C10.0004 18.5564 10.1494 18.4029 10.3292 18.2462C10.506 18.0922 10.7331 17.9172 10.9935 17.7766ZM11.6258 19.7693C11.6519 19.8337 11.6818 19.9035 11.7158 19.9787C11.7998 20.1643 11.898 20.3598 12.0019 20.5543C12.1384 20.2906 12.2648 20.0202 12.3656 19.7616L12.3572 19.7543C12.2471 19.6583 12.1431 19.5833 12.0563 19.5364C12.0325 19.5236 12.0138 19.5149 12.0001 19.5091C11.9863 19.5149 11.9676 19.5236 11.9438 19.5364C11.857 19.5833 11.753 19.6583 11.6429 19.7543L11.6258 19.7693Z" fill="black"/>
<path d="M12.0001 22.5003L12.8194 23.0735C12.63 23.3441 12.319 23.504 11.9887 23.5002C11.6584 23.4964 11.3511 23.3297 11.1679 23.0548L12.0001 22.5003Z" fill="black"/>
</svg>
