<svg width="24" height="24" viewBox="0 0 24 24" fill="none" xmlns="http://www.w3.org/2000/svg">
<path d="M6.59941 4C6.59941 3.44772 6.1517 3 5.59941 3C5.04713 3 4.59941 3.44772 4.59941 4V7.2C4.59941 7.75229 5.04713 8.2 5.59941 8.2H8.8C9.35228 8.2 9.8 7.75229 9.8 7.2C9.8 6.64772 9.35228 6.2 8.8 6.2H8.07925C9.19815 5.44203 10.5474 5 12 5C15.866 5 19 8.13401 19 12C19 15.866 15.866 19 12 19C8.13401 19 5 15.866 5 12C5 11.4477 4.55228 11 4 11C3.44772 11 3 11.4477 3 12C3 16.9706 7.02944 21 12 21C16.9706 21 21 16.9706 21 12C21 7.02944 16.9706 3 12 3C9.97342 3 8.10327 3.67032 6.59941 4.79997V4Z" fill="black"/>
</svg>
