<svg width="24" height="24" viewBox="0 0 24 24" fill="none" xmlns="http://www.w3.org/2000/svg">
<path d="M17.4006 4C17.4006 3.44772 17.8483 3 18.4006 3C18.9529 3 19.4006 3.44772 19.4006 4V7.2C19.4006 7.75229 18.9529 8.2 18.4006 8.2H15.2C14.6477 8.2 14.2 7.75229 14.2 7.2C14.2 6.64772 14.6477 6.2 15.2 6.2H15.9208C14.8018 5.44203 13.4526 5 12 5C8.13401 5 5 8.13401 5 12C5 15.866 8.13401 19 12 19C15.866 19 19 15.866 19 12C19 11.4477 19.4477 11 20 11C20.5523 11 21 11.4477 21 12C21 16.9706 16.9706 21 12 21C7.02944 21 3 16.9706 3 12C3 7.02944 7.02944 3 12 3C14.0266 3 15.8967 3.67032 17.4006 4.79997V4Z" fill="black"/>
</svg>
