<svg width="24" height="24" viewBox="0 0 24 24" fill="none" xmlns="http://www.w3.org/2000/svg">
<path fill-rule="evenodd" clip-rule="evenodd" d="M4.25034 6.4502C4.25034 4.93141 5.48156 3.7002 7.00034 3.7002C8.51912 3.7002 9.75034 4.93141 9.75034 6.4502C9.75034 7.96898 8.51912 9.2002 7.00034 9.2002C5.48156 9.2002 4.25034 7.96898 4.25034 6.4502ZM7.00034 5.7002C6.58613 5.7002 6.25034 6.03598 6.25034 6.4502C6.25034 6.86441 6.58613 7.2002 7.00034 7.2002C7.41455 7.2002 7.75034 6.86441 7.75034 6.4502C7.75034 6.03598 7.41455 5.7002 7.00034 5.7002Z" fill="black"/>
<path fill-rule="evenodd" clip-rule="evenodd" d="M14.7203 14.4602C14.7203 12.9414 15.9515 11.7102 17.4703 11.7102C18.9891 11.7102 20.2203 12.9414 20.2203 14.4602C20.2203 15.979 18.9891 17.2102 17.4703 17.2102C15.9515 17.2102 14.7203 15.979 14.7203 14.4602ZM17.4703 13.7102C17.0561 13.7102 16.7203 14.046 16.7203 14.4602C16.7203 14.8744 17.0561 15.2102 17.4703 15.2102C17.8845 15.2102 18.2203 14.8744 18.2203 14.4602C18.2203 14.046 17.8845 13.7102 17.4703 13.7102Z" fill="black"/>
<path fill-rule="evenodd" clip-rule="evenodd" d="M11.6607 9.30327C13.1686 6.84033 12.4998 3.62927 10.134 1.97317C8.25241 0.656079 5.74809 0.656078 3.86652 1.97317C1.50067 3.62927 0.831859 6.84033 2.33978 9.30327L4.44169 12.7364C4.63673 13.055 4.8764 13.3204 5.14581 13.5328C4.78438 14.0721 4.51929 14.7481 4.47693 15.507C4.40646 16.7695 4.95907 18.1009 6.36019 19.2685C7.74963 20.4263 9.81967 21.126 11.7412 21.5629C13.6967 22.0075 15.6524 22.2126 16.9339 22.298C17.1258 22.3108 17.3087 22.2686 17.4671 22.1848C18.4532 22.1843 19.4391 21.7064 20.0239 20.7513L22.1258 17.3182C23.6337 14.8552 22.9649 11.6442 20.5991 9.98806C18.7175 8.67097 16.2132 8.67097 14.3316 9.98806C11.9658 11.6442 11.2969 14.8552 12.8049 17.3182L14.4646 20.0291C13.7333 19.9243 12.9567 19.7882 12.1846 19.6126C10.3311 19.1912 8.65111 18.5742 7.64055 17.732C6.64167 16.8996 6.44428 16.1477 6.47382 15.6185C6.50648 15.0335 6.82602 14.5306 7.14057 14.2685C7.18127 14.2346 7.21859 14.1981 7.25249 14.1595C8.15237 14.0849 9.02359 13.6106 9.5588 12.7364L11.6607 9.30327ZM5.01345 3.61164C6.20637 2.77659 7.79413 2.77659 8.98705 3.61164C10.487 4.66161 10.911 6.69744 9.95501 8.25896L7.8531 11.6921C7.46302 12.3292 6.53748 12.3292 6.1474 11.6921L4.04548 8.25896C3.08945 6.69744 3.51348 4.66161 5.01345 3.61164ZM19.4521 11.6265C18.2592 10.7915 16.6715 10.7915 15.4785 11.6265C13.9786 12.6765 13.5545 14.7123 14.5106 16.2739L16.6125 19.707C17.0026 20.3441 17.9281 20.3441 18.3182 19.707L20.4201 16.2739C21.3761 14.7123 20.9521 12.6765 19.4521 11.6265Z" fill="black"/>
</svg>
