<svg width="24" height="24" viewBox="0 0 24 24" fill="none" xmlns="http://www.w3.org/2000/svg">
<path d="M8.5 6C7.94772 6 7.5 6.44772 7.5 7C7.5 7.55228 7.94772 8 8.5 8H15.2C15.7523 8 16.2 7.55228 16.2 7C16.2 6.44772 15.7523 6 15.2 6H8.5Z" fill="black"/>
<path fill-rule="evenodd" clip-rule="evenodd" d="M7 2C4.79086 2 3 3.79086 3 6V18C3 20.2091 4.79086 22 7 22H17C19.2091 22 21 20.2091 21 18V8.7997C21 7.69406 20.5424 6.63774 19.7358 5.88155L16.7494 3.08185C16.008 2.3868 15.0299 2 14.0137 2H7ZM5 6C5 4.89543 5.89543 4 7 4H14.0137C14.5218 4 15.0108 4.1934 15.3815 4.54093L18.3679 7.34062C18.7712 7.71872 19 8.24688 19 8.7997V18C19 19.1046 18.1046 20 17 20H16.2V19C16.2 17.8954 15.3046 17 14.2 17H10C8.89543 17 8 17.8954 8 19V20H7C5.89543 20 5 19.1046 5 18V6ZM14.2 19L14.2 20H10V19H14.2Z" fill="black"/>
</svg>
