<svg width="24" height="24" viewBox="0 0 24 24" fill="none" xmlns="http://www.w3.org/2000/svg">
<path fill-rule="evenodd" clip-rule="evenodd" d="M15.9153 3.40299C16.1377 2.89748 15.9083 2.30736 15.4027 2.08494C14.8972 1.86251 14.3071 2.092 14.0847 2.59751L12 7.33543L9.91532 2.59751C9.69289 2.092 9.10278 1.86251 8.59726 2.08494C8.09175 2.30736 7.86226 2.89748 8.08468 3.40299L10.9075 9.81843L9.0108 14.1291C8.68793 14.045 8.34919 14.0003 8 14.0003C5.79086 14.0003 4 15.7911 4 18.0003C4 20.2094 5.79086 22.0003 8 22.0003C10.2091 22.0003 12 20.2094 12 18.0003C12 20.2094 13.7909 22.0003 16 22.0003C18.2091 22.0003 20 20.2094 20 18.0003C20 15.7911 18.2091 14.0003 16 14.0003C15.6508 14.0003 15.3121 14.045 14.9892 14.1291L13.0925 9.81843L15.9153 3.40299ZM14.7001 16.4802C14.7684 16.4662 14.8363 16.4448 14.9027 16.4156C15.0507 16.3505 15.1749 16.2539 15.2712 16.1372C15.497 16.0488 15.7428 16.0003 16 16.0003C17.1046 16.0003 18 16.8957 18 18.0003C18 19.1048 17.1046 20.0003 16 20.0003C14.8954 20.0003 14 19.1048 14 18.0003C14 17.3919 14.2716 16.8471 14.7001 16.4802ZM13.2355 15.1093C12.4742 15.8376 12 16.8635 12 18.0003C12 16.8635 11.5258 15.8376 10.7645 15.1093L12 12.3014L13.2355 15.1093ZM8.72881 16.1372C8.82505 16.2539 8.94934 16.3505 9.09726 16.4156C9.16368 16.4448 9.23157 16.4662 9.29989 16.4802C9.72842 16.8471 10 17.3919 10 18.0003C10 19.1048 9.10457 20.0003 8 20.0003C6.89543 20.0003 6 19.1048 6 18.0003C6 16.8957 6.89543 16.0003 8 16.0003C8.25716 16.0003 8.50298 16.0488 8.72881 16.1372Z" fill="black"/>
</svg>
