<svg width="24" height="24" viewBox="0 0 24 24" fill="none" xmlns="http://www.w3.org/2000/svg">
<path d="M6 2C3.79086 2 2 3.79086 2 6V8C2 8.55228 2.44772 9 3 9C3.55228 9 4 8.55228 4 8V6C4 4.89543 4.89543 4 6 4H8C8.55228 4 9 3.55228 9 3C9 2.44772 8.55228 2 8 2H6Z" fill="black"/>
<path d="M18 2C20.2091 2 22 3.79086 22 6V8C22 8.55228 21.5523 9 21 9C20.4477 9 20 8.55228 20 8V6C20 4.89543 19.1046 4 18 4H16C15.4477 4 15 3.55228 15 3C15 2.44772 15.4477 2 16 2H18Z" fill="black"/>
<path d="M2 18C2 20.2091 3.79086 22 6 22H8C8.55228 22 9 21.5523 9 21C9 20.4477 8.55228 20 8 20H6C4.89543 20 4 19.1046 4 18V16C4 15.4477 3.55228 15 3 15C2.44772 15 2 15.4477 2 16V18Z" fill="black"/>
<path d="M18 22C20.2091 22 22 20.2091 22 18V16C22 15.4477 21.5523 15 21 15C20.4477 15 20 15.4477 20 16V18C20 19.1046 19.1046 20 18 20H16C15.4477 20 15 20.4477 15 21C15 21.5523 15.4477 22 16 22H18Z" fill="black"/>
<path d="M7.90973 10.079C8.19838 10.1752 8.42488 10.4017 8.5211 10.6904C8.61902 10.9841 9.03454 10.9841 9.13247 10.6904C9.22868 10.4017 9.45519 10.1752 9.74383 10.079C10.0376 9.98107 10.0376 9.56554 9.74383 9.46762C9.45519 9.3714 9.22868 9.1449 9.13247 8.85625C9.03454 8.56249 8.61902 8.56249 8.5211 8.85625C8.42488 9.1449 8.19838 9.3714 7.90973 9.46762C7.61596 9.56554 7.61596 9.98107 7.90973 10.079Z" fill="black"/>
<path fill-rule="evenodd" clip-rule="evenodd" d="M5 9.6001C5 7.39096 6.79086 5.6001 9 5.6001H15C17.2091 5.6001 19 7.39096 19 9.6001V14.4001C19 14.5205 18.9947 14.6396 18.9843 14.7573C18.9947 14.8511 19 14.946 19 15.0416C19 16.8964 17.4963 18.4001 15.6415 18.4001H9C6.79086 18.4001 5 16.6092 5 14.4001V9.6001ZM13.4413 16.4001H15C15.9603 16.4001 16.7625 15.7233 16.9557 14.8208C16.9128 14.7182 16.8403 14.6288 16.7451 14.5654L14.872 13.3166C14.4198 13.0152 13.8097 13.13 13.4981 13.5752L12.6221 14.8266C12.1581 15.4894 12.6323 16.4001 13.4413 16.4001ZM17 12.3316V9.6001C17 8.49553 16.1046 7.6001 15 7.6001H9C7.89543 7.6001 7 8.49553 7 9.6001V14.4001C7 14.894 7.17904 15.3461 7.47575 15.695C7.54018 15.4593 7.64486 15.235 7.78652 15.0325L9.18855 13.028C9.88407 12.0337 11.1297 11.632 12.2473 11.9765C13.2425 11.0263 14.7936 10.8607 15.9814 11.6525L17 12.3316ZM10.5552 14.5635C10.3726 15.1831 10.4064 15.8239 10.6122 16.4001H9.54066C9.46322 16.3998 9.4 16.3369 9.4 16.2594C9.4 16.2306 9.40887 16.2024 9.4254 16.1788L10.5552 14.5635Z" fill="black"/>
</svg>
