<svg width="24" height="24" viewBox="0 0 24 24" fill="none" xmlns="http://www.w3.org/2000/svg">
<path fill-rule="evenodd" clip-rule="evenodd" d="M20.3716 9.72024C22.3371 10.6047 22.3371 13.3954 20.3716 14.2798L6.2324 20.6425C4.32809 21.4994 2.27466 19.7822 2.78113 17.7564L3.7652 13.8201C3.99224 12.9119 4.70223 12.2198 5.58769 12C4.70223 11.7803 3.99224 11.0882 3.7652 10.18L2.78113 6.24374C2.27466 4.21784 4.32809 2.50066 6.2324 3.35759L20.3716 9.72024ZM17.9752 10.835L5.41167 5.18144C5.03081 5.01005 4.62012 5.35349 4.72142 5.75866L5.70548 9.69494C5.75823 9.90593 5.94133 10.0586 6.15837 10.0726L17.9752 10.835ZM17.9752 13.1651L6.15837 13.9275C5.94133 13.9415 5.75823 14.0942 5.70548 14.3051L4.72142 18.2414C4.62012 18.6466 5.03081 18.99 5.41167 18.8186L17.9752 13.1651Z" fill="black"/>
<path d="M16.5939 5.63079C17.075 5.79115 17.4525 6.16866 17.6128 6.64974C17.776 7.13935 18.4686 7.13935 18.6318 6.64974C18.7921 6.16866 19.1697 5.79115 19.6507 5.63079C20.1403 5.46759 20.1403 4.77505 19.6507 4.61185C19.1697 4.45149 18.7921 4.07398 18.6318 3.5929C18.4686 3.10329 17.776 3.10329 17.6128 3.5929C17.4525 4.07398 17.075 4.45149 16.5939 4.61185C16.1043 4.77505 16.1043 5.46759 16.5939 5.63079Z" fill="black"/>
</svg>
