<svg width="24" height="24" viewBox="0 0 24 24" fill="none" xmlns="http://www.w3.org/2000/svg">
<path d="M19.6757 4.13471C21.8198 3.91798 23.2153 6.33431 21.9559 8.08296L12.8915 20.663C11.6707 22.3569 9.03413 21.8962 8.45984 19.8886L7.34363 15.9882C7.08594 15.087 7.35647 14.1309 8.01551 13.498C7.13795 13.7521 6.17589 13.5096 5.5243 12.8359L2.70398 9.91889C1.25266 8.41763 2.17231 5.90332 4.24988 5.69331L19.6757 4.13471ZM9.47058 14.8847C9.28971 15.0053 9.20684 15.2294 9.26648 15.4384L10.3827 19.3388C10.4975 19.7403 11.0252 19.8328 11.2694 19.4941L19.3231 8.31538L9.47058 14.8847ZM4.45105 7.68354C4.03567 7.72553 3.8516 8.22799 4.14148 8.52827L6.9618 11.4453C7.11298 11.6016 7.34789 11.6422 7.54285 11.5458L18.1571 6.2978L4.45105 7.68354Z" fill="black"/>
</svg>
