<svg width="24" height="24" viewBox="0 0 24 24" fill="none" xmlns="http://www.w3.org/2000/svg">
<path fill-rule="evenodd" clip-rule="evenodd" d="M20.3697 14.2798C22.3351 13.3954 22.3351 10.6047 20.3697 9.72024L6.23045 3.35759C4.32614 2.50066 2.27271 4.21784 2.77918 6.24374L3.76325 10.18C3.99029 11.0882 4.70027 11.7803 5.58573 12C4.70027 12.2198 3.99029 12.9119 3.76325 13.8201L2.77918 17.7564C2.27271 19.7822 4.32614 21.4994 6.23045 20.6425L20.3697 14.2798ZM5.40972 5.18144L17.9732 10.835L6.15641 10.0726C5.93937 10.0586 5.75628 9.90593 5.70353 9.69494L4.71946 5.75866C4.61817 5.35349 5.02886 5.01005 5.40972 5.18144ZM6.15641 13.9275L17.9732 13.1651L5.40972 18.8186C5.02885 18.99 4.61817 18.6466 4.71946 18.2414L5.70353 14.3051C5.75628 14.0942 5.93937 13.9415 6.15641 13.9275Z" fill="black"/>
</svg>
