<svg width="24" height="24" viewBox="0 0 24 24" fill="none" xmlns="http://www.w3.org/2000/svg">
<path d="M14 17.5C14 16.9477 14.4477 16.5 15 16.5H19.5C20.0523 16.5 20.5 16.9477 20.5 17.5C20.5 18.0523 20.0523 18.5 19.5 18.5H15C14.4477 18.5 14 18.0523 14 17.5Z" fill="black"/>
<path d="M10.5 16.5C9.94771 16.5 9.5 16.9477 9.5 17.5C9.5 18.0523 9.94771 18.5 10.5 18.5H12.5C13.0523 18.5 13.5 18.0523 13.5 17.5C13.5 16.9477 13.0523 16.5 12.5 16.5H10.5Z" fill="black"/>
<path fill-rule="evenodd" clip-rule="evenodd" d="M23 17.5V6C23 3.79086 21.2091 2 19 2H5C2.79086 2 1 3.79086 1 6V17.5C1 19.7091 2.79086 21.5 5 21.5H19C21.2091 21.5 23 19.7091 23 17.5ZM5 4C3.89543 4 3 4.89543 3 6V14.0351C3.58835 13.6948 4.27143 13.5 5 13.5H19C19.7286 13.5 20.4117 13.6948 21 14.0351V6C21 4.89543 20.1046 4 19 4H5ZM21 17.5C21 16.3954 20.1046 15.5 19 15.5H5C3.89543 15.5 3 16.3954 3 17.5C3 18.6046 3.89543 19.5 5 19.5H19C20.1046 19.5 21 18.6046 21 17.5Z" fill="black"/>
</svg>
