<svg width="24" height="24" viewBox="0 0 24 24" fill="none" xmlns="http://www.w3.org/2000/svg">
<path d="M15 6.5C14.4477 6.5 14 6.94772 14 7.5C14 8.05228 14.4477 8.5 15 8.5H19.5C20.0523 8.5 20.5 8.05228 20.5 7.5C20.5 6.94772 20.0523 6.5 19.5 6.5H15Z" fill="black"/>
<path d="M9.5 7.5C9.5 6.94772 9.94771 6.5 10.5 6.5H12.5C13.0523 6.5 13.5 6.94772 13.5 7.5C13.5 8.05228 13.0523 8.5 12.5 8.5H10.5C9.94771 8.5 9.5 8.05228 9.5 7.5Z" fill="black"/>
<path fill-rule="evenodd" clip-rule="evenodd" d="M5 3.5C2.79086 3.5 1 5.29086 1 7.5C1 9.70914 2.79086 11.5 5 11.5H19C21.2091 11.5 23 9.70914 23 7.5C23 5.29086 21.2091 3.5 19 3.5H5ZM19 5.5C20.1046 5.5 21 6.39543 21 7.5C21 8.60457 20.1046 9.5 19 9.5H5C3.89543 9.5 3 8.60457 3 7.5C3 6.39543 3.89543 5.5 5 5.5H19Z" fill="black"/>
<path d="M14 16.5C14 15.9477 14.4477 15.5 15 15.5H19.5C20.0523 15.5 20.5 15.9477 20.5 16.5C20.5 17.0523 20.0523 17.5 19.5 17.5H15C14.4477 17.5 14 17.0523 14 16.5Z" fill="black"/>
<path d="M10.5 15.5C9.94771 15.5 9.5 15.9477 9.5 16.5C9.5 17.0523 9.94771 17.5 10.5 17.5H12.5C13.0523 17.5 13.5 17.0523 13.5 16.5C13.5 15.9477 13.0523 15.5 12.5 15.5H10.5Z" fill="black"/>
<path fill-rule="evenodd" clip-rule="evenodd" d="M5 12.5C2.79086 12.5 1 14.2909 1 16.5C1 18.7091 2.79086 20.5 5 20.5H19C21.2091 20.5 23 18.7091 23 16.5C23 14.2909 21.2091 12.5 19 12.5H5ZM19 14.5C20.1046 14.5 21 15.3954 21 16.5C21 17.6046 20.1046 18.5 19 18.5H5C3.89543 18.5 3 17.6046 3 16.5C3 15.3954 3.89543 14.5 5 14.5H19Z" fill="black"/>
</svg>
