<svg width="24" height="24" viewBox="0 0 24 24" fill="none" xmlns="http://www.w3.org/2000/svg">
<path fill-rule="evenodd" clip-rule="evenodd" d="M11.9994 5.99979C8.68567 5.99979 5.99938 8.68608 5.99938 11.9998C5.99938 15.3135 8.68567 17.9998 11.9994 17.9998C15.3131 17.9998 17.9994 15.3135 17.9994 11.9998C17.9994 8.68608 15.3131 5.99979 11.9994 5.99979ZM7.99938 11.9998C7.99938 9.79065 9.79024 7.99979 11.9994 7.99979C14.2085 7.99979 15.9994 9.79065 15.9994 11.9998C15.9994 14.2089 14.2085 15.9998 11.9994 15.9998C9.79024 15.9998 7.99938 14.2089 7.99938 11.9998Z" fill="black"/>
<path fill-rule="evenodd" clip-rule="evenodd" d="M14.5012 2.02869C13.1063 0.67924 10.8925 0.67924 9.49757 2.02869C9.14327 2.37144 8.65062 2.53151 8.16252 2.46247C6.24082 2.19066 4.44984 3.49189 4.11451 5.40352C4.02934 5.88907 3.72487 6.30814 3.2894 6.53918C1.57495 7.44883 0.890854 9.55426 1.7432 11.2979C1.95969 11.7408 1.95969 12.2588 1.7432 12.7017C0.890854 14.4453 1.57495 16.5507 3.2894 17.4604C3.72487 17.6914 4.02934 18.1105 4.11451 18.596C4.44984 20.5077 6.24083 21.8089 8.16252 21.5371C8.65062 21.4681 9.14327 21.6281 9.49757 21.9709C10.8925 23.3203 13.1063 23.3203 14.5012 21.9709C14.8555 21.6281 15.3481 21.4681 15.8362 21.5371C17.7579 21.8089 19.5489 20.5077 19.8843 18.596C19.9694 18.1105 20.2739 17.6914 20.7094 17.4604C22.4238 16.5507 23.1079 14.4453 22.2556 12.7017C22.0391 12.2588 22.0391 11.7408 22.2556 11.2979C23.1079 9.55426 22.4238 7.44883 20.7094 6.53918C20.2739 6.30814 19.9694 5.88907 19.8843 5.40352C19.5489 3.49189 17.7579 2.19066 15.8362 2.46247C15.3481 2.53151 14.8555 2.37144 14.5012 2.02869ZM10.8882 3.46614C11.5077 2.86676 12.491 2.86676 13.1106 3.46614C13.9083 4.23781 15.0174 4.59819 16.1163 4.44276C16.9699 4.32203 17.7654 4.89999 17.9143 5.74908C18.1061 6.84224 18.7916 7.78573 19.772 8.30591C20.5335 8.70994 20.8373 9.64511 20.4587 10.4196C19.9713 11.4167 19.9713 12.5829 20.4587 13.58C20.8373 14.3545 20.5335 15.2896 19.772 15.6937C18.7916 16.2138 18.1061 17.1573 17.9143 18.2505C17.7654 19.0996 16.9699 19.6775 16.1163 19.5568C15.0174 19.4014 13.9083 19.7618 13.1106 20.5334C12.491 21.1328 11.5077 21.1328 10.8882 20.5334C10.0905 19.7618 8.98134 19.4014 7.88242 19.5568C7.02887 19.6775 6.23337 19.0996 6.08443 18.2505C5.89268 17.1573 5.20718 16.2138 4.22678 15.6937C3.46528 15.2896 3.16143 14.3545 3.54001 13.58C4.02742 12.5829 4.02742 11.4167 3.54001 10.4196C3.16143 9.64511 3.46528 8.70994 4.22678 8.30591C5.20718 7.78573 5.89268 6.84224 6.08443 5.74908C6.23337 4.89999 7.02887 4.32203 7.88242 4.44276C8.98134 4.59819 10.0905 4.23781 10.8882 3.46614Z" fill="black"/>
</svg>
