<svg width="24" height="24" viewBox="0 0 24 24" fill="none" xmlns="http://www.w3.org/2000/svg">
<path fill-rule="evenodd" clip-rule="evenodd" d="M18.0623 2.81404C16.5282 2.00349 15 3.25999 15 4.74297C15 4.8072 14.9759 4.87527 14.9124 4.9408C14.8454 5.00979 14.745 5.0628 14.6302 5.07582C10.5056 5.54382 7.70357 8.0868 5.90487 10.9722C4.11507 13.8434 3.25604 17.1402 3.00616 19.3891C2.95577 19.8426 3.2187 20.2727 3.64528 20.4345C4.07185 20.5964 4.5539 20.449 4.81701 20.0762C5.69955 18.826 7.25333 17.0176 9.11432 15.526C10.9961 14.0177 13.0497 12.9477 14.9574 12.921L14.9591 12.9228C14.9757 12.9413 15 12.986 15 13.0509C15 14.6465 16.711 15.8515 18.2316 14.9392C19.4939 14.1817 20.9116 13.1523 21.8999 11.9711C22.8685 10.8134 23.6235 9.24914 22.9192 7.60564C21.9204 5.27523 19.7224 3.6911 18.0623 2.81404ZM17 4.74297C17 4.64705 17.0435 4.59716 17.0706 4.57899C17.0837 4.57017 17.0915 4.56967 17.0915 4.56967C17.0915 4.56967 17.0939 4.56951 17.098 4.5704C17.102 4.57126 17.112 4.57392 17.128 4.5824C18.6401 5.38131 20.3507 6.68966 21.0809 8.39347C21.3342 8.98453 21.168 9.72911 20.366 10.6877C19.5835 11.6229 18.3808 12.5172 17.2026 13.2242C17.1679 13.245 17.1481 13.2457 17.1396 13.2456C17.1276 13.2453 17.1094 13.2417 17.0876 13.2284C17.0444 13.202 17 13.1462 17 13.0509C17 12.0066 16.2167 10.9051 14.9405 10.921C12.3617 10.9533 9.86947 12.3576 7.86349 13.9654C7.14994 14.5373 6.4798 15.1496 5.86847 15.763C6.28592 14.5205 6.85516 13.2285 7.60211 12.0302C9.19243 9.47908 11.5247 7.44103 14.8557 7.06307C15.9756 6.936 17 6.01778 17 4.74297Z" fill="black"/>
</svg>
