<svg width="24" height="24" viewBox="0 0 24 24" fill="none" xmlns="http://www.w3.org/2000/svg">
<path fill-rule="evenodd" clip-rule="evenodd" d="M17 2C14.7909 2 13 3.79086 13 6C13 6.17082 13.0107 6.33914 13.0315 6.50432C12.8869 6.62045 12.6985 6.76747 12.4788 6.92902C11.9429 7.32314 11.2538 7.77943 10.5787 8.09309C9.99866 8.36254 9.30204 8.59639 8.73147 8.76609C8.45014 8.84976 8.20735 8.91553 8.03572 8.96018C7.95002 8.98247 7.8824 8.99941 7.83697 9.01059L7.78608 9.02298L7.77415 9.02583L7.77175 9.0264C7.74671 9.03227 7.72194 9.03908 7.69782 9.0467C6.98653 8.39658 6.03958 8 5 8C2.79086 8 1 9.79086 1 12C1 14.2091 2.79086 16 5 16C6.03956 16 6.98649 15.6034 7.69778 14.9533C7.73402 14.9648 7.77128 14.9743 7.80948 14.9817L7.81057 14.9819L7.82053 14.9839L7.86628 14.9934C7.90782 15.0021 7.97066 15.0158 8.05117 15.0344C8.21245 15.0717 8.44304 15.1286 8.71409 15.2056C9.26329 15.3617 9.94737 15.5917 10.5528 15.8944C11.165 16.2005 11.8643 16.6641 12.4305 17.0694C12.665 17.2373 12.8705 17.3907 13.0295 17.5118C13.01 17.6718 13 17.8347 13 18C13 20.2091 14.7909 22 17 22C19.2091 22 21 20.2091 21 18C21 15.7909 19.2091 14 17 14C15.6938 14 14.5339 14.6261 13.8039 15.5945C13.737 15.5456 13.6671 15.495 13.5946 15.4431C13.0026 15.0193 12.2019 14.4829 11.4472 14.1056C10.6858 13.7249 9.86987 13.4549 9.26078 13.2818C9.1033 13.2371 8.95757 13.1982 8.82766 13.1651C8.93973 12.7965 9 12.4053 9 12C9 11.5892 8.93808 11.1929 8.82307 10.8199C8.96473 10.781 9.12635 10.7352 9.30163 10.6831C9.90876 10.5025 10.7121 10.2364 11.4213 9.90691C12.2695 9.51287 13.0805 8.96917 13.6637 8.54021C13.717 8.501 13.7687 8.46254 13.8187 8.42502C14.5495 9.38233 15.7026 10 17 10C19.2091 10 21 8.20914 21 6C21 3.79086 19.2091 2 17 2ZM15 6C15 4.89543 15.8954 4 17 4C18.1046 4 19 4.89543 19 6C19 7.10457 18.1046 8 17 8C15.8954 8 15 7.10457 15 6ZM3 12C3 10.8954 3.89543 10 5 10C6.10457 10 7 10.8954 7 12C7 13.1046 6.10457 14 5 14C3.89543 14 3 13.1046 3 12ZM15 18C15 16.8954 15.8954 16 17 16C18.1046 16 19 16.8954 19 18C19 19.1046 18.1046 20 17 20C15.8954 20 15 19.1046 15 18Z" fill="black"/>
</svg>
