<svg width="24" height="24" viewBox="0 0 24 24" fill="none" xmlns="http://www.w3.org/2000/svg">
<path d="M14.6961 11.2067C15.0866 10.8162 15.0866 10.183 14.6961 9.7925C14.3056 9.40198 13.6724 9.40198 13.2819 9.7925L11.3431 11.7312L11.0613 11.4493C10.6707 11.0588 10.0376 11.0588 9.64705 11.4493C9.25652 11.8399 9.25652 12.473 9.64705 12.8636L10.636 13.8526C11.0266 14.2431 11.6597 14.2431 12.0503 13.8526L14.6961 11.2067Z" fill="black"/>
<path fill-rule="evenodd" clip-rule="evenodd" d="M13.4876 2.01837C12.5328 1.6358 11.4672 1.6358 10.5124 2.01837L6.88578 3.47135C6.87451 3.47587 6.86331 3.4806 6.8522 3.48552L5.30467 4.172C3.94745 4.77406 2.99987 6.09966 3 7.64331C3.00017 9.61053 3.14199 12.9402 4.06685 15.2249C4.6818 16.7439 5.78937 18.0606 6.91503 19.1127C8.04877 20.1725 9.25663 21.0153 10.1451 21.5763C11.2836 22.2952 12.7164 22.2952 13.8549 21.5763C14.7434 21.0153 15.9512 20.1725 17.085 19.1127C18.2106 18.0606 19.3182 16.7439 19.9332 15.2249C20.858 12.9402 20.9998 9.61053 21 7.64331C21.0001 6.09966 20.0525 4.77406 18.6953 4.172L17.1478 3.48552C17.1367 3.4806 17.1255 3.47587 17.1142 3.47135L13.4876 2.01837ZM11.2562 3.87491C11.7336 3.68362 12.2664 3.68362 12.7438 3.87491L16.3535 5.32111L17.8843 6.0002C18.5732 6.30575 19.0001 6.9485 19 7.64315C18.9998 9.62396 18.8415 12.5915 18.0793 14.4744C17.6173 15.6156 16.7387 16.6987 15.7193 17.6516C14.7079 18.597 13.6116 19.3646 12.7871 19.8852C12.3009 20.1922 11.6991 20.1922 11.2129 19.8852C10.3884 19.3646 9.29215 18.597 8.28075 17.6516C7.26127 16.6987 6.38268 15.6156 5.9207 14.4744C5.15846 12.5915 5.00017 9.62396 5 7.64315C4.99994 6.9485 5.42684 6.30575 6.11565 6.0002L7.64653 5.32111L11.2562 3.87491Z" fill="black"/>
</svg>
