<svg width="24" height="24" viewBox="0 0 24 24" fill="none" xmlns="http://www.w3.org/2000/svg">
<path d="M12 2C14.0508 2 15.8117 3.23536 16.583 5.00195L17.293 4.29297C17.6835 3.90244 18.3165 3.90244 18.707 4.29297C19.0976 4.68349 19.0976 5.31651 18.707 5.70703L14.707 9.70703C14.3165 10.0976 13.6835 10.0976 13.293 9.70703C12.9024 9.31651 12.9024 8.68349 13.293 8.29297L14.9736 6.61133C14.783 5.13817 13.5251 4 12 4C10.3431 4 9 5.34315 9 7V20C9 20.5523 8.55228 21 8 21C7.44772 21 7 20.5523 7 20V7C7 4.23858 9.23858 2 12 2Z" fill="black"/>
</svg>
