<svg width="24" height="24" viewBox="0 0 24 24" fill="none" xmlns="http://www.w3.org/2000/svg">
<path d="M20.7789 4.63582C21.1695 4.24529 21.1695 3.61213 20.7789 3.2216C20.3884 2.83108 19.7552 2.83108 19.3647 3.2216L16.8292 5.75714V3.92871C16.8292 3.37643 16.3815 2.92871 15.8292 2.92871C15.2769 2.92871 14.8292 3.37643 14.8292 3.92871L14.8292 8.17135C14.8292 8.72364 15.2769 9.17135 15.8292 9.17135H20.0718C20.6241 9.17135 21.0718 8.72364 21.0718 8.17135C21.0718 7.61907 20.6241 7.17135 20.0718 7.17135H18.2434L20.7789 4.63582Z" fill="black"/>
<path d="M9.17233 15.8282C9.17233 15.563 9.06697 15.3086 8.87944 15.1211C8.6919 14.9336 8.43755 14.8282 8.17233 14.8282L3.92969 14.8282C3.3774 14.8282 2.92969 15.2759 2.92969 15.8282C2.92969 16.3805 3.3774 16.8282 3.92969 16.8282L5.75812 16.8282L3.22258 19.3637C2.83206 19.7543 2.83206 20.3874 3.22258 20.778C3.61311 21.1685 4.24627 21.1685 4.63679 20.778L7.17233 18.2424L7.17233 20.0708C7.17233 20.6231 7.62004 21.0708 8.17233 21.0708C8.72461 21.0708 9.17233 20.6231 9.17233 20.0708L9.17233 15.8282Z" fill="black"/>
<path d="M4.63681 3.22164C4.24629 2.83112 3.61312 2.83112 3.2226 3.22164C2.83207 3.61216 2.83207 4.24533 3.2226 4.63585L5.75813 7.17139H3.9297C3.37742 7.17139 2.9297 7.6191 2.9297 8.17139C2.9297 8.72367 3.37742 9.17139 3.92971 9.17139H8.17235C8.72463 9.17139 9.17235 8.72367 9.17235 8.17139V3.92875C9.17235 3.37646 8.72463 2.92875 8.17235 2.92875C7.62006 2.92875 7.17235 3.37646 7.17235 3.92875V5.75717L4.63681 3.22164Z" fill="black"/>
<path d="M15.8292 14.8282C15.564 14.8282 15.3096 14.9336 15.1221 15.1211C14.9346 15.3087 14.8292 15.563 14.8292 15.8282L14.8292 20.0709C14.8292 20.6232 15.2769 21.0709 15.8292 21.0709C16.3815 21.0709 16.8292 20.6232 16.8292 20.0709L16.8292 18.2425L19.3647 20.778C19.7553 21.1685 20.3884 21.1685 20.7789 20.778C21.1695 20.3875 21.1695 19.7543 20.7789 19.3638L18.2434 16.8282L20.0718 16.8282C20.6241 16.8282 21.0718 16.3805 21.0718 15.8282C21.0718 15.276 20.6241 14.8282 20.0718 14.8282L15.8292 14.8282Z" fill="black"/>
</svg>
