<svg width="24" height="24" viewBox="0 0 24 24" fill="none" xmlns="http://www.w3.org/2000/svg">
<path d="M6 10C8.20914 10 10 8.20914 10 6V4C10 3.44772 9.55228 3 9 3C8.44772 3 8 3.44772 8 4V6C8 7.10457 7.10457 8 6 8H4C3.44772 8 3 8.44772 3 9C3 9.55228 3.44772 10 4 10H6Z" fill="black"/>
<path d="M18 10C15.7909 10 14 8.20914 14 6V4C14 3.44772 14.4477 3 15 3C15.5523 3 16 3.44772 16 4V6C16 7.10457 16.8954 8 18 8H20C20.5523 8 21 8.44772 21 9C21 9.55228 20.5523 10 20 10H18Z" fill="black"/>
<path d="M10 18C10 15.7909 8.20914 14 6 14H4C3.44772 14 3 14.4477 3 15C3 15.5523 3.44772 16 4 16H6C7.10457 16 8 16.8954 8 18V20C8 20.5523 8.44772 21 9 21C9.55228 21 10 20.5523 10 20V18Z" fill="black"/>
<path d="M18 14C15.7909 14 14 15.7909 14 18V20C14 20.5523 14.4477 21 15 21C15.5523 21 16 20.5523 16 20V18C16 16.8954 16.8954 16 18 16H20C20.5523 16 21 15.5523 21 15C21 14.4477 20.5523 14 20 14H18Z" fill="black"/>
</svg>
