<svg width="24" height="24" viewBox="0 0 24 24" fill="none" xmlns="http://www.w3.org/2000/svg">
<path d="M7.5 2C8.05228 2 8.5 2.44772 8.5 3C8.5 3.55228 8.05228 4 7.5 4H6C4.89543 4 4 4.89543 4 6V18C4 19.1046 4.89543 20 6 20H7.5C8.05228 20 8.5 20.4477 8.5 21C8.5 21.5523 8.05228 22 7.5 22H6C3.79086 22 2 20.2091 2 18V6C2 3.79086 3.79086 2 6 2H7.5ZM11.293 7.29297C11.6835 6.90244 12.3165 6.90244 12.707 7.29297C13.0976 7.68349 13.0976 8.31651 12.707 8.70703L10.4141 11H22C22.5523 11 23 11.4477 23 12C23 12.5523 22.5523 13 22 13H10.4141L12.707 15.293C13.0976 15.6835 13.0976 16.3165 12.707 16.707C12.3165 17.0976 11.6835 17.0976 11.293 16.707L7.29297 12.707C6.92685 12.3409 6.90426 11.7619 7.22461 11.3691L7.29297 11.293L11.293 7.29297Z" fill="black"/>
</svg>
