<svg width="24" height="24" viewBox="0 0 24 24" fill="none" xmlns="http://www.w3.org/2000/svg">
<path d="M19 3C19 2.44772 18.5523 2 18 2C17.4477 2 17 2.44772 17 3V21C17 21.5523 17.4477 22 18 22C18.5523 22 19 21.5523 19 21V3Z" fill="black"/>
<path d="M14 8C14.5523 8 15 8.44772 15 9V21C15 21.5523 14.5523 22 14 22C13.4477 22 13 21.5523 13 21V9C13 8.44772 13.4477 8 14 8Z" fill="black"/>
<path d="M11 13C11 12.4477 10.5523 12 10 12C9.44772 12 9 12.4477 9 13V21C9 21.5523 9.44772 22 10 22C10.5523 22 11 21.5523 11 21V13Z" fill="black"/>
<path d="M7 17C7 16.4477 6.55228 16 6 16C5.44772 16 5 16.4477 5 17V21C5 21.5523 5.44772 22 6 22C6.55228 22 7 21.5523 7 21V17Z" fill="black"/>
</svg>
