<svg width="24" height="24" viewBox="0 0 24 24" fill="none" xmlns="http://www.w3.org/2000/svg">
<path d="M11.6605 1C12.2128 1 12.6605 1.44772 12.6605 2V4.13148L14.1058 3.16795C14.5653 2.8616 15.1862 2.98577 15.4926 3.4453C15.7989 3.90483 15.6747 4.5257 15.2152 4.83205L12.6605 6.53518V10.2679L15.8797 8.40937L16.001 5.4126C16.0233 4.86077 16.4888 4.43153 17.0406 4.45387C17.5924 4.47621 18.0217 4.94167 17.9993 5.4935L17.9292 7.22607L19.8207 6.13403C20.299 5.85789 20.9106 6.02176 21.1867 6.50005C21.4628 6.97835 21.299 7.58994 20.8207 7.86608L18.9748 8.93182L20.5319 9.70172C21.0269 9.94651 21.2298 10.5463 20.985 11.0414C20.7402 11.5364 20.1405 11.7393 19.6454 11.4945L16.8931 10.1337L13.6604 12.0001L16.8797 13.8587L19.5356 12.4654C20.0247 12.2088 20.6291 12.3973 20.8857 12.8863C21.1423 13.3754 20.9538 13.9799 20.4647 14.2364L18.9292 15.042L20.8207 16.134C21.299 16.4102 21.4628 17.0218 21.1867 17.5001C20.9106 17.9783 20.299 18.1422 19.8207 17.8661L17.9748 16.8003L18.0866 18.5338C18.1221 19.0849 17.7041 19.5605 17.153 19.5961C16.6018 19.6316 16.1262 19.2136 16.0907 18.6625L15.8931 15.5985L12.6605 13.7322V17.4648L15.2152 19.1679C15.6747 19.4743 15.7989 20.0952 15.4926 20.5547C15.1862 21.0142 14.5653 21.1384 14.1058 20.8321L12.6605 19.8685V22C12.6605 22.5523 12.2128 23 11.6605 23C11.1082 23 10.6605 22.5523 10.6605 22V19.8685L9.21522 20.8321C8.75569 21.1384 8.13482 21.0142 7.82847 20.5547C7.52212 20.0952 7.64629 19.4743 8.10582 19.1679L10.6605 17.4648V13.732L7.42775 15.5985L7.23014 18.6625C7.1946 19.2136 6.719 19.6316 6.16786 19.5961C5.61672 19.5605 5.19875 19.0849 5.23429 18.5338L5.34609 16.8003L3.50017 17.8661C3.02187 18.1422 2.41028 17.9783 2.13414 17.5001C1.858 17.0218 2.02187 16.4102 2.50017 16.134L4.34609 15.0683L2.78899 14.2984C2.29392 14.0536 2.09102 13.4538 2.33581 12.9588C2.5806 12.4637 3.18037 12.2608 3.67544 12.5056L6.42775 13.8664L9.66042 12.0001L6.42775 10.1337L3.67545 11.4945C3.18037 11.7393 2.5806 11.5364 2.33581 11.0414C2.09102 10.5463 2.29392 9.94651 2.78899 9.70172L4.34609 8.93182L2.50017 7.86608C2.02188 7.58994 1.858 6.97834 2.13414 6.50005C2.41028 6.02176 3.02188 5.85788 3.50017 6.13403L5.34609 7.19977L5.23429 5.46634C5.19875 4.9152 5.61672 4.43959 6.16786 4.40405C6.719 4.36851 7.1946 4.78648 7.23015 5.33762L7.42775 8.40162L10.6605 10.2681V6.55068L8.1259 4.94723C7.65917 4.65197 7.52016 4.03425 7.81543 3.56752C8.11069 3.10079 8.72841 2.96179 9.19514 3.25705L10.6605 4.18408V2C10.6605 1.44772 11.1082 1 11.6605 1Z" fill="black"/>
</svg>
