<svg width="24" height="24" viewBox="0 0 24 24" fill="none" xmlns="http://www.w3.org/2000/svg">
<path fill-rule="evenodd" clip-rule="evenodd" d="M19.5 8C18.9632 8 18.4546 8.12085 18 8.33682V8C18 5.79086 16.2091 4 14 4H10C7.79086 4 6 5.79086 6 8V8.33682C5.54537 8.12085 5.0368 8 4.5 8C2.567 8 1 9.567 1 11.5V12.5C1 13.2557 1.23947 13.9554 1.64666 14.5274C1.24913 14.8929 1 15.4174 1 16V17.6C1 18.6641 1.83108 19.5342 2.87959 19.5964C2.92811 20.1035 3.35525 20.5 3.875 20.5C4.39353 20.5 4.81989 20.1053 4.87006 19.6H19.1299C19.1801 20.1053 19.6065 20.5 20.125 20.5C20.6448 20.5 21.0719 20.1035 21.1204 19.5964C22.1689 19.5342 23 18.6641 23 17.6V16C23 15.4174 22.7509 14.8929 22.3533 14.5274C22.7605 13.9554 23 13.2557 23 12.5V11.5C23 9.567 21.433 8 19.5 8ZM19.5 14C18.6716 14 18 13.3284 18 12.5V11.5C18 10.6716 18.6716 10 19.5 10C20.3284 10 21 10.6716 21 11.5V12.5C21 13.3284 20.3284 14 19.5 14ZM4.49879 14C3.67092 13.9993 3 13.328 3 12.5L3 11.5C3 10.6716 3.67157 10 4.5 10C5.32778 10 5.99895 10.6705 6 11.4981V12.5016C5.99914 13.3289 5.32855 13.9993 4.50121 14L4.49879 14ZM3 16V17.6L21 17.6V16H3ZM8 8C8 6.89543 8.89543 6 10 6L14 6C15.1046 6 16 6.89543 16 8L16 14L8 14L8 8Z" fill="black"/>
</svg>
