<svg width="24" height="24" viewBox="0 0 24 24" fill="none" xmlns="http://www.w3.org/2000/svg">
<path fill-rule="evenodd" clip-rule="evenodd" d="M8.50065 8C8.50065 6.067 10.0677 4.5 12.0007 4.5C13.9336 4.5 15.5007 6.067 15.5007 8C15.5007 9.933 13.9336 11.5 12.0007 11.5C10.0677 11.5 8.50065 9.933 8.50065 8ZM12.0007 6.5C11.1722 6.5 10.5007 7.17157 10.5007 8C10.5007 8.82843 11.1722 9.5 12.0007 9.5C12.8291 9.5 13.5007 8.82843 13.5007 8C13.5007 7.17157 12.8291 6.5 12.0007 6.5Z" fill="black"/>
<path fill-rule="evenodd" clip-rule="evenodd" d="M12.0007 12C9.79151 12 8.00065 13.7909 8.00065 16C8.00065 18.2091 9.79151 20 12.0007 20C14.2098 20 16.0007 18.2091 16.0007 16C16.0007 13.7909 14.2098 12 12.0007 12ZM10.0007 16C10.0007 14.8954 10.8961 14 12.0007 14C13.1052 14 14.0007 14.8954 14.0007 16C14.0007 17.1046 13.1052 18 12.0007 18C10.8961 18 10.0007 17.1046 10.0007 16Z" fill="black"/>
<path fill-rule="evenodd" clip-rule="evenodd" d="M3.85939 4.80025C3.96583 2.67142 5.7229 1 7.8544 1H16.1469C18.2784 1 20.0355 2.67141 20.1419 4.80025L20.8419 18.8002C20.9562 21.085 19.1345 23 16.8469 23H7.1544C4.86681 23 3.04515 21.085 3.15939 18.8002L3.85939 4.80025ZM7.8544 3C6.78865 3 5.91012 3.83571 5.8569 4.90013L5.1569 18.9001C5.09978 20.0425 6.01061 21 7.1544 21H16.8469C17.9907 21 18.9015 20.0425 18.8444 18.9001L18.1444 4.90013C18.0912 3.83571 17.2127 3 16.1469 3H7.8544Z" fill="black"/>
</svg>
