<svg width="24" height="24" viewBox="0 0 24 24" fill="none" xmlns="http://www.w3.org/2000/svg">
<path fill-rule="evenodd" clip-rule="evenodd" d="M14.5772 2.91864C13.3875 1.02712 10.6118 1.02712 9.42205 2.91864L7.49318 5.98539C7.35209 6.2097 7.12582 6.37376 6.86014 6.43861L3.3136 7.30437C1.13585 7.83599 0.255158 10.4618 1.71997 12.1796L4.0744 14.9407C4.24721 15.1434 4.33153 15.4025 4.31252 15.6628L4.04952 19.2646C3.88546 21.5114 6.15372 23.1078 8.22075 22.2769L11.6047 20.9166C11.8577 20.815 12.1415 20.815 12.3945 20.9166L15.7785 22.2769C17.8455 23.1078 20.1138 21.5114 19.9497 19.2646L19.6867 15.6628C19.6677 15.4025 19.752 15.1434 19.9248 14.9407L22.2792 12.1796C23.744 10.4618 22.8634 7.83599 20.6856 7.30437L17.1391 6.43861C16.8734 6.37376 16.6471 6.2097 16.506 5.98539L14.5772 2.91864ZM11.115 3.98346C11.5205 3.33885 12.4787 3.33885 12.8842 3.98346L14.8131 7.05021C15.2332 7.71821 15.8985 8.19451 16.6648 8.38156L20.2113 9.24731C20.9665 9.43166 21.2396 10.3164 20.7574 10.8819L18.403 13.643C17.8907 14.2438 17.6345 15.0208 17.692 15.8084L17.955 19.4103C18.0084 20.1421 17.2559 20.7153 16.5244 20.4212L13.1404 19.061C12.4087 18.7668 11.5905 18.7669 10.8588 19.061L7.47481 20.4212C6.74335 20.7153 5.99077 20.1421 6.04421 19.4103L6.30721 15.8084C6.36473 15.0208 6.10849 14.2438 5.59624 13.643L3.24182 10.8819C2.75956 10.3164 3.03273 9.43166 3.7879 9.24731L7.33444 8.38156C8.10068 8.19451 8.766 7.71821 9.18615 7.05021L11.115 3.98346Z" fill="black"/>
</svg>
