<svg width="24" height="24" viewBox="0 0 24 24" fill="none" xmlns="http://www.w3.org/2000/svg">
<path d="M12.5 9C12.5 8.44772 12.0523 8 11.5 8C10.9477 8 10.5 8.44772 10.5 9V14C10.5 14.5523 10.9477 15 11.5 15H14.5C15.0523 15 15.5 14.5523 15.5 14C15.5 13.4477 15.0523 13 14.5 13H12.5V9Z" fill="black"/>
<path fill-rule="evenodd" clip-rule="evenodd" d="M9 2C9 1.44772 9.44772 1 10 1H14C14.5523 1 15 1.44772 15 2C15 2.55228 14.5523 3 14 3H13V4C13 4.01787 12.9995 4.03564 12.9986 4.05328C17.6376 4.55124 21.25 8.47876 21.25 13.25C21.25 18.3586 17.1086 22.5 12 22.5C6.89137 22.5 2.75 18.3586 2.75 13.25C2.75 8.47876 6.36241 4.55124 11.0014 4.05328C11.0005 4.03564 11 4.01787 11 4V3H10C9.44772 3 9 2.55228 9 2ZM12 6C7.99594 6 4.75 9.24594 4.75 13.25C4.75 17.2541 7.99594 20.5 12 20.5C16.0041 20.5 19.25 17.2541 19.25 13.25C19.25 9.24594 16.0041 6 12 6Z" fill="black"/>
</svg>
