<svg width="24" height="24" viewBox="0 0 24 24" fill="none" xmlns="http://www.w3.org/2000/svg">
<path d="M13 9.72222C13 9.16994 12.5523 8.72222 12 8.72222C11.4477 8.72222 11 9.16994 11 9.72222V10.6111C11 11.1634 11.4477 11.6111 12 11.6111C12.5523 11.6111 13 11.1634 13 10.6111V9.72222Z" fill="black"/>
<path fill-rule="evenodd" clip-rule="evenodd" d="M12.9333 3C14.6117 3 16.0267 4.12766 16.462 5.66667H18.7778C20.5574 5.66667 22 7.10931 22 8.88889V10.2111C22 10.9233 21.6082 11.5439 21.0284 11.8693L20.4681 17.4029C20.2612 19.4456 18.5415 21 16.4884 21H7.51159C5.45848 21 3.73876 19.4456 3.53193 17.4029L2.97165 11.8693C2.39182 11.5439 2 10.9233 2 10.2111V8.88889C2 7.1093 3.44264 5.66667 5.22222 5.66667H7.53802C7.97331 4.12766 9.3883 3 11.0667 3H12.9333ZM9.73321 5.66667C10.0373 5.26185 10.5214 5 11.0667 5H12.9333C13.4786 5 13.9627 5.26185 14.2668 5.66667H9.73321ZM4 8.88889C4 8.21387 4.54721 7.66667 5.22222 7.66667H18.7778C19.4528 7.66667 20 8.21387 20 8.88889V10.116C19.9059 10.1254 19.8156 10.1478 19.731 10.1814L13.0569 12.6533C12.8346 12.7356 12.5994 12.7778 12.3623 12.7778H11.6377C11.4006 12.7778 11.1654 12.7356 10.9431 12.6533L4.26897 10.1814C4.18437 10.1478 4.09411 10.1254 4 10.116V8.88889ZM13.7515 14.5288L18.9436 12.6058L18.4782 17.2015C18.3748 18.2228 17.515 19 16.4884 19H7.51159C6.48503 19 5.62517 18.2228 5.52176 17.2015L5.05645 12.6058L10.2485 14.5288C10.6931 14.6935 11.1635 14.7778 11.6377 14.7778H12.3623C12.8365 14.7778 13.3069 14.6935 13.7515 14.5288Z" fill="black"/>
</svg>
