<svg width="24" height="24" viewBox="0 0 24 24" fill="none" xmlns="http://www.w3.org/2000/svg">
<path d="M12 1C12.5523 1 13 1.44772 13 2V3.5C13 4.05228 12.5523 4.5 12 4.5C11.4477 4.5 11 4.05228 11 3.5V2C11 1.44772 11.4477 1 12 1Z" fill="black"/>
<path fill-rule="evenodd" clip-rule="evenodd" d="M5.02729 11.3777C5.34219 7.80319 8.34373 5 12 5C15.866 5 19 8.13401 19 12C19 15.5776 16.3161 18.5284 12.8519 18.9487C12.3865 20.6808 10.873 22 9 22H4.5C2.51392 22 1 20.3125 1 18.3529C1 17.1291 1.58235 16.0249 2.50073 15.3586C2.53169 13.6117 3.54301 12.065 5.02729 11.3777ZM7.09711 11.0144C7.55478 8.72501 9.57594 7 12 7C14.7614 7 17 9.23858 17 12C17 14.4523 15.2346 16.4922 12.9054 16.9182C12.6456 15.6927 11.8683 14.6545 10.8 14.0926C10.2937 12.4355 8.86888 11.1626 7.09711 11.0144ZM4.5 15.4412C4.5 14.0383 5.56044 13 6.75 13C7.80659 13 8.75475 13.8117 8.96017 14.9809C9.02273 15.337 9.27263 15.6316 9.61375 15.7514C10.3909 16.0243 11 16.8262 11 17.8235C11 19.0802 10.0515 20 9 20H4.5C3.72466 20 3 19.3172 3 18.3529C3 17.6387 3.40908 17.0614 3.93757 16.8257C4.34106 16.6457 4.57863 16.2223 4.52196 15.7841C4.50753 15.6725 4.5 15.5581 4.5 15.4412Z" fill="black"/>
<path d="M19.8599 15.134C19.3816 14.8578 18.77 15.0217 18.4938 15.5C18.2177 15.9783 18.3816 16.5899 18.8599 16.866L20.1589 17.616C20.6372 17.8922 21.2488 17.7283 21.5249 17.25C21.8011 16.7717 21.6372 16.1601 21.1589 15.884L19.8599 15.134Z" fill="black"/>
<path d="M18.4938 8.5C18.2177 8.02171 18.3816 7.41012 18.8599 7.13397L20.1589 6.38397C20.6372 6.10783 21.2488 6.27171 21.5249 6.75C21.8011 7.22829 21.6372 7.83988 21.1589 8.11603L19.8599 8.86603C19.3816 9.14217 18.77 8.97829 18.4938 8.5Z" fill="black"/>
<path d="M3.83984 6.13397C3.36155 5.85783 2.74996 6.02171 2.47382 6.5C2.19768 6.97829 2.36155 7.58988 2.83984 7.86603L4.13888 8.61603C4.61717 8.89217 5.22877 8.72829 5.50491 8.25C5.78105 7.77171 5.61717 7.16012 5.13888 6.88397L3.83984 6.13397Z" fill="black"/>
</svg>
