<svg width="24" height="24" viewBox="0 0 24 24" fill="none" xmlns="http://www.w3.org/2000/svg">
<path fill-rule="evenodd" clip-rule="evenodd" d="M16.5863 2.38147C16.7341 2.41099 16.8575 2.43431 16.9793 2.44932C17.0917 2.39997 17.2032 2.34219 17.3363 2.27148L17.3773 2.24966C17.5141 2.17676 17.688 2.08409 17.8687 2.00634C18.3155 1.81413 18.8513 1.69006 19.5228 1.83711C21.0508 2.17171 21.8804 3.56404 21.8406 4.93331C21.8091 6.01746 21.2198 6.99868 20.6602 7.71245C20.0797 8.45286 19.4079 9.05945 18.9862 9.41133C18.4452 9.86272 17.7039 9.97144 17.0561 9.69441C16.5511 9.47844 15.7334 9.0903 14.9648 8.54776C14.2238 8.02473 13.3775 7.25408 13.036 6.22463C12.6048 4.92445 12.9996 3.35252 14.3672 2.59325C14.9681 2.25959 15.517 2.22457 16.0002 2.28039C16.1956 2.30297 16.3888 2.3418 16.5408 2.37234L16.5863 2.38147ZM15.338 4.34183C15.4874 4.25889 15.5926 4.24661 15.7707 4.26718C15.8796 4.27976 15.9925 4.30234 16.1648 4.33678L16.1946 4.34273C16.3696 4.37768 16.5923 4.42125 16.8399 4.44607C17.1278 4.47494 17.4187 4.43228 17.6862 4.32195C17.9162 4.22708 18.1171 4.12139 18.2747 4.03766L18.3015 4.0234C18.4567 3.94094 18.5584 3.88687 18.6591 3.84355C18.8237 3.77272 18.9281 3.75426 19.095 3.79081C19.5257 3.88513 19.8583 4.29577 19.8415 4.87524C19.8289 5.3082 19.5657 5.86683 19.0862 6.47851C18.6528 7.03132 18.1343 7.5122 17.7675 7.82307C17.3268 7.63065 16.692 7.3189 16.1182 6.91381C15.4832 6.4656 15.0707 6.00606 14.9343 5.59494C14.7518 5.04471 14.9525 4.55585 15.338 4.34183Z" fill="black"/>
<path fill-rule="evenodd" clip-rule="evenodd" d="M1 10.0001C1 8.89549 1.89543 8.00006 3 8.00006H5C6.10457 8.00006 7 8.89549 7 10.0001V10.3231C7.83359 9.95939 8.78827 9.67008 9.8521 9.51099C10.9204 9.35124 11.9416 9.6431 12.7445 9.87255C12.8683 9.90793 12.9869 9.94182 13.0997 9.97235C14.011 10.219 14.7864 10.3504 15.6838 10.0513C16.4957 9.78068 17.3085 9.71487 17.9807 10.0851C18.6924 10.477 18.9416 11.1814 18.9898 11.7539C19.0107 12.0018 18.9831 12.3378 18.7886 12.6613C18.6336 12.919 18.4202 13.1336 18.1982 13.3113C18.9547 13.069 19.7508 12.8255 20.4502 12.7303C21.1174 12.6394 22.0452 12.631 22.7071 13.2929C23.4693 14.0551 23.2438 15.0454 22.9334 15.6828C22.6092 16.3482 22.0331 17.025 21.38 17.6449C20.0591 18.8986 18.1594 20.1649 16.3929 20.9196C14.2273 21.8447 11.7039 21.2776 9.82174 20.7397C9.39318 20.6172 9.00818 20.4993 8.65413 20.3909C8.16085 20.2399 7.72756 20.1072 7.32026 20.0061C7.20199 19.9768 7.09552 19.9527 7 19.9336V20.0001C7 21.1046 6.10457 22.0001 5 22.0001H3C1.89543 22.0001 1 21.1046 1 20.0001V10.0001ZM7 12.5571C7.82949 12.0829 8.88716 11.6775 10.1479 11.489C10.757 11.3979 11.3187 11.5541 12.1503 11.7853C12.285 11.8228 12.4269 11.8622 12.5771 11.9029C13.5876 12.1764 14.8419 12.4401 16.3162 11.9487C16.5596 11.8676 16.7284 11.8383 16.8398 11.8303L16.8122 11.8492C16.618 11.9803 16.35 12.1243 16.0121 12.2747C15.3372 12.575 14.4706 12.862 13.5585 13.108C12.8697 13.2937 12.2815 13.8315 12.17 14.5547C12.1118 14.9322 12.1941 15.3605 12.4911 15.708C12.7825 16.0489 13.1849 16.2021 13.5653 16.2429C14.4517 16.3378 15.3853 16.1913 16.2469 15.9827C16.9943 15.8018 17.7546 15.5561 18.441 15.3343C18.5486 15.2995 18.6544 15.2653 18.7581 15.232C19.5564 14.9759 20.2073 14.7818 20.7201 14.712C20.9516 14.6805 21.0979 14.6825 21.1865 14.6922C21.1739 14.724 21.1572 14.762 21.1353 14.8069C20.9643 15.158 20.5862 15.6409 20.0032 16.1943C18.8519 17.287 17.1516 18.4206 15.6071 19.0804C14.1635 19.6971 12.287 19.3642 10.3714 18.8167C10.032 18.7197 9.67761 18.6117 9.32869 18.5053C8.78016 18.3381 8.24453 18.1749 7.80215 18.065C7.53644 17.9991 7.2643 17.9412 7 17.907V12.5571ZM5 10.0001V20.0001H3V10.0001H5ZM21.2225 14.554C21.224 14.5531 21.2251 14.5611 21.2215 14.5807C21.2193 14.5647 21.2211 14.5549 21.2225 14.554ZM14.0505 15.0497C14.0503 15.0496 14.0523 15.0483 14.0572 15.0462C14.0532 15.0489 14.0508 15.0499 14.0505 15.0497Z" fill="black"/>
</svg>
