<svg width="24" height="24" viewBox="0 0 24 24" fill="none" xmlns="http://www.w3.org/2000/svg">
<path d="M10.5849 1.10059C10.0326 1.10059 9.58489 1.5483 9.58489 2.10059C9.58489 2.65287 10.0326 3.10059 10.5849 3.10059H12.4133L1.3925 14.1214C1.00198 14.5119 1.00198 15.1451 1.3925 15.5356C1.78303 15.9261 2.41619 15.9261 2.80672 15.5356L13.8275 4.5148V6.34323C13.8275 6.89551 14.2752 7.34323 14.8275 7.34323C15.3798 7.34323 15.8275 6.89551 15.8275 6.34323V2.10059C15.8275 1.5483 15.3798 1.10059 14.8275 1.10059H10.5849Z" fill="black"/>
<path d="M22.6057 9.87886C22.9962 9.48834 22.9962 8.85517 22.6057 8.46465C22.2152 8.07412 21.582 8.07412 21.1915 8.46465L10.1707 19.4855V17.657C10.1707 17.1047 9.72297 16.657 9.17068 16.657C8.6184 16.657 8.17068 17.1047 8.17068 17.657V21.8997C8.17068 22.452 8.6184 22.8997 9.17068 22.8997H13.4133C13.9656 22.8997 14.4133 22.452 14.4133 21.8997C14.4133 21.3474 13.9656 20.8997 13.4133 20.8997H11.5849L22.6057 9.87886Z" fill="black"/>
</svg>
