<svg width="24" height="24" viewBox="0 0 24 24" fill="none" xmlns="http://www.w3.org/2000/svg">
<path d="M6.29289 2.29289C6.68342 1.90237 7.31658 1.90237 7.70711 2.29289L10.7071 5.29289C11.0976 5.68342 11.0976 6.31658 10.7071 6.70711C10.3166 7.09763 9.68342 7.09763 9.29289 6.70711L8 5.41421L8 21C8 21.5523 7.55228 22 7 22C6.44771 22 6 21.5523 6 21L6 5.41421L4.70711 6.70711C4.31658 7.09763 3.68342 7.09763 3.29289 6.70711C2.90237 6.31658 2.90237 5.68342 3.29289 5.29289L6.29289 2.29289Z" fill="black"/>
<path d="M13.2929 18.7071L16.2929 21.7071C16.6834 22.0976 17.3166 22.0976 17.7071 21.7071L20.7071 18.7071C21.0976 18.3166 21.0976 17.6834 20.7071 17.2929C20.3166 16.9024 19.6834 16.9024 19.2929 17.2929L18 18.5858V3C18 2.44772 17.5523 2 17 2C16.4477 2 16 2.44772 16 3V18.5858L14.7071 17.2929C14.3166 16.9024 13.6834 16.9024 13.2929 17.2929C12.9024 17.6834 12.9024 18.3166 13.2929 18.7071Z" fill="black"/>
</svg>
