<svg width="24" height="24" viewBox="0 0 24 24" fill="none" xmlns="http://www.w3.org/2000/svg">
<path d="M21.7071 7.70711C22.0976 7.31658 22.0976 6.68342 21.7071 6.29289L18.7071 3.29289C18.3166 2.90237 17.6834 2.90237 17.2929 3.29289C16.9024 3.68342 16.9024 4.31658 17.2929 4.70711L18.5858 6L3 6C2.44772 6 2 6.44772 2 7C2 7.55229 2.44772 8 3 8L18.5858 8L17.2929 9.29289C16.9024 9.68342 16.9024 10.3166 17.2929 10.7071C17.6834 11.0976 18.3166 11.0976 18.7071 10.7071L21.7071 7.70711Z" fill="black"/>
<path d="M2.29289 17.7071C1.90237 17.3166 1.90237 16.6834 2.29289 16.2929L5.29289 13.2929C5.68342 12.9024 6.31658 12.9024 6.70711 13.2929C7.09763 13.6834 7.09763 14.3166 6.70711 14.7071L5.41421 16L21 16C21.5523 16 22 16.4477 22 17C22 17.5523 21.5523 18 21 18L5.41421 18L6.70711 19.2929C7.09763 19.6834 7.09763 20.3166 6.70711 20.7071C6.31658 21.0976 5.68342 21.0976 5.29289 20.7071L2.29289 17.7071Z" fill="black"/>
</svg>
