<svg width="24" height="24" viewBox="0 0 24 24" fill="none" xmlns="http://www.w3.org/2000/svg">
<path fill-rule="evenodd" clip-rule="evenodd" d="M17 1.5C19.2091 1.5 21 3.29086 21 5.5V18.5C21 20.7091 19.2091 22.5 17 22.5H7C4.79086 22.5 3 20.7091 3 18.5V5.5C3 3.29086 4.79086 1.5 7 1.5H17ZM5 5.5C5 4.39543 5.89543 3.5 7 3.5H9.13378C9.30669 3.7989 9.62986 4 10 4H14C14.3701 4 14.6933 3.7989 14.8662 3.5H17C18.1046 3.5 19 4.39543 19 5.5V18.5C19 19.6046 18.1046 20.5 17 20.5H7C5.89543 20.5 5 19.6046 5 18.5V5.5Z" fill="black"/>
</svg>
