<svg width="24" height="24" viewBox="0 0 24 24" fill="none" xmlns="http://www.w3.org/2000/svg">
<path d="M18.235 2.93652C16.463 1.71513 14.315 1 12 1C5.92487 1 1 5.92487 1 12C1 18.0751 5.92487 23 12 23C18.0751 23 23 18.0751 23 12C23 9.685 22.2849 7.53703 21.0635 5.76495L19.6199 7.20852C20.4942 8.59597 21 10.2389 21 12C21 16.9706 16.9706 21 12 21C7.02944 21 3 16.9706 3 12C3 7.02944 7.02944 3 12 3C13.7611 3 15.404 3.50582 16.7915 4.3801L18.235 2.93652Z" fill="black"/>
<path d="M20 1C20.5523 1 21 1.44772 21 2V3H22C22.5523 3 23 3.44772 23 4C23 4.55228 22.5523 5 22 5H20.4142L13.8509 11.5633C14.2301 11.7054 14.5 12.0712 14.5 12.5C14.5 13.0523 14.0523 13.5 13.5 13.5H11.5C10.9477 13.5 10.5 13.0523 10.5 12.5V10.5C10.5 9.94772 10.9477 9.5 11.5 9.5C11.9288 9.5 12.2946 9.7699 12.4367 10.1491L19 3.58579V2C19 1.44772 19.4477 1 20 1Z" fill="black"/>
<path d="M12 5C13.2055 5 14.3399 5.30474 15.3302 5.84138L13.8272 7.34438C13.2612 7.12208 12.6449 7 12 7C9.23858 7 7 9.23858 7 12C7 14.7614 9.23858 17 12 17C14.7614 17 17 14.7614 17 12C17 11.3551 16.8779 10.7388 16.6556 10.1728L18.1586 8.66981C18.6953 9.66014 19 10.7945 19 12C19 15.866 15.866 19 12 19C8.13401 19 5 15.866 5 12C5 8.13401 8.13401 5 12 5Z" fill="black"/>
</svg>
