<svg width="24" height="24" viewBox="0 0 24 24" fill="none" xmlns="http://www.w3.org/2000/svg">
<path d="M14 2C14.3788 2 14.7251 2.21395 14.8945 2.55273L15.6182 4H17.5586C18.8498 4.00005 19.996 4.82677 20.4043 6.05176L21.4434 9.16895C21.8321 8.90796 22.3634 8.94939 22.707 9.29297C23.0976 9.68349 23.0976 10.3165 22.707 10.707L22.6035 10.8096C22.8511 11.1425 23 11.5532 23 12V15.5C23 16.5249 22.3826 17.4041 21.5 17.79V19C21.5 20.1046 20.6046 21 19.5 21H17C15.8954 21 15 20.1046 15 19V18H9V19C9 20.1046 8.10457 21 7 21H4.5C3.39543 21 2.5 20.1046 2.5 19V17.79C1.61743 17.4041 1 16.5249 1 15.5V12C1 11.5532 1.14892 11.1425 1.39648 10.8096L1.29297 10.707C0.902444 10.3165 0.902444 9.68349 1.29297 9.29297C1.63635 8.94958 2.16699 8.90846 2.55566 9.16895L3.5957 6.05176C4.00403 4.82677 5.15016 4.00005 6.44141 4H8.38184L9.10547 2.55273L9.17676 2.43164C9.36169 2.16367 9.66854 2 10 2H14ZM4.5 19H7V18H4.5V19ZM17 19H19.5V18H17V19ZM3 15.5C3 15.7761 3.22386 16 3.5 16H20.5C20.7761 16 21 15.7761 21 15.5V12H3V15.5ZM6.44141 6C6.01111 6.00005 5.62934 6.27543 5.49316 6.68359L4.3877 10H19.6123L18.5068 6.68359C18.3707 6.27543 17.9889 6.00005 17.5586 6H6.44141Z" fill="black"/>
</svg>
