<svg width="24" height="24" viewBox="0 0 24 24" fill="none" xmlns="http://www.w3.org/2000/svg">
<path d="M6.152 8.47C5.85929 8.93834 6.00166 9.55529 6.47 9.848L9.1132 11.5L6.47 13.152C6.00166 13.4447 5.85929 14.0617 6.152 14.53C6.44471 14.9983 7.06166 15.1407 7.53 14.848L10.1732 13.196C11.4265 12.4127 11.4265 10.5873 10.1732 9.804L7.53 8.152C7.06166 7.85929 6.44471 8.00166 6.152 8.47Z" fill="black"/>
<path d="M13 13C12.4477 13 12 13.4477 12 14C12 14.5523 12.4477 15 13 15H17C17.5523 15 18 14.5523 18 14C18 13.4477 17.5523 13 17 13H13Z" fill="black"/>
<path fill-rule="evenodd" clip-rule="evenodd" d="M2 7C2 4.79086 3.79086 3 6 3H18C20.2091 3 22 4.79086 22 7V17C22 19.2091 20.2091 21 18 21H6C3.79086 21 2 19.2091 2 17V7ZM6 5C4.89543 5 4 5.89543 4 7V17C4 18.1046 4.89543 19 6 19H18C19.1046 19 20 18.1046 20 17V7C20 5.89543 19.1046 5 18 5H6Z" fill="black"/>
</svg>
