<svg width="24" height="24" viewBox="0 0 24 24" fill="none" xmlns="http://www.w3.org/2000/svg">
<path d="M13 5C13 4.44772 12.5523 4 12 4C11.4477 4 11 4.44772 11 5V16C11 16.5523 11.4477 17 12 17C12.5523 17 13 16.5523 13 16V5Z" fill="black"/>
<path fill-rule="evenodd" clip-rule="evenodd" d="M12 1C9.98579 1 8.35294 2.63284 8.35294 4.64706V11.9168C6.91787 13.0491 6 14.8303 6 16.8225C6 20.2011 8.6537 23 12 23C15.3463 23 18 20.2011 18 16.8225C18 14.8303 17.0821 13.0491 15.6471 11.9168V4.64706C15.6471 2.63284 14.0142 1 12 1ZM8 16.8225C8 15.4202 8.65975 14.1889 9.66108 13.4334C10.0585 13.1336 10.3529 12.6457 10.3529 12.0703V4.64706C10.3529 3.73741 11.0904 3 12 3C12.9096 3 13.6471 3.73741 13.6471 4.64706V12.0703C13.6471 12.6457 13.9415 13.1336 14.3389 13.4334C15.3402 14.1889 16 15.4202 16 16.8225C16 19.1628 14.1766 21 12 21C9.82345 21 8 19.1628 8 16.8225Z" fill="black"/>
</svg>
