<svg width="24" height="24" viewBox="0 0 24 24" fill="none" xmlns="http://www.w3.org/2000/svg">
<path d="M7.99962 6.5C7.99962 5.94772 7.5519 5.5 6.99962 5.5C6.44733 5.5 5.99962 5.94772 5.99962 6.5V8.5C5.99962 9.05229 6.44733 9.5 6.99962 9.5C7.5519 9.5 7.99962 9.05229 7.99962 8.5V6.5Z" fill="black"/>
<path d="M6.99962 10C7.5519 10 7.99962 10.4477 7.99962 11V13C7.99962 13.5523 7.5519 14 6.99962 14C6.44733 14 5.99962 13.5523 5.99962 13V11C5.99962 10.4477 6.44733 10 6.99962 10Z" fill="black"/>
<path d="M7.99962 15.5C7.99962 14.9477 7.5519 14.5 6.99962 14.5C6.44733 14.5 5.99962 14.9477 5.99962 15.5V17.5C5.99962 18.0523 6.44733 18.5 6.99962 18.5C7.5519 18.5 7.99962 18.0523 7.99962 17.5V15.5Z" fill="black"/>
<path fill-rule="evenodd" clip-rule="evenodd" d="M22.4996 17L22.4996 16.7082C22.4996 16.0872 22.355 15.4748 22.0773 14.9194L21.1726 13.11C20.8517 12.468 20.8993 11.7033 21.2974 11.1061L21.8278 10.3105C22.2659 9.6534 22.4996 8.88137 22.4996 8.09168V7C22.4996 4.79086 20.7087 3 18.4996 3H4.87368C2.48058 3 0.629015 5.09742 0.92584 7.47204C0.997552 8.04574 1.19344 8.59691 1.49987 9.08719L2.65787 10.94C3.06321 11.5885 3.06321 12.4115 2.65787 13.06L1.60763 14.7404C1.2103 15.3761 0.999618 16.1107 0.999618 16.8604L0.999618 17C0.999618 19.2091 2.79048 21 4.99962 21H18.4996C20.7088 21 22.4996 19.2091 22.4996 17ZM20.4996 16.7082L20.4996 17C20.4996 18.1046 19.6042 19 18.4996 19L4.99962 19C3.89505 19 2.99962 18.1046 2.99962 17V16.8604C2.99962 16.4855 3.10496 16.1183 3.30362 15.8004L4.35387 14.12C5.16454 12.8229 5.16454 11.1771 4.35387 9.88L3.19586 8.02719C3.04348 7.78338 2.94606 7.50927 2.9104 7.22397C2.76278 6.04306 3.68358 5 4.87368 5L18.4996 5C19.6042 5 20.4996 5.89543 20.4996 7V8.09168C20.4996 8.48653 20.3827 8.87254 20.1637 9.20107L19.6333 9.99673C18.837 11.1911 18.7418 12.7205 19.3838 14.0044L20.2885 15.8138C20.4273 16.0915 20.4996 16.3977 20.4996 16.7082Z" fill="black"/>
</svg>
