<svg width="24" height="24" viewBox="0 0 24 24" fill="none" xmlns="http://www.w3.org/2000/svg">
<path d="M10.5 4.5C11.1739 4.5 11.8334 4.63444 12.3614 4.89847C12.8297 5.13258 13.5 5.64103 13.5 6.5C13.5 7.35897 12.8297 7.86742 12.3614 8.10153C11.8334 8.36556 11.1739 8.5 10.5 8.5C9.82613 8.5 9.16662 8.36556 8.63857 8.10153C8.17034 7.86742 7.5 7.35897 7.5 6.5C7.5 5.64103 8.17034 5.13258 8.63857 4.89847C9.16662 4.63444 9.82613 4.5 10.5 4.5Z" fill="black"/>
<path fill-rule="evenodd" clip-rule="evenodd" d="M19 6.5V9H20C21.6569 9 23 10.3431 23 12V19C23 20.6569 21.6569 22 20 22H10.5C8.3165 22 6.29093 21.589 4.77381 20.8811C3.3379 20.211 2 19.0858 2 17.5V6.5C2 4.9142 3.3379 3.78904 4.77381 3.11894C6.29093 2.41096 8.3165 2 10.5 2C12.6835 2 14.7091 2.41096 16.2262 3.11894C17.6621 3.78904 19 4.9142 19 6.5ZM4 6.5C4 6.15281 4.34104 5.52797 5.61958 4.93131C6.81693 4.37255 8.54136 4 10.5 4C12.4586 4 14.1831 4.37255 15.3804 4.93131C16.659 5.52797 17 6.15281 17 6.5C17 6.84719 16.659 7.47203 15.3804 8.06869C14.1831 8.62745 12.4586 9 10.5 9C8.54136 9 6.81693 8.62745 5.61958 8.06869C4.34104 7.47203 4 6.84719 4 6.5ZM4 17.5V9.46561C4.2495 9.61947 4.51 9.75795 4.77381 9.88106C6.29093 10.589 8.3165 11 10.5 11H20C20.5523 11 21 11.4477 21 12V19C21 19.5523 20.5523 20 20 20H10.5C8.54136 20 6.81693 19.6275 5.61958 19.0687C4.34104 18.472 4 17.8472 4 17.5Z" fill="black"/>
</svg>
