<svg width="24" height="24" viewBox="0 0 24 24" fill="none" xmlns="http://www.w3.org/2000/svg">
<path fill-rule="evenodd" clip-rule="evenodd" d="M6 10C6 6.68629 8.68629 4 12 4C15.3137 4 18 6.68629 18 10V13C18 14.6569 16.6569 16 15 16H9C7.34315 16 6 14.6569 6 13V10ZM12 6C9.79086 6 8 7.79086 8 10V13C8 13.5523 8.44772 14 9 14H15C15.5523 14 16 13.5523 16 13V10C16 7.79086 14.2091 6 12 6Z" fill="black"/>
<path d="M10 17C9.44772 17 9 17.4477 9 18C9 18.5523 9.44772 19 10 19H15C15.5523 19 16 18.5523 16 18C16 17.4477 15.5523 17 15 17H10Z" fill="black"/>
<path fill-rule="evenodd" clip-rule="evenodd" d="M3 10C3 5.02944 7.02944 1 12 1C16.9706 1 21 5.02944 21 10V16C21 19.3137 18.3137 22 15 22H9C5.68629 22 3 19.3137 3 16V10ZM12 3C8.13401 3 5 6.13401 5 10V16C5 18.2091 6.79086 20 9 20H15C17.2091 20 19 18.2091 19 16V10C19 6.13401 15.866 3 12 3Z" fill="black"/>
</svg>
