<svg width="24" height="24" viewBox="0 0 24 24" fill="none" xmlns="http://www.w3.org/2000/svg">
<path fill-rule="evenodd" clip-rule="evenodd" d="M7 21C8.30622 21 9.41746 20.1652 9.82929 19H16.1707C16.5825 20.1652 17.6938 21 19 21C20.3062 21 21.4175 20.1652 21.8293 19H22C22.5523 19 23 18.5523 23 18V14.6366C23 14.077 22.8826 13.5235 22.6552 13.0121L21.7056 10.8754C21.0636 9.43093 19.6311 8.5 18.0504 8.5H16V7C16 4.79086 14.2091 3 12 3H5C2.79086 3 1 4.79086 1 7V17C1 18.1046 1.89543 19 3 19H4.17071C4.58254 20.1652 5.69378 21 7 21ZM3 7C3 5.89543 3.89543 5 5 5H12C13.1046 5 14 5.89543 14 7V17H9.82929C9.41746 15.8348 8.30622 15 7 15C5.69378 15 4.58254 15.8348 4.17071 17H3V7ZM20.8276 13.8244C20.9413 14.0801 21 14.3568 21 14.6366V15.7639C20.4692 15.2889 19.7684 15 19 15C17.6938 15 16.5825 15.8348 16.1707 17H16V10.5H18.0504C18.8408 10.5 19.557 10.9655 19.878 11.6877L20.8276 13.8244ZM6 18C6 17.4477 6.44772 17 7 17C7.55228 17 8 17.4477 8 18C8 18.5523 7.55228 19 7 19C6.44772 19 6 18.5523 6 18ZM18 18C18 17.4477 18.4477 17 19 17C19.5523 17 20 17.4477 20 18C20 18.5523 19.5523 19 19 19C18.4477 19 18 18.5523 18 18Z" fill="black"/>
</svg>
