<svg width="24" height="24" viewBox="0 0 24 24" fill="none" xmlns="http://www.w3.org/2000/svg">
<path d="M2.54289 8.70711C2.15237 8.31658 2.15237 7.68342 2.54289 7.29289L6.54289 3.29289C6.93342 2.90237 7.56658 2.90237 7.95711 3.29289C8.34763 3.68342 8.34763 4.31658 7.95711 4.70711L5.66421 7H14.75C18.616 7 21.75 10.134 21.75 14C21.75 17.866 18.616 21 14.75 21H5.25C4.69772 21 4.25 20.5523 4.25 20C4.25 19.4477 4.69772 19 5.25 19H14.75C17.5114 19 19.75 16.7614 19.75 14C19.75 11.2386 17.5114 9 14.75 9H5.66421L7.95711 11.2929C8.34763 11.6834 8.34763 12.3166 7.95711 12.7071C7.56658 13.0976 6.93342 13.0976 6.54289 12.7071L2.54289 8.70711Z" fill="black"/>
</svg>
