<svg width="24" height="24" viewBox="0 0 24 24" fill="none" xmlns="http://www.w3.org/2000/svg">
<path fill-rule="evenodd" clip-rule="evenodd" d="M7 7C7 4.23858 9.23858 2 12 2C14.7614 2 17 4.23858 17 7C17 9.76142 14.7614 12 12 12C9.23858 12 7 9.76142 7 7ZM12 4C10.3431 4 9 5.34315 9 7C9 8.65685 10.3431 10 12 10C13.6569 10 15 8.65685 15 7C15 5.34315 13.6569 4 12 4Z" fill="black"/>
<path fill-rule="evenodd" clip-rule="evenodd" d="M6.55543 21.9174C8.22982 22.6502 10.4595 23 12 23C13.5405 23 15.7702 22.6502 17.4446 21.9174C18.2666 21.5576 19.1025 21.0427 19.5882 20.2974C19.8437 19.9054 20.0052 19.4437 19.9999 18.9282C19.9946 18.4174 19.8266 17.9281 19.5441 17.4728C18.1747 15.2656 15.3732 13 12 13C8.62679 13 5.82532 15.2656 4.45591 17.4728C4.17344 17.9281 4.00537 18.4174 4.00013 18.9282C3.99483 19.4437 4.15632 19.9054 4.41175 20.2974C4.89745 21.0427 5.73343 21.5576 6.55543 21.9174ZM6.00002 18.9487C6.00077 18.8757 6.02372 18.7394 6.15539 18.5272C7.27754 16.7185 9.51566 15 12 15C14.4843 15 16.7225 16.7185 17.8446 18.5272C17.9763 18.7394 17.9992 18.8757 18 18.9487C18.0007 19.017 17.9831 19.0973 17.9126 19.2055C17.7465 19.4605 17.3429 19.7787 16.6427 20.0852C15.2726 20.6848 13.3268 21 12 21C10.6732 21 8.72744 20.6848 7.35732 20.0852C6.65707 19.7787 6.25354 19.4605 6.08736 19.2055C6.01686 19.0973 5.99932 19.017 6.00002 18.9487Z" fill="black"/>
<path fill-rule="evenodd" clip-rule="evenodd" d="M20.2065 3.20835C20.2212 3.21487 20.2357 3.22146 20.25 3.22812C20.2643 3.22146 20.2788 3.21487 20.2935 3.20836C20.7626 3.00055 21.4566 2.86796 22.225 3.20835C22.7129 3.42451 23.0974 3.78006 23.3136 4.2576C23.5228 4.71971 23.5348 5.20744 23.4526 5.64071C23.3408 6.23022 23.0009 6.70823 22.6838 7.05245C22.3567 7.40752 21.9767 7.70311 21.6547 7.9246C20.8058 8.50861 19.6942 8.50861 18.8453 7.92461C18.5233 7.70312 18.1433 7.40753 17.8162 7.05246C17.4992 6.70824 17.1592 6.23023 17.0474 5.64071C16.9652 5.20744 16.9772 4.71971 17.1864 4.2576C17.4026 3.78006 17.7871 3.42451 18.275 3.20835C19.0434 2.86796 19.7374 3.00055 20.2065 3.20835ZM19.5232 5.11244C19.5351 5.12156 19.5431 5.12842 19.5467 5.13155C19.7337 5.3166 19.9864 5.42072 20.25 5.42072C20.5137 5.42071 20.7664 5.31659 20.9534 5.13154C20.9569 5.1284 20.9649 5.12155 20.9769 5.11243C21.0071 5.08929 21.0516 5.06 21.1036 5.03696C21.1952 4.99639 21.2862 4.97994 21.4149 5.03696C21.4656 5.05939 21.4858 5.07744 21.4903 5.0817L21.492 5.0834C21.492 5.0834 21.4933 5.08707 21.4943 5.09091C21.4958 5.0969 21.4977 5.10695 21.4989 5.12177C21.5014 5.15201 21.5005 5.20018 21.4876 5.26797C21.4751 5.33426 21.4117 5.48142 21.2128 5.69744C21.0238 5.9026 20.7749 6.1023 20.5212 6.27685C20.355 6.3912 20.1451 6.3912 19.9788 6.27685C19.7251 6.1023 19.4762 5.9026 19.2873 5.69743C19.0883 5.48142 19.025 5.33425 19.0124 5.26797C18.9995 5.20018 18.9986 5.15201 19.0011 5.12177C19.0023 5.10695 19.0043 5.0969 19.0057 5.09091C19.0067 5.08707 19.008 5.0834 19.008 5.0834L19.0097 5.0817C19.0142 5.07744 19.0344 5.05939 19.0851 5.03696C19.2138 4.97994 19.3048 4.99638 19.3964 5.03696C19.4485 5.06001 19.4929 5.0893 19.5232 5.11244Z" fill="black"/>
</svg>
