<svg width="24" height="24" viewBox="0 0 24 24" fill="none" xmlns="http://www.w3.org/2000/svg">
<g clip-path="url(#clip0_207_4171)">
<path fill-rule="evenodd" clip-rule="evenodd" d="M12 3C9.23858 3 7 5.23858 7 8C7 10.7614 9.23858 13 12 13C14.7614 13 17 10.7614 17 8C17 5.23858 14.7614 3 12 3ZM9 8C9 6.34315 10.3431 5 12 5C13.6569 5 15 6.34315 15 8C15 9.65685 13.6569 11 12 11C10.3431 11 9 9.65685 9 8Z" fill="black"/>
<path fill-rule="evenodd" clip-rule="evenodd" d="M24 12C24 18.6274 18.6274 24 12 24L11.984 24C5.36396 23.9914 0 18.6221 0 12C0 5.37258 5.37258 0 12 0C18.6274 0 24 5.37258 24 12ZM2 12C2 6.47715 6.47715 2 12 2C17.5228 2 22 6.47715 22 12C22 14.387 21.1637 16.5786 19.7681 18.2979C19.7269 18.2032 19.6801 18.1084 19.6274 18.0136C18.2713 15.5774 15.4517 13 11.9969 13C8.54217 13 5.72256 15.5774 4.36649 18.0136C4.31462 18.1068 4.26857 18.2001 4.22815 18.2932C2.83481 16.5747 2 14.3848 2 12ZM7.46843 20.8306C8.82842 21.5567 10.7092 21.9985 11.9904 22L11.9969 22C13.2824 22 15.1736 21.5661 16.5369 20.8442C17.2239 20.4804 17.6644 20.1019 17.8687 19.7742C18.028 19.5187 18.0546 19.3003 17.8799 18.9864C16.7212 16.9048 14.4543 15 11.9969 15C9.5396 15 7.2727 16.9048 6.11401 18.9864C5.9484 19.2839 5.97069 19.4959 6.13309 19.7546C6.33964 20.0836 6.7822 20.4642 7.46843 20.8306Z" fill="black"/>
</g>
<defs>
<clipPath id="clip0_207_4171">
<rect width="24" height="24" fill="white"/>
</clipPath>
</defs>
</svg>
