<svg width="24" height="24" viewBox="0 0 24 24" fill="none" xmlns="http://www.w3.org/2000/svg">
<path d="M4.59292 9.63079C5.074 9.79115 5.4515 10.1687 5.61186 10.6497C5.77507 11.1394 6.46761 11.1394 6.63081 10.6497C6.79117 10.1687 7.16868 9.79115 7.64976 9.63079C8.13937 9.46759 8.13937 8.77505 7.64976 8.61185C7.16868 8.45149 6.79117 8.07398 6.63081 7.5929C6.46761 7.10329 5.77507 7.10329 5.61186 7.5929C5.4515 8.07398 5.074 8.45149 4.59292 8.61185C4.10331 8.77505 4.10331 9.46759 4.59292 9.63079Z" fill="black"/>
<path fill-rule="evenodd" clip-rule="evenodd" d="M5 4C2.79086 4 1 5.79086 1 8V16C1 18.2091 2.79086 20 5 20H15C16.8925 20 18.478 18.6858 18.8936 16.9202L19.8 17.6C21.1185 18.5889 23 17.6481 23 16V8C23 6.35191 21.1185 5.41115 19.8 6.4L18.8936 7.07977C18.478 5.31421 16.8925 4 15 4H5ZM21 16L19 14.5V9.5L21 8V16ZM3 8C3 6.89543 3.89543 6 5 6H15C16.1046 6 17 6.89543 17 8V16C17 17.1046 16.1046 18 15 18H5C3.89543 18 3 17.1046 3 16V8Z" fill="black"/>
</svg>
