<svg width="24" height="24" viewBox="0 0 24 24" fill="none" xmlns="http://www.w3.org/2000/svg">
<path d="M22.7071 1.29289C23.0976 1.68342 23.0976 2.31658 22.7071 2.70711L2.70711 22.7071C2.31658 23.0976 1.68342 23.0976 1.29289 22.7071C0.902369 22.3166 0.902369 21.6834 1.29289 21.2929L21.2929 1.29289C21.6834 0.902369 22.3166 0.902369 22.7071 1.29289Z" fill="black"/>
<path d="M5.61186 10.6497C5.4515 10.1687 5.074 9.79115 4.59292 9.63079C4.10331 9.46759 4.10331 8.77505 4.59292 8.61185C5.074 8.45149 5.4515 8.07398 5.61186 7.5929C5.77507 7.10329 6.46761 7.10329 6.63081 7.5929C6.79117 8.07398 7.16868 8.45149 7.64976 8.61185C8.13937 8.77505 8.13937 9.46759 7.64976 9.63079C7.16868 9.79115 6.79117 10.1687 6.63081 10.6497C6.46761 11.1394 5.77507 11.1394 5.61186 10.6497Z" fill="black"/>
<path d="M15 4C15.6328 4 16.2312 4.14692 16.7631 4.40851L15.1649 6.0067C15.1105 6.00226 15.0555 6 15 6H5C3.89543 6 3 6.89543 3 8V16C3 16.5959 3.26065 17.131 3.67416 17.4974L2.25865 18.9129C1.48379 18.1834 1 17.1482 1 16V8C1 5.79086 2.79086 4 5 4H15Z" fill="black"/>
<path fill-rule="evenodd" clip-rule="evenodd" d="M15 18H8.82843L6.82843 20H15C16.8925 20 18.478 18.6858 18.8936 16.9202L19.8 17.6C21.1185 18.5889 23 17.6481 23 16V8C23 6.75206 21.9212 5.90967 20.8249 6.00349L17 9.82843V16C17 17.1046 16.1046 18 15 18ZM19 14.5L21 16V8L19 9.5V14.5Z" fill="black"/>
</svg>
