<svg width="24" height="24" viewBox="0 0 24 24" fill="none" xmlns="http://www.w3.org/2000/svg">
<path fill-rule="evenodd" clip-rule="evenodd" d="M16 3.8686C16 2.27121 14.2197 1.31842 12.8906 2.2045L9.01149 4.79057C8.76301 4.95622 8.48058 5.06413 8.18494 5.10637L4.43431 5.64217C2.46372 5.92368 1 7.61137 1 9.60197V14.3982C1 16.3888 2.46372 18.0765 4.43431 18.358L8.18494 18.8938C8.48058 18.936 8.76301 19.0439 9.01149 19.2096L12.8906 21.7957C14.2197 22.6817 16 21.729 16 20.1316V3.8686ZM10.1209 6.45467L14 3.8686L14 20.1316L10.1209 17.5455C9.62392 17.2142 9.05906 16.9984 8.46778 16.9139L4.71715 16.3781C3.73186 16.2373 3 15.3935 3 14.3982V9.60197C3 8.60667 3.73186 7.76282 4.71716 7.62207L8.46778 7.08626C9.05906 7.0018 9.62392 6.78598 10.1209 6.45467Z" fill="black"/>
<path d="M17.161 13.3093C16.6414 13.4966 16.372 14.0695 16.5592 14.5891C16.7465 15.1087 17.3195 15.3781 17.839 15.1909C19.314 14.6593 20 13.2767 20 12.0001C20 10.7235 19.314 9.34084 17.839 8.80931C17.3195 8.62206 16.7465 8.89147 16.5592 9.41105C16.372 9.93062 16.6414 10.5036 17.161 10.6909C17.686 10.8801 18 11.387 18 12.0001C18 12.6131 17.686 13.1201 17.161 13.3093Z" fill="black"/>
</svg>
