<svg width="24" height="24" viewBox="0 0 24 24" fill="none" xmlns="http://www.w3.org/2000/svg">
<path fill-rule="evenodd" clip-rule="evenodd" d="M12.8906 2.2045C14.2197 1.31842 16 2.27121 16 3.8686V20.1316C16 21.729 14.2197 22.6817 12.8906 21.7957L9.01149 19.2096C8.76301 19.0439 8.48058 18.936 8.18494 18.8938L4.43431 18.358C2.46372 18.0765 1 16.3888 1 14.3982V9.60197C1 7.61137 2.46372 5.92368 4.43431 5.64217L8.18494 5.10637C8.48058 5.06413 8.76301 4.95622 9.01149 4.79057L12.8906 2.2045ZM14 3.8686L10.1209 6.45467C9.62392 6.78598 9.05906 7.0018 8.46778 7.08626L4.71716 7.62207C3.73186 7.76282 3 8.60667 3 9.60197V14.3982C3 15.3935 3.73186 16.2373 4.71715 16.3781L8.46778 16.9139C9.05906 16.9984 9.62392 17.2142 10.1209 17.5455L14 20.1316L14 3.8686Z" fill="black"/>
<path d="M16.5592 14.5891C16.372 14.0695 16.6414 13.4966 17.161 13.3093C17.686 13.1201 18 12.6131 18 12.0001C18 11.387 17.686 10.8801 17.161 10.6909C16.6414 10.5036 16.372 9.93062 16.5592 9.41105C16.7465 8.89147 17.3195 8.62206 17.839 8.80931C19.314 9.34084 20 10.7235 20 12.0001C20 13.2767 19.314 14.6593 17.839 15.1909C17.3195 15.3781 16.7465 15.1087 16.5592 14.5891Z" fill="black"/>
<path d="M17.661 17.0593C17.1414 17.2466 16.872 17.8195 17.0592 18.3391C17.2465 18.8587 17.8195 19.1281 18.339 18.9409C21.4806 17.8087 23 14.8513 23 12.0001C23 9.14882 21.4806 6.19147 18.339 5.05931C17.8195 4.87206 17.2465 5.14147 17.0592 5.66104C16.872 6.18062 17.1414 6.75361 17.661 6.94085C19.8527 7.73072 21 9.81235 21 12.0001C21 14.1878 19.8527 16.2694 17.661 17.0593Z" fill="black"/>
</svg>
