<svg width="24" height="24" viewBox="0 0 24 24" fill="none" xmlns="http://www.w3.org/2000/svg">
<path fill-rule="evenodd" clip-rule="evenodd" d="M16 3.8686C16 2.27121 14.2197 1.31842 12.8906 2.2045L9.01149 4.79057C8.76301 4.95622 8.48058 5.06413 8.18494 5.10637L4.43431 5.64217C2.46372 5.92368 1 7.61137 1 9.60197V14.3982C1 16.3888 2.46372 18.0765 4.43431 18.358L8.18494 18.8938C8.48058 18.936 8.76301 19.0439 9.01149 19.2096L12.8906 21.7957C14.2197 22.6817 16 21.729 16 20.1316V3.8686ZM10.1209 6.45467L14 3.8686L14 20.1316L10.1209 17.5455C9.62392 17.2142 9.05906 16.9984 8.46778 16.9139L4.71715 16.3781C3.73186 16.2373 3 15.3935 3 14.3982V9.60197C3 8.60667 3.73186 7.76282 4.71716 7.62207L8.46778 7.08626C9.05906 7.0018 9.62392 6.78598 10.1209 6.45467Z" fill="black"/>
<path d="M21.2426 11.8285L21.9497 11.1214C22.3402 10.7309 22.3402 10.0977 21.9497 9.70719C21.5592 9.31666 20.926 9.31666 20.5355 9.70719L19.8284 10.4143L19.1213 9.70719C18.7307 9.31666 18.0976 9.31666 17.707 9.70719C17.3165 10.0977 17.3165 10.7309 17.707 11.1214L18.4142 11.8285L17.707 12.5356C17.3165 12.9261 17.3165 13.5593 17.707 13.9498C18.0976 14.3404 18.7307 14.3404 19.1213 13.9498L19.8284 13.2427L20.5355 13.9498C20.926 14.3404 21.5592 14.3404 21.9497 13.9498C22.3402 13.5593 22.3402 12.9261 21.9497 12.5356L21.2426 11.8285Z" fill="black"/>
</svg>
