<svg width="24" height="24" viewBox="0 0 24 24" fill="none" xmlns="http://www.w3.org/2000/svg">
<path d="M22.7071 2.70711C23.0976 2.31658 23.0976 1.68342 22.7071 1.29289C22.3166 0.902369 21.6834 0.902369 21.2929 1.29289L1.29289 21.2929C0.902369 21.6834 0.902369 22.3166 1.29289 22.7071C1.68342 23.0976 2.31658 23.0976 2.70711 22.7071L22.7071 2.70711Z" fill="black"/>
<path d="M16 3.8686V5.17165L14 7.17165V3.8686L10.1209 6.45467C9.62392 6.78598 9.05906 7.0018 8.46778 7.08626L4.71716 7.62207C3.73186 7.76282 3 8.60667 3 9.60197V14.3982C3 15.3935 3.73186 16.2373 4.71715 16.3781L4.78401 16.3876L3.20044 17.9712C1.88289 17.3075 1 15.9442 1 14.3982V9.60197C1 7.61137 2.46372 5.92368 4.43431 5.64217L8.18494 5.10637C8.48058 5.06413 8.76301 4.95622 9.01149 4.79057L12.8906 2.2045C14.2197 1.31842 16 2.27121 16 3.8686Z" fill="black"/>
<path d="M14 12.8285L16 10.8285V20.1316C16 21.729 14.2197 22.6817 12.8906 21.7957L9.01149 19.2096C8.76301 19.0439 8.48058 18.936 8.18494 18.8938L7.96599 18.8625L9.58402 17.2445C9.76992 17.3306 9.94945 17.4312 10.1209 17.5455L14 20.1316V12.8285Z" fill="black"/>
</svg>
