<svg width="24" height="24" viewBox="0 0 24 24" fill="none" xmlns="http://www.w3.org/2000/svg">
<path d="M9.05268 9.42109C9.22163 9.9194 9.74497 10.1973 10.2464 10.0692C10.2696 10.0653 10.3307 10.0564 10.4472 10.0462C10.695 10.0246 11.1639 10 11.9997 10C12.8356 10 13.3044 10.0246 13.5523 10.0462C13.6687 10.0564 13.7299 10.0653 13.7531 10.0692C14.2545 10.1973 14.7778 9.9194 14.9468 9.42109C15.1241 8.89805 14.8439 8.33029 14.3208 8.15295C14.3208 8.15295 14.3214 8.15314 14.3192 8.1524L14.3176 8.15186L14.3143 8.15078L14.3079 8.14866L14.295 8.14459C14.2865 8.14195 14.278 8.13941 14.2694 8.13699C14.2524 8.13214 14.235 8.1276 14.2171 8.12331C14.1815 8.11478 14.1419 8.10669 14.0972 8.09896C14.0084 8.08363 13.8894 8.06802 13.7259 8.05378C13.4001 8.02538 12.8689 8 11.9997 8C11.1305 8 10.5994 8.02538 10.2735 8.05378C10.1101 8.06802 9.99107 8.08363 9.9023 8.09896C9.85751 8.10669 9.81794 8.11478 9.78239 8.12331C9.76449 8.1276 9.74705 8.13214 9.73002 8.13699C9.72148 8.13941 9.71294 8.14195 9.70441 8.14459L9.69157 8.14866L9.68512 8.15078L9.68188 8.15186L9.68026 8.1524C9.67807 8.15314 9.68512 8.15078 9.67863 8.15295C9.15559 8.33029 8.87534 8.89805 9.05268 9.42109Z" fill="black"/>
<path fill-rule="evenodd" clip-rule="evenodd" d="M11.9997 5C10.5077 5 8.82704 5.06773 7.23284 5.42652C5.63625 5.78585 4.05742 6.45221 2.83644 7.70089C1.05252 9.5253 0.880884 11.936 1.05152 13.6543C1.26448 15.7987 2.89668 17.2766 4.63529 17.9878C6.34707 18.6881 8.26539 18.6881 9.97717 17.9878L10.0316 17.9656C11.2929 17.4496 12.7065 17.4496 13.9678 17.9656L14.0223 17.9878C15.734 18.6881 17.6524 18.6881 19.3642 17.9878C21.1028 17.2766 22.735 15.7987 22.9479 13.6543C23.1186 11.936 22.9469 9.5253 21.163 7.70089C19.942 6.45222 18.3632 5.78586 16.7666 5.42652C15.1724 5.06773 13.4917 5 11.9997 5ZM4.26643 9.09915C5.12597 8.22011 6.30013 7.68646 7.67198 7.37771C9.04623 7.06842 10.5494 7 11.9997 7C13.45 7 14.9532 7.06843 16.3275 7.37772C17.6993 7.68647 18.8735 8.22011 19.733 9.09915C20.9086 10.3014 21.1046 11.9777 20.9577 13.4566C20.8432 14.6093 19.935 15.5934 18.6069 16.1367C17.3804 16.6384 16.006 16.6384 14.7795 16.1367L14.7251 16.1145C12.9784 15.3999 11.021 15.3999 9.27435 16.1145L9.21993 16.1367C7.99346 16.6384 6.619 16.6384 5.39253 16.1367C4.06442 15.5934 3.1562 14.6093 3.04173 13.4566C2.89486 11.9777 3.09087 10.3014 4.26643 9.09915Z" fill="black"/>
</svg>
