<svg width="24" height="24" viewBox="0 0 24 24" fill="none" xmlns="http://www.w3.org/2000/svg">
<path fill-rule="evenodd" clip-rule="evenodd" d="M5.22476 3C3.44378 3 2 4.44377 2 6.22476V17C2 19.2091 3.79086 21 6 21H18C20.2091 21 22 19.2091 22 17V10.5556C22 8.34684 20.2105 6.55556 18.001 6.55556H14.8897C14.8498 6.49686 14.8038 6.42219 14.7518 6.32912C14.6109 6.07715 14.4738 5.78111 14.3166 5.44151C14.2793 5.36093 14.2409 5.27786 14.201 5.19239C14.0098 4.7827 13.7781 4.30151 13.5099 3.91975C13.2873 3.60286 12.8009 3 12.0138 3H5.22476ZM12.4876 6.25176C12.5332 6.35036 12.5804 6.45243 12.6288 6.55556H4V6.22476C4 5.54834 4.54834 5 5.22476 5H11.8219C11.8368 5.01884 11.854 5.04178 11.8734 5.0695C12.026 5.28671 12.1903 5.61316 12.3886 6.0382C12.4206 6.10678 12.4537 6.17835 12.4876 6.25176ZM6 19C4.89543 19 4 18.1046 4 17V8.55556H14.4782C14.4808 8.55561 14.4834 8.55566 14.4861 8.55569C14.4975 8.55584 14.5089 8.5558 14.5203 8.55556H18.001C19.1051 8.55556 20 9.45056 20 10.5556V11H18C16.3431 11 15 12.3431 15 14C15 15.6569 16.3431 17 18 17H20C20 18.1046 19.1046 19 18 19H6ZM17 14C17 13.4477 17.4477 13 18 13H20V15H18C17.4477 15 17 14.5523 17 14ZM11.7514 4.92323C11.7514 4.92272 11.7555 4.92566 11.7637 4.93356C11.7555 4.92769 11.7514 4.92374 11.7514 4.92323Z" fill="black"/>
</svg>
