<svg width="24" height="24" viewBox="0 0 24 24" fill="none" xmlns="http://www.w3.org/2000/svg">
<path fill-rule="evenodd" clip-rule="evenodd" d="M2 6.63868C2 4.62909 3.62909 3 5.63868 3H13.6259C14.0204 3 14.3414 3.15704 14.5678 3.31534C14.7939 3.47333 14.9831 3.67194 15.1368 3.85854C15.4417 4.22847 15.7245 4.69841 15.9651 5.11171C16.0251 5.21476 16.0828 5.31474 16.1386 5.41154C16.3234 5.73199 16.4881 6.01764 16.6518 6.26493C16.7329 6.38747 16.8027 6.48328 16.8618 6.55556H18.0007C20.2102 6.55556 22 8.34674 22 10.5556V15.5109C21.2778 15.3232 20.4993 15.4088 19.8284 15.7676C18.6934 15.1605 17.2502 15.3356 16.2929 16.2929C16.2591 16.3267 16.2263 16.3611 16.1945 16.396C15.4689 15.8485 15 14.979 15 14C15 12.3431 16.3431 11 18 11H20V10.5556C20 9.45067 19.105 8.55556 18.0007 8.55556H16.5203C16.5063 8.55585 16.4922 8.55585 16.4782 8.55556H4V17C4 18.1046 4.89543 19 6 19H15.4716C15.5283 19.2861 15.627 19.5655 15.7676 19.8284C15.5712 20.1957 15.4566 20.5951 15.424 21H6C3.79086 21 2 19.2091 2 17V6.63868ZM4.00207 6.55556H14.4895L14.3854 6.37515C14.3345 6.28679 14.2848 6.20056 14.2368 6.1181C13.9915 5.6968 13.782 5.35928 13.5934 5.13042C13.5437 5.07015 13.5041 5.0282 13.4748 5H5.63868C4.76154 5 4.04536 5.68916 4.00207 6.55556ZM20 13H18C17.4477 13 17 13.4477 17 14C17 14.5523 17.4477 15 18 15H20V13Z" fill="black"/>
<path d="M21.2426 19.8284L21.9497 19.1213C22.3402 18.7308 22.3402 18.0976 21.9497 17.7071C21.5592 17.3166 20.926 17.3166 20.5355 17.7071L19.8284 18.4142L19.1213 17.7071C18.7307 17.3166 18.0976 17.3166 17.707 17.7071C17.3165 18.0976 17.3165 18.7308 17.707 19.1213L18.4142 19.8284L17.707 20.5355C17.3165 20.9261 17.3165 21.5592 17.707 21.9497C18.0976 22.3403 18.7307 22.3403 19.1213 21.9497L19.8284 21.2426L20.5355 21.9497C20.926 22.3403 21.5592 22.3403 21.9497 21.9497C22.3402 21.5592 22.3402 20.9261 21.9497 20.5355L21.2426 19.8284Z" fill="black"/>
</svg>
