<svg width="24" height="24" viewBox="0 0 24 24" fill="none" xmlns="http://www.w3.org/2000/svg">
<path fill-rule="evenodd" clip-rule="evenodd" d="M2 6.63868C2 4.62909 3.62909 3 5.63868 3H13.6259C14.0204 3 14.3414 3.15704 14.5678 3.31534C14.7939 3.47333 14.9831 3.67194 15.1368 3.85854C15.4417 4.22847 15.7245 4.69841 15.9651 5.11171C16.0251 5.21476 16.0828 5.31474 16.1386 5.41154C16.3234 5.73199 16.4881 6.01764 16.6518 6.26493C16.7329 6.38747 16.8027 6.48328 16.8618 6.55556H18.0007C20.2102 6.55556 22 8.34674 22 10.5556V15.3411C21.5503 14.6647 20.8334 14.1813 20 14.0415V13H18C17.4477 13 17 13.4477 17 14C17 14.3423 17.1719 14.6443 17.4341 14.8246C16.9469 15.2875 16.615 15.9123 16.5248 16.6128C15.6144 16.0977 15 15.1206 15 14C15 12.3431 16.3431 11 18 11H20V10.5556C20 9.45067 19.105 8.55556 18.0007 8.55556H16.5203C16.5063 8.55585 16.4922 8.55585 16.4782 8.55556H4V17C4 18.1046 4.89543 19 6 19H15.5L15.5051 19C15.1016 19.6024 14.942 20.3132 15.0185 21H6C3.79086 21 2 19.2091 2 17V6.63868ZM4.00207 6.55556H14.4895L14.3854 6.37515C14.3345 6.28679 14.2848 6.20056 14.2368 6.1181C13.9915 5.6968 13.782 5.35928 13.5934 5.13042C13.5437 5.07015 13.5041 5.0282 13.4748 5H5.63868C4.76154 5 4.04536 5.68916 4.00207 6.55556Z" fill="black"/>
<path d="M21.6644 21.4141L20.1644 22.7474C19.7855 23.0842 19.2145 23.0842 18.8356 22.7474L17.3356 21.4141C16.9229 21.0472 16.8857 20.4151 17.2526 20.0023C17.5736 19.6412 18.0975 19.5675 18.5 19.8004V17C18.5 16.4477 18.9477 16 19.5 16C20.0523 16 20.5 16.4477 20.5 17V19.8004C20.9025 19.5675 21.4264 19.6412 21.7474 20.0023C22.1143 20.4151 22.0771 21.0472 21.6644 21.4141Z" fill="black"/>
</svg>
