<svg width="24" height="24" viewBox="0 0 24 24" fill="none" xmlns="http://www.w3.org/2000/svg">
<path fill-rule="evenodd" clip-rule="evenodd" d="M2 6.63868C2 4.62909 3.62909 3 5.63868 3H13.6259C14.0204 3 14.3414 3.15704 14.5678 3.31534C14.7939 3.47333 14.9831 3.67194 15.1368 3.85854C15.4417 4.22847 15.7245 4.69841 15.9651 5.11171C16.0251 5.21476 16.0828 5.31474 16.1386 5.41154C16.3234 5.73199 16.4881 6.01764 16.6518 6.26493C16.7329 6.38747 16.8027 6.48328 16.8618 6.55556H18.0007C20.2102 6.55556 22 8.34674 22 10.5556V15.5C21.2286 15.4972 20.4563 15.7901 19.8677 16.3787L19.2463 17H18C16.3431 17 15 15.6569 15 14C15 12.3431 16.3431 11 18 11H20V10.5556C20 9.45067 19.105 8.55556 18.0007 8.55556H16.5203C16.5063 8.55585 16.4922 8.55585 16.4782 8.55556H4V17C4 18.1046 4.89543 19 6 19H15.5C15.5282 19 15.5562 19.0012 15.5839 19.0035C15.3199 19.6382 15.2834 20.3453 15.4745 21H6C3.79086 21 2 19.2091 2 17V6.63868ZM4.00207 6.55556H14.4895L14.3854 6.37515C14.3345 6.28679 14.2848 6.20056 14.2368 6.1181C13.9915 5.6968 13.782 5.35928 13.5934 5.13042C13.5437 5.07015 13.5041 5.0282 13.4748 5H5.63868C4.76154 5 4.04536 5.68916 4.00207 6.55556ZM20 13H18C17.4477 13 17 13.4477 17 14C17 14.5523 17.4477 15 18 15H20V13Z" fill="black"/>
<path d="M22.6961 19.2071C23.0866 18.8166 23.0866 18.1834 22.6961 17.7929C22.3056 17.4024 21.6724 17.4024 21.2819 17.7929L19.3431 19.7316L19.0613 19.4497C18.6707 19.0592 18.0376 19.0592 17.647 19.4497C17.2565 19.8403 17.2565 20.4734 17.647 20.8639L18.636 21.8529C19.0266 22.2435 19.6597 22.2435 20.0503 21.8529L22.6961 19.2071Z" fill="black"/>
</svg>
