<svg width="24" height="24" viewBox="0 0 24 24" fill="none" xmlns="http://www.w3.org/2000/svg">
<path fill-rule="evenodd" clip-rule="evenodd" d="M2 6.63868C2 4.62909 3.62909 3 5.63868 3H13.6259C14.0204 3 14.3414 3.15704 14.5678 3.31534C14.7939 3.47333 14.9831 3.67194 15.1368 3.85854C15.4417 4.22847 15.7245 4.69841 15.9651 5.11171C16.0251 5.21476 16.0828 5.31474 16.1386 5.41154C16.3234 5.73199 16.4881 6.01764 16.6518 6.26493C16.7329 6.38747 16.8027 6.48328 16.8618 6.55556H18.0007C20.2102 6.55556 22 8.34674 22 10.5556V16C22 16.3271 21.8429 16.6175 21.6001 16.8C21.2352 16.3142 20.6543 16 20 16C19.2597 16 18.6134 16.4022 18.2676 17H18C16.3431 17 15 15.6569 15 14C15 12.3431 16.3431 11 18 11H20V10.5556C20 9.45067 19.105 8.55556 18.0007 8.55556H16.5203C16.5063 8.55585 16.4922 8.55585 16.4782 8.55556H4V17C4 18.1046 4.89543 19 6 19H15.5C15.748 19 15.9748 19.0902 16.1496 19.2397C16.0532 19.4741 16 19.7308 16 20C16 20.2692 16.0532 20.5259 16.1496 20.7603C15.9748 20.9098 15.748 21 15.5 21H6C3.79086 21 2 19.2091 2 17V6.63868ZM4.00207 6.55556H14.4895L14.3854 6.37515C14.3345 6.28679 14.2848 6.20056 14.2368 6.1181C13.9915 5.6968 13.782 5.35928 13.5934 5.13042C13.5437 5.07015 13.5041 5.0282 13.4748 5H5.63868C4.76154 5 4.04536 5.68916 4.00207 6.55556ZM20 13H18C17.4477 13 17 13.4477 17 14C17 14.5523 17.4477 15 18 15H20V13Z" fill="black"/>
<path d="M21 18C21 17.4477 20.5523 17 20 17C19.4477 17 19 17.4477 19 18V19H18C17.4477 19 17 19.4477 17 20C17 20.5523 17.4477 21 18 21H19V22C19 22.5523 19.4477 23 20 23C20.5523 23 21 22.5523 21 22V21H22C22.5523 21 23 20.5523 23 20C23 19.4477 22.5523 19 22 19H21V18Z" fill="black"/>
</svg>
