<svg width="24" height="24" viewBox="0 0 24 24" fill="none" xmlns="http://www.w3.org/2000/svg">
<path fill-rule="evenodd" clip-rule="evenodd" d="M2 6.63868C2 4.62909 3.62909 3 5.63868 3H13.6259C14.0204 3 14.3414 3.15704 14.5678 3.31534C14.7939 3.47333 14.9831 3.67194 15.1368 3.85854C15.4417 4.22847 15.7245 4.69841 15.9651 5.11171C16.0251 5.21476 16.0828 5.31474 16.1386 5.41154C16.3234 5.73199 16.4881 6.01764 16.6518 6.26493C16.7329 6.38747 16.8027 6.48328 16.8618 6.55556H18.0007C20.2102 6.55556 22 8.34674 22 10.5556V15.2084L21.4931 14.7578C21.0582 14.3712 20.539 14.1326 20 14.0418V13H18C17.4477 13 17 13.4477 17 14C17 14.3417 17.1713 14.6433 17.4328 14.8237L16.0069 16.0911C15.979 16.1159 15.9517 16.1411 15.925 16.1666C15.3549 15.6206 15 14.8517 15 14C15 12.3431 16.3431 11 18 11H20V10.5556C20 9.45067 19.105 8.55556 18.0007 8.55556H16.5203C16.5063 8.55585 16.4922 8.55585 16.4782 8.55556H4V17C4 18.1046 4.89543 19 6 19H15.0744C15.1828 19.4773 15.4096 19.9348 15.7578 20.3264C15.8906 20.4758 16.035 20.6089 16.1884 20.7253C16.0091 20.8955 15.7668 21 15.5 21H6C3.79086 21 2 19.2091 2 17V6.63868ZM4.00207 6.55556H14.4895L14.3854 6.37515C14.3345 6.28679 14.2848 6.20056 14.2368 6.1181C13.9915 5.6968 13.782 5.35928 13.5934 5.13042C13.5437 5.07015 13.5041 5.0282 13.4748 5H5.63868C4.76154 5 4.04536 5.68916 4.00207 6.55556Z" fill="black"/>
<path d="M20.1644 16.2526C19.7855 15.9158 19.2145 15.9158 18.8356 16.2526L17.3356 17.5859C16.9229 17.9528 16.8857 18.5849 17.2526 18.9977C17.5736 19.3588 18.0975 19.4325 18.5 19.1996V22C18.5 22.5523 18.9477 23 19.5 23C20.0523 23 20.5 22.5523 20.5 22V19.1996C20.9025 19.4325 21.4264 19.3588 21.7474 18.9977C22.1143 18.5849 22.0771 17.9528 21.6644 17.5859L20.1644 16.2526Z" fill="black"/>
</svg>
