<svg width="24" height="24" viewBox="0 0 24 24" fill="none" xmlns="http://www.w3.org/2000/svg">
<path fill-rule="evenodd" clip-rule="evenodd" d="M13.4228 3.10671C12.967 1.73916 11.0326 1.73918 10.5768 3.10671L6.83289 14.3384C6.234 16.1351 6.70161 18.1159 8.04077 19.4551L8.46429 19.8786C10.4169 21.8312 13.5827 21.8312 15.5354 19.8786L15.9589 19.4551C17.298 18.1159 17.7656 16.1351 17.1667 14.3384L13.4228 3.10671ZM8.73026 14.9709L11.9998 5.16219L15.2694 14.9709C15.6287 16.0489 15.3481 17.2374 14.5446 18.0409L14.1211 18.4644C12.9496 19.636 11.0501 19.636 9.8785 18.4644L9.45499 18.0409C8.65149 17.2374 8.37092 16.0489 8.73026 14.9709Z" fill="black"/>
</svg>
