<svg width="24" height="24" viewBox="0 0 24 24" fill="none" xmlns="http://www.w3.org/2000/svg">
<path d="M12.0007 5C10.6875 5 9.38715 5.25866 8.17389 5.7612C6.96063 6.26375 5.85824 7.00035 4.92966 7.92893C4.00107 8.85752 3.26448 9.95991 2.76193 11.1732C2.55058 11.6834 2.79288 12.2684 3.30313 12.4797C3.81337 12.6911 4.39834 12.4488 4.60969 11.9385C5.01173 10.9679 5.601 10.086 6.34387 9.34315C7.08674 8.60028 7.96865 8.011 8.93926 7.60896C9.90986 7.20693 10.9501 7 12.0007 7C13.0513 7 14.0916 7.20693 15.0622 7.60896C16.0328 8.011 16.9147 8.60028 17.6576 9.34315C18.4004 10.086 18.9897 10.9679 19.3918 11.9385C19.6031 12.4488 20.1881 12.6911 20.6983 12.4797C21.2086 12.2684 21.4509 11.6834 21.2395 11.1732C20.737 9.95991 20.0004 8.85752 19.0718 7.92893C18.1432 7.00035 17.0408 6.26375 15.8276 5.7612C14.6143 5.25866 13.3139 5 12.0007 5Z" fill="black"/>
<path d="M12.0008 8C11.0815 8 10.1713 8.18106 9.32199 8.53284C8.47271 8.88463 7.70104 9.40024 7.05103 10.0503C6.40102 10.7003 5.8854 11.4719 5.53362 12.3212C5.40826 12.6239 5.30459 12.9342 5.22306 13.25C5.08498 13.7847 5.40655 14.3302 5.9413 14.4682C6.47605 14.6063 7.02148 14.2847 7.15955 13.75C7.21778 13.5245 7.29184 13.3028 7.38138 13.0866C7.63265 12.48 8.00095 11.9288 8.46524 11.4645C8.92954 11.0002 9.48073 10.6319 10.0874 10.3806C10.694 10.1293 11.3442 10 12.0008 10C12.6574 10 13.3076 10.1293 13.9142 10.3806C14.5208 10.6319 15.072 11.0002 15.5363 11.4645C16.0006 11.9288 16.3689 12.48 16.6202 13.0866C16.7097 13.3028 16.7838 13.5245 16.842 13.75C16.9801 14.2847 17.5255 14.6063 18.0603 14.4682C18.595 14.3302 18.9166 13.7847 18.7785 13.25C18.697 12.9342 18.5933 12.6239 18.4679 12.3212C18.1162 11.4719 17.6005 10.7003 16.9505 10.0503C16.3005 9.40024 15.5288 8.88463 14.6796 8.53284C13.8303 8.18106 12.92 8 12.0008 8Z" fill="black"/>
<path d="M10.47 11.3045C10.9554 11.1035 11.4755 11 12.0008 11C12.5261 11 13.0462 11.1035 13.5315 11.3045C14.0168 11.5055 14.4578 11.8001 14.8292 12.1716C15.2006 12.543 15.4953 12.984 15.6963 13.4693C15.8116 13.7477 15.8948 14.0376 15.9448 14.3333C16.0369 14.8779 15.67 15.394 15.1255 15.486C14.5809 15.5781 14.0649 15.2112 13.9728 14.6667C13.9478 14.5188 13.9062 14.3738 13.8485 14.2346C13.748 13.992 13.6007 13.7715 13.415 13.5858C13.2293 13.4001 13.0088 13.2528 12.7661 13.1522C12.5235 13.0517 12.2634 13 12.0008 13C11.7381 13 11.4781 13.0517 11.2354 13.1522C10.9928 13.2528 10.7723 13.4001 10.5866 13.5858C10.4009 13.7715 10.2535 13.992 10.153 14.2346C10.0954 14.3738 10.0538 14.5188 10.0288 14.6667C9.93671 15.2112 9.42064 15.5781 8.87607 15.486C8.33151 15.394 7.96468 14.8779 8.05673 14.3333C8.10672 14.0376 8.18994 13.7477 8.30526 13.4693C8.50628 12.984 8.80092 12.543 9.17235 12.1716C9.54379 11.8001 9.98475 11.5055 10.47 11.3045Z" fill="black"/>
<path d="M12.0007 18C12.8292 18 13.5007 17.3284 13.5007 16.5C13.5007 15.6716 12.8292 15 12.0007 15C11.1723 15 10.5008 15.6716 10.5008 16.5C10.5008 17.3284 11.1723 18 12.0007 18Z" fill="black"/>
</svg>
