<svg width="24" height="24" viewBox="0 0 24 24" fill="none" xmlns="http://www.w3.org/2000/svg">
<path d="M12.5 10C12.5 9.44772 12.0523 9 11.5 9C10.9477 9 10.5 9.44772 10.5 10V13C10.5 13.5523 10.9477 14 11.5 14H13.5C14.0523 14 14.5 13.5523 14.5 13C14.5 12.4477 14.0523 12 13.5 12H12.5V10Z" fill="black"/>
<path fill-rule="evenodd" clip-rule="evenodd" d="M16 6V7.52784C17.2261 8.62531 18 10.2224 18 12C18 13.7776 17.2261 15.3747 16 16.4722V18C16 20.2091 14.2091 22 12 22C9.79086 22 8 20.2091 8 18V16.4722C6.77389 15.3747 6 13.7776 6 12C6 10.2224 6.77389 8.62531 8 7.52784V6C8 3.79086 9.79086 2 12 2C14.2091 2 16 3.79086 16 6ZM10 6C10 4.89543 10.8954 4 12 4C13.1046 4 14 4.89543 14 6V6.3417C13.3741 6.12044 12.7007 6 12 6C11.2993 6 10.6259 6.12044 10 6.3417V6ZM12 18C12.7007 18 13.3741 17.8796 14 17.6583V18C14 19.1046 13.1046 20 12 20C10.8954 20 10 19.1046 10 18V17.6583C10.6259 17.8796 11.2993 18 12 18ZM9.60058 8.7992C10.269 8.29712 11.0984 8 12 8C12.9016 8 13.731 8.29712 14.3994 8.7992C15.3732 9.53066 16 10.692 16 12C16 13.308 15.3732 14.4693 14.3994 15.2008C13.731 15.7029 12.9016 16 12 16C11.0984 16 10.269 15.7029 9.60058 15.2008C8.62676 14.4693 8 13.308 8 12C8 10.692 8.62676 9.53066 9.60058 8.7992Z" fill="black"/>
</svg>
