<svg width="24" height="24" viewBox="0 0 24 24" fill="none" xmlns="http://www.w3.org/2000/svg">
<path d="M7.81381 3.91884C7.4928 3.46943 6.86825 3.36534 6.41884 3.68634C5.96943 4.00735 5.86534 4.6319 6.18634 5.08132L11.0001 11.8205V12.0001H8.00008C7.44779 12.0001 7.00008 12.4478 7.00008 13.0001C7.00008 13.5524 7.44779 14.0001 8.00008 14.0001H11.0001V14.5001H8.00008C7.44779 14.5001 7.00008 14.9478 7.00008 15.5001C7.00008 16.0524 7.44779 16.5001 8.00008 16.5001H11.0001V20.5001C11.0001 21.0524 11.4478 21.5001 12.0001 21.5001C12.5524 21.5001 13.0001 21.0524 13.0001 20.5001V16.5001H16.0001C16.5524 16.5001 17.0001 16.0524 17.0001 15.5001C17.0001 14.9478 16.5524 14.5001 16.0001 14.5001H13.0001V14.0001H16.0001C16.5524 14.0001 17.0001 13.5524 17.0001 13.0001C17.0001 12.4478 16.5524 12.0001 16.0001 12.0001H13.0001V11.8205L17.8138 5.08132C18.1348 4.6319 18.0307 4.00735 17.5813 3.68634C17.1319 3.36534 16.5074 3.46943 16.1863 3.91884L12.0001 9.77961L7.81381 3.91884Z" fill="black"/>
</svg>
