<svg width="24" height="24" viewBox="0 0 24 24" fill="none" xmlns="http://www.w3.org/2000/svg">
<path d="M10 6C10.5523 6 11 6.44772 11 7V9H13C13.5523 9 14 9.44772 14 10C14 10.5523 13.5523 11 13 11H11V13C11 13.5523 10.5523 14 10 14C9.44772 14 9 13.5523 9 13V11H7C6.44772 11 6 10.5523 6 10C6 9.44772 6.44772 9 7 9H9V7C9 6.44772 9.44772 6 10 6Z" fill="black"/>
<path fill-rule="evenodd" clip-rule="evenodd" d="M1 10C1 5.02944 5.02944 1 10 1C14.9706 1 19 5.02944 19 10C19 12.125 18.2635 14.078 17.0319 15.6177L21.7071 20.2929C22.0976 20.6834 22.0976 21.3166 21.7071 21.7071C21.3166 22.0976 20.6834 22.0976 20.2929 21.7071L15.6177 17.0319C14.078 18.2635 12.125 19 10 19C5.02944 19 1 14.9706 1 10ZM10 3C6.13401 3 3 6.13401 3 10C3 13.866 6.13401 17 10 17C13.866 17 17 13.866 17 10C17 6.13401 13.866 3 10 3Z" fill="black"/>
</svg>
