<svg xmlns="http://www.w3.org/2000/svg" width="100" height="30.03003003003003" class="w-[75px] navbar:w-[100px]" viewBox="0 0 100 30" fill="none"><g clip-path="url(#clip0_1016_262446)"><path d="M8.20936 9.64201L8.22345 9.43386H8.41674V7.2533V7.11093L8.28405 7.05931C7.8726 6.89926 7.37958 6.83873 6.87145 6.83873C4.96652 6.83873 3.4516 7.66863 2.60294 9.12895V7.28257V7.07442H2.39479H-0.046875H-0.255024V7.28257V22.1937V22.4019H-0.046875H2.39479H2.60294V22.1937V14.5614C2.60294 12.8374 3.01061 11.5909 3.73844 10.777C4.46277 9.96697 5.53301 9.55343 6.92998 9.55343C7.29533 9.55343 7.64014 9.57443 8.00044 9.61708V9.64201H8.20859H8.20936Z" fill="black" stroke="black" stroke-width="0.416298"></path><path d="M23.7592 22.4032H23.9673V22.1951V7.49209V7.28394V7.28317H23.7592V7.0758H21.3175H21.1094V7.28394V9.2128C20.0585 7.63193 18.0947 6.66294 15.8811 6.66294C11.7044 6.66294 8.66685 10.0488 8.66685 14.7391C8.66685 19.4294 11.7044 22.8161 15.8811 22.8161C18.0947 22.8161 20.0585 21.8471 21.1094 20.2662V22.1951V22.4032H21.3175H23.7592ZM19.8814 10.8677L19.8814 10.8678L19.8836 10.8702C20.7732 11.8563 21.2257 13.159 21.2257 14.7384C21.2257 16.3177 20.7732 17.6204 19.8836 18.6065L19.8836 18.6065L19.8814 18.609C19.0231 19.5912 17.8614 20.0998 16.4334 20.0998C15.0067 20.0998 13.8436 19.592 12.955 18.6077C12.0933 17.6209 11.6411 16.3172 11.6411 14.7384C11.6411 13.1596 12.0933 11.8558 12.955 10.869C13.8436 9.88472 15.0067 9.37688 16.4334 9.37688C17.8614 9.37688 19.0231 9.88548 19.8814 10.8677Z" fill="black" stroke="black" stroke-width="0.416298"></path><path d="M39.8996 7.28516V7.07701H39.6914H39.6899H37.2482H37.04V7.28516V15.7424C37.04 16.9232 36.584 17.9049 35.8157 18.5935C35.0455 19.2837 33.9491 19.6897 32.6552 19.6897C31.5435 19.6897 30.7702 19.3914 30.2674 18.7916C29.7576 18.1837 29.4913 17.2261 29.4913 15.831V7.28516V7.07701H29.2831H26.8414H26.6333V7.28516V16.4202C26.6333 18.3258 27.1294 19.8266 28.0728 20.8526C29.0186 21.8812 30.388 22.4044 32.0745 22.4044C34.2286 22.4044 36.0276 21.5771 37.0408 20.0572V20.7521C37.0408 22.5342 36.612 23.8397 35.8407 24.6981C35.0726 25.5529 33.9366 25.9957 32.4527 25.9957C30.7549 25.9957 29.1205 25.3933 27.971 24.3412L27.8074 24.1914L27.6683 24.3641L26.2441 26.1326L26.1289 26.2757L26.2565 26.4078C27.6721 27.8736 29.9999 28.7112 32.5112 28.7112C34.8206 28.7112 36.6767 28.02 37.9537 26.6603C39.229 25.3026 39.8996 23.3073 39.8996 20.7529V7.28516Z" fill="black" stroke="black" stroke-width="0.416298"></path><path d="M55.5797 22.404H55.7879V22.1958V22.1951V12.6471C55.7879 10.7717 55.3067 9.27131 54.3711 8.23789C53.4327 7.2014 52.0629 6.66294 50.3467 6.66294C48.2018 6.66294 46.4295 7.48377 45.4389 8.99288V7.28394V7.07579H45.2307H42.7891H42.5809V7.28394V22.1958V22.404H42.7891H45.2307H45.4389V22.1958V13.3257C45.4389 12.1288 45.889 11.1472 46.646 10.4631C47.405 9.77732 48.4863 9.37842 49.7659 9.37842C50.8926 9.37842 51.6652 9.67717 52.1641 10.276C52.6702 10.8836 52.9299 11.841 52.9299 13.2372V22.1958V22.404H53.138H55.5797Z" fill="black" stroke="black" stroke-width="0.416298"></path><path d="M73.0873 22.4032H73.2954V22.1951V7.49209V7.28394V7.28317H73.0873V7.0758H70.6456H70.4375V7.28394V9.2128C69.3867 7.63193 67.4228 6.66294 65.2093 6.66294C61.0325 6.66294 57.995 10.0488 57.995 14.7391C57.995 19.4294 61.0325 22.8161 65.2093 22.8161C67.4228 22.8161 69.3867 21.8471 70.4375 20.2662V22.1951V22.4032H70.6456H73.0873ZM69.2095 10.8677L69.2095 10.8678L69.2117 10.8702C70.1014 11.8563 70.5538 13.159 70.5538 14.7384C70.5538 16.3177 70.1014 17.6204 69.2117 18.6065L69.2117 18.6065L69.2095 18.609C68.3512 19.5912 67.1895 20.0998 65.7615 20.0998C64.3348 20.0998 63.1717 19.592 62.2832 18.6077C61.4214 17.6209 60.9693 16.3172 60.9693 14.7384C60.9693 13.1596 61.4215 11.8558 62.2832 10.869C63.1717 9.88472 64.3348 9.37688 65.7615 9.37688C67.1895 9.37688 68.3512 9.88548 69.2095 10.8677Z" fill="black" stroke="black" stroke-width="0.416298"></path><path d="M84.3779 7.28516V7.07701H84.1698H81.7281H81.7266H81.5184V7.28516V16.6274C81.5184 18.4471 82.1702 19.9991 83.3236 21.0956C84.4763 22.1914 86.1147 22.8181 88.0641 22.8181C90.0135 22.8181 91.652 22.1914 92.8046 21.0956C93.9581 19.9991 94.6098 18.4471 94.6098 16.6274V7.28516V7.07701H94.4017H91.96H91.7519V7.28516V16.4795C91.7519 17.6777 91.408 18.5754 90.7937 19.1744C90.1786 19.7743 89.2635 20.1026 88.0649 20.1026C86.8663 20.1026 85.9512 19.7743 85.336 19.1745C84.7217 18.5754 84.3779 17.6777 84.3779 16.4795V7.28516Z" fill="black" stroke="black" stroke-width="0.416298"></path><path d="M97.6719 7.07701H97.4637V7.28516V22.1971V22.4052H97.6719H100.114H100.322V22.1971V7.28516V7.07701H100.114H97.6719Z" fill="black" stroke="black" stroke-width="0.416298"></path></g><defs><clipPath id="clip0_1016_262446"><rect width="100" height="29" fill="white" transform="translate(0 0.5)"></rect></clipPath></defs></svg>